<?xml version="1.0" encoding="UTF-8" standalone="no"?>
<!DOCTYPE svg PUBLIC "-//W3C//DTD SVG 1.1//EN" "http://www.w3.org/Graphics/SVG/1.1/DTD/svg11.dtd">
<svg width="100%" height="100%" viewBox="0 0 3508 2481" version="1.1" xmlns="http://www.w3.org/2000/svg" xmlns:xlink="http://www.w3.org/1999/xlink" xml:space="preserve" xmlns:serif="http://www.serif.com/" style="fill-rule:evenodd;clip-rule:evenodd;stroke-linejoin:round;stroke-miterlimit:2;">
    <g transform="matrix(1.54128,0,0,1.54128,2068.01,1568.28)">
        <g transform="matrix(1,0,0,1,-1754,-1240.5)">
            <path d="M840.912,1200.26C842.22,1199.01 844.248,1197.72 846.981,1196.56C851.841,1194.5 859.48,1192.55 868.582,1190.8C897.146,1185.32 940.892,1181.44 953.134,1178.73C963.051,1176.54 987.063,1168.01 1005.22,1167.67C1014.72,1167.5 1022.76,1169.65 1027.73,1174.61C1031.82,1178.69 1034.09,1186.03 1034.64,1194.98C1035.67,1211.65 1031.28,1234.67 1032.35,1244.16C1036.02,1277 1046.03,1313.4 1060.54,1342.54C1063.41,1348.31 1059.24,1351.37 1058.56,1351.75C1057.49,1352.35 1054.79,1353.55 1051.7,1351.15C1050.92,1350.55 1048.77,1348.13 1046.23,1345.13C1043.38,1341.77 1039.83,1337.46 1037.43,1335.87C1025.15,1327.73 1017.28,1322.68 1001.41,1325.32C977.666,1329.26 956.022,1339.26 934.138,1348.17C911.117,1357.54 887.839,1365.72 861.944,1365.53C858.633,1365.51 855.964,1362.8 855.987,1359.49C856.011,1356.18 858.719,1353.51 862.03,1353.53C886.29,1353.7 908.047,1345.83 929.614,1337.05C952.316,1327.81 974.813,1317.57 999.44,1313.48C1016.69,1310.62 1026.41,1314.61 1038.83,1322.47C1029.63,1297.8 1023.24,1270.64 1020.42,1245.49C1019.49,1237.16 1022.55,1218.65 1022.8,1202.77C1022.88,1198.02 1022.69,1193.54 1021.96,1189.74C1021.42,1186.95 1020.72,1184.57 1019.25,1183.1C1017.43,1181.29 1014.75,1180.45 1011.68,1180.01C1007.66,1179.42 1003.02,1179.62 998.172,1180.22C982.106,1182.21 963.932,1188.63 955.728,1190.45C943.437,1193.17 899.52,1197.09 870.844,1202.59C863.846,1203.93 857.799,1205.36 853.47,1206.91C851.511,1207.61 849.979,1208.16 849.206,1208.93C848.955,1209.18 848.553,1209.5 848.141,1209.8C848.279,1212.69 848.701,1215.35 849.272,1217.91C850.6,1216.79 852.079,1216.6 853.098,1216.59C854.715,1216.59 856.689,1217.05 858.205,1219.34C858.501,1219.79 858.99,1220.62 859.243,1222.06C859.428,1223.11 859.597,1225.69 859.607,1230.47C859.627,1240.77 862.147,1252.38 865.494,1263.9C869.047,1271.3 872.285,1278.78 873.874,1286.66C874.19,1288.23 875.52,1290.22 876.734,1292.23C878.636,1295.39 880.486,1298.53 881.15,1300.71C882.263,1304.37 881.225,1307.09 879.545,1308.8C878.396,1309.97 876.63,1311.06 873.763,1311.06C870.761,1311.06 868.92,1310.06 867.675,1308.97C866.177,1307.66 865.313,1305.97 865.012,1303.99C864.871,1303.06 864.943,1301.28 864.978,1300.59C861.749,1290.97 857.81,1279.94 854.5,1268.71C853.849,1267.36 853.189,1266.02 852.53,1264.68C848.167,1255.8 843.871,1246.89 841.965,1237.4C839.776,1226.5 836.045,1218.75 836.089,1207.52C836.097,1205.55 836.802,1203.88 838.098,1202.46C838.77,1201.72 840.58,1200.48 840.912,1200.26Z"/>
            <path d="M1015.29,1164.44C1015.92,1163.66 1017.93,1161.14 1019.18,1159.1C1023.64,1151.85 1028.61,1142.16 1032.02,1138.76C1086.07,1084.85 1151.55,989.037 1182.42,919.838C1193.43,895.154 1207.33,872.263 1216.56,846.956C1217.54,844.271 1227.6,813.85 1230.79,808.999C1232.23,806.821 1233.94,806.121 1234.87,805.878C1237.15,805.277 1239.13,805.806 1240.8,807.474C1241.27,807.941 1242.3,809.271 1242.99,811.781C1244.04,815.563 1245.76,825.255 1247.88,838.906C1258.24,905.407 1279,1068.24 1282.82,1088.85C1293.51,1146.36 1308.59,1204.4 1325.85,1260.26C1335.52,1291.58 1369.75,1363.67 1389.36,1417.55C1398.08,1441.54 1403.86,1462.09 1403.82,1474.31C1403.8,1477.46 1402.36,1479.02 1401.38,1479.83C1399.78,1481.13 1397.78,1481.74 1395.31,1480.92C1394.4,1480.62 1393,1479.86 1391.6,1478.37C1389.69,1476.34 1386.73,1471.73 1384.92,1469.93C1376.77,1461.81 1370.99,1454.95 1362.15,1447.25C1336.37,1424.78 1311.99,1402.4 1284.68,1381.53C1210.82,1325.09 1127.37,1293.96 1034.07,1293.83C1030.76,1293.82 1028.08,1291.13 1028.08,1287.82C1028.09,1284.51 1030.78,1281.82 1034.09,1281.83C1130.09,1281.97 1215.97,1313.92 1291.96,1372C1319.48,1393.03 1344.06,1415.57 1370.04,1438.21C1377.57,1444.77 1382.95,1450.72 1389.35,1457.32C1386.95,1447.25 1382.95,1435.04 1378.08,1421.65C1358.41,1367.58 1324.09,1295.23 1314.38,1263.81C1296.99,1207.5 1281.79,1149.01 1271.03,1091.04C1267.19,1070.41 1246.39,907.345 1236.03,840.752C1235.58,837.853 1235.11,835.047 1234.66,832.415L1227.83,851.068C1218.51,876.638 1204.51,899.786 1193.38,924.728C1162,995.067 1095.44,1092.46 1040.5,1147.25C1036.89,1150.85 1031.67,1162.35 1027.16,1168.84C1025.17,1171.7 1023.16,1173.79 1021.5,1174.83C1019.82,1175.89 1018.19,1176.27 1016.72,1176.23C1013.4,1176.14 1010.79,1173.38 1010.87,1170.07C1010.94,1167.37 1012.8,1165.12 1015.29,1164.44Z"/>
            <path d="M1349.52,1075.84C1352.53,1075.87 1355.25,1078.16 1358.13,1081.39C1362.06,1085.79 1365.8,1092.06 1369.36,1099.46C1381.64,1125.02 1391.25,1163.7 1394.64,1190.46C1396,1201.26 1396.42,1209.99 1395.35,1214.82C1394.63,1218.05 1396.68,1221.26 1399.91,1221.98C1403.14,1222.69 1406.35,1220.65 1407.07,1217.42C1408.32,1211.78 1408.13,1201.57 1406.54,1188.96C1403.02,1161.1 1392.95,1120.87 1380.17,1094.26C1375.18,1083.86 1369.69,1075.48 1364.11,1070.37C1359.41,1066.07 1354.48,1063.89 1349.64,1063.84C1346.33,1063.81 1343.62,1066.47 1343.58,1069.78C1343.55,1073.09 1346.21,1075.81 1349.52,1075.84Z"/>
            <path d="M1383.94,966.849C1384.65,966.856 1385.41,967.327 1386.31,967.84C1387.97,968.79 1389.76,970.151 1391.62,971.748C1401.55,980.259 1412.87,995.035 1416.31,999.141C1488.61,1085.54 1533.76,1191.45 1547.27,1302.89C1547.67,1306.18 1550.66,1308.52 1553.95,1308.12C1557.24,1307.72 1559.58,1304.73 1559.18,1301.44C1545.39,1187.71 1499.3,1079.62 1425.51,991.44C1421.89,987.113 1409.89,971.607 1399.44,962.64C1393.72,957.734 1388.08,954.889 1384.06,954.85C1380.75,954.818 1378.03,957.481 1378,960.792C1377.97,964.103 1380.63,966.818 1383.94,966.849Z"/>
            <path d="M1415.5,780.416C1442.44,780.66 1467.44,780.512 1493.23,793.353C1579.88,836.514 1673.08,963.742 1717.08,1091.69C1746.18,1176.31 1753.9,1261.33 1722.84,1322.39C1721.34,1325.34 1722.51,1328.96 1725.47,1330.46C1728.42,1331.96 1732.03,1330.78 1733.53,1327.83C1765.86,1264.31 1758.7,1175.83 1728.43,1087.79C1683.36,956.728 1587.34,826.822 1498.58,782.612C1471.03,768.894 1444.39,768.677 1415.61,768.416C1412.29,768.386 1409.58,771.051 1409.55,774.362C1409.52,777.673 1412.19,780.386 1415.5,780.416Z"/>
            <path d="M1972.79,643.019C1965.04,638.321 1943.86,624.701 1953.77,600.114C1959.77,585.228 1972.94,573.473 1988.95,564.779C2011.81,552.369 2040.39,546.122 2059.74,544.745C2135.22,539.375 2177.96,582.787 2199.92,641.874C2221.29,699.355 2222.66,771.872 2215.75,826.826C2208.2,886.938 2187.91,946.76 2184.14,1007.15C2181.75,1045.37 2192.25,1076.34 2195.94,1112.25C2196.28,1115.55 2193.88,1118.5 2190.58,1118.83C2187.29,1119.17 2184.34,1116.77 2184,1113.48C2180.24,1076.9 2169.73,1045.33 2172.16,1006.4C2175.95,945.765 2196.26,885.688 2203.85,825.33C2210.54,772.067 2209.38,701.766 2188.68,646.055C2168.57,591.95 2129.7,551.797 2060.6,556.714C2042.58,557.997 2015.96,563.772 1994.68,575.325C1981.27,582.606 1969.92,592.134 1964.9,604.601C1960.42,615.715 1966.21,623.19 1971.71,627.757C1976.67,631.873 1981.53,634.274 1982.33,635.073C1984.83,637.582 1984.35,640.12 1983.82,641.567C1983.4,642.717 1982.11,645.697 1977.6,645.609C1975.6,645.57 1973.84,644.551 1972.79,643.019ZM1977.5,633.614L1977.46,633.617L1977.51,633.614L1977.5,633.614Z"/>
            <path d="M2095.22,826.307C2107.25,826.49 2114.31,817.795 2115.7,809.215C2116.35,805.269 2115.77,801.357 2114.11,798.207C2110.62,791.589 2101.79,786.5 2086.64,794.997C2083.76,796.617 2082.73,800.277 2084.35,803.166C2085.97,806.054 2089.63,807.083 2092.52,805.463C2095.71,803.67 2098.35,802.733 2100.53,802.614C2101.95,802.536 2103.01,802.884 2103.49,803.797C2104.23,805.207 2104.08,807.084 2103.46,808.82C2102.41,811.789 2099.64,814.373 2095.41,814.308C2092.1,814.258 2089.37,816.905 2089.32,820.216C2089.27,823.527 2091.91,826.256 2095.22,826.307Z"/>
        </g>
    </g>
</svg>
