<?xml version="1.0" encoding="UTF-8" standalone="no"?>
<!DOCTYPE svg PUBLIC "-//W3C//DTD SVG 1.1//EN" "http://www.w3.org/Graphics/SVG/1.1/DTD/svg11.dtd">
<svg width="100%" height="100%" viewBox="0 0 3508 2481" version="1.1" xmlns="http://www.w3.org/2000/svg" xmlns:xlink="http://www.w3.org/1999/xlink" xml:space="preserve" xmlns:serif="http://www.serif.com/" style="fill-rule:evenodd;clip-rule:evenodd;stroke-linejoin:round;stroke-miterlimit:2;">
    <g transform="matrix(1.47886,0,0,1.49916,333.682,-75.0911)">
        <path d="M959.064,542.648C958.609,541.556 957.97,540.027 957.516,538.948C956.684,536.972 956.127,535.029 956.121,533.525C956.118,532.724 955.589,532.373 954.991,532.181C953.914,531.836 952.673,531.775 951.54,531.775C949.092,531.775 946.645,532.968 944.148,534.813C941.112,537.057 938.099,540.271 935.14,544.077C920.408,563.029 907.417,596.198 903.504,606.606C894.026,631.815 892.636,663.382 901.652,689.534C910.465,715.095 929.356,735.443 960.687,738.911C989.286,742.076 1019.82,727.677 1044.92,716.305C1093.12,694.473 1125.19,665.472 1141.29,636.378C1151.74,617.503 1155.42,598.648 1152.23,581.875C1148.28,561.116 1133.74,543.706 1109.04,533.499C1083.43,522.919 1047.15,520.047 1000.42,528.814C998.219,529.227 996.094,527.8 995.676,525.63C995.257,523.46 996.704,521.363 998.903,520.95C1097.57,502.442 1151.56,534.967 1160.2,580.399C1163.7,598.795 1159.87,619.512 1148.41,640.214C1131.66,670.487 1098.46,700.863 1048.31,723.58C1021.96,735.515 989.797,750.188 959.782,746.866C924.932,743.008 903.772,720.544 893.97,692.111C884.371,664.269 885.805,630.661 895.896,603.823C899.942,593.06 913.467,558.804 928.701,539.207C936.066,529.732 944.13,523.77 951.54,523.77C957.508,523.77 964.206,525.903 964.236,533.494C964.239,534.43 964.893,535.641 965.445,536.876C966.393,538.998 967.341,541.107 967.608,542.564C968.035,544.892 967.274,546.574 966.131,547.621C965.305,548.377 964.099,549.021 962.24,548.96C960.002,548.886 958.245,547.034 958.32,544.827C958.347,544.014 958.619,543.265 959.064,542.648Z" style="fill:rgb(0,9,1);"/>
    </g>
    <g transform="matrix(1.47886,0,0,1.49916,333.682,-75.0911)">
        <path d="M993.746,756.979C993.092,756.246 992.708,755.278 992.737,754.228C992.8,752.02 994.667,750.277 996.906,750.338C998.826,750.391 1000.21,751.288 1001.11,752.893C1001.56,753.693 1001.87,754.835 1001.92,756.146C1001.97,757.554 1001.67,759.316 1001.67,760.098C1001.67,803.567 998.619,846.111 995.902,889.414C992.144,949.304 988.722,1012.35 993.031,1072.45C995.572,1107.89 1000.03,1146.64 995.076,1182.25C994.771,1184.43 992.723,1185.97 990.505,1185.67C988.286,1185.37 986.733,1183.35 987.037,1181.16C991.92,1146.09 987.44,1107.92 984.937,1073.02C980.602,1012.57 984.023,949.156 987.803,888.92C990.509,845.782 993.554,803.401 993.554,760.098C993.554,759.57 993.672,757.936 993.746,756.979ZM996.516,758.331C996.57,758.335 996.625,758.338 996.68,758.339L996.516,758.331Z" style="fill:rgb(0,9,1);"/>
    </g>
    <g transform="matrix(1.47886,0,0,1.49916,333.682,-75.0911)">
        <path d="M974.115,897.95C973.193,897.19 972.621,896.035 972.66,894.76C972.728,892.552 974.6,890.814 976.838,890.881C977.247,890.893 978.183,890.922 979.264,891.756C979.524,891.957 980.547,892.996 982.123,894.803C994.858,909.405 1055.84,982.818 1066.58,992.309C1078.85,1003.15 1092.22,1012.14 1106.29,1020.55C1109.77,1022.63 1117.45,1025.95 1122.26,1028.46C1125.12,1029.95 1127.11,1031.43 1127.73,1032.28C1129.38,1034.49 1128.81,1036.37 1127.61,1037.76C1127.07,1038.37 1125.73,1039.47 1122.92,1039.42C1120.83,1039.39 1119.13,1037.79 1118.95,1035.78C1114.23,1033.23 1105.79,1029.61 1102.08,1027.39C1087.58,1018.72 1073.81,1009.44 1061.16,998.272C1050.33,988.704 988.81,914.743 975.972,900.023C975.125,899.053 974.337,898.192 974.115,897.95Z" style="fill:rgb(0,9,1);"/>
    </g>
    <g transform="matrix(1.47886,0,0,1.49916,333.682,-75.0911)">
        <path d="M972.66,912L972.66,911.967C972.729,909.759 974.602,908.022 976.84,908.09C978.474,908.139 979.895,908.845 980.593,910.807C980.737,911.21 981.041,912.455 980.431,914.316C978.465,920.319 963.107,951.111 939.547,968.695C904.325,994.983 870.064,1021.31 832.726,1044.57C830.578,1045.9 813.852,1056.72 803.989,1059.22C799.261,1060.42 795.62,1059.56 793.776,1057.57C792.724,1056.43 791.987,1054.86 791.962,1052.68C791.936,1050.47 793.733,1048.66 795.972,1048.63C797.93,1048.61 799.581,1049.96 799.983,1051.78C800.4,1051.75 800.918,1051.71 801.329,1051.62C802.688,1051.33 804.228,1050.81 805.863,1050.16C814.979,1046.53 826.673,1038.87 828.394,1037.8C865.537,1014.66 899.613,988.463 934.651,962.312C956.353,946.115 970.642,917.91 972.66,912ZM973.274,914.209C973.981,915.478 975.107,915.995 976.38,916.079C975.064,915.972 973.933,915.248 973.274,914.209Z" style="fill:rgb(0,9,1);"/>
    </g>
    <g transform="matrix(1.47886,0,0,1.49916,333.682,-75.0911)">
        <path d="M1189.84,1378.57C1190.31,1378.67 1190.77,1378.86 1191.2,1379.14C1193.17,1380.42 1196.8,1383.28 1198.88,1385.54C1200.44,1387.24 1201.19,1388.93 1201.31,1389.95C1201.47,1391.35 1201.06,1392.49 1200.29,1393.4C1199.61,1394.21 1198.43,1395.11 1196.29,1395.11C1196.24,1395.11 1194.82,1395.35 1193.37,1393.88C1193.25,1393.76 1192.63,1393.12 1191.59,1392.04C1181.45,1381.49 1130.75,1328.59 1127.23,1325.08C1093.18,1291.17 1055.64,1258.41 1028.8,1218.35C1025.96,1214.11 1022.58,1205.82 1018.18,1199.81C1016.06,1196.91 1013.89,1194.38 1011.03,1194.31C1008.79,1194.25 1007.02,1192.41 1007.08,1190.2C1007.14,1187.99 1009,1186.25 1011.24,1186.31C1016.35,1186.44 1020.97,1189.94 1024.76,1195.12C1029.22,1201.22 1032.69,1209.63 1035.57,1213.94C1062.12,1253.56 1099.32,1285.91 1132.99,1319.45C1135.95,1322.4 1172.27,1360.26 1189.84,1378.57Z" style="fill:rgb(0,9,1);"/>
    </g>
    <g transform="matrix(1.47886,0,0,1.49916,333.682,-75.0911)">
        <path d="M987.875,1184.18C987.303,1183.47 986.973,1182.57 987.001,1181.59C987.065,1179.38 988.934,1177.64 991.172,1177.7C992.873,1177.75 994.889,1178.73 995.689,1181.53C996.491,1184.33 995.785,1191.27 995.777,1191.3C984.951,1234.1 951.672,1270.75 932.119,1309.7C913.322,1347.15 893.816,1384.12 880.518,1423.91C878.639,1429.53 875.038,1458.03 869.832,1468.92C868.746,1471.19 867.517,1472.85 866.326,1473.82C864.836,1475.04 863.25,1475.5 861.672,1475.38C859.439,1475.21 857.768,1473.28 857.942,1471.08C858.089,1469.23 859.498,1467.76 861.272,1467.45C861.711,1466.68 863.32,1463.76 864.155,1461.2C868.303,1448.5 871.183,1426.27 872.811,1421.4C886.229,1381.25 905.88,1343.93 924.847,1306.15C944.101,1267.79 977.044,1231.81 987.821,1189.69L987.875,1184.18ZM990.668,1185.68L990.682,1185.69L990.651,1185.68L990.668,1185.68Z" style="fill:rgb(0,9,1);"/>
    </g>
    <g transform="matrix(1.47886,0,0,1.49916,333.682,-75.0911)">
        <path d="M923.835,624.312C927.138,624.991 927.674,627.4 927.749,628.213C927.859,629.403 927.415,631.395 925.177,632.551C923.87,633.227 921.42,633.649 919.672,633.154C917.401,632.512 915.821,630.956 915.81,628.175C915.755,614.286 912.454,591.458 903.972,573.968C898.706,563.108 891.522,554.238 881.463,551.73C874.687,550.041 869.97,553.498 865.638,556.157C861.384,558.767 857.338,560.778 853.041,560.42C850.81,560.234 849.151,558.297 849.34,556.095C849.528,553.894 851.493,552.258 853.724,552.444C855.161,552.564 856.5,552.033 857.877,551.35C859.876,550.358 861.888,548.995 864.049,547.72C869.387,544.57 875.467,541.98 883.451,543.97C895.677,547.018 904.891,557.314 911.292,570.514C919.569,587.581 923.244,609.42 923.835,624.312Z" style="fill:rgb(0,9,1);"/>
    </g>
    <g transform="matrix(1.47886,0,0,1.49916,333.682,-75.0911)">
        <path d="M910.553,482.104C910.932,481.324 912.144,478.951 913.442,477.502C914.666,476.136 916.202,475.069 918.023,474.594C919.854,474.116 922.032,474.171 924.583,475.439C966.825,496.437 969.995,535.758 969.995,582.269L969.99,592.706C970.346,592.617 970.722,592.575 971.108,592.587C973.798,592.671 976.013,594.407 975.949,598.25C975.903,601.025 974.055,606.056 972.163,608.857C971.181,610.312 970.083,611.266 969.233,611.707C968.079,612.304 966.971,612.384 965.989,612.18C964.909,611.956 963.841,611.389 963.011,610.145C962.489,609.363 961.885,607.839 961.88,605.222C961.865,597.571 961.88,589.92 961.88,582.269C961.88,539.085 960.152,502.083 920.932,482.587C920.609,482.427 920.352,482.296 920.108,482.33C919.762,482.38 919.586,482.716 919.378,482.972C918.654,483.864 918.19,484.931 917.854,485.604C917.273,486.771 916.637,487.489 916.293,487.77C915.296,488.586 914.283,488.764 913.428,488.725C911.191,488.623 909.459,486.749 909.562,484.543C909.606,483.607 909.973,482.76 910.553,482.104ZM970.684,600.578C970.738,600.583 970.794,600.586 970.851,600.588L970.684,600.578Z" style="fill:rgb(0,9,1);"/>
    </g>
    <g transform="matrix(1.47886,0,0,1.49916,333.682,-75.0911)">
        <path d="M966.77,594.629C965.142,594.067 963.998,592.512 964.056,590.722C964.128,588.514 966.003,586.78 968.241,586.851C971.158,586.943 973.081,588.405 974.182,590.956C974.707,592.17 974.933,593.858 974.957,595.795C976.518,595.379 978.199,595.073 979.704,594.999C981.6,594.907 983.272,595.202 984.442,595.755C985.772,596.383 986.693,597.333 987.23,598.507C987.834,599.827 988.084,601.686 986.861,604.122C983.599,610.62 980.321,614.013 973.536,617.392C971.561,618.375 969.998,618.241 968.862,617.834C967.698,617.418 966.727,616.633 966.062,615.377C965.496,614.309 965.147,612.5 965.285,610.191C965.483,606.908 966.534,602.026 966.859,597.943C966.946,596.842 966.842,595.398 966.77,594.629ZM976.647,605.218C975.944,605.881 975,606.297 973.957,606.323L973.893,606.848L973.777,607.913C974.874,607.101 975.807,606.223 976.647,605.218ZM978.009,603.365L977.746,603.43C977.664,603.714 977.55,603.985 977.409,604.24C977.613,603.958 977.813,603.667 978.009,603.365Z" style="fill:rgb(0,9,1);"/>
    </g>
    <g transform="matrix(1.47886,0,0,1.49916,333.682,-75.0911)">
        <path d="M913.12,638.507C913.409,637.903 913.705,637.311 913.971,636.827C915.389,634.237 917.402,632.409 919.36,631.932C921.201,631.484 923.375,631.714 925.618,633.948C927.496,635.819 928.044,638.904 926.872,642.434C925.233,647.369 920.282,653.512 919.87,653.922C918.886,654.903 917.86,655.282 916.924,655.402C915.823,655.543 914.719,655.331 913.652,654.657C912.685,654.046 911.535,652.556 910.524,650.786C910.247,650.3 909.733,649.524 909.479,649.148C907.79,648.601 906.606,646.994 906.694,645.158C906.779,643.38 908.031,641.926 909.686,641.484C910.072,639.999 911.312,638.802 912.942,638.532L913.12,638.507Z" style="fill:rgb(0,9,1);"/>
    </g>
    <g transform="matrix(1.47886,0,0,1.49916,333.682,-75.0911)">
        <path d="M986.363,435.262C986.802,434.675 987.845,433.302 988.667,432.38C990.407,430.426 992.673,428.763 995.521,428.324C997.459,428.025 999.717,428.25 1002.33,429.548C1014.58,435.638 1022.75,451.91 1027.12,472.91C1036.78,519.393 1028.99,588.977 1018.51,609.858C1017.74,611.391 1016.78,612.11 1016.03,612.486C1014.81,613.1 1013.6,613.137 1012.42,612.73C1011.49,612.41 1010.38,611.655 1009.53,610.271C1008.38,608.39 1007.21,603.341 1007.21,603.341L1007.21,603.342C1007.11,602.985 1007.07,602.608 1007.08,602.22C1007.14,600.012 1009,598.265 1011.24,598.323C1011.3,598.324 1012.83,598.376 1013.99,599.486C1022.52,573.873 1027.6,515.056 1019.17,474.518C1017.22,465.154 1014.56,456.78 1010.98,450.076C1007.7,443.912 1003.7,439.193 998.676,436.696C997.918,436.319 997.293,436.138 996.737,436.238C995.79,436.408 995.173,437.181 994.605,437.844C993.807,438.775 993.161,439.737 992.604,440.414C991.058,442.293 989.305,442.872 988.071,442.836C985.833,442.772 984.068,440.928 984.133,438.72C984.178,437.201 985.077,435.903 986.363,435.262ZM987.563,434.88L987.536,434.886L987.648,434.87L987.563,434.88ZM988.096,434.835C987.972,434.836 987.844,434.844 987.715,434.861L987.891,434.844L988.096,434.835Z" style="fill:rgb(0,9,1);"/>
    </g>
    <g transform="matrix(1.47886,0,0,1.49916,333.682,-75.0911)">
        <path d="M1015.47,598.569L1016.72,595.62C1017.17,593.88 1018.74,592.649 1020.55,592.608C1022.37,592.568 1024,593.727 1024.53,595.445C1024.53,595.445 1025.72,599.393 1025.6,602.61C1025.51,604.865 1024.75,606.808 1023.53,608.025C1021.62,609.938 1019.39,610.265 1016.89,609.431C1015.76,609.056 1014.52,608.342 1013.28,607.564C1012.78,607.256 1012.28,606.94 1011.78,606.674C1011.51,606.531 1011.28,606.331 1011.03,606.325C1008.79,606.267 1007.02,604.428 1007.08,602.22C1007.14,600.012 1009,598.265 1011.24,598.323C1012.28,598.35 1013.38,598.631 1014.48,599.09C1014.78,598.874 1015.11,598.697 1015.47,598.569Z" style="fill:rgb(0,9,1);"/>
    </g>
    <g transform="matrix(1.47886,0,0,1.49916,333.682,-75.0911)">
        <path d="M1119.1,572.508C1119.61,570.824 1121.2,569.608 1123.07,569.64C1125.67,569.684 1126.82,570.837 1127.27,571.407C1127.95,572.263 1128.23,573.217 1128.16,574.261C1128.11,574.98 1127.87,575.877 1127.11,576.779C1126.59,577.397 1125.03,578.49 1122.82,579.592C1119.65,581.168 1114.64,583.228 1112.78,585.085C1110.85,587.004 1109.11,587.698 1107.62,587.902C1105.88,588.141 1104.31,587.729 1102.81,586.91C1102.27,586.618 1101.74,586.268 1101.21,585.912C1100.88,585.688 1100.24,585.332 1100.05,585.225C1099.93,585.278 1099.69,585.4 1099.52,585.514C1097.69,586.789 1095.16,586.361 1093.87,584.558C1092.58,582.754 1093.01,580.254 1094.84,578.979C1098.12,576.69 1100.7,576.89 1102.93,577.731C1103.76,578.044 1104.54,578.486 1105.3,578.976C1105.66,579.213 1106.25,579.579 1106.61,579.802C1106.74,579.699 1106.89,579.572 1107.01,579.452C1109.29,577.182 1115.42,574.411 1119.1,572.508Z" style="fill:rgb(0,9,1);"/>
    </g>
    <g transform="matrix(1.47886,0,0,1.49916,333.682,-75.0911)">
        <path d="M1096.13,571.826C1095.2,570.749 1094.33,569.36 1094.33,567.928C1094.33,541.841 1119.4,501.578 1135.61,482.202C1146.66,468.99 1178.24,448.666 1195.34,445.7C1201.52,444.627 1206.18,445.878 1208.68,448.801C1210.31,450.713 1211.28,453.475 1210.91,457.351C1210.51,461.481 1208.44,467.342 1203.98,475.208C1202.88,477.136 1200.41,477.826 1198.46,476.747C1196.5,475.669 1195.8,473.229 1196.89,471.301C1200.03,465.774 1201.87,461.465 1202.58,458.16C1203,456.198 1203.2,454.812 1202.47,453.962C1202.17,453.602 1201.67,453.491 1201.11,453.397C1199.88,453.191 1198.4,453.296 1196.74,453.584C1181.01,456.312 1152.04,475.141 1141.87,487.297C1126.77,505.342 1103.06,542.366 1102.46,566.987C1102.76,567.173 1103.1,567.392 1103.19,567.464C1103.57,567.756 1103.82,568.047 1104,568.284C1105.11,569.763 1104.97,571.148 1104.49,572.263C1104.32,572.669 1103.47,574.839 1099.97,574.775C1098.13,574.741 1096.6,573.497 1096.13,571.826Z" style="fill:rgb(0,9,1);"/>
    </g>
    <g transform="matrix(1.47886,0,0,1.49916,333.682,-75.0911)">
        <path d="M1052.97,585.251C1052.95,584.751 1053.03,584.24 1053.21,583.742C1054.96,579.021 1056.01,576.579 1056.48,575.701C1057.09,574.57 1057.74,574.107 1057.99,573.931C1059.08,573.187 1060.09,573.142 1060.86,573.241C1061.84,573.367 1062.71,573.792 1063.43,574.616C1063.74,574.976 1064.68,576.1 1064.35,578.116C1064.05,579.883 1060.6,589.629 1056.54,595.259C1053.99,598.791 1050.88,600.644 1048.33,600.589C1046.09,600.539 1044.32,598.706 1044.37,596.498C1044.41,594.437 1046.03,592.773 1048.07,592.6C1048.42,592.229 1050.28,590.228 1051.26,588.556C1051.85,587.547 1052.43,586.41 1052.97,585.251Z" style="fill:rgb(0,9,1);"/>
    </g>
    <g transform="matrix(1.47886,0,0,1.49916,333.682,-75.0911)">
        <path d="M1130.65,437.322C1130.49,436.879 1130.4,436.399 1130.41,435.901C1130.45,433.692 1132.3,431.929 1134.54,431.966C1138.73,432.035 1140.57,433.593 1141.18,434.507C1142.23,436.089 1142.54,439.104 1139.14,441.64C1134.46,445.139 1118.26,450.949 1116.68,451.343C1106.1,453.979 1094.77,456.104 1084.69,460.391C1075.28,464.398 1066.98,470.35 1061.74,480.789C1051.05,502.09 1050.35,554.803 1056.26,578.442C1056.46,579.26 1058.46,585.636 1059.38,591.069C1059.85,593.841 1060.01,596.411 1059.74,598.163C1059.14,601.91 1056.88,603.517 1054.07,603.457C1051.83,603.409 1050.05,601.577 1050.1,599.368C1050.13,598.1 1050.75,596.982 1051.7,596.27C1051.7,595.514 1051.67,594.336 1051.54,593.405C1050.78,588.059 1048.59,581.189 1048.38,580.359C1042.14,555.392 1043.17,499.734 1054.46,477.237C1060.65,464.908 1070.36,457.773 1081.48,453.041C1091.95,448.587 1103.7,446.321 1114.7,443.582C1115.79,443.311 1124.9,440.139 1130.65,437.322Z" style="fill:rgb(0,9,1);"/>
    </g>
    <g transform="matrix(1.47886,0,0,1.49916,333.682,-75.0911)">
        <path d="M830.101,543.84C830.388,543.815 830.683,543.822 830.98,543.862C833.09,544.143 833.842,545.091 833.94,545.194C835.108,546.429 835.18,547.714 834.936,548.797C834.867,549.104 834.067,552.034 830.702,551.939C829.757,551.912 825.512,551.43 822.605,550.259C820.487,549.405 818.992,548.075 818.331,546.758C817.989,546.077 817.057,545.636 816.037,545.145C813.604,543.975 810.369,543.248 807.57,543.248C788.571,543.248 773.331,555.061 761.854,570.303C741.194,597.743 742.479,623.698 740.186,642.703C738.877,653.548 736.344,662.324 729.505,668.468C722.836,674.459 711.808,678.117 692.745,678.031C690.505,678.021 688.696,676.22 688.706,674.011C688.716,671.802 690.542,670.017 692.781,670.027C708.911,670.099 718.399,667.619 724.041,662.55C729.513,657.634 731.081,650.434 732.128,641.757C734.546,621.719 733.557,594.461 755.34,565.53C768.382,548.208 785.978,535.243 807.57,535.243C811.546,535.243 816.138,536.289 819.593,537.951C822.236,539.222 824.233,540.919 825.304,542.675C825.611,542.8 826.413,543.118 826.963,543.264C828.009,543.541 829.282,543.733 830.101,543.84Z" style="fill:rgb(0,9,1);"/>
    </g>
    <g transform="matrix(1.47886,0,0,1.49916,333.682,-75.0911)">
        <path d="M722.83,654.242C722.322,612.848 718.486,591.914 726.093,570.819C731.667,555.362 743.291,539.742 766.973,516.198C791.774,491.541 838.325,482.988 869.902,475.132C881.163,472.331 896.511,475.011 908.338,475.011C909.678,475.011 911.18,475.563 912.475,476.809C914.098,478.373 915.423,481.286 915.573,483.231C915.71,485.003 915.095,486.364 914.309,487.217C913.441,488.16 912.246,488.804 910.556,488.725C908.319,488.621 906.589,486.745 906.694,484.539C906.72,484.004 906.851,483.499 907.067,483.043L907.046,483.003C896.021,482.812 882.16,480.338 871.887,482.894C841.534,490.445 796.572,498.136 772.733,521.836C750.265,544.172 739.026,558.837 733.738,573.502C725.708,595.771 731.178,617.867 730.992,665.451C730.986,667.029 730.386,668.031 729.779,668.692C728.833,669.724 727.543,670.306 725.868,670.115C724.739,669.987 722.703,669.004 720.945,667.184C718.891,665.057 717.239,661.934 717.126,659.917C716.993,659.784 716.578,659.378 716.261,659.169C715.416,658.612 714.357,658.141 713.195,657.72C708.085,655.868 701.168,655.097 698.481,655.085C696.242,655.075 694.432,653.274 694.442,651.065C694.452,648.856 696.279,647.071 698.518,647.081C702.288,647.098 712.974,648.406 719.062,651.524C720.592,652.307 721.855,653.227 722.83,654.242Z" style="fill:rgb(0,9,1);"/>
    </g>
    <g transform="matrix(1.47886,0,0,1.49916,333.682,-75.0911)">
        <path d="M1002.16,416.348C1002.92,415.352 1004.15,414.722 1005.51,414.758C1008.11,414.826 1009.13,416.203 1009.47,416.723C1010.34,418.052 1010.64,419.669 1009.28,421.44C1009.02,421.77 1008.59,422.225 1007.87,422.646C1007.26,423.005 1005.91,423.559 1004.05,424.159C996.91,426.455 980.275,430.46 979.27,430.96C966.303,437.405 937.632,437.124 922.713,437.124C867.679,437.124 802.507,451.118 755.684,482.252C748.055,487.325 743.118,495.06 738.858,503.444C734.244,512.523 730.447,522.372 725.483,530.962C695.464,582.919 689.776,616.163 707.648,669.569C707.914,669.844 708.792,670.747 709.442,671.365C710.689,672.549 712.018,673.877 712.971,675.232C714.298,677.119 714.937,679.124 714.737,681.032C714.58,682.524 713.96,684.037 712.53,685.461C709.344,688.635 705.352,689.025 701.131,687.501C694.429,685.081 686.93,676.741 684.699,674.458L684.629,674.388C683.618,673.656 682.963,672.473 682.969,671.142C682.98,668.933 684.806,667.148 687.045,667.158C687.466,667.16 688.654,667.182 689.937,668.318C690.824,669.104 694.279,673.2 698.409,676.558C700.306,678.099 702.336,679.514 704.302,680.111C705.054,680.34 705.796,680.464 706.417,680.096C706.014,679.548 705.21,678.487 704.597,677.884C703.379,676.687 702.147,675.583 701.39,674.681C700.707,673.866 700.279,673.085 700.06,672.431C681.213,616.328 686.953,581.486 718.434,526.999C723.328,518.528 727.055,508.809 731.604,499.857C736.506,490.21 742.37,481.452 751.149,475.615C799.253,443.629 866.172,429.12 922.713,429.12C936.656,429.12 963.5,429.835 975.618,423.811C976.704,423.271 995.368,418.662 1002.16,416.348Z" style="fill:rgb(0,9,1);"/>
    </g>
    <g transform="matrix(1.47886,0,0,1.49916,333.682,-75.0911)">
        <path d="M712.511,664.301C711.354,662.555 710.078,660.513 708.711,658.213C690.626,627.803 653.255,550.111 650.944,534.061C640.655,462.598 675.265,407.092 736.39,372.28C834.432,316.444 1004.47,314.543 1108.3,349.019C1116.56,351.761 1123.21,358.143 1127.9,366.397C1134.57,378.147 1137.25,393.685 1135.33,406.738C1133.01,422.508 1124.08,434.51 1108.58,434.233C1106.34,434.193 1104.56,432.367 1104.6,430.159C1104.64,427.95 1106.49,426.19 1108.73,426.23C1119.95,426.43 1125.62,417.01 1127.3,405.589C1128.98,394.175 1126.65,380.584 1120.82,370.31C1117.17,363.881 1112.14,358.741 1105.71,356.605C1003.74,322.746 836.733,324.376 740.448,379.213C682.324,412.315 649.194,464.982 658.978,532.935C661.236,548.623 698.033,624.439 715.71,654.163C718.423,658.726 721.603,663.046 722.595,664.369C726.207,664.729 726.937,666.516 726.353,668.304C726.97,670.192 726.122,672.079 721.962,672.286C721.86,672.299 721.759,672.306 721.66,672.306L712.538,672.306C707.852,672.306 703.167,672.316 698.481,672.295C696.242,672.285 694.432,670.483 694.442,668.274C694.452,666.066 696.279,664.28 698.518,664.29C703.182,664.311 707.847,664.301 712.511,664.301Z" style="fill:rgb(0,9,1);"/>
    </g>
    <g transform="matrix(1.47886,0,0,1.49916,333.682,-75.0911)">
        <path d="M723.667,686.585C721.727,686.278 720.247,684.614 720.256,682.616C720.266,680.407 722.092,678.622 724.331,678.631C730.645,678.658 737.371,678.049 739.539,678.558C741.302,678.971 742.232,679.937 742.707,680.714C743.41,681.868 743.653,683.217 742.91,684.799C742.668,685.315 742.233,685.986 741.406,686.682C740.711,687.266 739.439,688.077 737.413,689.086C712.93,701.28 685.888,708.136 663.885,699.023C649.01,692.862 636.197,679.495 628.073,655.217C625.552,647.684 625.382,638.722 626.404,629.531C627.85,616.534 631.653,603.058 633.682,592.953C639.422,564.363 637.482,533.007 642.308,504.164C657.288,414.637 722.055,335.728 796.731,289.196C812.622,279.294 841.332,272.122 876.546,267.882C928.498,261.626 994.761,261.551 1054.13,267.448C1093.86,271.394 1130.5,278.022 1157.77,287.223C1176.57,293.565 1190.98,301.22 1199.22,309.926C1217.6,329.347 1235.72,378.966 1232.55,415.368C1231.22,430.704 1226.1,443.714 1216.22,451.655C1209.5,457.057 1200.56,460.213 1188.9,460.047C1186.66,460.015 1184.87,458.196 1184.91,455.987C1184.94,453.778 1186.78,452.011 1189.02,452.043C1198.42,452.177 1205.68,449.805 1211.1,445.45C1219.42,438.755 1223.34,427.614 1224.47,414.684C1227.45,380.424 1210.59,333.666 1193.29,315.388C1185.74,307.403 1172.38,300.613 1155.14,294.796C1128.36,285.758 1092.35,279.289 1053.32,275.412C994.549,269.575 928.955,269.634 877.529,275.827C843.825,279.886 816.274,286.486 801.065,295.963C728.245,341.338 664.921,418.167 650.315,505.468C645.475,534.393 647.399,565.836 641.642,594.508C639.651,604.426 635.889,617.648 634.47,630.404C633.582,638.382 633.59,646.169 635.778,652.708C642.947,674.131 653.9,686.206 667.026,691.643C684.04,698.689 704.299,694.744 723.667,686.585Z" style="fill:rgb(0,9,1);"/>
    </g>
    <g transform="matrix(1.47886,0,0,1.49916,333.682,-75.0911)">
        <path d="M723.216,674.873C723.154,674.595 723.123,674.307 723.124,674.012C723.134,671.803 724.96,670.017 727.199,670.027C731.577,670.045 731.997,672.937 732.089,673.712C732.167,674.374 732.115,675.182 731.653,676.08C731.565,676.251 731.169,676.801 730.99,677.047C730.937,681.495 728.261,683.258 725.476,684.058C725.402,684.727 725.266,685.454 725.233,685.628C725.246,700.017 722.413,699.054 722.354,714.21C722.343,716.89 720.901,717.935 720.246,718.329C719.059,719.044 716.605,719.738 714.511,717.13C714.307,716.876 714.063,716.48 713.793,715.983C714.338,722.89 717.807,733.56 722.222,745.841C729.783,766.873 740.252,792.355 745.401,812.199C747.725,821.157 748.957,829.034 748.533,834.978C748.184,839.86 746.693,843.612 744.215,846.081C739.685,850.593 731.336,852.597 721.836,853.069C709.461,853.684 695.054,851.98 687.086,852.972C632.76,859.733 574.294,876.267 520.645,875.937C518.406,875.924 516.599,874.119 516.613,871.91C516.627,869.702 518.457,867.919 520.696,867.933C574.004,868.26 632.089,851.748 686.071,845.03C694.177,844.021 708.836,845.701 721.427,845.075C728.573,844.72 735.042,843.842 738.449,840.448C739.771,839.132 740.253,837.02 740.438,834.416C740.815,829.133 739.606,822.147 737.54,814.183C732.444,794.543 722.058,769.332 714.574,748.516C709.36,734.013 705.601,721.524 705.601,714.195C705.601,709.774 708.742,701.31 708.742,701.31C709.342,699.741 710.87,698.707 712.569,698.72C713.761,698.729 714.86,699.251 715.607,700.108C716.357,696.463 717.134,693.126 717.119,685.521C717.118,685.199 717.187,684.689 717.26,684.242C716.118,682.604 716.177,681.285 716.309,680.558C716.573,679.101 717.454,677.737 719.486,677.074C719.999,676.907 720.719,676.781 721.555,676.694C721.886,676.659 722.48,676.558 722.895,676.483C722.936,675.92 723.056,675.376 723.216,674.873Z" style="fill:rgb(0,9,1);"/>
    </g>
    <g transform="matrix(1.47886,0,0,1.49916,333.682,-75.0911)">
        <path d="M507.173,691.837C505.95,691.141 505.131,689.835 505.141,688.344C505.155,686.136 506.984,684.354 509.224,684.368C510.545,684.376 512.24,684.929 513.657,686.896C514.741,688.4 516.012,691.524 517.213,695.936C523.118,717.626 530.164,774.354 532.31,799.911C536.506,849.874 549.687,899.377 549.589,949.396C549.585,951.737 548.196,952.697 547.046,953.164C546.4,953.427 544.346,954.066 542.344,952.111C540.588,950.396 532.441,938.295 529.801,935.441L529.785,935.425C528.254,934.348 527.643,932.324 528.428,930.559C529.329,928.536 531.724,927.615 533.774,928.503C534.273,928.719 535.595,929.702 537.046,931.528C538.091,932.842 539.636,934.898 541.239,937.07C539.46,891.452 528.056,846.207 524.223,800.572C522.106,775.364 515.2,719.405 509.376,698.012C508.678,695.446 507.555,692.73 507.173,691.837Z" style="fill:rgb(0,9,1);"/>
    </g>
    <g transform="matrix(1.47886,0,0,1.49916,333.682,-75.0911)">
        <path d="M492.891,686.639L492.13,686.645C490.2,686.653 481.092,686.647 479.294,686.647C469.217,686.647 458.03,685.378 448.095,686.615C419.476,690.179 390.559,695.736 361.926,700.922C298.158,712.471 136.189,753.268 90.124,749.724C87.891,749.553 86.22,747.625 86.394,745.423C86.568,743.221 88.522,741.572 90.755,741.744C136.473,745.261 297.173,704.512 360.461,693.049C389.243,687.837 418.311,682.256 447.079,678.674C457.338,677.397 468.889,678.642 479.294,678.642C480.991,678.642 489.217,678.648 491.726,678.641C491.821,678.634 491.918,678.631 492.015,678.631L492.979,678.64C495.15,678.642 497.216,678.685 499.169,678.763C514.957,679.263 520.814,681.037 519.454,682.775C520.427,684.765 512.74,686.71 492.891,686.639Z" style="fill:rgb(0,9,1);"/>
    </g>
    <g transform="matrix(1.47886,0,0,1.49916,333.682,-75.0911)">
        <path d="M89.431,741.177C89.285,740.716 89.223,740.22 89.261,739.709C89.423,737.506 91.367,735.846 93.601,736.006C94.716,736.086 96.619,736.596 97.323,739.079C97.536,739.827 97.515,743.384 97.499,744.75C119.823,790.005 115.516,850.11 120.548,900.234C122.686,921.526 123.415,942.189 123.436,963.725C123.438,965.497 123.931,968.427 124.346,971.184C137.007,969.154 167.058,968.332 202.938,968.332C271.647,968.332 338.515,959.727 407.376,959.727C413.244,959.727 484.186,965.322 496.436,967.52C497.946,967.791 498.905,968.138 499.294,968.343C500.455,968.955 500.943,969.776 501.194,970.333C501.729,971.521 501.682,972.675 501.112,973.796C500.813,974.383 500.274,975.171 499.088,975.704C498.58,975.933 496.355,976.335 491.978,976.325C490.564,976.321 489.32,975.603 488.597,974.517C467.518,972.024 412.475,967.731 407.376,967.731C338.515,967.731 271.647,976.336 202.938,976.336C168.511,976.336 139.563,977.008 126.758,978.89C126.044,978.995 125.294,979.142 124.603,979.294C124.519,979.622 124.422,979.894 124.317,980.104C123.489,981.763 122.174,982.466 120.718,982.607C119.765,982.7 118.182,982.572 116.491,980.881C115.065,979.456 114.83,977.959 115.059,976.646C115.207,975.798 115.592,974.915 116.393,974.105C115.95,970.849 115.324,965.862 115.322,963.733C115.301,942.461 114.585,922.053 112.473,901.023C107.504,851.52 112.191,792.05 89.84,747.521C89.705,747.254 89.464,746.709 89.4,745.875C89.349,745.218 89.411,742.117 89.431,741.177ZM90.873,743.198C91.543,743.717 92.283,743.937 93.015,743.989C92.208,743.932 91.474,743.645 90.873,743.198Z" style="fill:rgb(0,9,1);"/>
    </g>
    <g transform="matrix(1.47886,0,0,1.49916,333.682,-75.0911)">
        <path d="M476.586,956.987C477.036,955.248 478.642,953.967 480.543,953.979C485.454,954.012 486.495,956.909 486.646,958.137C486.782,959.242 486.529,960.651 485.287,961.938C484.031,963.24 480.45,964.871 477.62,964.852C475.381,964.837 473.575,963.031 473.59,960.822C473.603,958.986 474.871,957.445 476.586,956.987Z" style="fill:rgb(0,9,1);"/>
    </g>
    <g transform="matrix(1.47886,0,0,1.49916,333.682,-75.0911)">
        <path d="M128.467,1013.02C127.262,1012.28 126.481,1010.95 126.54,1009.45C126.627,1007.25 128.515,1005.52 130.752,1005.61C132.644,1005.68 133.955,1006.34 134.895,1007.2C136.203,1008.39 136.98,1010.21 136.796,1012.64C136.659,1014.45 135.896,1016.84 134.906,1019.35C133.791,1022.18 132.338,1025.21 132.023,1027.39C131.064,1034.03 113.358,1075.32 105.009,1101.08C103.448,1105.89 102.186,1110.1 101.51,1113.32L101.785,1113.03C103.295,1111.4 105.864,1111.29 107.517,1112.78C109.17,1114.27 109.286,1116.8 107.776,1118.43C104.49,1121.98 101.959,1123.69 100.347,1124.21C98.38,1124.85 96.832,1124.5 95.632,1123.76C94.353,1122.98 93.14,1121.43 92.909,1118.78C92.545,1114.61 95.062,1104.95 99.075,1093.27C107.767,1067.99 123.111,1032.34 123.99,1026.27C124.433,1023.19 126.603,1018.63 127.959,1014.82C128.154,1014.27 128.333,1013.59 128.467,1013.02Z" style="fill:rgb(0,9,1);"/>
    </g>
    <g transform="matrix(1.47886,0,0,1.49916,333.682,-75.0911)">
        <path d="M637.241,1114.61C637.734,1112.94 639.297,1111.73 641.144,1111.73C643.51,1111.74 648.403,1112.7 651.502,1113.59C653.367,1114.12 654.715,1114.77 655.182,1115.12C656.9,1116.39 656.991,1117.96 656.879,1118.92C656.793,1119.66 656.124,1122.62 652.07,1122.62L464.987,1122.62C347.099,1122.62 227.748,1145.4 110.321,1139.81C108.085,1139.7 106.356,1137.82 106.464,1135.62C106.572,1133.41 108.476,1131.71 110.712,1131.81C228.01,1137.4 347.229,1114.61 464.987,1114.61L637.241,1114.61Z" style="fill:rgb(0,9,1);"/>
    </g>
    <g transform="matrix(1.47886,0,0,1.49916,333.682,-75.0911)">
        <path d="M569.775,972.784C568.648,971.772 567.488,970.777 566.58,969.89C564.794,968.145 563.74,966.478 563.487,965.491C563.071,963.862 563.485,962.549 564.337,961.508C564.979,960.725 566.194,959.727 568.567,959.727C571.568,959.727 573.318,960.56 574.443,961.503C575.483,962.375 576.136,963.452 576.506,964.711C576.683,965.312 576.785,965.97 576.848,966.665L576.846,966.564C576.858,964.355 578.686,962.572 580.925,962.584C584.71,962.605 586.435,964.309 587.203,965.82C588.049,967.485 588.02,969.785 586.551,972.035C585.629,973.447 584.065,974.879 582.265,975.906C585.783,981.408 590.515,984.584 594.805,989.926C602.27,999.221 616.454,1014.81 626.598,1030.3C633.801,1041.3 638.886,1052.34 638.851,1061.26C638.843,1063.23 637.814,1064.28 636.674,1064.88C635.969,1065.26 634.198,1065.93 632.027,1064.54C628.709,1062.41 612.057,1044.31 611.731,1043.99C607.149,1039.42 604.616,1035.57 602.013,1030.69C601.081,1030.93 600.058,1030.85 599.132,1030.38C597.139,1029.38 596.349,1026.96 597.368,1025C597.734,1024.29 597.83,1023.5 597.942,1022.98C598.099,1022.24 598.291,1021.66 598.46,1021.31C599.405,1019.34 600.962,1018.87 602.262,1018.85C602.941,1018.84 605.134,1018.98 606.745,1022.19C610.062,1028.79 612.181,1033.05 617.5,1038.36C617.659,1038.52 622.807,1043.81 627.697,1048.83C625.727,1044.27 622.942,1039.47 619.782,1034.64C609.791,1019.38 595.797,1004.05 588.445,994.897C583.171,988.33 577.446,984.663 573.582,976.981C573.512,976.84 573.43,976.697 573.337,976.552C572.663,976.199 572.026,975.732 571.438,975.144C570.698,974.405 570.162,973.611 569.775,972.784ZM576.886,967.144L576.905,967.473C576.925,967.842 576.939,968.223 576.978,968.606L577.337,968.961L577.631,969.267L577.653,969.259C577.708,969.239 577.764,969.214 577.821,969.187C577.329,968.621 576.995,967.918 576.886,967.144Z" style="fill:rgb(0,9,1);"/>
    </g>
    <g transform="matrix(1.47886,0,0,1.49916,333.682,-75.0911)">
        <path d="M184.055,1025.04C183.947,1024.67 183.893,1024.27 183.902,1023.86C183.95,1021.66 185.807,1019.9 188.046,1019.95C189.314,1019.98 190.475,1020.46 191.36,1021.69C191.702,1022.16 192.355,1023.47 192.153,1025.61C191.58,1031.72 184.584,1057.39 180.088,1068.87C178.637,1072.57 177.135,1075 176.276,1075.73C174.584,1077.18 172.02,1077 170.553,1075.33C169.162,1073.75 169.253,1071.4 170.707,1069.92C170.897,1069.52 172.833,1065.34 174.206,1061.35C178.317,1049.41 183.483,1030.38 184.055,1025.04ZM185.56,1027.18C186.244,1027.71 187.034,1027.93 187.871,1027.95C187.005,1027.93 186.209,1027.65 185.56,1027.18Z" style="fill:rgb(0,9,1);"/>
    </g>
    <g transform="matrix(1.47886,0,0,1.49916,333.682,-75.0911)">
        <path d="M215.115,1021.92C213.606,1021.32 212.553,1019.84 212.584,1018.14C212.624,1015.93 214.474,1014.17 216.713,1014.21C218.557,1014.25 220.219,1015.03 221.534,1016.77C222.495,1018.05 223.321,1020.13 223.789,1022.91C226.058,1036.34 221.308,1070.32 220.673,1076.02C220.428,1078.21 218.422,1079.8 216.197,1079.56C213.971,1079.32 212.363,1077.34 212.608,1075.14C213.145,1070.32 216.825,1044.57 216.261,1029.5C216.149,1026.5 215.381,1023.04 215.115,1021.92Z" style="fill:rgb(0,9,1);"/>
    </g>
    <g transform="matrix(1.47886,0,0,1.49916,333.682,-75.0911)">
        <path d="M229.478,1030.54C227.959,1029.94 226.897,1028.46 226.925,1026.75C226.961,1024.54 228.809,1022.78 231.048,1022.82C232.774,1022.85 234.383,1023.56 235.703,1025.18C236.664,1026.36 237.537,1028.29 238.116,1030.85C240.907,1043.21 238.254,1074.38 237.894,1078.77C237.713,1080.97 235.754,1082.61 233.522,1082.43C231.29,1082.26 229.625,1080.33 229.806,1078.12C230.108,1074.44 232.183,1051.1 230.899,1037.38C230.646,1034.68 229.779,1031.56 229.478,1030.54Z" style="fill:rgb(0,9,1);"/>
    </g>
    <g transform="matrix(1.47886,0,0,1.49916,333.682,-75.0911)">
        <path d="M270.594,1026.12C270.175,1025.48 269.937,1024.71 269.948,1023.9C269.977,1021.69 271.819,1019.92 274.058,1019.95C275.085,1019.96 277.814,1020.71 278.52,1024.36C279.86,1031.29 278.679,1066.04 278.018,1070.43C277.688,1072.62 275.623,1074.12 273.408,1073.8C271.193,1073.48 269.662,1071.44 269.992,1069.25C270.607,1065.17 271.782,1033.19 270.594,1026.12ZM272.791,1027.77C273.088,1027.87 273.388,1027.92 273.688,1027.94C273.378,1027.92 273.078,1027.86 272.791,1027.77Z" style="fill:rgb(0,9,1);"/>
    </g>
    <g transform="matrix(1.47886,0,0,1.49916,333.682,-75.0911)">
        <path d="M302.223,1022.19C300.182,1021.96 298.606,1020.24 298.63,1018.17C298.656,1015.96 300.494,1014.19 302.733,1014.21C304.587,1014.23 306.405,1014.97 308.044,1016.58C310.2,1018.7 312.22,1022.97 313.735,1028.52C318.149,1044.71 319.419,1072.62 318.145,1079.2C317.725,1081.37 315.598,1082.79 313.398,1082.38C311.199,1081.96 309.754,1079.87 310.174,1077.69C311.359,1071.58 310.002,1045.65 305.899,1030.6C305.098,1027.66 304.212,1025.17 303.17,1023.41C302.9,1022.96 302.413,1022.4 302.223,1022.19Z" style="fill:rgb(0,9,1);"/>
    </g>
    <g transform="matrix(1.47886,0,0,1.49916,333.682,-75.0911)">
        <path d="M480.488,996.402C481.051,996.406 481.378,996.961 481.802,997.485C482.472,998.314 483.058,999.358 483.596,1000.51C486.025,1005.7 487.348,1012.85 488.009,1016.13C488.446,1018.29 490.583,1019.7 492.78,1019.27C494.976,1018.84 496.404,1016.73 495.968,1014.57C495.092,1010.22 493.034,999.958 489.333,994.153C486.993,990.484 483.906,988.42 480.543,988.398C478.304,988.383 476.474,990.164 476.459,992.373C476.443,994.582 478.249,996.387 480.488,996.402Z" style="fill:rgb(0,9,1);"/>
    </g>
    <g transform="matrix(1.47886,0,0,1.49916,333.682,-75.0911)">
        <path d="M523.514,990.666C524.099,990.669 524.646,991.096 525.279,991.576C526.489,992.493 527.706,993.818 528.926,995.386C535.358,1003.66 541.451,1018.34 542.48,1024.59C542.838,1026.77 544.923,1028.25 547.134,1027.9C549.344,1027.55 550.848,1025.49 550.489,1023.31C549.336,1016.29 542.58,999.793 535.364,990.514C531.476,985.515 527.13,982.683 523.564,982.661C521.324,982.648 519.495,984.43 519.482,986.639C519.468,988.848 521.275,990.652 523.514,990.666Z" style="fill:rgb(0,9,1);"/>
    </g>
    <g transform="matrix(1.47886,0,0,1.49916,333.682,-75.0911)">
        <path d="M336.535,1025.04C334.548,1024.77 333.027,1023.07 333.048,1021.04C333.071,1018.83 334.907,1017.06 337.146,1017.08C338.977,1017.1 340.753,1017.83 342.329,1019.39C343.734,1020.79 345.057,1023.05 346.119,1025.9C349.551,1035.12 350.718,1051.22 349.688,1056.29C349.247,1058.45 347.107,1059.86 344.912,1059.42C342.716,1058.99 341.291,1056.88 341.732,1054.71C342.616,1050.37 341.446,1036.57 338.501,1028.66C337.962,1027.21 336.831,1025.48 336.535,1025.04Z" style="fill:rgb(0,9,1);"/>
    </g>
    <g transform="matrix(1.47886,0,0,1.49916,333.682,-75.0911)">
        <path d="M382.961,1019.35C385.694,1019.37 387.86,1021.62 389.642,1024.43C393.003,1029.72 394.69,1037.44 393.381,1043.14C392.886,1045.3 394.258,1047.44 396.442,1047.93C398.626,1048.42 400.8,1047.07 401.295,1044.91C403.023,1037.38 400.954,1027.16 396.518,1020.18C393.098,1014.8 388.278,1011.39 383.032,1011.34C380.793,1011.32 378.959,1013.1 378.94,1015.31C378.92,1017.52 380.722,1019.33 382.961,1019.35Z" style="fill:rgb(0,9,1);"/>
    </g>
    <g transform="matrix(1.47886,0,0,1.49916,333.682,-75.0911)">
        <path d="M439.14,1001.95C437.485,1001.44 436.29,999.906 436.304,998.107C436.32,995.898 438.152,994.118 440.391,994.134C441.762,994.144 443.221,994.642 444.587,995.928C445.986,997.244 447.53,999.912 448.885,1003.68C455.076,1020.88 460.448,1064.55 461.583,1072.12C461.911,1074.31 460.379,1076.35 458.164,1076.67C455.948,1076.99 453.884,1075.48 453.556,1073.3C452.581,1066.79 448.469,1033.12 443.38,1013.49C442.391,1009.68 441.377,1006.42 440.329,1004.07C439.981,1003.28 439.412,1002.37 439.14,1001.95Z" style="fill:rgb(0,9,1);"/>
    </g>
    <g transform="matrix(1.47886,0,0,1.49916,333.682,-75.0911)">
        <path d="M164.907,1116.87C213.236,1118.11 267.346,1100.87 322.087,1083.21C375.939,1065.85 430.414,1048.09 480.52,1048.03C482.76,1048.03 484.575,1046.23 484.573,1044.02C484.57,1041.81 482.75,1040.02 480.511,1040.03C429.622,1040.08 374.26,1057.97 319.566,1075.61C265.762,1092.96 212.619,1110.08 165.118,1108.86C162.88,1108.81 161.015,1110.55 160.957,1112.76C160.899,1114.97 162.669,1116.81 164.907,1116.87Z" style="fill:rgb(0,9,1);"/>
    </g>
    <g transform="matrix(1.47886,0,0,1.49916,333.682,-75.0911)">
        <path d="M159.162,1093.92C165.743,1094.1 181.571,1089.69 201.786,1082.93C247.298,1067.71 316.055,1040.89 349.455,1033.59C351.641,1033.12 353.023,1030.98 352.539,1028.82C352.055,1026.66 349.888,1025.3 347.701,1025.78C314.112,1033.11 244.951,1060.04 199.18,1075.35C180.273,1081.68 165.546,1086.09 159.391,1085.92C157.152,1085.86 155.284,1087.6 155.221,1089.81C155.158,1092.01 156.924,1093.86 159.162,1093.92Z" style="fill:rgb(0,9,1);"/>
    </g>
    <g transform="matrix(1.47886,0,0,1.49916,333.682,-75.0911)">
        <path d="M443.793,826.973C443.862,825.676 443.98,823.166 444.018,820.63C444.313,801.1 443.575,753.283 443.575,748.614C443.575,747.248 442.932,745.323 442.508,743.533C442.068,741.677 441.8,739.916 441.899,738.6C442.047,736.644 442.874,735.224 444.058,734.305C444.933,733.626 446.078,733.138 447.632,733.138C448.661,733.138 450,733.461 451.196,734.841C452.05,735.827 453.332,738.634 454.554,742.847C459.512,759.942 467.311,803.976 468.946,816.957C471.741,839.14 479.786,861.273 480.44,883.525C481.185,882.748 482.242,882.266 483.411,882.274C486.612,882.295 487.424,884.349 487.63,884.855C488.081,885.96 488.391,887.701 486.596,889.355C486.371,889.562 485.675,889.994 484.74,890.549C484.28,890.822 483.366,891.145 483.363,892.039C483.355,894.113 483.026,895.394 482.73,896.067C482.105,897.486 481.147,898.13 480.354,898.468C478.904,899.086 477.011,899.16 475.292,897.311C474.808,896.789 474.191,895.841 473.701,894.495C472.999,892.572 472.372,889.498 472.369,886.291C472.347,863.433 463.763,840.723 460.894,817.944C459.789,809.18 455.836,786.025 451.889,766.928C452.12,787.253 452.412,818.015 451.964,826.754C451.885,828.31 451.739,829.35 451.622,829.787C451.34,830.844 450.827,831.428 450.52,831.734C446.133,836.121 439.45,838.662 433.246,838.662C432.576,838.662 431.674,838.47 430.75,837.9C430.656,838.307 430.549,838.701 430.429,839.082C429.655,841.532 428.377,843.525 426.505,844.953C424.674,846.351 422.224,847.267 418.849,847.267C416.868,847.267 413.616,847.17 410.768,847.425C410.055,847.489 409.155,847.669 408.493,847.818C408.476,853.059 408.411,860.574 407.278,867.114C406.304,872.739 404.429,877.657 401.576,880.499C398.631,883.433 394.744,883.17 390.898,879.308C388.841,877.242 386.645,873.899 384.654,870.606C383.805,877.482 382.583,885.034 382.583,892.024L382.583,900.629C382.583,902.743 380.916,904.493 378.776,904.623C376.636,904.753 374.763,903.219 374.5,901.12C374.5,901.12 373.097,889.867 371.72,884.381C364.905,857.23 358.741,829.053 350.442,801.507C350.525,803.884 350.557,806.179 350.513,808.309C350.435,812.154 350.108,815.509 349.478,817.982C348.879,820.339 347.926,822.065 346.862,823.129C346.708,823.283 346.539,823.505 346.434,823.65C346.592,823.925 346.948,824.532 347.192,824.878C347.602,825.458 348.019,826.039 348.378,826.632C349.33,828.199 349.89,829.86 349.782,831.647C349.678,833.369 348.994,835.338 346.862,837.47C345.664,838.668 344.059,839.227 341.987,838.741C341.013,838.512 339.716,837.864 338.306,837.076C337.412,836.575 336.448,835.851 335.463,835.799C335.213,835.871 333.866,836.268 332.767,836.71C328.487,838.429 321.925,841.782 316.362,844.987C312.311,847.321 307.816,850.602 307.162,851.084C305.86,853.933 305.98,857.438 306.384,861.156C306.892,865.832 307.97,870.804 308.483,875.511C309.309,883.089 308.528,890.007 303.676,894.84C301.594,896.914 299.585,897.247 298.016,896.992C296.719,896.782 295.463,896.125 294.407,894.827C294.03,894.364 293.664,893.754 293.322,893.013L293.322,923.574C293.322,925.457 290.968,938.688 288.534,942.386C287.381,944.137 285.915,944.831 284.757,945.002C283.401,945.201 281.965,944.925 280.634,943.6C279.297,942.268 277.871,939.992 276.526,936.846C273.92,930.754 271.29,920.948 268.778,909.187C265.044,891.698 261.521,869.79 258.535,849.586C256.534,850.991 254.039,852.58 251.952,853.413C247.695,855.113 243.478,854.971 240.311,851.817C239.802,851.31 236.83,849.538 234.684,848.287C234.026,851.166 233.159,854.823 232.782,855.819C231.749,858.552 229.391,858.739 228.797,858.739C228.686,858.739 228.567,858.734 228.443,858.719L229.968,886.068C230.091,888.264 228.393,890.147 226.167,890.282C225.209,890.34 224.309,890.066 223.581,889.559C223.544,894.453 223.325,899.209 222.827,903.607C221.699,913.576 219.012,921.799 214.403,926.39C213.171,927.618 209.704,929.043 207.139,924.937C203.342,918.857 191.596,880.873 190.317,875.776C184.354,852.018 177.689,823.686 168.61,798.932C168.907,801.768 169.189,804.06 169.418,805.2C172.301,819.555 172.626,829.403 171.428,836.138C170.499,841.354 168.647,844.924 166.358,847.414C163.336,850.702 159.48,852.225 155.321,852.808C151.862,853.293 148.187,853.095 144.807,852.99C142.569,852.92 140.809,851.071 140.88,848.863C140.951,846.655 142.826,844.919 145.064,844.989C147.994,845.081 151.181,845.304 154.18,844.883C156.479,844.561 158.676,843.854 160.347,842.037C162.246,839.971 163.416,836.682 163.827,831.663C164.313,825.724 163.65,817.671 161.459,806.755C160.435,801.656 158.329,778.392 158.406,774.763C158.454,772.494 159.708,771.481 159.981,771.265C161.064,770.407 162.233,770.209 163.439,770.482C164.107,770.633 165.376,770.998 166.206,772.651C180.792,801.709 190.161,841.849 198.193,873.853C199.131,877.591 208.025,903.371 212.067,915.033C212.284,914.466 212.488,913.878 212.681,913.27C214.392,907.871 215.143,901.049 215.393,893.713C216.049,874.417 213.178,851.71 213.222,840.381C213.237,836.536 216.168,835.903 216.791,835.811C217.285,835.739 217.98,835.704 218.718,835.938C218.887,834.699 219.066,833.844 219.066,833.844C219.481,831.876 221.311,830.518 223.343,830.669C225.374,830.82 226.977,832.433 227.089,834.44L227.564,842.964L227.663,842.568C228.02,841.201 228.685,840.567 228.805,840.448C229.914,839.343 231.828,838.586 234.39,839.217C238.073,840.124 244.883,844.996 246.077,846.185C246.601,846.707 247.31,846.497 248.01,846.301C249.129,845.989 250.262,845.401 251.339,844.751C253.527,843.431 255.494,841.832 256.766,840.861C255.457,839.934 254.145,839.118 253.34,838.601C252.088,837.797 251.446,837.045 251.326,836.865C249.725,834.473 248.606,830.178 248.064,825.005C246.982,814.662 247.775,800.438 247.775,794.505C247.775,792.53 246.67,789.919 245.631,787.315C244.24,783.83 242.851,780.376 242.563,777.952C242.245,775.271 243.049,773.284 244.432,772.026C245.427,771.121 246.85,770.425 248.953,770.425C252.889,770.425 255.383,772.48 256.811,775.966C257.661,778.039 258.061,780.793 258.219,783.733C258.407,787.253 258.252,791.09 258.714,793.853C259.972,801.37 262.144,817.824 264.912,837.113C265.781,837.952 266.473,838.791 266.905,839.546C268.36,842.081 267.988,844.325 266.238,846.075L266.213,846.099C269.251,866.794 272.871,889.519 276.718,907.537C278.767,917.132 280.87,925.367 282.994,931.175L283.3,931.995C284.223,928.381 285.207,924.341 285.207,923.574L285.207,849.001C285.207,846.79 287.024,844.999 289.264,844.999C291.375,844.999 293.676,846.222 295.067,849.51C297.355,854.92 297.784,869.51 298.895,880.345C299.127,882.609 299.392,884.689 299.737,886.437C300.244,885.205 300.496,883.849 300.608,882.423C300.865,879.125 300.367,875.48 299.781,871.782C298.984,866.751 298.018,861.635 298.016,857.026C298.015,853.425 298.595,850.098 300.037,847.225C300.333,846.635 300.941,845.803 301.956,844.902C303.252,843.751 305.508,842.173 308.282,840.454C314.34,836.697 322.979,832.133 328.657,829.73C331.743,828.424 334.192,827.789 335.346,827.789C336.959,827.789 338.647,828.287 340.24,829.03C340.061,828.77 339.887,828.51 339.724,828.248C338.762,826.7 338.183,825.068 338.25,823.329C338.316,821.6 338.962,819.631 341.085,817.508C341.525,817.068 341.61,816.172 341.816,815.085C342.177,813.181 342.346,810.804 342.4,808.148C342.676,794.61 339.916,774.402 339.916,768.691L339.916,760.086C339.916,758.005 341.533,756.271 343.636,756.098C345.739,755.925 347.625,757.371 347.974,759.423C347.974,759.423 350.862,776.477 353.596,784.646C363.019,812.804 369.678,841.939 376.581,870.25C377.011,866.751 377.337,863.432 377.348,860.458C377.361,857.193 379.08,855.968 379.944,855.547C381.14,854.964 383.557,854.578 385.74,857.084C387.654,859.281 391.47,867.074 395.205,871.964C395.656,872.555 396.269,873.193 396.761,873.677C398.044,871.698 398.746,868.844 399.28,865.765C400.461,858.951 400.365,851.004 400.384,846.117C400.393,843.64 402.016,841.342 405.528,840.255C409.096,839.15 415.525,839.262 418.849,839.262C419.982,839.262 420.857,839.113 421.489,838.66C422.508,837.93 422.791,836.625 423.039,835.173C423.499,832.475 423.406,829.259 423.419,826.04C423.432,822.605 425.861,821.9 426.808,821.716C427.655,821.552 429.686,821.453 431.228,823.617C431.882,824.535 434.05,828.712 434.999,830.561C438.16,830.22 441.364,828.974 443.793,826.973Z" style="fill:rgb(113,123,114);"/>
    </g>
    <g transform="matrix(1.47886,0,0,1.49916,333.682,-75.0911)">
        <path d="M1738.06,795.087C1742.62,794.138 1747.19,793.099 1751.69,792.064C1767.63,788.401 1782.88,784.789 1795.22,784.789C1795.23,784.789 1799.89,784.788 1800.82,784.788C1802.92,784.789 1803.86,785.974 1803.86,785.975C1804.41,786.518 1804.93,787.152 1805.43,787.872L1805.47,787.856C1807.49,787.203 1809.68,788.196 1810.49,790.133C1810.49,790.133 1814.92,800.939 1815.13,807.336C1815.16,808.272 1815.11,809.138 1814.98,809.927C1816.65,822.401 1816.55,838.708 1816.55,849.023L1816.55,877.705C1816.55,879.639 1815.15,881.296 1813.22,881.643C1811.29,881.989 1809.39,880.925 1808.7,879.116C1808.7,879.116 1805.57,870.656 1805.56,866.238C1805.55,855.851 1806.6,827.635 1803.57,808.008C1802.56,801.483 1801.28,795.952 1799.08,792.793L1795.22,792.793C1783.4,792.793 1768.8,796.351 1753.54,799.859C1748.96,800.911 1744.32,801.96 1739.68,802.92C1739.76,809.751 1738.79,821.604 1737.67,834.976C1736,855.038 1734.04,878.632 1735.23,893.184C1735.47,896.065 1735.83,898.564 1736.36,900.563C1736.68,901.778 1736.98,902.77 1737.48,903.389C1737.7,903.338 1738.06,903.242 1738.3,903.138C1739.37,902.675 1740.5,901.899 1741.66,900.99C1745.42,898.054 1749.33,893.793 1752.12,891.248C1753.91,889.618 1755.49,888.593 1756.52,888.253C1776.22,881.712 1803.09,885.006 1825.25,885.168C1825.44,885.146 1825.63,885.138 1825.82,885.144C1826.38,885.16 1827.23,885.171 1827.36,885.176C1828.78,885.231 1834.43,893.18 1826.89,893.18C1805.33,893.18 1778.71,889.406 1759.28,895.783C1759.01,896.01 1757.01,897.679 1755.52,899.14C1751.98,902.607 1747.51,907.103 1743.57,909.433C1738.99,912.145 1734.81,912.119 1731.88,909.204C1729.53,906.862 1727.77,901.419 1727.14,893.831C1725.92,878.953 1727.88,854.83 1729.59,834.32C1730.53,823.067 1730.97,811.163 1731.16,804.567C1722.55,806.095 1714.04,807.134 1705.96,807.134C1703.55,807.134 1702.53,805.969 1702.15,805.488C1701.4,804.546 1701.13,803.493 1701.31,802.343C1701.42,801.678 1701.7,800.807 1702.55,799.981C1702.97,799.579 1704.15,798.818 1705.86,798.198C1708.46,797.258 1712.59,796.261 1714.61,796.261C1715.36,796.261 1716.72,795.828 1718.38,795.37C1721.73,794.44 1725.9,793.21 1729.23,792.767C1733.1,792.252 1736.15,793.09 1737.64,794.585C1737.77,794.718 1737.91,794.885 1738.06,795.087Z"/>
    </g>
    <g transform="matrix(1.47886,0,0,1.49916,333.682,-75.0911)">
        <path d="M1665.17,725.537C1665.04,725.666 1664.91,725.788 1664.77,725.903C1663.02,727.29 1660.47,727.021 1659.06,725.302C1656.24,721.858 1654.11,716.076 1652.71,710.323C1650.76,702.323 1650.09,694.479 1650.09,694.479C1649.91,692.441 1651.32,690.6 1653.36,690.211C1655.39,689.822 1657.4,691.009 1658.01,692.964C1658.01,692.964 1660.87,702.297 1663.37,706.439C1676.47,728.229 1689.46,752.724 1700.93,775.54C1703.16,779.97 1705.22,789.393 1708.74,796.221C1709.67,798.04 1710.7,799.655 1711.94,800.789C1712.71,801.495 1713.56,801.998 1714.59,801.998L1719.03,802.002C1719.27,801.969 1719.51,801.957 1719.76,801.968C1724.03,802.157 1723.96,806.296 1723.95,806.411C1723.92,806.664 1723.5,809.799 1720.1,809.994C1719.59,810.022 1715.98,810.002 1714.59,810.002C1709.07,810.002 1704.64,805.948 1701.5,799.847C1697.97,792.994 1695.9,783.541 1693.66,779.096C1684.85,761.569 1675.14,743.044 1665.17,725.537Z"/>
    </g>
    <g transform="matrix(1.47886,0,0,1.49916,333.682,-75.0911)">
        <path d="M1744.83,912.823C1745.58,911.655 1746.92,910.902 1748.42,910.959C1750.6,911.043 1751.52,912.261 1752,913.142C1752.48,914.045 1752.74,915.207 1752.16,916.606C1751.98,917.048 1751.34,918.082 1749.98,919.076C1748.39,920.238 1743.72,923.285 1743.49,923.434C1725.69,943.961 1709.36,965.722 1691.74,986.404C1675.74,1005.19 1658.68,1023.99 1642.89,1043.68C1641.29,1045.67 1639.86,1045.87 1639.58,1045.91C1638.12,1046.12 1637.04,1045.63 1636.22,1044.88C1635.76,1044.45 1634.27,1042.94 1635.19,1040.4C1635.5,1039.55 1637.44,1036.18 1638.39,1033.9C1639.07,1032.26 1640.74,1031.3 1642.45,1031.43C1656.58,1014.3 1671.46,997.776 1685.53,981.254C1703.19,960.519 1719.57,938.701 1737.42,918.126C1737.82,917.662 1738.75,916.884 1739.98,916.051C1741.35,915.12 1743.74,913.545 1744.83,912.823ZM1745.79,918.128C1746.31,918.569 1747.04,918.917 1748.11,918.958C1747.23,918.924 1746.43,918.619 1745.79,918.128Z"/>
    </g>
    <g transform="matrix(1.47886,0,0,1.49916,333.682,-75.0911)">
        <path d="M1646.72,711.802C1646.69,711.556 1646.68,711.303 1646.7,711.046C1646.85,708.842 1648.78,707.174 1651.02,707.322C1651.56,707.359 1654.2,707.565 1654.75,710.642C1654.78,710.797 1654.84,711.631 1654.87,713.04C1655.08,723.526 1655.31,776.653 1655.31,791.66C1655.28,873.895 1640.32,955.796 1638.26,1037.6C1639.47,1038.22 1640.34,1039.42 1640.45,1040.85C1640.85,1045.97 1638.8,1059.2 1637.99,1061.01C1636.89,1063.47 1634.83,1063.61 1633.99,1063.58C1633.13,1063.55 1632.26,1063.28 1631.46,1062.61C1631.16,1062.35 1629.93,1061.2 1629.91,1058.42C1629.57,969.69 1647.16,880.871 1647.19,791.658C1647.2,776.682 1646.97,723.664 1646.76,713.199C1646.75,712.604 1646.73,712.006 1646.72,711.802Z"/>
    </g>
    <g transform="matrix(1.47886,0,0,1.49916,333.682,-75.0911)">
        <path d="M1603.71,780.768C1603.66,780.434 1603.65,780.087 1603.69,779.735C1603.92,777.538 1605.92,775.942 1608.14,776.172C1610.91,776.458 1612.16,777.715 1612.71,778.588C1613.55,779.895 1613.8,781.48 1612.8,783.29C1612.21,784.376 1610.29,786.107 1607.5,787.863C1603.21,790.566 1596.34,794.019 1593.94,797.013C1581.86,812.051 1574.7,829.471 1568.7,847.41C1551.49,898.817 1558.42,945.63 1557.28,998.222C1557.23,1000.43 1555.38,1002.19 1553.14,1002.14C1550.9,1002.09 1549.12,1000.26 1549.17,998.051C1550.32,944.638 1543.52,897.111 1560.99,844.9C1567.29,826.07 1574.9,807.828 1587.58,792.042C1589.08,790.167 1591.9,788.043 1595.07,786.027C1598.07,784.123 1601.39,782.283 1603.71,780.768Z"/>
    </g>
    <g transform="matrix(1.47886,0,0,1.49916,333.682,-75.0911)">
        <path d="M1466.44,1047.93C1465.88,1046.64 1464.87,1044.38 1463.99,1042.66C1462.21,1039.19 1460.48,1035.56 1460.08,1033.23C1457.45,1017.56 1458.83,996.291 1460.03,980.647C1463.35,937.46 1475.29,891.612 1488.99,850.627C1500.52,816.172 1513.12,780.452 1532.6,749.398C1536.01,743.966 1544.1,734.266 1552.52,726.769C1558.5,721.446 1564.71,717.293 1569.61,716.073C1572.07,715.46 1578.45,715.782 1581.28,715.966C1581.69,715.902 1582.12,715.9 1582.55,715.968C1583.81,716.167 1584.38,716.438 1584.48,716.485C1585.8,717.148 1586.23,718.094 1586.43,718.621C1586.9,719.818 1586.79,720.948 1586.18,722.016C1586.07,722.211 1585.09,724.171 1582.35,724.061C1581.33,724.02 1574.24,723.177 1571.6,723.834C1567.64,724.819 1562.78,728.414 1557.95,732.712C1550.16,739.645 1542.65,748.587 1539.5,753.61C1520.35,784.133 1508.02,819.268 1496.7,853.134C1483.2,893.522 1471.39,938.694 1468.12,981.252C1466.96,996.327 1465.55,1016.82 1468.09,1031.92C1468.46,1034.12 1470.56,1037.7 1472.17,1040.87C1473.63,1043.76 1474.75,1046.42 1474.94,1048C1475.19,1050.04 1474.48,1051.47 1473.57,1052.37C1472.77,1053.17 1471.65,1053.78 1470.01,1053.77C1467.77,1053.75 1465.97,1051.94 1465.99,1049.73C1466,1049.08 1466.16,1048.47 1466.44,1047.93Z"/>
    </g>
    <g transform="matrix(1.47886,0,0,1.49916,333.682,-75.0911)">
        <path d="M1546.35,623.045C1545.35,622.073 1543.87,620.707 1543.09,620.381C1542.28,620.039 1540.77,620.033 1539.14,620.022C1536.05,620.002 1532.57,620.313 1531.07,620.611C1518.84,623.036 1506.35,633.639 1498.69,643.171C1470.37,678.438 1456.13,721.899 1441.98,764.219C1409.86,860.322 1381.14,1008.17 1387.51,1109.77C1389.41,1139.98 1400.78,1170.01 1402.39,1198.69C1402.52,1200.89 1400.8,1202.79 1398.57,1202.91C1396.33,1203.03 1394.41,1201.34 1394.29,1199.13C1392.68,1170.47 1381.31,1140.46 1379.41,1110.27C1372.98,1007.79 1401.87,858.647 1434.27,761.712C1448.72,718.506 1463.41,674.206 1492.33,638.201C1501.06,627.328 1515.52,615.529 1529.47,612.763C1531.58,612.344 1536.94,611.862 1541.04,612.068C1543.22,612.178 1545.1,612.527 1546.27,613.016C1548,613.746 1551.08,616.192 1552.85,618.067C1554.09,619.39 1554.74,620.662 1554.9,621.273C1555.48,623.52 1554.48,624.934 1553.2,625.79C1552.57,626.212 1551.18,626.99 1548.92,626.142C1547.52,625.617 1546.58,624.407 1546.35,623.045Z"/>
    </g>
</svg>
