<?xml version="1.0" encoding="UTF-8" standalone="no"?>
<!DOCTYPE svg PUBLIC "-//W3C//DTD SVG 1.1//EN" "http://www.w3.org/Graphics/SVG/1.1/DTD/svg11.dtd">
<svg width="100%" height="100%" viewBox="0 0 3508 2481" version="1.1" xmlns="http://www.w3.org/2000/svg" xmlns:xlink="http://www.w3.org/1999/xlink" xml:space="preserve" xmlns:serif="http://www.serif.com/" style="fill-rule:evenodd;clip-rule:evenodd;stroke-linejoin:round;stroke-miterlimit:2;">
    <path d="M652.582,1186.29C688.356,1186.44 708.279,1168.46 731.761,1141.2C757.168,1111.71 784.751,1079.81 796.274,1041.49C816.647,973.76 809.844,902.833 813.212,836.059C816.473,771.387 829.474,710.644 889.11,661.173C921.411,634.378 969.86,618.036 1011.84,621.253C1052.69,624.384 1078.83,649.239 1096.52,686.602C1124.29,745.283 1131.51,834.045 1139.24,922.003C1147.11,1011.61 1155.52,1100.39 1185.15,1157.03C1205.8,1196.52 1236.53,1220.87 1283.63,1220.7C1286.95,1220.69 1289.62,1218 1289.61,1214.68C1289.6,1211.37 1286.9,1208.69 1283.59,1208.7C1230.61,1208.89 1201.23,1173.87 1183.14,1121.73C1164.24,1067.25 1157.64,994.366 1151.19,920.954C1143.33,831.445 1135.63,741.184 1107.36,681.468C1087.69,639.901 1058.2,612.771 1012.76,609.289C967.849,605.846 916.002,623.273 881.448,651.938C818.797,703.91 804.654,767.512 801.227,835.454C797.906,901.295 804.871,971.251 784.783,1038.04C773.742,1074.74 747.012,1105.11 722.669,1133.37C701.765,1157.63 684.481,1174.42 652.634,1174.29C649.323,1174.27 646.622,1176.95 646.608,1180.26C646.594,1183.57 649.271,1186.27 652.582,1186.29Z"/>
    <path d="M1321.21,1194.32C1319.16,1193.35 1317.75,1191.25 1317.77,1188.83C1317.8,1185.52 1320.52,1182.86 1323.83,1182.89C1327.29,1182.92 1331.78,1184.88 1333.25,1186.3C1335.55,1188.53 1335.63,1191.02 1335.08,1192.89C1334.7,1194.16 1333.01,1197.82 1326.58,1197.76C1324.2,1197.74 1322.16,1196.33 1321.21,1194.32Z"/>
    <path d="M712.817,1197.76C850.909,1198.31 983.961,1225.48 1121.16,1237.91C1153.16,1240.81 1184.86,1232.35 1214.81,1232.18C1218.12,1232.16 1220.8,1229.45 1220.78,1226.14C1220.76,1222.83 1218.05,1220.16 1214.74,1220.18C1185.15,1220.35 1153.85,1228.82 1122.25,1225.96C984.697,1213.5 851.305,1186.31 712.864,1185.76C709.553,1185.75 706.854,1188.42 706.841,1191.74C706.827,1195.05 709.505,1197.75 712.817,1197.76Z"/>
    <path d="M983.859,719.788C982.794,718.678 982.153,717.162 982.19,715.504C982.263,712.193 985.01,709.565 988.32,709.637C990.492,709.685 993.042,710.627 994.655,714.027C996,716.865 996.839,725.108 996.548,737.533C996.064,758.22 993.323,791.872 989.397,830.986C983.442,890.303 978.707,949.666 972.102,1008.88C965.679,1066.46 958.108,1124.05 949.03,1181.25C948.359,1185.47 943.819,1206.49 936.883,1228.79C944.727,1229.14 940.226,1239.59 939.916,1239.79C939.832,1239.85 938.826,1240.73 936.699,1240.79C936.385,1240.79 934.716,1240.8 932.938,1240.8C928.252,1254.28 922.781,1267.23 916.855,1276.2C911.304,1284.6 904.993,1289.66 898.95,1290.56C894.134,1291.28 889.098,1289.85 884.172,1284.95C881.731,1282.51 880.558,1279.44 880.625,1275.83C880.693,1272.16 882.265,1267.68 885.168,1262.99C891.66,1252.49 904.954,1240.22 915.345,1233.82C918.556,1231.84 921.58,1230.44 924.167,1229.63C931.599,1206.63 936.491,1183.7 937.178,1179.37C946.227,1122.35 953.774,1064.95 960.176,1007.55C966.776,948.38 971.506,889.06 977.457,829.787C981.537,789.141 984.341,754.455 984.605,734.324C984.688,728.05 984.081,721.81 983.859,719.788ZM918.282,1246.25C909.908,1252.12 900.332,1261.28 895.373,1269.3C894.222,1271.16 893.331,1272.93 892.878,1274.56C892.742,1275.05 892.648,1275.51 892.627,1275.95C892.618,1276.13 892.517,1276.32 892.641,1276.44C894.07,1277.87 895.362,1278.75 896.766,1278.73C898.289,1278.7 899.685,1277.75 901.15,1276.46C903.103,1274.75 904.986,1272.39 906.842,1269.58C910.935,1263.39 914.785,1255.19 918.282,1246.25ZM934.492,1240.41C934.757,1240.53 935.257,1240.7 936.026,1240.76C935.491,1240.71 934.976,1240.59 934.492,1240.41ZM987.691,721.615L987.7,721.615L987.675,721.613L987.691,721.615Z"/>
    <path d="M922.312,1247.09C923.166,1244.71 925.474,1243.05 928.132,1243.12C931.496,1243.22 933.011,1244.83 933.712,1245.75C934.674,1247.02 935.253,1248.52 935.014,1250.24C940.903,1248.42 946.708,1248.03 952.254,1248.75C966.937,1250.66 980.069,1260.65 988.436,1274.14C996.677,1287.44 1000.23,1304.03 996.436,1319C991.794,1337.3 976.354,1353.74 944.005,1358.34C927.795,1360.65 915.162,1356.01 906.158,1347.56C893.107,1335.31 887.73,1314.49 891.137,1294.05C893.773,1278.24 901.936,1264.46 912.97,1253.5C914.611,1251.86 919.462,1248.82 922.312,1247.09ZM912.107,1273.31C907.603,1280.1 904.359,1287.71 902.974,1296.02C898.541,1322.62 911.738,1350.81 942.315,1346.46C968.101,1342.79 981.104,1330.63 984.805,1316.05C987.82,1304.16 984.781,1291.02 978.236,1280.47C971.816,1270.11 961.973,1262.12 950.705,1260.65C941.161,1259.41 930.799,1263.05 920.791,1273.38C918.487,1275.75 914.685,1275.81 912.307,1273.51L912.107,1273.31Z"/>
    <path d="M1736.6,721.633C1838.75,724.825 1943.51,699.875 2046.64,690.092C2220.21,673.629 2392.97,667.185 2567.25,667.185C2636.38,667.185 2714.58,657.04 2782.57,669.904C2785.83,670.519 2788.97,668.377 2789.58,665.123C2790.2,661.87 2788.06,658.728 2784.8,658.113C2716.1,645.115 2637.1,655.185 2567.25,655.185C2392.59,655.185 2219.45,661.647 2045.51,678.146C1942.87,687.881 1838.63,712.816 1736.98,709.639C1733.67,709.535 1730.9,712.139 1730.79,715.448C1730.69,718.758 1733.29,721.529 1736.6,721.633Z"/>
    <path d="M1754.43,678.276C1753.96,677.392 1753.71,676.377 1753.74,675.306C1753.84,671.996 1756.6,669.387 1759.91,669.483C1761.92,669.542 1766.25,671.17 1766.42,677.43C1766.75,689.631 1752.57,751.129 1752.49,770.189C1752.47,776.209 1747.5,776.903 1746.84,776.951C1745.64,777.041 1742.41,777.019 1740.79,773.195C1740.57,772.697 1740.19,770.799 1739.75,768.564C1738.95,768.894 1738.14,769.022 1737.33,769.018C1735.91,769.01 1733.98,768.63 1732.33,766.483C1731.88,765.91 1731.24,764.816 1730.66,763.009C1729.99,760.924 1729.11,757.097 1728.02,751.132C1727.47,748.129 1729.27,745.236 1732.1,744.339C1731.45,722.155 1729.03,687.098 1728.98,681.43C1728.94,681.095 1728.65,678.525 1728.71,677.87C1728.81,676.922 1729.08,676.187 1729.35,675.652C1730.46,673.415 1732.25,672.49 1734.21,672.3C1735.32,672.192 1737.24,672.16 1739.22,674.14C1742.07,676.99 1744.34,683.063 1745.46,690.742C1747.06,701.688 1746.96,716.257 1746.82,725.705C1750.49,705.519 1754.4,685.333 1754.43,678.276ZM1759.28,681.463C1759.37,681.471 1759.47,681.476 1759.56,681.478L1759.28,681.463ZM1759.08,681.446L1759.21,681.457L1758.98,681.433L1759.08,681.446ZM1758.85,681.416L1758.92,681.425L1758.69,681.388L1758.85,681.416ZM1758.61,681.376L1758.64,681.38L1758.44,681.339L1758.61,681.376Z"/>
    <path d="M2774.01,622.201L2774.22,620.798C2774.34,617.772 2776.69,615.307 2779.71,615.051C2782.72,614.795 2785.46,616.827 2786.08,619.79C2786.08,619.79 2787.61,627.08 2788.78,630.605C2792.12,640.599 2792.22,657.793 2790.59,673.163L2790.59,673.184C2790.73,673.866 2790.82,675.561 2790.09,677.927L2789.97,678.334C2789.01,685.367 2787.71,691.756 2786.21,696.543L2786.21,707.076C2786.21,710.212 2783.8,712.819 2780.67,713.059C2777.55,713.298 2774.76,711.089 2774.28,707.99C2774.28,707.99 2773.2,699.659 2774.22,694.827C2774.33,690.78 2775.27,686.134 2776.26,682.252C2774.41,680.102 2774.3,676.871 2776.15,674.585C2777.25,673.216 2778.15,672.163 2778.86,671.382C2780.32,657.952 2780.3,643.101 2777.4,634.4C2777.22,633.872 2777.04,633.269 2776.86,632.62C2774.02,632.098 2771.89,629.581 2771.95,626.603C2771.99,624.843 2772.78,623.275 2774.01,622.201Z"/>
    <path d="M2071.41,396.143C2070.06,395.024 2069.21,393.329 2069.24,391.444C2069.29,388.133 2072.01,385.482 2075.32,385.529C2079.29,385.585 2081.88,387.659 2083.03,391.595C2083.73,393.966 2083.58,397.813 2082.83,401.834C2082.09,405.793 2080.75,409.997 2080.75,411.643C2080.74,424.206 2078.67,437.565 2077.62,450.898C2076.66,463.261 2076.56,475.61 2080.45,487.17C2081.95,491.645 2086.37,492.953 2091.44,493.265C2102.17,493.926 2115.97,489.53 2125.18,485.362C2128.19,484.001 2131.34,482.062 2132.74,481.17C2133.06,480.316 2133.59,479.523 2134.31,478.867C2136.76,476.642 2140.56,476.827 2142.78,479.279C2144.28,480.935 2144.89,482.947 2144.27,485.353C2144.02,486.327 2143.46,487.58 2142.26,488.863C2141.25,489.949 2139.41,491.382 2136.84,492.879C2128.11,497.974 2109.56,505.007 2094.6,505.316C2082.36,505.569 2072.53,501.296 2069.07,490.992C2064.68,477.91 2064.57,463.953 2065.66,449.963C2066.68,436.943 2068.74,423.902 2068.75,411.636C2068.75,409.897 2069.72,405.866 2070.62,401.675C2070.99,399.968 2071.26,397.559 2071.41,396.143ZM2133.71,487.128C2133.77,487.2 2133.83,487.272 2133.9,487.343L2133.71,487.128ZM2133.57,486.955L2133.65,487.05L2133.54,486.915L2133.57,486.955ZM2133.43,486.755L2133.45,486.789L2133.41,486.727L2133.43,486.755Z"/>
    <path d="M2161.16,453.352C2161.75,450.624 2164.2,448.594 2167.1,448.629C2168.87,448.651 2170.48,449.307 2171.75,450.935C2171.99,451.242 2173.5,452.803 2172.91,455.804C2172.88,455.935 2172.69,456.647 2172.38,457.815C2171.22,462.213 2167.96,475.253 2169.36,485.79C2169.88,489.675 2170.88,493.268 2173.69,495.197C2176.71,497.268 2181.28,497.096 2188.06,494.857C2198.08,491.548 2203.77,482.844 2204.95,474.555C2205.65,469.659 2204.86,464.853 2201.94,461.797C2198.82,458.528 2193.51,457.872 2186.12,460.324C2182.98,461.366 2179.58,459.661 2178.54,456.517C2177.49,453.374 2179.2,449.976 2182.34,448.934C2195.68,444.513 2204.99,447.617 2210.62,453.512C2215.86,459.006 2218.09,467.446 2216.84,476.25C2215.09,488.508 2206.64,501.358 2191.83,506.251C2180.06,510.139 2172.14,508.686 2166.9,505.089C2161.46,501.351 2158.47,494.903 2157.47,487.375C2155.83,475.095 2159.43,459.875 2160.78,454.75L2161.16,453.352Z"/>
    <path d="M2276.1,470.06C2275.27,462.985 2275.05,456.02 2275.58,450.388C2276.22,443.652 2278.21,438.574 2280.71,436.082C2283.01,433.789 2285.18,433.681 2286.48,433.809C2288.55,434.014 2290.43,435.019 2291.61,437.383C2292.06,438.289 2292.51,439.913 2292.44,442.083C2292.34,445.359 2290.95,451.66 2290.95,454.674C2290.95,459.163 2290.35,465.721 2288.36,471.583C2289.27,478.012 2290.71,484.372 2292.53,489.498C2293.38,491.883 2294.29,493.978 2295.3,495.62C2295.71,496.282 2296.43,497.095 2296.73,497.424C2299.7,497.738 2302.03,500.223 2302.09,503.28C2302.15,506.591 2299.51,509.328 2296.2,509.387C2293.29,509.44 2290.31,508.211 2287.66,505.354C2285.32,502.834 2283.06,498.693 2281.22,493.516C2280.26,490.827 2279.4,487.838 2278.65,484.679C2277.62,485.286 2276.52,485.791 2275.34,486.181C2266.57,489.096 2260.14,488.608 2255.34,486.486C2248.1,483.28 2244.07,475.921 2241.84,467.379C2240.37,461.785 2239.61,455.731 2238.47,450.876C2238.12,449.36 2237.74,447.986 2237.24,446.853C2237.11,446.559 2236.85,446.147 2236.72,445.941C2233.8,444.91 2232.12,441.785 2232.93,438.742C2233.78,435.542 2237.07,433.637 2240.27,434.49C2243.16,435.26 2245.53,437.148 2247.3,440.197C2249.58,444.133 2250.73,450.891 2252.06,457.988C2252.76,461.672 2253.55,465.459 2254.86,468.777C2255.85,471.266 2257.07,473.502 2259.07,474.881C2261.82,476.777 2265.77,476.719 2271.55,474.794C2273.75,474.066 2275.11,472.231 2276.1,470.06Z"/>
    <path d="M2325.07,428.466C2324.64,427.548 2324.44,426.508 2324.53,425.427C2324.82,422.128 2327.73,419.683 2331.03,419.969C2332.64,420.109 2335.6,420.983 2336.66,424.963C2337.45,427.965 2336.92,441.339 2336.98,445.096C2341.03,461.045 2347.24,477.37 2351.25,493.368C2351.78,495.477 2353.92,508.487 2354.03,509.98C2354.14,511.41 2353.81,512.269 2353.71,512.543C2352.73,515.336 2350.72,516.127 2349.3,516.429C2347.76,516.758 2345.46,516.831 2343.43,514.399C2343.34,514.284 2342.41,513.168 2341.84,510.302C2341.73,509.776 2341.7,509.252 2341.73,508.741C2341.14,505.029 2339.96,497.664 2339.61,496.289C2335.56,480.128 2329.26,463.633 2325.22,447.53C2325.07,446.944 2324.98,443.543 2325.09,439.421C2325.18,435.743 2325.1,430.047 2325.07,428.466Z"/>
    <path d="M2332.88,420.453C2345.1,421.472 2363.23,430.866 2377.87,443.388C2385.55,449.956 2392.27,457.417 2396.57,465.144C2400.39,472.003 2402.32,479.026 2400.67,485.688C2399.26,491.363 2395.24,496.605 2388.16,501.303C2385.92,502.794 2383.77,504.472 2381.53,505.942C2379.15,507.506 2376.69,508.901 2373.61,508.862C2370.3,508.82 2367.58,511.474 2367.53,514.786C2367.49,518.097 2370.15,520.819 2373.46,520.861C2382.01,520.969 2388.18,515.697 2394.8,511.3C2406.12,503.782 2411.49,494.895 2412.89,485.717C2414.26,476.689 2411.69,467.171 2406.31,458.003C2391.49,432.782 2354.86,410.244 2333.88,408.495C2330.58,408.22 2327.67,410.676 2327.4,413.976C2327.12,417.276 2329.58,420.178 2332.88,420.453Z"/>
    <path d="M2195.64,771.475L2195.36,771.49C2193.19,771.645 2190.67,772.414 2188.08,773.479C2182.81,775.638 2177.31,779.065 2173.44,782.369C2171.63,783.92 2170.09,785.224 2169.7,786.404C2168.01,791.479 2169.12,796.15 2171.51,800.598C2174.44,806.07 2179.18,811.202 2184.09,816.262C2190.75,823.13 2197.74,829.85 2202.16,836.689C2205.73,842.196 2207.72,847.845 2207.42,853.65C2206.8,865.866 2198.26,872.329 2188.19,873.47C2174.1,875.065 2157.32,865.427 2158.16,847.296C2158.31,843.988 2161.12,841.427 2164.43,841.58C2167.74,841.733 2170.3,844.543 2170.15,847.851C2169.69,857.678 2179.2,862.411 2186.84,861.546C2191.25,861.046 2195.16,858.388 2195.44,853.037C2195.66,848.613 2193.25,844.51 2190.05,840.34C2186.02,835.091 2180.62,829.923 2175.47,824.618C2169.75,818.722 2164.35,812.647 2160.93,806.27C2156.96,798.869 2155.5,791.052 2158.32,782.609C2159.08,780.31 2161.19,777.291 2164.46,774.298C2170.47,768.792 2180.62,762.757 2189,760.497C2196.13,758.574 2202.23,759.623 2205.66,763.046C2206.84,764.216 2207.95,766.553 2208.12,769.283C2208.3,772.275 2207.37,775.535 2206.88,776.355C2205.03,779.404 2202.37,779.584 2200.51,779.235C2199.39,779.025 2196.61,778.407 2195.62,774.455C2195.37,773.44 2195.39,772.42 2195.64,771.475ZM2207.12,771.055L2207.17,771.224L2207.16,771.187L2207.12,771.055ZM2207,770.748L2207.07,770.925L2207.05,770.857L2207,770.748ZM2206.89,770.503L2206.95,770.616L2206.92,770.553L2206.89,770.503Z"/>
    <path d="M2244.79,772.713C2244.23,771.546 2244.04,770.19 2244.34,768.83C2245.06,765.598 2248.27,763.556 2251.5,764.275C2251.57,764.29 2254.38,764.646 2255.8,767.97C2256.26,769.017 2258.06,773.445 2258.77,775.854C2259.16,777.152 2259.28,778.2 2259.28,778.773C2259.3,790.631 2265.45,803.086 2271.09,815.464C2277.56,829.7 2283.37,843.854 2281.98,856.817C2281.63,860.11 2278.67,862.497 2275.38,862.144C2272.08,861.791 2269.7,858.831 2270.05,855.539C2271.23,844.484 2265.69,832.575 2260.16,820.433C2253.89,806.643 2247.49,792.624 2247.29,779.39L2244.78,772.708L2244.79,772.713Z"/>
    <path d="M2291.16,772.899C2288.6,771.967 2286.93,769.363 2287.27,766.542C2287.66,763.254 2290.66,760.909 2293.95,761.307C2298.16,761.818 2301.78,765.321 2303.38,771.439C2305.35,778.947 2304.57,791.447 2305.24,794.809C2307.08,803.963 2313.55,817.014 2317.86,829.164C2321.19,838.549 2323.19,847.503 2322.09,854.273C2321.56,857.542 2318.47,859.764 2315.2,859.232C2311.94,858.7 2309.72,855.615 2310.25,852.346C2311.09,847.156 2309.11,840.373 2306.55,833.178C2302.04,820.461 2295.4,806.753 2293.48,797.172C2292.9,794.286 2293.39,784.678 2292.32,777.257C2292.1,775.767 2291.44,773.72 2291.16,772.899Z"/>
    <path d="M2267.55,824.366L2267.76,824.325C2271.77,823.427 2281.31,819.632 2290.22,816.748C2296.99,814.556 2303.47,812.926 2307.51,812.892C2310.83,812.864 2313.54,815.529 2313.56,818.841C2313.59,822.152 2310.93,824.863 2307.62,824.891C2300.96,824.947 2286.68,830.684 2277.6,833.818C2274.4,834.923 2271.74,835.754 2270.07,836.102C2268.43,836.443 2267.18,836.408 2266.42,836.283C2263.16,835.738 2260.95,832.644 2261.49,829.378C2261.99,826.397 2264.61,824.295 2267.55,824.366Z"/>
    <path d="M2357.03,794.958L2357.3,794.314C2361.09,785.588 2365.6,778.395 2370.39,774.897C2375.08,771.477 2380.14,770.718 2385.54,773.411C2389.8,775.533 2392.9,779.876 2394.97,785.269C2397.17,791.008 2398.22,798.034 2399.95,802.359C2404.07,812.613 2416.16,828.968 2424.57,844.003C2431.06,855.607 2435.16,866.68 2433.96,874.321C2433.44,877.592 2430.37,879.829 2427.1,879.314C2423.82,878.799 2421.59,875.725 2422.1,872.454C2422.41,870.517 2422.01,868.261 2421.3,865.766C2419.92,860.964 2417.26,855.522 2414.1,849.86C2405.42,834.35 2393.06,817.409 2388.82,806.831C2387.31,803.086 2386.27,797.403 2384.65,792.159C2384.01,790.097 2383.29,788.111 2382.31,786.46C2381.72,785.483 2381.1,784.607 2380.19,784.152C2379.32,783.717 2378.51,783.901 2377.74,784.402C2376.52,785.201 2375.41,786.461 2374.3,787.982C2370.6,793.053 2367.42,800.714 2364.58,808.632C2359.56,822.61 2355.61,837.376 2352.66,842.735C2350.42,846.815 2347.32,847.882 2345.42,847.882C2342.82,847.882 2341.22,846.861 2340.15,845.773C2339.14,844.746 2338.47,843.456 2338.26,841.856C2338.08,840.471 2338.41,838.293 2339.55,835.881C2340.36,834.186 2342.12,830.542 2342.3,830.162C2342.37,822.152 2345.41,808.8 2345.29,799.147C2345.27,797.62 2345.16,796.21 2344.9,794.978C2344.82,794.561 2344.71,794.171 2344.57,793.814C2344.52,793.662 2344.4,793.45 2344.33,793.317C2341.05,793.033 2338.61,790.155 2338.87,786.872C2339.13,783.571 2342.02,781.1 2345.32,781.359C2351.78,781.866 2355.62,786.205 2356.84,793.555C2356.92,794.007 2356.98,794.475 2357.03,794.958Z"/>
    <path d="M2359.07,829.086C2358.6,828.17 2358.05,827.071 2357.72,826.282C2357.03,824.635 2356.69,823.048 2356.7,821.757C2356.71,820.513 2357.05,819.168 2358.06,817.866C2358.72,817.014 2360.38,815.65 2363.11,814.706C2369.27,812.577 2384.68,810.16 2384.98,810.12C2394.78,808.818 2400.79,809.137 2405.52,809.37C2411.1,809.645 2414.4,809.747 2422.07,805.143C2424.91,803.438 2428.6,804.359 2430.3,807.198C2432.01,810.037 2431.09,813.726 2428.25,815.431C2419.1,820.923 2414.25,821.599 2408.28,821.486C2403.46,821.394 2397.7,820.536 2386.56,822.016C2386.34,822.044 2377.59,823.401 2371.13,824.924L2370.52,825.075L2370.62,825.281C2371.66,827.431 2371.92,829.373 2371.78,830.55C2371.58,832.236 2370.85,833.549 2369.77,834.563C2368.72,835.551 2367.12,836.533 2364.51,836.349C2361.2,836.118 2358.71,833.248 2358.94,829.944C2358.96,829.651 2359.01,829.365 2359.07,829.086ZM2364.98,824.365L2365.01,824.365L2365,824.365L2364.98,824.365Z"/>
    <path d="M2446.66,787.427C2443.94,786.754 2441.98,784.236 2442.11,781.332C2442.26,778.024 2445.07,775.46 2448.38,775.611C2452.67,775.806 2456.64,779.067 2458.87,785.2C2461.73,793.058 2462.28,806.693 2463.55,811.734C2465.82,820.728 2473.3,831.314 2477.56,841.791C2481.08,850.458 2482.52,859.072 2479.53,866.919C2478.35,870.013 2474.88,871.568 2471.78,870.39C2468.69,869.211 2467.13,865.741 2468.31,862.647C2470.85,855.988 2467.76,848.647 2464.19,841.292C2459.67,831.954 2453.93,822.681 2451.91,814.666C2450.85,810.433 2450.35,800.008 2448.47,792.268C2448.03,790.487 2447.03,788.235 2446.66,787.427Z"/>
    <path d="M2448.89,790.32C2452.68,787.056 2460.76,776.791 2471.26,770.131C2479.56,764.865 2489.22,761.791 2499.51,764.355C2510.32,767.051 2515.15,772.656 2516.62,778.693C2518.61,786.855 2513.65,797.484 2505.11,805.98C2501.92,809.152 2488.88,815.169 2480.13,821.827C2478.31,823.213 2476.7,824.612 2475.58,826.051C2475.25,826.476 2474.96,826.895 2474.76,827.322C2474.7,827.46 2474.53,827.566 2474.6,827.701C2475.38,829.232 2477.04,830.151 2479.01,830.983C2482.01,832.255 2485.73,833.038 2489.74,833.584C2503.63,835.475 2520.63,834.524 2528.02,835.998C2531.31,836.653 2542.64,841.233 2547.21,843.732C2550.47,845.516 2551.68,847.909 2551.88,848.654C2552.49,850.842 2551.97,852.667 2550.7,854.191C2550.04,854.983 2548.57,856.542 2545.43,856.438C2543.55,856.376 2541.9,855.455 2540.85,854.065C2537.4,852.479 2528.06,848.242 2525.67,847.766C2517.09,846.054 2495.49,847.649 2480.97,844.164C2472.75,842.193 2466.59,838.445 2463.89,833.117C2461.13,827.655 2462.86,821.62 2468.43,816.089C2473.45,811.095 2481.87,806.236 2488.67,802.377C2492.3,800.321 2495.41,798.706 2496.64,797.474C2499.57,794.563 2502.06,791.373 2503.61,788.189C2504.75,785.855 2505.46,783.585 2504.96,781.536C2504.3,778.825 2501.46,777.209 2496.6,775.998C2489.9,774.327 2483.66,776.583 2478.2,779.944C2471.87,783.842 2466.52,789.299 2462.57,793.459C2459.17,797.036 2456.51,799.769 2454.98,800.73C2453.3,801.777 2451.81,801.989 2450.7,801.94C2447.4,801.791 2444.83,798.984 2444.98,795.676C2445.09,793.197 2446.7,791.135 2448.89,790.32ZM2545.11,844.464L2545.09,844.467L2545.13,844.463L2545.11,844.464ZM2545.38,844.448L2545.48,844.444L2545.46,844.444L2545.38,844.448Z"/>
    <path d="M2550.58,781.816C2547.55,781.42 2545.26,778.784 2545.37,775.675C2545.47,772.365 2548.25,769.765 2551.55,769.871C2557.22,770.054 2560.43,773.25 2562.12,778.272C2563.4,782.117 2563.32,787.652 2564.33,791.662C2569.82,813.552 2584.88,843.79 2587.78,849.621C2590.97,856.009 2582.8,859.309 2582.73,859.307C2580.24,859.233 2578.14,857.638 2577.3,855.438C2577.22,855.299 2577.13,855.143 2577.04,854.97C2574.02,848.898 2558.41,817.379 2552.69,794.583C2551.99,791.806 2551.79,788.326 2551.36,785.128C2551.21,784.051 2550.78,782.52 2550.58,781.816Z"/>
    <path d="M2542.5,776.11C2542.24,775.231 2542.02,774.198 2542.06,773.245C2542.13,771.368 2542.72,768.81 2545.63,765.918C2560.69,750.981 2596.06,741.231 2616.09,741.231C2617.2,741.231 2619.19,741.478 2621.21,743.639C2622.64,745.16 2625.53,749.792 2630.09,758.88C2636.95,772.559 2637.3,782.898 2634.05,790.597C2630.7,798.523 2623.33,804.11 2613.35,807.616C2596.42,813.558 2571.47,813.631 2551.3,813.418C2547.99,813.383 2545.33,810.666 2545.36,807.355C2545.4,804.044 2548.11,801.384 2551.43,801.419C2570.26,801.618 2593.57,801.84 2609.37,796.293C2615.75,794.054 2620.85,790.989 2622.99,785.925C2625.23,780.635 2624.08,773.663 2619.36,764.264C2616.86,759.266 2614.55,755.306 2613.34,753.293C2595.42,754.056 2566.64,761.983 2554.09,774.436C2553.96,774.561 2553.78,774.777 2553.78,774.777L2553.78,774.71C2553.74,776.739 2553.57,779.45 2552.99,780.034C2552.23,780.802 2550.92,781.951 2548.3,781.865C2545.14,781.761 2542.62,779.223 2542.5,776.11ZM2547.62,769.931L2547.55,769.944L2547.75,769.915L2547.62,769.931ZM2548.13,769.878C2548.04,769.885 2547.95,769.892 2547.87,769.899L2547.79,769.909L2548.08,769.882L2548.38,769.869L2548.13,769.878ZM2548.38,769.869L2548.69,769.871C2548.59,769.868 2548.48,769.867 2548.38,769.869Z"/>
    <path d="M1752.32,1043.65C1751.38,1042.56 1750.83,1041.12 1750.87,1039.57C1750.97,1036.26 1753.74,1033.65 1757.05,1033.75C1760.15,1033.84 1762.48,1035.41 1763.7,1038.65C1764.16,1039.87 1764.42,1041.57 1764.41,1043.49C1764.39,1045.63 1764.03,1049.49 1763.95,1050.24C1772.64,1085.26 1777.18,1152.48 1779.36,1165.59L1779.46,1166.17C1779.84,1166.93 1780.06,1167.79 1780.08,1168.69C1780.14,1172 1777.51,1174.74 1774.2,1174.81C1772.93,1174.84 1771.58,1174.52 1770.28,1173.48C1769.79,1173.09 1768.14,1171.3 1767.52,1167.56C1765.35,1154.5 1760.89,1087.32 1752.2,1052.71C1751.99,1051.86 1751.88,1050.42 1752.01,1048.67C1752.1,1047.42 1752.24,1045.03 1752.32,1043.65ZM1774.34,1162.82C1775.21,1162.86 1776.04,1163.08 1776.78,1163.45C1775.96,1163.03 1775.13,1162.85 1774.34,1162.82Z"/>
    <path d="M2838.99,1079.34C2839.27,1078.94 2839.61,1078.56 2839.99,1078.23C2842.5,1076.06 2846.29,1076.34 2848.46,1078.84C2848.68,1079.1 2848.95,1079.32 2849.24,1079.51C2854.9,1079.6 2859.82,1079.68 2863.72,1079.68C2869.56,1079.68 2870.87,1083.77 2871.05,1084.53C2871.43,1086.14 2871.63,1089.48 2867.72,1091.44C2866.32,1092.15 2859.18,1093.61 2852.25,1092.7C2850.41,1092.45 2848.61,1092.04 2846.91,1091.46C2820.51,1090.99 2779.65,1090.23 2749.77,1094.33C2735.27,1096.31 2723.47,1099.06 2718.23,1104.27C2717.82,1104.68 2716.23,1105.97 2713.47,1106.19C2711.46,1106.34 2707.4,1106.29 2705.58,1106.12C2704.05,1105.98 2703.05,1105.57 2702.68,1105.39C2692.75,1100.43 2674.33,1097.65 2652.35,1095.91C2598.94,1091.71 2525.13,1094.55 2495.22,1094.55C2335.6,1094.55 2173.92,1087.48 2014.74,1097.39C1959.49,1100.83 1902.83,1102.77 1847.98,1108.84C1821.06,1111.82 1785.47,1123.76 1765.3,1123.18C1761.99,1123.09 1759.38,1120.32 1759.48,1117.01C1759.57,1113.7 1762.33,1111.09 1765.64,1111.19C1785.42,1111.75 1820.27,1099.84 1846.66,1096.91C1901.7,1090.82 1958.55,1088.87 2014,1085.42C2173.42,1075.49 2335.36,1082.55 2495.22,1082.55C2525.31,1082.55 2599.56,1079.72 2653.29,1083.95C2676.51,1085.78 2696.01,1089.05 2707.03,1094.17L2711.53,1094.21C2718.58,1088.63 2731.81,1084.68 2748.14,1082.44C2775.68,1078.66 2812.42,1078.91 2838.99,1079.34Z"/>
    <path d="M2834.68,1103.72C2832.08,1093.64 2828.6,1053.43 2829.87,1037.26C2830.27,1032.08 2831.68,1028.69 2832.78,1027.46C2834.28,1025.8 2836.03,1025.18 2837.8,1025.18C2840.09,1025.18 2842.35,1026.13 2844.09,1028.62C2844.9,1029.77 2845.67,1031.5 2846.2,1033.69C2847.02,1037.1 2847.39,1042.07 2847.34,1047.03C2847.3,1049.78 2847.11,1052.52 2846.8,1055.02C2848.55,1057.54 2850.07,1060.95 2851.2,1065.04C2853.1,1071.9 2854.09,1080.86 2854.12,1089.83C2854.16,1098.79 2853.23,1107.76 2851.41,1114.66C2849.97,1120.16 2847.84,1124.47 2845.41,1127.04C2843.14,1129.45 2839.34,1129.56 2836.93,1127.28C2834.52,1125.01 2834.41,1121.21 2836.69,1118.8C2837.18,1118.29 2837.61,1117.63 2837.99,1116.86C2836.02,1115.87 2834.68,1113.83 2834.68,1111.49L2834.68,1103.72Z"/>
    <path d="M2094.12,1295.16C2091.35,1294.6 2089.28,1292.12 2089.32,1289.2C2089.36,1285.88 2092.09,1283.23 2095.4,1283.28C2097.9,1283.31 2100.42,1284.34 2102.68,1286.67C2104.56,1288.59 2106.4,1291.69 2108,1295.59C2112.88,1307.52 2116.14,1328.1 2117.88,1333.3C2118.98,1336.58 2121.53,1341.37 2123.07,1344.95C2124.04,1347.19 2124.65,1349.13 2124.82,1350.4C2125.16,1352.98 2124.33,1354.78 2123.45,1355.9C2122.28,1357.38 2120.63,1358.41 2118.18,1358.38C2114.87,1358.33 2112.22,1355.61 2112.26,1352.3C2112.27,1351.78 2112.34,1351.28 2112.47,1350.8C2112.17,1350.03 2111.76,1349.01 2111.37,1348.16C2109.69,1344.52 2107.53,1340.2 2106.5,1337.11C2104.79,1332.01 2101.67,1311.82 2096.89,1300.13C2096.09,1298.19 2094.6,1295.87 2094.12,1295.16ZM2116.95,1346.52L2116.93,1346.53L2117.02,1346.51L2116.95,1346.52ZM2117.28,1346.46L2117.18,1346.48L2117.4,1346.44L2117.28,1346.46ZM2117.62,1346.41L2117.47,1346.43L2117.7,1346.4L2117.62,1346.41ZM2117.97,1346.38L2117.81,1346.4L2118.01,1346.38L2117.97,1346.38Z"/>
    <path d="M2090.5,1294.31C2092.24,1290.94 2097.84,1278.34 2104.54,1269.87C2108.14,1265.32 2112.19,1261.96 2116.06,1260.67C2124,1258.03 2138.46,1260.08 2144.47,1264.34C2159.97,1275.33 2163.92,1293.45 2157.45,1306.04C2156.81,1307.29 2156.07,1308.49 2155.22,1309.63C2168.48,1313.12 2183.38,1320.17 2189.53,1332.53C2191.48,1336.44 2190.6,1339.94 2188.01,1343.03C2187.19,1344.01 2186.16,1344.95 2185.09,1345.82C2184.4,1346.38 2183.63,1346.8 2183.27,1347.3C2181.2,1350.2 2176.37,1354.31 2170.15,1358.14C2161.37,1363.55 2149.81,1368.55 2140.54,1369.48C2131.63,1370.36 2124.59,1367.6 2121.21,1360.83C2117.7,1353.82 2119.78,1348.6 2123,1344.28C2124.2,1342.68 2126.28,1340.24 2126.72,1339.71C2127.32,1336.76 2130.06,1334.66 2133.13,1334.93C2136.43,1335.22 2138.87,1338.14 2138.58,1341.44C2138.38,1343.75 2137.02,1346.27 2134.87,1348.78C2134.12,1349.65 2133.27,1350.56 2132.53,1351.57C2131.78,1352.6 2131.12,1353.81 2131.94,1355.46C2132.58,1356.74 2133.83,1357.25 2135.27,1357.49C2137.99,1357.93 2141.28,1357.43 2144.74,1356.5C2156.45,1353.36 2170.1,1345.08 2173.52,1340.31C2174.16,1339.41 2175.17,1338.42 2176.36,1337.45C2176.75,1337.13 2177.34,1336.62 2177.84,1336.18C2172.45,1327.58 2160.81,1323.37 2151.06,1320.95C2147.3,1320.01 2142.04,1321.12 2138.11,1321.12L2128.97,1321.12C2128.87,1321.12 2128.78,1321.12 2128.68,1321.11C2122.2,1320.9 2120.94,1318.01 2121.92,1315.12C2120.94,1312.24 2122.2,1309.35 2128.68,1309.14C2128.78,1309.13 2128.87,1309.12 2128.97,1309.12L2129.45,1309.12C2138.2,1309.12 2144.1,1305.76 2146.78,1300.56C2150.93,1292.48 2147.46,1281.17 2137.53,1274.13C2133.79,1271.48 2124.78,1270.42 2119.84,1272.06C2116.84,1273.06 2114.16,1276.74 2111.53,1280.65C2106.48,1288.15 2102.51,1297.22 2101.14,1299.86C2099.12,1303.76 2095.74,1303.89 2095.24,1303.88C2091.92,1303.84 2089.27,1301.11 2089.32,1297.8C2089.34,1296.49 2089.77,1295.28 2090.5,1294.31ZM2094.78,1291.91C2094.18,1291.95 2093.51,1292.1 2092.8,1292.44C2093.41,1292.15 2094.08,1291.97 2094.78,1291.91ZM2095.04,1291.89L2094.8,1291.9L2095.08,1291.89L2095.04,1291.89Z"/>
    <path d="M2207.9,1288.37C2210.83,1282 2216.19,1276.41 2224.87,1272.4C2229.46,1270.28 2236.59,1267.45 2243.44,1266.13C2248.78,1265.11 2253.97,1265.06 2258.06,1266.42C2267.59,1269.58 2271.12,1274.18 2271.98,1278.14C2272.89,1282.4 2270.96,1287.37 2266.41,1292.14C2261.24,1297.57 2252.45,1303.35 2247.13,1308.86C2246.32,1309.69 2245.61,1310.51 2245.06,1311.32C2244.78,1311.72 2244.49,1312.38 2244.37,1312.65C2244.97,1313.64 2246.26,1314.77 2247.65,1315.93C2250.3,1318.16 2253.47,1320.34 2255.19,1320.91C2261.33,1322.95 2278.19,1330.55 2289.72,1335.11C2292.79,1336.32 2296.17,1337.42 2297.71,1337.91C2297.86,1337.87 2298.01,1337.85 2298.16,1337.83C2301.44,1337.38 2304.46,1339.69 2304.91,1342.97C2305.18,1345.04 2304.55,1346.65 2303.42,1347.95C2302.55,1348.95 2300.73,1350.4 2297.53,1350.13C2295.56,1349.96 2290.97,1348.5 2285.31,1346.27C2273.99,1341.79 2257.44,1334.3 2251.41,1332.3C2248.83,1331.45 2243.9,1328.46 2239.92,1325.11C2236.97,1322.63 2234.59,1319.92 2233.54,1317.84C2231.61,1314 2231.94,1309.9 2234.42,1305.7C2237.73,1300.09 2246.24,1293.86 2253.22,1287.99C2255.26,1286.28 2257.13,1284.61 2258.55,1282.96C2259.14,1282.28 2259.77,1281.19 2260.06,1280.67C2259.78,1280.42 2259.33,1280.05 2258.92,1279.8C2257.74,1279.1 2256.2,1278.45 2254.28,1277.81C2251.88,1277.01 2248.84,1277.32 2245.71,1277.92C2239.87,1279.04 2233.81,1281.49 2229.9,1283.3C2221.98,1286.96 2218.39,1292.67 2217.37,1298.97C2219.01,1300.83 2220.29,1302.36 2220.85,1303.19C2227.33,1312.89 2232.38,1325.53 2235.95,1336.18C2237.03,1339.4 2237.13,1341.64 2236.94,1342.94C2236.63,1345.06 2235.65,1346.41 2234.6,1347.32C2232.83,1348.84 2229.59,1350.03 2225.62,1347.45C2221.01,1344.47 2210.75,1330.79 2206.75,1315.45C2205.68,1311.33 2205.03,1307.12 2204.99,1302.98C2201.68,1299.31 2197.84,1295.14 2195.7,1292.6C2193.77,1290.3 2192.89,1288.43 2192.75,1287.86C2191.95,1284.65 2193.9,1281.39 2197.12,1280.59C2199.88,1279.9 2202.67,1281.24 2203.91,1283.67C2204.66,1284.67 2206.13,1286.37 2207.9,1288.37ZM2293.1,1342.49C2292.97,1343.03 2292.92,1343.62 2292.98,1344.26C2292.93,1343.65 2292.97,1343.06 2293.1,1342.49ZM2293.13,1342.34L2293.1,1342.47L2293.14,1342.31L2293.13,1342.34Z"/>
    <path d="M2305.82,1277.81C2303.12,1276.99 2301.29,1274.35 2301.6,1271.44C2301.94,1268.15 2304.9,1265.76 2308.19,1266.1C2309.9,1266.28 2312.26,1267.25 2314.69,1269.63C2317.59,1272.48 2321.45,1278.05 2325.55,1285.08C2335.77,1302.6 2348.03,1329.53 2352.09,1341.72C2353.6,1346.24 2353.85,1349.49 2353.6,1350.72C2352.93,1353.97 2349.75,1356.06 2346.51,1355.39C2343.56,1354.78 2341.56,1352.1 2341.73,1349.18C2341.55,1348.52 2340.35,1344.3 2338.95,1340.66C2333.93,1327.59 2323.8,1305.89 2315.19,1291.13C2311.67,1285.1 2306.49,1278.63 2305.82,1277.81Z"/>
    <path d="M2402.47,1257.58C2398.86,1259.54 2395.12,1264.24 2391.47,1270.1C2385.12,1280.31 2379.55,1294.12 2377.28,1306.41C2376.13,1312.69 2375.8,1318.53 2376.91,1323.14C2377.66,1326.18 2379.02,1328.62 2381.79,1329.49C2411.48,1338.79 2443.21,1329.02 2458.23,1316.72C2460.85,1314.58 2462.93,1312.38 2464.26,1310.18C2465.11,1308.77 2465.69,1307.43 2465.54,1306.14C2465.31,1304.15 2463.37,1302.88 2460.36,1301.61C2455.22,1299.44 2447.46,1298.22 2436.59,1298.15C2433.28,1298.12 2430.61,1295.42 2430.63,1292.11C2430.66,1288.79 2433.36,1286.12 2436.67,1286.15C2449.66,1286.23 2458.9,1287.96 2465.03,1290.56C2470.23,1292.76 2473.53,1295.69 2475.42,1298.81C2480.05,1306.48 2476.83,1317.01 2465.83,1326.01C2448.6,1340.11 2412.26,1351.61 2378.2,1340.94C2368.63,1337.94 2363.98,1328.44 2364.26,1315.53C2364.56,1301.07 2370.89,1282.07 2378.94,1267.73C2384.72,1257.44 2391.55,1249.6 2397.45,1246.66C2401.57,1244.61 2404.88,1244.92 2407.42,1246.01C2409.88,1247.06 2411.8,1249.04 2413.03,1251.47C2414.52,1254.38 2414.92,1257.9 2414.64,1260.09C2413.99,1265.2 2410.12,1266.72 2407.62,1266.59C2404.32,1266.4 2401.78,1263.57 2401.96,1260.27C2402.01,1259.44 2402.22,1258.65 2402.57,1257.95L2402.47,1257.58ZM2406.93,1254.68L2406.88,1254.69L2407.01,1254.67L2406.93,1254.68ZM2407.2,1254.64L2407.11,1254.65L2407.34,1254.63L2407.2,1254.64ZM2407.46,1254.61L2407.38,1254.62L2407.65,1254.6L2407.46,1254.61ZM2407.98,1254.6L2408.28,1254.6C2408.18,1254.6 2408.08,1254.6 2407.98,1254.6ZM2407.73,1254.6L2407.67,1254.6L2407.94,1254.6L2407.73,1254.6Z"/>
    <path d="M2426.48,1297.94C2425.98,1299.76 2425.5,1301.4 2425.16,1302.5C2424.2,1305.67 2420.84,1307.46 2417.67,1306.49C2414.5,1305.52 2412.72,1302.16 2413.69,1299C2414.57,1296.11 2417.16,1286.27 2417.16,1286.27C2417.16,1286.27 2417.17,1286.39 2417.17,1286.43C2417.2,1278.43 2421.6,1276.57 2423.97,1276.29C2425.61,1276.1 2427.57,1276.46 2429.47,1277.84C2431.17,1279.07 2433.13,1281.57 2434.36,1284.28C2437.78,1291.79 2434.42,1298.47 2427.73,1298.14C2427.3,1298.12 2426.88,1298.05 2426.48,1297.94Z"/>
    <path d="M2504.92,1257.97C2501.77,1257.68 2499.36,1254.97 2499.47,1251.77C2499.6,1248.46 2502.38,1245.87 2505.69,1246C2509.19,1246.12 2512.11,1247.67 2514.43,1250.61C2516.62,1253.37 2518.28,1257.81 2519.24,1263.42C2522.14,1280.33 2519.28,1310.03 2522.71,1322.05C2523.62,1325.23 2521.77,1328.56 2518.59,1329.47C2515.41,1330.37 2512.08,1328.53 2511.17,1325.34C2507.67,1313.06 2510.37,1282.73 2507.41,1265.45C2507,1263.08 2506.5,1261 2505.77,1259.37C2505.55,1258.87 2505.11,1258.22 2504.92,1257.97Z"/>
    <path d="M2535.76,1241.91C2536.15,1241.11 2536.96,1239.48 2537.45,1238.64C2538.27,1237.25 2539.21,1236.25 2539.95,1235.71C2541.61,1234.5 2543.3,1234.27 2544.82,1234.51C2546.02,1234.7 2547.24,1235.21 2548.35,1236.31C2554.74,1242.68 2559.32,1253.92 2562.91,1266.68C2567.7,1283.7 2570.94,1303.54 2576.81,1315.28C2578.29,1318.24 2577.08,1321.85 2574.12,1323.33C2571.16,1324.81 2567.55,1323.61 2566.07,1320.64C2559.94,1308.38 2556.37,1287.72 2551.36,1269.93C2549.3,1262.63 2547.08,1255.83 2544.14,1250.62C2543.99,1250.75 2543.85,1250.86 2543.72,1250.96C2542.33,1252.01 2540.92,1252.29 2539.69,1252.25C2536.38,1252.14 2533.78,1249.36 2533.89,1246.05C2533.95,1244.42 2534.65,1242.95 2535.76,1241.91Z"/>
    <path d="M2519.6,1309.62C2529.74,1309.98 2540.37,1307.09 2551.13,1303.98C2560.74,1301.21 2570.47,1298.25 2580.11,1298.14C2583.42,1298.11 2586.08,1295.39 2586.04,1292.08C2586.01,1288.77 2583.29,1286.11 2579.98,1286.15C2569.29,1286.26 2558.46,1289.38 2547.8,1292.45C2538.31,1295.2 2528.98,1297.94 2520.03,1297.62C2516.72,1297.5 2513.93,1300.1 2513.82,1303.4C2513.7,1306.71 2516.29,1309.5 2519.6,1309.62Z"/>
    <path d="M2591.34,1255.12C2598.37,1255.33 2633.4,1247.15 2649.12,1246.51C2652.43,1246.38 2655.01,1243.58 2654.88,1240.28C2654.74,1236.97 2651.95,1234.39 2648.64,1234.52C2633.14,1235.15 2598.62,1243.33 2591.69,1243.12C2588.38,1243.03 2585.62,1245.64 2585.52,1248.95C2585.42,1252.26 2588.03,1255.02 2591.34,1255.12Z"/>
    <path d="M2639.08,1240.66C2636.28,1240.09 2634.2,1237.58 2634.28,1234.62C2634.37,1231.31 2637.12,1228.7 2640.43,1228.78C2643.45,1228.86 2645.64,1229.83 2647.27,1231.19C2649.57,1233.1 2650.97,1236.06 2651.09,1240.01C2651.22,1244.23 2649.67,1250.16 2647.96,1256.16C2646.6,1260.89 2645.12,1265.66 2645.12,1269.24C2645.13,1277.37 2650.57,1287.89 2653.6,1297.66C2656.22,1306.12 2657.12,1314.13 2654.37,1320.37C2653.04,1323.41 2649.5,1324.79 2646.47,1323.45C2643.43,1322.12 2642.06,1318.58 2643.39,1315.55C2644.36,1313.34 2644.25,1310.74 2643.8,1307.95C2643.2,1304.24 2641.89,1300.26 2640.45,1296.22C2637.07,1286.74 2633.13,1276.99 2633.12,1269.25C2633.12,1263.13 2636.34,1254.01 2638.17,1246.41C2638.61,1244.61 2638.95,1242.92 2639.06,1241.42C2639.08,1241.19 2639.08,1240.92 2639.08,1240.66Z"/>
    <path d="M2894.01,1465.44C2867.57,1463.44 2813.85,1459.69 2804.44,1461.56C2728.24,1476.76 2637.62,1467.11 2561.03,1461.66C2473.44,1455.43 2381.47,1460.18 2294,1464.54C2194.3,1469.51 2094.2,1464.42 1994.58,1470.26C1936.72,1473.65 1880.35,1491.69 1822.69,1490.31C1819.38,1490.24 1816.76,1487.48 1816.84,1484.17C1816.92,1480.86 1819.67,1478.24 1822.98,1478.32C1880.3,1479.68 1936.35,1461.65 1993.87,1458.28C2093.54,1452.44 2193.66,1457.52 2293.41,1452.55C2381.35,1448.17 2473.81,1443.43 2561.88,1449.69C2637.47,1455.07 2726.89,1464.79 2802.1,1449.79C2815.32,1447.16 2904.38,1453 2911.84,1455.01C2918.68,1456.85 2916.7,1463.02 2915.69,1464.47C2915.22,1465.15 2914.31,1466.31 2912.29,1466.9C2911.33,1467.19 2907.02,1467.51 2898.32,1467.37C2896.61,1467.34 2895.09,1466.6 2894.01,1465.44Z"/>
    <path d="M2875.72,1426.51C2875.38,1425.74 2875.19,1424.88 2875.21,1423.98C2875.26,1420.67 2878,1418.03 2881.31,1418.08C2881.7,1418.09 2884.91,1417.89 2886.64,1421.53C2886.7,1421.65 2886.98,1422.34 2887.41,1423.49C2888.93,1427.54 2893.01,1438.89 2897.06,1451.26C2897.98,1452.22 2898.72,1453.52 2899.19,1455.25C2899.5,1456.41 2899.68,1457.96 2899.79,1459.77C2903.8,1472.56 2907.17,1484.92 2907.15,1490.12C2907.13,1495.74 2903.17,1496.86 2902.04,1497.07C2900.52,1497.36 2898.24,1497.33 2896.21,1495.03C2895.74,1494.51 2894.98,1493.34 2894.28,1491.59C2892.89,1488.14 2890.77,1480.86 2889.7,1477.65C2888.47,1473.97 2888.11,1469.55 2887.98,1465.5L2887.94,1464.42C2886.14,1464.72 2884.23,1464.2 2882.8,1462.85C2880.41,1460.56 2880.31,1456.76 2882.6,1454.36C2883.4,1453.52 2884.17,1452.81 2884.91,1452.21C2881.18,1441.22 2877.53,1431.33 2876.18,1427.71L2875.72,1426.51Z"/>
    <path d="M1809.25,1467.57C1808.58,1466.58 1808.2,1465.38 1808.23,1464.09C1808.32,1460.78 1811.07,1458.16 1814.38,1458.24C1817.9,1458.33 1819.56,1459.84 1820.52,1461.09C1821.55,1462.43 1822.07,1464.07 1821.91,1466C1821.88,1466.39 1821.73,1467.02 1821.57,1467.64C1822.96,1469.3 1824.11,1471.07 1825.08,1472.97C1825.72,1472.74 1826.41,1472.61 1827.12,1472.61C1830.09,1472.62 1832.6,1474.78 1833.05,1477.71C1833.05,1477.71 1838.53,1513.92 1844.31,1531.2C1844.73,1532.43 1845.77,1538.63 1845.72,1541.55C1845.69,1544.2 1844.62,1545.91 1844.02,1546.59C1842.19,1548.67 1839.96,1549.25 1837.34,1548.33C1836.55,1548.05 1834.73,1547.28 1833.28,1544.4C1825.08,1528.07 1821.87,1514.71 1819.94,1503.74C1819.47,1502.86 1818.97,1502.01 1818.46,1501.26C1817.86,1500.38 1816.69,1499.21 1816.35,1498.87C1813.33,1498.5 1811.03,1495.88 1811.1,1492.77C1811.18,1489.49 1813.89,1486.89 1817.16,1486.92C1816.15,1481.83 1814.77,1477.64 1811.38,1474.26C1809.72,1472.61 1809.07,1470.66 1809.13,1468.53C1809.14,1468.26 1809.18,1467.93 1809.25,1467.57Z"/>
    <path d="M2713.94,629.375C2715.11,619.475 2717.7,611.716 2721.26,608.174C2723.53,605.91 2725.92,605.927 2728.18,607.061C2728.69,607.315 2730.93,608.249 2731.43,611.525C2731.43,611.582 2731.49,611.927 2731.5,612.513C2731.51,613.444 2731.51,618.155 2731.51,618.162L2731.51,635.371C2731.51,638.37 2732.94,650.99 2733.11,660.951C2737.7,661.583 2741,666.168 2739.95,672.767C2739.32,676.655 2737.22,680.991 2734.69,683.308C2732.77,685.062 2730.57,685.928 2728.36,685.952C2727.56,685.96 2726.64,685.842 2725.67,685.516C2725.72,687.177 2725.75,688.644 2725.75,689.875C2725.74,691.058 2725.86,693.032 2725.48,694.716C2725.06,696.54 2724.19,698.137 2722.89,699.345C2721.52,700.615 2719.64,701.603 2716.87,701.603C2714.84,701.603 2713,700.877 2711.43,699.28C2710.07,697.893 2708.72,695.155 2708.16,691.191C2706.34,678.396 2710.58,646.686 2710.85,641.526L2710.87,635.347C2710.88,631.901 2712.45,630.206 2713.94,629.375Z" style="fill:rgb(130,130,130);"/>
    <path d="M2054.43,1133.87C2053.97,1134.72 2053.51,1135.37 2053.07,1135.8C2051.72,1137.16 2049.6,1138.07 2047.4,1138.07C2045.2,1138.07 2043.09,1137.16 2041.73,1135.81C2040.57,1134.66 2039.51,1132.99 2038.75,1130.77C2037.63,1127.55 2037.03,1122.71 2036.91,1117C2036.57,1100.5 2039.95,1075.84 2039.95,1068.46L2039.95,1059.85C2039.95,1056.95 2042.04,1054.46 2044.9,1053.95C2047.69,1053.45 2050.44,1054.97 2051.5,1057.58C2052.15,1057.19 2052.87,1056.92 2053.66,1056.8C2056.12,1056.41 2058.49,1057.58 2059.72,1059.61C2059.93,1059.6 2060.13,1059.59 2060.35,1059.59C2061.76,1059.59 2063.21,1060.01 2064.56,1061.1C2065.68,1062 2067.29,1064.37 2068.18,1068.16C2070.1,1076.41 2070.93,1094.69 2070.09,1102.76C2069.68,1106.7 2068.3,1109.16 2067.47,1109.99C2067.09,1110.37 2066.72,1110.69 2066.35,1110.98L2066.35,1111.48L2066.35,1120.09L2066.34,1120.4L2066.32,1120.7L2066.28,1121L2066.23,1121.3L2066.16,1121.59C2066.16,1121.59 2066.13,1121.69 2066.13,1121.69C2066.27,1123.72 2066.35,1125.17 2066.35,1125.82L2066.35,1131.56C2066.35,1134.78 2063.81,1137.42 2060.6,1137.55C2058.12,1137.66 2055.93,1136.25 2054.93,1134.12C2054.76,1134.05 2054.59,1133.96 2054.43,1133.87Z" style="fill:rgb(130,130,130);"/>
    <path d="M2485.7,1433C2486.7,1430.89 2488.89,1429.46 2491.37,1429.56C2494.52,1429.68 2496.12,1430.93 2496.93,1431.75C2498.25,1433.09 2498.79,1434.64 2498.79,1436.28C2498.78,1437.64 2498.35,1439.32 2496.95,1440.86C2495.43,1442.55 2491.35,1444.55 2488.03,1444.42C2484.72,1444.29 2482.14,1441.5 2482.27,1438.19C2482.36,1435.88 2483.74,1433.92 2485.7,1433Z" style="fill:rgb(130,130,130);"/>
    <path d="M2493.3,1422.13C2493.3,1421.47 2493.29,1420.64 2493.23,1420.03C2492.93,1417.02 2492.21,1414.11 2492.21,1414.11C2491.49,1411.22 2492.99,1408.24 2495.75,1407.11C2498.5,1405.97 2501.67,1407.03 2503.19,1409.59C2503.19,1409.59 2503.72,1410.51 2504.39,1411.75C2505.8,1409.06 2508.58,1408.6 2509.22,1408.55C2510.57,1408.44 2513.31,1408.55 2515.1,1411.75C2515.44,1412.37 2516.08,1414.13 2516.6,1416.53L2516.67,1416.86C2518.56,1417.2 2520.47,1418.19 2522.15,1420.06L2522.34,1420L2522.5,1419.97L2522.58,1419.88L2522.79,1419.69L2523.01,1419.5L2523.24,1419.32L2523.47,1419.15L2523.71,1419L2523.97,1418.85L2524.22,1418.72L2524.49,1418.6L2524.76,1418.49L2525.04,1418.4L2525.33,1418.32L2525.62,1418.25L2525.91,1418.2L2526.21,1418.16L2526.52,1418.14L2526.83,1418.13L2527.13,1418.14L2527.44,1418.16L2527.74,1418.2L2528.03,1418.25L2528.33,1418.32L2528.61,1418.4L2528.89,1418.49L2529.16,1418.6L2529.43,1418.72L2529.68,1418.85L2529.94,1419L2530.18,1419.15L2530.41,1419.32L2530.64,1419.5L2530.86,1419.69L2531.07,1419.88L2531.27,1420.09L2531.45,1420.31L2531.63,1420.54L2531.8,1420.77L2531.96,1421.02L2532.1,1421.27L2532.23,1421.53L2532.35,1421.79L2532.46,1422.07L2532.55,1422.34L2532.64,1422.63L2532.7,1422.92L2532.76,1423.21L2532.79,1423.52L2532.82,1423.82C2532.82,1423.92 2532.83,1424.02 2532.83,1424.13L2532.83,1443.38C2534.54,1447.16 2536.55,1451.71 2538,1455.39C2539.42,1458.96 2540.27,1461.92 2540.36,1463.23C2540.56,1465.97 2539.37,1467.6 2538.52,1468.44C2537.63,1469.32 2536.59,1469.92 2535.34,1470.14C2537.11,1480.97 2538.62,1491.7 2538.58,1501.59C2538.56,1507.21 2534.61,1508.33 2533.47,1508.55C2531.96,1508.84 2529.68,1508.8 2527.64,1506.5C2527.18,1505.98 2526.41,1504.81 2525.71,1503.07C2524.33,1499.62 2522.2,1492.33 2521.13,1489.13C2521,1488.72 2520.87,1488.31 2520.76,1487.89C2520.09,1488.24 2519.47,1488.39 2519.1,1488.47C2517.59,1488.77 2515.43,1488.72 2513.4,1486.65C2513.2,1486.44 2512.95,1486.13 2512.67,1485.73L2512.67,1490.1L2512.66,1490.41L2512.64,1490.71L2512.6,1491.01L2512.55,1491.31L2512.48,1491.6L2512.4,1491.88L2512.3,1492.16L2512.2,1492.43L2512.08,1492.7L2511.95,1492.96C2511.9,1493.04 2511.85,1493.12 2511.8,1493.21L2511.64,1493.45L2511.48,1493.69L2511.3,1493.91L2511.11,1494.13L2510.91,1494.34L2510.7,1494.54L2510.49,1494.73L2510.26,1494.9L2510.02,1495.07L2509.78,1495.23L2509.53,1495.37L2509.27,1495.51L2509.01,1495.62L2508.73,1495.73L2508.45,1495.83L2508.17,1495.91L2507.88,1495.98L2507.58,1496.03L2507.28,1496.07L2506.98,1496.09L2506.67,1496.1L2506.36,1496.09L2506.06,1496.07L2505.76,1496.03L2505.46,1495.98L2505.17,1495.91L2504.89,1495.83L2504.61,1495.73L2504.33,1495.62L2504.07,1495.51L2503.81,1495.37L2503.56,1495.23L2503.32,1495.07L2503.08,1494.9L2502.85,1494.73L2502.64,1494.54L2502.43,1494.34L2502.23,1494.13L2502.04,1493.91L2501.86,1493.69L2501.69,1493.45L2501.54,1493.21L2501.39,1492.96L2501.26,1492.7L2501.14,1492.43L2501.03,1492.16L2500.94,1491.88L2500.86,1491.6L2500.79,1491.31L2500.74,1491.01L2500.7,1490.71L2500.68,1490.41L2500.67,1490.1L2500.67,1481.49L2500.67,1481.27C2499.84,1479.98 2499.02,1478.03 2498.53,1475.46C2496.96,1467.22 2497.34,1449.42 2497.62,1439.42C2497.53,1437.23 2497.42,1435.04 2497.26,1432.95C2497.05,1432.96 2496.85,1432.95 2496.64,1432.95C2493.33,1432.82 2490.74,1430.03 2490.87,1426.72C2490.94,1424.83 2491.89,1423.17 2493.3,1422.13ZM2533.36,1458.29C2533.69,1458.25 2534.02,1458.23 2534.36,1458.24C2534.01,1458.23 2533.68,1458.25 2533.36,1458.29L2533.36,1458.29Z" style="fill:rgb(130,130,130);"/>
    <path d="M2709.9,684.13L2708.33,691.173C2707.66,694.159 2704.85,696.166 2701.81,695.831C2700.37,695.672 2699.1,695.012 2698.15,694.034C2696.77,695.472 2695.3,695.786 2694.22,695.856C2692.53,695.966 2690.95,695.473 2689.59,694.109C2688.39,692.909 2687.41,691.216 2686.92,688.969C2686.32,686.227 2686.48,682.128 2687.33,677.344C2688.64,669.949 2691.49,660.526 2693.71,652.705C2690.85,652.195 2688.7,649.658 2688.77,646.66C2688.84,643.675 2691.09,641.247 2693.95,640.855C2694.29,640.101 2695.17,638.049 2695.48,636.577C2696.09,633.704 2696.36,630.516 2696.47,627.801L2696.47,621.03C2696.47,617.773 2699.07,615.111 2702.32,615.032C2705.58,614.952 2708.3,617.485 2708.46,620.738C2708.46,620.738 2708.56,623.076 2708.47,626.418L2708.47,635.881C2708.58,635.62 2708.71,635.37 2708.85,635.13C2708.89,633.986 2709.25,632.839 2709.97,631.839C2710.37,631.277 2710.77,630.677 2711.01,630.296C2710.95,629.565 2710.87,628.201 2710.87,626.766C2710.87,619.977 2717.54,620.024 2717.91,620.085C2718.53,620.189 2722.07,620.783 2722.86,625.047C2723.11,626.411 2723.59,636.102 2722.69,639.694C2720.35,649.036 2720.02,658.179 2719.99,667.811L2719.99,684.13L2709.9,684.13Z" style="fill:rgb(130,130,130);"/>
    <path d="M1652.99,683.164C1667.33,672.468 1678.99,670.291 1687.62,672.802C1694.21,674.721 1699.47,679.31 1703.22,685.891C1708.06,694.392 1710.34,706.464 1709.88,719.424C1709.25,736.878 1703.71,755.909 1693.73,769.442C1683,784.013 1667.34,792.464 1647.24,787.46C1639.23,785.466 1632.83,780.509 1628.05,773.593C1621.58,764.221 1618.16,751.079 1617.78,737.667C1617.42,724.449 1619.98,711.017 1625.07,700.868C1628.83,693.351 1634,687.585 1640.23,684.485C1641.75,683.728 1644.13,683.189 1646.83,683.044C1648.82,682.938 1651.02,683.013 1652.99,683.164ZM1645.36,695.338C1641.36,697.414 1638.24,701.368 1635.8,706.241C1631.51,714.808 1629.47,726.174 1629.78,737.333C1630.04,746.556 1631.9,755.66 1635.62,762.909C1638.89,769.271 1643.59,774.185 1650.14,775.816C1664.86,779.48 1676.21,772.994 1684.07,762.323C1692.7,750.614 1697.35,734.097 1697.88,718.996C1698.2,710.158 1697.12,701.797 1694.43,695.234C1692.23,689.856 1689.03,685.709 1684.27,684.324C1678.75,682.72 1671.92,684.576 1663.4,690.397C1663.31,691.638 1662.77,692.838 1661.67,693.968C1661.43,694.216 1659.97,695.942 1656.32,695.819C1655.78,696.27 1655.24,696.735 1654.69,697.213C1652.19,699.389 1648.4,699.129 1646.22,696.632C1645.87,696.231 1645.58,695.796 1645.36,695.338Z"/>
    <path d="M2840.3,678.134C2840.84,677.686 2843.25,675.671 2844.93,673.714C2852.78,664.605 2863.1,647.599 2870.3,636.012C2874.9,628.61 2878.62,623.262 2879.9,622.235C2881.49,620.958 2882.98,620.766 2883.95,620.766C2886.34,620.766 2887.99,621.591 2889.19,622.629C2890.88,624.094 2892,626.357 2891.75,629.467C2891.61,631.222 2890.88,633.585 2889.84,636.039C2888.78,638.52 2887.37,641.179 2886.76,643.005C2884.34,650.273 2886.51,661.878 2886.43,672.053C2886.36,680.997 2884.63,688.962 2879.79,693.987C2877.49,696.371 2873.69,696.44 2871.3,694.141C2868.92,691.842 2868.85,688.041 2871.15,685.657C2872.8,683.949 2873.5,681.514 2873.94,678.795C2874.53,675.12 2874.49,670.962 2874.33,666.727C2874.15,662.086 2873.87,657.369 2873.84,652.948C2866.82,664.122 2858.67,676.615 2852.43,683.327C2849.82,686.138 2847.38,688.072 2845.41,689.027C2843.79,689.812 2842.28,690.108 2840.95,690.085C2837.64,690.027 2834.99,687.293 2835.05,683.982C2835.1,680.962 2837.38,678.5 2840.3,678.134Z"/>
    <path d="M2832.34,707.294C2840.07,707.429 2850.23,704.564 2860.63,701.503C2869.82,698.797 2879.24,695.939 2887.03,695.821C2890.34,695.771 2892.99,693.043 2892.94,689.731C2892.89,686.42 2890.16,683.773 2886.85,683.823C2878.12,683.954 2867.54,686.96 2857.24,689.991C2848.14,692.668 2839.31,695.414 2832.55,695.296C2829.24,695.238 2826.51,697.879 2826.45,701.19C2826.39,704.501 2829.03,707.236 2832.34,707.294Z"/>
    <path d="M2938.11,644.345C2936.36,648.76 2932.66,655.473 2930.73,662.035C2929.45,666.405 2928.42,670.898 2932.72,673.032C2935,674.167 2938.12,674.006 2941.63,673.36C2948.48,672.097 2956.47,668.555 2963.74,664.001C2970.96,659.477 2977.5,653.951 2981.36,648.453C2983.23,645.782 2984.56,643.25 2984.33,640.882C2984.13,638.851 2982.36,637.465 2979.45,636.185C2974.45,633.991 2966.76,632.792 2955.74,632.721C2952.43,632.7 2949.76,629.995 2949.78,626.683C2949.8,623.372 2952.51,620.7 2955.82,620.722C2972.01,620.825 2982.23,623.489 2988.04,627.188C2993.4,630.602 2995.8,634.987 2996.27,639.706C2996.74,644.495 2994.97,649.945 2991.18,655.348C2986.54,661.959 2978.79,668.732 2970.11,674.17C2961.48,679.578 2951.94,683.662 2943.81,685.161C2937.32,686.356 2931.59,685.875 2927.37,683.778C2918.89,679.56 2916.77,672.175 2918.05,663.791C2919.41,654.896 2925.4,644.658 2927.22,639.214C2927.83,637.387 2929.27,635.566 2931.53,634.201C2932.74,633.47 2934.85,632.61 2936.44,632.009C2938.09,629.516 2941.38,628.589 2944.12,629.959C2947.24,631.521 2947.82,633.793 2947.97,635.264C2948.14,636.946 2947.74,638.793 2946.07,640.458C2945.42,641.1 2944.13,641.966 2942.32,642.658C2941.27,643.059 2939.07,643.951 2938.11,644.345ZM2938.49,640.553C2938.58,640.601 2938.66,640.647 2938.76,640.693L2938.49,640.553ZM2937.76,640.069C2937.97,640.233 2938.2,640.39 2938.47,640.537L2938.22,640.391C2938.14,640.335 2938.05,640.278 2937.97,640.222L2937.76,640.069Z"/>
    <path d="M1690.79,1072.83C1691.41,1070.08 1693.92,1068.07 1696.84,1068.16C1700.01,1068.27 1701.48,1069.87 1702.27,1071.05C1703.22,1072.48 1703.68,1074.24 1703.08,1076.35C1702.84,1077.2 1702.28,1078.38 1701.2,1079.58L1701.12,1079.67C1713.29,1080.12 1720.78,1084.63 1725.01,1090.46C1731.64,1099.6 1730.41,1113.07 1724.33,1123.52C1717.26,1135.68 1704.23,1142.97 1692.08,1136.93C1684.04,1132.93 1680.06,1124.14 1679.36,1113.72C1678.48,1100.48 1682.75,1084.72 1686.5,1077.24C1686.74,1076.76 1687.32,1075.85 1688.4,1074.88C1688.88,1074.44 1689.91,1073.57 1690.79,1072.83ZM1694.65,1089.16C1692.49,1095.91 1690.81,1104.96 1691.34,1112.92C1691.72,1118.67 1692.99,1123.98 1697.42,1126.19C1703.92,1129.42 1710.17,1123.99 1713.96,1117.49C1717.64,1111.16 1719.31,1103.04 1715.29,1097.5C1712.6,1093.79 1707.45,1091.7 1699.45,1091.63C1697.48,1091.62 1695.73,1090.64 1694.65,1089.16ZM1695.98,1080.13L1696.05,1080.13L1695.9,1080.12L1695.98,1080.13ZM1695.57,1080.07L1695.66,1080.08L1695.54,1080.06L1695.57,1080.07Z"/>
    <path d="M2908.78,1048.12C2905.55,1053.92 2900.91,1057.3 2895.45,1057.21C2892.14,1057.16 2889.49,1054.43 2889.55,1051.12C2889.6,1047.81 2892.33,1045.16 2895.64,1045.22C2896.41,1045.23 2896.83,1044.52 2897.33,1043.84C2898.73,1041.96 2899.74,1039.34 2900.58,1036.5C2903.54,1026.44 2903.87,1013.81 2903.87,1013.81C2903.94,1011.07 2905.86,1008.74 2908.53,1008.12C2911.2,1007.51 2913.94,1008.79 2915.2,1011.22C2915.2,1011.22 2918.74,1018.61 2918.74,1022.58C2918.74,1045.72 2924.67,1063.76 2924.49,1085.68C2924.47,1088.99 2921.76,1091.66 2918.45,1091.63C2915.13,1091.61 2912.47,1088.9 2912.49,1085.59C2912.6,1072.34 2910.47,1060.52 2908.78,1048.12Z"/>
    <path d="M2886.85,1091.63C2903.53,1091.9 2917.91,1086.26 2935.82,1085.9C2939.13,1085.83 2941.77,1083.09 2941.7,1079.78C2941.63,1076.47 2938.89,1073.83 2935.58,1073.9C2917.83,1074.26 2903.57,1079.9 2887.04,1079.63C2883.73,1079.58 2881,1082.23 2880.94,1085.54C2880.89,1088.85 2883.53,1091.58 2886.85,1091.63Z"/>
    <path d="M2980.24,1018.2C2979.75,1017.71 2979.34,1017.13 2979.03,1016.47C2977.62,1013.47 2978.92,1009.9 2981.92,1008.49C2994.8,1002.48 3005.86,1003.18 3014.22,1007.49C3026.86,1014.01 3033.76,1029.26 3031.32,1045.12C3028.78,1061.64 3016.18,1079.03 2989.09,1085.78C2981.53,1087.66 2976.26,1086.44 2972.64,1083.95C2967.34,1080.29 2964.99,1073.05 2965.42,1064.48C2965.97,1053.3 2970.81,1039.82 2973.61,1034.24C2974.21,1033.05 2974.93,1031.32 2975.7,1029.39C2975.56,1028.66 2975.55,1027.88 2975.71,1027.09C2976.02,1025.56 2976.88,1024.28 2978.05,1023.43C2978.84,1021.44 2979.6,1019.58 2980.24,1018.2ZM2987.94,1030.93C2986.63,1034.27 2985.32,1037.66 2984.33,1039.62C2981.98,1044.32 2977.87,1055.66 2977.4,1065.07C2977.29,1067.43 2977.39,1069.66 2977.94,1071.54C2978.24,1072.58 2978.64,1073.51 2979.45,1074.07C2980.93,1075.08 2983.11,1074.9 2986.19,1074.13C3002.07,1070.18 3011.87,1061.91 3016.54,1052.47C3022.57,1040.29 3020.05,1026.31 3011.19,1019.7C3006.65,1016.32 3000.53,1015.15 2993.27,1017.06C2993.48,1017.79 2993.62,1018.66 2993.62,1019.7C2993.62,1020.06 2993.55,1021.32 2992.79,1022.99C2991.96,1024.84 2989.81,1028.66 2987.94,1030.93Z"/>
    <path d="M1739.4,1455.38C1739.48,1453.58 1740.36,1451.83 1741.95,1450.72C1749.75,1445.26 1756.95,1444.2 1763.08,1445.68C1772.02,1447.85 1779.12,1455.89 1782.5,1466.28C1787.82,1482.63 1783.77,1504.08 1766.53,1512.67C1759.99,1515.92 1754.68,1515.84 1750.37,1514.15C1746.18,1512.5 1742.78,1509.13 1740.17,1504.76C1736.19,1498.08 1734.09,1488.86 1732.26,1483.38C1729.25,1474.4 1732.52,1464.42 1733.66,1461.41L1733.66,1461.19C1733.75,1458.03 1736.29,1455.51 1739.4,1455.38ZM1745.88,1461.61C1745.88,1462.35 1745.66,1463.71 1744.97,1465.5C1744,1468.01 1741.54,1473.31 1743.63,1479.58C1745.26,1484.43 1746.95,1492.68 1750.48,1498.61C1751.63,1500.54 1752.91,1502.25 1754.76,1502.98C1756.49,1503.66 1758.56,1503.23 1761.18,1501.92C1772.93,1496.07 1774.71,1481.14 1771.09,1469.99C1769.1,1463.88 1765.51,1458.62 1760.25,1457.35C1756.91,1456.54 1753.09,1457.57 1748.84,1460.55C1747.93,1461.18 1746.91,1461.53 1745.88,1461.61ZM1735.87,1466.02C1736.69,1466.76 1737.75,1467.25 1739.14,1467.35C1737.9,1467.24 1736.77,1466.76 1735.87,1466.02Z"/>
    <path d="M2930.64,1432.35C2932.38,1428.12 2938.3,1410.6 2942.43,1403.7C2943.68,1401.6 2944.99,1400.19 2946,1399.46C2947.47,1398.4 2948.92,1398.06 2950.19,1398.06C2953.5,1398.06 2956.19,1400.75 2956.19,1404.06L2956.19,1421.27C2956.19,1436.03 2955.2,1449.43 2961.31,1461.6C2961.76,1462.51 2964.12,1467.23 2964.38,1468.1C2965.05,1470.28 2964.42,1471.76 2964.18,1472.32C2963.46,1474.02 2962.26,1474.99 2960.89,1475.54C2959.81,1475.98 2958.47,1476.2 2956.86,1475.7C2954.87,1475.08 2953.43,1473.52 2952.89,1471.65L2950.59,1466.99C2944.92,1455.7 2944.24,1443.54 2944.18,1430.34C2943.07,1433.38 2942.17,1435.86 2941.67,1437.07C2940.43,1440.02 2938.43,1440.92 2938.04,1441.09C2935.92,1441.98 2934.09,1441.62 2932.52,1440.64C2929.71,1438.89 2928.86,1435.18 2930.61,1432.38L2930.64,1432.35ZM2953.08,1467.73L2953.08,1467.74L2953.09,1467.72L2953.08,1467.73ZM2954.06,1466.1C2953.72,1466.5 2953.4,1466.98 2953.16,1467.56C2953.39,1467.02 2953.7,1466.53 2954.06,1466.1ZM2954.2,1465.94L2954.16,1465.99L2954.2,1465.94L2954.2,1465.94ZM2960.11,1464.15C2958.11,1463.63 2956.54,1464.13 2955.31,1464.99C2956.68,1464.08 2958.41,1463.73 2960.11,1464.15ZM2934.03,1429.8C2935.61,1429.34 2937.38,1429.53 2938.88,1430.47C2937.48,1429.59 2935.87,1429.22 2934.03,1429.8Z"/>
    <path d="M2937.65,1464.3C2938.49,1464.23 2941.88,1463.89 2944.7,1463.33C2956.94,1460.89 2975.92,1455.49 2981.46,1455.37C2984.78,1455.3 2987.52,1457.93 2987.59,1461.24C2987.66,1464.55 2985.03,1467.3 2981.72,1467.37C2975.66,1467.5 2952.89,1474.45 2942.06,1475.97C2937.28,1476.64 2933.87,1475.9 2932.52,1475.06C2929.71,1473.31 2928.86,1469.6 2930.61,1466.8C2932.12,1464.38 2935.07,1463.41 2937.65,1464.3Z"/>
    <path d="M3016.98,1456.13C3017.68,1456.14 3018.69,1456.14 3019.47,1456.1C3022.95,1455.91 3026.71,1455.43 3027.95,1455.43C3048.13,1455.43 3055.96,1435.59 3054.93,1417.5C3053.94,1399.9 3044.53,1382.44 3026.48,1386.94C3023.92,1387.58 3021.56,1389.31 3019.36,1391.38C3015.33,1395.17 3011.98,1400.18 3009.76,1404.1C3008.12,1406.98 3004.45,1407.99 3001.58,1406.36C2998.7,1404.72 2997.69,1401.05 2999.32,1398.17C3002.05,1393.37 3006.2,1387.28 3011.14,1382.63C3014.92,1379.08 3019.18,1376.39 3023.58,1375.29C3049.52,1368.83 3065.48,1391.52 3066.91,1416.83C3068.32,1441.64 3055.64,1467.43 3027.95,1467.43C3026.09,1467.43 3018.6,1468.47 3014.78,1468.02C3012.13,1467.71 3010.3,1466.65 3009.32,1465.68C3005.59,1461.98 3003.78,1455.79 3003.73,1448.79C3003.68,1440.3 3006,1430.59 3007.83,1425.1C3007.91,1424.87 3009.43,1421.41 3010.18,1419.74C3010.01,1419.03 3009.96,1418.28 3010.07,1417.52C3010.52,1414.24 3013.56,1411.95 3016.84,1412.4C3018.74,1412.67 3020.12,1413.58 3021.14,1414.89C3021.95,1415.94 3022.62,1417.48 3022.55,1419.53C3022.46,1421.84 3019.68,1427.98 3019.13,1429.18C3017.6,1433.82 3015.69,1441.75 3015.73,1448.72C3015.75,1451.56 3015.89,1454.26 3016.98,1456.13ZM3014.08,1424.03C3014.33,1424.12 3014.6,1424.19 3014.88,1424.24L3014.58,1424.17C3014.49,1424.15 3014.39,1424.12 3014.29,1424.1L3014.08,1424.03ZM3013.96,1423.99L3013.98,1423.99L3013.91,1423.97L3013.96,1423.99Z"/>
    <path d="M1336.93,1111.3C1337.58,1110.78 1340.3,1108.56 1341.92,1106.95C1344.72,1104.17 1347.33,1101.52 1348.36,1100.83C1350.33,1099.52 1352.04,1099.61 1352.96,1099.76C1355.01,1100.08 1356.51,1101.16 1357.45,1103.04C1380.77,1149.31 1388.83,1233.37 1363.48,1280.64C1361.91,1283.56 1358.27,1284.66 1355.35,1283.09C1352.43,1281.53 1351.34,1277.89 1352.9,1274.97C1375.4,1233.02 1369.38,1160.21 1350.14,1115.73C1348.68,1117.14 1347.14,1118.58 1345.87,1119.63C1342.86,1122.1 1339.86,1123.2 1338.06,1123.18C1334.74,1123.15 1332.08,1120.44 1332.11,1117.13C1332.14,1114.24 1334.2,1111.85 1336.93,1111.3Z"/>
    <path d="M1398.29,1037.14C1398.9,1037.14 1399.48,1037.56 1400.15,1038.03C1401.61,1039.02 1403.12,1040.52 1404.71,1042.38C1410.43,1049.11 1416.7,1060.25 1423.17,1073.79C1449.08,1128.02 1477.2,1220.11 1478.58,1232.6C1483.57,1277.91 1479.78,1325.47 1461.67,1367.2C1460.36,1370.24 1461.75,1373.77 1464.79,1375.09C1467.83,1376.41 1471.37,1375.01 1472.68,1371.98C1491.61,1328.35 1495.73,1278.65 1490.51,1231.29C1488.9,1216.65 1451.67,1095.33 1422.7,1047.28C1418.01,1039.5 1413.45,1033.55 1409.32,1029.98C1405.48,1026.65 1401.72,1025.17 1398.39,1025.14C1395.08,1025.11 1392.37,1027.78 1392.34,1031.09C1392.32,1034.4 1394.98,1037.11 1398.29,1037.14Z"/>
    <path d="M613.71,1101.73C614.814,1100.48 616.426,1099.7 618.216,1099.71C621.191,1099.73 622.636,1101.35 623.441,1102.78C623.821,1103.46 625.634,1107 622.189,1110.26C621.067,1111.32 613.296,1116.9 608.207,1123.67C599.038,1135.86 594.538,1163.4 592.067,1178.4C582.224,1238.14 587.936,1296.78 609.454,1353.11C610.635,1356.2 609.083,1359.67 605.99,1360.85C602.896,1362.03 599.425,1360.48 598.244,1357.39C575.959,1299.05 570.032,1238.33 580.226,1176.45C582.944,1159.96 588.533,1129.87 598.616,1116.46C603.719,1109.67 612.196,1102.91 613.71,1101.73ZM613.958,1109.96C614.769,1110.81 615.965,1111.61 617.819,1111.7C616.315,1111.61 614.961,1110.96 613.958,1109.96ZM612.655,1108.03L612.667,1108.06L612.653,1108.03L612.655,1108.03ZM612.372,1107.18C612.442,1107.47 612.534,1107.74 612.643,1108L612.545,1107.75C612.514,1107.66 612.483,1107.56 612.452,1107.47L612.372,1107.18Z"/>
    <path d="M580.582,1011.72C581.513,1011.13 582.618,1010.79 583.8,1010.8C588.445,1010.82 590.067,1013.09 590.275,1013.37C591.869,1015.55 592.013,1017.83 590.452,1020.22C590.067,1020.81 589.42,1021.62 588.206,1022.26C587.77,1022.49 585.068,1023.18 581.724,1023.67C579.29,1024.03 575.146,1024.88 574.481,1025.02C558.794,1034.47 552.914,1045.29 541.768,1059.18C513.714,1094.14 505.568,1138.69 496.986,1181.48C470.969,1311.18 499.068,1465.45 560.398,1581.91C561.941,1584.84 560.815,1588.47 557.885,1590.01C554.955,1591.56 551.323,1590.43 549.78,1587.5C487.235,1468.73 458.687,1311.39 485.221,1179.12C494.175,1134.47 503.134,1088.15 532.409,1051.67C544.626,1036.44 551.305,1024.87 568.641,1014.52C569.513,1014 571.316,1013.35 573.595,1012.88C575.712,1012.44 578.417,1012.04 580.582,1011.72Z"/>
    <path d="M979.495,645.364C978.772,642.445 980.342,639.381 983.228,638.307C986.331,637.152 989.789,638.735 990.944,641.838C991.828,644.214 992.424,645.255 992.49,645.634C992.714,646.923 992.519,647.978 992.189,648.855C991.852,649.748 990.573,652.91 985.195,652.798C981.884,652.729 979.253,649.985 979.322,646.674C979.331,646.223 979.39,645.785 979.495,645.364Z"/>
    <path d="M977.572,692.07C977.556,689.589 977.51,681.644 977.516,675.497C977.527,664.668 980.451,643.14 980.451,643.14C980.886,639.959 983.748,637.684 986.946,637.978C990.143,638.272 992.542,641.032 992.389,644.239C992.389,644.239 991.977,652.474 991.217,656.513C991.121,657.023 990.963,657.505 990.753,657.953C990.111,663.978 989.521,670.805 989.516,675.509C989.508,684.255 990.002,692.96 989.135,696.069C987.908,700.467 984.864,701.61 982.326,701.557C979.015,701.487 976.384,698.743 976.453,695.432C976.48,694.177 976.891,693.019 977.572,692.07ZM982.16,689.566L982.127,689.569L982.188,689.566L982.16,689.566Z"/>
    <path d="M994.927,473.619C995.539,470.118 998.166,469.483 1000.79,470.041C1003.42,469.483 1006.05,470.117 1006.66,473.619C1006.75,473.799 1006.79,473.97 1006.79,474.126L1006.79,509.147C1006.79,525.152 1004.02,539.596 1002.77,555.484C1002.67,556.876 1002.09,558.121 1001.21,559.074C997.176,594.342 992.43,629.389 992.396,664.036C992.393,666.728 989.964,683.186 988.229,686.431C986.524,689.62 983.89,690.117 982.326,690.084C979.015,690.015 976.384,687.27 976.453,683.959C976.482,682.594 976.966,681.345 977.757,680.353C977.928,679.716 978.25,678.461 978.472,677.372C979.474,672.458 980.394,665.534 980.396,664.025C980.455,603.72 994.793,542.203 994.793,480.465L994.793,474.126C994.793,473.97 994.839,473.799 994.927,473.619Z"/>
    <path d="M931.073,431.241C930.724,430.455 930.539,429.58 930.563,428.663C930.646,425.353 933.402,422.733 936.713,422.817C937.282,422.831 940.929,422.991 942.358,427.122C942.826,428.475 944.248,435.367 945.323,436.973C968.735,471.956 1003.98,481.197 1046.38,477.358C1052.88,476.769 1109.71,466.952 1133.15,451.024C1135.68,449.308 1137.77,447.544 1139.23,445.668C1140.18,444.439 1140.85,443.211 1140.91,441.886C1140.98,439.941 1139.76,438.073 1137.64,435.957C1131.98,430.321 1127.78,432.054 1120.04,431.946C1116.73,431.9 1114.08,429.174 1114.13,425.863C1114.17,422.552 1116.9,419.901 1120.21,419.947C1131.77,420.109 1137.65,419.035 1146.11,427.455C1151.25,432.578 1153.09,437.662 1152.9,442.371C1152.63,448.904 1148.05,455.408 1139.89,460.95C1114.9,477.933 1054.39,488.681 1047.46,489.309C1000.3,493.579 961.393,482.56 935.35,443.647C934.07,441.735 931.484,432.695 931.073,431.241Z"/>
    <path d="M778.349,443.402C834.113,447.692 892.947,427.37 947.287,417.532C1084.56,392.68 1240.64,352.114 1379.72,385.886C1382.93,386.667 1386.18,384.689 1386.96,381.471C1387.75,378.253 1385.77,375.006 1382.55,374.225C1241.89,340.068 1083.99,380.588 945.15,405.724C891.778,415.387 834.039,435.65 779.269,431.437C775.968,431.183 773.081,433.658 772.827,436.959C772.573,440.261 775.047,443.148 778.349,443.402Z"/>
    <path d="M1383.82,405.3C1382.04,404.247 1380.85,402.299 1380.87,400.082C1380.9,396.771 1383.61,394.105 1386.92,394.133C1392.61,394.181 1394.08,396.386 1394.74,397.546C1395.16,398.268 1395.47,399.106 1395.58,400.129C1395.63,400.581 1395.55,401.277 1395.52,402.348C1396.12,402.913 1398.3,404.949 1399.91,406.019C1404.08,408.781 1408.43,411.225 1409.56,412.433C1412.11,415.16 1411.63,417.854 1410.85,419.55C1410.33,420.695 1408.75,423.381 1404.03,423.342C1401.41,423.32 1399.2,421.626 1398.4,419.283C1395.55,417.549 1391.02,414.667 1388.5,412.393C1386.03,410.163 1384.45,407.677 1383.82,405.3Z"/>
</svg>
