<?xml version="1.0" encoding="UTF-8" standalone="no"?>
<!DOCTYPE svg PUBLIC "-//W3C//DTD SVG 1.1//EN" "http://www.w3.org/Graphics/SVG/1.1/DTD/svg11.dtd">
<svg width="100%" height="100%" viewBox="0 0 3508 2481" version="1.1" xmlns="http://www.w3.org/2000/svg" xmlns:xlink="http://www.w3.org/1999/xlink" xml:space="preserve" xmlns:serif="http://www.serif.com/" style="fill-rule:evenodd;clip-rule:evenodd;stroke-linejoin:round;stroke-miterlimit:2;">
    <g transform="matrix(1.52834,0,0,1.30247,180.423,-378.549)">
        <path d="M706.065,640.055C706.052,639.903 706.046,639.749 706.046,639.593C706.055,637.051 707.82,634.994 709.987,635.004C711.669,635.011 712.725,635.894 713.427,636.986C714.047,637.948 714.633,639.541 714.071,641.8C713.621,643.615 711.315,647.747 707.984,652.62C701.242,662.484 690.38,676.425 687.891,679.739C671.977,700.93 664.085,740.339 661.733,766.31C659.293,793.258 669.184,817.209 685.742,836.01C711.181,864.894 752.254,881.735 790.105,878.834C864.585,873.125 915.851,835.645 940.307,791.42C956.22,762.646 960.7,731.084 952.47,704.062C938.537,658.317 888.838,626.558 799.433,641.304C797.288,641.658 795.301,639.901 794.999,637.383C794.698,634.866 796.195,632.534 798.34,632.18C893.104,616.551 945.096,652.475 959.863,700.961C968.853,730.476 964.274,765.007 946.894,796.435C921.412,842.513 868.217,882.08 790.616,888.027C750.588,891.095 707.185,873.177 680.282,842.631C661.946,821.811 651.223,795.178 653.925,765.336C656.42,737.789 665.12,696.125 682,673.648C684.459,670.373 695.197,656.603 701.859,646.856C703.611,644.293 705.28,641.433 706.065,640.055ZM709.705,644.207L709.735,644.208L709.624,644.198L709.705,644.207ZM709.465,644.18L709.524,644.186L709.399,644.167L709.465,644.18ZM709.237,644.136L709.302,644.149L709.209,644.129L709.237,644.136Z"/>
    </g>
    <g transform="matrix(1.52834,0,0,1.30247,180.423,-378.549)">
        <path d="M806.74,905.266C806.439,904.429 806.347,903.48 806.52,902.526C806.971,900.039 809.058,898.45 811.178,898.98C812.022,899.191 813.927,900.065 814.447,903.203C814.957,906.273 814.377,919.679 814.365,922.95C834.475,1023.64 817.254,1131.19 817.254,1233.35C817.254,1237.9 818.028,1336.38 817.667,1356.34C817.616,1359.11 817.426,1360.77 817.341,1361.09C816.62,1363.78 814.871,1364.19 814.115,1364.31C813.347,1364.44 812.568,1364.32 811.793,1363.86C811.308,1363.57 810.331,1362.94 809.826,1361.17C809.723,1360.81 809.465,1358.56 809.305,1353.98C809.272,1353.04 809.483,1352.15 809.872,1351.4C810.082,1324.02 809.403,1237.6 809.403,1233.35C809.403,1131.74 826.743,1024.77 806.639,924.642C806.575,924.323 806.509,922.28 806.596,919.462C806.727,915.266 806.739,906.951 806.74,905.266ZM809.31,907.925L809.33,907.931L809.242,907.9L809.31,907.925ZM809.079,907.841L809.122,907.857L809.022,907.816L809.079,907.841ZM808.849,907.739L808.905,907.763L808.82,907.723L808.849,907.739Z"/>
    </g>
    <g transform="matrix(1.52834,0,0,1.30247,180.423,-378.549)">
        <path d="M812.229,1019.01C812.153,1018.5 812.148,1017.97 812.226,1017.44C812.59,1014.93 814.62,1013.25 816.756,1013.67C817.115,1013.75 819.681,1014.35 820.027,1017.84C820.121,1018.8 820.194,1023.12 820.135,1024.12C820.06,1025.37 819.692,1026.09 819.579,1026.31C803.168,1059.01 795.792,1099.25 776.208,1132.69C749.384,1178.5 722.098,1223.57 692.569,1267.73C687.562,1275.22 681.619,1292.45 681.619,1292.45C680.826,1294.73 678.645,1295.87 676.668,1295.05C674.691,1294.22 673.618,1291.71 674.23,1289.36C674.23,1289.36 675.247,1285.45 675.535,1281.35C675.674,1279.36 675.817,1277.27 675.106,1275.95C673.946,1273.8 674.49,1270.95 676.32,1269.59C678.108,1268.26 680.466,1268.84 681.655,1270.87C683.206,1267.53 684.844,1264.36 686.392,1262.05C715.818,1218.04 743.006,1173.12 769.736,1127.48C789.004,1094.57 796.332,1055.02 812.289,1022.69L812.229,1019.01Z"/>
    </g>
    <g transform="matrix(1.52834,0,0,1.30247,180.423,-378.549)">
        <path d="M821.052,1005.1C821.44,1004.44 822.406,1002.8 822.863,1002.04C823.515,1000.95 824.199,1000.17 824.76,999.738C826.007,998.782 827.239,998.669 828.365,999.025C829.271,999.311 830.307,999.945 831.116,1001.55C853.133,1045.24 900.715,1090.01 939.307,1118.87C955.799,1131.2 975.996,1150.93 988.963,1167.09C991.147,1169.82 1006.2,1191.47 1008.48,1195.75C1009.68,1198.01 1009.3,1199.8 1009.18,1200.26C1008.89,1201.33 1008.37,1202.1 1007.7,1202.65C1007.09,1203.16 1006.32,1203.54 1005.31,1203.52C1003.63,1203.47 1002.22,1202.2 1001.7,1200.45C1000.17,1198.16 985.216,1175.86 983.246,1173.41C970.67,1157.74 951.082,1138.6 935.087,1126.64C896.995,1098.15 850.485,1054.38 826.952,1011.18C826.627,1011.64 826.31,1012.05 826.029,1012.34C824.569,1013.85 822.928,1014.45 821.28,1014.17C819.135,1013.81 817.641,1011.48 817.946,1008.96C818.185,1006.98 819.469,1005.47 821.052,1005.1ZM1005.28,1194.31C1004.74,1194.32 1004.26,1194.46 1003.85,1194.68C1004.29,1194.45 1004.77,1194.32 1005.28,1194.31ZM1005.28,1194.31L1005.49,1194.31C1005.42,1194.3 1005.35,1194.3 1005.28,1194.31Z"/>
    </g>
    <g transform="matrix(1.52834,0,0,1.30247,180.423,-378.549)">
        <path d="M798.681,1141.54L797.965,1141.01C796.198,1139.72 794.012,1138.03 793.142,1137.02C792.132,1135.85 791.802,1134.65 791.706,1133.9C791.538,1132.59 791.802,1131.47 792.357,1130.5C792.841,1129.66 793.814,1128.35 795.992,1128.34C797.656,1128.32 799.087,1129.53 799.667,1131.24C801.058,1132.3 803.492,1134.17 804.153,1134.73C806.489,1136.7 806.043,1139.43 805.926,1139.94C805.785,1140.57 804.448,1144.62 800.488,1143.04C799.748,1142.74 799.132,1142.21 798.681,1141.54Z"/>
    </g>
    <g transform="matrix(1.52834,0,0,1.30247,180.423,-378.549)">
        <path d="M852.326,1110.06L852.326,1110.06C852.326,1110.06 852.31,1109.48 852.306,1108.81C852.268,1101.12 853.701,1062.21 887.134,1051.09C888.474,1050.64 892.671,1048.2 895.903,1047.58C898.57,1047.07 900.828,1047.72 902.252,1049.14C904.711,1051.59 906.088,1054.91 906.454,1058.97C906.885,1063.76 905.794,1069.81 903.558,1076.51C898.9,1090.47 889.292,1107.76 881.669,1121.96C876.923,1130.8 872.94,1138.32 871.804,1142.87C871.178,1145.37 872.922,1147.03 874.554,1148.47C877.447,1151.04 880.935,1152.73 882.174,1153.75C884.338,1155.53 884.433,1157.79 884.257,1158.98C884.077,1160.18 883.563,1161.55 882.042,1162.48C881.424,1162.86 879.69,1163.39 876.305,1163.36C874.138,1163.35 872.39,1161.27 872.403,1158.73C872.404,1158.44 872.427,1158.17 872.472,1157.9C870.791,1156.67 869.04,1155.22 867.781,1153.78C864.667,1150.22 862.912,1145.71 864.27,1140.27C865.527,1135.25 869.776,1126.83 875.025,1117.05C882.395,1103.32 891.744,1086.65 896.247,1073.15C897.689,1068.83 898.633,1064.89 898.697,1061.55C898.734,1059.59 898.493,1057.89 897.597,1056.66C897.037,1056.78 895.802,1057.04 895.017,1057.35C892.585,1058.31 890.215,1059.64 889.275,1059.95C861.113,1069.32 860.126,1102.28 860.158,1108.75C860.161,1109.47 860.177,1109.9 860.177,1109.98C860.18,1114.48 856.198,1114.61 855.973,1114.59C853.923,1114.42 852.351,1112.43 852.326,1110.06ZM856.274,1105.39C855.543,1105.38 854.816,1105.6 854.116,1106.13C853.707,1106.44 852.868,1107.1 852.485,1108.7C852.97,1106.76 854.506,1105.38 856.274,1105.39Z"/>
    </g>
    <g transform="matrix(1.52834,0,0,1.30247,180.423,-378.549)">
        <path d="M875.632,1168.3C876.285,1166.64 877.754,1165.53 879.405,1165.63C881.08,1165.73 881.934,1166.63 882.412,1167.26C883.305,1168.43 883.681,1169.85 883.326,1171.56C883.188,1172.23 882.823,1173.26 881.94,1174.24C881.307,1174.94 879.834,1176.02 879.216,1176.63C866.785,1189.01 852.001,1181.92 839.399,1165.7C829.202,1152.58 820.397,1133.68 815.662,1117.33C812.317,1105.79 811.082,1095.41 812.386,1088.89C814.753,1077.05 819.113,1070.24 823.948,1066.89C829.215,1063.24 835.268,1063.38 841.002,1066.34C851.3,1071.66 860.446,1086.5 860.446,1101.41C860.446,1102.37 860.475,1109.59 860.151,1110.99C859.366,1114.4 857.027,1114.68 855.973,1114.59C853.811,1114.41 852.181,1112.21 852.335,1109.67C852.36,1109.26 852.429,1108.87 852.539,1108.5C852.549,1107.33 852.594,1102.03 852.594,1101.41C852.594,1091.85 847.616,1082.37 841.384,1077.16C837.682,1074.07 833.513,1072.42 829.726,1073.87C825.414,1075.52 822.038,1080.95 820.03,1090.99C818.955,1096.37 820.339,1104.85 823.095,1114.37C827.511,1129.61 835.692,1147.25 845.201,1159.49C854.505,1171.46 864.957,1178.75 874.135,1169.61C874.418,1169.33 875.074,1168.77 875.632,1168.3ZM878.776,1174.81L878.779,1174.81L878.752,1174.81L878.776,1174.81ZM853.746,1106.45C854.496,1105.72 855.479,1105.31 856.529,1105.4C855.611,1105.33 854.62,1105.54 853.746,1106.45Z"/>
    </g>
    <g transform="matrix(1.52834,0,0,1.30247,180.423,-378.549)">
        <path d="M815.054,1355.37C813.132,1354.75 811.884,1352.51 812.226,1350.15C812.59,1347.65 814.62,1345.96 816.756,1346.38C817.835,1346.6 819.479,1347.49 821.372,1349.47C824.118,1352.33 828.177,1357.97 833.079,1365.59C860.024,1407.49 914.235,1511.06 920.561,1526.81C922.905,1532.65 937.819,1575.41 945.143,1592.99C946.911,1592.97 948.526,1594.37 948.974,1596.47C949.711,1599.93 949.905,1602.04 949.848,1602.97C949.763,1604.35 949.341,1605.22 948.995,1605.77C947.844,1607.58 946.316,1608.24 944.34,1607.41C943.784,1607.18 942.667,1606.45 941.617,1604.63C936.674,1596.06 916.25,1537.69 913.458,1530.74C907.195,1515.14 853.489,1412.62 826.812,1371.14C821.537,1362.94 815.541,1355.93 815.054,1355.37Z"/>
    </g>
    <g transform="matrix(1.52834,0,0,1.30247,180.423,-378.549)">
        <path d="M803.572,1345.47C803.549,1345.02 803.581,1344.56 803.677,1344.1C804.19,1341.63 806.315,1340.11 808.42,1340.71C810.15,1341.21 811.035,1342.26 811.54,1343.17C812.158,1344.29 812.397,1345.54 812.187,1346.95C812.014,1348.11 811.225,1349.86 809.683,1351.52C808.827,1352.44 807.694,1353.47 806.659,1354.5C806.054,1355.1 805.446,1355.63 805.182,1356.15C798.938,1368.6 795.762,1382.71 790.988,1395.78C777.493,1432.71 762.929,1468.9 747.696,1505C728.105,1551.42 711.114,1606.06 704.893,1655.64C704.63,1657.73 704.25,1660.22 703.805,1662.87C703.935,1664.56 703.917,1666.35 703.768,1668.17C702.988,1677.71 698.831,1688.43 698.831,1688.43C697.988,1690.6 695.881,1691.65 693.967,1690.87C692.054,1690.08 690.964,1687.72 691.451,1685.41C691.451,1685.41 694.114,1672.8 695.903,1662.29C695.757,1661.58 695.532,1660.92 695.21,1660.34C694.027,1658.21 694.541,1655.35 696.357,1653.96C696.636,1653.75 696.931,1653.58 697.232,1653.46C703.649,1603.21 720.823,1547.92 740.66,1500.91C755.829,1464.96 770.333,1428.92 783.772,1392.14C788.676,1378.73 792.003,1364.26 798.417,1351.48C799.019,1350.28 800.203,1348.84 801.586,1347.47C802.167,1346.89 802.931,1346.12 803.572,1345.47Z"/>
    </g>
    <g transform="matrix(1.52834,0,0,1.30247,180.423,-378.549)">
        <path d="M928.031,1056.31C925.755,1058.49 923.638,1058.55 921.903,1057.8C920.033,1056.99 918.082,1054.46 917.16,1050.28C915.585,1043.13 916.365,1030.26 919.843,1023.17C921.933,1018.92 924.939,1016.5 928.505,1016.5C930.646,1016.5 932.358,1017.67 933.544,1019.75C934.575,1021.55 935.149,1024.34 935.015,1027.15C934.907,1029.4 934.353,1031.61 933.508,1033.28C933.633,1033.39 933.756,1033.5 933.876,1033.63C934.273,1034.06 935.31,1035.37 935.31,1038.31C935.31,1042.75 936.901,1065.15 934.359,1073.81C933.024,1078.35 930.488,1080.29 927.82,1080.18C925.654,1080.09 923.957,1077.96 924.033,1075.42C924.092,1073.41 925.239,1071.75 926.786,1071.18C926.937,1070.71 927.17,1069.92 927.29,1069.27C927.799,1066.49 927.982,1062.8 928.025,1058.97C928.035,1058.09 928.037,1057.2 928.031,1056.31ZM924.646,1035.03C924.191,1038.17 924.088,1041.51 924.286,1044.4L924.3,1044.56C924.935,1042.55 925.619,1040.36 926.07,1038.88C926.288,1038.16 926.507,1037.51 926.719,1036.93C925.854,1036.59 925.126,1035.91 924.646,1035.03ZM927.141,1026.88C926.865,1027.31 926.618,1027.8 926.389,1028.33L926.555,1028.25C926.615,1028.23 926.676,1028.2 926.736,1028.18L926.893,1028.12C926.977,1027.79 927.085,1027.31 927.141,1026.88Z"/>
    </g>
    <g transform="matrix(1.52834,0,0,1.30247,180.423,-378.549)">
        <path d="M944.936,1045.4C949.97,1041.96 955.739,1039.82 961.538,1036.94C976.526,1029.49 1001.07,1024.86 1022.97,1027.31C1038.04,1029 1051.83,1034.09 1060.73,1043.5C1081.68,1065.64 1088.74,1094.38 1094.38,1122.51C1099.68,1148.91 1103.57,1174.74 1118.51,1192.86C1125.42,1201.24 1135.26,1203.51 1145.43,1202.75C1161.72,1201.54 1178.94,1192.5 1188.14,1185.16C1189.43,1184.14 1190.7,1182.86 1191.69,1181.79C1191.11,1180.98 1190.76,1179.92 1190.77,1178.78C1190.8,1176.24 1192.58,1174.2 1194.75,1174.23C1198,1174.27 1199.69,1175.84 1200.49,1177.25C1201.13,1178.4 1201.44,1179.76 1201.27,1181.32C1201.1,1182.81 1200.3,1184.89 1198.51,1187.1C1192.38,1194.65 1171.71,1208.05 1151.09,1211.34C1136.76,1213.63 1122.54,1211 1112.87,1199.27C1096.97,1179.99 1092.38,1152.71 1086.74,1124.62C1081.45,1098.24 1075.13,1071.11 1055.47,1050.34C1047.66,1042.09 1035.45,1037.96 1022.23,1036.48C1001.69,1034.19 978.658,1038.44 964.601,1045.42C957.72,1048.84 950.788,1050.85 945.454,1056.17C944.861,1056.76 943.896,1058.27 943.271,1058.93C942.516,1059.73 941.778,1060.12 941.288,1060.28C939.892,1060.73 938.757,1060.34 937.857,1059.6C937.121,1059 936.106,1057.9 936.097,1055.54C936.089,1053.61 936.742,1051.86 937.921,1050.38C938.053,1050.21 938.205,1050.04 938.373,1049.88C938.371,1049.79 938.371,1049.71 938.373,1049.62C938.44,1047.08 940.253,1045.08 942.419,1045.16C943.501,1045.2 944.325,1045.29 944.936,1045.4Z"/>
    </g>
    <g transform="matrix(1.52834,0,0,1.30247,180.423,-378.549)">
        <path d="M1349.74,1063.64C1350.46,1062.84 1351.42,1062.36 1352.49,1062.37C1355.33,1062.4 1356.14,1064.68 1356.39,1065.53C1356.68,1066.49 1356.73,1067.56 1356.34,1068.73C1356.2,1069.16 1355.49,1070.83 1353.28,1071.9C1345.25,1075.82 1286.79,1095.57 1269.66,1102.88C1255.13,1109.08 1243.68,1119.87 1233.23,1131.65C1222.38,1143.88 1212.59,1157.18 1201.82,1167.92C1201.77,1167.99 1198.24,1172.8 1197.43,1173.61C1196.23,1174.79 1195.11,1174.84 1194.65,1174.84C1192.49,1174.81 1190.75,1172.72 1190.77,1170.17C1190.79,1168.64 1191.45,1167.28 1192.44,1166.46C1192.99,1165.74 1196.19,1161.45 1196.64,1161C1207.33,1150.36 1217.02,1137.14 1227.8,1125C1239.01,1112.36 1251.38,1100.88 1266.98,1094.22C1283.7,1087.08 1340.03,1068.05 1349.74,1063.64ZM1352.2,1071.57L1352.21,1071.57L1352.15,1071.57L1352.2,1071.57Z"/>
    </g>
    <g transform="matrix(1.52834,0,0,1.30247,180.423,-378.549)">
        <path d="M1397.95,981.225C1398.66,979.986 1399.88,979.176 1401.24,979.189C1404.07,979.215 1404.89,981.302 1405.19,982.206C1405.58,983.346 1405.69,984.743 1404.94,986.282C1404.72,986.742 1404.21,987.533 1403.29,988.245C1402.57,988.797 1400.98,989.614 1400.39,990.198C1393.05,997.509 1379.4,1012.39 1372.43,1026.31C1365.7,1039.73 1357.63,1062.46 1356.69,1082.93C1356.16,1094.34 1357.82,1105.06 1363.73,1112.62C1367.61,1117.59 1373.32,1121.11 1381.25,1122.69C1391.26,1124.68 1405.39,1116.95 1413.23,1111.75C1426.21,1103.13 1440.13,1097.28 1449.58,1084.11C1460.11,1069.4 1467.36,1028.9 1462.41,998.855C1459.35,980.265 1451.54,965.522 1435.62,965.456C1433.45,965.447 1431.69,963.376 1431.7,960.833C1431.71,958.291 1433.48,956.234 1435.64,956.243C1455.61,956.326 1466.28,973.802 1470.12,997.106C1475.52,1029.9 1467.08,1073.99 1455.59,1090.04C1445.54,1104.06 1430.9,1110.6 1417.09,1119.77C1408.02,1125.79 1391.51,1134.08 1379.94,1131.77C1369.93,1129.78 1362.83,1125.11 1357.94,1118.84C1350.67,1109.53 1348.2,1096.48 1348.85,1082.43C1349.86,1060.46 1358.44,1036.04 1365.66,1021.64C1373.08,1006.85 1387.51,990.945 1395.31,983.174C1395.78,982.704 1397.05,981.828 1397.95,981.225ZM1400.9,988.389L1400.94,988.39L1400.84,988.381L1400.9,988.389ZM1400.65,988.356L1400.71,988.364L1400.61,988.348L1400.65,988.356Z"/>
    </g>
    <g transform="matrix(1.52834,0,0,1.30247,180.423,-378.549)">
        <path d="M1420.35,1148.89C1418.62,1148.39 1417.35,1146.55 1417.36,1144.38C1417.38,1141.84 1419.15,1139.79 1421.32,1139.81C1423.52,1139.83 1425.02,1140.71 1426.08,1141.89C1427.14,1143.06 1427.83,1144.64 1428.11,1146.56C1428.51,1149.34 1427.69,1153.31 1427.69,1155.91C1427.65,1217.54 1414.01,1281.97 1404.58,1343.16C1403.44,1350.58 1399.47,1415.9 1394.52,1437.51C1393.78,1440.76 1392.95,1443.17 1392.17,1444.58C1391.44,1445.91 1390.61,1446.71 1389.87,1447.16C1387.96,1448.31 1385.96,1448.27 1384.02,1445.88C1382.53,1444.04 1382.59,1441.12 1384.16,1439.37C1384.72,1438.75 1385.39,1438.36 1386.09,1438.19C1386.24,1437.78 1386.38,1437.32 1386.5,1436.88C1387.25,1434.1 1387.96,1430.21 1388.66,1425.6C1392.73,1398.62 1395.86,1347.99 1396.85,1341.52C1406.21,1280.86 1419.8,1217 1419.84,1155.91C1419.84,1154.55 1420.06,1152.84 1420.24,1151.1C1420.31,1150.47 1420.34,1149.56 1420.35,1148.89Z"/>
    </g>
    <g transform="matrix(1.52834,0,0,1.30247,180.423,-378.549)">
        <path d="M1440.84,1220.68C1438.91,1220.38 1437.42,1218.43 1437.44,1216.09C1437.46,1213.54 1439.23,1211.5 1441.39,1211.51C1442.64,1211.53 1444.02,1212 1445.42,1213.18C1447.18,1214.66 1449.26,1217.66 1451.38,1221.92C1461.45,1242.15 1475.45,1294.05 1481.97,1308.65C1487.66,1321.39 1513.55,1355.22 1528.44,1379.34C1533.17,1386.98 1536.82,1393.73 1538.57,1398.64C1539.55,1401.39 1539.98,1403.74 1539.94,1405.53C1539.89,1408.07 1538.09,1410.09 1535.92,1410.03C1533.76,1409.97 1532.04,1407.86 1532.09,1405.32C1532.12,1404.09 1531.48,1402.43 1530.6,1400.35C1528.81,1396.11 1525.79,1390.74 1522.09,1384.74C1506.97,1360.27 1480.79,1325.86 1475.02,1312.93C1469.31,1300.15 1457.88,1258.81 1448.37,1235.13C1446.1,1229.47 1443.98,1224.88 1442.06,1222.12C1441.66,1221.55 1441.05,1220.91 1440.84,1220.68Z"/>
    </g>
    <g transform="matrix(1.52834,0,0,1.30247,180.423,-378.549)">
        <path d="M1400.56,1255.44C1400.29,1254.81 1400.15,1254.11 1400.15,1253.37C1400.17,1250.83 1401.94,1248.78 1404.11,1248.8C1406.33,1248.82 1407.76,1249.2 1408.56,1249.6C1409.75,1250.2 1410.42,1251.07 1410.84,1251.89C1411.6,1253.42 1411.81,1255.26 1410.79,1257.33C1410.27,1258.39 1408.91,1259.95 1406.84,1261.59C1403.68,1264.08 1398.48,1267.47 1394.61,1271.29C1377.62,1288.08 1356.89,1305.99 1342.79,1320.04C1339.01,1323.81 1336.1,1323.65 1334.07,1322.74C1332.71,1322.13 1331.57,1321.01 1330.69,1319.66C1330.45,1319.29 1330.19,1318.83 1329.95,1318.37L1329.47,1318.28L1329.29,1318.24C1327.21,1318.11 1325.56,1316.07 1325.58,1313.6C1325.6,1311.06 1327.37,1309.01 1329.54,1309.03C1329.78,1309.04 1330.17,1309.1 1330.52,1309.16L1330.73,1309.08C1331.7,1308.76 1332.68,1308.83 1333.67,1309.39C1334.3,1309.75 1335.3,1310.72 1336.1,1312.43C1336.25,1312.75 1336.57,1313.34 1336.8,1313.76C1337.07,1313.57 1337.43,1313.3 1337.71,1313.02C1351.82,1298.96 1372.56,1281.04 1389.55,1264.25C1392.94,1260.89 1397.33,1257.85 1400.56,1255.44ZM1334.38,1316.94L1334.35,1316.98L1334.37,1316.95L1334.38,1316.94Z"/>
    </g>
    <g transform="matrix(1.52834,0,0,1.30247,180.423,-378.549)">
        <path d="M1384.67,1461.73C1384.45,1461.69 1384.19,1461.66 1383.97,1461.66C1381.8,1461.63 1380.06,1459.55 1380.08,1457.01C1380.09,1454.47 1381.87,1452.42 1384.03,1452.44C1387.3,1452.48 1389.36,1453.67 1390.64,1455.16C1392.17,1456.95 1392.88,1459.41 1392.61,1462.45C1392.33,1465.67 1390.67,1469.95 1388.48,1474.23C1385.81,1479.46 1382.37,1484.79 1381.26,1487.66C1357.13,1549.92 1324.39,1607.8 1297.64,1668.57C1294.83,1674.97 1271,1742.54 1264.66,1752.16C1261.73,1756.61 1258.48,1754.94 1257.34,1753.48C1256.89,1752.91 1256.41,1752.05 1256.2,1750.72C1256.02,1749.57 1256.1,1747.05 1256.82,1742.93C1257.27,1740.44 1259.35,1738.84 1261.47,1739.36C1261.64,1739.4 1261.8,1739.46 1261.96,1739.52C1270.78,1719.65 1288.29,1669.75 1290.67,1664.34C1317.35,1603.71 1350.04,1545.97 1374.11,1483.85C1375.5,1480.27 1380.27,1473.01 1383.12,1466.65C1383.83,1465.06 1384.42,1462.8 1384.67,1461.73Z"/>
    </g>
    <g transform="matrix(1.52834,0,0,1.30247,180.423,-378.549)">
        <path d="M1423.27,1495.87C1422.4,1494.58 1421.7,1493.5 1421.23,1492.72C1419.85,1490.42 1419.81,1488.58 1419.85,1488.13C1419.98,1486.75 1420.54,1485.8 1421.21,1485.12C1422.13,1484.2 1423.46,1483.59 1425.19,1484C1426.81,1484.4 1429.85,1486.78 1431.69,1489.61C1433.1,1491.79 1433.65,1494.16 1433.52,1496.13C1442.79,1509.38 1458.89,1531.23 1461.26,1534.27C1482.61,1561.61 1499.78,1591.79 1519.04,1620.6C1535.71,1645.53 1555.29,1672.62 1568.25,1698.55C1569.14,1700.33 1572.3,1703.16 1573.6,1704.89C1574.59,1706.21 1575.02,1707.45 1575.14,1708.2C1575.4,1709.76 1575.06,1711.02 1574.45,1712.02C1573.89,1712.93 1572.63,1714.5 1569.85,1714.01C1567.96,1713.67 1566.59,1711.81 1566.51,1709.64L1564.43,1707.25C1563.15,1705.79 1562.04,1704.32 1561.48,1703.21C1548.68,1677.61 1529.32,1650.9 1512.86,1626.28C1493.73,1597.66 1476.68,1567.66 1455.47,1540.49C1453.06,1537.41 1436.81,1515.33 1427.35,1501.81C1427.23,1501.81 1427.11,1501.81 1426.99,1501.81C1424.83,1501.79 1423.08,1499.71 1423.1,1497.17C1423.1,1496.72 1423.16,1496.28 1423.27,1495.87Z"/>
    </g>
    <g transform="matrix(1.52834,0,0,1.30247,180.423,-378.549)">
        <path d="M1194.65,1169.1C1195.07,1169.11 1195.16,1169.66 1195.4,1170.09C1196,1171.14 1196.51,1172.41 1197.07,1173.75C1199.06,1178.5 1201.56,1183.6 1206.28,1185.96C1249.71,1207.63 1322.4,1205.71 1367.72,1183.1C1375.37,1179.28 1409.03,1148.46 1437.26,1117.26C1456.27,1096.25 1472.76,1075.01 1477.61,1061.83C1479.69,1056.14 1479.72,1051.48 1478.24,1048.27C1476.69,1044.91 1473.32,1042.34 1467.21,1042.29C1465.04,1042.27 1463.27,1044.32 1463.25,1046.86C1463.24,1049.4 1464.98,1051.48 1467.15,1051.5C1468.26,1051.51 1469.21,1051.62 1470.01,1051.86C1470.58,1052.04 1471.04,1052.19 1471.3,1052.59C1471.49,1052.9 1471.47,1053.32 1471.45,1053.78C1471.42,1054.54 1471.26,1055.37 1471.01,1056.28C1469.89,1060.36 1467.16,1065.45 1463.37,1071.28C1439.68,1107.73 1375.46,1169.22 1364.65,1174.62C1321.06,1196.37 1251.13,1198.33 1209.36,1177.49C1207.84,1176.73 1206.85,1175.33 1206.03,1173.84C1204.86,1171.72 1204.02,1169.36 1203.12,1167.35C1201.08,1162.82 1198.5,1159.94 1194.75,1159.89C1192.58,1159.86 1190.8,1161.89 1190.77,1164.44C1190.75,1166.98 1192.49,1169.07 1194.65,1169.1Z"/>
    </g>
    <g transform="matrix(1.52834,0,0,1.30247,180.423,-378.549)">
        <path d="M1273.01,1200.01C1271.85,1199.2 1271.07,1197.7 1271.08,1196C1271.11,1193.45 1272.88,1191.41 1275.05,1191.44C1277.71,1191.47 1278.85,1192.23 1279.38,1192.74C1280.14,1193.45 1280.61,1194.32 1280.85,1195.42C1280.95,1195.87 1281.01,1196.39 1280.99,1196.99C1280.98,1197.39 1280.84,1197.99 1280.84,1198.93C1280.84,1207.2 1286.63,1253.89 1294.85,1274.41C1300.38,1288.21 1310.63,1298.23 1319.75,1307.28C1321.76,1309.27 1327.02,1315.07 1328.32,1318.28C1329.23,1320.52 1329.02,1322.44 1328.47,1323.75C1327.85,1325.24 1326.57,1326.88 1323.73,1326.85C1321.57,1326.83 1319.82,1324.74 1319.84,1322.2C1319.85,1321.69 1319.92,1321.21 1320.05,1320.75C1318.46,1318.75 1315.71,1315.34 1314.68,1314.31C1304.75,1304.46 1293.77,1293.36 1287.75,1278.34C1279.4,1257.51 1273.42,1211.07 1273.01,1200.01Z"/>
    </g>
    <g transform="matrix(1.52834,0,0,1.30247,180.423,-378.549)">
        <path d="M924.27,1034.19C922.44,1033.74 921.096,1031.79 921.165,1029.52C921.241,1026.98 923.062,1024.99 925.227,1025.08C928.684,1025.23 930.747,1027.59 931.752,1031.24C932.216,1032.92 932.371,1035.01 932.419,1037.01C933.717,1037.73 935.17,1039.39 934.886,1042.79C934.813,1043.66 934.6,1044.97 934.294,1046.62C935.165,1045.54 936.459,1044.98 937.786,1045.24C939.766,1045.63 941.18,1047.7 941.062,1050.06C941.062,1050.06 939.795,1073.88 935.779,1084.89C934.838,1087.47 933.653,1089.44 932.384,1090.77C931.977,1094.71 928.986,1100.93 928.986,1100.93C927.971,1102.9 925.873,1103.69 924.072,1102.78C922.27,1101.87 921.318,1099.53 921.842,1097.32L923.368,1090.86C923.272,1090.77 923.176,1090.68 923.079,1090.58C922.189,1089.69 921.416,1088.33 920.991,1086.42C920.48,1084.12 920.466,1080.52 920.913,1076.26C921.572,1069.97 923.175,1061.92 924.586,1055.07L924.579,1041.18C924.579,1039.69 924.676,1037.71 924.541,1035.85C924.505,1035.35 924.366,1034.64 924.27,1034.19Z"/>
    </g>
    <g transform="matrix(1.52834,0,0,1.30247,180.423,-378.549)">
        <path d="M841.075,1703.5L841.072,1703.41C840.959,1700.61 840.316,1689.05 842.321,1681.87C843.817,1676.53 846.74,1673.32 850.761,1673.32C852.046,1673.32 853.432,1673.88 854.628,1675.56C855.501,1676.78 856.471,1679.29 857.208,1682.92C860.332,1698.31 861.958,1738.96 863.326,1760.76C865.554,1796.28 863.658,1876.06 866.975,1934.64C868.338,1958.73 870.532,1979.16 874.381,1991.13C874.858,1990.55 875.403,1989.83 875.769,1989.22C877.322,1986.63 878.549,1983.72 878.894,1982.86C889.386,1956.73 898.738,1900.76 898.738,1900.76C899.132,1898.41 900.993,1896.8 903.02,1897.07C905.047,1897.33 906.565,1899.37 906.515,1901.76C906.515,1901.76 906.134,1919.16 907.874,1931.06C908.189,1933.22 908.57,1935.18 909.057,1936.77C909.137,1937.04 909.246,1937.32 909.359,1937.6C915.462,1930.9 917.64,1919.49 919.507,1907.85C921.709,1894.11 923.33,1879.95 928.013,1870.62C929.919,1866.83 932.046,1865.98 933.482,1865.93C934.639,1865.88 935.768,1866.28 936.823,1867.23C937.79,1868.1 938.817,1869.79 939.716,1871.98C940.307,1873.41 940.907,1875.12 941.603,1876.65C941.875,1877.25 942.391,1878.08 942.679,1878.52C942.858,1878.39 943.074,1878.22 943.241,1878.06C945.587,1875.72 949.756,1867.73 952.813,1860.55C954.687,1856.14 956.245,1852.11 956.253,1850L960.179,1845.41C960.179,1845.41 960.236,1845.41 960.34,1845.41C961.271,1845.41 965.931,1845.41 965.937,1845.41C969.8,1845.41 975.606,1844.88 979.632,1843.08C980.438,1842.72 981.16,1842.31 981.723,1841.81C981.901,1841.66 982.167,1841.62 982.168,1841.39C982.177,1838.88 983.222,1837.67 984.007,1837.03C984.943,1836.27 986.123,1835.87 987.573,1836.35C988.167,1836.54 989.044,1837.04 989.96,1838.02C991.23,1839.37 993.197,1842.43 994.404,1843.64C996.308,1845.53 999.55,1851.09 1002.89,1857.45C1005.86,1863.12 1009.89,1870.51 1012.15,1874.65C1015.38,1869.59 1017.68,1862.06 1019.61,1852.98C1023.59,1834.29 1025.55,1809.3 1027.91,1783.92C1030.33,1758 1033.16,1731.69 1038.8,1711.02C1042.76,1696.46 1048.17,1684.64 1055.55,1677.28C1056.63,1676.2 1057.76,1675.94 1058.81,1676.06C1059.94,1676.19 1061.72,1676.99 1062.78,1679.87C1063.78,1682.59 1064.74,1689.96 1065.45,1699.31C1066.98,1719.66 1067.76,1749.98 1067.76,1758.23C1067.76,1781.55 1062.21,1849.33 1066.7,1895.67C1067.81,1907.15 1069.53,1917.28 1072.17,1924.95C1072.83,1926.87 1073.54,1928.63 1074.32,1930.19C1075.67,1925.89 1077.28,1920.7 1077.35,1920.42C1078.98,1913.88 1078.05,1906.91 1077.56,1900.1C1077,1892.19 1076.98,1884.48 1080.07,1877.52C1080.07,1876.09 1080.06,1873.55 1080.07,1872.99C1080.12,1870.55 1081.39,1869.53 1081.46,1869.45C1083.03,1867.89 1084.54,1867.78 1085.8,1868.14C1086.89,1868.45 1088.02,1869.26 1088.87,1870.81C1090.11,1873.07 1090.8,1878.8 1090.8,1881.57C1090.8,1889.99 1091.93,1899.2 1092.77,1907.74C1096.89,1900.17 1101.78,1891.14 1103.29,1888.44C1103.94,1887.29 1104.43,1886.73 1104.5,1886.66C1112.16,1879.03 1124.08,1875.92 1134.17,1871.5C1142.2,1867.98 1149.13,1863.7 1149.17,1852.86C1149.19,1849.25 1151.12,1846.88 1155.01,1846.59C1156.34,1846.49 1158.05,1846.68 1159.71,1846.8C1160.31,1846.84 1161.18,1846.8 1161.69,1846.77C1181.05,1807.49 1181.76,1760.49 1195.53,1719.27C1196.49,1716.37 1196.49,1711.85 1197.45,1708.7C1198.7,1704.6 1200.96,1702 1204.93,1702C1204.94,1702 1208.85,1702.44 1208.86,1707.17C1208.87,1710.76 1208.87,1731.57 1208.85,1789.79C1208.84,1844.14 1198.25,1901.93 1211.58,1954.83C1211.67,1955.17 1211.77,1955.52 1211.87,1955.85C1212.04,1955.51 1212.2,1955.16 1212.34,1954.81C1213.91,1950.96 1215.5,1945.33 1217.06,1938.75C1223.76,1910.46 1229.8,1864.91 1229.8,1861.49L1229.8,1860.53C1229.8,1860.32 1229.82,1860.1 1229.86,1859.88C1230.21,1855.74 1231.97,1854.81 1233.72,1855.38C1235.48,1854.81 1237.23,1855.74 1237.58,1859.88C1237.63,1860.1 1237.65,1860.32 1237.65,1860.53L1237.65,1878.7C1237.65,1896.9 1240.38,1907.1 1240.49,1909.07C1240.61,1911.19 1239.83,1912.34 1239.4,1912.87C1238.46,1914.04 1237.28,1914.6 1235.76,1914.27C1235.26,1914.16 1234.5,1913.9 1233.68,1913.03C1233.33,1912.66 1232.66,1911.69 1231.65,1910.02C1231.37,1909.55 1231.17,1909.04 1231.05,1908.51C1229.52,1917.59 1227.8,1926.86 1226,1935.16C1223.15,1948.28 1219.96,1959.02 1217.1,1963.42C1215.11,1966.49 1212.83,1967.42 1210.94,1967.18C1209.59,1967 1208.15,1966.26 1206.86,1964.44C1205.91,1963.09 1204.91,1960.84 1204.05,1957.45C1190.51,1903.7 1200.99,1845 1201,1789.78L1201.01,1728.36C1188.7,1768.93 1187.11,1814.28 1168,1852.36C1167.24,1853.88 1166.01,1854.99 1164.35,1855.57C1163.06,1856.02 1161.37,1856.12 1159.6,1856.02C1158.83,1855.97 1157.77,1855.92 1156.9,1855.88C1156,1866.52 1150.45,1872.76 1142.81,1877.19C1137.45,1880.3 1130.98,1882.47 1124.7,1884.96C1119.27,1887.12 1113.97,1889.49 1109.96,1893.31L1109.85,1893.5C1107.38,1897.9 1095.98,1919.07 1093.5,1923.46C1092.83,1924.66 1092.29,1925.24 1092.22,1925.31C1090.56,1926.88 1089.07,1926.34 1088.4,1926.05C1087.22,1925.54 1085.84,1924.45 1085.83,1921.74C1085.82,1920.61 1085.79,1919.44 1085.74,1918.24C1085.55,1919.85 1085.28,1921.44 1084.88,1923.02C1084.74,1923.59 1080.39,1938.91 1078.9,1941.35C1077.97,1942.86 1076.88,1943.31 1076.24,1943.47C1074.96,1943.78 1073.81,1943.44 1072.81,1942.44C1069.66,1939.3 1067,1934.54 1064.89,1928.41C1062.03,1920.1 1060.1,1909.15 1058.9,1896.71C1054.38,1850.02 1059.91,1781.72 1059.91,1758.23C1059.91,1750.09 1059.14,1720.19 1057.63,1700.12C1057.35,1696.38 1056.87,1692.49 1056.45,1689.41C1052.18,1695.69 1048.92,1704.1 1046.28,1713.82C1040.78,1733.98 1038.07,1759.65 1035.72,1784.93C1033.31,1810.76 1031.28,1836.19 1027.23,1855.21C1024.31,1868.94 1020.2,1879.45 1014.55,1885.08C1013.53,1886.1 1012.25,1886.58 1010.66,1886.04C1009.89,1885.78 1008.23,1884.5 1006.56,1881.79C1003.38,1876.63 997.736,1864.84 993.298,1856.89C991.683,1854 990.317,1851.65 989.323,1850.66C988.847,1850.19 988.092,1849.28 987.326,1848.31C986.669,1849.03 985.896,1849.68 985.011,1850.28C980.231,1853.47 971.478,1854.62 965.937,1854.62L963.353,1854.62C962.622,1857.48 961.39,1861.01 959.838,1864.66C956.24,1873.12 951.083,1882.33 948.322,1885.08C945.742,1887.65 943.461,1888.17 941.594,1887.88C938.957,1887.48 936.635,1885.09 934.959,1881.6C934.433,1880.5 933.969,1879.29 933.529,1878.13C930.213,1886.59 929.033,1898.25 927.224,1909.55C924.933,1923.84 921.614,1937.51 913.78,1945.31C911.19,1947.89 908.824,1948.05 906.878,1947.24C904.755,1946.35 902.602,1943.47 901.346,1938.76C900.974,1937.36 900.651,1935.77 900.374,1934.05C896.599,1951.88 891.438,1973.24 885.997,1986.79C885.334,1988.44 882.028,1995.94 878.696,1999.14C876.632,2001.12 874.425,2001.77 872.478,2001.24C870.692,2000.75 868.645,1999.21 867.274,1995.11C863.106,1982.66 860.595,1960.95 859.14,1935.25C855.825,1876.69 857.722,1796.94 855.495,1761.44C854.316,1742.64 852.981,1709.62 850.601,1691.49C850.338,1689.49 849.936,1687.38 849.56,1685.62C849.425,1686.22 849.314,1686.86 849.218,1687.51C848.163,1694.64 848.961,1703.68 848.901,1704.28C847.102,1722.2 844.898,1799.49 838.865,1849.12C837,1864.46 834.739,1877.23 832.068,1885.02C830.655,1889.14 829.02,1892.05 827.393,1893.68C824.876,1896.19 822.038,1896.02 819.285,1893.73C816.2,1891.16 813.178,1884.59 812.837,1883.9C810.307,1878.87 807.789,1876.42 805.145,1875.97C802.807,1875.57 800.578,1876.72 798.608,1878.19C794.899,1880.97 792.05,1885.11 790.96,1886.66C790.052,1887.95 789.28,1888.48 789.124,1888.57C787.129,1889.7 785.717,1888.79 784.856,1887.93C784.143,1887.22 782.799,1886.44 781.783,1885.9C781.758,1886.37 781.747,1886.88 781.724,1887.4C781.623,1889.71 781.657,1892.3 781.557,1894.67C781.359,1899.36 780.279,1903.29 778.431,1905.14C775.881,1907.69 772.274,1907.11 769.366,1902.47C769.178,1902.17 768.981,1901.83 768.781,1901.47C768.575,1902.19 768.356,1902.94 768.125,1903.7C764.011,1917.36 756.387,1937.84 751.416,1946.42C749.566,1949.62 747.714,1951.41 746.493,1951.96C744.612,1952.79 743.015,1952.36 741.682,1951.04C740.55,1949.91 739.408,1947.39 738.883,1943.71C738.5,1941.03 738.308,1937.51 738.161,1933.77C735.361,1953.95 734.044,1976.29 731.455,1998.29C728.422,2024.06 723.632,2049.33 713.049,2070.33C711.922,2072.57 710.532,2073.32 709.454,2073.56C708.23,2073.84 706.996,2073.59 705.817,2072.6C704.808,2071.76 703.545,2069.63 702.688,2066.55C701.431,2062.03 700.46,2054.99 700.016,2051.45C697.095,2028.17 694.221,2005.6 694.215,1981.94C694.195,1897.87 700.495,1798.04 677.155,1716.67C676.916,1715.84 676.163,1709.77 674.834,1705.07C674.726,1704.68 674.574,1704.25 674.414,1703.83C674.135,1704.57 673.94,1705.42 673.782,1706.33C672.736,1712.31 673.406,1720.04 673.239,1721.53C670.459,1746.46 670.043,1802.74 665.186,1843.98C663.017,1862.39 659.885,1877.9 655.456,1886.76C653.236,1891.19 650.647,1893.22 648.246,1894.01C644.425,1895.27 640.642,1893.43 638.006,1890.8C635.526,1888.32 634.013,1885.67 632.909,1883.39L632.106,1881.72C631.929,1881.87 631.751,1882.04 631.587,1882.2C630.704,1883.08 630.012,1885.19 629.313,1887.09C628.16,1890.22 627.127,1893.1 626.645,1893.8C625.639,1895.26 624.484,1895.56 623.735,1895.62C622.832,1895.7 621.984,1895.46 621.206,1894.84C619.783,1898.93 618.564,1903.95 618.564,1907.37C618.564,1908.73 617.807,1910.93 616.425,1912.58C615.092,1914.18 613.331,1915.07 612.439,1915.17C611.037,1915.33 609.963,1914.76 609.171,1913.9C608.484,1913.15 607.84,1912.04 607.833,1910.26C607.784,1897.88 607.294,1889.24 606.438,1883.56C604.931,1892.22 603.741,1904.78 602.645,1912.64C602.048,1916.93 601.316,1920.04 600.744,1921.18C598.387,1925.88 594.965,1926.96 590.906,1925.79C587.161,1924.71 582.548,1920.89 578.329,1917.61C576.899,1916.5 575.52,1915.47 574.248,1914.75C573.873,1914.54 573.369,1914.35 572.995,1914.22C572.813,1915.12 572.493,1916.98 572.493,1918.84C572.493,1923.12 571.722,1926.52 570.915,1929.96C570.282,1932.66 569.617,1935.4 569.614,1938.92C569.607,1947.53 569.614,1964.73 569.614,1964.73C569.615,1967.06 568.141,1969.02 566.176,1969.31C564.211,1969.59 562.37,1968.12 561.883,1965.87C561.883,1965.87 559.786,1956.17 558.967,1951.28C554.967,1927.37 550.146,1903.69 544.634,1879.9C541.907,1868.12 523.789,1780.86 512.083,1740.08C512.327,1756.68 513.35,1772.61 514.871,1789.28C517.8,1821.38 512.026,1852.93 512.026,1884.42C512.026,1886.26 510.871,1889.83 509.711,1893.64C510.148,1893.63 510.604,1893.65 511.076,1893.71C513.292,1894 516.009,1895.08 517.722,1896.08C518.886,1896.75 519.702,1897.5 520.097,1898.01C521.541,1899.85 521.398,1901.72 521.028,1902.96C520.717,1904 519.807,1906.24 516.738,1906.24C515.022,1906.24 513.321,1906.2 511.632,1906.12C510.803,1908.69 509.165,1910.01 507.15,1910.12C506.078,1910.18 504.517,1909.85 502.674,1908.01C501.894,1907.23 501.29,1906.25 500.874,1905.11C478.701,1902.01 459.107,1893.07 442.325,1885.57C429.314,1879.75 418.116,1874.75 408.784,1874.68C406.617,1874.66 404.87,1872.58 404.885,1870.04C404.899,1867.5 406.67,1865.45 408.837,1865.47C418.915,1865.55 431.07,1870.68 445.121,1876.96C461.125,1884.12 479.762,1892.73 500.851,1895.84C501.479,1893.12 502.452,1890.21 503.252,1887.72C503.7,1886.32 504.174,1885.16 504.174,1884.42C504.174,1853.26 509.963,1822.03 507.064,1790.26C505.279,1770.7 504.174,1752.16 504.174,1732.41C504.174,1729.85 503.125,1724.86 502.803,1721.52C502.529,1718.67 502.928,1716.46 503.425,1715.47C504.235,1713.85 505.414,1713.07 506.838,1712.92C507.719,1712.84 509.089,1713 510.652,1714.56C511.401,1715.3 512.333,1716.67 513.282,1718.71C514.844,1722.07 516.78,1727.76 518.921,1735.06C530.646,1775.05 549.427,1865.46 552.211,1877.48C556.187,1894.64 559.807,1911.75 563.02,1928.92C563.126,1928.45 563.235,1927.98 563.345,1927.51C563.976,1924.83 564.642,1922.19 564.642,1918.84C564.642,1910.92 566.817,1907.3 569.011,1905.86C571.408,1904.28 574.857,1904.65 578.667,1907.06C582.18,1909.27 586.329,1913.16 590.092,1915.52C590.955,1916.07 591.786,1916.52 592.575,1916.78C593.092,1916.95 593.593,1917.11 593.914,1916.62C594.009,1916.15 594.696,1912.72 595.1,1909.65C596.429,1899.56 597.95,1883.64 599.944,1875.96C600.682,1873.12 601.638,1871.13 602.478,1870.14C603.591,1868.82 604.823,1868.34 606,1868.34C608.108,1868.34 610.521,1869.59 612.215,1873.86C613.314,1876.63 614.26,1881.44 614.885,1888.81C615.023,1888.47 615.162,1888.13 615.301,1887.81C616.594,1884.8 618.063,1882.67 619.155,1881.78C620.383,1880.79 621.588,1880.57 622.621,1880.73C622.791,1880.76 622.96,1880.79 623.127,1880.84C623.334,1880.34 623.547,1879.86 623.765,1879.39C624.618,1877.59 625.581,1876.1 626.506,1875.18C630.089,1871.61 632.574,1871.32 634.17,1871.77C635.64,1872.19 636.965,1873.32 638.09,1875.38C639.118,1877.28 640.063,1880.75 643.099,1883.79C643.903,1884.59 644.953,1885.53 646.118,1885.14C647.041,1884.84 647.831,1883.8 648.684,1882.09C654.166,1871.13 657.159,1849.09 659.219,1824.44C662.417,1786.18 663.068,1741.73 665.454,1720.34C665.665,1718.45 664.844,1707.41 666.956,1700.9C668.445,1696.3 671.142,1693.47 675.047,1693.38C676.408,1693.36 677.745,1693.91 678.949,1695.18C679.839,1696.12 680.722,1697.64 681.442,1699.56C683.268,1704.43 684.31,1712.73 684.596,1713.73C708.197,1796.01 702.046,1896.93 702.067,1981.94C702.072,2005.14 704.919,2027.28 707.784,2050.11C708.015,2051.95 708.727,2055.64 709.4,2058.94C717.313,2040.38 721.106,2018.87 723.677,1997.03C726.648,1971.79 727.973,1946.09 731.721,1923.69C732.01,1921.96 731.677,1919.53 731.593,1917.28C731.503,1914.89 731.625,1912.64 732.116,1910.94C733.049,1907.72 734.911,1905.63 738.453,1905.63C740.072,1905.63 741.53,1906.39 742.714,1908.1C743.813,1909.69 744.736,1912.86 745.175,1917C745.821,1923.11 745.795,1931.8 746.249,1938.36L746.27,1938.62C746.706,1937.82 747.14,1936.97 747.532,1936.13C752.311,1925.89 758.205,1909.38 761.321,1898.61C762.487,1894.58 763.316,1891.5 763.321,1890.14C763.336,1886.34 765.41,1885.32 766.196,1885.03C767.114,1884.68 769.366,1884.36 771.055,1887.22C771.641,1888.21 772.619,1890.68 773.751,1893.18L773.777,1891.92C773.859,1886.92 774.098,1881.8 775.393,1879.22C776.444,1877.12 778.298,1875.9 780.835,1876.04C782.498,1876.13 784.683,1877.05 786.7,1878.34C788.498,1875.99 791.198,1872.81 794.389,1870.42C797.943,1867.77 802.065,1866.13 806.284,1866.85C810.668,1867.61 815.406,1870.87 819.602,1879.23C819.789,1879.6 820.957,1882.34 822.481,1884.59C822.666,1884.86 822.932,1885.18 823.187,1885.47C824.123,1883.89 824.923,1881.42 825.777,1878.35C827.839,1870.92 829.58,1860.26 831.092,1847.82C837.083,1798.53 839.283,1721.92 841.075,1703.5ZM1231.7,1904.62L1231.72,1904.58L1231.71,1904.53L1231.7,1904.62ZM771.163,1890.46C771.169,1890.37 771.172,1890.28 771.173,1890.18L771.163,1890.46Z" style="fill:rgb(136,136,136);"/>
    </g>
    <g transform="matrix(1.52834,0,0,1.30247,180.423,-378.549)">
        <path d="M381.553,1730.94C377.169,1730.01 365.521,1726.46 360.763,1714.6C358.288,1708.43 357.398,1699.9 360.376,1688.08C362.334,1680.31 378.572,1654.15 392.97,1643.98C400.515,1638.65 407.67,1637.78 412.754,1642.85C415.499,1645.59 417.305,1649.87 418.051,1655.48C418.97,1662.41 418.307,1671.65 416.527,1682.16C410.01,1720.61 388.548,1777.1 385.216,1793.7C379.347,1822.92 383.058,1838.99 387.056,1845.83C388.936,1844.79 391.205,1845.65 392.196,1847.82C394.101,1852.01 392.855,1854.89 391.774,1856.11C390.575,1857.47 387.935,1858.63 384.771,1856.17C382.56,1854.45 379.319,1850.21 377.062,1842.53C374.141,1832.59 372.625,1816.23 377.573,1791.59C380.897,1775.03 402.327,1718.71 408.826,1680.36C410.392,1671.12 411.101,1662.99 410.293,1656.9C409.886,1653.84 409.164,1651.37 407.667,1649.87C406.569,1648.78 405.233,1648.5 403.784,1648.71C401.673,1649.01 399.393,1650.19 397.02,1651.87C389.251,1657.36 380.887,1668.03 375.024,1677.16C371.309,1682.94 368.575,1688.03 367.905,1690.69C365.662,1699.6 366.002,1706.03 367.867,1710.68C372.076,1721.17 383.454,1722.01 384.095,1722.09C385.515,1722.26 389.986,1731.33 382.967,1731.27C382.468,1731.26 381.991,1731.15 381.553,1730.94Z" style="fill:rgb(136,136,136);"/>
    </g>
    <g transform="matrix(1.52834,0,0,1.30247,180.423,-378.549)">
        <path d="M391.083,1866.66C388.459,1865.02 380.42,1860 373.137,1855.57C363.439,1849.68 353.334,1843.07 349.836,1838.9C334.558,1820.69 317.39,1801.41 304.974,1780.03C292.112,1757.88 284.32,1733.5 288.272,1705.83C291.662,1682.1 299.597,1671.52 308.552,1668.45C316.957,1665.57 326.895,1669.27 336.346,1676.48C349.42,1686.46 361.66,1702.89 367.318,1713.76C369.182,1717.33 370.357,1720.4 370.795,1722.57C371.128,1724.23 371.099,1725.6 370.892,1726.63C370.583,1728.17 369.898,1729.3 368.975,1730.1C368.171,1730.79 367.125,1731.28 365.757,1731.27C363.59,1731.25 361.845,1729.17 361.862,1726.62C361.869,1725.56 362.184,1724.58 362.709,1723.81C361.535,1721.11 358.346,1714.14 354.531,1708.62C347.242,1698.09 336.567,1686.09 325.966,1680.15C319.797,1676.7 313.695,1675.22 308.529,1678.34C302.636,1681.9 298.364,1690.91 296.016,1707.36C292.417,1732.55 299.751,1754.67 311.462,1774.84C323.619,1795.77 340.472,1814.6 355.431,1832.43C358.614,1836.23 367.921,1842.03 376.746,1847.39C386.415,1853.26 395.566,1858.64 397.194,1860.35C398.925,1862.16 398.829,1864.12 398.678,1865.06C398.458,1866.41 397.662,1868.97 394.441,1868.94C393.009,1868.93 391.76,1868.02 391.083,1866.66Z" style="fill:rgb(136,136,136);"/>
    </g>
    <g transform="matrix(1.52834,0,0,1.30247,180.423,-378.549)">
        <path d="M1589.83,620.043C1589.26,617.633 1588.76,615.507 1588.7,614.381C1588.54,610.966 1590.28,609.498 1591.55,608.987C1592.39,608.65 1594.13,608.247 1596.21,610.324C1596.82,610.934 1597.66,612.272 1597.86,614.413C1597.97,615.645 1597.88,617.606 1597.77,619.302L1597.92,619.932C1598.57,622.712 1599.13,625.619 1599.18,627.804C1599.21,629.374 1599,630.711 1598.63,631.734C1598.4,632.381 1598.12,632.965 1597.79,633.472C1598.82,663.789 1603.19,698.268 1597.47,726.747C1596.17,733.228 1594.67,746.38 1594.67,746.38C1594.39,748.838 1592.5,750.593 1590.4,750.353C1588.3,750.112 1586.73,747.961 1586.86,745.486C1586.86,745.486 1587.25,738.109 1586.12,730.869C1585.49,726.84 1584.56,722.728 1582.34,720.66C1580.64,719.079 1580.35,716.179 1581.7,714.188C1583.05,712.196 1585.52,711.863 1587.22,713.444C1588.66,714.785 1589.86,716.611 1590.85,718.737C1594.83,692.052 1590.91,660.871 1589.94,633.223C1589.57,632.432 1589.39,631.504 1589.48,630.537C1589.52,630.015 1589.64,629.521 1589.82,629.071C1589.76,626.828 1589.74,624.616 1589.74,622.435C1589.74,622.124 1589.77,621.161 1589.83,620.043Z" style="fill:rgb(0,9,1);"/>
    </g>
    <g transform="matrix(1.52834,0,0,1.30247,180.423,-378.549)">
        <path d="M1544.39,628.044C1543.92,627.715 1542.38,626.651 1541.08,625.958C1535.31,622.885 1526.22,619.374 1523.87,618.436C1523.17,618.155 1522.77,617.935 1522.7,617.893C1521,616.822 1520.79,615.235 1520.71,614.759C1520.4,613.012 1520.81,611.526 1522,610.33C1525.03,607.286 1530.29,605.239 1536.64,604.185C1549.57,602.042 1567.42,603.487 1576.37,603.487C1578.57,603.487 1587.84,603.652 1592.04,603.731C1592.57,603.501 1593.16,603.406 1593.77,603.476C1595.7,603.699 1596.6,604.247 1596.76,604.37C1598.45,605.605 1598.65,607.279 1598.62,608.415C1598.61,608.986 1598.27,612.567 1594.85,612.942C1592.96,613.149 1579.35,612.7 1576.37,612.7C1568.87,612.7 1554.98,611.623 1543.2,612.639C1540.6,612.863 1538.1,613.153 1535.84,613.589C1539.84,615.314 1544.12,617.309 1546.83,619.007C1549.06,620.401 1550.46,621.94 1550.98,622.972C1552.15,625.323 1552.87,628.491 1553.06,632.342C1553.29,637.136 1552.75,643.157 1551.68,649.87C1548.2,671.816 1539,701.765 1537.37,718.219C1544.4,718.223 1557.99,718.215 1559.12,718.215C1563.96,718.215 1568.46,719.794 1571.22,721.438C1572.87,722.413 1574,723.512 1574.61,724.375C1575.68,725.918 1575.87,727.468 1575.73,728.671C1575.58,729.977 1575.06,731.203 1573.94,732.166C1573.12,732.872 1570.94,733.823 1566.95,733.074C1564.88,732.685 1563.44,730.457 1563.66,728.036C1562.27,727.665 1560.72,727.429 1559.12,727.429C1557.75,727.429 1537.84,727.441 1533.87,727.432C1529.98,727.424 1529.27,722.856 1529.27,722.843C1529.22,709.744 1537.18,682.204 1541.97,658.945C1543.78,650.162 1545.12,642.027 1545.25,635.657C1545.32,632.518 1545.16,629.892 1544.39,628.044Z" style="fill:rgb(0,9,1);"/>
    </g>
    <g transform="matrix(1.52834,0,0,1.30247,180.423,-378.549)">
        <path d="M1518.25,610.298C1517.53,609.821 1516.78,609.27 1516.23,608.726C1490.95,583.545 1476.43,547.934 1463.39,515.392C1462.57,513.345 1460.69,509.54 1459.32,505.766C1458.18,502.64 1457.43,499.5 1457.44,497.059C1457.45,494.814 1458.02,492.953 1459.03,491.542C1460.07,490.104 1461.61,488.979 1463.98,488.742C1466.14,488.526 1468.04,490.407 1468.22,492.941C1468.38,495.165 1467.17,497.156 1465.41,497.755C1465.51,498.483 1465.69,499.54 1465.92,500.309C1467.19,504.492 1469.57,509.156 1470.5,511.471C1483.09,542.881 1496.91,577.397 1521.31,601.702C1522.21,602.595 1523.54,603.117 1524.12,603.463C1525.05,604.019 1525.57,604.668 1525.81,605.031C1527.03,606.886 1526.84,608.628 1526.18,610.076C1525.97,610.544 1524.96,612.693 1521.65,612.667C1520.18,612.655 1518.91,611.701 1518.25,610.298Z" style="fill:rgb(0,9,1);"/>
    </g>
    <g transform="matrix(1.52834,0,0,1.30247,180.423,-378.549)">
        <path d="M1509.12,725.161C1509.23,723.859 1509.74,722.674 1510.77,721.74C1511.65,720.94 1513.95,720.277 1515.69,720.545C1517.92,720.889 1519.19,722.655 1519.53,723.524C1519.91,724.473 1520,725.463 1519.82,726.488C1519.67,727.306 1519.34,728.292 1518.43,729.191C1516.74,730.879 1515.06,732.571 1513.38,734.272C1510.84,738.091 1507.12,742.658 1504.29,745.891C1506.12,745.228 1507.78,744.617 1509.06,744.192C1513.11,742.847 1517.48,740.101 1521.43,738.144C1524.71,736.515 1527.78,735.425 1530.3,735.425C1530.78,735.425 1531.79,735.144 1532.58,734.896C1532.62,734.812 1532.66,734.73 1532.71,734.649C1533.88,732.506 1536.31,731.879 1538.13,733.248C1539.61,734.355 1540.07,735.745 1540.23,736.897C1540.37,738.017 1540.23,739.167 1539.65,740.291C1539.21,741.16 1538.18,742.331 1536.57,743.11C1534.74,743.993 1531.87,744.638 1530.3,744.638C1528.12,744.638 1525.42,746.108 1522.49,747.657C1518.8,749.607 1514.87,751.838 1511.19,753.057C1506.03,754.771 1495.25,758.968 1489.99,758.968L1489.63,758.957C1478.35,770.879 1467.12,782.874 1455.43,794.753C1455.29,795.175 1455.13,795.607 1454.96,796.048C1452.82,801.763 1448.92,809.313 1446.17,812.902C1444.21,815.457 1442.17,816.332 1441.04,816.332C1439.33,816.332 1438.21,815.473 1437.44,814.305C1436.78,813.306 1436.24,811.701 1436.57,809.518C1436.89,807.424 1438.47,803.673 1440.2,800.4C1441.93,797.11 1443.8,794.318 1444.25,793.874C1445.78,792.348 1447.3,790.819 1448.81,789.291C1448.87,789 1448.91,788.737 1448.92,788.505C1449.04,785.967 1450.89,784.018 1453.05,784.157C1453.29,784.172 1453.51,784.211 1453.73,784.273C1472.06,765.488 1489.35,746.461 1507.61,727.939C1508.29,726.845 1508.96,725.493 1509.12,725.161ZM1533.77,740.905C1533.81,740.941 1533.86,740.976 1533.9,741.011L1533.77,740.905ZM1516.77,727.086C1516.89,726.644 1516.95,726.179 1516.95,725.7C1516.95,726.089 1516.89,726.556 1516.77,727.086Z" style="fill:rgb(0,9,1);"/>
    </g>
    <g transform="matrix(1.52834,0,0,1.30247,180.423,-378.549)">
        <path d="M1454.71,512.129C1453.01,511.607 1451.77,509.788 1451.78,507.639C1451.8,505.097 1453.57,503.048 1455.74,503.066C1458.85,503.093 1460.59,504.495 1461.62,506.087C1462.67,507.723 1463.11,509.941 1462.75,512.528C1462.45,514.64 1461.57,517.156 1460.65,519.429C1460.07,520.876 1459.42,522.143 1459.29,522.924C1451.57,569.078 1443.12,618.921 1439.19,665.897C1436.79,694.56 1430.57,722.905 1430.57,751.493L1430.57,771.57C1430.57,773.844 1429.16,775.777 1427.24,776.123C1425.33,776.47 1423.48,775.125 1422.9,772.958C1422.9,772.958 1422.29,770.13 1421.39,769.085C1419.85,767.295 1419.84,764.376 1421.37,762.57C1421.76,762.1 1422.22,761.752 1422.72,761.526L1422.72,751.493C1422.72,722.607 1428.95,693.959 1431.38,664.997C1435.33,617.734 1443.82,567.585 1451.59,521.149C1451.84,519.617 1453.16,516.67 1454.23,513.731C1454.4,513.269 1454.57,512.667 1454.71,512.129Z" style="fill:rgb(0,9,1);"/>
    </g>
    <g transform="matrix(1.52834,0,0,1.30247,180.423,-378.549)">
        <path d="M1388.85,609.574C1389.35,607.678 1390.86,606.305 1392.64,606.322C1393.61,606.331 1394.34,606.706 1394.92,607.183C1395.68,607.813 1396.25,608.696 1396.49,609.933C1396.6,610.455 1396.77,612.442 1395.3,614.841C1392.25,619.818 1377.43,638.898 1368.12,652.53C1364.59,657.701 1361.82,661.876 1361.29,663.917C1355.21,687.434 1361.5,712.046 1377.36,727.909C1380.77,731.319 1380.09,734.299 1379.53,735.65C1379.06,736.79 1378.21,737.827 1376.88,738.413C1375.63,738.968 1372.78,738.879 1372.38,738.863C1370.27,738.771 1368.59,736.719 1368.6,734.223C1368.61,733.293 1368.85,732.429 1369.26,731.709C1353.23,713.436 1347.17,686.775 1353.78,661.24C1354.44,658.691 1357.59,653.227 1361.99,646.77C1371.14,633.374 1385.67,614.682 1388.85,609.574ZM1372.38,738.863L1372.5,738.868C1372.47,738.867 1372.33,738.862 1372.33,738.862L1372.38,738.863ZM1392.38,615.527C1392.44,615.532 1392.51,615.534 1392.57,615.535L1392.38,615.527ZM1391.42,615.322C1391.7,615.429 1392.01,615.502 1392.36,615.525C1392.03,615.501 1391.72,615.432 1391.42,615.322ZM1391.33,615.287L1391.38,615.303L1391.32,615.279L1391.33,615.287Z" style="fill:rgb(0,9,1);"/>
    </g>
    <g transform="matrix(1.52834,0,0,1.30247,180.423,-378.549)">
        <path d="M1354.75,531.797C1354.95,531.763 1355.15,531.746 1355.35,531.748C1356.96,531.765 1357.66,532.167 1357.69,532.181C1360.11,533.482 1360.11,535.767 1359.93,537.076C1359.85,537.665 1359.54,540.301 1356.76,540.9C1356.72,540.909 1356.41,540.971 1355.87,540.984C1354.26,541.022 1345.06,541.043 1342.74,541.813C1332.28,545.293 1322.98,559.563 1317.4,567.905C1299.89,594.063 1285.88,624.982 1277.77,655.352C1272.34,675.663 1266.25,724.83 1270.22,764.902C1271.51,777.955 1273.86,790.032 1277.74,799.737C1281.27,808.595 1286.04,815.439 1292.6,818.824C1292.92,818.64 1294.15,817.925 1294.85,817.264C1297.29,814.929 1299.62,811.428 1299.98,810.198C1300.69,807.795 1302.93,806.518 1304.97,807.349C1307.02,808.18 1308.11,810.805 1307.4,813.208C1306.75,815.433 1302.31,822.815 1297.83,826.075C1295,828.132 1292.12,828.601 1289.79,827.437C1277.49,821.303 1269.66,805.905 1265.43,785.981C1256.2,742.453 1263.71,677.164 1270.28,652.596C1278.66,621.209 1293.13,589.249 1311.23,562.214C1317.61,552.68 1328.64,536.926 1340.6,532.949C1342.96,532.164 1351.52,531.882 1354.75,531.797Z" style="fill:rgb(0,9,1);"/>
    </g>
    <g transform="matrix(1.52834,0,0,1.30247,180.423,-378.549)">
        <path d="M1334.32,451.965C1333.81,451.49 1333.28,451.004 1332.79,450.523C1331.43,449.186 1330.32,447.817 1329.76,446.721C1328.18,443.604 1324.77,442.335 1321.02,441.649C1314.06,440.374 1305.73,441.717 1300.98,443.291C1272.26,452.821 1254.33,476.766 1242.97,503.984C1231.19,532.225 1195.89,695.911 1203.19,791.021C1204.71,810.766 1208.03,827.49 1213.98,839.189C1219.39,849.849 1227.06,856.071 1237.65,855.856C1239.82,855.813 1241.61,857.841 1241.65,860.383C1241.68,862.925 1239.96,865.025 1237.79,865.068C1224.17,865.344 1214.19,857.606 1207.23,843.907C1200.8,831.248 1197.02,813.213 1195.38,791.849C1187.94,695.117 1223.94,528.657 1235.92,499.934C1248.21,470.475 1267.76,444.74 1298.85,434.425C1304.38,432.588 1314.11,431.058 1322.23,432.546C1328.54,433.701 1333.86,436.774 1336.51,442.018C1337.04,443.058 1338.71,444.289 1340.01,445.527C1341.68,447.113 1342.99,448.736 1343.46,449.828C1344.46,452.139 1344.07,454.083 1343.02,455.603C1342.42,456.469 1341.04,457.815 1338.08,457.783C1335.91,457.761 1334.16,455.678 1334.18,453.136C1334.19,452.731 1334.24,452.338 1334.32,451.965Z" style="fill:rgb(0,9,1);"/>
    </g>
</svg>
