<?xml version="1.0" encoding="UTF-8" standalone="no"?>
<!DOCTYPE svg PUBLIC "-//W3C//DTD SVG 1.1//EN" "http://www.w3.org/Graphics/SVG/1.1/DTD/svg11.dtd">
<svg width="100%" height="100%" viewBox="0 0 3508 2481" version="1.1" xmlns="http://www.w3.org/2000/svg" xmlns:xlink="http://www.w3.org/1999/xlink" xml:space="preserve" xmlns:serif="http://www.serif.com/" style="fill-rule:evenodd;clip-rule:evenodd;stroke-linejoin:round;stroke-miterlimit:2;">
    <g transform="matrix(1,0,0,1,-907.642,-702.689)">
        <path d="M2259.11,1877.6C2259.07,1891.81 2261.71,1911.66 2261.71,1917.45C2261.71,1917.9 2262.06,1925.62 2261.65,1931.6C2261.42,1934.97 2260.86,1937.89 2260.14,1939.49C2259.03,1941.99 2257.25,1943.18 2255.71,1943.67C2253.74,1944.3 2251.18,1944.36 2248.59,1941.77C2245.21,1938.39 2242.66,1930.8 2241.54,1921.06C2239.35,1902.15 2241.03,1874.29 2241.07,1862.93C2241.09,1860.02 2242.24,1858.28 2243.42,1857.19C2244.62,1856.08 2246.12,1855.4 2247.96,1855.33C2249.35,1855.27 2251.43,1855.78 2253.72,1857.08C2255.37,1856.23 2257.26,1855.94 2259.28,1856.2C2262.02,1856.55 2265.08,1858.12 2267.18,1860.07C2271,1863.6 2271.24,1868.25 2269.65,1870.87L2269.59,1870.96C2281.35,1881.53 2294.97,1889.42 2307.03,1900.13C2309.94,1900.59 2311.92,1901.85 2313.34,1903.31C2314.99,1905 2315.76,1907.63 2316.12,1909.95C2317.15,1911.43 2317.99,1912.79 2318.34,1913.59C2319.87,1917.1 2318.26,1919.57 2317.5,1920.47C2316.55,1921.56 2315.3,1922.34 2313.61,1922.54C2312.79,1922.64 2311.57,1922.66 2310.06,1921.93C2309.45,1921.64 2308.15,1920.79 2306.19,1918.83C2305.78,1918.42 2304.39,1917.01 2304.42,1914.36C2304.02,1913.86 2303.64,1913.41 2303.31,1913.09C2289.52,1899.33 2272.85,1890.59 2259.11,1877.6Z"/>
    </g>
    <g transform="matrix(1,0,0,1,-907.642,-702.689)">
        <path d="M2296.43,1940.61C2290.76,1944.46 2284.56,1948.38 2280.33,1953.04C2276.33,1957.43 2270.86,1964.1 2265.1,1968.74C2260.2,1972.67 2254.97,1975.1 2250.12,1975.04C2246.81,1975 2244.16,1972.28 2244.2,1968.97C2244.24,1965.65 2246.97,1963 2250.28,1963.04C2252.72,1963.07 2255.12,1961.36 2257.58,1959.38C2262.85,1955.14 2267.79,1948.98 2271.45,1944.96C2278.51,1937.2 2290.86,1931.38 2297.53,1924.69C2300.63,1921.58 2303.54,1922.73 2304.18,1922.96C2306.01,1923.61 2307.44,1924.89 2308.02,1927.15C2308.2,1927.85 2308.45,1929.17 2307.79,1930.91C2307.4,1931.94 2304.81,1935.96 2302.1,1938.19C2300.17,1939.78 2298.1,1940.53 2296.43,1940.61Z"/>
    </g>
    <g transform="matrix(1,0,0,1,-907.642,-702.689)">
        <path d="M2618.38,1863.04C2618.32,1862.85 2618.27,1862.66 2618.23,1862.49C2617.6,1859.67 2618.42,1857.48 2620.05,1855.85C2621.55,1854.35 2623.38,1853.61 2625.47,1853.51C2626.87,1853.43 2628.61,1854.1 2630.05,1854.1C2634.31,1854.1 2636.27,1855.88 2637.1,1856.95C2638.36,1858.58 2638.81,1860.47 2638.24,1862.65C2637.9,1863.91 2636.72,1865.97 2634.25,1867.84C2633.92,1868.09 2633.56,1868.35 2633.17,1868.61L2633.17,1868.7L2633.17,1951.88C2633.17,1954.63 2631.3,1957.03 2628.63,1957.7C2625.97,1958.37 2623.18,1957.14 2621.88,1954.72C2621.88,1954.72 2619.2,1949.55 2617.18,1947.53C2609.13,1939.51 2599.6,1926.97 2589.84,1918.09C2584.48,1913.21 2579.25,1909.3 2574.05,1909.07C2570.74,1908.92 2568.17,1906.12 2568.31,1902.81C2568.38,1901.22 2569.07,1899.8 2570.13,1898.77C2568.94,1897.62 2568.24,1895.99 2568.31,1894.21C2568.46,1890.9 2571.26,1888.33 2574.57,1888.48C2578.02,1888.62 2582.52,1886.3 2587.39,1883.48C2596.35,1878.29 2605.95,1870.82 2612.35,1866.57C2613.05,1866.11 2615.58,1864.64 2618.38,1863.04ZM2621.17,1875.35C2620.15,1875.89 2619.38,1876.31 2618.99,1876.57C2611.28,1881.69 2599.01,1891.3 2588.6,1896.46C2586.55,1897.47 2584.55,1898.32 2582.64,1898.96C2587.71,1901.02 2592.88,1904.63 2597.92,1909.21C2606.05,1916.62 2614.05,1926.52 2621.17,1934.31L2621.17,1875.35Z"/>
    </g>
    <g transform="matrix(1,0,0,1,-907.642,-702.689)">
        <path d="M2782.46,1095.6L2782.46,1092.15C2782.11,1089.34 2783.78,1086.67 2786.46,1085.74C2789.14,1084.82 2792.1,1085.9 2793.56,1088.32C2793.56,1088.32 2819.81,1131.96 2831.22,1154.69C2854.93,1201.92 2890.61,1244.33 2914.72,1292.37C2915.36,1293.63 2917.83,1299.35 2920.41,1304.35C2920.67,1304.86 2920.97,1305.4 2921.28,1305.94C2922.77,1307.35 2924.19,1308.82 2925.07,1309.93C2926.6,1311.88 2927.03,1313.69 2927.09,1314.54C2927.23,1316.71 2926.39,1318.28 2925.19,1319.42C2924.27,1320.31 2922.93,1321.14 2920.87,1321.14C2919.25,1321.14 2916.32,1320.15 2913.87,1316.83C2913.18,1315.89 2912.43,1314.68 2911.65,1313.31C2910.85,1312.53 2910.16,1311.91 2909.83,1311.73C2907.22,1310.27 2906.12,1307.15 2907.12,1304.44C2905.61,1301.26 2904.42,1298.58 2904,1297.75C2879.89,1249.71 2844.2,1207.3 2820.5,1160.08C2812.77,1144.68 2798.15,1119.6 2789.72,1105.33C2788.73,1105.79 2787.62,1106 2786.41,1105.97C2783.1,1105.89 2780.48,1103.14 2780.56,1099.83C2780.6,1098.16 2781.32,1096.66 2782.46,1095.6Z"/>
    </g>
    <g transform="matrix(1,0,0,1,-907.642,-702.689)">
        <path d="M2945.11,1203.78C2944.42,1202.78 2944.02,1201.56 2944.04,1200.26C2944.1,1196.94 2946.84,1194.31 2950.15,1194.36C2952.48,1194.41 2954.43,1195.39 2955.82,1197.59C2956.63,1198.87 2957.38,1201.45 2957.13,1205.09C2956.39,1215.91 2948.05,1243.51 2946.94,1250.16C2945.12,1261.03 2941.22,1291.63 2934.42,1311.52C2930.93,1321.74 2926.2,1329.23 2921.34,1331.85C2918.42,1333.42 2914.78,1332.32 2913.21,1329.41C2911.64,1326.49 2912.73,1322.85 2915.65,1321.28C2916.86,1320.63 2917.82,1319.17 2918.86,1317.39C2920.39,1314.76 2921.78,1311.41 2923.07,1307.64C2929.65,1288.37 2933.34,1258.71 2935.11,1248.18C2935.97,1242.98 2941.32,1224.88 2943.92,1212.18C2944.57,1209.01 2944.96,1205.41 2945.11,1203.78ZM2949.66,1206.35C2949.75,1206.36 2949.84,1206.36 2949.93,1206.36L2949.66,1206.35ZM2949.46,1206.33L2949.52,1206.34L2949.43,1206.33L2949.46,1206.33Z"/>
    </g>
    <g transform="matrix(1,0,0,1,-907.642,-702.689)">
        <path d="M2907.97,1163.03C2905.55,1162.21 2903.84,1159.9 2903.89,1157.23C2903.95,1153.91 2906.69,1151.28 2910,1151.34C2911.3,1151.37 2912.79,1151.74 2914.32,1152.72C2915.79,1153.67 2917.63,1155.52 2919.48,1158.27C2927.12,1169.58 2938.05,1199.22 2938.83,1214.4C2938.99,1217.7 2936.45,1220.53 2933.14,1220.7C2929.83,1220.87 2927.01,1218.32 2926.84,1215.01C2926.23,1203.1 2918.53,1181.3 2912.05,1169.23C2910.7,1166.7 2908.58,1163.84 2907.97,1163.03Z"/>
    </g>
    <g transform="matrix(1,0,0,1,-907.642,-714.689)">
        <path d="M2917.28,1187.55C2915.67,1187.01 2913.59,1186.27 2912.45,1185.7C2901.78,1180.39 2894.65,1172.85 2883.45,1167.27C2881.86,1166.48 2880.22,1165.61 2879.03,1164.3C2873.22,1157.94 2839.98,1128.77 2816.58,1111.73C2810.74,1107.48 2805.54,1104 2801.58,1101.88C2799.93,1101.01 2798.73,1100.26 2797.89,1100.24C2794.58,1100.16 2791.95,1097.41 2792.03,1094.1C2792.11,1090.79 2794.86,1088.16 2798.17,1088.24C2799.8,1088.28 2802.14,1088.85 2804.97,1090.17C2809.52,1092.29 2816.12,1096.55 2823.64,1102.03C2847.45,1119.36 2881.1,1148.94 2887.66,1155.96L2888.8,1156.53C2900,1162.11 2907.13,1169.65 2917.8,1174.96C2920.11,1176.11 2924.31,1177.21 2925.15,1177.68C2927.89,1179.24 2928.25,1181.54 2928.32,1182.66C2928.38,1183.54 2928.01,1189.28 2921.25,1189.15C2919.71,1189.12 2918.32,1188.52 2917.28,1187.55Z"/>
    </g>
    <g transform="matrix(1,0,0,1,-907.642,-702.689)">
        <path d="M2998.51,1140.96C2997.24,1141.89 2995.96,1142.6 2994.76,1143C2970.93,1150.92 2952.38,1160.94 2926.99,1160.47C2923.68,1160.41 2921.04,1157.67 2921.1,1154.36C2921.16,1151.05 2923.9,1148.41 2927.21,1148.47C2951.14,1148.92 2968.51,1139.08 2990.97,1131.61C2991.74,1131.36 2992.43,1130.44 2993.16,1129.65C2995.02,1127.64 2996.47,1125.43 2996.47,1125.43C2997.63,1123.64 2999.66,1122.6 3001.8,1122.71C3003.93,1122.82 3005.84,1124.05 3006.82,1125.95C3006.82,1125.95 3010.37,1133.34 3010.37,1137.31C3010.37,1146.75 3013.91,1157.45 3017.32,1168.25C3021.13,1180.29 3024.81,1192.44 3024.77,1203.3C3024.76,1206.38 3023.45,1208.08 3022.23,1209.1C3020.97,1210.15 3019.38,1210.77 3017.42,1210.66C3015.77,1210.56 3012.78,1209.2 3009.67,1206.99C3008.37,1206.07 3006.95,1205.04 3005.58,1204.24C3005.11,1203.97 3004.3,1203.62 3004.1,1203.54C2999.45,1203.47 2992.88,1201.56 2986.21,1200.17C2981.28,1199.14 2976.25,1198.16 2972.49,1200.04C2971.27,1200.65 2970.63,1201.9 2969.98,1202.88C2968.92,1204.51 2967.96,1205.95 2967.05,1206.85C2965.3,1208.58 2963.36,1209.27 2961.41,1209.23C2958.1,1209.17 2955.46,1206.44 2955.52,1203.13C2955.56,1200.77 2956.96,1198.75 2958.95,1197.81C2959.36,1197.17 2960.09,1196.07 2960.64,1195.27C2962.26,1192.95 2964.34,1190.69 2967.13,1189.3C2972.01,1186.87 2978.17,1186.68 2984.55,1187.67C2991.8,1188.79 2999.34,1191.54 3004.35,1191.54C3006.26,1191.54 3008.54,1192.2 3010.87,1193.45C3011.19,1193.63 3011.54,1193.83 3011.91,1194.05C3010.67,1186.89 3008.25,1179.36 3005.88,1171.86C3002.51,1161.19 2999.22,1150.57 2998.51,1140.96Z"/>
    </g>
    <g transform="matrix(1,0,0,1,-907.642,-702.689)">
        <path d="M2396.24,1202.75L2396.26,1202.49C2396.67,1199.2 2399.67,1196.87 2402.96,1197.28C2405.11,1197.55 2406.45,1198.54 2407.34,1199.59C2408.47,1200.91 2409.1,1202.59 2408.87,1204.65C2408.68,1206.38 2407.01,1209.57 2404.22,1211.85C2401.47,1214.1 2397.93,1215.21 2395.69,1214.91C2392.4,1214.48 2390.09,1211.46 2390.53,1208.17C2390.91,1205.34 2393.21,1203.24 2395.94,1202.99L2396.24,1202.75Z"/>
    </g>
    <g transform="matrix(1,0,0,1,-907.642,-702.689)">
        <path d="M2441.86,1212.08C2445.84,1212.42 2449.97,1212.18 2453.96,1212.1C2457.27,1212.03 2459.91,1209.29 2459.84,1205.98C2459.78,1202.67 2457.04,1200.04 2453.73,1200.1C2450.14,1200.17 2446.45,1200.42 2442.88,1200.12C2439.58,1199.84 2436.67,1202.29 2436.39,1205.59C2436.11,1208.89 2438.56,1211.8 2441.86,1212.08Z"/>
    </g>
    <g transform="matrix(1,0,0,1,-907.642,-702.689)">
        <path d="M2514.76,1212.25C2514.53,1212.29 2514.18,1212.35 2513.96,1212.41C2513.4,1212.56 2512.84,1212.76 2512.26,1212.96C2509.16,1214.05 2505.8,1215.17 2502.25,1214.96C2498.94,1214.76 2496.42,1211.92 2496.61,1208.62C2496.81,1205.31 2499.65,1202.78 2502.95,1202.98C2504.59,1203.07 2506.1,1202.41 2507.55,1201.9C2509.36,1201.26 2511.1,1200.67 2512.75,1200.4C2517.05,1199.7 2521.06,1200.47 2524.67,1205.44C2526.61,1208.12 2526.02,1211.88 2523.34,1213.82C2520.66,1215.77 2516.9,1215.17 2514.96,1212.49C2514.9,1212.42 2514.83,1212.33 2514.76,1212.25Z"/>
    </g>
    <g transform="matrix(1,0,0,1,-907.642,-702.689)">
        <path d="M2564.66,1207.29C2565.78,1206.33 2567.25,1205.77 2568.84,1205.84C2574.78,1206.11 2575.49,1210.66 2575.55,1211.69C2575.64,1213.12 2575.41,1215.55 2572.62,1217.32C2571.97,1217.73 2570.12,1218.47 2567.59,1219.03C2563.48,1219.95 2557.03,1220.84 2553.95,1220.7C2550.64,1220.54 2548.08,1217.73 2548.24,1214.42C2548.39,1211.12 2551.2,1208.56 2554.51,1208.71C2556.55,1208.81 2561.74,1207.86 2564.66,1207.29Z"/>
    </g>
    <g transform="matrix(1,0,0,1,-907.642,-702.689)">
        <path d="M2696.7,1211.65C2697.86,1210.74 2700.62,1208.79 2703.18,1208.71C2706.49,1208.6 2709.26,1211.19 2709.37,1214.5C2709.47,1217.44 2707.43,1219.96 2704.65,1220.57C2704.33,1220.87 2703.87,1221.29 2703.57,1221.53C2702.01,1222.76 2700.17,1223.65 2697.46,1223.57C2694.15,1223.47 2691.55,1220.71 2691.64,1217.4C2691.73,1214.47 2693.91,1212.09 2696.7,1211.65Z"/>
    </g>
    <g transform="matrix(1,0,0,1,-907.642,-702.689)">
        <path d="M2768.24,1211.68C2768.64,1211.6 2769.07,1211.56 2769.5,1211.57C2771.17,1211.62 2772,1211.74 2772.15,1211.77C2774.26,1212.23 2775.15,1213.38 2775.52,1213.83C2776.78,1215.37 2777.04,1216.98 2776.82,1218.5C2776.79,1218.76 2775.97,1223.44 2770.88,1223.66C2768.64,1223.76 2752.46,1223.73 2746.24,1223.57C2742.93,1223.48 2740.32,1220.73 2740.4,1217.41C2740.49,1214.11 2743.25,1211.49 2746.56,1211.57C2751.29,1211.7 2763.33,1211.69 2768.24,1211.68Z"/>
    </g>
    <g transform="matrix(1,0,0,1,-907.642,-702.689)">
        <path d="M2832.45,1211.84C2832.45,1211.84 2832.45,1211.84 2832.45,1211.84Z"/>
    </g>
    <g transform="matrix(1,0,0,1,-907.642,-702.689)">
        <path d="M2852.99,1234.78C2852.51,1233.89 2852.24,1232.87 2852.26,1231.79C2852.33,1228.48 2855.08,1225.85 2858.39,1225.91C2863.12,1226.01 2865.03,1228.28 2865.93,1230.03C2866.78,1231.68 2867.03,1233.73 2866.26,1236C2865.7,1237.64 2864.22,1239.71 2863.04,1241.27C2861.04,1243.91 2857.28,1244.43 2854.64,1242.43C2852.24,1240.62 2851.59,1237.34 2852.99,1234.78Z"/>
    </g>
    <g transform="matrix(1,0,0,1,-907.642,-702.689)">
        <path d="M2855.55,1305.84C2855.26,1305.11 2855.11,1304.32 2855.13,1303.49C2855.2,1300.18 2857.94,1297.55 2861.25,1297.62C2863.06,1297.66 2864.49,1298.33 2865.64,1299.44C2866.53,1300.31 2867.4,1301.63 2867.65,1303.59C2867.78,1304.55 2867.73,1306.01 2867.46,1307.74C2867.13,1309.85 2866.4,1312.76 2866.4,1315.14C2866.4,1318.73 2867.9,1322.2 2868.67,1325.59C2869.93,1331.13 2869.88,1336.45 2865.9,1341.67C2863.89,1344.31 2860.13,1344.82 2857.49,1342.81C2854.86,1340.8 2854.35,1337.04 2856.36,1334.4C2858.36,1331.77 2857.22,1329.02 2856.45,1326.19C2855.47,1322.6 2854.4,1318.9 2854.4,1315.14C2854.4,1312.48 2855.19,1307.83 2855.55,1305.84ZM2859.63,1309.43C2860.05,1309.54 2860.51,1309.61 2861,1309.62C2860.53,1309.61 2860.07,1309.54 2859.63,1309.43Z"/>
    </g>
    <g transform="matrix(1,0,0,1,-907.642,-702.689)">
        <path d="M2857.14,1391.28C2855.87,1390.15 2855.09,1388.5 2855.13,1386.67C2855.2,1383.36 2857.94,1380.73 2861.25,1380.8C2864.14,1380.86 2866.42,1382.21 2867.9,1385.01C2868.74,1386.6 2869.3,1389.17 2869.21,1392.38C2868.99,1400.44 2865.11,1414.3 2863.88,1417.59C2862.71,1420.69 2859.25,1422.26 2856.15,1421.1C2853.05,1419.93 2851.48,1416.47 2852.64,1413.37C2853.55,1410.95 2856.14,1401.87 2856.98,1394.97C2857.12,1393.77 2857.15,1392.26 2857.14,1391.28Z"/>
    </g>
    <g transform="matrix(1,0,0,1,-907.642,-702.689)">
        <path d="M2856.82,1477.02C2855.74,1475.91 2855.1,1474.38 2855.13,1472.72C2855.2,1469.41 2857.94,1466.78 2861.25,1466.84C2864.28,1466.91 2866.2,1468.07 2867.48,1469.42C2868.89,1470.91 2869.7,1472.89 2869.7,1475.25C2869.69,1478.42 2867.58,1482.88 2865.9,1485.08C2863.89,1487.72 2860.13,1488.23 2857.49,1486.22C2854.86,1484.21 2854.35,1480.44 2856.36,1477.81C2856.49,1477.64 2856.65,1477.35 2856.82,1477.02Z"/>
    </g>
    <g transform="matrix(1,0,0,1,-907.642,-702.689)">
        <path d="M2861.58,1533.05C2861.11,1532.17 2860.84,1531.16 2860.87,1530.08C2860.93,1526.77 2863.68,1524.14 2866.99,1524.21C2868.01,1524.23 2872.06,1525.01 2873.22,1530.1C2874.86,1537.2 2877.32,1572.86 2878.44,1577.58C2879.2,1580.8 2877.21,1584.04 2873.99,1584.8C2870.77,1585.57 2867.53,1583.58 2866.76,1580.36C2865.65,1575.69 2863.22,1540.77 2861.58,1533.05ZM2863.58,1535.22C2864.64,1535.96 2865.75,1536.18 2866.74,1536.21C2865.57,1536.18 2864.49,1535.82 2863.58,1535.22Z"/>
    </g>
    <g transform="matrix(1,0,0,1,-907.642,-702.689)">
        <path d="M2869.47,1629.98C2867.71,1628.9 2866.56,1626.94 2866.6,1624.74C2866.67,1621.42 2869.41,1618.79 2872.72,1618.86C2875.55,1618.92 2878.9,1620.91 2880.63,1625.36C2881.94,1628.72 2882.53,1633.78 2882.18,1637.25C2881.93,1639.82 2881.07,1641.78 2880.2,1642.89C2878.16,1645.5 2874.38,1645.97 2871.77,1643.93C2869.43,1642.09 2868.82,1638.85 2870.2,1636.32C2870.23,1635.85 2870.3,1634.17 2870.18,1633.03C2870.07,1632.09 2869.7,1630.75 2869.47,1629.98Z"/>
    </g>
    <g transform="matrix(1,0,0,1,-907.642,-702.689)">
        <path d="M2865.96,1669.68C2864.57,1668.55 2863.7,1666.82 2863.73,1664.89C2863.8,1661.58 2866.55,1658.95 2869.86,1659.01C2873.45,1659.09 2875.3,1660.5 2876.45,1661.87C2877.47,1663.1 2878.1,1664.61 2878.21,1666.47C2878.28,1667.61 2877.92,1669.14 2877.92,1670.79C2877.92,1681.21 2881.39,1719.84 2878.29,1741.97C2877.34,1748.72 2875.68,1754.11 2873.49,1757.37C2870.95,1761.15 2867.64,1762.87 2863.87,1762.79C2860.56,1762.73 2857.93,1759.98 2858,1756.67C2858.06,1753.61 2860.41,1751.14 2863.37,1750.83C2863.64,1750.39 2864.22,1749.42 2864.52,1748.62C2865.36,1746.39 2865.95,1743.55 2866.41,1740.3C2869.44,1718.69 2865.92,1680.96 2865.92,1670.79C2865.92,1670.46 2865.94,1670.08 2865.96,1669.68Z"/>
    </g>
    <g transform="matrix(1,0,0,1,-907.642,-702.689)">
        <path d="M2855.86,1742.45C2855.37,1741.57 2855.11,1740.54 2855.13,1739.46C2855.2,1736.15 2857.94,1733.52 2861.25,1733.59C2866.68,1733.7 2869.74,1737.98 2869.78,1742.46C2869.82,1747.09 2866.78,1751.44 2861,1751.32C2857.69,1751.25 2855.06,1748.51 2855.13,1745.2C2855.15,1744.2 2855.41,1743.27 2855.86,1742.45ZM2861.03,1739.33L2861.25,1739.32C2861.18,1739.32 2861.11,1739.32 2861.03,1739.33Z"/>
    </g>
    <g transform="matrix(1,0,0,1,-907.642,-702.689)">
        <path d="M2798.51,1254.84C2799.55,1252.94 2801.59,1251.67 2803.9,1251.73C2807.81,1251.82 2809.37,1253.71 2809.94,1254.49C2811.34,1256.44 2811.73,1258.71 2810.24,1261.26C2809.82,1261.99 2808.76,1263.27 2806.8,1264.31C2804.79,1265.39 2799.03,1267.77 2797.93,1268.23C2788.66,1277.26 2771.33,1287.32 2756.53,1294.69C2720.34,1312.72 2684.8,1326.14 2649.98,1343.45C2576.28,1380.09 2508.19,1437.1 2431.15,1475.39C2393.58,1494.07 2357.93,1511.64 2322.38,1535.25C2287.04,1558.72 2208.06,1662.86 2195.18,1701.37C2188.07,1722.62 2188.03,1748.45 2180.78,1770.2C2179.41,1774.32 2179.46,1781.77 2180.18,1790.86C2181.36,1805.78 2184.68,1824.75 2188.8,1841.53C2191.52,1852.6 2194.57,1862.71 2197.6,1870.03C2199.29,1874.1 2200.81,1877.22 2202.37,1878.78C2209.95,1886.33 2215.93,1889.82 2223.61,1897.12C2223.89,1897.09 2224.18,1897.07 2224.47,1897.08C2229.99,1897.15 2230.93,1901.13 2231.09,1901.75C2231.5,1903.41 2231.71,1906.9 2227.67,1908.75C2226.83,1909.14 2223.75,1909.8 2221.41,1909.47C2219.44,1909.19 2217.88,1908.31 2216.93,1907.36C2208.37,1898.83 2202.05,1895.4 2193.9,1887.28C2192.1,1885.49 2190.12,1882.48 2188.19,1878.42C2184.45,1870.53 2180.53,1858.16 2177.15,1844.39C2172.15,1824.02 2168.31,1800.56 2167.79,1784.3C2167.54,1776.56 2168.1,1770.31 2169.4,1766.4C2176.65,1744.65 2176.68,1718.82 2183.8,1697.56C2197.16,1657.62 2279.09,1549.6 2315.74,1525.25C2351.72,1501.36 2387.79,1483.55 2425.81,1464.65C2502.85,1426.35 2570.94,1369.34 2644.64,1332.71C2679.46,1315.4 2714.99,1301.98 2751.18,1283.95C2765.07,1277.03 2781.49,1267.71 2789.93,1259.27C2790.51,1258.69 2791.97,1257.69 2794.01,1256.79C2795.16,1256.28 2796.98,1255.5 2798.51,1254.84Z"/>
    </g>
    <g transform="matrix(1,0,0,1,-907.642,-702.689)">
        <path d="M2455.5,1803.58C2475.89,1802.23 2497.92,1809.11 2514.64,1817.44C2523.74,1821.97 2537.51,1826.15 2549,1832.59C2557.7,1837.46 2565.12,1843.62 2569.17,1851.66C2582.36,1877.83 2574.18,1904.27 2556.11,1927.43C2530.5,1960.25 2484.94,1986.31 2459.18,1994.86C2440.82,2000.96 2408.31,1994.51 2392.07,1989.12C2327.95,1967.86 2289.56,1893.2 2334.42,1833.54C2355.76,1805.16 2383.69,1793.86 2416.95,1793.86C2427.66,1793.86 2443.52,1799.5 2453.39,1802.77C2453.92,1802.95 2454.68,1803.24 2455.5,1803.58ZM2433.67,1808.94C2427.78,1807.22 2421.79,1805.86 2416.95,1805.86C2387.58,1805.86 2362.85,1815.7 2344.01,1840.76C2304.41,1893.42 2339.25,1958.97 2395.85,1977.73C2410.27,1982.52 2439.09,1988.89 2455.4,1983.47C2479.65,1975.42 2522.55,1950.93 2546.64,1920.05C2561.71,1900.74 2569.44,1878.88 2558.45,1857.06C2554.58,1849.38 2546.34,1844.38 2537.63,1840.22C2527.62,1835.45 2516.84,1831.94 2509.29,1828.18C2495.78,1821.45 2478.35,1815.38 2461.73,1815.24C2460.79,1816.42 2459.14,1817.51 2456.23,1817.27C2454.89,1817.16 2453.68,1816.62 2452.74,1815.79C2448.02,1816.43 2443.43,1817.67 2439.11,1819.62C2436.09,1820.99 2432.54,1819.65 2431.17,1816.64C2429.88,1813.79 2431,1810.45 2433.67,1808.94Z"/>
    </g>
    <g transform="matrix(1.35703,0,0,1.47848,-1892.61,-1434.31)">
        <path d="M2819.35,1359.02C2817.67,1358.41 2816.51,1356.89 2816.55,1355.15C2816.61,1352.91 2818.64,1351.13 2821.08,1351.19C2824.47,1351.27 2826.32,1352.21 2827.33,1353.18C2828.66,1354.47 2829.42,1356.38 2828.56,1359.33C2827.92,1361.5 2826.03,1365.07 2824.33,1370.71C2811.55,1413.14 2797.79,1456.44 2786.95,1499.61C2776.82,1540.01 2722.19,1701.68 2693.91,1764.66C2688.79,1776.06 2684.46,1784.31 2681.4,1788.24C2678.9,1791.45 2676.23,1792.42 2674.64,1792.4C2672.2,1792.38 2670.25,1790.54 2670.27,1788.3C2670.3,1786.51 2671.58,1785 2673.35,1784.48C2673.77,1783.98 2675.1,1782.36 2676.16,1780.64C2678.77,1776.39 2682.01,1769.85 2685.73,1761.57C2713.88,1698.89 2768.25,1537.99 2778.34,1497.79C2789.2,1454.51 2802.99,1411.09 2815.8,1368.55C2817.07,1364.35 2818.43,1361.26 2819.35,1359.02Z"/>
    </g>
    <path d="M1533.07,1294.51C1531.23,1293.47 1530,1291.49 1530.02,1289.23C1530.04,1285.92 1532.75,1283.25 1536.07,1283.28C1540.36,1283.31 1543.14,1285.65 1544.45,1289.82C1545.64,1293.58 1544.72,1300.32 1544.73,1303.63C1544.79,1363.87 1562,1425.55 1562,1487.21C1562,1522.85 1558.98,1560.35 1564.81,1595.21C1566.26,1603.84 1571.03,1615.03 1571.05,1620.92C1571.06,1624.51 1569.8,1627.08 1567.93,1628.71C1566.48,1629.98 1564.51,1630.88 1561.78,1630.86C1558.47,1630.83 1555.8,1628.12 1555.83,1624.81C1555.85,1622.6 1557.06,1620.68 1558.84,1619.66C1558.71,1618.7 1558.51,1617.49 1558.26,1616.51C1556.75,1610.67 1554,1603.29 1552.98,1597.19C1547.04,1561.69 1550,1523.51 1550,1487.21C1550,1425.56 1532.79,1363.88 1532.73,1303.65C1532.73,1302.12 1532.99,1299.8 1533.12,1297.43C1533.17,1296.59 1533.12,1295.38 1533.07,1294.51Z"/>
    <path d="M1676.5,1540.35C1671.05,1535.25 1634.25,1500.81 1627.03,1494.65C1609.36,1479.56 1598.63,1459.16 1587.06,1442.4C1576.93,1427.73 1566.25,1415.89 1547.44,1415.74C1544.13,1415.71 1541.46,1413.01 1541.49,1409.69C1541.52,1406.38 1544.23,1403.72 1547.54,1403.74C1570.68,1403.93 1584.46,1417.53 1596.93,1435.58C1607.96,1451.55 1617.98,1471.15 1634.82,1485.52C1643,1492.5 1682.6,1527.47 1687.16,1534.34C1689.49,1537.84 1688.37,1540.68 1687.7,1541.79C1686.76,1543.36 1685.17,1544.84 1682.23,1544.81C1679.48,1544.78 1677.17,1542.9 1676.5,1540.35ZM1681.99,1532.82C1680.82,1532.87 1679.9,1533.2 1679.18,1533.69C1680.01,1533.18 1680.96,1532.87 1681.99,1532.82Z"/>
    <path d="M1533.71,1409.9C1533.18,1409 1532.88,1407.95 1532.88,1406.83C1532.91,1403.51 1535.62,1400.85 1538.93,1400.87C1541.89,1400.9 1543.71,1402.12 1544.91,1403.57C1546.06,1404.97 1546.81,1406.89 1546.55,1409.41C1546.34,1411.41 1545.13,1414.45 1543.13,1417.75C1539.76,1423.3 1534.15,1430.24 1532.18,1433.18C1529.25,1437.56 1490.73,1477.94 1473.45,1493.87C1469.58,1497.44 1466.62,1499.85 1465.16,1500.7C1463.52,1501.65 1462.17,1501.8 1461.39,1501.79C1458.08,1501.76 1455.41,1499.04 1455.44,1495.73C1455.47,1493.19 1457.07,1491.03 1459.31,1490.18C1460.03,1489.61 1462.79,1487.38 1465.32,1485.05C1482.02,1469.65 1519.38,1430.73 1522.21,1426.5C1523.88,1424.02 1528.18,1418.64 1531.47,1413.72C1532.27,1412.52 1533.1,1411.04 1533.71,1409.9Z"/>
    <path d="M1680.43,1812.45C1681.53,1813.37 1682.3,1814.69 1682.5,1816.22C1683,1819.86 1680.94,1821.52 1679.34,1822.36C1678.22,1822.95 1676.38,1823.61 1673.97,1822.47C1673.7,1822.34 1672.52,1821.69 1671.1,1820C1665.77,1813.67 1638.43,1777.09 1633.9,1764.61C1622.57,1733.39 1611.78,1700.59 1596.74,1670.61C1593.75,1664.65 1587.2,1656.61 1581.95,1649.51C1577.84,1643.95 1574.5,1638.83 1573.35,1635.36C1572.3,1632.22 1574,1628.82 1577.14,1627.77C1580.28,1626.72 1583.68,1628.42 1584.73,1631.57C1585.63,1634.25 1588.42,1638.08 1591.6,1642.37C1597.27,1650.04 1604.23,1658.79 1607.46,1665.22C1622.72,1695.62 1633.69,1728.86 1645.18,1760.52C1649.43,1772.22 1675.28,1806.34 1680.28,1812.27L1680.43,1812.45ZM1671.14,1814.46C1670.74,1815.27 1670.41,1816.37 1670.61,1817.83C1670.45,1816.63 1670.65,1815.47 1671.14,1814.46ZM1674.23,1811.5C1673.35,1811.85 1672.62,1812.39 1672.02,1813.1C1672.62,1812.42 1673.37,1811.86 1674.23,1811.5Z"/>
    <path d="M1566.2,1631.97C1565.1,1630.87 1564.42,1629.35 1564.43,1627.68C1564.46,1624.37 1567.17,1621.7 1570.48,1621.73C1575.99,1621.77 1580.32,1625.98 1577.84,1635.42C1573.7,1651.22 1547.26,1693.09 1532.27,1716.98C1515.88,1743.11 1495.07,1778.63 1489.94,1809.43C1488.6,1817.43 1490,1833.77 1490,1833.77C1490.25,1836.82 1488.16,1839.58 1485.15,1840.15C1482.14,1840.73 1479.18,1838.95 1478.28,1836.02C1478.28,1836.02 1477.55,1833.64 1476.33,1831.25C1475.9,1830.41 1474.98,1829.15 1474.6,1828.65C1471.84,1828.1 1469.77,1825.65 1469.78,1822.74C1469.8,1819.43 1472.5,1816.75 1475.81,1816.76C1476.35,1816.77 1476.89,1816.82 1477.43,1816.93C1477.48,1813.44 1477.67,1810.06 1478.1,1807.46C1483.47,1775.24 1504.95,1737.94 1522.11,1710.61C1534.83,1690.33 1556.2,1656.8 1564.03,1638.47C1565,1636.19 1565.77,1633.57 1566.2,1631.97Z"/>
    <path d="M1894.24,528.948C1894.39,528.939 1894.55,528.937 1894.7,528.941L1894.88,528.949L1895.03,528.95C1895.18,528.953 1895.33,528.965 1895.49,528.988C1897.55,529.175 1898.75,529.869 1899.34,530.836C1903.39,534.051 1905.96,540.309 1896.66,540.9C1896.34,541.936 1895.97,543.244 1895.79,544.366C1894.98,549.317 1894.89,555.476 1895.86,559.32C1906.25,600.562 1923.76,621.806 1958.1,644.673C1960.86,646.508 1961.6,650.236 1959.77,652.992C1957.93,655.749 1954.21,656.497 1951.45,654.661C1914.3,629.925 1895.46,606.867 1884.22,562.252C1882.72,556.296 1882.92,546.157 1884.57,539.261C1885.52,535.315 1887.09,532.297 1888.67,530.721C1889.05,530.343 1890.1,529.281 1892.19,529.008C1892.49,528.968 1893.49,528.951 1894.24,528.948Z" style="fill:rgb(140,140,140);"/>
    <path d="M1844.15,516.627C1845.3,515.334 1846.99,514.541 1848.84,514.601C1852.51,514.718 1853.77,516.966 1854.33,518.239C1854.99,519.738 1855.51,522.162 1853.36,524.691C1853.03,525.073 1852.42,525.666 1851.51,526.258C1850.35,527.009 1847.98,528.195 1846.62,528.87C1845.31,529.523 1843.49,531.218 1841.82,533.168C1840.23,535.015 1838.71,537.098 1838.32,539.017C1834.92,556.026 1840.79,574.727 1844.09,591.153C1848.96,615.369 1868.83,661.31 1894.79,693.95C1911.18,714.564 1929.78,730.17 1948.89,729.715C1952.21,729.636 1954.96,732.26 1955.04,735.57C1955.12,738.881 1952.49,741.633 1949.18,741.712C1926.94,742.241 1904.47,725.398 1885.4,701.42C1858.16,667.177 1837.44,618.925 1832.33,593.52C1828.73,575.624 1822.85,555.195 1826.56,536.664C1827.28,533.038 1829.71,528.846 1832.71,525.355C1835.62,521.966 1838.99,519.263 1841.27,518.129C1841.93,517.802 1843.28,517.09 1844.15,516.627ZM1844.45,524.884C1845.23,525.757 1846.45,526.53 1848.46,526.595C1846.9,526.545 1845.49,525.9 1844.45,524.884Z" style="fill:rgb(140,140,140);"/>
    <path d="M1771.52,509.423C1772.53,507.309 1774.73,505.889 1777.21,505.999C1780.84,506.159 1782.29,508.023 1782.89,508.933C1784.16,510.854 1784.77,513.432 1782.53,516.284C1781.89,517.106 1779.6,518.735 1776.67,520.344C1774.86,521.339 1771.69,523.522 1771.32,523.778C1766.7,532.004 1761.59,543.54 1760.66,552.779C1757.33,586.142 1766.37,625.241 1777.65,656.254C1817.42,765.55 1870.68,813.567 1979.37,844.673C1982.56,845.584 1984.4,848.909 1983.49,852.093C1982.58,855.276 1979.25,857.121 1976.07,856.21C1863.09,823.876 1807.72,773.97 1766.38,660.357C1754.52,627.766 1745.22,586.645 1748.72,551.585C1749.8,540.797 1755.6,527.228 1760.97,517.686C1761.79,516.244 1763.3,514.652 1765.29,513.22C1766.94,512.036 1769.63,510.483 1771.52,509.423Z" style="fill:rgb(140,140,140);"/>
</svg>
