<?xml version="1.0" encoding="UTF-8" standalone="no"?>
<!DOCTYPE svg PUBLIC "-//W3C//DTD SVG 1.1//EN" "http://www.w3.org/Graphics/SVG/1.1/DTD/svg11.dtd">
<svg width="100%" height="100%" viewBox="0 0 3508 2481" version="1.1" xmlns="http://www.w3.org/2000/svg" xmlns:xlink="http://www.w3.org/1999/xlink" xml:space="preserve" xmlns:serif="http://www.serif.com/" style="fill-rule:evenodd;clip-rule:evenodd;stroke-linejoin:round;stroke-miterlimit:2;">
    <path d="M824.8,195.676C824.536,194.958 824.408,194.178 824.442,193.367C824.583,190.058 827.384,187.487 830.692,187.627C831.752,187.673 835.918,188.502 836.671,193.633C837.434,198.836 836.957,224.825 836.964,228.051C836.995,244.365 848.259,272.247 853.932,289.266C864.905,322.185 864.409,475.063 856.928,504.871C844.401,554.785 854.24,609.864 854.24,661.162C854.24,765.289 847.055,869.875 859.953,973.053C867.498,1033.41 855.269,1096.26 862.843,1156.62C883.708,1322.89 854.871,1495.41 871.487,1661.57C880.52,1751.91 869.984,1879.44 857.059,1969.91C855.615,1980.02 855.262,2033.41 849.891,2054.15C848.581,2059.2 846.713,2062.71 844.923,2064.41C843.034,2066.21 840.938,2066.91 838.802,2066.82C835.493,2066.69 832.914,2063.89 833.046,2060.59C833.143,2058.17 834.656,2056.15 836.753,2055.28C837.311,2053.58 839.15,2047.77 839.923,2042.66C843.563,2018.61 843.927,1976.99 845.18,1968.22C857.983,1878.59 868.495,1752.26 859.546,1662.76C842.94,1496.7 871.789,1324.29 850.936,1158.11C843.362,1097.75 855.591,1034.9 848.045,974.541C835.086,870.87 842.24,765.787 842.24,661.162C842.24,608.904 832.527,552.799 845.289,501.95C852.537,473.071 853.179,324.954 842.548,293.061C836.535,275.023 824.997,245.364 824.964,228.075C824.958,225.192 824.816,198.797 824.8,195.676ZM826.885,198.457C827.954,199.283 829.108,199.571 830.182,199.617C828.946,199.564 827.812,199.14 826.885,198.457Z"/>
    <path d="M689.871,1894.73C852.112,1895.37 1059.43,1893.62 1234.87,1871.76C1267.12,1867.75 1300.52,1872.91 1332.77,1868.9C1419.46,1858.1 1509.03,1860.35 1596.94,1860.35C1632.85,1860.35 1672.86,1855.23 1708.38,1860.29C1786.98,1871.47 1868.84,1860.59 1947.38,1871.76C2197.2,1907.31 2455.51,1891.98 2707.88,1914.83C2806.07,1923.72 2906.26,1909.56 3004.52,1917.71C3075.41,1923.6 3149.82,1919.15 3220.1,1929.15C3248.77,1933.23 3283.17,1941.01 3311.52,1940.62C3314.83,1940.58 3317.48,1937.85 3317.44,1934.54C3317.39,1931.23 3314.67,1928.58 3311.36,1928.62C3283.58,1929 3249.88,1921.27 3221.79,1917.27C3151.28,1907.23 3076.64,1911.66 3005.52,1905.76C2907.28,1897.6 2807.13,1911.77 2708.96,1902.88C2456.8,1880.05 2198.69,1895.4 1949.07,1859.88C1870.53,1848.7 1788.67,1859.59 1710.07,1848.41C1674.01,1843.28 1633.4,1848.35 1596.94,1848.35C1508.54,1848.35 1418.46,1846.13 1331.29,1856.99C1299.04,1861 1265.63,1855.84 1233.38,1859.86C1058.44,1881.65 851.703,1883.37 689.918,1882.73C686.607,1882.72 683.908,1885.4 683.895,1888.71C683.882,1892.02 686.56,1894.72 689.871,1894.73Z"/>
    <path d="M990.577,539.915C988.944,538.816 987.885,536.936 987.926,534.823C987.99,531.513 990.729,528.876 994.04,528.94C993.725,528.934 992.962,529.035 992.962,529.035C992.962,529.035 999.535,529.939 1000.65,532.718C1005.66,545.13 1008.33,557.932 1012.06,569.948C1015.44,580.874 1019.69,591.14 1028.13,599.547C1056.95,628.253 1090.93,659.246 1123.14,691.33C1136.09,704.234 1145.11,723.692 1155.57,742.396C1165.16,759.53 1175.98,776.079 1193.58,784.863C1205.03,790.575 1213.37,801.419 1221.57,812.443C1228.61,821.91 1235.5,831.555 1245.41,836.489C1257.22,842.372 1276,850.846 1291.62,861.591C1302.77,869.263 1312.28,878.152 1317.19,887.927C1321.65,896.811 1344.48,923.327 1365.38,944.912C1379.03,959.003 1391.76,971.05 1398.01,974.163C1535.1,1042.44 1678.81,1147 1798.26,1206.5C1846.08,1230.32 1913.89,1238.39 1973.75,1227.89C2013.2,1220.97 2049.24,1206 2073.53,1181.81C2090.17,1165.22 2096.86,1149.96 2113.85,1133.05C2117.38,1129.53 2121.63,1128.16 2126.14,1127.46C2128.05,1127.16 2130.01,1126.98 2131.91,1126.63C2133.68,1126.3 2135.45,1125.86 2136.87,1124.44C2139.12,1122.2 2141.47,1121.34 2143.74,1121.19C2146.59,1121.01 2149.57,1122.14 2152.35,1124.34C2154.74,1126.24 2158.62,1130.29 2159.63,1131.36C2162.15,1131.58 2165.22,1132.46 2167.03,1133.9C2169.04,1135.5 2170.13,1137.62 2170.14,1140.14C2170.17,1147.74 2178.86,1171.18 2188.59,1194.13C2198.34,1217.11 2209.16,1239.63 2214.47,1244.92C2215.89,1246.33 2218.13,1247.05 2220.56,1247.73C2223.96,1248.68 2227.76,1249.31 2231.31,1250.05C2237.02,1251.26 2242.13,1252.98 2245.34,1255.67C2246.6,1256.06 2254.19,1258.39 2259.15,1258.89C2260.91,1259.07 2263.41,1258.88 2264.05,1258.82C2267.74,1255.38 2273.67,1252.43 2280.33,1249.93C2289.16,1246.62 2299.35,1243.98 2305.46,1240.93C2321.46,1232.94 2358.86,1198.77 2373,1184.68C2413.08,1144.75 2439.8,1095.2 2473.79,1061.35C2474.81,1060.33 2476.04,1059.58 2477.41,1059.04C2478.1,1058.76 2479.42,1058.32 2479.85,1058.18C2482.82,1055.39 2488.17,1052.52 2495,1050.02C2509.52,1044.71 2531.16,1040.43 2546.46,1038.91C2553.48,1038.21 2559.25,1038.12 2562.64,1038.64C2565.68,1039.11 2567.62,1040.26 2568.64,1041.27C2569.58,1042.21 2570.9,1042.6 2572.29,1042.96C2574.63,1043.58 2577.2,1043.91 2579.66,1044.39C2584.33,1045.31 2588.62,1046.84 2591.66,1049.88C2599.35,1057.54 2638.61,1084.85 2666.1,1100.53C2673.01,1104.48 2679.17,1107.68 2683.85,1109.59C2686.1,1110.51 2687.82,1111.2 2688.96,1111.18C2692.27,1111.14 2694.99,1113.8 2695.03,1117.11C2695.08,1120.42 2692.42,1123.14 2689.11,1123.18C2687.38,1123.21 2684.91,1122.75 2681.89,1121.69C2676.6,1119.82 2668.93,1115.96 2660.15,1110.95C2631.7,1094.72 2591.15,1066.31 2583.19,1058.38C2582.24,1057.43 2580.9,1057.02 2579.49,1056.65C2577.15,1056.03 2574.59,1055.7 2572.14,1055.22C2567.91,1054.4 2564.01,1053.07 2561.07,1050.6C2559.62,1050.53 2553.2,1050.3 2547.65,1050.85C2533.23,1052.29 2512.81,1056.28 2499.12,1061.29C2494.11,1063.13 2490.05,1064.94 2488,1066.99C2486.98,1068.01 2485.75,1068.75 2484.38,1069.3C2483.7,1069.58 2482.41,1070.01 2481.96,1070.15C2448.12,1103.99 2421.44,1153.37 2381.47,1193.19C2366.71,1207.88 2327.51,1243.34 2310.82,1251.67C2304.42,1254.86 2293.79,1257.7 2284.55,1261.17C2279.43,1263.09 2274.74,1265.1 2272.05,1267.77C2270.88,1268.93 2269.26,1269.88 2267.18,1270.43C2264.44,1271.17 2260.52,1271.19 2256.41,1270.65C2250.29,1269.86 2243.68,1267.95 2240.87,1266.82C2239.11,1266.12 2238.07,1265.29 2237.66,1264.89C2236.72,1263.95 2235.23,1263.47 2233.57,1262.96C2231.03,1262.19 2228.11,1261.64 2225.17,1261.06C2217.63,1259.57 2210.14,1257.54 2206,1253.42C2200.27,1247.7 2188.07,1223.64 2177.55,1198.82C2168.11,1176.56 2160.03,1153.73 2158.43,1143.3L2158.39,1143.3C2156.89,1143.3 2155.24,1142.86 2153.56,1141.82C2151.85,1140.75 2149.87,1138.74 2147.85,1136.6C2146.95,1135.65 2145.44,1134.36 2144.59,1133.65C2141.16,1136.7 2137.16,1137.95 2132.97,1138.62C2131.04,1138.93 2129.07,1139.11 2127.17,1139.45C2125.42,1139.77 2123.7,1140.17 2122.32,1141.55C2105.33,1158.47 2098.64,1173.73 2081.99,1190.31C2056.11,1216.09 2017.86,1232.34 1975.82,1239.71C1913.43,1250.65 1842.76,1242.07 1792.91,1217.24C1673.46,1157.75 1529.75,1053.18 1392.66,984.904C1385.84,981.504 1371.67,968.649 1356.76,953.261C1334.84,930.627 1311.14,902.626 1306.46,893.311C1302.35,885.123 1294.15,877.903 1284.81,871.477C1269.7,861.076 1251.49,852.925 1240.06,847.23C1228.52,841.486 1220.14,830.625 1211.94,819.603C1204.9,810.136 1198.05,800.506 1188.22,795.6C1168.44,785.73 1155.87,767.507 1145.1,748.254C1135.21,730.572 1126.92,712.031 1114.67,699.832C1082.46,667.748 1048.48,636.755 1019.66,608.049C1009.77,598.199 1004.56,586.3 1000.59,573.499C997.235,562.661 994.789,551.157 990.577,539.915Z"/>
    <path d="M804.308,572.481C806.019,572.571 806.959,573.401 807.847,574.244C808.647,575.003 809.408,575.805 810.232,576.566C813.945,579.997 818.536,583.141 829.289,581.001C856.35,575.614 889.077,561.142 916.511,561.016C919.822,561.001 922.498,558.3 922.483,554.989C922.468,551.677 919.767,549.001 916.456,549.016C888.322,549.146 854.697,563.707 826.946,569.232C824.076,569.803 822.113,569.817 820.633,569.271C818.028,568.311 816.863,566.141 815.092,564.619C812.565,562.447 809.587,560.742 804.938,560.497C801.632,560.323 798.805,562.867 798.631,566.174C798.457,569.481 801.001,572.307 804.308,572.481Z"/>
    <path d="M612.817,629.788C612.504,627.807 611.658,622.777 610.515,618.389C606.611,603.408 599.519,582.198 597.787,577.002C596.897,574.332 595.651,569.423 596.142,566.758C596.553,564.524 597.681,562.911 599.156,561.857C600.281,561.054 601.681,560.5 603.479,560.5C604.512,560.5 606.378,560.723 608.195,562.594C609.909,564.359 614.952,573.556 619.32,583.14C623.143,591.525 626.493,600.168 627.096,603.968C627.649,607.453 626.411,609.667 625.513,610.663C624.407,611.889 622.908,612.552 621.378,612.634C622.855,618.055 624.027,622.923 624.567,626.373C624.965,628.92 625.021,630.918 624.853,632.177C624.629,633.861 624.017,635.051 623.412,635.85C622.058,637.64 620.284,638.467 618.163,638.458C614.852,638.443 612.175,635.743 612.19,632.432C612.194,631.482 612.419,630.584 612.817,629.788ZM617.445,626.504L617.401,626.511L617.515,626.497L617.445,626.504ZM617.697,626.478L617.649,626.483L617.838,626.469L617.697,626.478ZM617.927,626.464L618.216,626.458C618.119,626.457 618.022,626.459 617.927,626.464Z"/>
    <path d="M655.214,555.054C655.201,552.858 656.399,550.736 658.487,549.671C679.224,539.095 692.121,541.592 698.915,548.37C705.377,554.817 707.203,566.352 704.552,578.574C700.877,595.518 688.925,613.302 674.496,618.087C666.926,620.597 661.139,619.896 656.713,617.58C652.241,615.238 648.976,611.069 646.858,605.723C641.942,593.319 643.54,573.736 643.549,566.492C643.554,563.046 645.264,560.415 646.993,558.637C647.852,556.359 650.057,554.742 652.633,554.753C653.66,554.757 654.512,554.875 655.214,555.054ZM655.545,566.855C655.493,572.521 654.347,585.444 656.492,595.988C657.46,600.749 658.814,605.134 662.278,606.948C664.379,608.048 667.126,607.888 670.719,606.697C681.706,603.053 690.026,588.933 692.825,576.031C694.491,568.348 694.501,560.917 690.44,556.865C688.652,555.082 686.003,554.284 682.506,554.415C677.639,554.597 671.533,556.488 663.939,560.361C662.627,561.03 661.182,561.17 659.851,560.857C659.851,561.037 659.841,561.218 659.825,561.4C659.73,562.45 659.381,564.29 657.302,565.797C657.09,565.952 656.769,566.16 656.341,566.387C656.203,566.46 655.791,566.707 655.545,566.855Z"/>
    <path d="M732.56,565.811C730.655,564.594 729.521,562.346 729.839,559.96C730.276,556.677 733.297,554.368 736.579,554.805C738.435,555.053 740.311,555.974 741.884,557.985C743.198,559.664 744.488,562.818 745.556,566.862C747.089,572.67 748.525,580.813 751.183,586.956C752.255,589.433 753.199,591.729 755.121,592.367C763.625,595.191 771.99,592.82 779.219,588.037C791.022,580.228 800.004,566.068 802.151,554.285C803.069,549.246 802.936,544.673 800.111,541.94C797.064,538.992 791.641,538.741 783.441,540.783C777.471,542.27 769.578,545.893 767.115,551.643C765.811,554.687 762.281,556.099 759.237,554.795C756.193,553.491 754.781,549.961 756.085,546.917C759.883,538.051 771.336,531.431 780.541,529.139C794.392,525.69 803.308,528.336 808.455,533.315C813.821,538.507 815.7,546.864 813.957,556.435C811.315,570.936 800.366,588.435 785.84,598.045C775.516,604.876 763.485,607.789 751.34,603.756C747.16,602.368 743.685,598.837 741.147,593.814C738.369,588.314 736.585,580.862 735.067,574.455C734.308,571.251 733.001,567.161 732.56,565.811Z"/>
    <path d="M431.524,1067.81C431.833,1064.77 434.412,1062.41 437.529,1062.43C440.448,1062.44 442.005,1063.87 442.937,1065.26C443.866,1066.65 444.717,1069.06 443.189,1072.11C441.791,1074.9 434.033,1082.22 432.08,1084.16C426.122,1090.1 412.672,1095.23 400.991,1094.6C392.099,1094.13 384.366,1090.44 380.527,1082.83C374.789,1071.44 371.725,1054.83 374.211,1041.07C376.995,1025.66 386.24,1013.68 404.788,1013.68C411.107,1013.68 415.722,1018.41 416.689,1021.71C417.512,1024.53 416.82,1027.03 415.1,1028.89C413.937,1030.15 412.002,1031.42 408.772,1031.4C405.593,1031.38 403.003,1028.89 402.822,1025.76C392.566,1026.6 387.659,1034.12 386.02,1043.2C383.982,1054.48 386.54,1068.09 391.243,1077.43C393.132,1081.17 397.258,1082.38 401.632,1082.62C409.844,1083.06 419.423,1079.83 423.612,1075.66C424.637,1074.64 427.551,1071.98 429.982,1069.49C430.49,1068.97 431.06,1068.34 431.524,1067.81ZM437.01,1074.41L437.091,1074.41L436.879,1074.39L437.01,1074.41ZM435.725,1074.16C436.052,1074.27 436.411,1074.35 436.804,1074.38C436.433,1074.34 436.072,1074.27 435.725,1074.16Z"/>
    <g transform="matrix(1,0,0,1,-11.2263,8.8175)">
        <path d="M351.33,955.244C350.943,953.615 350.241,950.41 350.286,948.773C350.369,945.679 351.726,943.44 353.731,942.116C355.433,940.991 358.774,939.852 364.294,942.601C372.604,946.74 384.532,959.862 398.374,975.729C417.631,997.802 441.152,1025.33 465.085,1037.25C472.545,1040.97 480.283,1043.12 483.41,1044.32C485.931,1045.28 487.193,1046.6 487.613,1047.2C488.761,1048.82 488.912,1050.42 488.654,1051.85C488.414,1053.18 487.779,1054.6 486.169,1055.76C485.664,1056.12 484.868,1056.59 483.639,1056.86C482.774,1057.06 480.862,1057.22 477.634,1057.22C474.987,1057.21 472.743,1055.49 471.953,1053.11C468.194,1051.74 463.632,1049.93 459.735,1047.99C434.576,1035.46 409.575,1006.82 389.332,983.617C379.22,972.027 370.483,961.812 363.543,956.361C363.453,957.908 362.926,959.059 362.429,959.793C361.253,961.529 359.571,962.583 357.139,962.565C353.828,962.541 351.159,959.833 351.183,956.522C351.186,956.083 351.236,955.656 351.33,955.244ZM356.9,950.572C355.922,950.609 355.087,950.852 354.373,951.264C355.134,950.859 355.991,950.614 356.9,950.572Z"/>
    </g>
    <path d="M385.731,972.527C384.7,971.402 383.561,970.131 383.102,969.521C381.773,967.755 381.519,966.104 381.523,965.158C381.534,962.32 382.915,960.963 383.802,960.237C385.327,958.99 387.238,958.391 389.6,959.164C390.303,959.394 391.421,959.924 392.504,961.072C393.12,961.725 394.064,963.216 394.648,963.798C399.717,968.848 442.948,1002.02 462.73,1015.07C465.873,1017.14 469.453,1019.12 470.143,1019.5C472.9,1020.02 475.005,1022.42 475.042,1025.33C475.084,1028.64 472.43,1031.36 469.119,1031.4C468.4,1031.41 467.317,1031.29 465.964,1030.77C464.144,1030.08 460.651,1028.07 456.123,1025.09C440.234,1014.61 409.666,991.455 394.564,979.349C393.739,979.618 392.75,979.782 391.561,979.774C388.25,979.752 385.579,977.046 385.601,973.735C385.604,973.321 385.649,972.917 385.731,972.527Z"/>
    <path d="M384.571,969.456C384.451,967.126 384.161,961.422 384.024,958.34C383.878,955.071 384.344,952.426 385.051,951.017C391.978,937.217 400.566,929.042 413.653,922.524C416.506,921.103 419.034,921.007 421.218,921.602C425.003,922.634 428.532,926.655 430.164,933.32C431.145,937.327 431.621,942.457 431.801,947.722C448.8,934.475 474.836,933.261 491.918,946.035C510.54,959.961 516.788,974.519 516.41,987.512C515.845,1006.94 499.788,1023.74 483.815,1031.76C476.725,1035.32 469.688,1037.13 464.104,1037C459.153,1036.88 455.136,1035.27 452.386,1032.52C448.95,1029.09 448.693,1024.05 452.31,1018.53C454.853,1014.66 459.598,1010.18 463.253,1006.52C464.497,1005.28 466.056,1003.45 466.33,1003.13C467.461,1000.24 470.641,998.669 473.654,999.583C476.822,1000.55 478.614,1003.9 477.652,1007.07C477.283,1008.28 476.352,1009.96 474.786,1011.78C472.714,1014.19 469.203,1017.39 466.104,1020.63C464.941,1021.85 463.574,1023.67 462.673,1024.92C463.683,1025.12 464.893,1025.05 466.197,1024.93C469.862,1024.6 474.116,1023.2 478.432,1021.03C490.84,1014.81 503.976,1002.26 504.415,987.163C504.707,977.139 499.097,966.388 484.731,955.645C468.744,943.69 442.297,947.898 431.541,965.686C431.266,970.852 430.925,974.385 430.925,974.385C430.63,977.329 428.233,979.617 425.279,979.777C422.325,979.937 419.696,977.92 419.085,975.025C419.085,975.025 418.316,971.332 418.398,968.02C418.451,965.903 418.886,963.92 419.604,962.49L419.743,962.218C420.025,956.021 420.125,948.232 419.419,941.695C419.163,939.328 418.805,937.141 418.279,935.307C418.152,934.867 417.948,934.357 417.75,933.906C407.981,939.011 401.391,945.431 396.04,955.884C396.089,956.854 396.345,961.864 396.568,964.956C396.814,968.367 396.76,971.546 396.218,973.578C395.053,977.949 392.211,979.798 388.693,979.774C385.381,979.752 382.711,977.046 382.733,973.734C382.744,972.053 383.447,970.538 384.571,969.456ZM388.538,967.779L388.773,967.775C388.694,967.774 388.616,967.776 388.538,967.779Z"/>
    <path d="M762.323,1028.4C763.139,1028.09 764.037,1027.95 764.966,1028.03C768.03,1028.28 769.346,1029.35 769.605,1029.57C771.6,1031.2 771.919,1033.12 771.785,1034.72C771.713,1035.58 771.179,1039.46 766.546,1040.22C764.45,1040.56 749.425,1040.64 743.69,1039.97C740.401,1039.58 738.045,1036.6 738.432,1033.31C738.819,1030.02 741.803,1027.66 745.092,1028.05C748.787,1028.48 758.012,1028.45 762.323,1028.4Z"/>
    <path d="M772.63,1034.25C815.635,1037.44 858.969,1040.2 902.169,1040.01C905.481,1039.99 908.157,1037.29 908.142,1033.98C908.127,1030.67 905.426,1027.99 902.115,1028.01C859.228,1028.2 816.209,1025.45 773.516,1022.29C770.214,1022.04 767.334,1024.53 767.089,1027.83C766.845,1031.13 769.327,1034.01 772.63,1034.25Z"/>
    <path d="M652.328,977.273C653.249,976.702 654.337,976.374 655.501,976.379C658.45,976.391 659.732,976.454 659.828,976.472C662.456,976.949 663.421,978.535 663.797,979.116C664.5,980.202 664.773,981.327 664.76,982.448C664.745,983.714 664.39,985.126 663.165,986.451C663.043,986.584 661.978,988.073 659.283,988.36C658.506,988.443 653.283,988.808 648.609,990.563C647.468,990.991 646.358,991.501 645.406,992.15C644.36,992.863 643.49,993.794 643.861,995.266C645.29,1000.94 651.26,1011.68 658.961,1021.61C668.391,1019.01 680.047,1017.84 688.849,1019.14C696.766,1020.31 702.523,1023.76 704.801,1028.53C706.502,1032.09 706.752,1036.7 703.877,1042.45C700.397,1049.41 695.81,1052.96 690.93,1054.35C684.112,1056.28 676.004,1053.76 668.055,1047.88C663.653,1044.62 659.251,1040.34 655.109,1035.61C653.453,1036.36 652.117,1037.18 651.249,1038.11C648.985,1040.53 645.185,1040.65 642.769,1038.38C640.352,1036.12 640.229,1032.32 642.494,1029.9C643.697,1028.62 645.421,1027.34 647.551,1026.14C639.69,1015.39 633.751,1004.25 632.225,998.197C630.176,990.066 634.229,984.539 640.54,981.078C644.059,979.147 648.709,977.961 652.328,977.273ZM667.899,1031.85C670.298,1034.25 672.751,1036.42 675.197,1038.23C679.634,1041.52 683.85,1043.88 687.656,1042.8C689.856,1042.18 691.576,1040.22 693.144,1037.08C693.861,1035.65 694.399,1034.59 693.975,1033.7C693.709,1033.15 693.106,1032.84 692.45,1032.51C690.989,1031.77 689.15,1031.31 687.096,1031.01C681.459,1030.18 674.424,1030.62 667.899,1031.85Z"/>
    <path d="M706.762,980.323C704.285,981.315 701.68,982.697 698.95,984.509C696.192,986.341 692.465,985.589 690.633,982.83C688.801,980.072 689.553,976.345 692.312,974.513C704.981,966.099 715.979,964.998 724.691,967.473C738.189,971.309 746.668,984.156 748.288,995.577C749.322,1002.87 747.541,1009.51 743.477,1013.62C739.336,1017.81 732.539,1020.09 722.559,1016.78C710.607,1012.82 705.165,1001.39 705.077,990.624C705.047,986.973 705.653,983.441 706.762,980.323ZM719.127,981.994C717.676,984.145 717.05,987.295 717.076,990.525C717.125,996.519 719.683,1003.18 726.336,1005.39C730.396,1006.74 733.255,1006.89 734.94,1005.19C736.694,1003.41 736.853,1000.41 736.407,997.262C735.638,991.844 732.575,985.841 727.536,982.074L727.34,982.172C727.179,982.246 725.845,983.068 723.137,982.526C722.927,982.484 722.721,982.432 722.521,982.369L719.127,981.994Z"/>
    <path d="M807.184,1289.53C817.863,1290.08 828.818,1287.91 839.904,1285.53C850.056,1283.35 860.329,1280.98 870.619,1280.94C873.93,1280.92 876.607,1278.22 876.592,1274.91C876.577,1271.6 873.877,1268.92 870.565,1268.94C859.454,1268.99 848.345,1271.44 837.382,1273.8C827.353,1275.96 817.459,1278.04 807.799,1277.55C804.491,1277.38 801.669,1279.93 801.499,1283.23C801.33,1286.54 803.877,1289.36 807.184,1289.53Z"/>
    <path d="M612.033,1305.77C610.392,1304.69 609.312,1302.83 609.321,1300.72C609.336,1297.41 612.036,1294.74 615.348,1294.75C617.304,1294.76 618.838,1295.33 620.091,1296.19C622.087,1297.57 623.634,1300.11 624.001,1303.94C624.211,1306.15 624.071,1309.1 624.261,1312.29C624.46,1315.63 624.97,1319.43 627.88,1322.32C632.633,1327.06 638.966,1328.62 645.646,1329.21C652.845,1329.85 660.462,1329.3 667.55,1329.2C668.606,1327.45 670.525,1326.29 672.71,1326.3C675.79,1326.31 677.386,1327.27 678.134,1327.84C679.526,1328.91 680.188,1330.19 680.479,1331.48C680.827,1333.02 680.698,1334.85 679.386,1336.67C678.761,1337.54 677.374,1338.77 675.519,1339.65C673.567,1340.58 671.101,1341.18 669.717,1341.18C661.697,1341.18 652.88,1341.89 644.594,1341.17C635.05,1340.33 626.201,1337.59 619.412,1330.83C613.311,1324.75 612.295,1316.76 612.179,1310.16C612.154,1308.72 612.085,1306.94 612.033,1305.77Z"/>
    <path d="M655.52,1299.78C655.318,1299.17 655.21,1298.53 655.213,1297.86C655.226,1294.55 657.926,1291.87 661.237,1291.88C662.193,1291.89 665.008,1291.92 666.629,1295.29C666.701,1295.44 667.015,1296.23 667.346,1297.61C668.272,1301.47 671.306,1314.78 675.82,1327.02C678.557,1334.45 681.718,1341.53 685.469,1345.27C687.614,1347.41 690.083,1349.63 691.575,1351.32C692.837,1352.76 693.603,1354.1 693.943,1355.07C694.753,1357.38 694.318,1359.3 693.433,1360.78C692.583,1362.21 690.868,1364.13 687.003,1364.11C683.691,1364.1 681.014,1361.4 681.027,1358.09L681.035,1357.8L677,1353.77C673.405,1350.19 670.007,1344.33 667.109,1337.59C660.998,1323.37 656.812,1305.14 655.677,1300.41L655.52,1299.78Z"/>
    <path d="M678.421,1317.49C677.616,1317.93 676.698,1318.19 675.718,1318.22C672.408,1318.31 669.647,1315.7 669.556,1312.39C669.104,1295.93 682.063,1284.11 697.689,1279.43C713.178,1274.8 730.624,1277.61 738.643,1287.78C745.452,1296.42 746.745,1311.26 732.299,1332.8C729.298,1337.27 723.754,1341.04 717.546,1343.1C711.39,1345.14 704.681,1345.47 699.522,1343.75C692.175,1341.31 688.909,1335.43 686.898,1328.84C686.082,1326.16 685.489,1323.38 684.544,1321.02C683.954,1319.55 683.232,1318.23 681.266,1318.22C680.236,1318.22 679.266,1317.95 678.421,1317.49ZM682.376,1306.26C690.382,1306.67 694.002,1311.52 696.266,1318.14C697.169,1320.78 697.814,1323.76 698.77,1326.56C699.603,1329 700.541,1331.45 703.303,1332.37C706.304,1333.36 710.192,1332.89 713.772,1331.71C717.301,1330.54 720.627,1328.66 722.333,1326.11C727.794,1317.97 730.679,1311.19 731.432,1305.58C732.018,1301.21 731.221,1297.75 729.218,1295.21C727.276,1292.75 724.342,1291.18 720.996,1290.24C715.037,1288.57 707.811,1288.93 701.131,1290.93C692.711,1293.45 684.881,1298.58 682.376,1306.26Z"/>
    <path d="M1986.04,1858.45C1986.91,1876.37 1990.84,1893.14 1992.31,1911.19C1992.57,1914.5 1990.11,1917.39 1986.81,1917.66C1983.51,1917.93 1980.61,1915.46 1980.34,1912.16C1978.67,1891.46 1973.86,1872.42 1973.86,1851.48L1973.86,1837.14C1973.86,1834.24 1975.94,1831.75 1978.79,1831.24C1981.65,1830.72 1984.46,1832.32 1985.48,1835.04C1985.48,1835.04 1989.04,1844.87 1988.96,1850.72C1988.91,1854.26 1987.85,1856.86 1986.04,1858.45Z"/>
    <path d="M1934.44,2028.99L1934.35,2028.46C1932.45,2018.48 1919.24,1973.22 1916.58,1965.24C1914.92,1960.26 1913.45,1949.82 1913.45,1949.82C1913.07,1947.06 1914.64,1944.4 1917.24,1943.4C1919.84,1942.4 1922.78,1943.32 1924.35,1945.62C1924.35,1945.62 1928.97,1952.41 1931.71,1958.36C1933.26,1961.72 1934.14,1964.94 1934.1,1967.11C1934.06,1969.46 1933.23,1971.26 1932.04,1972.56C1931.88,1972.74 1931.71,1972.91 1931.53,1973.08C1936.56,1989.99 1944.66,2018.47 1946.14,2026.21C1946.86,2029.98 1945.67,2032.26 1945.34,2032.73C1943.43,2035.44 1939.69,2036.09 1936.98,2034.18C1935.24,2032.96 1934.35,2030.97 1934.44,2028.99Z"/>
    <path d="M1942.41,1965.11C1941.02,1963.99 1940.14,1962.26 1940.17,1960.34C1940.23,1957.03 1942.96,1954.38 1946.27,1954.44C1948.43,1954.48 1950.09,1955.23 1951.41,1956.37C1952.82,1957.59 1953.92,1959.46 1954.33,1961.97C1954.53,1963.22 1954.54,1964.75 1954.45,1966.37C1956.62,1964.02 1960.1,1962.07 1966.87,1960.39C1985.62,1955.71 1996,1961.54 2000.71,1969.66C2005.12,1977.28 2004.66,1987.93 2000.35,1996.8C1996.44,2004.86 1989.49,2011.25 1981.13,2012.87C1975.41,2013.98 1968.93,2013 1962.15,2008.49C1950.61,2000.83 1946.42,1988.39 1942.51,1976.72C1942,1975.2 1941.87,1972.78 1942.1,1970.06C1942.22,1968.7 1942.34,1966.49 1942.41,1965.11ZM1958.14,1984.87C1960.42,1990.14 1963.54,1995.01 1968.79,1998.5C1972.41,2000.89 1975.8,2001.68 1978.84,2001.09C1983.63,2000.16 1987.32,1996.17 1989.56,1991.56C1992.08,1986.36 1992.91,1980.14 1990.32,1975.68C1987.52,1970.84 1980.93,1969.25 1969.77,1972.03C1966.43,1972.86 1964.52,1973.52 1963.38,1974.61C1962.33,1975.6 1962.07,1976.88 1961.44,1978.38C1960.66,1980.25 1959.71,1982.38 1958.14,1984.87ZM1945.87,1966.43C1945.93,1966.43 1946,1966.44 1946.07,1966.44L1945.87,1966.43Z"/>
    <path d="M2036.57,1975.6C2036.28,1974.75 2035.98,1973.94 2035.65,1973.18C2034.81,1971.2 2034.16,1969.34 2032.13,1969.31C2028.82,1969.26 2026.17,1966.53 2026.22,1963.22C2026.26,1959.91 2028.99,1957.26 2032.3,1957.31C2040.9,1957.43 2045.58,1964.07 2048.61,1973.84C2048.77,1974.36 2048.93,1974.88 2049.08,1975.41C2050.16,1975.62 2051.24,1975.88 2052.3,1976.18C2061.84,1978.92 2070.49,1985.64 2075.04,1991.67C2077.32,1994.69 2078.63,1997.66 2079.01,2000.04C2079.47,2002.99 2078.78,2005.46 2077.32,2007.37C2075.98,2009.12 2073.85,2010.6 2070.47,2011.02C2067.86,2011.34 2063.97,2010.96 2058.62,2009.19C2048.19,2005.73 2043.31,1996.71 2040.12,1987.24C2036.9,1987.91 2033.81,1989.66 2031.12,1992.93C2029.01,1995.49 2025.23,1995.86 2022.67,1993.76C2020.11,1991.65 2019.74,1987.87 2021.85,1985.31C2026.26,1979.94 2031.32,1976.91 2036.57,1975.6ZM2053.93,1989.66C2055.72,1993.25 2058.17,1996.4 2062.39,1997.8C2063.03,1998.01 2063.7,1998.19 2064.35,1998.35C2062.13,1995.77 2058.84,1992.38 2055.55,1990.52C2055.02,1990.22 2054.48,1989.93 2053.93,1989.66Z"/>
    <path d="M2086.48,1968.44C2086.11,1968.22 2085.76,1967.96 2085.44,1967.65C2083.04,1965.36 2082.95,1961.56 2085.24,1959.16C2101.11,1942.54 2111.49,1937.26 2135.32,1937.26C2159.56,1937.26 2170.02,1945.83 2172.78,1955.45C2175.37,1964.49 2171.24,1976.01 2162.89,1985.89C2156.04,1993.99 2146.54,2001.02 2136.96,2004.61C2129.97,2007.23 2122.91,2008.01 2116.65,2006.45C2103.32,2003.13 2094.14,1996.7 2089.36,1982.46C2088.77,1980.71 2088.65,1978.66 2088.86,1976.55C2088.93,1975.86 2089.05,1974.91 2089.16,1974.06C2087.5,1972.97 2086.42,1971.09 2086.45,1968.97C2086.45,1968.79 2086.46,1968.61 2086.48,1968.44ZM2097.15,1964.17C2098,1964.65 2098.68,1965.24 2099.24,1965.87C2100.56,1967.34 2101.35,1969.32 2101.41,1971.75C2101.45,1973.06 2101.24,1974.61 2101.01,1976.2C2100.88,1977.05 2100.5,1977.93 2100.74,1978.64C2104,1988.36 2110.45,1992.54 2119.54,1994.8C2123.62,1995.82 2128.2,1995.07 2132.76,1993.37C2140.51,1990.46 2148.17,1984.71 2153.72,1978.14C2159.15,1971.72 2162.93,1964.63 2161.24,1958.75C2160.51,1956.21 2158.52,1954.16 2155.26,1952.6C2150.73,1950.42 2144.21,1949.26 2135.32,1949.26C2117.26,1949.26 2108.57,1952.98 2097.15,1964.17Z"/>
    <g transform="matrix(1,0,0,1.76141,0,-1576.01)">
        <path d="M1809.5,2093.15L1809.74,2089.7C1809.6,2087.91 1811.91,2086.37 1815.04,2086.16C1818.16,2085.95 1821.04,2087.15 1821.63,2088.91C1821.63,2088.91 1823.55,2094.64 1824.51,2097.51C1830.44,2115.24 1838.89,2133.26 1843.13,2152.18C1843.55,2154.04 1841.22,2155.75 1837.93,2155.99C1834.65,2156.22 1831.64,2154.9 1831.23,2153.04C1827.02,2134.26 1818.61,2116.38 1812.72,2098.78L1812.63,2098.53C1810.01,2098.12 1808.12,2096.72 1808.24,2095.11C1808.29,2094.37 1808.75,2093.69 1809.5,2093.15Z"/>
    </g>
    <path d="M1831.24,2091.51C1830.75,2088.48 1826.99,2065.43 1827.01,2060.84C1827.02,2058.07 1828.33,2056.72 1829.05,2056.07C1830.49,2054.75 1832.2,2054.23 1834.19,2054.57C1835.07,2054.72 1836.88,2055.23 1838.39,2057.31C1839.91,2059.42 1844.03,2069.3 1844.35,2070.1C1849.61,2083.2 1853.19,2097.3 1858.7,2110.12C1867.59,2130.77 1880.01,2149.7 1890.21,2170.03C1892.15,2173.9 1899.07,2182.33 1901.77,2186.75C1903.25,2189.15 1903.76,2191.17 1903.79,2192.18C1903.85,2194.23 1903.08,2195.69 1902.11,2196.74C1901.06,2197.87 1899.57,2198.8 1897.3,2198.76C1894.12,2198.7 1891.55,2196.17 1891.42,2193.03C1889.17,2189.95 1881.37,2179.16 1879.49,2175.41C1869.18,2154.87 1856.65,2135.72 1847.68,2114.86C1845.18,2109.06 1843.08,2103.01 1841.04,2096.9C1839.53,2098.11 1837.7,2098.39 1837.05,2098.37C1833.74,2098.3 1831.11,2095.56 1831.18,2092.25C1831.18,2092 1831.2,2091.75 1831.24,2091.51ZM1897.16,2186.77C1896.16,2186.8 1895.33,2187.05 1894.65,2187.43C1895.41,2187.04 1896.26,2186.8 1897.16,2186.77ZM1833.04,2088.03C1834.15,2086.98 1835.66,2086.34 1837.31,2086.38C1835.78,2086.35 1834.29,2086.77 1833.04,2088.03Z"/>
    <path d="M1837.05,2170.08C1856.28,2170.49 1882.69,2165.98 1898.11,2154.56C1900.77,2152.59 1901.34,2148.83 1899.37,2146.17C1897.39,2143.51 1893.63,2142.95 1890.97,2144.92C1877.44,2154.93 1854.17,2158.44 1837.31,2158.08C1833.99,2158.01 1831.25,2160.64 1831.18,2163.95C1831.11,2167.26 1833.74,2170.01 1837.05,2170.08Z"/>
    <path d="M1986.33,2185.25C1983.91,2185.24 1980.66,2185.3 1977.8,2185.63C1963.79,2187.25 1944.38,2191.15 1931.33,2190.73C1923.94,2190.5 1918.26,2188.64 1915.18,2185.58C1913.42,2183.84 1912.33,2180.95 1913.65,2177.18C1915.14,2172.92 1921.97,2165.13 1923.14,2163.49C1929.74,2154.27 1933.53,2147.12 1935.04,2141.49C1936.05,2137.68 1936.01,2134.91 1934.53,2132.93C1932.47,2130.18 1928.53,2129.09 1924.03,2128.3C1914.97,2126.71 1903.68,2127.23 1894.43,2127.06C1891.12,2126.99 1888.48,2124.26 1888.54,2120.95C1888.61,2117.64 1891.34,2115 1894.65,2115.06C1904.48,2115.24 1916.48,2114.79 1926.1,2116.48C1934.05,2117.88 1940.49,2120.87 1944.14,2125.74C1946.86,2129.38 1948.29,2134.1 1947.48,2140.34C1946.55,2147.51 1942.31,2157.32 1932.9,2170.47C1932.3,2171.31 1929.21,2175.47 1927.07,2178.33C1927.59,2178.41 1928.14,2178.47 1928.71,2178.53C1932.22,2178.93 1936.47,2178.79 1941.07,2178.41C1956.33,2177.14 1975.12,2173.14 1985.8,2173.01C1990.41,2172.95 1993.9,2173.73 1995.96,2174.93C1997.91,2176.08 1999.14,2177.63 1999.79,2179.44C2000.68,2181.91 2000.61,2185.8 1996.8,2190.7C1994.78,2193.32 1991.01,2193.8 1988.39,2191.77C1986.36,2190.2 1985.61,2187.57 1986.33,2185.25Z"/>
    <path d="M1906.95,2155.53C1907.4,2154.62 1908.27,2152.93 1908.84,2151.97C1910.29,2149.53 1912.23,2147.74 1914.63,2146.95C1932.68,2140.95 1958.65,2141.05 1977.66,2140.87C1980.98,2140.84 1983.69,2143.5 1983.72,2146.82C1983.75,2150.13 1981.09,2152.84 1977.78,2152.87C1960.16,2153.04 1936.17,2152.7 1919.22,2158.08C1918.76,2159 1917.31,2161.85 1916.42,2163.1C1914.5,2165.79 1912,2167.27 1908.78,2167.21C1905.47,2167.15 1902.83,2164.42 1902.88,2161.11C1902.93,2158.51 1904.62,2156.33 1906.95,2155.53Z"/>
    <path d="M1376.27,1850.81C1375.69,1848.64 1374.92,1845.28 1374.93,1842.84C1374.95,1838.73 1377.49,1837.34 1378.44,1836.88C1380.1,1836.08 1383.03,1835.3 1385.78,1838.43C1386.15,1838.86 1386.77,1839.74 1387.44,1841.12C1388.74,1843.81 1391.22,1849.96 1394.94,1857.39C1398.63,1864.77 1405.81,1901.02 1405.78,1918.02C1405.77,1921.65 1405.41,1924.55 1404.81,1926.43C1404.27,1928.12 1403.47,1929.35 1402.66,1930.18C1400.36,1932.57 1396.56,1932.64 1394.18,1930.34C1392.04,1928.28 1391.76,1925.01 1393.39,1922.63C1393.46,1921.71 1393.85,1916.17 1393.51,1911.6C1392.25,1894.77 1387.15,1868.65 1384.2,1862.76C1383.77,1861.89 1383.34,1861.02 1382.92,1860.15C1382.37,1860.26 1381.76,1860.32 1381.08,1860.31C1377.77,1860.29 1375.11,1857.58 1375.13,1854.26C1375.14,1852.97 1375.56,1851.78 1376.27,1850.81Z"/>
    <path d="M1391.19,2011.82C1395.46,2022.37 1402.45,2034.47 1407.78,2046.34C1412.26,2056.32 1415.57,2066.19 1415.81,2075C1415.9,2078.31 1413.29,2081.07 1409.98,2081.16C1406.67,2081.26 1403.91,2078.64 1403.82,2075.33C1403.56,2065.92 1398.87,2055.2 1393.67,2044.52C1387.94,2032.75 1381.48,2021.08 1378.13,2011.13C1377.54,2009.36 1375.33,2006.47 1374.61,2004.61C1373.95,2002.9 1373.88,2001.39 1374.05,2000.28C1374.3,1998.76 1374.97,1997.53 1375.97,1996.56C1377,1995.56 1378.52,1994.62 1380.93,1994.62C1383.05,1994.62 1385.48,1995.51 1387.58,1997.28C1389.91,1999.23 1391.79,2002.25 1392.4,2004.81C1393.05,2007.56 1392.5,2010.01 1391.19,2011.82Z"/>
    <path d="M1415.3,2015.28C1413.65,2017.64 1412.87,2020.9 1412.94,2023.35C1413.05,2026.66 1410.45,2029.43 1407.14,2029.54C1403.83,2029.64 1401.05,2027.04 1400.95,2023.73C1400.71,2016.25 1405.29,2005.76 1412.67,2002.08C1444.88,1986.01 1469.13,2017.09 1472.17,2037.74C1473.49,2046.67 1470.67,2053.66 1465.36,2056.59C1460.69,2059.16 1452.54,2059.18 1441,2051.52C1434.25,2047.04 1428.43,2035.62 1423.73,2027C1422.41,2024.58 1420.3,2021.58 1419.68,2020.72C1417.26,2020.04 1415.45,2017.88 1415.3,2015.28ZM1425.65,2010.16C1425.86,2010.29 1426.07,2010.42 1426.28,2010.56C1428.06,2011.78 1430.08,2014.15 1432.05,2017.38C1434.86,2021.99 1437.97,2028.7 1441.54,2034.33C1443.43,2037.32 1445.38,2040.02 1447.63,2041.52C1451.24,2043.91 1454.24,2045.39 1456.74,2045.99C1457.93,2046.28 1458.87,2046.47 1459.56,2046.08C1460.18,2045.74 1460.24,2044.94 1460.38,2044.11C1460.6,2042.74 1460.55,2041.17 1460.3,2039.48C1458.36,2026.29 1444.87,2006.42 1425.65,2010.16Z"/>
    <path d="M1503.37,1989.12C1528.3,1978.86 1544.15,1980.74 1553.26,1987.48C1559.91,1992.39 1563.58,2000.01 1564.67,2008.86C1566.11,2020.63 1562.9,2034.66 1557.2,2045.87C1552.92,2054.29 1547.2,2061.08 1541.27,2064.54C1536.26,2067.46 1531.01,2068.24 1525.92,2066.55C1517.54,2063.77 1511.27,2056.36 1506.83,2047C1501.15,2035 1498.36,2019.8 1496.07,2010.69C1495.97,2010.28 1495.82,2009.25 1495.83,2007.8C1495.83,2006.63 1495.9,2004.87 1495.96,2003.05C1494.84,2002.46 1493.89,2001.52 1493.3,2000.29C1491.89,1997.29 1493.17,1993.71 1496.17,1992.3L1496.17,1992.3C1497.24,1990.02 1499.68,1988.58 1502.31,1988.9C1502.62,1988.94 1502.98,1989 1503.37,1989.12ZM1507.83,2008.29C1509.95,2016.88 1512.45,2030.83 1517.68,2041.86C1520.59,2048.01 1524.2,2053.34 1529.71,2055.16C1532.2,2055.99 1534.67,2054.79 1537.06,2052.91C1540.63,2050.1 1543.86,2045.63 1546.5,2040.43C1551.14,2031.31 1553.93,2019.91 1552.76,2010.32C1552.1,2004.93 1550.18,2000.12 1546.13,1997.13C1542.63,1994.54 1537.68,1993.41 1531.1,1993.92C1524.75,1994.4 1517.11,1996.39 1507.95,2000.19C1507.96,2003.74 1507.86,2007.51 1507.83,2008.29Z"/>
    <path d="M929.835,1884.14C929.717,1883.66 929.58,1883.17 929.438,1882.74C928.362,1879.52 926.7,1875.74 925.426,1872.32C923.733,1867.77 922.9,1863.59 923.338,1861.04C923.712,1858.86 924.719,1857.2 926.143,1856C927.462,1854.9 929.247,1854.07 931.743,1854.07C933.116,1854.07 934.578,1854.47 935.956,1855.65C936.844,1856.41 938.24,1858.38 939.113,1861.56C941.25,1869.35 943.198,1889 943.452,1890.77C944.569,1898.53 947.895,1906.22 950.506,1913.96C953.571,1923.05 955.684,1932.2 953.929,1941.48C953.313,1944.73 950.172,1946.87 946.918,1946.26C943.664,1945.64 941.523,1942.5 942.138,1939.25C943.509,1932 941.529,1924.89 939.135,1917.8C936.511,1910.01 933.334,1902.25 931.901,1894.46C929.41,1893.68 927.628,1891.33 927.694,1888.59C927.737,1886.8 928.562,1885.21 929.835,1884.14Z"/>
    <path d="M951.614,2055.5C949.844,2055.27 948.481,2054.44 947.656,2053.62C944.099,2050.06 941.519,2044.31 939.937,2037.86C936.741,2024.84 937.264,2009.02 937.264,2009.02C937.369,2005.94 939.785,2003.44 942.856,2003.23C945.926,2003.03 948.656,2005.17 949.175,2008.21C949.175,2008.21 953.931,2037.04 961.67,2048.95C963.474,2051.73 962.684,2055.45 959.907,2057.25C957.133,2059.05 953.42,2058.27 951.614,2055.5ZM948.964,2052.94C949.384,2053.61 950.071,2054.38 951.212,2054.87L951.205,2054.85L951.139,2054.74C950.277,2054.32 949.532,2053.7 948.964,2052.94Z"/>
    <path d="M974.36,2017.02C971.686,2018.85 968.021,2018.22 966.114,2015.58C964.176,2012.89 964.783,2009.14 967.468,2007.2C985.186,1994.41 1007.01,2002.29 1019.14,2016.49C1026.67,2025.3 1030.23,2036.38 1027.57,2046.04C1025.74,2052.71 1021.03,2058.94 1012.17,2063.35C1003.33,2067.76 996,2065.12 990.096,2058.52C980.973,2048.33 976.051,2026.18 974.36,2017.02ZM985.795,2012.78C986.301,2015.82 987.492,2022.51 989.549,2029.78C991.513,2036.73 994.221,2044.28 998.042,2049.31C1000.37,2052.38 1003.14,2054.44 1006.82,2052.61C1011.95,2050.06 1014.94,2046.71 1016,2042.85C1017.69,2036.72 1014.8,2029.88 1010.02,2024.29C1004.11,2017.37 994.967,2012.16 985.795,2012.78Z"/>
    <path d="M2422.26,1881.34C2422.08,1878.21 2420.68,1854.62 2420.29,1850.09C2419.66,1842.62 2430.41,1844.35 2430.43,1844.37C2433.97,1847.9 2436.87,1854.21 2438.85,1861.91C2442.85,1877.46 2443.7,1899.02 2443.7,1908.86C2443.7,1909.35 2444.04,1909.93 2444.29,1910.58C2444.87,1912.07 2445.56,1913.61 2446.02,1914.93C2446.9,1917.43 2446.97,1919.63 2446.6,1921.03C2446.22,1922.49 2445.48,1923.64 2444.45,1924.54C2443.32,1925.53 2441.7,1926.38 2439.25,1926.28C2435.94,1926.14 2433.37,1923.34 2433.51,1920.03C2433.54,1919.15 2433.77,1918.32 2434.14,1917.59L2433.1,1914.92C2432.24,1912.7 2431.7,1910.53 2431.7,1908.86C2431.7,1904.13 2431.5,1896.52 2430.8,1888.26C2429.55,1888.89 2428.31,1889.01 2427.77,1888.99C2424.46,1888.85 2421.89,1886.04 2422.03,1882.74C2422.06,1882.25 2422.13,1881.79 2422.26,1881.34ZM2424.47,1878.17C2425.53,1877.38 2426.86,1876.94 2428.29,1877C2426.99,1876.95 2425.67,1877.24 2424.47,1878.17Z"/>
    <path d="M2445.23,2079.77C2444.67,2079.16 2444.16,2078.51 2443.85,2077.89C2441.49,2073.18 2440.34,2065.95 2439.99,2058.95C2439.51,2049.33 2440.36,2040.23 2440.36,2040.23C2440.63,2037.41 2442.83,2035.16 2445.65,2034.83C2448.47,2034.51 2451.12,2036.2 2452.03,2038.88C2452.03,2038.88 2453.95,2044.63 2454.91,2047.5C2458.32,2057.73 2458.97,2069.23 2459.54,2080.71C2460.06,2091.07 2460.49,2101.43 2463.55,2110.59C2464.19,2112.49 2466.61,2115.36 2467.88,2117.56C2469.31,2120.03 2469.76,2122.29 2469.65,2123.67C2469.5,2125.45 2468.78,2126.86 2467.65,2127.96C2466.59,2128.99 2464.94,2130.03 2462.22,2129.92C2458.91,2129.79 2456.33,2127 2456.45,2123.7C2456.47,2123.21 2456.55,2122.75 2456.67,2122.3C2456.35,2121.78 2456.01,2121.25 2455.72,2120.8C2454.2,2118.52 2452.76,2116.14 2452.18,2114.4C2448.95,2104.76 2448.2,2093.93 2447.65,2083.03C2446.5,2082.26 2445.64,2081.11 2445.23,2079.77ZM2461.98,2117.95L2461.93,2117.95L2462.01,2117.94L2461.98,2117.95ZM2462.2,2117.93L2462.12,2117.94L2462.32,2117.93L2462.2,2117.93ZM2462.39,2117.93L2462.68,2117.93C2462.58,2117.93 2462.49,2117.93 2462.39,2117.93Z"/>
    <path d="M2467.58,2069.68L2467.55,2069.72C2465.81,2072.53 2462.11,2073.41 2459.29,2071.67C2451.97,2067.14 2448.81,2061.5 2448.29,2055.76C2447.58,2047.95 2452.28,2039.18 2460.72,2031.88C2471.84,2022.26 2489.21,2014.98 2504.37,2015.2C2515.59,2015.36 2525.62,2019.47 2531.92,2028.84C2535.71,2034.48 2536.42,2042.38 2534.32,2050.95C2531.62,2061.99 2524.33,2074.27 2515.55,2082.92C2504.35,2093.95 2490.73,2098.5 2480.47,2091.68C2475.41,2088.32 2472.02,2082.94 2469.72,2076.72C2468.88,2074.45 2468.19,2072.07 2467.58,2069.68ZM2475.66,2052.28C2477.09,2057.22 2478.14,2063.34 2479.84,2069.12C2481.33,2074.18 2483.17,2079.07 2487.11,2081.69C2489.6,2083.34 2492.47,2083.26 2495.38,2082.29C2499.38,2080.95 2503.39,2078.05 2507.13,2074.37C2514.35,2067.25 2520.44,2057.19 2522.67,2048.1C2523.86,2043.25 2524.1,2038.73 2521.96,2035.54C2517.94,2029.56 2511.36,2027.3 2504.2,2027.19C2491.81,2027.02 2477.66,2033.09 2468.57,2040.95L2468.41,2041.1C2469.28,2040.67 2470.25,2040.45 2471.28,2040.49C2475.12,2040.63 2476.61,2042.19 2477.11,2042.76C2478.95,2044.81 2479.44,2047.17 2477.85,2049.94C2477.56,2050.45 2477.1,2051.08 2476.37,2051.72C2476.24,2051.83 2475.96,2052.05 2475.66,2052.28ZM2465.86,2043.48C2462.27,2047.1 2459.9,2050.9 2460.24,2054.67C2460.47,2057.24 2462.32,2059.43 2465.6,2061.46L2465.65,2061.49C2465.04,2058.84 2464.42,2056.35 2463.69,2054.17C2462.56,2050.78 2463.41,2048.01 2465.09,2045.79C2465.19,2044.96 2465.46,2044.17 2465.86,2043.48Z"/>
    <path d="M2533.92,2071.7C2531.24,2070.08 2530.23,2066.63 2531.69,2063.81C2534.63,2058.11 2538.21,2057.26 2539.99,2057.26C2542.13,2057.25 2544.13,2058.13 2545.64,2060.14C2546.74,2061.59 2547.68,2064.37 2547.73,2067.34C2547.78,2070.42 2546.9,2073.55 2545.76,2075.16C2544.17,2077.43 2542.01,2078.37 2539.71,2078.3C2536.4,2078.19 2533.79,2075.43 2533.89,2072.12C2533.9,2071.97 2533.91,2071.84 2533.92,2071.7Z"/>
    <path d="M2569.92,2013.68C2571.96,2013.33 2574.34,2013.56 2577.08,2014.67L2577.34,2014.67C2580.4,2014.76 2581.52,2016.43 2581.85,2016.82C2582.37,2017.44 2582.75,2018.08 2582.98,2018.73C2587.54,2021.97 2591.35,2026.43 2593.56,2030.98C2596.43,2036.88 2596.59,2042.92 2593.88,2047.47C2591.35,2051.73 2585.96,2055.4 2575.92,2055.4C2572.87,2055.4 2569.86,2054.03 2567.3,2051.26C2563.64,2047.29 2560.79,2039.69 2560.14,2032.61C2560.1,2032.13 2560.07,2031.65 2560.05,2031.19C2559.86,2031.49 2559.69,2031.8 2559.51,2032.12C2557.94,2035.04 2554.3,2036.13 2551.38,2034.56C2548.47,2032.98 2547.38,2029.34 2548.95,2026.43C2552.9,2019.11 2558.08,2015.52 2563.35,2014.19C2565.51,2013.65 2567.72,2013.49 2569.92,2013.68ZM2572.35,2026.4C2572.22,2026.89 2572.1,2027.44 2572.06,2027.89C2571.96,2029.03 2571.98,2030.26 2572.1,2031.52C2572.4,2034.82 2573.33,2038.34 2574.73,2041.02C2575.19,2041.91 2576.12,2043.01 2576.45,2043.39C2578.32,2043.36 2579.9,2043.15 2581.2,2042.76C2582.31,2042.42 2583.15,2042.03 2583.57,2041.33C2584.1,2040.44 2583.87,2039.32 2583.53,2038.17C2582.92,2036.06 2581.59,2033.9 2579.88,2031.96C2577.81,2029.62 2575.18,2027.51 2572.35,2026.4Z"/>
    <path d="M2605.62,2017.22C2605.93,2014.11 2608.58,2011.72 2611.75,2011.8C2613.34,2011.85 2614.58,2012.13 2615.55,2012.54C2616.45,2012.35 2617.34,2012.21 2618.23,2012.12C2629.02,2011.01 2639.92,2017.41 2645.43,2026.07C2648.74,2031.28 2650.11,2037.23 2648.88,2042.81C2647.65,2048.36 2643.91,2053.79 2636.18,2057.64C2625.87,2062.77 2615.53,2057.98 2609.09,2049.04C2606.16,2044.98 2604.16,2040.12 2603.36,2035.26C2602.18,2035.34 2600.96,2035.07 2599.88,2034.4C2597.05,2032.68 2596.14,2028.99 2597.86,2026.16C2600.19,2022.32 2602.83,2019.39 2605.62,2017.22ZM2615.59,2026.79C2613.66,2031.37 2615.56,2037.51 2618.82,2042.03C2621.76,2046.1 2626.13,2049.24 2630.83,2046.89C2634.47,2045.08 2636.58,2042.84 2637.16,2040.23C2637.73,2037.64 2636.84,2034.93 2635.3,2032.51C2632.07,2027.42 2625.8,2023.4 2619.45,2024.06C2618.87,2024.12 2618.29,2024.22 2617.72,2024.37C2616.93,2025.35 2616.03,2026.32 2615.59,2026.79Z"/>
    <path d="M2651.89,2003.2C2657.68,2003.34 2663.22,2001.08 2669,1999.35C2676.39,1997.14 2684.06,1995.58 2692.51,1997.68C2698.86,1999.26 2702.99,2002.39 2705.52,2006.19C2709.19,2011.72 2709.55,2019.08 2707.04,2026.63C2703.83,2036.31 2695.91,2046.3 2686.96,2051.7C2680.15,2055.82 2672.76,2057.28 2666.17,2055.09C2661.31,2053.47 2657.26,2049.01 2654.42,2042.85C2649.96,2033.14 2647.14,2015.39 2646.69,2012.43C2646.07,2011.46 2645.72,2010.3 2645.75,2009.06C2645.83,2005.75 2648.58,2003.12 2651.89,2003.2ZM2659.36,2014.46C2660.35,2020.15 2661.74,2028.7 2664.4,2035.63C2665.27,2037.88 2666.26,2039.95 2667.48,2041.58C2668.21,2042.54 2668.96,2043.37 2669.95,2043.7C2672.73,2044.63 2675.74,2043.95 2678.67,2042.56C2684.29,2039.89 2689.54,2034.54 2692.96,2028.7C2694.86,2025.45 2696.2,2022.05 2696.58,2018.85C2696.85,2016.52 2696.63,2014.31 2695.35,2012.59C2694.2,2011.04 2692.27,2009.99 2689.61,2009.33C2683.43,2007.79 2677.85,2009.23 2672.44,2010.85C2668.03,2012.17 2663.71,2013.61 2659.36,2014.46ZM2651.21,2015.17L2651.25,2015.18L2651.11,2015.16L2651.21,2015.17ZM2650.8,2015.12L2650.9,2015.14L2650.74,2015.11L2650.8,2015.12ZM2650.4,2015.05L2650.48,2015.06L2650.4,2015.05L2650.34,2015.03L2650.4,2015.05ZM2649.99,2014.93L2650,2014.94L2649.99,2014.93L2649.99,2014.93Z"/>
    <path d="M1414.75,993.642C1415.43,993.231 1418.41,991.434 1419.84,990.904C1423.24,989.643 1426.14,990.275 1428.37,992.5C1428.88,993.017 1429.63,993.898 1429.99,995.435C1430.09,995.872 1430.23,997.611 1429.96,1000.41C1428.35,1017.58 1416.59,1100.24 1415.7,1109.2C1414.7,1119.11 1418.99,1141.97 1417.98,1158.53C1417.44,1167.39 1415.23,1174.66 1411.24,1178.74C1408.93,1181.11 1405.12,1181.16 1402.76,1178.84C1400.39,1176.53 1400.34,1172.73 1402.65,1170.36C1404.09,1168.88 1404.78,1166.51 1405.31,1163.73C1406.03,1159.96 1406.21,1155.51 1406.13,1150.8C1405.89,1135.07 1402.89,1116.68 1403.76,1108.01C1404.57,1099.86 1414.38,1030.68 1417.35,1005.38C1416.71,1005.53 1416.09,1005.59 1415.5,1005.59C1412.19,1005.56 1409.53,1002.85 1409.55,999.541C1409.58,996.516 1411.84,994.03 1414.75,993.642Z" style="fill:rgb(141,141,141);"/>
    <path d="M2136.65,993.438C2133.11,992.629 2128.61,991.897 2123.38,991.216C2075.21,984.944 1967.71,983.79 1950.75,982.663C1772.49,970.822 1592.77,986.918 1415.5,985.511C1412.19,985.485 1409.53,982.775 1409.55,979.463C1409.58,976.152 1412.29,973.485 1415.6,973.511C1593.09,974.92 1773.05,958.833 1951.54,970.69C1968.58,971.822 2076.55,973.017 2124.93,979.316C2133.94,980.489 2141,981.881 2145.26,983.417C2148.07,984.425 2149.99,985.653 2151.11,986.775C2152.62,988.287 2153.2,989.839 2153.39,991.238C2153.55,992.415 2153.43,993.58 2153.01,994.713C2163.51,995.083 2181.53,995.603 2198.81,995.568C2230.9,995.502 2268.6,995.437 2290.71,997.774C2297.94,998.537 2303.62,999.604 2307.17,1000.91C2309.58,1001.8 2311.29,1002.92 2312.37,1004C2313.26,1004.89 2314.17,1006.25 2314.87,1008.15C2315.76,1010.57 2316.45,1014.39 2316.85,1019.19C2318.82,1042.96 2314.7,1094.02 2314.1,1100.56C2308.67,1160.32 2313.9,1218.11 2319.86,1277.25C2323.13,1309.66 2337.29,1337.09 2337.16,1369.66C2337.16,1369.66 2335.94,1375.63 2329.81,1375.63C2321.91,1375.64 2281.71,1375.63 2267.77,1375.63L2230.32,1375.63C2111.78,1375.63 1994.06,1354.96 1875.69,1346.92C1749.83,1338.38 1624.07,1331.8 1498.54,1323.98C1453.1,1321.15 1406.08,1314.32 1360.79,1312.81C1360.18,1312.96 1359.53,1313.09 1358.87,1313.19C1353.33,1314.05 1345.92,1313.48 1342.74,1312.94C1340.89,1312.63 1339.72,1312.08 1339.32,1311.84C1336.25,1309.98 1336.19,1307.34 1336.43,1305.75C1336.53,1305.14 1337.55,1300.51 1343.5,1300.51C1348.52,1300.51 1353.58,1300.59 1358.66,1300.74C1359.77,1298.71 1362.01,1297.42 1364.46,1297.64C1366.69,1297.84 1368.53,1299.25 1369.39,1301.16C1412.25,1303.16 1456.47,1309.34 1499.28,1312.01C1624.83,1319.82 1750.62,1326.4 1876.51,1334.95C1994.6,1342.97 2112.05,1363.63 2230.32,1363.63L2267.77,1363.63L2325.02,1363.63C2323.56,1334.07 2310.95,1308.43 2307.93,1278.45C2301.89,1218.55 2296.65,1160.01 2302.15,1099.48C2302.66,1093.88 2305.84,1054.95 2305.33,1029.73C2305.22,1024.15 2304.94,1019.28 2304.37,1015.67C2304.19,1014.51 2303.82,1013.15 2303.62,1012.45C2303.17,1012.26 2302.47,1011.98 2301.89,1011.8C2298.91,1010.92 2294.65,1010.26 2289.45,1009.71C2267.65,1007.4 2230.48,1007.5 2198.84,1007.57C2174.23,1007.62 2152.89,1007.63 2144.27,1006.58C2140.1,1006.07 2137.7,1004.68 2136.88,1003.87C2135.41,1002.4 2134.84,1000.89 2134.65,999.514C2134.42,997.862 2134.74,996.226 2135.71,994.66C2135.96,994.258 2136.28,993.846 2136.65,993.438Z" style="fill:rgb(141,141,141);"/>
    <path d="M1442.84,1352.52C1438.61,1353.94 1430.81,1356.88 1424.17,1361.02C1420.29,1363.43 1416.73,1366.16 1415.09,1369.42C1413.1,1373.41 1415.4,1376.68 1418.82,1379.93C1424.1,1384.98 1432.21,1389.58 1440.27,1394.27C1451.24,1400.65 1462.05,1407.24 1467.48,1414.46C1472.29,1420.86 1473.65,1427.76 1469.79,1435.42C1465.54,1443.86 1457.14,1448.71 1447.33,1450.46C1433.99,1452.85 1418.16,1449.36 1409.27,1443.44C1405.34,1440.82 1404.06,1437.55 1403.6,1433.93C1403.47,1432.93 1403.42,1431.9 1403.34,1430.87C1403.27,1429.99 1403.37,1429.02 1402.62,1428.24C1400.33,1425.85 1400.4,1422.05 1402.79,1419.76C1405.18,1417.46 1408.98,1417.54 1411.27,1419.92C1414.15,1422.92 1414.98,1426.23 1415.27,1429.58C1415.35,1430.47 1415.38,1431.35 1415.48,1432.21C1415.52,1432.64 1415.45,1433.14 1415.92,1433.45C1422.75,1438 1434.96,1440.48 1445.22,1438.65C1451.15,1437.59 1456.51,1435.12 1459.08,1430.02C1461.17,1425.86 1458.97,1422.41 1455.55,1419.06C1450.34,1413.95 1442.27,1409.32 1434.24,1404.64C1423.31,1398.28 1412.48,1391.79 1406.98,1384.73C1402.03,1378.39 1400.6,1371.58 1404.36,1364.06C1406.85,1359.07 1411.91,1354.51 1417.83,1350.83C1425.64,1345.97 1434.85,1342.53 1439.5,1340.98C1441.13,1340.44 1443.57,1340.34 1446.24,1340.86C1450.4,1341.68 1455.38,1343.85 1456.37,1344.4C1458.56,1345.64 1459.07,1347.3 1459.21,1347.71C1459.77,1349.27 1459.62,1350.63 1459.2,1351.79C1458.74,1353.05 1457.89,1354.24 1456.34,1355.05C1456.12,1355.17 1454.19,1356.42 1450.73,1355.13C1450.36,1354.99 1450.01,1354.81 1449.68,1354.61L1442.84,1352.52Z" style="fill:rgb(141,141,141);"/>
    <path d="M1470.03,1371.98C1467.82,1370.76 1466.53,1368.23 1467.02,1365.61C1467.63,1362.36 1470.77,1360.21 1474.02,1360.82C1475.71,1361.14 1476.7,1361.23 1477.29,1361.43C1478.95,1362.01 1480.03,1362.93 1480.86,1364.28C1481.36,1365.1 1481.96,1366.55 1481.96,1369.61C1482,1386.24 1491.94,1408.62 1496.18,1425.53C1496.93,1428.5 1500.24,1433.2 1501.94,1436.7C1503.44,1439.79 1503.9,1442.52 1503.65,1444.15C1503.36,1446.04 1502.47,1447.48 1501.17,1448.55C1499.94,1449.57 1498.04,1450.5 1495.09,1450.11C1491.8,1449.68 1489.48,1446.67 1489.91,1443.38C1490.02,1442.58 1490.28,1441.83 1490.66,1441.17C1490.08,1440.01 1489.36,1438.61 1488.76,1437.54C1486.91,1434.26 1485.15,1430.87 1484.54,1428.45C1480.28,1411.48 1470.88,1389.16 1470.03,1371.98Z" style="fill:rgb(141,141,141);"/>
    <path d="M1475.39,1376.03C1475.56,1375.3 1475.78,1374.39 1475.9,1373.9C1478.2,1364.73 1482.52,1354.16 1488.83,1347.16C1496.29,1338.9 1506.25,1334.97 1518.96,1341.31C1525.91,1344.77 1530.08,1349.64 1532.2,1355.02C1535.28,1362.85 1533.95,1372.04 1529.41,1380.26C1522.23,1393.25 1507.11,1403.38 1492.18,1401.35C1488.9,1400.9 1486.6,1397.87 1487.05,1394.59C1487.5,1391.31 1490.52,1389.01 1493.8,1389.46C1504.01,1390.85 1514,1383.33 1518.91,1374.45C1521.63,1369.54 1522.87,1364.1 1521.03,1359.42C1519.87,1356.46 1517.43,1353.95 1513.61,1352.05C1506.91,1348.71 1501.67,1350.85 1497.74,1355.2C1492.66,1360.83 1489.39,1369.44 1487.54,1376.82C1487.01,1378.94 1486.23,1382.29 1484.95,1383.99C1483.14,1386.39 1480.71,1387.49 1477.67,1386.98C1474.4,1386.43 1472.19,1383.34 1472.73,1380.07C1473.02,1378.34 1474.03,1376.91 1475.39,1376.03Z" style="fill:rgb(141,141,141);"/>
    <path d="M1518.25,1375.56C1520.97,1375.82 1523.07,1376.55 1524.6,1377.86C1527.1,1380 1528.07,1383.38 1528.63,1387.27C1529.45,1393.03 1529.11,1399.84 1528.74,1406.77C1528.23,1416.46 1527.67,1426.39 1529.23,1434.58C1531.13,1444.6 1535.99,1452.27 1546.08,1455.62C1556.63,1459.13 1564.08,1455.63 1570.17,1451.05C1572.52,1449.29 1574.62,1447.35 1576.63,1445.84C1577.52,1445.18 1578.23,1444.44 1579.13,1444.42C1582.44,1444.38 1585.09,1441.65 1585.04,1438.34C1584.99,1435.03 1582.26,1432.38 1578.95,1432.42C1574.55,1432.49 1570.15,1435.56 1565.45,1439.47C1561.59,1442.67 1557.08,1446.63 1549.86,1444.24C1542.91,1441.93 1541.1,1435.51 1540.44,1428.09C1539.58,1418.24 1541.07,1406.6 1541.12,1396.32C1541.22,1378.82 1536.87,1365.26 1519.37,1363.61C1516.07,1363.3 1513.14,1365.73 1512.83,1369.03C1512.52,1372.32 1514.95,1375.25 1518.25,1375.56Z" style="fill:rgb(141,141,141);"/>
    <path d="M1547.23,1354.99C1547.83,1354.68 1551.58,1352.72 1554.29,1351.03C1561.82,1346.35 1571.45,1340.75 1578.95,1340.64C1582.26,1340.59 1584.99,1343.24 1585.04,1346.55C1585.09,1349.87 1582.44,1352.59 1579.13,1352.64C1576.8,1352.67 1574.22,1353.68 1571.58,1354.93C1566.52,1357.33 1561.41,1360.8 1557.37,1363.22C1552.95,1365.86 1549.14,1367.12 1547.05,1366.97C1543.75,1366.73 1541.26,1363.85 1541.51,1360.55C1541.73,1357.48 1544.23,1355.11 1547.23,1354.99Z" style="fill:rgb(141,141,141);"/>
    <path d="M1517.02,1406.04C1529.99,1403.8 1545.79,1395.85 1556.05,1390.15C1558.95,1388.55 1562.6,1389.6 1564.21,1392.49C1565.82,1395.39 1564.77,1399.04 1561.87,1400.65C1548.32,1408.16 1526.01,1418.64 1510.53,1418.64C1507.14,1418.64 1505.3,1416.97 1504.27,1414.61C1503.84,1413.64 1503.56,1412.37 1503.68,1410.85C1503.76,1409.86 1504.31,1407.76 1504.69,1406.37C1504.29,1405.45 1504.12,1404.41 1504.24,1403.34C1504.61,1400.05 1507.57,1397.68 1510.87,1398.04C1513.91,1398.38 1515.63,1400.02 1516.56,1402.39C1516.92,1403.33 1517.13,1404.58 1517.02,1406.04ZM1509.27,1409.93C1509.36,1409.95 1509.45,1409.96 1509.54,1409.97L1509.27,1409.93Z" style="fill:rgb(141,141,141);"/>
    <path d="M1644.9,1442.8C1645.54,1440.05 1648.06,1438.05 1650.98,1438.16C1654.02,1438.28 1655.51,1439.89 1656.36,1441.42C1657.1,1442.77 1657.78,1445.15 1656.15,1447.99C1654.83,1450.29 1648.1,1456.16 1647.22,1457.05C1642.27,1461.98 1630.79,1469.2 1620.63,1470.69C1612.03,1471.95 1604.37,1469.53 1600.19,1461.24C1597.78,1456.45 1597.04,1449.63 1597.45,1441.71C1597.96,1431.62 1600.17,1419.49 1601.12,1408.18C1601.69,1401.36 1601.82,1394.87 1600.58,1389.48C1599.85,1386.32 1598.67,1383.58 1596.53,1381.63C1594.4,1379.7 1591.38,1378.66 1587.32,1378.45C1584.02,1378.27 1581.48,1375.44 1581.65,1372.13C1581.83,1368.83 1584.66,1366.29 1587.97,1366.46C1595.89,1366.89 1601.46,1369.55 1605.4,1373.52C1610.93,1379.07 1613.29,1387.63 1613.51,1397.69C1613.78,1410.34 1610.81,1425.59 1609.7,1438.42C1609.09,1445.51 1608.85,1451.75 1610.91,1455.84C1612.49,1458.97 1615.63,1459.29 1618.89,1458.82C1626.49,1457.7 1635.05,1452.23 1638.75,1448.55C1639.26,1448.03 1643.16,1444.42 1644.9,1442.8ZM1647.96,1449.47C1648.54,1449.81 1649.26,1450.05 1650.14,1450.13C1649.36,1450.05 1648.62,1449.82 1647.96,1449.47Z" style="fill:rgb(141,141,141);"/>
    <path d="M1585.07,1386.46C1584.21,1385.64 1583.34,1384.68 1582.89,1383.77C1579.39,1376.74 1582.79,1369.72 1591.89,1364.55C1605.85,1356.63 1634.23,1352.2 1639.17,1352.12C1642.48,1352.06 1645.22,1354.7 1645.27,1358.02C1645.33,1361.33 1642.68,1364.06 1639.37,1364.11C1635.03,1364.18 1610.07,1368.03 1597.81,1374.99C1596.56,1375.7 1595.45,1376.44 1594.59,1377.23C1594.31,1377.49 1594.06,1377.74 1593.85,1378.01C1593.8,1378.08 1593.73,1378.14 1593.68,1378.19C1594.3,1378.66 1595.44,1379.52 1595.62,1379.72C1598.31,1382.66 1597.43,1385.4 1596.22,1387.2C1595.84,1387.78 1594.43,1390.15 1590.18,1389.92C1587.9,1389.8 1585.98,1388.4 1585.07,1386.46Z" style="fill:rgb(141,141,141);"/>
    <path d="M1593.92,1407.08C1594.13,1407.05 1594.33,1407.01 1594.53,1406.96C1605.47,1404.61 1621.57,1397.83 1624.77,1395.96C1627.63,1394.29 1631.31,1395.25 1632.98,1398.11C1634.65,1400.97 1633.69,1404.65 1630.83,1406.32C1627.25,1408.41 1609.28,1416.07 1597.05,1418.7C1592.6,1419.65 1588.77,1419.9 1586.24,1419.42C1583.99,1419 1582.33,1418.06 1581.17,1416.9C1579.23,1414.98 1578.46,1412.35 1579.36,1409.2C1579.7,1408.02 1580.82,1406 1581.67,1404.57C1581.64,1404.28 1581.64,1403.98 1581.65,1403.67C1581.84,1400.37 1584.67,1397.83 1587.98,1398.02C1590.46,1398.15 1591.89,1399.26 1592.82,1400.35C1594.05,1401.79 1594.84,1403.85 1594.09,1406.56C1594.04,1406.72 1593.99,1406.9 1593.92,1407.08ZM1586.85,1409.95L1586.93,1409.96L1586.74,1409.94L1586.85,1409.95ZM1585.9,1409.75C1586.13,1409.82 1586.37,1409.88 1586.63,1409.92L1586.4,1409.88C1586.31,1409.85 1586.21,1409.83 1586.11,1409.81L1585.9,1409.75Z" style="fill:rgb(141,141,141);"/>
    <path d="M1687.36,1377.97C1687.64,1377.93 1687.94,1377.92 1688.23,1377.93C1697.42,1378.24 1690.52,1389.72 1690.06,1389.82C1689.9,1389.86 1689.59,1389.92 1689.15,1389.95C1688.92,1389.97 1687.02,1389.96 1686.15,1389.96C1682.04,1389.96 1678.19,1391.97 1674.73,1394.96C1670.67,1398.46 1667.19,1403.32 1664.53,1408.65C1659.38,1418.97 1656.96,1431.13 1660.82,1438.79C1665.03,1447.14 1674.76,1449.67 1685.19,1449.39C1695.88,1449.1 1707.47,1445.64 1716.42,1440.54C1721.88,1437.42 1726.38,1433.74 1728.73,1429.68C1730.39,1426.82 1734.06,1425.84 1736.93,1427.5C1739.8,1429.15 1740.77,1432.83 1739.12,1435.69C1735.87,1441.31 1729.91,1446.66 1722.37,1450.96C1711.81,1456.99 1698.13,1461.04 1685.52,1461.38C1670.06,1461.81 1656.34,1456.56 1650.1,1444.18C1644.88,1433.83 1646.83,1417.24 1653.79,1403.29C1660.94,1388.98 1673.19,1377.96 1686.15,1377.96L1687.36,1377.97Z" style="fill:rgb(141,141,141);"/>
    <path d="M1732.59,1376.73C1731.44,1375.61 1730.74,1374.02 1730.79,1372.29C1730.89,1368.98 1733.65,1366.37 1736.96,1366.46C1738.13,1366.49 1741.18,1367.15 1743.15,1371.03C1746.97,1378.55 1757.09,1416.3 1760.92,1427.8C1761.14,1428.09 1763.4,1431.03 1764.39,1432.36C1765.91,1434.4 1766.53,1436.36 1766.6,1437.5C1766.71,1439.49 1766.05,1441.06 1764.9,1442.29C1763.97,1443.31 1762.4,1444.5 1759.58,1444.42C1756.27,1444.34 1753.65,1441.58 1753.74,1438.27L1753.74,1438.25L1752.37,1436.5C1751.07,1434.82 1750.04,1433.1 1749.59,1431.76C1745.95,1420.9 1736.4,1384.66 1732.59,1376.73ZM1736.29,1378.43L1736.31,1378.44L1736.14,1378.42L1736.29,1378.43ZM1735.94,1378.4L1735.99,1378.4L1735.82,1378.38L1735.94,1378.4ZM1735.58,1378.33L1735.65,1378.35L1735.52,1378.32L1735.58,1378.33Z" style="fill:rgb(141,141,141);"/>
    <path d="M1778.88,1348.41C1777.5,1347.28 1776.64,1345.55 1776.68,1343.63C1776.77,1340.32 1779.52,1337.69 1782.83,1337.78C1783.97,1337.8 1785.84,1338.13 1787.61,1340.07C1788.6,1341.15 1790.41,1344.2 1792.47,1348.77C1798.43,1361.99 1808.42,1389.66 1812.74,1409.5C1814.81,1419.04 1815.43,1426.99 1814.3,1431.33C1813.47,1434.53 1810.19,1436.46 1806.99,1435.63C1803.78,1434.8 1801.86,1431.52 1802.69,1428.31C1803.65,1424.6 1802.33,1417.46 1800.31,1408.97C1795.05,1386.84 1783.61,1356.65 1779.09,1348.76L1778.88,1348.41Z" style="fill:rgb(141,141,141);"/>
    <path d="M1758.4,1409.63L1758.9,1409.42C1763.4,1407.48 1776.47,1400.83 1789.33,1395.79C1798.65,1392.15 1807.91,1389.43 1814.2,1389.4C1817.52,1389.39 1820.22,1392.06 1820.23,1395.37C1820.25,1398.68 1817.57,1401.38 1814.26,1401.4C1802.09,1401.46 1777.46,1413.98 1767.14,1418.84C1764.64,1420.02 1762.83,1420.82 1761.99,1421.09C1760.87,1421.46 1760.04,1421.49 1759.58,1421.48C1756.27,1421.39 1753.65,1418.63 1753.74,1415.32C1753.81,1412.52 1755.79,1410.22 1758.4,1409.63Z" style="fill:rgb(141,141,141);"/>
    <path d="M1887.38,1385.24C1886.3,1384.14 1885.64,1382.62 1885.67,1380.95C1885.74,1377.64 1888.47,1375 1891.79,1375.06C1893.18,1375.09 1895.18,1375.53 1896.87,1377.72C1897.73,1378.83 1899.11,1381.95 1900.37,1386.58C1904.32,1400.97 1909.93,1432.94 1910.12,1448.09C1910.18,1453.47 1909.23,1457.28 1908.17,1458.91C1906.36,1461.68 1902.64,1462.47 1899.87,1460.66C1897.26,1458.96 1896.41,1455.56 1897.83,1452.85C1897.87,1452.13 1898.15,1445.63 1897.61,1439.81C1895.89,1421.3 1890.4,1392.79 1887.38,1385.24Z" style="fill:rgb(141,141,141);"/>
    <path d="M1887.56,1368.09C1887.99,1366.89 1888.94,1364.3 1889.79,1362.53C1891.76,1358.44 1894.88,1354.97 1899.43,1353.88C1902.31,1353.19 1905.96,1353.36 1910.56,1355.64C1933.57,1367.08 1943.92,1392.08 1940.56,1409.96C1938.05,1423.29 1928.65,1433.25 1911.64,1432.95C1908.33,1432.89 1905.69,1430.15 1905.75,1426.84C1905.81,1423.53 1908.55,1420.89 1911.86,1420.95C1921.73,1421.13 1927.31,1415.48 1928.76,1407.74C1931.35,1394.03 1922.86,1375.16 1905.22,1366.39C1903.93,1365.75 1903,1365.33 1902.21,1365.55C1901.87,1365.64 1901.69,1365.96 1901.48,1366.24C1901.07,1366.79 1900.74,1367.43 1900.45,1368.07C1899.66,1369.82 1899.12,1371.61 1898.62,1372.87C1896.86,1377.24 1893.59,1378.49 1891.56,1378.45C1888.25,1378.39 1885.61,1375.65 1885.67,1372.34C1885.71,1370.66 1886.43,1369.16 1887.56,1368.09ZM1889.13,1367.02C1889.94,1366.64 1890.84,1366.44 1891.79,1366.46C1890.94,1366.44 1890.01,1366.55 1889.13,1367.02Z" style="fill:rgb(141,141,141);"/>
    <path d="M1916.38,1432.85C1913.56,1432.32 1911.44,1429.82 1911.49,1426.85C1911.55,1423.54 1914.28,1420.89 1917.59,1420.95C1918.49,1420.97 1919.86,1421.21 1921.53,1421.99C1923.23,1422.78 1925.78,1424.37 1928.84,1426.41C1937.38,1432.16 1950.58,1442.19 1958.3,1444.11C1961.65,1444.94 1974.26,1448.45 1977.12,1449.71C1979.09,1450.58 1979.97,1451.78 1980.29,1452.27C1981.24,1453.75 1981.37,1455.17 1981.19,1456.39C1981.03,1457.53 1980.58,1458.62 1979.69,1459.6C1979.19,1460.15 1977.83,1461.68 1974.76,1461.63C1973.39,1461.61 1972.13,1461.13 1971.13,1460.34C1967.77,1459.33 1957.86,1456.37 1955.4,1455.75C1946.76,1453.6 1931.72,1442.81 1922.14,1436.38C1919.84,1434.83 1916.99,1433.19 1916.38,1432.85ZM1974.61,1449.64L1974.54,1449.64L1974.62,1449.64L1974.61,1449.64Z" style="fill:rgb(141,141,141);"/>
    <path d="M1973.86,1385.65C1972.53,1384.53 1971.69,1382.84 1971.72,1380.97C1971.77,1377.65 1974.5,1375.01 1977.81,1375.06C1984.69,1375.17 1986.14,1378.53 1986.64,1381.02C1986.85,1382.08 1986.84,1383.41 1986.43,1385.03C1986.01,1386.66 1984.56,1389.47 1985.69,1393.97C1989.51,1409.12 1996.21,1424.84 2005.01,1437.99C2006.69,1440.49 2009.62,1441.33 2012.58,1441.4C2016.24,1441.5 2020.09,1440.37 2022.84,1438.5C2024.16,1437.6 2025.39,1436.67 2025.5,1435.37C2025.55,1434.78 2025.19,1434.22 2024.68,1433.59C2022.6,1431.01 2023,1427.23 2025.58,1425.15C2028.16,1423.07 2031.94,1423.48 2034.02,1426.05C2036.86,1429.57 2037.74,1433.12 2037.46,1436.41C2037.06,1440.95 2034.21,1445.28 2029.59,1448.42C2023.97,1452.24 2015.72,1454.28 2008.5,1453.03C2003.06,1452.1 1998.21,1449.4 1995.04,1444.66C1985.49,1430.39 1978.2,1413.34 1974.05,1396.9C1972.97,1392.6 1973.33,1388.47 1973.86,1385.65Z" style="fill:rgb(141,141,141);"/>
    <path d="M1974.33,1360.74C1974.87,1360.6 1978.88,1359.49 1982.83,1358.26C1995.33,1354.38 2015.8,1347.89 2023.57,1347.29C2028.56,1346.9 2031.27,1349.23 2032.15,1350.74C2033.19,1352.51 2034.05,1355.49 2031.12,1359.06C2029.01,1361.62 2025.23,1361.98 2022.67,1359.88C2022.55,1359.79 2022.44,1359.69 2022.34,1359.59C2021.63,1359.69 2020.88,1359.82 2020.18,1359.96C2009.04,1362.32 1989.28,1368.94 1980.66,1371.46C1977.56,1372.37 1975.41,1372.73 1974.76,1372.72C1971.45,1372.67 1968.8,1369.93 1968.85,1366.62C1968.9,1363.52 1971.3,1361 1974.33,1360.74Z" style="fill:rgb(141,141,141);"/>
    <path d="M1968.85,1389.53C1968.92,1386.24 1971.65,1383.61 1974.95,1383.67C1978.4,1383.72 1980.05,1385.26 1980.89,1386.34C1981.86,1387.59 1982.34,1389.03 1982.25,1390.69C1982.2,1391.61 1981.88,1392.89 1981.03,1394.26C1985.72,1394.08 1991.11,1393.61 1996.01,1392.99C2001.49,1392.29 2008.04,1390.64 2008.72,1390.47C2011.24,1388.72 2014.73,1389.15 2016.74,1391.55C2018.86,1394.09 2018.53,1397.87 2015.99,1400C2014.63,1401.14 2010.49,1402.75 2004.81,1403.79C1994.42,1405.67 1978.06,1406.91 1970.89,1406.02C1966.93,1405.53 1964.57,1403.87 1963.67,1402.72C1962.04,1400.63 1961.65,1398.28 1962.98,1395.62C1963.44,1394.69 1964.53,1393.32 1966.1,1391.92C1966.82,1391.28 1967.9,1390.35 1968.85,1389.53Z" style="fill:rgb(141,141,141);"/>
    <path d="M2060.64,1372.44L2060.64,1372.37C2060.68,1369.06 2063.41,1366.41 2066.72,1366.46C2071.22,1366.52 2072.87,1368.98 2073.51,1370.4C2074.12,1371.77 2074.38,1373.46 2073.57,1375.49C2073.12,1376.62 2071.08,1378.98 2067.57,1382.48C2059.36,1390.66 2053.02,1406.27 2052.5,1420.75C2052.02,1433.88 2056.47,1446.33 2070.59,1449.85C2072.47,1450.31 2075.26,1449.29 2078.45,1447.93C2084.77,1445.24 2092.03,1440.36 2097.12,1434.85C2099.59,1432.18 2101.57,1429.4 2102.41,1426.63C2102.93,1424.94 2102.96,1423.27 2101.93,1421.81C2100.18,1419.33 2096.61,1417.52 2091.02,1415.98C2083.97,1414.05 2074.15,1412.93 2060.87,1412.87C2057.56,1412.86 2054.89,1410.16 2054.9,1406.85C2054.91,1403.54 2057.61,1400.86 2060.92,1400.87C2078.66,1400.95 2090.84,1402.91 2098.81,1405.89C2105.29,1408.31 2109.36,1411.51 2111.74,1414.9C2117.56,1423.17 2114.42,1433.82 2105.93,1443C2098.64,1450.88 2087.73,1457.69 2079.24,1460.44C2074.64,1461.93 2070.58,1462.21 2067.7,1461.49C2051.21,1457.39 2043.18,1445.32 2041.04,1430.8C2038.09,1410.78 2047.1,1385.93 2059.11,1373.98L2060.64,1372.44Z" style="fill:rgb(141,141,141);"/>
    <path d="M2074.34,1386.6C2074.51,1385.99 2074.71,1385.23 2074.85,1384.77C2075.3,1383.32 2075.93,1382.05 2076.77,1381.04C2078.24,1379.26 2080.27,1377.96 2083.52,1377.96C2085.31,1377.96 2087.09,1378.56 2088.7,1380.06C2090.02,1381.3 2091.49,1383.74 2092.47,1387.28C2094.96,1396.29 2095.78,1414.93 2094.8,1426.65C2094.46,1430.58 2093.9,1433.8 2093.22,1435.84C2092.64,1437.57 2091.87,1438.8 2091.16,1439.58C2088.94,1442.04 2085.14,1442.23 2082.69,1440C2080.42,1437.95 2080.08,1434.56 2081.8,1432.12C2081.92,1431.59 2082.47,1429.21 2082.69,1427.23C2083.57,1418.99 2083.36,1405.83 2082.05,1396.46C2080.49,1397.73 2078.32,1398.57 2075.16,1398.53C2071.85,1398.49 2069.2,1395.77 2069.24,1392.45C2069.28,1389.47 2071.49,1387.03 2074.34,1386.6Z" style="fill:rgb(141,141,141);"/>
    <path d="M2125.3,1399.43C2124.31,1398.35 2123.72,1396.91 2123.74,1395.33C2123.78,1392.02 2126.5,1389.36 2129.81,1389.4C2130.89,1389.41 2134.23,1390.06 2136.15,1394.3C2139.09,1400.8 2146.25,1428.74 2150.19,1441.46C2150.35,1441.14 2150.54,1440.83 2150.76,1440.54C2152.76,1437.9 2156.53,1437.38 2159.17,1439.38C2161.45,1441.1 2162.61,1443.18 2163.1,1445.25C2163.8,1448.25 2163.02,1451.46 2161.05,1454.07C2158.46,1457.52 2153.84,1459.65 2149.6,1458.93C2146.61,1458.43 2143.57,1456.69 2141.52,1452.63C2138.86,1447.35 2128.98,1407.83 2125.3,1399.43ZM2129.28,1401.38L2129.33,1401.39L2129.13,1401.37L2129.28,1401.38ZM2128.88,1401.34L2129.01,1401.36L2128.76,1401.32L2128.88,1401.34ZM2128.47,1401.27L2128.74,1401.32L2128.45,1401.26L2128.21,1401.2L2128.47,1401.27ZM2127.77,1401.07C2127.9,1401.12 2128.03,1401.16 2128.15,1401.19L2127.88,1401.11L2127.77,1401.07Z" style="fill:rgb(141,141,141);"/>
    <path d="M2164.52,1400.95C2169.14,1410.19 2170.07,1423.58 2172.74,1434.2C2175.67,1445.8 2181.1,1451.71 2186.91,1454.09C2195.57,1457.63 2206.65,1453.47 2215.9,1444.25C2224.35,1435.82 2231.35,1423.49 2233.46,1412.07C2235.06,1403.42 2233.89,1395.26 2229.32,1389.08C2224.57,1382.66 2215.93,1377.97 2201.56,1377.97C2191.01,1377.97 2187.57,1380.87 2180.03,1388.25C2177.67,1390.56 2177.63,1394.36 2179.94,1396.73C2182.26,1399.1 2186.06,1399.14 2188.43,1396.82C2193.11,1392.24 2195.01,1389.97 2201.56,1389.97C2210.77,1389.97 2216.63,1392.11 2219.67,1396.22C2222.37,1399.87 2222.61,1404.77 2221.66,1409.88C2219.96,1419.09 2214.23,1428.96 2207.42,1435.75C2204.41,1438.76 2201.19,1441.16 2197.98,1442.48C2195.7,1443.41 2193.47,1443.81 2191.46,1442.99C2188.2,1441.65 2186.02,1437.77 2184.38,1431.27C2181.5,1419.85 2180.22,1405.52 2175.26,1395.59C2173.78,1392.62 2170.17,1391.42 2167.21,1392.9C2164.24,1394.38 2163.04,1397.99 2164.52,1400.95Z" style="fill:rgb(141,141,141);"/>
    <path d="M2251.86,1393.83C2258.41,1394.33 2264.76,1398.31 2270.98,1403.76C2276.15,1408.29 2281.32,1413.74 2286.85,1417.2C2290.83,1419.7 2295.03,1421.08 2299.71,1418.76C2307.56,1414.85 2309.82,1406.38 2309.55,1397.13C2309.08,1381.03 2300.77,1362.23 2292.36,1353.79C2288.85,1350.27 2290.71,1346.95 2291.05,1346.33C2291.71,1345.1 2294.24,1341.69 2298.88,1343.7C2299.92,1344.15 2303.84,1346.85 2305.85,1349.55C2307,1351.1 2307.6,1352.72 2307.78,1354.18C2315.08,1365.61 2321.12,1382.11 2321.55,1396.78C2321.96,1411.04 2317.16,1423.48 2305.05,1429.5C2297.49,1433.26 2290.54,1432.5 2283.97,1429.32C2278.56,1426.69 2273.4,1422.22 2268.4,1417.62C2264.2,1413.77 2260.14,1409.81 2255.94,1407.44C2255.39,1407.13 2254.83,1406.85 2254.27,1406.61C2253.78,1415.97 2250.83,1428.25 2250.78,1432.61C2250.83,1433.26 2251.07,1436.71 2250.91,1439.09C2250.78,1441.08 2250.35,1442.88 2249.78,1444.06C2248.39,1446.93 2246.11,1448.14 2243.63,1448.21C2242.14,1448.26 2239.97,1447.9 2237.66,1445.58C2236.13,1444.05 2234.66,1441.34 2233.76,1437.68C2232.28,1431.7 2231.95,1422.58 2232.98,1414.64C2233.6,1409.8 2234.74,1405.4 2236.27,1402.25C2237.08,1400.57 2238.05,1399.18 2239.1,1398.09C2238.57,1397.04 2238.35,1395.83 2238.52,1394.58C2238.97,1391.3 2242,1389.01 2245.28,1389.46C2247.94,1389.82 2250.24,1391.31 2251.86,1393.83Z" style="fill:rgb(141,141,141);"/>
    <path d="M1081.57,335.639C1080.4,334.521 1079.68,332.934 1079.71,331.187C1079.77,327.876 1082.51,325.237 1085.82,325.297C1088.35,325.343 1090.86,326.492 1092.39,329.863C1093.32,331.894 1093.89,336.092 1093.78,341.857C1093.42,359.691 1088.11,396.541 1090.45,419.758C1090.89,424.162 1091.6,428.021 1092.77,431.032C1093.27,432.331 1093.76,433.471 1094.48,434.237C1096.23,433.653 1100.54,432.163 1104.24,430.488C1114.18,425.986 1127.62,419.116 1139.5,414.336C1148.24,410.824 1156.25,408.496 1161.81,408.496L1162.68,408.493C1162.86,408.478 1163.05,408.472 1163.24,408.475C1170.88,408.586 1177.6,419.811 1163.16,420.466L1163.33,420.478C1163.33,420.478 1163.18,420.475 1163.06,420.473L1163.01,420.471C1162.62,420.489 1162.22,420.496 1161.81,420.496C1156.64,420.496 1148.96,423.326 1140.67,426.837C1126.84,432.694 1111.61,440.721 1102.51,444.275C1099.14,445.591 1096.41,446.325 1094.6,446.464C1092.64,446.616 1091.13,446.219 1090.05,445.683C1084.56,442.953 1080.56,435.564 1078.99,424.875C1076.12,405.393 1079.66,373.803 1081.2,352.593C1081.62,346.727 1081.89,341.705 1081.77,338.063C1081.74,337.22 1081.65,336.284 1081.57,335.639Z"/>
    <path d="M1163.33,363.219C1164.16,362.799 1165.11,362.569 1166.11,362.583C1168.39,362.617 1169.77,363.452 1170.57,364.63C1191.93,366.123 1205.4,382.379 1205.82,396.668C1206.22,410.039 1196.38,423.75 1170.18,423.75C1160.65,423.75 1154.53,416.231 1152.28,405.359C1150.57,397.129 1151.1,387.133 1152.78,379.24C1152.19,379.446 1151.6,379.667 1151.01,379.901C1147.93,381.116 1144.44,379.601 1143.23,376.521C1142.01,373.44 1143.53,369.953 1146.61,368.738C1151.16,366.941 1155.53,365.766 1159.68,365.123C1160.97,364.17 1162.28,363.58 1163.33,363.219ZM1165.81,376.628C1163.28,382.431 1162.19,394.063 1164.03,402.921C1164.51,405.269 1165.21,407.417 1166.25,409.129C1167.17,410.63 1168.38,411.75 1170.18,411.75C1186.49,411.75 1194.08,405.345 1193.83,397.025C1193.51,386.478 1182.43,375.979 1165.81,376.628Z"/>
    <path d="M1279.62,339.923L1279.62,339.917C1279.62,336.605 1282.31,333.921 1285.62,333.923C1288.93,333.925 1291.62,336.61 1291.62,339.923L1291.62,348.516C1291.63,356.219 1303.02,405.315 1304.01,415.047C1304.44,419.323 1302.35,421.524 1301.78,421.984C1300.62,422.931 1299.31,423.357 1297.89,423.342C1294.58,423.306 1291.92,420.588 1291.95,417.277C1291.96,416.914 1292,416.558 1292.06,416.214C1291.76,413.255 1290.55,406.813 1288.99,399.008C1286.35,408.426 1281.55,416.06 1273.91,419.867C1267.45,423.083 1260.69,421.263 1254.54,415.724C1244.2,406.42 1235.47,385.532 1233.74,378.676C1233.2,376.522 1231.66,357.902 1232.52,349.111C1232.91,345.101 1234.29,342.434 1235.31,341.417C1237.4,339.327 1239.61,338.903 1241.55,339.115C1243.9,339.371 1246.36,340.902 1247.8,343.636C1250.11,347.995 1249.34,354.171 1244.79,356.467C1244.88,364.022 1245.06,374.463 1245.38,375.744C1246.63,380.723 1252.19,394.467 1259.27,403.258C1260.9,405.285 1262.6,407.038 1264.37,408.23C1265.76,409.163 1267.14,409.833 1268.56,409.126C1274.36,406.236 1276.86,399.492 1278.34,391.942C1281.09,378.004 1279.62,361.048 1279.62,351.396L1279.62,339.923L1279.62,339.923ZM1295.33,411.947L1295.27,411.98L1295.41,411.908L1295.33,411.947ZM1297.7,411.348C1296.9,411.378 1296.13,411.558 1295.41,411.905C1296.11,411.578 1296.89,411.382 1297.7,411.348ZM1297.72,411.347L1298.02,411.343C1297.92,411.341 1297.82,411.343 1297.72,411.347Z"/>
    <path d="M1346.56,409.294C1346.57,409.014 1346.56,408.738 1346.48,408.575C1340.79,397.197 1340.12,376.179 1336.65,361.112C1335.88,357.769 1334.97,354.769 1333.72,352.382C1332.67,350.386 1331.51,348.79 1329.44,348.768C1326.13,348.735 1323.47,346.019 1323.51,342.707C1323.54,339.396 1326.26,336.735 1329.57,336.769C1337.4,336.849 1342.85,342.025 1346.16,350.913C1348.95,358.411 1350.29,368.872 1351.71,379.161C1352.97,388.265 1354.23,397.235 1357.21,403.209C1358.96,406.711 1358.82,412.886 1356.79,416.26C1355.12,419.019 1352.59,420.504 1349.52,420.474C1346.21,420.441 1343.55,417.726 1343.58,414.415C1343.61,412.228 1344.8,410.324 1346.56,409.294Z"/>
    <path d="M1314.1,325.391C1314.74,324.497 1316.15,322.586 1317.21,321.649C1319.77,319.398 1323.47,317.484 1330.71,319.888C1358.43,329.09 1382.91,358.221 1390.2,385.08C1394.12,399.547 1393.07,413.343 1385.9,423.537C1378.82,433.62 1365.55,440.647 1343.82,440.551C1340.51,440.537 1337.83,437.837 1337.85,434.525C1337.86,431.214 1340.56,428.537 1343.87,428.552C1360.31,428.624 1370.73,424.267 1376.08,416.639C1381.37,409.122 1381.51,398.887 1378.62,388.22C1372.27,364.816 1351.08,339.295 1326.93,331.276C1326.25,331.051 1325.39,330.918 1324.99,330.865C1324.74,331.202 1324.25,331.864 1323.98,332.243C1323.26,333.279 1322.47,334.221 1321.57,334.982C1319.9,336.391 1317.89,337.325 1315.1,337.296C1311.79,337.261 1309.13,334.544 1309.16,331.233C1309.19,328.306 1311.32,325.887 1314.1,325.391Z"/>
    <path d="M1436.53,317.637C1435.79,316.629 1435.35,315.382 1435.37,314.035C1435.39,310.724 1438.11,308.059 1441.42,308.087C1442.2,308.094 1444.4,308.106 1446.24,310.556C1446.64,311.082 1448.13,313.88 1450.08,318.239C1455.33,329.992 1465.18,354.456 1468.12,370.597C1468.99,375.382 1469.25,379.539 1468.83,382.646C1468.38,385.962 1467.14,388.424 1465.51,390.057C1460.99,394.576 1455.68,394.687 1449.87,391.005C1444.88,387.852 1439.15,380.867 1433.54,373.761C1429.53,368.689 1425.57,363.58 1421.87,360.466C1421.69,360.317 1421.5,360.165 1421.28,360.02C1420.23,370.824 1418.31,385.775 1418.31,391.551L1418.31,397.287C1418.31,400.497 1415.79,403.118 1412.62,403.279L1412.31,403.287C1409,403.287 1406.31,400.601 1406.31,397.287L1406.31,391.551L1406.3,390.455C1406.21,384.487 1405.52,371.4 1406.55,362.299C1407.08,357.627 1408.31,353.827 1409.82,351.474L1409.92,350.569C1409.67,349.909 1409.55,349.196 1409.55,348.452C1409.58,345.141 1412.29,342.476 1415.61,342.505C1417.05,342.518 1420.23,343.233 1421.46,346.791C1423.13,347.19 1424.85,347.959 1426.62,349.077C1431.61,352.233 1437.35,359.219 1442.96,366.325C1446.96,371.397 1450.92,376.507 1454.62,379.62C1455.27,380.17 1456.23,380.746 1456.88,381.106C1456.95,380.613 1457.03,379.99 1457.03,379.485C1457.05,376.958 1456.58,373.828 1455.83,370.338C1451.94,352.225 1440.41,325.493 1436.97,318.504C1436.82,318.191 1436.64,317.846 1436.53,317.637Z"/>
    <path d="M1491.19,332.189C1490.35,331.148 1489.85,329.821 1489.86,328.38C1489.89,325.069 1492.6,322.402 1495.91,322.428C1498.79,322.451 1500.57,323.491 1501.75,324.618C1503.24,326.057 1504.12,328.002 1504.04,330.502C1503.97,332.615 1502.51,335.925 1501.5,338.959C1496.19,354.814 1497.03,376.833 1506.58,391.091C1509.4,395.303 1513.71,394.813 1517.92,393.158C1527.36,389.44 1536.78,379.878 1539.39,376.979L1539.69,376.642C1541.02,374.71 1543.44,373.666 1545.88,374.189C1547.72,374.583 1549,375.61 1549.84,377.092C1550.36,378 1551.15,379.701 1550.25,382.145C1550.18,382.334 1549.68,383.488 1548.3,385.014C1545.16,388.505 1533.68,399.846 1522.31,404.324C1512.63,408.134 1503.11,407.464 1496.61,397.769C1485.14,380.632 1483.74,354.207 1490.12,335.151C1490.39,334.329 1490.81,333.192 1491.19,332.189Z"/>
    <path d="M1488.86,322.563C1489.19,321.737 1489.82,320.084 1490.13,318.987C1491.19,315.298 1492.55,311.797 1494.5,309.861C1502.67,301.762 1522.05,296.648 1533.28,296.648C1535.59,296.648 1537.23,296.206 1538.27,296.309C1540.68,296.548 1542.38,297.595 1543.63,299.568C1544.3,300.628 1545.03,302.462 1544.88,305.766C1544.72,309.074 1541.91,311.632 1538.6,311.475C1536.55,311.378 1534.79,310.26 1533.78,308.636L1533.28,308.648C1524.59,308.648 1509.45,312.048 1503.05,318.286C1502.96,318.508 1502.26,320.263 1501.94,321.345C1501.14,324.092 1500.31,326.965 1499.07,329.057C1497.05,332.472 1494.15,334.46 1490.08,334.428C1486.77,334.401 1484.1,331.691 1484.12,328.38C1484.15,325.518 1486.17,323.138 1488.86,322.563Z"/>
    <path d="M1477.11,342.831C1474.53,342.144 1472.63,339.778 1472.65,336.984C1472.68,333.672 1475.39,331.006 1478.7,331.033C1480.01,331.043 1482.46,331.908 1485.26,333.818C1486.62,334.75 1488.32,335.972 1490.26,336.74C1491.4,337.19 1492.65,337.524 1493.96,337.093C1506.01,333.117 1519.04,328.248 1533.11,328.164C1536.42,328.144 1539.13,330.817 1539.15,334.128C1539.17,337.44 1536.5,340.144 1533.18,340.164C1520.42,340.24 1508.65,344.882 1497.72,348.489C1492.52,350.205 1487.5,348.931 1483.28,346.712C1480.9,345.457 1477.88,343.373 1477.11,342.831Z"/>
    <path d="M1602.66,363.189C1602.62,363.027 1602.54,362.734 1602.47,362.549C1602.25,362.026 1601.94,361.493 1601.58,360.942C1600.47,359.261 1598.88,357.513 1597.03,355.702C1588.76,347.597 1575.77,338.716 1569.21,331.633C1566.72,328.938 1565.03,326.354 1564.24,324.114C1563.33,321.509 1563.39,319.107 1564.23,316.952C1565.04,314.851 1566.67,312.806 1569.69,311.26C1573.25,309.441 1579.89,308.12 1590.84,308.12C1593.96,308.12 1598.3,310.111 1600.07,311.526C1601.68,312.82 1602.32,314.27 1602.55,315.1C1603.13,317.133 1602.68,318.842 1601.72,320.249C1601.02,321.275 1599.42,323.279 1595.69,322.929C1593.78,322.749 1592.16,321.69 1591.2,320.187C1591.07,320.146 1590.94,320.12 1590.84,320.12C1585.9,320.12 1582.05,320.365 1579.11,320.854C1578.29,320.992 1577.41,321.232 1576.67,321.467C1578.26,323.332 1581.31,326.768 1584.16,329.193C1593.51,337.129 1606.03,346.236 1611.28,353.861C1614.94,359.182 1615.58,364.243 1613.48,368.44C1612.41,370.555 1610.18,372.862 1606.88,374.84C1601.42,378.101 1592.57,380.931 1584.44,382.09C1579.56,382.786 1574.94,382.871 1571.4,382.252C1567.93,381.645 1565.27,380.297 1563.57,378.595C1562.12,377.142 1561.47,375.628 1561.22,374.224C1560.92,372.515 1561.19,370.822 1562.08,369.186C1562.92,367.642 1564.64,365.955 1567.03,364.601C1569.65,363.111 1574.64,361.182 1575.54,360.839C1577.77,359.238 1580.89,359.332 1583.02,361.228C1585.5,363.427 1585.73,367.222 1583.53,369.698C1583.41,369.833 1583.25,369.991 1583.05,370.164C1588.61,369.343 1594.56,367.634 1598.89,365.524C1600.11,364.926 1601.19,364.308 1602.04,363.654C1602.27,363.476 1602.51,363.35 1602.66,363.189ZM1596.56,310.964L1596.81,310.981C1596.72,310.973 1596.64,310.967 1596.56,310.964Z"/>
    <path d="M1643.12,318.006C1645.04,318.819 1646.92,319.566 1648.24,320.222C1655.9,324.038 1667.71,331.22 1677.27,339.045C1684.15,344.679 1689.83,350.727 1692.51,356.105C1694.54,360.192 1695.03,364.09 1694.07,367.528C1693.09,371.052 1690.61,374.386 1685.65,376.855C1673.21,383.051 1662.29,381.009 1650.39,380.309C1647.09,380.114 1644.56,377.273 1644.76,373.967C1644.95,370.661 1647.79,368.135 1651.1,368.329C1660.93,368.908 1670.02,371.236 1680.3,366.114C1681.32,365.607 1682.1,365.149 1682.45,364.462C1682.85,363.683 1682.39,362.826 1681.96,361.86C1681.29,360.386 1680.25,358.864 1678.96,357.296C1670.57,347.058 1652.85,335.925 1642.89,330.964C1639.44,329.246 1632.57,326.74 1630.01,324.212C1627.91,322.14 1627.21,319.807 1627.42,317.627C1627.57,316.057 1628.18,314.366 1629.79,312.754C1633.43,309.102 1647.4,301.695 1658.21,300.39C1664.4,299.643 1669.65,300.977 1672.82,304.133C1675.11,306.419 1677.99,312.291 1678.03,315.473C1678.08,318.192 1676.94,320.14 1675.44,321.372C1674.26,322.342 1672.69,323.06 1670.51,322.947C1667.2,322.776 1664.66,319.952 1664.83,316.645C1664.87,315.843 1665.07,315.086 1665.39,314.402C1665.06,313.698 1664.66,312.945 1664.35,312.635C1663.9,312.194 1663.18,312.234 1662.41,312.188C1660.54,312.075 1658.4,312.411 1656.17,312.956C1651.6,314.073 1646.72,316.081 1643.12,318.006ZM1670.69,310.958L1670.77,310.956L1670.74,310.955L1670.69,310.958Z"/>
    <path d="M1840.86,302.714C1841.55,302.461 1842.29,302.333 1843.07,302.352C1845.68,302.419 1846.83,303.231 1847.01,303.346C1848.59,304.35 1849.22,305.633 1849.54,306.677C1849.97,308.102 1849.9,309.553 1849.2,311.015C1849,311.431 1848,313.84 1844.57,314.384C1843.75,314.513 1840.07,314.772 1836.62,315.384C1835.23,315.631 1833.85,315.779 1833.14,316.25C1827.75,319.829 1820.22,324.442 1814.77,330.276C1810.52,334.833 1807.46,340.183 1809.62,346.628C1810.81,350.162 1813.88,353.222 1817.71,355.836C1824.43,360.412 1833.59,363.431 1842.07,363.962C1850.01,364.458 1857.56,363.144 1860.5,357.286C1861.98,354.327 1865.59,353.13 1868.55,354.616C1871.51,356.101 1872.71,359.71 1871.22,362.67C1866.32,372.446 1854.57,376.767 1841.32,375.938C1830.74,375.277 1819.33,371.46 1810.96,365.753C1804.73,361.511 1800.17,356.185 1798.25,350.45C1795.22,341.427 1797.43,333.468 1802.32,326.573C1808.43,317.954 1819.13,311.147 1826.5,306.254C1827.85,305.357 1830.03,304.523 1832.55,303.961C1835.2,303.369 1838.74,302.939 1840.86,302.714Z"/>
    <path d="M1918.86,302.648L1930.86,302.648L1930.86,314.12C1930.86,328.184 1936.75,349.042 1946.37,358.629C1947.45,359.702 1948.39,360.371 1948.82,360.781C1949.54,361.471 1949.97,362.12 1950.22,362.602C1950.9,363.911 1951.01,365.119 1950.9,366.149C1950.72,367.79 1950.01,369.326 1948.3,370.519C1947.76,370.894 1946.26,371.774 1943.18,371.713C1940.21,371.655 1937.78,369.436 1937.37,366.584C1930.58,359.504 1925.22,347.811 1922.06,336.012C1920.16,339.088 1918,341.982 1915.65,344.44C1908.36,352.06 1899.4,355.461 1890.52,351.041C1885.59,348.582 1882.58,343.007 1881.7,335.906C1881.03,330.502 1881.5,324.176 1882.24,318.812C1880.8,317.685 1879.89,315.917 1879.94,313.951C1879.99,311.533 1881.48,309.479 1883.56,308.578L1884.63,306.437C1885.68,303.386 1888.95,301.708 1892.04,302.639C1895.13,303.57 1896.93,306.776 1896.11,309.897C1896.11,309.897 1893.33,320.515 1893.36,330.128C1893.37,332.9 1893.59,335.583 1894.31,337.789C1894.66,338.861 1895,339.865 1895.87,340.3C1899.92,342.317 1903.65,339.622 1906.98,336.143C1913.83,328.986 1918.86,317.106 1918.86,311.252L1918.86,302.648Z"/>
    <path d="M1953.55,301.264C1952.35,300.143 1951.61,298.535 1951.64,296.764C1951.71,293.453 1954.45,290.816 1957.76,290.879C1960.57,290.932 1964.12,292.875 1965.22,298.327C1966.06,302.535 1965.72,310.616 1965.41,317.163C1965.27,320.134 1965.28,323.892 1965.28,324.282C1966.41,328.751 1971.42,346.572 1972.55,355.069C1973.09,359.083 1972.42,361.948 1971.79,363.05C1971,364.424 1969.94,365.259 1968.81,365.762C1967.54,366.33 1966.08,366.542 1964.4,366.061C1963.29,365.742 1960.84,364.412 1958.28,360.263C1956.6,357.549 1957.35,354.015 1959.92,352.205C1958.18,343.441 1954.46,330.449 1953.61,327.054C1953.22,325.508 1953.2,321.434 1953.42,316.603C1953.67,311.358 1954.12,304.946 1953.55,301.264ZM1957.1,302.852L1957.11,302.852L1957.09,302.85L1957.1,302.852Z"/>
    <path d="M2017.57,354.556C2018.5,354.992 2019.33,355.674 2019.95,356.58C2020.82,357.844 2021.46,360.128 2020.9,362.589C2020.38,364.898 2018.75,367.122 2018.12,367.651C2015.8,369.587 2013.53,369.278 2011.95,368.649C2010.74,368.165 2008.14,366.96 2008.12,362.903C2008.11,360.975 2006.46,360.104 2004.56,359.215C2000.71,357.402 1995.47,356.379 1990.03,355.327C1982.4,353.85 1974.41,352.373 1968.3,349.661C1963.08,347.341 1959.12,344.088 1956.94,339.758C1955.25,336.397 1955.74,331.795 1959.66,326.878C1964.51,320.81 1975.56,312.81 1984.44,304.74C1987.77,301.719 1990.76,298.703 1992.79,295.759C1994.02,293.969 1995.06,292.373 1994.8,290.774C1994.64,289.805 1993.8,289.085 1992.6,288.272C1991.05,287.216 1988.97,286.276 1986.33,285.395C1978.68,282.853 1974.49,286.981 1970.37,290.262C1965.56,294.105 1960.73,297.255 1954.66,297.14C1951.35,297.077 1948.71,294.338 1948.78,291.027C1948.84,287.716 1951.58,285.079 1954.89,285.142C1957.01,285.182 1958.68,284.052 1960.36,282.831C1962.18,281.52 1963.94,279.996 1965.82,278.581C1971.99,273.935 1979.07,270.339 1990.11,274.008C2001.44,277.775 2005.75,283.437 2006.64,288.823C2007.52,294.147 2004.93,300.328 1999.69,306.394C1992.64,314.547 1980.76,323.115 1973.11,330.156C1971.22,331.899 1969.25,334.365 1968.38,335.487C1969.87,337.353 1972.37,338.475 1975.17,339.496C1982.38,342.115 1991.7,343.215 1999.52,345.052C2004.74,346.28 2009.38,347.861 2012.74,350.051C2014.73,351.345 2016.36,352.836 2017.57,354.556ZM2009.87,363.078L2009.88,363.099L2009.8,362.948L2009.87,363.078ZM2009.05,360.681C2009.05,361.424 2009.4,362.241 2009.73,362.836C2009.36,362.152 2009.13,361.42 2009.05,360.681Z"/>
    <path d="M2063.55,294.742C2063.51,294.472 2063.5,294.197 2063.5,293.918C2063.55,290.607 2066.28,287.96 2069.59,288.01C2071.16,288.034 2072.63,288.574 2073.88,289.892C2074.27,290.303 2075.89,292.304 2075.48,296.013C2074.63,303.704 2066.19,342.529 2066.19,351.407C2066.19,352.608 2065.01,356.656 2063.2,359.96C2061.78,362.543 2059.97,364.6 2058.72,365.39C2056.84,366.575 2055.02,366.674 2053.49,366.306C2051.86,365.911 2050.11,364.956 2048.99,362.534C2047.31,358.91 2036.53,325.66 2024.84,305.958C2022.59,302.166 2020.33,298.91 2018.09,296.614C2016.91,295.409 2016.01,294.291 2014.91,294.272C2011.6,294.216 2008.95,291.483 2009.01,288.172C2009.06,284.861 2011.8,282.218 2015.11,282.274C2018.18,282.325 2021.5,283.651 2024.76,286.437C2028.16,289.342 2031.73,294.051 2035.16,299.836C2042.85,312.798 2050.19,331.496 2054.89,344.122C2056.93,329.38 2062.8,301.331 2063.55,294.742ZM2065.86,298.776C2066.93,299.627 2068.14,299.989 2069.41,300.009C2068.07,299.988 2066.85,299.532 2065.86,298.776Z"/>
    <path d="M2099.47,296.931C2096.89,296.228 2095.01,293.849 2095.05,291.055C2095.1,287.743 2097.83,285.094 2101.14,285.142C2104.14,285.185 2106.32,286.155 2107.94,287.56C2109.58,288.976 2110.74,290.946 2111.25,293.545C2111.8,296.364 2111.45,300.379 2110.37,305.146C2108.44,313.709 2104.2,325.477 2103.16,336.437C2102.34,345.088 2103.43,353.334 2111.82,357.507C2115.64,359.403 2121.09,359.177 2126.76,358.403C2136.86,357.024 2147.57,353.368 2153.35,351.449C2155.06,350.881 2158.81,348.644 2161.17,347.187C2161.78,344.478 2164.21,342.468 2167.1,342.506C2170.48,342.55 2172.09,344.137 2172.89,345.217C2174.13,346.875 2174.68,348.956 2173.7,351.461C2173.32,352.427 2172.39,353.885 2170.69,355.307C2167.59,357.902 2160.58,361.69 2157.13,362.838C2150.88,364.911 2139.29,368.802 2128.39,370.292C2120.05,371.431 2112.09,371.04 2106.48,368.253C2094.82,362.458 2090.9,352.26 2090.94,340.593C2090.98,330.743 2094.03,319.771 2096.61,310.451C2097.82,306.033 2098.92,302.035 2099.36,298.815C2099.44,298.24 2099.47,297.522 2099.47,296.931Z"/>
    <path d="M2159.86,270.825C2161.28,270.832 2162.65,270.877 2163.98,270.957C2179.74,271.669 2184.9,274.461 2183.1,277.158C2184.07,280.084 2177.57,282.902 2159.75,282.811L2158.76,282.827C2156.21,282.851 2143.59,282.834 2140.84,282.834C2133.71,282.834 2123.01,285.889 2114.14,288.232C2107.2,290.065 2101.21,291.449 2098.1,291.404C2094.79,291.356 2092.14,288.629 2092.19,285.318C2092.23,282.007 2094.96,279.357 2098.27,279.405C2100.76,279.441 2105.52,278.099 2111.07,276.631C2120.95,274.022 2132.9,270.834 2140.84,270.834C2143.35,270.834 2154.11,270.849 2157.83,270.83C2158.05,270.807 2158.27,270.798 2158.5,270.801L2159.86,270.825Z"/>
    <path d="M2096.37,320.025C2098.26,319.797 2100.42,319.492 2102.41,319.108C2116.57,316.373 2136.05,311.13 2137.83,310.977C2141.13,310.694 2144.03,313.143 2144.32,316.443C2144.6,319.742 2142.15,322.65 2138.85,322.933C2136.63,323.124 2106.37,331.469 2094.35,332.455C2091.87,332.659 2089.91,332.547 2088.67,332.263C2087.08,331.898 2085.96,331.211 2085.2,330.529C2083.7,329.184 2082.99,327.529 2082.99,325.617C2082.98,323.747 2083.6,321.144 2084.1,319.387C2083.75,318.618 2083.57,317.764 2083.58,316.866C2083.63,313.555 2086.36,310.907 2089.67,310.956C2093.43,311.011 2095.14,312.913 2096.07,315.103C2096.54,316.195 2096.81,317.647 2096.51,319.421C2096.49,319.607 2096.44,319.809 2096.37,320.025ZM2089.13,322.938L2089.14,322.938L2089.12,322.936L2089.13,322.938Z"/>
</svg>
