<?xml version="1.0" encoding="UTF-8" standalone="no"?>
<!DOCTYPE svg PUBLIC "-//W3C//DTD SVG 1.1//EN" "http://www.w3.org/Graphics/SVG/1.1/DTD/svg11.dtd">
<svg width="100%" height="100%" viewBox="0 0 3508 2481" version="1.1" xmlns="http://www.w3.org/2000/svg" xmlns:xlink="http://www.w3.org/1999/xlink" xml:space="preserve" xmlns:serif="http://www.serif.com/" style="fill-rule:evenodd;clip-rule:evenodd;stroke-linejoin:round;stroke-miterlimit:2;">
    <g transform="matrix(1,0,0,1,1754.81,1240.94)">
        <g transform="matrix(1,0,0,1,-1754,-1240.5)">
            <g transform="matrix(0.53088,0,0,0.588537,708.323,401.651)">
                <path d="M1425.39,855.292C1424.84,855.405 1424.27,855.545 1423.77,855.711C1400.98,863.277 1382.78,889.703 1377.77,914.958C1374.96,929.166 1376.23,943.223 1384.81,953.063C1390.21,959.256 1398.56,963.493 1410.16,965.143C1462.32,972.56 1495.06,927.68 1498.33,891.178C1500.24,869.902 1491.8,850.655 1467.14,850.58C1460.9,850.561 1455.86,845.977 1455.88,840.351C1455.9,834.724 1460.98,830.171 1467.22,830.19C1483.58,830.24 1495.91,835.368 1504.75,843.484C1517.17,854.904 1522.64,872.951 1520.86,892.82C1516.69,939.346 1473.12,994.738 1406.64,985.284C1388.37,982.684 1375.56,975.427 1367.05,965.67C1354.76,951.586 1351.49,931.703 1355.52,911.368C1361.93,879.052 1386.8,846.258 1415.96,836.577C1426.5,833.077 1433.86,834.582 1438.74,837.42C1445.98,841.637 1449.57,850.813 1447.81,861.28C1446.27,870.435 1440.95,880.244 1435.03,885.333C1430.64,889.108 1425.7,890.803 1421.1,890.733C1414.86,890.638 1409.88,885.993 1409.99,880.367C1410.08,875.383 1414.13,871.29 1419.4,870.49C1420.26,869.381 1423.25,865.409 1424.3,862.53C1425.07,860.414 1425.31,857.241 1425.39,855.292Z"/>
            </g>
            <g transform="matrix(0.613071,0,0,1.06901,592.827,17.1501)">
                <path d="M1412.17,823.999L1411.66,823.454C1410.96,822.726 1410.61,822.155 1410.47,821.877C1397.98,796.894 1384.35,765.471 1362.12,739.636C1332.98,705.773 1199.81,598.659 1146.16,549.249C1136.46,540.317 1129.3,533.201 1125.64,528.647C1123.53,526.009 1122.47,523.968 1122.21,522.673C1118.98,506.447 1135.32,490.647 1161.83,476.717C1218.87,446.739 1322.42,424.829 1341.33,421.94C1346.55,421.142 1351.91,422.924 1353.3,425.918C1354.69,428.911 1351.59,431.989 1346.37,432.786C1330.87,435.156 1255.87,450.897 1200.38,473.4C1182.42,480.686 1166.5,488.668 1155.6,497.183C1145.72,504.899 1139.99,512.999 1141.66,521.399C1141.83,522.278 1143.17,523.738 1144.99,525.811C1148.76,530.088 1154.9,536.064 1162.77,543.315C1216.69,592.965 1350.39,700.641 1379.67,734.668C1402.28,760.948 1416.34,792.85 1429.06,818.337C1430.09,819.505 1433.07,823.052 1433.16,824.778C1433.28,826.845 1431.99,828.485 1429.93,829.689C1428.12,830.747 1425.42,831.722 1421.03,831.655C1415.63,831.572 1411.36,828.991 1411.51,825.895C1411.54,825.226 1411.77,824.588 1412.17,823.999Z"/>
            </g>
            <g transform="matrix(0.613071,0,0,1.06901,592.462,20.1444)">
                <path d="M1346.21,455.578C1342.36,454.768 1339.66,452.607 1339.8,450.124C1339.98,447.028 1344.51,444.597 1349.9,444.699C1353.85,444.773 1358.39,445.898 1362.19,449.022C1366.12,452.246 1370.2,458.863 1373.76,467.987C1392.01,514.729 1404.54,633.014 1406.61,653.651C1411.48,702.188 1415.45,750.819 1420.95,799.285L1424.32,805.998C1426.06,804.293 1429.33,803.169 1433.01,803.224C1435.42,803.26 1438.04,803.712 1440.27,805.223C1440.72,805.53 1442.64,806.964 1442.73,809.566C1442.8,811.867 1442.13,817.765 1440.26,821.686C1438.8,824.767 1436.09,826.916 1433.75,827.86C1431.38,828.809 1428.82,829.186 1426.13,829.058C1423.27,828.922 1418.9,828.103 1415.16,824.546C1413.07,822.556 1410.48,819.016 1407.6,813.278L1401.84,801.805L1401.48,800.618C1395.94,751.922 1391.97,703.061 1387.07,654.296C1385.02,633.861 1372.73,516.725 1354.66,470.44C1352.63,465.244 1350.56,460.997 1348.39,457.981C1347.76,457.102 1346.76,456.098 1346.21,455.578ZM1428.54,813.898L1428.57,813.948C1429.9,814.301 1431.26,814.427 1432.51,814.445C1431.09,814.424 1429.74,814.23 1428.54,813.898Z"/>
            </g>
            <g transform="matrix(1,0,0,1,-10.3636,43.5273)">
                <path d="M1734.78,590.974C1728.14,611.882 1712.52,630.13 1701.47,648.465C1689.26,668.746 1619.64,762.642 1567.88,817.01C1551.97,833.718 1537.66,846.722 1527.13,853.016C1521.53,856.362 1516.69,857.903 1513,857.857C1509.69,857.817 1507.03,855.095 1507.07,851.784C1507.11,848.473 1509.83,845.818 1513.14,845.858C1516.17,845.895 1520.15,843.51 1525.18,839.956C1534.55,833.333 1546.29,822.288 1559.19,808.735C1610.32,755.03 1679.13,662.307 1691.19,642.273C1702.86,622.902 1720.39,603.883 1724.97,581.088C1725.27,579.573 1726.72,567.868 1728.23,559.888C1729.06,555.466 1730.13,551.99 1730.88,550.752C1732.19,548.587 1733.94,547.879 1735.17,547.624C1737.08,547.229 1739.05,547.539 1740.86,549.336C1741.84,550.315 1742.88,551.904 1743.65,554.204C1744.69,557.259 1745.48,562.227 1745.97,568.552C1748.5,601.002 1744.23,672.938 1745.48,687.89C1749.87,740.152 1785.26,795.799 1797.83,833.686C1803.65,851.241 1804.39,865.502 1797.86,874.871C1793.7,880.849 1786.59,885.284 1775.27,887.162C1760.89,889.548 1738.82,887.839 1706.47,880.684C1680.53,874.949 1653.67,869.353 1627.13,869.353C1596.75,869.353 1558.93,858.927 1528.69,866.105C1528.71,867.251 1528.84,870.261 1529.36,872.332C1529.74,873.794 1530.2,875.296 1530.72,876.787C1531.58,879.278 1532.58,881.735 1533.54,883.925C1534.56,884.459 1535.47,885.278 1536.22,886.389C1536.9,887.392 1537.47,888.798 1537.78,890.333C1538.22,892.538 1538.17,895.036 1538.17,895.036C1538.11,897.758 1536.23,900.098 1533.58,900.736C1530.93,901.374 1528.19,900.15 1526.89,897.755C1526.89,897.755 1517.94,880.938 1516.7,869.827C1515.8,861.793 1518.75,856.206 1524.94,854.663C1556.21,846.868 1595.58,857.353 1627.13,857.353C1654.54,857.353 1682.28,863.046 1709.06,868.967C1739.28,875.651 1759.88,877.553 1773.31,875.324C1780.54,874.125 1785.36,871.831 1788.02,868.013C1790.16,864.934 1790.79,861.013 1790.58,856.46C1790.32,850.894 1788.78,844.516 1786.44,837.465C1773.64,798.892 1737.99,742.102 1733.52,688.894C1732.5,676.701 1735.12,626.751 1734.78,590.974Z"/>
            </g>
            <path d="M1497.4,950.796C1496.27,949.69 1495.58,948.14 1495.6,946.433C1495.64,943.122 1498.36,940.467 1501.67,940.509C1504.48,940.544 1507.79,942.294 1509.02,947.208C1509.78,950.249 1509.84,955.607 1509.66,960.509L1509.34,968.704C1517.68,1018.63 1520.21,1070.53 1535.06,1119.76C1542.34,1143.9 1562.49,1161.59 1578.95,1171.66C1579.08,1171.12 1579.3,1170.59 1579.59,1170.08C1581.25,1167.22 1584.93,1166.25 1587.79,1167.91C1596.31,1172.86 1601.4,1176.61 1603.91,1179.08C1605.98,1181.13 1606.86,1182.94 1607.17,1184.14C1607.85,1186.7 1607.17,1188.69 1605.92,1190.23C1604.9,1191.5 1603,1192.88 1599.85,1192.91C1596.53,1192.95 1589.04,1190.8 1579.94,1186.02C1560.6,1175.86 1532.88,1154.1 1523.57,1123.22C1508.56,1073.43 1505.92,1020.95 1497.47,970.467C1497.31,969.478 1497.38,966.328 1497.56,962.503C1497.72,959.007 1497.49,952.831 1497.4,950.796ZM1501.12,952.488L1501.12,952.489L1501.12,952.488Z"/>
            <path d="M1497.53,940.914C1494.76,940.353 1492.69,937.886 1492.73,934.96C1492.77,931.649 1495.49,928.994 1498.81,929.036C1499.81,929.049 1501.34,929.336 1503.21,930.324C1505.11,931.328 1508.01,933.383 1511.59,936.242C1524.34,946.416 1547.15,967.513 1564.77,981.278C1571.76,986.734 1577.8,991.03 1581.91,992.667C1605.49,1002.06 1628.13,1012.43 1652.33,1021.2C1668.81,1027.17 1693.77,1030.49 1715.78,1036.88C1731.6,1041.47 1745.91,1047.7 1755.25,1057.01C1761.15,1062.9 1760.05,1071.53 1750.49,1080.72C1725.16,1105.04 1635.54,1141.87 1621.42,1149.69C1611.07,1155.42 1598.3,1161.09 1586.35,1167.85C1575.2,1174.17 1564.74,1181.41 1558.15,1190.87C1556.26,1193.59 1552.51,1194.25 1549.8,1192.36C1547.08,1190.47 1546.41,1186.73 1548.3,1184.01C1562.93,1163.02 1594.16,1151.06 1615.61,1139.19C1627.78,1132.45 1697.01,1104.02 1730.84,1080.95C1737.43,1076.45 1742.61,1072.27 1745.42,1068.46C1746,1067.69 1746.45,1066.95 1746.73,1066.24C1746.84,1065.96 1746.97,1065.71 1746.77,1065.51C1738.69,1057.44 1726.13,1052.38 1712.43,1048.4C1690.16,1041.94 1664.91,1038.52 1648.24,1032.48C1623.92,1023.67 1601.16,1013.26 1577.47,1003.82C1564.19,998.524 1531.98,969.177 1511.67,951.898C1505.3,946.472 1498.43,941.551 1497.53,940.914Z"/>
            <g transform="matrix(1,0,0,1,31.2926,0.0896315)">
                <path d="M1421.53,986.32C1419.5,985.331 1418.12,983.237 1418.16,980.836C1418.21,977.525 1420.94,974.878 1424.25,974.928C1426.73,974.966 1428.58,975.747 1430,976.857C1431.94,978.376 1433.26,980.718 1433.59,983.891C1433.89,986.844 1433.18,991.012 1432.39,995.207C1431.86,998.009 1431.21,1000.82 1431.55,1002.91C1437.65,1039.48 1435.14,1077.79 1443.04,1114.49C1450.09,1147.26 1456.97,1179.98 1468.69,1211.16C1473.59,1224.18 1478.75,1238.36 1483.15,1251.53C1483.49,1252.52 1484.74,1254.47 1485.43,1256.21C1486.09,1257.84 1486.4,1259.41 1486.39,1260.66C1486.36,1262.96 1485.48,1264.76 1484.02,1266.08C1482.88,1267.11 1481.2,1268.05 1478.57,1268.01C1475.26,1267.97 1472.61,1265.24 1472.65,1261.93C1472.67,1260.88 1472.95,1259.89 1473.44,1259.04C1472.78,1257.67 1472,1256 1471.78,1255.33C1467.41,1242.31 1462.31,1228.27 1457.46,1215.39C1445.53,1183.65 1438.48,1150.37 1431.31,1117.02C1423.37,1080.13 1425.84,1041.63 1419.72,1004.88C1419.12,1001.3 1419.99,996.237 1420.88,991.466C1421.19,989.853 1421.41,987.689 1421.53,986.32Z"/>
            </g>
            <g transform="matrix(1,0,0,1,31.2926,0.0896315)">
                <path d="M1403.89,985.717C1404.35,982.816 1406.89,980.617 1409.91,980.664C1412.02,980.698 1413.79,981.568 1415.01,983.638C1415.21,983.996 1416.4,986.072 1415.35,989.304C1413.84,993.911 1404.1,1017.11 1402.18,1020.93C1389.74,1045.69 1307.23,1172.73 1278.92,1230.89C1274.88,1239.19 1271.97,1246 1270.65,1250.8C1270.42,1251.65 1270.25,1252.67 1270.14,1253.4C1270.6,1253.66 1271.15,1253.95 1271.6,1254.14C1273.98,1255.18 1276.63,1255.95 1277.81,1256.34C1284.8,1258.66 1294.68,1257.89 1304.82,1257.02C1316.34,1256.04 1328.16,1254.8 1337.25,1256.09C1365.19,1260.07 1391.24,1275.24 1418.49,1282.03C1427.48,1284.27 1438.39,1289.19 1449.31,1293.31C1459,1296.97 1468.67,1300.11 1476.73,1299.1C1479.62,1298.74 1485.81,1297.91 1489.57,1297.24C1490.56,1296.55 1491.77,1296.15 1493.07,1296.17C1499.22,1296.25 1500,1301.19 1500.05,1301.87C1500.14,1303.11 1500.08,1306.35 1496.22,1307.96C1494.62,1308.63 1482.8,1310.44 1478.22,1311.01C1470.32,1312 1461.11,1310.07 1451.68,1306.91C1439.09,1302.69 1426.02,1296.27 1415.59,1293.67C1388.73,1286.98 1363.1,1271.89 1335.56,1267.97C1325.44,1266.54 1311.71,1268.68 1299.15,1269.49C1289.63,1270.11 1280.72,1269.95 1274.02,1267.73C1272.17,1267.11 1267.36,1265.65 1264.1,1263.82C1261.61,1262.41 1259.86,1260.63 1259.04,1259C1258.15,1257.23 1257.66,1254.34 1258.42,1250.42C1259.45,1245.07 1262.87,1236.46 1268.13,1225.64C1296.46,1167.44 1379.01,1040.32 1391.46,1015.54C1393.26,1011.96 1402.32,990.406 1403.89,985.717ZM1405,990.235C1406.12,991.824 1407.64,992.552 1409.41,992.65C1407.6,992.529 1406.01,991.606 1405,990.235Z"/>
            </g>
            <path d="M1483.33,1295.23C1481.2,1294.68 1477.6,1293.83 1475.75,1293.83C1472.44,1293.81 1469.77,1291.11 1469.78,1287.8C1469.8,1284.48 1472.5,1281.81 1475.81,1281.83C1479.42,1281.84 1485.63,1283.2 1488.54,1284.19C1490.01,1284.69 1491.01,1285.27 1491.46,1285.6C1493.91,1287.43 1494.07,1289.68 1493.96,1291.03C1493.87,1292.14 1493.09,1296.77 1487.18,1296.69C1485.7,1296.67 1484.36,1296.12 1483.33,1295.23ZM1486.87,1284.71L1486.83,1284.71L1486.97,1284.7L1486.87,1284.71ZM1487.05,1284.7L1487.34,1284.69C1487.24,1284.69 1487.15,1284.69 1487.05,1284.7Z"/>
            <g transform="matrix(1,0,0,1,84.7914,37.7125)">
                <path d="M1154.45,708.959C1154.62,707.613 1154.73,706.398 1154.73,705.602L1154.73,699.865C1154.73,697.33 1156.32,695.069 1158.71,694.216C1161.1,693.362 1163.76,694.1 1165.37,696.06C1165.37,696.06 1178.03,711.519 1185.1,718.562C1225.18,758.52 1260.25,804.498 1302.84,841.621C1317.87,854.726 1331.95,867.582 1348.31,878.43C1351.75,880.716 1358.83,885.121 1363.11,888.519C1366.12,890.917 1367.91,893.355 1368.39,894.751C1369.3,897.405 1368.65,899.546 1367.24,901.226C1366.33,902.307 1364.52,903.813 1360.95,903.748C1357.69,903.689 1355.08,901.041 1355.06,897.803C1351.38,895.187 1344.47,890.283 1341.67,888.431C1324.88,877.29 1310.39,864.125 1294.95,850.667C1252.16,813.369 1216.9,767.206 1176.63,727.06C1173.57,724.008 1169.49,719.44 1165.78,715.148C1165.39,717.626 1164.94,719.851 1164.54,721.02C1163.85,723.03 1162.71,724.219 1161.56,724.91C1160.21,731.663 1158.5,740.469 1158.03,743.74C1154.71,766.897 1153.99,789.689 1149.32,812.906C1142.29,847.93 1123.63,910.948 1100.49,954.801C1112.99,946.803 1127.43,941.995 1141.84,937.892C1187.69,924.843 1230.67,907.172 1277.97,900.436C1294.83,898.036 1314.98,901.185 1327.41,909.815C1330.01,907.762 1332.23,908.046 1333.27,908.274C1335.17,908.689 1336.89,909.785 1337.73,911.84C1337.9,911.828 1338.06,911.824 1338.23,911.828C1345.79,911.976 1344.12,920.15 1343.82,920.717C1343.64,921.037 1342.33,923.545 1338.73,923.919C1337.58,924.038 1334.81,924.131 1332.39,923.851C1331.26,924.359 1330.05,924.595 1328.85,924.539C1327.16,924.459 1325.29,923.873 1323.51,922.1C1314.21,912.835 1295.12,910.116 1279.66,912.316C1232.9,918.974 1190.45,936.535 1145.13,949.434C1127.28,954.514 1109.2,960.447 1095.87,973.728C1088.52,981.052 1076.81,990.284 1075.11,991.491C1070.27,994.924 1066.43,990.047 1066.26,989.757C1065.97,989.266 1063.85,985.828 1067.22,982.452C1099.94,949.596 1128.48,855.753 1137.56,810.544C1142.18,787.549 1142.86,764.971 1146.15,742.037C1147.04,735.863 1151.32,713.915 1152.15,711.863C1152.78,710.308 1153.69,709.448 1154.45,708.959ZM1337.65,923.809L1337.67,923.81L1337.55,923.798L1337.65,923.809ZM1337.33,923.776L1337.35,923.777L1337.3,923.77L1337.33,923.776Z"/>
            </g>
            <path d="M2316.07,1365.53C2320.61,1365.6 2326.35,1364.06 2332.55,1361.86C2340.35,1359.1 2349.04,1355.28 2356.71,1354.01C2420.6,1343.42 2540.88,1315.61 2646.46,1303.73C2715.63,1295.95 2778.4,1294.79 2814.03,1310.57C2835.89,1320.25 2853.93,1347.44 2859.56,1369.65C2873.89,1426.26 2870.89,1485.23 2870.88,1543.14C2870.87,1595.89 2864.38,1647.95 2856.53,1700C2850.04,1743.06 2836.36,1786.11 2833.46,1829.56C2832.28,1847.24 2834.58,1867.27 2836.24,1887.07C2837.82,1905.9 2838.86,1924.51 2835.2,1940.43C2834.46,1943.66 2836.48,1946.88 2839.71,1947.62C2842.93,1948.37 2846.16,1946.35 2846.9,1943.12C2850.81,1926.09 2849.89,1906.2 2848.2,1886.06C2846.59,1866.89 2844.29,1847.49 2845.43,1830.36C2848.31,1787.23 2861.95,1744.52 2868.39,1701.79C2876.33,1649.15 2882.87,1596.49 2882.88,1543.14C2882.89,1484.24 2885.76,1424.28 2871.19,1366.71C2864.78,1341.37 2843.83,1310.64 2818.89,1299.59C2791.03,1287.26 2747.29,1284.43 2696.73,1287.32C2581.24,1293.92 2429.51,1329.78 2354.75,1342.17C2347.75,1343.33 2339.93,1346.34 2332.58,1349.08C2326.4,1351.38 2320.65,1353.6 2316.26,1353.53C2312.95,1353.48 2310.22,1356.12 2310.17,1359.43C2310.12,1362.75 2312.76,1365.48 2316.07,1365.53Z"/>
            <path d="M2305.2,1379.67C2304.7,1378.78 2304.41,1377.74 2304.43,1376.64C2304.49,1373.33 2307.22,1370.69 2310.53,1370.74C2312.36,1370.77 2315.22,1371.48 2316.56,1375.35C2317.16,1377.09 2317.56,1382.12 2317.43,1389.31C2316.88,1420.04 2309.9,1496.83 2309.86,1497.61C2304.44,1583.9 2297.42,1673.59 2283.86,1759.18C2279.89,1784.24 2270.64,1826.47 2266.81,1864.96C2264.35,1889.72 2264.03,1912.87 2269.25,1928.43C2269.94,1930.48 2271.85,1931.59 2273.93,1932.38C2278.5,1934.12 2284.29,1934.06 2288.04,1933.12C2378.8,1910.54 2459.85,1879.5 2555.8,1901.56C2561.85,1902.95 2567.56,1905.58 2573.5,1907.4C2612.49,1919.35 2679.2,1945.46 2740.55,1959.7C2780.3,1968.92 2817.72,1973.32 2843.33,1964.81C2843.66,1964.7 2844,1964.26 2844.1,1964.12C2842.89,1961.14 2844.24,1957.71 2847.19,1956.38C2850.21,1955.02 2853.77,1956.37 2855.13,1959.39C2857.9,1965.56 2854.59,1973.71 2847.11,1976.2C2819.9,1985.24 2780.09,1981.19 2737.84,1971.39C2676.19,1957.08 2609.16,1930.88 2569.98,1918.88C2564.32,1917.14 2558.89,1914.58 2553.11,1913.25C2459.13,1891.65 2379.83,1922.65 2290.94,1944.77C2285.28,1946.17 2276.56,1946.22 2269.67,1943.6C2264.1,1941.49 2259.72,1937.73 2257.88,1932.25C2252.24,1915.47 2252.22,1890.49 2254.87,1863.77C2258.72,1825.04 2268.01,1782.52 2272,1757.31C2285.51,1672.08 2292.49,1582.78 2297.88,1496.86C2297.93,1496.08 2304.88,1419.67 2305.43,1389.1C2305.5,1385.25 2305.29,1381.12 2305.2,1379.67ZM2309.91,1382.72L2309.96,1382.72L2309.84,1382.71L2309.91,1382.72ZM2309.49,1382.67L2309.58,1382.68L2309.45,1382.66L2309.49,1382.67ZM2309.07,1382.59L2309.09,1382.59L2309.05,1382.58L2309.07,1382.59Z"/>
            <path d="M2567.37,1540.08C2659.2,1518 2717.3,1568.48 2729.6,1631.73C2741.81,1694.53 2708.66,1770.73 2616.81,1801.24C2583.58,1812.28 2539.96,1821.3 2506.01,1806.8C2474.56,1793.37 2461.26,1761.32 2459.69,1724.03C2457.42,1670.48 2479.25,1606.35 2500.54,1576.9C2516.45,1554.89 2535.47,1540.01 2563,1540.01C2564.54,1540.01 2565.99,1540.03 2567.37,1540.08ZM2586.12,1557.18C2584.56,1556.23 2582.32,1554.92 2581.28,1554.57C2575.21,1552.56 2570.36,1552.01 2563,1552.01C2539.61,1552.01 2523.79,1565.23 2510.27,1583.93C2490.08,1611.86 2469.53,1672.73 2471.68,1723.52C2473.04,1755.8 2483.49,1784.14 2510.72,1795.76C2542.08,1809.15 2582.33,1800.05 2613.03,1789.85C2697.74,1761.71 2729.09,1691.94 2717.82,1634.02C2707.75,1582.24 2663.45,1540.59 2593.68,1547.69C2594.18,1548.02 2594.63,1548.34 2595,1548.63C2596.42,1549.73 2597.22,1550.85 2597.56,1551.5C2599.23,1554.72 2598.15,1557.15 2596.4,1558.84C2595.66,1559.56 2593.97,1561 2590.64,1560.5C2588.6,1560.2 2586.95,1558.91 2586.12,1557.18Z"/>
            <path d="M2428.24,1422.1C2427.92,1421.36 2427.76,1420.54 2427.77,1419.68C2427.81,1416.37 2430.53,1413.72 2433.84,1413.76C2436.16,1413.79 2438.83,1414.76 2439.93,1418.57C2440.34,1420.02 2440.22,1424.16 2439.95,1429.34C2439.77,1432.73 2439.64,1436.72 2440.08,1440.47C2440.33,1442.65 2440.76,1444.76 2441.59,1446.52C2442.09,1447.59 2442.72,1448.53 2443.74,1449.05C2445.6,1450.01 2448.16,1449.7 2451.73,1448.52C2470.24,1442.38 2477.61,1428.85 2472.62,1418.31C2470.19,1413.17 2464.89,1409.17 2457.17,1407.33C2448.18,1405.19 2436.2,1405.99 2421.38,1411.1C2418.25,1412.17 2414.83,1410.51 2413.75,1407.38C2412.67,1404.24 2414.34,1400.83 2417.47,1399.75C2454.13,1387.13 2476.46,1398.38 2483.47,1413.18C2490.86,1428.81 2482.95,1450.81 2455.51,1459.91C2446.51,1462.89 2440.41,1461.5 2436.25,1458.49C2432.1,1455.49 2429.62,1450.44 2428.55,1444.54C2427.17,1436.91 2428,1425 2428.24,1422.1ZM2431.19,1425.18C2431.96,1425.57 2432.8,1425.75 2433.69,1425.76C2432.79,1425.75 2431.95,1425.55 2431.19,1425.18Z"/>
            <path d="M2586.21,1405.36C2593.49,1399.54 2600.44,1398.6 2606.28,1400.2C2615.32,1402.68 2622.28,1412.12 2624,1422.58C2625.94,1434.38 2621.49,1446.88 2608.12,1451.32C2588.51,1457.83 2559.91,1447.84 2559.91,1422.68C2559.91,1419.88 2561.28,1416.88 2564.03,1414.21C2566.71,1411.61 2571.02,1409.15 2574.14,1407.23C2574.72,1403.99 2577.82,1401.81 2581.07,1402.38C2583.87,1402.87 2585.38,1404.13 2586.21,1405.36ZM2571.92,1423.39C2572.19,1430.79 2576.7,1435.79 2582.55,1438.55C2589.23,1441.71 2597.6,1442.16 2604.34,1439.93C2611.37,1437.59 2613.18,1430.74 2612.16,1424.53C2611.22,1418.79 2608.06,1413.13 2603.1,1411.78C2600.02,1410.93 2596.51,1412.17 2592.65,1415.63C2590.18,1417.84 2586.38,1417.63 2584.18,1415.16L2584.05,1415.02C2583.72,1415.29 2583.35,1415.56 2582.94,1415.84C2581.23,1416.99 2578.58,1418.45 2576.04,1420.09C2574.54,1421.05 2572.51,1422.85 2571.92,1423.39Z"/>
            <path d="M2753.33,1437.41C2759,1438.76 2765.65,1436.89 2772.01,1433.69C2783.09,1428.1 2793.4,1418.12 2796.32,1409.31C2797.23,1406.57 2797.69,1404.69 2796.76,1403.42C2795.84,1402.17 2794.03,1401.95 2792.03,1401.74C2781.31,1400.56 2764.84,1406.12 2760.21,1408.08C2757.16,1409.37 2753.63,1407.94 2752.35,1404.89C2751.06,1401.84 2752.49,1398.31 2755.54,1397.03C2761.04,1394.7 2780.62,1388.41 2793.34,1389.81C2799.16,1390.44 2803.75,1392.67 2806.42,1396.31C2809.08,1399.92 2810.3,1405.29 2807.71,1413.09C2804.01,1424.24 2791.43,1437.33 2777.41,1444.4C2767.49,1449.4 2756.94,1451.31 2748.32,1448.45C2744.62,1447.22 2742.64,1444.98 2741.63,1442.41C2740.49,1439.49 2740.79,1435.59 2742.66,1431.5C2745.67,1424.95 2752.77,1417.36 2754.58,1415.56C2754.79,1415.34 2756.49,1413.88 2757.73,1412.82C2758.31,1409.98 2760.9,1407.89 2763.89,1408.03C2767.21,1408.19 2768.67,1409.95 2769.46,1411.37C2770.19,1412.69 2770.55,1414.33 2770,1416.26C2769.75,1417.13 2769.16,1418.36 2768.07,1419.6C2766.75,1421.11 2763.45,1423.77 2762.92,1424.19C2761.55,1425.56 2757.52,1429.83 2754.84,1434.18C2754.27,1435.1 2753.7,1436.46 2753.33,1437.41ZM2763.03,1420C2763.12,1420.01 2763.23,1420.02 2763.33,1420.02L2763.03,1420ZM2762.85,1419.98L2763.02,1420L2762.75,1419.96L2762.85,1419.98ZM2761.88,1419.77C2762.12,1419.85 2762.37,1419.91 2762.65,1419.95L2762.42,1419.91C2762.32,1419.89 2762.23,1419.86 2762.13,1419.84L2761.88,1419.77Z"/>
            <path d="M808.228,1692.5C807.952,1692.5 807.694,1692.51 807.457,1692.51C804.145,1692.49 801.472,1689.78 801.491,1686.47C801.511,1683.16 804.215,1680.49 807.526,1680.51C814.162,1680.55 836.756,1676.8 847.604,1676.1C851.593,1675.85 854.487,1676.18 855.679,1676.63C857.97,1677.5 859.015,1679.05 859.528,1680.37C860.103,1681.84 860.209,1683.51 859.354,1685.35C858.975,1686.16 858.197,1687.39 856.442,1688.55C854.542,1689.8 849.554,1691.95 840.149,1695.08C761.032,1721.37 680.265,1735.54 596.432,1735.54C551.345,1735.54 506.396,1732.67 461.054,1732.67L450.558,1732.67C452.68,1741.63 458.8,1754.58 466.676,1769.66C491.245,1816.7 533.743,1882.42 544.141,1913.6C546.383,1920.32 547.151,1925.75 546.571,1929.45C546.075,1932.6 544.719,1934.94 542.8,1936.57C540.915,1938.18 538.363,1939.22 534.935,1939.17C531.623,1939.13 528.97,1936.41 529.012,1933.1C529.053,1929.93 531.542,1927.37 534.653,1927.18C534.657,1926.19 534.611,1924.35 534.289,1922.85C533.937,1921.19 533.418,1919.37 532.758,1917.39C522.481,1886.58 480.322,1821.71 456.039,1775.22C444.96,1754 437.707,1736.26 437.744,1726.65C437.744,1726.63 438.545,1720.68 444.208,1720.67L461.054,1720.67C506.396,1720.67 551.345,1723.54 596.432,1723.54C669.052,1723.54 739.334,1712.73 808.228,1692.5Z"/>
            <path d="M835.495,1689.44C837.871,1690.21 838.589,1692.13 838.815,1692.63C839.574,1694.29 839.661,1696.09 838.628,1697.99C838.281,1698.63 837.581,1699.75 835.945,1700.54C835.532,1700.74 833.625,1701.31 832.176,1701.18C830.392,1701.02 829.035,1700.18 828.222,1699.37C824.827,1695.97 821.596,1689.49 818.843,1682.01C815.278,1672.32 812.278,1660.88 809.621,1654.36C792.914,1613.38 763.901,1572.8 735.648,1538.3C732.738,1534.75 713.419,1518.28 700.713,1504.42C694.488,1497.63 689.847,1491.25 688.459,1486.97C687.189,1483.05 687.904,1479.94 689.594,1477.74C691.085,1475.8 693.77,1474.03 698.45,1474C701.761,1473.97 704.472,1476.63 704.499,1479.95C704.519,1482.39 703.066,1484.52 700.967,1485.46C701.104,1485.72 701.249,1485.96 701.395,1486.19C702.785,1488.37 704.741,1490.85 707.033,1493.48C719.639,1507.99 741.783,1526.86 744.932,1530.7C773.918,1566.1 803.592,1607.79 820.733,1649.83C823.428,1656.44 826.489,1668.04 830.105,1677.87C831.804,1682.48 833.515,1686.7 835.495,1689.44ZM828.218,1698.29C828.776,1699.35 830.094,1701.09 833.272,1701.11C831.139,1701.1 829.271,1699.97 828.218,1698.29Z"/>
            <path d="M1505.34,1509.67C1510.54,1493.11 1516.61,1479.16 1523.45,1469.48C1529.01,1461.61 1535.22,1456.42 1541.78,1454.25C1555.23,1449.78 1568.45,1452.91 1577.43,1459.47C1583.87,1464.18 1588.13,1470.67 1589.21,1477.44C1590.95,1488.39 1584.85,1501.36 1562.9,1508.66C1547.6,1513.75 1531.42,1517.53 1514.68,1520.3C1495.45,1587.23 1488.81,1690.98 1492.08,1720.28C1495.81,1753.75 1503.75,1784.62 1503.62,1818.49C1503.61,1821.31 1502.11,1822.54 1501.62,1822.98C1500.02,1824.42 1498.2,1824.83 1496.21,1824.36C1495.86,1824.27 1492.82,1823.65 1491.73,1819.87C1491.06,1817.55 1487.99,1803.13 1487.3,1800.26L1487.28,1800.19C1487.09,1799.59 1486.99,1798.95 1486.99,1798.29C1487.02,1795.97 1488.37,1793.97 1490.31,1793C1487.93,1769.11 1482.88,1746.07 1480.15,1721.61C1476.89,1692.38 1483.15,1590.79 1501.69,1522.23C1436.73,1530.89 1365,1525.81 1304.59,1523.3C1172.22,1517.81 1039.33,1516.26 907.099,1508.94C842.588,1505.38 775.117,1486.44 712.798,1486C709.486,1485.97 706.817,1483.26 706.841,1479.95C706.864,1476.64 709.572,1473.97 712.883,1474C775.386,1474.44 843.061,1493.38 907.762,1496.96C1039.94,1504.27 1172.78,1505.82 1305.08,1511.31C1366.49,1513.86 1439.8,1519.33 1505.34,1509.67ZM1518.68,1507.47C1532.65,1504.9 1546.2,1501.57 1559.12,1497.27C1572.87,1492.7 1578.45,1486.19 1577.36,1479.33C1576.74,1475.44 1574.05,1471.87 1570.35,1469.16C1564.11,1464.6 1554.9,1462.53 1545.56,1465.63C1541.06,1467.13 1537.07,1471.01 1533.25,1476.4C1527.8,1484.12 1522.97,1494.83 1518.68,1507.47Z"/>
            <path d="M1825.1,1718.5C1825.07,1717.95 1825.06,1717.45 1825.07,1717.01C1825.19,1713.96 1826.33,1712.05 1827.4,1710.98C1832.83,1705.56 1838,1705.62 1841.7,1707.23C1844.92,1708.62 1847.39,1711.59 1848.44,1715C1849.55,1718.58 1849.04,1722.48 1846.96,1725.34C1845.48,1727.38 1843.19,1729.11 1839.75,1729.65C1840.59,1733 1841.61,1736.73 1842.79,1740.4C1862.36,1801.3 1923.83,1945.79 1937.98,1979.65C1942.11,1989.53 1961.88,2033.42 1968.11,2052.08C1969.7,2056.85 1970.37,2060.39 1970.28,2061.98C1970.15,2064.25 1969.18,2065.67 1968.31,2066.53C1967.62,2067.22 1966.06,2068.31 1963.58,2068.53C1961.36,2068.73 1956.68,2068.28 1955.45,2068.28C1945.84,2068.28 1942.2,2062.4 1939.33,2053.81C1936.92,2046.61 1934.78,2036.74 1919.7,2033.74C1904.48,2030.71 1892.01,2022.21 1876.58,2019.42C1785.21,2002.88 1697.4,1986.45 1603.76,1982.21C1522.28,1978.52 1440.54,1985.09 1359.38,1985.09C1355.85,1985.09 1353.8,1984.85 1352.9,1984.62C1351.56,1984.28 1350.74,1983.72 1350.25,1983.32C1348.68,1982.05 1348.14,1980.55 1348,1979.19C1347.85,1977.68 1348.13,1975.95 1349.66,1974.34C1350.15,1973.83 1351.62,1972.67 1354.28,1972.06C1358,1971.22 1367.04,1970.22 1375.38,1970.19C1377.5,1970.19 1379.37,1971.29 1380.44,1972.95C1454.86,1972.03 1529.69,1966.85 1604.31,1970.22C1698.49,1974.49 1786.81,1990.97 1878.72,2007.61C1894.22,2010.42 1906.76,2018.93 1922.04,2021.97C1940.32,2025.61 1945.79,2035.93 1949.14,2045.33C1950.2,2048.3 1950.97,2051.17 1952.03,2053.53C1952.7,2055.03 1953.48,2056.28 1955.45,2056.28C1955.7,2056.28 1956.24,2056.29 1956.9,2056.32C1951.19,2038.66 1931.04,1994.15 1926.91,1984.28C1912.7,1950.29 1851.01,1805.21 1831.37,1744.07C1829.7,1738.9 1828.35,1734.27 1827.33,1730.3C1799.31,1732.84 1768.24,1744.8 1740.63,1749.8C1664.45,1763.6 1559.05,1782.31 1490.05,1781.42C1486.74,1781.38 1484.08,1778.65 1484.12,1775.34C1484.17,1772.03 1486.89,1769.38 1490.2,1769.42C1558.58,1770.3 1663,1751.66 1738.49,1737.99C1766.03,1733 1796.98,1721.41 1825.1,1718.5Z"/>
            <path d="M543.543,1987.93C552.899,1988.05 562.066,1985.94 571.579,1984.08C580.084,1982.41 588.903,1980.96 598.537,1982.16C687.91,1993.28 780.186,2013.81 870.596,2013.75C873.908,2013.74 876.594,2011.05 876.592,2007.74C876.589,2004.43 873.899,2001.74 870.587,2001.75C780.669,2001.81 688.905,1981.31 600.018,1970.25C589.035,1968.89 578.973,1970.4 569.277,1972.3C560.589,1974 552.234,1976.04 543.689,1975.93C540.378,1975.89 537.657,1978.55 537.617,1981.86C537.576,1985.17 540.232,1987.89 543.543,1987.93Z"/>
            <path d="M914.536,1956.85C933.562,1953.54 960.046,1957.67 978.27,1969.64C993.362,1979.55 1002.94,1994.53 999.631,2014.48C996.268,2034.73 978.368,2054.93 956.103,2068.57C933.956,2082.13 907.733,2089.09 888.426,2084.28C870.433,2079.8 860.978,2066.13 857.38,2049.13C852.436,2025.78 859.001,1996.01 867.402,1979.25C870.402,1973.27 877.769,1960.94 885.329,1952.94C889.191,1948.85 893.222,1945.88 896.789,1944.7C899.485,1943.8 904.116,1944.09 907.797,1945.08C910.653,1945.85 912.916,1947.07 913.822,1947.87C915.384,1949.24 915.893,1950.78 916.041,1951.96C916.262,1953.7 915.853,1955.37 914.536,1956.85ZM902.686,1956.25C902.481,1956.22 902.284,1956.18 902.101,1956.16C901.521,1956.1 900.966,1955.96 900.571,1956.09C897.593,1957.08 894.449,1960.49 891.287,1964.33C885.595,1971.26 880.432,1980.04 878.129,1984.63C870.672,1999.51 864.731,2025.92 869.119,2046.65C871.742,2059.04 878.212,2069.37 891.328,2072.64C908.066,2076.81 930.636,2070.09 949.835,2058.33C968.917,2046.65 984.911,2029.87 987.793,2012.51C990.232,1997.82 982.8,1986.97 971.684,1979.67C953.574,1967.78 925.954,1964.69 909.882,1970.38C906.76,1971.48 903.328,1969.85 902.223,1966.73C901.117,1963.6 902.754,1960.17 905.876,1959.07L906.115,1958.99C904.657,1958.54 903.436,1957.55 902.686,1956.25Z"/>
            <path d="M1321.7,1949.84C1317.37,1950.76 1312.89,1951.9 1308.26,1953.27C1305.09,1954.21 1301.75,1952.39 1300.81,1949.22C1299.87,1946.04 1301.68,1942.7 1304.86,1941.76C1370.21,1922.44 1408.76,1946.58 1418.64,1975.78C1428.81,2005.8 1410.05,2043.51 1357.42,2050.99C1340.22,2053.44 1326.29,2048.69 1316.6,2039.25C1307.09,2029.98 1301.59,2015.98 1301.58,1999.17C1301.57,1985.77 1307.73,1974 1313.72,1962.05C1314.81,1959.89 1320.93,1950.99 1321.43,1950.26L1321.57,1950.03L1321.7,1949.84ZM1330.1,1948.3C1330.72,1948.75 1331.25,1949.32 1331.69,1950.01C1332.22,1950.84 1332.89,1952.19 1332.56,1954.22C1332.54,1954.37 1332.42,1955.4 1331.5,1956.8C1330.57,1958.22 1325.47,1965.4 1324.45,1967.44C1319.3,1977.69 1313.57,1987.65 1313.58,1999.16C1313.59,2012.31 1317.53,2023.4 1324.98,2030.65C1332.25,2037.74 1342.81,2040.95 1355.73,2039.12C1398.44,2033.04 1415.53,2003.99 1407.28,1979.62C1399.91,1957.88 1373.48,1941.6 1330.1,1948.3Z"/>
            <path d="M1361.01,1968.08C1361.18,1967.99 1361.36,1967.9 1361.55,1967.82C1364.59,1966.51 1368.13,1967.91 1369.43,1970.96C1370.31,1972.99 1370.09,1974.71 1369.51,1976.11C1368.84,1977.72 1367.45,1979.48 1364.52,1980.1C1362.49,1980.52 1357.11,1979.87 1350.44,1978.18C1337.83,1974.97 1319.26,1968.81 1314.81,1967.7C1282.24,1959.58 1249.92,1957.07 1217.2,1950.55C1164.53,1940.06 1104.71,1941.88 1053.26,1958.97C1042.21,1962.63 1023.35,1975.08 1008.97,1982.15C1001.65,1985.76 995.225,1987.95 991.031,1987.93C987.72,1987.92 985.043,1985.22 985.057,1981.91C985.071,1978.6 987.771,1975.92 991.082,1975.93C995.263,1975.95 1002.15,1972.34 1009.99,1968.12C1023.74,1960.71 1039.62,1950.85 1049.48,1947.58C1102.86,1929.85 1164.9,1927.9 1219.55,1938.78C1252.45,1945.34 1284.95,1947.89 1317.71,1956.06C1322.17,1957.16 1340.76,1963.34 1353.4,1966.55C1356.13,1967.24 1359.25,1967.8 1361.01,1968.08ZM1358.29,1975.39L1358.29,1975.4L1358.27,1975.33L1358.29,1975.39Z"/>
            <path d="M1483.5,1742.06C1485.13,1740.76 1487.39,1740.34 1489.46,1741.16C1492.54,1742.38 1494.05,1745.87 1492.84,1748.94C1492.38,1750.11 1491.29,1751.82 1488.68,1752.97C1486.21,1754.06 1479.85,1755.28 1470.82,1756.29C1430,1760.84 1329.49,1764.23 1313.44,1764.23C1203.48,1764.23 1095.07,1778.6 984.872,1772.82C944.452,1770.7 903.782,1758.25 865.356,1746.76C858.341,1744.67 849.941,1739.48 841.559,1734.72C834.59,1730.77 827.71,1726.96 821.799,1726.92C818.487,1726.91 815.814,1724.2 815.832,1720.89C815.851,1717.58 818.555,1714.91 821.866,1714.92C828.08,1714.96 835.266,1717.73 842.554,1721.58C851.694,1726.4 861.103,1732.97 868.792,1735.27C906.324,1746.48 946.021,1758.77 985.5,1760.84C1095.48,1766.6 1203.69,1752.23 1313.44,1752.23C1329.36,1752.23 1429.01,1748.87 1469.49,1744.36C1475.78,1743.66 1482,1742.38 1483.5,1742.06Z"/>
            <path d="M1128.75,1539.17C1128.53,1538.48 1128.43,1537.74 1128.48,1536.97C1128.69,1533.67 1131.55,1531.16 1134.85,1531.37C1135.75,1531.43 1140.06,1532.33 1140.67,1537.53C1141.25,1542.53 1140.7,1567.35 1140.8,1568.33C1143.39,1594.15 1152.52,1684.98 1165.4,1744.76C1165.75,1746.36 1166.1,1747.93 1166.45,1749.48C1166.3,1745.71 1166.25,1741.93 1166.25,1738.16C1166.25,1735.38 1166.26,1733.2 1166.27,1731.97C1165.9,1731.14 1165.72,1730.22 1165.76,1729.26C1165.91,1725.95 1168.72,1723.38 1172.03,1723.54C1173.56,1723.61 1174.71,1724.1 1175.67,1724.84C1176.58,1725.54 1177.52,1726.52 1178.01,1728.4C1178.23,1729.24 1178.25,1731.59 1178.25,1738.16C1178.25,1753.14 1179.04,1768.22 1183.69,1782.14C1184.68,1785.08 1185.8,1791.14 1185.9,1795.23C1185.98,1798.42 1185.19,1800.85 1184.43,1801.98C1183.17,1803.85 1181.48,1804.7 1179.65,1804.9C1178.18,1805.05 1176.02,1804.88 1173.77,1802.64C1170.68,1799.56 1167.52,1794.1 1164.62,1786.66C1160.76,1776.76 1157.08,1763.08 1153.67,1747.28C1140.7,1687.06 1131.47,1595.54 1128.86,1569.53C1128.76,1568.61 1128.75,1542.01 1128.75,1539.17ZM1171.19,1735.5C1171.28,1735.51 1171.38,1735.52 1171.48,1735.52L1171.19,1735.5ZM1170.96,1735.48L1171.12,1735.5L1170.9,1735.47L1170.96,1735.48ZM1170.71,1735.44L1170.81,1735.45L1170.66,1735.43L1170.71,1735.44ZM1133.69,1543.31L1133.74,1543.31L1133.58,1543.29L1133.69,1543.31ZM1133.3,1543.25L1133.41,1543.27L1133.21,1543.23L1133.3,1543.25ZM1132.4,1542.99C1132.63,1543.08 1132.87,1543.15 1133.11,1543.2L1132.88,1543.15C1132.79,1543.12 1132.69,1543.09 1132.6,1543.06L1132.4,1542.99ZM1132.14,1542.89L1132.24,1542.93L1132.1,1542.87L1132.14,1542.89Z"/>
            <path d="M1664.61,1743.11C1662.99,1742.03 1661.93,1740.17 1661.95,1738.08C1661.99,1734.77 1664.7,1732.1 1668.01,1732.13C1670.56,1732.16 1672.3,1732.96 1673.57,1733.96C1675.09,1735.14 1676.09,1736.75 1676.54,1738.78C1677,1740.86 1676.38,1744.01 1676.38,1746.76C1676.4,1757.89 1679.61,1827.44 1684.17,1856.45C1684.69,1859.76 1685.54,1863.15 1686.01,1864.95C1686.6,1864.93 1687.28,1864.85 1688.03,1864.77C1692.03,1864.36 1697.24,1862.94 1703.21,1861.01C1728.84,1852.72 1766.91,1835.42 1785.6,1835.42C1795.63,1835.42 1805.45,1838.38 1815.12,1841.44C1823.6,1844.12 1831.95,1846.9 1840.29,1846.9C1841.71,1846.9 1845.47,1846.96 1847.37,1847C1848.02,1846.86 1848.7,1846.82 1849.39,1846.91C1855.43,1847.66 1855.22,1853.15 1855.18,1853.55C1855.1,1854.39 1854.53,1858.39 1849.83,1858.96C1848.95,1859.06 1842.7,1858.9 1840.29,1858.9C1830.76,1858.9 1821.19,1855.94 1811.51,1852.88C1803.01,1850.2 1794.42,1847.42 1785.6,1847.42C1778.76,1847.42 1769.12,1850.11 1758.48,1853.68C1741.4,1859.41 1721.97,1867.56 1706.9,1872.43C1699.97,1874.67 1693.89,1876.23 1689.25,1876.71C1684.95,1877.15 1681.56,1876.61 1679.25,1875.47C1678.22,1874.95 1676.96,1873.99 1675.94,1872.2C1674.75,1870.1 1673.4,1865.2 1672.32,1858.32C1667.67,1828.82 1664.4,1758.09 1664.38,1746.77C1664.38,1745.79 1664.5,1744.3 1664.61,1743.11ZM1847.67,1858.78C1847.74,1858.79 1847.82,1858.81 1847.91,1858.82L1847.67,1858.78Z"/>
            <path d="M1701.25,1779.9C1700,1778.79 1699.23,1777.17 1699.24,1775.37C1699.27,1772.06 1701.98,1769.39 1705.29,1769.42C1709.61,1769.46 1713.41,1772.46 1713.39,1779.48C1713.37,1785.96 1709.55,1798.42 1705.57,1808.21C1702.77,1815.11 1699.8,1820.69 1698.25,1822.43C1696.05,1824.91 1692.25,1825.13 1689.78,1822.93C1687.31,1820.73 1687.08,1816.93 1689.29,1814.46C1691.6,1811.85 1697.15,1798.15 1699.92,1787.69C1700.62,1785.05 1701.06,1781.61 1701.25,1779.9ZM1704.96,1781.41C1705.04,1781.42 1705.11,1781.42 1705.19,1781.42L1704.96,1781.41Z"/>
            <path d="M1727.93,1790.06C1726.88,1790.03 1725.93,1790.03 1725.27,1790.03C1721.96,1790 1719.29,1787.29 1719.32,1783.98C1719.35,1780.66 1722.06,1778 1725.37,1778.03C1728.29,1778.05 1735.09,1778.36 1738.03,1779.94C1740.68,1781.35 1741.96,1783.5 1742.23,1785.8C1742.46,1787.76 1742,1791.05 1737.62,1794.48C1735.02,1796.53 1731.25,1796.07 1729.2,1793.47C1728.41,1792.45 1727.99,1791.26 1727.93,1790.06Z"/>
            <path d="M1760.99,1802.35C1760.04,1801.28 1759.46,1799.86 1759.47,1798.32C1759.5,1795.01 1762.21,1792.34 1765.52,1792.37C1768.2,1792.39 1770.03,1793.34 1771.32,1794.53C1773.14,1796.21 1774.25,1798.83 1773.78,1802.27C1773.07,1807.53 1766.92,1816.82 1764.02,1819.78C1761.7,1822.14 1757.9,1822.18 1755.54,1819.86C1753.17,1817.54 1753.13,1813.74 1755.45,1811.38C1756.76,1810.04 1759.55,1805.02 1760.99,1802.35Z"/>
            <path d="M1805.1,1778.05C1806.08,1777.22 1809.37,1774.48 1811.03,1773.46C1815.15,1770.91 1818.84,1771.42 1821.5,1774.09C1823.57,1776.17 1824.49,1779.26 1823.13,1783.13C1821.2,1788.59 1811.77,1797.93 1809.77,1799.84C1807.38,1802.12 1803.58,1802.04 1801.29,1799.64C1799,1797.25 1799.09,1793.44 1801.49,1791.16C1801.82,1790.84 1802.43,1790.26 1803.19,1789.51C1800.53,1788.33 1799.05,1785.35 1799.84,1782.45C1800.52,1779.96 1802.67,1778.26 1805.1,1778.05Z"/>
            <path d="M1873.92,1715.43C1876.16,1715.63 1877.9,1717.63 1879.77,1720.24C1882.59,1724.18 1885.09,1729.68 1887.36,1736.12C1898.73,1768.32 1903.79,1822.99 1902.89,1838.17C1902.7,1841.48 1905.23,1844.32 1908.53,1844.51C1911.84,1844.7 1914.68,1842.18 1914.87,1838.87C1915.81,1823 1910.56,1765.8 1898.67,1732.13C1895.38,1722.79 1891.5,1715.18 1887.25,1710.38C1883.5,1706.16 1879.32,1703.87 1875.01,1703.48C1871.71,1703.18 1868.79,1705.61 1868.49,1708.91C1868.19,1712.21 1870.62,1715.13 1873.92,1715.43Z"/>
            <path d="M1902.73,1695.36C1906.82,1695.64 1910.67,1698.05 1914.43,1701.68C1918.97,1706.05 1923.23,1712.18 1927.19,1719.44C1946.53,1754.87 1958.38,1816.45 1951.82,1842.81C1951.02,1846.02 1952.98,1849.28 1956.19,1850.08C1959.41,1850.88 1962.66,1848.92 1963.47,1845.71C1970.48,1817.53 1958.4,1751.57 1937.73,1713.69C1932.13,1703.44 1925.88,1695.21 1919.33,1690.03C1914.27,1686.03 1908.95,1683.77 1903.56,1683.39C1900.26,1683.16 1897.39,1685.65 1897.16,1688.96C1896.93,1692.26 1899.43,1695.13 1902.73,1695.36Z"/>
            <path d="M1398.48,1667.96C1405.18,1664.38 1411.36,1663.71 1416.75,1664.89C1426.09,1666.92 1433.51,1674.81 1437.37,1685.19C1442.79,1699.77 1441.04,1718.86 1429.72,1729.99C1422.13,1737.45 1410.21,1741.77 1392.81,1738.3C1363.72,1732.5 1349.33,1707.87 1356.47,1679.34C1358.68,1670.49 1362.83,1665.22 1367.38,1662.07C1378.29,1654.53 1392.55,1659.4 1395.23,1660.88C1399.07,1662.99 1398.73,1666.53 1398.62,1667.26C1398.59,1667.5 1398.54,1667.73 1398.48,1667.96ZM1389.03,1671.25C1387.17,1670.62 1379.42,1668.34 1374.21,1671.94C1371.54,1673.79 1369.4,1677.06 1368.11,1682.25C1362.77,1703.62 1373.36,1722.19 1395.16,1726.54C1407.41,1728.98 1415.96,1726.69 1421.31,1721.44C1429.38,1713.5 1429.99,1699.77 1426.12,1689.38C1423.79,1683.11 1419.84,1677.84 1414.2,1676.62C1410.53,1675.82 1406.35,1676.89 1401.68,1680.02C1398.93,1681.86 1395.2,1681.12 1393.36,1678.37C1392.13,1676.54 1392.05,1674.28 1392.94,1672.42C1392.8,1672.43 1392.66,1672.43 1392.51,1672.43C1391.2,1672.41 1390,1671.97 1389.03,1671.25ZM1392.39,1660.43C1391.37,1660.46 1390.59,1660.72 1389.99,1661.03C1390.72,1660.67 1391.54,1660.46 1392.39,1660.43Z"/>
            <path d="M1491.33,1750.66C1488.71,1749.71 1484.68,1748.16 1482.01,1746.79C1478.97,1745.23 1476.59,1743.32 1475.37,1741.49C1461.55,1720.84 1439.02,1704.39 1412.59,1703.98C1409.28,1703.93 1406.63,1701.2 1406.68,1697.88C1406.74,1694.57 1409.47,1691.93 1412.78,1691.98C1443.18,1692.45 1469.33,1710.96 1485.26,1734.7C1485.39,1734.8 1486.2,1735.41 1486.75,1735.72C1488.06,1736.46 1489.62,1737.14 1491.15,1737.75C1495.18,1739.35 1499.05,1740.65 1500.02,1741.26C1502.14,1742.59 1502.69,1744.32 1502.9,1745.28C1503.31,1747.19 1502.92,1748.96 1501.55,1750.54C1501.1,1751.05 1499.54,1752.79 1495.79,1752.74C1494,1752.72 1492.41,1751.91 1491.33,1750.66Z"/>
        </g>
    </g>
    <path d="M2224.1,2005.13C2220.89,2004.98 2218.35,2002.31 2218.39,1999.07C2218.43,1995.76 2221.15,1993.1 2224.46,1993.14C2228.45,1993.19 2231,1994.56 2232.77,1996.34C2235.02,1998.59 2236.07,2002.02 2236.26,2006C2236.34,2007.65 2236.3,2009.43 2236.44,2011.12C2236.5,2011.82 2236.52,2012.52 2236.84,2013.07C2236.88,2013.14 2237,2013.08 2237.12,2013.11C2237.58,2013.22 2238.11,2013.26 2238.74,2013.26C2373.17,2013.44 2507.07,1996.07 2642.2,2001.8C2825.86,2009.58 3007.48,2045.73 3190.94,2044.77C3194.25,2044.75 3196.95,2047.43 3196.97,2050.74C3196.99,2054.05 3194.32,2056.75 3191,2056.77C3007.35,2057.73 2825.54,2021.58 2641.69,2013.79C2506.73,2008.06 2372.99,2025.44 2238.72,2025.26C2233.42,2025.26 2230.22,2023.51 2228.13,2021.32C2226.03,2019.12 2224.94,2016.2 2224.56,2012.9C2224.34,2011.01 2224.36,2008.99 2224.3,2007.07C2224.28,2006.51 2224.18,2005.7 2224.1,2005.13Z"/>
    <path d="M2904.72,1879.52L2904.22,1879.37C2897.78,1877.46 2889.46,1876.17 2883.97,1876.07C2880.66,1876.01 2878.01,1873.28 2878.08,1869.96C2878.14,1866.65 2880.87,1864.01 2884.18,1864.07C2893.52,1864.24 2909.69,1867.45 2916.39,1871.44C2921.64,1874.56 2922.82,1878.87 2921.67,1882.32C2920.92,1884.59 2918.29,1887.89 2911.46,1890.15C2906.1,1891.93 2899.28,1891.77 2893.75,1893.15C2893.1,1893.31 2892.61,1893.85 2892.03,1894.21C2890.76,1895 2889.43,1895.66 2887.99,1896.02C2887.16,1896.22 2884.72,1896.56 2882.05,1897.18C2881.38,1897.34 2880.52,1897.63 2879.7,1897.92C2881.29,1898.88 2883.26,1899.68 2885.42,1900.43C2893.43,1903.18 2903.84,1904.93 2911.12,1907.15C2916.1,1908.66 2919.85,1910.63 2921.74,1912.69C2923.46,1914.57 2924.24,1916.67 2924.24,1918.9C2924.23,1921.18 2923.28,1923.49 2920.71,1925.33C2918.73,1926.76 2914.74,1928.1 2909.58,1929.05C2901.64,1930.52 2890.36,1931.56 2881.95,1933.52C2880.62,1933.83 2879.38,1934.15 2878.26,1934.51C2880.49,1936.6 2883.14,1939.03 2884.14,1939.69C2893.47,1945.89 2896.11,1951.23 2896.16,1955.36C2896.19,1958.68 2894.72,1961.95 2891.77,1965.23C2887.83,1969.61 2880.29,1974.48 2875.4,1983.25C2875.77,1983.56 2876.22,1983.92 2876.61,1984.18C2878.18,1985.2 2880.11,1986.15 2882.13,1987.05C2886.75,1989.1 2891.79,1990.84 2894.87,1992.18C2897.16,1993.17 2898.72,1994.22 2899.45,1994.95C2903.37,1998.88 2903.73,2003.99 2900.93,2009.28C2898.87,2013.18 2894.73,2017.29 2889.99,2020.3C2885.08,2023.42 2879.59,2025.3 2875.36,2025.22C2872.05,2025.16 2869.41,2022.42 2869.47,2019.11C2869.53,2015.8 2872.27,2013.16 2875.58,2013.22C2879.8,2013.3 2885.9,2009.35 2889.17,2005.35C2889.62,2004.81 2890.06,2003.99 2890.35,2003.41C2886.76,2002.08 2874.43,1997.36 2869.12,1993.59C2863.22,1989.41 2861.48,1984.18 2863.92,1979.29C2868.4,1970.32 2875.14,1964.53 2880.15,1959.87C2881.77,1958.37 2883.66,1956 2884.08,1955.47C2883.93,1955.22 2883.61,1954.71 2883.31,1954.37C2882.08,1952.96 2880.17,1951.46 2877.51,1949.69C2875.05,1948.06 2867.62,1941.68 2865.15,1938.38C2862.62,1935 2863.26,1931.86 2863.91,1930.54C2865.22,1927.92 2868.3,1925.35 2873.03,1923.62C2880.1,1921.03 2891.73,1919.64 2901.41,1918.22C2902.33,1918.08 2903.3,1917.92 2904.27,1917.73C2903.58,1917.53 2902.9,1917.34 2902.24,1917.18C2893.29,1914.97 2882.44,1912.79 2875.49,1909.29C2871.3,1907.18 2868.33,1904.5 2866.82,1901.5C2865.78,1899.44 2865.57,1897.55 2865.81,1895.85C2866.15,1893.43 2867.46,1891.22 2869.75,1889.46C2873.9,1886.27 2883.16,1884.85 2885.09,1884.37C2885.74,1884.21 2886.23,1883.67 2886.8,1883.31C2888.08,1882.52 2889.41,1881.86 2890.85,1881.5C2895.12,1880.44 2900.22,1880.41 2904.72,1879.52Z"/>
    <path d="M2951.42,1849.89C2949.99,1850.15 2948.54,1850.28 2947.08,1850.26C2943.76,1850.2 2941.12,1847.47 2941.18,1844.16C2941.23,1840.85 2943.96,1838.2 2947.27,1838.26C2950.36,1838.31 2953.23,1837.02 2956.21,1835.86C2960.6,1834.16 2965.13,1832.57 2970.09,1832.57C2975.11,1832.57 2977.77,1832.94 2978.74,1833.3C2981.36,1834.27 2982.27,1836.03 2982.69,1837.34C2983.25,1839.08 2983.44,1841.69 2980.73,1844.07C2979.76,1844.93 2976.35,1846.5 2972.04,1848.82C2967.86,1851.06 2962.51,1854.36 2959.21,1859.48C2959.48,1859.72 2959.73,1859.95 2959.91,1860.13C2967.26,1867.45 2972.65,1872.85 2975.68,1877.63C2978.4,1881.92 2979.5,1885.93 2979.11,1890.11C2978.68,1894.74 2976.14,1899.9 2970.58,1906.36C2974.34,1907.87 2979.13,1909.78 2980.29,1910.19C2982.03,1910.79 2982.82,1911.63 2982.95,1911.76C2988.59,1917.39 2990.23,1922.01 2990.18,1925.66C2990.12,1929.82 2987.94,1933.45 2984.14,1936.77C2981.76,1938.85 2978.65,1940.9 2975.67,1943.35C2973.37,1945.23 2971.1,1947.38 2969.67,1950.24C2969.53,1950.52 2969.84,1950.69 2970.01,1950.91C2970.44,1951.5 2971,1952.05 2971.61,1952.59C2974.75,1955.38 2978.98,1957.84 2981.55,1960.18C2984.29,1962.68 2985.62,1965.4 2985.75,1967.84C2985.87,1970.09 2985.22,1972.47 2982.93,1974.76C2980.66,1977.02 2976.77,1979.09 2972.18,1980.9C2966.8,1983.02 2960.32,1984.92 2955.6,1987.29C2952.64,1988.78 2949.03,1987.58 2947.55,1984.62C2946.06,1981.66 2947.26,1978.06 2950.22,1976.57C2955.22,1974.06 2962.08,1971.98 2967.78,1969.74C2969.26,1969.15 2970.67,1968.59 2971.86,1967.99C2969.94,1966.54 2967.16,1964.43 2965.29,1962.94C2958.96,1957.92 2955.52,1951.71 2958.94,1944.88C2962.3,1938.16 2968.37,1933.75 2973.5,1929.91C2974.65,1929.05 2975.74,1928.22 2976.66,1927.36C2977.33,1926.74 2977.98,1926.23 2978.18,1925.51C2978.29,1925.09 2977.97,1924.68 2977.64,1924.12C2977.12,1923.21 2976.37,1922.25 2975.38,1921.19C2972.16,1920.08 2961.75,1916.39 2958.63,1914.05C2955.92,1912.01 2955.19,1909.54 2955.2,1907.85C2955.21,1906.21 2955.75,1904.6 2957.18,1903.17C2963.33,1896.99 2966.79,1892.98 2967.16,1889.01C2967.37,1886.69 2966.12,1884.66 2964.22,1882.17C2961.34,1878.4 2956.98,1874.14 2951.44,1868.63C2950.51,1867.7 2949.26,1866.78 2948.42,1865.71C2946.36,1863.12 2945.37,1860.07 2947.42,1855.96C2948.53,1853.75 2949.89,1851.73 2951.42,1849.89Z"/>
    <path d="M2224.48,1860.63C2224.24,1859.97 2224.11,1859.27 2224.12,1858.53C2224.16,1855.22 2226.88,1852.56 2230.2,1852.6C2233.05,1852.63 2235.95,1849.94 2236.48,1849.54C2237.44,1848.81 2238.14,1848.6 2238.28,1848.56C2242.01,1847.28 2244.05,1849.38 2244.96,1850.54C2245.44,1851.15 2247.91,1854.33 2244.86,1858.05C2244.79,1858.13 2244.21,1858.72 2242.91,1860.02C2241.3,1861.61 2238.81,1863.62 2236.34,1865.83C2238.92,1865.52 2241.26,1865.44 2242.84,1865.69C2246.25,1866.24 2248.1,1868.14 2248.93,1870.05C2249.72,1871.84 2250.3,1875.6 2245.78,1880.09C2244.06,1881.81 2242.95,1883.56 2241.17,1887.13C2240.14,1889.19 2240.25,1891.4 2240.64,1893.59C2241.21,1896.77 2242.43,1899.93 2243.41,1902.9C2245.42,1908.95 2246.14,1914.49 2244.03,1918.69C2243.37,1920 2241.11,1926.04 2239.78,1929.63C2243.31,1930.28 2249.55,1931.5 2252.42,1932.5C2255.62,1933.62 2257.63,1935.48 2258.55,1937.3C2259.57,1939.35 2259.85,1941.73 2258.44,1944.52C2255.96,1949.45 2245.99,1959.3 2239.58,1968.77C2237.85,1971.33 2236.4,1973.83 2235.66,1976.16C2235.43,1976.91 2235.2,1977.62 2235.2,1978.27L2236.58,1978.64C2236.81,1978.29 2237.08,1977.96 2237.39,1977.65C2239.76,1975.33 2243.56,1975.37 2245.88,1977.73C2249.8,1981.73 2249.34,1985.15 2248.63,1986.96C2247.76,1989.18 2245.3,1991.54 2241.02,1991.7C2237.75,1991.82 2232.62,1990.61 2229.41,1988.97C2226.94,1987.71 2225.38,1986.02 2224.7,1984.66C2222.29,1979.89 2223.07,1973.69 2226.53,1967.16C2230.06,1960.52 2236.3,1953.25 2241.42,1947.24C2242.69,1945.75 2243.89,1944.36 2244.91,1943.1C2243.52,1942.79 2242,1942.48 2240.8,1942.28C2237.22,1941.67 2233.83,1940.91 2231.74,1939.86C2229.65,1938.81 2228.31,1937.37 2227.58,1935.91C2226.97,1934.7 2226.5,1932.47 2227.08,1929.59C2228.06,1924.7 2232.21,1915.5 2233.31,1913.31C2233.68,1912.56 2233.38,1911.66 2233.17,1910.67C2232.7,1908.42 2231.77,1905.96 2230.91,1903.39C2228.55,1896.3 2226.99,1888.65 2230.44,1881.76C2231.03,1880.58 2231.57,1879.54 2232.1,1878.62L2230.72,1878.84C2226.75,1879.49 2223.48,1879.32 2222.33,1878.87C2219.33,1877.67 2218.3,1875.45 2218.28,1873C2218.27,1870.01 2219.51,1866.82 2221.78,1863.76C2222.56,1862.7 2223.48,1861.65 2224.48,1860.63Z"/>
    <path d="M2187.61,1852.94C2187.1,1852.05 2186.82,1851.01 2186.84,1849.92C2186.88,1846.61 2189.6,1843.95 2192.91,1844C2196.32,1844.04 2198.44,1844.34 2199.55,1844.7C2202.63,1845.71 2203.7,1847.69 2204.16,1849.33C2204.59,1850.9 2204.62,1853.02 2202.89,1855.33C2202.08,1856.4 2200.05,1858.09 2197.28,1860.43C2192.51,1864.45 2185.05,1871.42 2181.03,1883.48C2180.7,1884.45 2180.44,1885.17 2180.71,1885.74C2180.87,1886.09 2181.25,1886.24 2181.6,1886.43C2182.25,1886.78 2182.98,1887.04 2183.74,1887.26C2186.84,1888.15 2190.23,1888.4 2192.19,1888.83C2195.46,1889.54 2197.18,1891.32 2197.85,1892.51C2198.85,1894.29 2199.13,1896.3 2197.96,1898.62C2194.31,1905.87 2188.06,1910.58 2182.57,1915.42C2179.71,1917.96 2177.01,1920.49 2176,1924.16C2176.22,1924.15 2176.41,1924.14 2176.58,1924.14C2178.35,1924.08 2179.83,1924.43 2180.9,1924.97C2185.68,1927.35 2188.54,1930.18 2190.28,1933.15C2192.88,1937.56 2193.09,1942.49 2192.36,1947.8C2192.01,1950.36 2191.45,1953.02 2191.13,1955.74C2190.78,1958.75 2190.68,1961.87 2192.22,1964.92C2193.94,1968.33 2196.86,1969 2199.11,1970.5C2203.41,1973.35 2207.25,1977.07 2207.25,1987.7C2207.25,1990.17 2208.58,1993.46 2209.8,1996.74C2211.51,2001.34 2213.17,2005.9 2213.44,2009.09C2213.76,2012.85 2212.54,2015.6 2210.54,2017.34C2209.12,2018.57 2207.13,2019.52 2204.23,2019.48C2200.92,2019.44 2198.27,2016.72 2198.31,2013.41C2198.34,2011.31 2199.43,2009.48 2201.08,2008.43C2200.88,2007.59 2200.62,2006.62 2200.35,2005.83C2198.29,1999.82 2195.25,1992.53 2195.25,1987.7C2195.25,1985.06 2194.96,1983.31 2194.2,1982.1C2192.89,1980.01 2190.67,1979.46 2188.73,1978.2C2186.03,1976.45 2183.46,1974.21 2181.51,1970.32C2178.06,1963.49 2178.76,1956.54 2179.86,1949.96C2180.21,1947.91 2180.57,1945.91 2180.7,1943.98C2180.82,1942.18 2180.79,1940.45 2179.75,1938.94C2179.05,1937.91 2177.96,1937.03 2176.44,1936.18C2175.32,1936.29 2172.69,1936.5 2171.28,1936.32C2169.15,1936.04 2167.36,1935.18 2166.02,1933.82C2164.68,1932.46 2163.59,1930.52 2163.58,1927.49C2163.54,1917.96 2168.39,1911.94 2174.62,1906.43C2177.24,1904.12 2180.18,1901.93 2182.74,1899.32C2180.89,1898.93 2178.99,1898.42 2177.29,1897.67C2174.1,1896.27 2171.52,1894.13 2170.04,1891.23C2168.58,1888.39 2167.98,1884.66 2169.64,1879.68C2174.07,1866.4 2181.82,1858.08 2187.61,1852.94Z"/>
    <path d="M1809.05,1072.87C1808.5,1071.93 1808.2,1070.83 1808.24,1069.67C1808.33,1066.36 1811.09,1063.75 1814.4,1063.84C1817.96,1063.95 1820.27,1065.74 1821.16,1069.36C1821.55,1070.92 1821.49,1073.57 1820.47,1076.94C1816.35,1090.55 1795.83,1124.65 1793.12,1128.07C1791.06,1130.66 1787.28,1131.1 1784.68,1129.04C1782.09,1126.97 1781.66,1123.2 1783.72,1120.6C1785.93,1117.82 1800.79,1093.16 1807.06,1078.57C1807.89,1076.62 1808.63,1074.28 1809.05,1072.87Z"/>
    <path d="M1621.6,516.523C1625.31,516.808 1628.99,515.455 1632.89,513.566C1636.14,511.995 1639.68,509.787 1644.39,510.723C1682.64,518.333 1710.3,537.442 1725.54,573.13C1726.84,576.175 1730.37,577.592 1733.41,576.291C1736.46,574.991 1737.87,571.463 1736.57,568.417C1719.67,528.826 1689.17,507.395 1646.73,498.954C1640.09,497.633 1634.7,499.439 1629.92,501.68C1628.48,502.357 1627.1,503.067 1625.76,503.656C1624.65,504.145 1623.62,504.643 1622.52,504.559C1619.22,504.305 1616.33,506.779 1616.08,510.081C1615.83,513.383 1618.3,516.269 1621.6,516.523Z"/>
    <path d="M1119.02,893.255C1120.11,892.296 1121.54,891.724 1123.09,891.75C1127.87,891.829 1129.06,894.973 1129.35,895.751C1130.04,897.556 1130.38,900.306 1127.45,902.672C1127.04,903.004 1126.14,903.584 1124.8,904.06C1123.34,904.577 1119.55,905.668 1118.53,905.959C1110.59,911.492 1105.22,921.964 1101.17,933.697C1094.41,953.283 1091.7,976.517 1089.97,990.301C1080.78,1063.5 1075.28,1130.83 1113.82,1195.85C1115.5,1198.7 1114.56,1202.38 1111.71,1204.07C1108.86,1205.76 1105.18,1204.82 1103.49,1201.97C1063.52,1134.51 1068.53,1064.75 1078.06,988.807C1079.87,974.429 1082.78,950.211 1089.83,929.781C1094.91,915.064 1102.27,902.344 1112.36,895.641C1112.74,895.387 1113.53,894.964 1114.66,894.586C1115.6,894.269 1117.54,893.688 1119.02,893.255Z"/>
    <path d="M1175.04,694.206C1176.05,692.259 1178.1,690.941 1180.44,690.975C1183.41,691.018 1184.84,692.495 1185.58,693.482C1186.49,694.682 1186.95,696.086 1186.81,697.726C1186.73,698.699 1185.91,701.316 1182.94,703.464C1180.08,705.533 1172.58,709.648 1171.02,710.497C1161.03,719.37 1153.78,726.842 1146.57,737.621C1126.14,768.143 1120.31,805.767 1114.58,841.34C1114.05,844.609 1110.97,846.835 1107.7,846.309C1104.43,845.782 1102.2,842.7 1102.73,839.43C1108.73,802.184 1115.21,762.905 1136.6,730.946C1144.52,719.102 1152.45,710.909 1163.52,701.109C1163.61,701.029 1164.42,700.427 1165.81,699.666C1167.71,698.624 1172.69,695.626 1175.04,694.206ZM1177.19,702.07C1177.92,702.587 1178.91,702.954 1180.27,702.974C1179.14,702.958 1178.09,702.629 1177.19,702.07Z"/>
    <path d="M1196.02,1148.47C1195.02,1147.38 1194.41,1145.93 1194.44,1144.33C1194.48,1141.02 1197.21,1138.37 1200.52,1138.42C1201.92,1138.43 1203.56,1138.87 1205.06,1140.39C1205.91,1141.24 1207.24,1143.53 1208.25,1147.08C1211.24,1157.65 1215.09,1184.4 1216.43,1188.42C1227.07,1220.18 1248.8,1240.73 1273.34,1263.34C1275.77,1265.58 1275.93,1269.38 1273.68,1271.81C1271.44,1274.25 1267.64,1274.4 1265.21,1272.16C1239.12,1248.12 1216.37,1226 1205.05,1192.24C1203.64,1188.01 1196.81,1152.58 1196.02,1148.47ZM1200.02,1150.4L1200.04,1150.4L1200.02,1150.4Z"/>
    <path d="M1169.19,1126.82C1161.67,1149.88 1157.31,1170.42 1159.13,1195.63C1162.3,1239.68 1179.08,1277.49 1205.26,1312.94C1207.23,1315.61 1206.66,1319.37 1204,1321.33C1201.34,1323.3 1197.58,1322.74 1195.61,1320.07C1168.03,1282.74 1150.5,1242.88 1147.16,1196.5C1145.13,1168.34 1150.2,1145.62 1158.95,1119.58C1159.9,1116.76 1161.64,1115.59 1163.1,1114.99C1166.17,1113.72 1169.47,1115.06 1171.07,1116.94C1173.02,1119.24 1172.96,1121.99 1171.95,1123.98C1171.49,1124.88 1170.71,1126.09 1169.19,1126.82Z"/>
    <path d="M325.571,1870.34C332.216,1870.4 338.41,1868.24 344.685,1865.1C352.451,1861.22 360.4,1855.69 370.285,1852.9C373.472,1852 375.329,1848.68 374.43,1845.5C373.531,1842.31 370.214,1840.45 367.026,1841.35C358.002,1843.9 350.398,1848.41 343.199,1852.33C337.321,1855.52 331.824,1858.4 325.694,1858.34C322.383,1858.3 319.667,1860.96 319.633,1864.27C319.599,1867.59 322.259,1870.3 325.571,1870.34Z"/>
    <path d="M307.691,1793.57L307.984,1793.33C311.083,1790.75 326.295,1777.82 329.567,1775.95C352.047,1763.16 374.444,1751.07 397.336,1738.6C400.244,1737.02 403.891,1738.09 405.475,1741C407.059,1743.91 405.984,1747.56 403.075,1749.14C380.249,1761.57 357.916,1773.63 335.501,1786.38C332.479,1788.1 318.524,1800.17 315.662,1802.55C313.337,1804.49 311.318,1804.37 311.227,1804.37C307.916,1804.33 305.256,1801.61 305.292,1798.3C305.313,1796.37 306.251,1794.65 307.691,1793.57Z"/>
    <path d="M411.633,1566.31C444.364,1566.56 520.997,1543.59 558.901,1537.55C562.172,1537.03 564.404,1533.95 563.882,1530.68C563.361,1527.41 560.283,1525.18 557.013,1525.7C519.607,1531.66 444.026,1554.55 411.724,1554.31C408.413,1554.28 405.704,1556.95 405.679,1560.26C405.654,1563.57 408.321,1566.28 411.633,1566.31Z"/>
</svg>
