<?xml version="1.0" encoding="UTF-8" standalone="no"?>
<!DOCTYPE svg PUBLIC "-//W3C//DTD SVG 1.1//EN" "http://www.w3.org/Graphics/SVG/1.1/DTD/svg11.dtd">
<svg width="100%" height="100%" viewBox="0 0 3508 2481" version="1.1" xmlns="http://www.w3.org/2000/svg" xmlns:xlink="http://www.w3.org/1999/xlink" xml:space="preserve" xmlns:serif="http://www.serif.com/" style="fill-rule:evenodd;clip-rule:evenodd;stroke-linejoin:round;stroke-miterlimit:2;">
    <g transform="matrix(1.06224,0,0,1.0971,563.377,-70.8658)">
        <path d="M1523.57,751.196C1520.64,750.609 1516.49,749.809 1515.71,749.809C1501.25,749.809 1484.79,747.374 1470.59,749.731C1428.2,756.764 1400.44,772.35 1370.02,802.648C1324.08,848.412 1290.1,924.389 1282.95,999.001C1278.22,1048.41 1285.25,1097.25 1308.71,1136.21C1352.71,1209.26 1447.62,1243.83 1552.83,1249.7C1711.77,1258.58 1894.74,1201.84 1964.89,1108.55C1980.03,1088.43 1985.21,1058.45 1985.2,1034.04C1985.18,976.541 1956.71,932.296 1917.35,896.63C1877.23,860.271 1825.82,832.77 1780.8,809.404C1734.96,785.614 1693.28,751.09 1639.04,746.935C1583.24,742.661 1537.98,763.213 1486.01,778.24C1483.02,779.104 1479.87,777.457 1478.98,774.565C1478.08,771.673 1479.79,768.623 1482.77,767.76C1536.12,752.336 1582.66,731.645 1639.93,736.031C1695.77,740.309 1738.94,775.272 1786.13,799.764C1831.97,823.549 1884.23,851.634 1925.07,888.644C1966.68,926.347 1996.48,973.254 1996.5,1034.04C1996.51,1060.59 1990.49,1093.1 1974.03,1114.99C1902.15,1210.58 1715.03,1269.71 1552.18,1260.62C1442.84,1254.52 1344.68,1217.64 1298.95,1141.72C1274.36,1100.89 1266.74,1049.76 1271.7,997.991C1279.1,920.837 1314.42,842.347 1361.92,795.024C1394.2,762.874 1423.7,746.413 1468.68,738.95C1483.48,736.494 1500.64,738.871 1515.71,738.871C1517.17,738.871 1525.32,740.143 1528.96,741.088C1531.15,741.654 1532.49,742.552 1532.91,742.937C1535.31,745.138 1535.07,747.467 1534.2,749.292C1533.94,749.838 1532.42,752.697 1527.36,752.655C1525.9,752.643 1524.57,752.091 1523.57,751.196Z"/>
    </g>
    <g transform="matrix(1.06224,0,0,1.0971,563.377,-70.8658)">
        <path d="M1612.66,1287.7C1611.19,1286.49 1610.41,1284.58 1610.76,1282.61C1611.29,1279.64 1614.21,1277.64 1617.28,1278.15C1619.14,1278.46 1620.52,1279.23 1621.58,1280.22C1622.96,1281.51 1623.87,1283.31 1624.08,1285.6C1624.24,1287.32 1623.94,1289.52 1623.42,1291.82C1622.93,1293.95 1622.17,1296.22 1622.18,1297.91C1622.21,1328.76 1631.59,1360.96 1633.68,1392.21C1640.97,1501.17 1646.01,1610.33 1653.85,1719.16C1657.16,1765.22 1670.53,1811.17 1665.32,1857.8C1664.91,1861.54 1660.67,1877.48 1655.97,1888.52C1653.62,1894.03 1650.96,1898.37 1648.76,1900.23C1646.67,1902 1644.51,1902.5 1642.62,1902.31C1640.64,1902.11 1638.48,1901.18 1636.78,1898.53C1635.54,1896.59 1634.29,1892.78 1633.65,1886.39C1633.35,1883.39 1635.62,1880.71 1638.73,1880.42C1641.83,1880.13 1644.59,1882.33 1644.89,1885.34L1644.93,1885.65C1645.14,1885.22 1645.34,1884.78 1645.52,1884.35C1649.77,1874.37 1653.72,1860.01 1654.09,1856.63C1659.22,1810.64 1645.85,1765.34 1642.58,1719.92C1634.74,1611.07 1629.7,1501.89 1622.41,1392.92C1620.3,1361.44 1610.91,1328.99 1610.88,1297.92C1610.88,1295.9 1611.47,1293.27 1612.1,1290.68C1612.31,1289.81 1612.52,1288.58 1612.66,1287.7Z"/>
    </g>
    <g transform="matrix(1.06224,0,0,1.0971,563.377,-70.8658)">
        <path d="M1891.35,1637.55C1891.65,1637.36 1891.97,1637.18 1892.31,1637.04C1895.17,1635.85 1898.5,1637.13 1899.73,1639.91C1900.95,1642.66 1900.45,1644.66 1899.81,1645.94C1898.84,1647.85 1896.98,1649.43 1893.75,1649.47C1891.55,1649.5 1887.03,1647.99 1882.39,1645.51C1876.12,1642.17 1869.54,1637.27 1868.05,1635.05C1856.41,1617.68 1825.21,1596.31 1808.79,1583.22C1777.76,1558.48 1736.88,1521.29 1696.4,1493.59C1670.15,1475.62 1644.15,1461.61 1621.2,1458.17C1618.12,1457.71 1616,1454.91 1616.48,1451.93C1616.96,1448.94 1619.85,1446.9 1622.93,1447.36C1647.29,1451.02 1675.05,1465.58 1702.92,1484.65C1743.63,1512.51 1784.76,1549.89 1815.97,1574.78C1833.1,1588.43 1865.38,1610.98 1877.53,1629.09C1877.82,1629.53 1878.63,1630.07 1879.58,1630.77C1881.83,1632.44 1884.91,1634.37 1887.85,1635.94C1888.92,1636.51 1890.23,1637.09 1891.35,1637.55Z"/>
    </g>
    <g transform="matrix(1.06224,0,0,1.0971,563.377,-70.8658)">
        <path d="M1602.25,1448.38C1602.04,1447.6 1602.01,1446.77 1602.19,1445.92C1602.82,1442.97 1605.81,1441.06 1608.86,1441.67C1609.96,1441.89 1611.09,1442.4 1612.06,1443.51C1612.41,1443.91 1613.58,1445.59 1613.55,1448.69C1613.45,1458.04 1607.62,1505.04 1598.8,1529.2C1585.85,1564.62 1538.16,1648.85 1490.94,1696C1469.61,1717.3 1448.06,1730.89 1429.84,1730.71C1426.72,1730.68 1424.21,1728.21 1424.24,1725.19C1424.28,1722.17 1426.83,1719.75 1429.95,1719.78C1445.9,1719.93 1464.16,1707.03 1482.83,1688.39C1528.93,1642.35 1575.51,1560.13 1588.14,1525.55C1596.59,1502.45 1602.16,1457.52 1602.25,1448.58L1602.25,1448.38ZM1603.88,1451.04C1604.62,1451.73 1605.44,1452.1 1606.23,1452.3C1605.33,1452.07 1604.53,1451.62 1603.88,1451.04ZM1603.76,1450.93L1603.83,1450.99L1603.76,1450.92L1603.76,1450.93Z"/>
    </g>
    <g transform="matrix(1.06224,0,0,1.0971,563.377,-70.8658)">
        <path d="M1674.17,1867.78C1673.86,1867.04 1673.73,1866.22 1673.8,1865.37C1674.04,1862.36 1676.76,1860.1 1679.86,1860.34C1680.26,1860.36 1683.95,1860.78 1685.07,1864.89L1689.85,1882.29C1697.63,1890.17 1703.89,1901.23 1709.35,1913.28C1717.15,1930.48 1723.37,1949.77 1730.97,1963.65C1753.81,2005.37 1776.64,2046.81 1802.74,2086.61C1822.59,2116.88 1848.37,2143.37 1874,2168.91C1883.97,2178.85 1896.07,2188.02 1905.65,2197.6C1910.53,2202.48 1908.34,2205.94 1907.18,2207.32C1906.5,2208.14 1905.56,2208.82 1904.37,2209.25C1903.01,2209.74 1900.82,2209.72 1900.13,2209.7C1897.01,2209.62 1894.55,2207.11 1894.63,2204.09C1894.65,2203.58 1894.73,2203.09 1894.88,2202.62C1885.8,2193.97 1874.97,2185.57 1865.9,2176.53C1839.74,2150.45 1813.47,2123.38 1793.21,2092.47C1766.95,2052.43 1743.97,2010.74 1720.99,1968.77C1714.53,1956.97 1709,1941.36 1702.75,1926.32C1696.86,1912.18 1690.38,1898.52 1681.45,1889.61C1680.46,1888.62 1679.08,1886.11 1678.02,1882.78C1676.43,1877.83 1674.4,1868.82 1674.17,1867.78ZM1675.74,1869.93C1676.75,1870.79 1677.79,1871.1 1678.67,1871.21C1677.55,1871.06 1676.54,1870.6 1675.74,1869.93ZM1675.61,1869.82L1675.66,1869.86L1675.58,1869.79L1675.61,1869.82Z"/>
    </g>
    <g transform="matrix(1.06224,0,0,1.0971,563.377,-70.8658)">
        <path d="M1631.82,1871.84C1631.02,1870.76 1630.62,1869.4 1630.8,1867.98C1631.18,1864.99 1634,1862.86 1637.1,1863.23C1639.91,1863.57 1641.58,1864.77 1642.62,1866.08C1644.08,1867.9 1644.73,1870.59 1643.46,1873.94C1642.52,1876.43 1640.11,1879.86 1637.66,1883.31C1635.9,1885.78 1634.05,1888.24 1633.48,1890.23C1614.63,1955.82 1577.99,2022.1 1543.64,2080.76C1528.18,2107.15 1506.47,2135.32 1496.69,2164.42C1495.45,2168.12 1493.6,2171.28 1491.94,2173.17C1490.74,2174.54 1489.49,2175.42 1488.47,2175.89C1485.99,2177.01 1483.8,2176.67 1482.02,2175.59C1480.56,2174.69 1478.15,2172.11 1478.77,2166.38C1479.1,2163.38 1481.88,2161.2 1484.98,2161.51C1485.24,2161.54 1485.49,2161.58 1485.73,2161.64C1485.81,2161.43 1485.89,2161.23 1485.95,2161.03C1495.95,2131.27 1518,2102.36 1533.81,2075.36C1567.72,2017.45 1603.98,1952.05 1622.59,1887.3C1623.42,1884.41 1625.81,1880.69 1628.35,1877.11C1629.46,1875.55 1630.88,1873.34 1631.82,1871.84Z"/>
    </g>
    <g transform="matrix(1.06224,0,0,1.0971,563.377,-70.8658)">
        <path d="M1212.08,524.421C1212.02,524.084 1211.99,523.737 1212,523.382C1212.05,520.364 1214.61,517.951 1217.73,517.998C1218.52,518.009 1222.26,518.138 1223.19,522.372C1223.26,522.679 1223.42,524.345 1223.57,527.165C1224.79,550.31 1229.06,667.811 1230.57,703.964C1238.34,889.56 1250.72,1074.75 1250.72,1260.62C1250.72,1348.77 1256.48,1436.84 1256.48,1524.49L1256.48,1619.14C1256.48,1627.18 1253.51,1643.07 1253.51,1643.07C1253.03,1645.61 1250.79,1647.47 1248.13,1647.56C1245.47,1647.64 1243.11,1645.91 1242.47,1643.41C1242.47,1643.41 1241.96,1641.41 1241.07,1639.51C1240.81,1638.95 1240.23,1638.05 1240.11,1637.87C1237.69,1636.15 1237.08,1632.87 1238.76,1630.43C1240.04,1628.56 1242.32,1627.71 1244.46,1628.08C1244.88,1624.84 1245.18,1621.59 1245.18,1619.14L1245.18,1524.49C1245.18,1436.84 1239.42,1348.77 1239.42,1260.62C1239.42,1074.9 1227.04,889.856 1219.28,704.407C1217.77,668.277 1213.51,550.852 1212.29,527.722C1212.21,526.178 1212.11,524.824 1212.08,524.421ZM1213.65,527.33C1214.93,528.586 1216.34,528.916 1217.56,528.934C1216.03,528.912 1214.65,528.302 1213.65,527.33ZM1213.49,527.17L1213.54,527.215L1213.49,527.161L1213.49,527.17Z" style="fill:rgb(255,2,0);"/>
    </g>
    <g transform="matrix(1.06224,0,0,1.0971,563.377,-70.8658)">
        <path d="M646.028,361.229C644.834,360.221 644.082,358.734 644.092,357.081C644.108,354.062 646.653,351.625 649.77,351.641C650.797,351.646 652.036,351.886 653.311,352.792C653.997,353.281 655.221,354.54 656.395,356.816C662.919,369.468 683.565,434.171 691.937,464.71C721.14,571.232 763.724,687.205 843.17,766.342C897.652,820.612 966.881,865.571 1044.37,876.604C1070.21,880.284 1098.14,888.018 1124.16,888.018C1132.75,888.018 1139.13,886.229 1140.13,885.93C1141.02,885.403 1142.06,885.108 1143.18,885.129C1145.54,885.172 1146.77,886.326 1147.44,887.121C1148.33,888.155 1148.79,889.378 1148.73,890.818C1148.71,891.366 1148.73,893.712 1145.91,895.36C1144.98,895.907 1138.1,898.956 1124.16,898.956C1097.61,898.956 1069.1,891.18 1042.72,887.425C962.808,876.046 891.259,829.937 835.07,773.966C754.314,693.524 710.702,575.794 681.018,467.516C672.81,437.576 652.684,374.106 646.288,361.702C646.21,361.55 646.114,361.378 646.028,361.229ZM1139.41,894.758C1140.08,895.333 1141.09,895.952 1142.65,896.05C1141.42,895.962 1140.3,895.49 1139.41,894.758ZM1137.66,889.024C1136.94,891.062 1137.53,892.681 1138.61,893.946C1137.84,892.994 1137.4,891.792 1137.42,890.493C1137.43,889.983 1137.52,889.49 1137.66,889.024Z"/>
    </g>
    <g transform="matrix(1.06224,0,0,1.0971,563.377,-70.8658)">
        <path d="M1108.95,840.354C1108.65,839.611 1108.3,838.703 1108.04,838.04C1107.37,836.278 1106.97,834.552 1106.97,833.234C1106.99,829.72 1109.02,828.31 1110.46,827.66C1111.86,827.026 1114.15,826.555 1116.76,828.347C1117.69,828.985 1119.2,830.498 1120.92,832.68C1123.82,836.373 1127.93,842.374 1131.59,847.242C1138.4,856.281 1146.42,864.311 1154.25,872.583C1172.73,892.113 1220.67,916.7 1247.95,916.7C1251.19,916.7 1252.53,918.299 1253.05,918.944C1254.05,920.211 1254.42,921.625 1254.17,923.172C1254.03,924.065 1253.65,925.228 1252.51,926.335C1252.02,926.809 1250.64,927.74 1248.62,928.47C1245.85,929.471 1241.44,930.506 1239.28,930.506C1215.03,930.506 1183.15,941.42 1160.76,950.185C1138.26,958.997 1127.73,965.417 1119.06,969.613C1109.58,974.201 1102.15,976.43 1085.69,976.375C1082.57,976.365 1080.05,973.906 1080.06,970.888C1080.07,967.869 1082.61,965.427 1085.73,965.437C1102.62,965.494 1108.4,962.8 1119.42,957.088C1127.48,952.915 1138.08,947.269 1156.53,940.045C1173.86,933.259 1196.63,925.383 1217.63,921.688C1190.57,912.68 1160.16,895.021 1145.92,879.973C1137.81,871.399 1129.52,863.054 1122.46,853.686C1120.8,851.47 1119.04,849.017 1117.34,846.656C1116.52,847.071 1115.51,847.33 1114.27,847.305C1111.15,847.242 1108.68,844.741 1108.74,841.723C1108.75,841.249 1108.83,840.791 1108.95,840.354ZM1113.42,836.447L1113.38,836.456L1113.6,836.423L1113.42,836.447ZM1113.76,836.4L1113.66,836.413L1113.88,836.391L1113.76,836.4ZM1114.12,836.373L1114,836.382L1114.18,836.373L1114.12,836.373Z"/>
    </g>
    <g transform="matrix(1.06224,0,0,1.0971,563.377,-70.8658)">
        <path d="M317.936,297.51C318.38,297.937 319.08,298.571 319.711,299.007C321.697,300.379 324.331,301.771 327.38,303.213C341.288,309.791 363.062,317.05 376.256,324.908C383.285,329.093 388.001,333.758 389.492,338.232C394.067,351.955 384.984,362.833 370.779,368.219C359.466,372.509 345.081,373.139 334.217,369.228C326.044,366.285 319.79,360.87 317.35,352.933C316.461,350.041 318.165,346.993 321.153,346.132C324.141,345.271 327.289,346.92 328.178,349.813C329.652,354.61 333.797,357.545 338.824,359.207C344.802,361.183 352.037,361.375 358.804,360.173C365.373,359.005 371.546,356.545 375.542,352.824C378.683,349.901 380.245,346.102 378.742,341.592C378.228,340.05 376.712,338.688 374.802,337.212C372.109,335.131 368.594,333.115 364.63,331.128C351.673,324.633 334.188,318.606 322.422,313.041C315.337,309.691 310.177,306.199 308.076,303.131C306.243,300.455 305.901,297.785 306.754,295.215C307.93,291.674 311.071,287.04 315.571,282.171C321.585,275.665 330.045,268.509 338.327,262.787C348.363,255.852 358.36,251.265 363.95,251.265C363.952,251.265 370.964,251.262 372.366,251.264C377.599,251.272 378.248,256.7 378.248,256.713C378.268,261.979 379.528,270.759 377.873,275.528C376.37,279.858 373.375,282.319 368.594,282.269C365.477,282.236 362.974,279.759 363.007,276.741C363.036,274.204 364.847,272.087 367.275,271.496C367.365,271.063 367.467,270.499 367.501,270.053C367.633,268.325 367.539,266.369 367.411,264.44C367.361,263.687 367.305,262.938 367.25,262.202L363.95,262.203C362.571,262.203 360.815,262.82 358.764,263.687C354.675,265.417 349.824,268.28 344.889,271.69C337.288,276.942 329.509,283.494 323.989,289.466C321.231,292.45 319.021,295.198 317.936,297.51Z"/>
    </g>
    <g transform="matrix(1.06224,0,0,1.0971,563.377,-70.8658)">
        <path d="M391.236,278.055C391.714,277.292 392.693,275.774 393.442,274.866C395.188,272.749 397.475,271.183 400.261,270.77C402.142,270.492 404.339,270.689 406.868,271.948C409.558,273.288 412.759,276.277 415.911,280.599C421.964,288.896 428.526,302.481 432.901,314.978C435.903,323.551 437.856,331.632 438.092,337.238C438.229,340.515 437.76,343.155 436.918,344.989C435.652,347.748 432.312,348.992 429.463,347.767C426.614,346.541 425.328,343.307 426.594,340.548C427.077,339.496 426.886,337.801 426.641,335.698C426.096,331.002 424.451,324.911 422.202,318.489C418.743,308.608 413.84,297.972 408.99,290.316C406.496,286.379 404.246,283.216 402.129,281.913C401.941,282.152 401.736,282.424 401.61,282.617C401.09,283.419 400.635,284.188 400.219,284.768C398.412,287.283 396.106,288.021 394.413,288.005C391.296,287.975 388.79,285.5 388.821,282.482C388.84,280.648 389.792,279.032 391.236,278.055Z"/>
    </g>
    <g transform="matrix(1.06224,0,0,1.0971,563.377,-70.8658)">
        <path d="M386.414,210.081C384.432,209.216 383.061,207.277 383.085,205.039C383.116,202.021 385.673,199.596 388.79,199.626C390.902,199.647 393.979,200.991 396.331,204.709C400.503,211.304 405.08,228.108 405.743,232.111C406.246,235.146 404.899,236.864 404.625,237.195C403.376,238.699 401.82,239.261 400.15,239.246C397.033,239.216 394.527,236.741 394.558,233.723L394.559,233.681C394.037,230.728 391.528,221.269 388.745,214.586C388.036,212.885 386.88,210.871 386.414,210.081ZM396.253,229.872C397.286,228.892 398.703,228.293 400.261,228.308C398.792,228.294 397.41,228.73 396.253,229.872Z"/>
    </g>
    <g transform="matrix(1.06224,0,0,1.0971,563.377,-70.8658)">
        <path d="M523.149,225.454C523.29,225.443 523.433,225.439 523.578,225.44C523.729,225.441 523.876,225.446 524.017,225.455L524.51,225.455L524.322,225.477C529.137,225.946 528.205,230.714 527.062,233.753C527.035,234.511 526.795,235.169 526.238,235.635C526.042,236.03 525.903,236.262 525.885,236.266C525.795,236.284 525.444,236.372 524.831,236.389C524.431,236.4 517.353,236.389 516.559,236.389C514.765,236.389 513.499,237.923 512.241,239.441C510.115,242.008 508.47,245.204 507.242,247.651C500.875,260.337 494.879,277.391 494.893,293.151C494.902,302.842 497.189,312.044 503.567,319.101C507.381,323.323 512.523,323.288 517.756,321.255C524.61,318.591 531.591,312.775 537.378,306.04C543.665,298.724 548.572,290.283 550.038,283.222C550.701,280.027 550.869,277.194 549.147,275.389C547.683,273.855 545.123,273.411 541.484,273.544C536.146,273.738 529.072,275.46 519.898,279.01C517.004,280.13 513.714,278.764 512.557,275.961C511.4,273.159 512.811,269.974 515.706,268.853C528.79,263.791 538.355,262.162 544.986,262.686C550.768,263.144 554.772,265.166 557.445,267.967C561.328,272.037 562.609,278.173 561.113,285.377C559.343,293.9 553.65,304.206 546.062,313.036C537.469,323.035 526.459,331.02 516.486,333.031C508.501,334.642 501.005,332.877 495.065,326.304C486.892,317.26 483.607,305.58 483.596,293.16C483.581,275.754 490.049,256.88 497.081,242.87C498.972,239.103 501.76,234.032 505.309,230.541C508.516,227.387 512.343,225.451 516.559,225.451L523.149,225.454Z"/>
    </g>
    <g transform="matrix(1.06224,0,0,1.0971,563.377,-70.8658)">
        <path d="M524.952,247.469C525.072,245.488 525.159,243.876 525.227,243.308C525.721,239.178 529.328,238.433 529.714,238.354C531.228,238.043 532.767,238.247 534.249,239.308C534.73,239.653 536.007,240.512 536.446,242.691C536.501,242.966 536.615,244.569 536.615,248.129C536.615,249.8 536.793,250.765 536.707,251.31C536.556,252.267 536.218,253.059 535.736,253.742C535.443,256.83 535.084,259.816 534.706,261.095C533.848,263.997 530.719,265.679 527.721,264.849C524.724,264.018 522.987,260.988 523.845,258.086C524.097,257.231 524.307,255.672 524.48,253.873C523.932,253.025 523.619,252.022 523.627,250.949C523.636,249.623 524.133,248.41 524.952,247.469Z"/>
    </g>
    <g transform="matrix(1.06224,0,0,1.0971,563.377,-70.8658)">
        <path d="M645.045,195.927C643.282,195.343 641.855,193.926 641.383,192.045C640.095,186.913 643.21,184.799 644.135,184.322C645.436,183.651 648.468,182.734 651.42,185.64C652.956,187.152 656.543,192.832 659.723,198.712C662.9,204.586 665.666,210.642 666.073,212.663C668.481,224.61 671.596,243.046 668.971,258.27C666.984,269.797 661.734,279.514 651.614,284.545C644.156,288.252 635.823,285.866 627.791,279.129C615.12,268.5 602.623,246.4 595.354,237.241C594.148,241.34 592.006,246.055 591.166,249.416C587.378,264.564 591.287,296.26 591.287,296.26C591.629,299.125 589.615,301.755 586.683,302.27C583.752,302.784 580.912,301.007 580.194,298.207C580.194,298.207 573.09,270.393 574.826,247.712C575.655,236.881 578.64,227.214 584.505,221.372C587.134,218.753 590.475,218.387 594.055,220.316C596.912,221.856 600.273,226.118 601.266,227.108C607.017,232.836 617.957,252.647 629.784,265.599C633.189,269.328 636.625,272.461 640.07,274.199C642.265,275.306 644.408,275.832 646.454,274.814C653.397,271.363 656.465,264.377 657.829,256.469C660.23,242.542 657.188,225.688 654.985,214.758C654.662,213.154 652.236,208.448 649.715,203.786C648.267,201.109 646.385,198.046 645.045,195.927Z"/>
    </g>
    <g transform="matrix(1.06224,0,0,1.0971,563.377,-70.8658)">
        <path d="M715.51,183.37C715.082,182.286 714.607,181.316 714.075,180.484C713.807,180.065 713.529,179.691 713.224,179.381C713.077,179.233 713.004,179.014 712.813,179.013C709.696,178.999 707.177,176.537 707.192,173.518C707.207,170.5 709.75,168.061 712.867,168.076C716.417,168.092 719.606,169.631 722.231,172.746C723.054,173.724 723.829,174.9 724.545,176.248C729.032,175.437 734.785,176.733 741.124,180.389C755.226,188.523 773.986,208.22 787.551,226.929C796.825,239.719 803.622,252.096 805.315,260.035C806.475,265.479 805.322,269.527 803.022,271.92C800.899,274.13 797.322,274.256 795.039,272.2C792.869,270.244 792.646,267.016 794.457,264.805C794.475,264.558 794.508,263.952 794.463,263.534C794.334,262.333 793.973,260.956 793.447,259.429C791.046,252.454 785.409,243.011 778.305,233.213C767.428,218.212 753.081,202.439 740.886,193.455C737.208,190.746 733.775,188.673 730.728,187.574C729.829,187.25 729.004,186.956 728.259,186.838L728.26,186.841C731.524,201.262 731.362,222.69 729.55,235.645C728.951,239.931 728.14,243.365 727.274,245.508C726.602,247.173 725.782,248.341 725.047,249.073C723.226,250.887 721.413,251.296 720.031,251.317C717.969,251.35 715.979,250.566 714.488,248.447C713.616,247.208 712.804,244.723 712.53,241.718C712.123,237.266 712.48,231.289 712.48,230.92C712.48,224.038 710.34,204.862 712.59,192.191C713.195,188.783 714.192,185.801 715.51,183.37Z"/>
    </g>
    <g transform="matrix(1.06224,0,0,1.0971,563.377,-70.8658)">
        <path d="M725.089,236.897C724.578,235.208 723.994,232.852 723.998,230.91C724.003,228.209 726.079,224.715 730.361,221.999C735.931,218.466 745.508,215.257 747.686,214.39C753.8,211.954 762.157,211.037 770.16,209.712C776.494,208.664 782.659,207.55 786.322,204.063C788.545,201.947 792.125,201.977 794.31,204.129C796.496,206.281 796.465,209.747 794.242,211.863C790.053,215.851 783.788,218.175 776.774,219.627C768.314,221.38 758.659,221.845 751.985,224.505C750.291,225.179 743.637,227.354 738.59,229.987C737.487,230.562 736.119,231.525 735.396,232.054C735.612,233.307 736.133,234.396 736.426,235.247C736.91,236.656 737.108,237.86 737.081,238.757C737.029,240.441 736.413,241.762 735.447,242.812C734.468,243.877 732.896,244.995 730.023,244.982C726.906,244.968 724.387,242.506 724.401,239.488C724.406,238.55 724.655,237.667 725.089,236.897Z"/>
    </g>
    <g transform="matrix(1.06224,0,0,1.0971,563.377,-70.8658)">
        <path d="M806.76,176.727C807.393,176.283 812.157,172.96 814.94,171.515C819.969,168.902 824.869,168.783 828.721,172.604C833.23,177.079 835.947,183.099 837.52,190.049C839.566,199.092 839.68,209.823 840.455,220.079C840.924,226.278 841.636,232.291 843.39,237.52C845.621,244.17 849.669,249.43 857.78,251.448C871.661,254.902 884.295,247.948 896.627,240.614C911.239,231.925 925.5,222.594 939.855,222.594C944.357,222.594 945.645,225.329 945.985,226.119C946.609,227.572 947.27,230.629 943.784,232.979C942.874,233.592 939.571,234.844 936.39,236.407C935.358,236.914 933.846,237.944 933.34,238.297C932.534,240.774 929.983,242.414 927.23,242.069C924.968,241.785 923.192,240.239 922.56,238.258C915.96,241.483 909.34,245.891 902.539,249.935C887.535,258.857 871.858,266.244 854.968,262.042C835.256,257.138 830.637,240.035 829.189,220.877C828.57,212.688 828.432,204.178 827.264,196.554C826.312,190.342 824.779,184.736 821.159,180.791C820.802,180.928 820.329,181.123 820.009,181.298C819.019,181.841 818.032,182.516 817.077,183.179C815.01,184.613 813.037,185.985 811.431,186.704C809.978,187.355 808.626,187.623 807.468,187.618C804.35,187.606 801.83,185.145 801.843,182.126C801.855,179.356 803.997,177.072 806.76,176.727Z"/>
    </g>
    <g transform="matrix(1.06224,0,0,1.0971,563.377,-70.8658)">
        <path d="M427.747,568.677C438.352,568.289 448.319,572.27 455.79,578.53C464.401,585.744 469.591,596.001 469.008,606.081C468.386,616.843 461.401,627.875 443.825,634.679C434.881,638.141 419.277,638.796 406.803,634.464C397.68,631.295 390.288,625.529 387.397,616.957C379.919,594.784 393.023,581.332 405.981,568.425C412.948,561.485 421.921,564.378 425.467,566.625C426.5,567.279 427.235,568.009 427.747,568.677ZM405.266,585.088C398.609,592.656 393.99,601.268 398.136,613.562C399.946,618.929 404.905,622.184 410.617,624.168C420.394,627.564 432.621,627.236 439.631,624.523C451.737,619.836 457.3,612.882 457.729,605.469C458.127,598.588 454.277,591.726 448.398,586.801C439.289,579.169 425.04,576.236 412.115,585.265C410.006,586.739 407.197,586.598 405.266,585.088ZM419.929,567.737C420.856,567.109 421.986,566.746 423.203,566.757C421.734,566.744 420.689,567.168 419.929,567.737Z"/>
    </g>
    <g transform="matrix(1.06224,0,0,1.0971,563.377,-70.8658)">
        <path d="M420.594,505.366L419.36,502.922C415.52,495.273 407.832,479.979 407.832,479.979C406.517,477.363 407.548,474.208 410.178,472.8C412.808,471.392 416.116,472.224 417.705,474.694C417.705,474.694 427.856,490.626 431.183,501.431C447.209,532.962 465.891,564.572 474.537,599.638C475.261,602.573 473.387,605.526 470.354,606.227C467.322,606.928 464.273,605.113 463.549,602.178C456.074,571.864 440.832,544.232 426.564,516.929C425.568,517.278 424.422,517.473 423.1,517.462C419.983,517.434 417.475,514.962 417.503,511.944C417.524,509.706 418.933,507.793 420.93,506.965C420.91,506.799 420.885,506.636 420.856,506.489C420.784,506.126 420.696,505.751 420.594,505.366Z"/>
    </g>
    <g transform="matrix(1.06224,0,0,1.0971,563.377,-70.8658)">
        <path d="M397.283,494.516C401.696,494.558 405.403,492.89 408.737,490.094C411.239,487.996 413.539,485.187 415.916,482.265C419.067,478.39 422.262,474.065 427.403,472.586C430.612,471.663 434.518,472.019 439.575,474.037C444.273,475.912 448.105,480.922 451.8,486.835C458.389,497.383 463.936,510.96 469.39,520.423C472.124,525.165 474.921,528.964 477.696,531.284C480.478,533.611 483.395,534.695 486.301,534.671C489.418,534.645 491.927,532.174 491.9,529.155C491.873,526.137 489.321,523.708 486.203,523.734C485.78,523.737 485.484,523.345 485.079,523.006C484.296,522.351 483.536,521.491 482.765,520.487C480.324,517.311 477.936,512.884 475.452,507.959C470.561,498.262 465.398,486.76 459.417,478.04C454.801,471.309 449.573,466.197 443.88,463.925C435.361,460.525 428.802,460.606 423.496,462.311C418.232,464.002 414.109,467.411 410.552,471.346C407.715,474.484 405.275,477.962 402.62,480.639C401.061,482.212 399.539,483.599 397.393,483.579C394.275,483.549 391.72,485.976 391.689,488.994C391.659,492.012 394.165,494.487 397.283,494.516Z"/>
    </g>
    <g transform="matrix(1.06224,0,0,1.0971,563.377,-70.8658)">
        <path d="M531.932,561.896C550.312,564.339 560.207,571.608 564.633,580.153C567.9,586.461 568.381,593.716 566.731,601.043C564.47,611.086 558.147,621.285 550.456,628.807C541.095,637.963 529.631,642.797 520.944,640.634C508.198,637.46 502.617,627.166 501.465,614.286C500.018,598.108 505.778,577.733 508.202,568.077C510.971,557.042 515.734,553.558 519.062,552.573C524.095,551.085 528.666,554.05 530.552,556.392C532.154,558.38 532.263,560.397 531.932,561.896ZM518.845,571.967C516.437,581.326 511.445,599.083 512.72,613.342C513.424,621.223 515.959,628.099 523.758,630.041C526.206,630.65 528.966,629.972 531.807,628.693C535.42,627.067 539.071,624.395 542.428,621.112C548.648,615.028 553.864,606.836 555.693,598.713C556.77,593.929 556.668,589.175 554.535,585.057C550.408,577.088 539.461,572.147 518.845,571.967ZM526.146,555.29C525.205,555.325 524.422,555.562 523.764,555.919C524.481,555.55 525.289,555.327 526.146,555.29Z"/>
    </g>
    <g transform="matrix(1.06224,0,0,1.0971,563.377,-70.8658)">
        <path d="M540.814,426.016C540.309,423.552 539.847,421.129 539.436,418.764C536.564,402.233 536.405,388.302 540.28,380.552C540.878,379.356 541.821,378.442 543.183,377.89C543.968,377.571 545.278,377.17 547.074,377.72C547.271,377.78 548.418,378.123 549.811,379.419C552.826,382.224 566.7,397.361 552.65,427.517C559.935,461.303 574.363,502.344 576.884,519.854C578.147,528.623 586.811,553.487 594.938,567.316C596.069,569.24 597.614,571.215 598.806,572.631C600.011,570.31 602.799,569.085 605.46,569.852C608.448,570.713 610.152,573.761 609.262,576.654C607.172,583.453 603.166,585.393 599.835,585.444C596.988,585.487 593.233,583.745 589.765,579.54C579.904,567.587 567.303,532.526 565.696,521.364C563.489,506.037 552.115,472.631 544.453,441.903C534.556,456.74 520.107,471.956 504.764,479.583C504.025,479.95 502.453,480.405 500.403,480.739C499.531,480.882 498.244,481.134 496.935,481.405C497.875,481.99 498.876,482.563 499.894,483.133C504.474,485.701 509.274,488.281 511.979,491.003C529.369,508.497 542.393,530.99 553.191,552.398C553.55,552.859 555.879,555.869 557.013,557.718C558.209,559.669 558.76,561.55 558.782,562.759C558.819,564.782 558.015,566.309 556.773,567.426C555.797,568.304 554.377,569.103 552.184,569.09C549.067,569.07 546.552,566.604 546.573,563.585C546.575,563.238 546.611,562.899 546.678,562.571C545.445,560.837 543.44,557.989 543.156,557.425C532.835,536.943 520.485,515.333 503.84,498.587C501.2,495.932 495.946,493.683 491.687,491.129C487.517,488.63 484.164,485.782 482.692,482.837C480.976,479.405 481.8,476.582 484.449,474.259C486.038,472.865 489.159,471.637 492.645,470.936C495.279,470.407 499.22,469.792 499.942,469.681C514.991,462.07 528.868,446.2 537.628,431.789C538.834,429.805 539.892,427.88 540.814,426.016ZM551.881,558.162L551.833,558.166L551.912,558.161L551.881,558.162Z"/>
    </g>
    <g transform="matrix(1.06224,0,0,1.0971,563.377,-70.8658)">
        <path d="M587.009,594.008C586.822,593.462 586.724,592.877 586.727,592.27C586.746,589.252 589.292,586.816 592.409,586.834C594.108,586.844 595.457,587.435 596.538,588.395C597.489,589.241 598.387,590.542 598.58,592.503C598.733,594.054 598.099,597.276 596.437,601C594.331,605.718 590.739,611.626 587.123,615.379C585.058,617.523 582.894,619.023 580.946,619.747C578.484,620.662 576.14,620.597 574.01,619.681C572.23,618.914 570.434,617.462 569.089,614.782C568.371,613.351 567.609,609.971 567.273,605.467C566.628,596.815 567.005,583.287 569.003,574.259C570.106,569.273 571.919,565.484 573.868,563.58C575.672,561.818 577.74,561.031 579.917,561.031C581.965,561.031 585.183,562.081 587.13,563.29C588.812,564.334 589.784,565.634 590.19,566.507C591.061,568.383 590.851,570.097 590.057,571.571C589.478,572.644 587.976,574.851 583.737,574.826C582.661,574.82 581.657,574.522 580.804,574.01C580.514,574.822 580.233,575.718 580.049,576.55C578.248,584.687 577.959,596.881 578.541,604.679C578.608,605.585 578.729,606.554 578.855,607.42C580.573,605.455 583.044,602.46 584.332,600.127C585.468,598.068 586.509,595.376 587.009,594.008ZM592.065,597.763C592.156,597.769 592.248,597.771 592.342,597.772L592.065,597.763ZM591.824,597.746L591.96,597.756L591.803,597.743L591.824,597.746ZM591.575,597.716L591.601,597.719L591.568,597.715L591.575,597.716Z"/>
    </g>
    <g transform="matrix(1.06224,0,0,1.0971,563.377,-70.8658)">
        <path d="M519.447,512.391C520.169,511.851 523.708,509.169 526.429,506.571C536.401,497.046 550.84,480.598 552.639,475.732C553.69,472.89 556.925,471.408 559.861,472.425C562.796,473.443 564.326,476.576 563.275,479.417C562.519,481.463 560.082,485.268 556.57,489.77C549.267,499.131 537.261,512.18 529.903,518.395C527.64,520.307 525.692,521.64 524.32,522.296C522.848,523.001 521.575,523.205 520.631,523.198C517.514,523.177 515,520.71 515.022,517.691C515.041,515.093 516.932,512.928 519.447,512.391Z"/>
    </g>
    <g transform="matrix(1.06224,0,0,1.0971,563.377,-70.8658)">
        <path d="M1150.79,1164.73C1151.79,1163.86 1153.12,1163.34 1154.56,1163.34C1161.34,1163.37 1164.76,1163.57 1165.53,1163.74C1168.63,1164.41 1169.44,1166.45 1169.73,1167.19C1170.46,1169.06 1170.43,1171.14 1168.38,1173.07C1168.12,1173.32 1166.52,1174.56 1163.27,1174.88C1148.66,1176.31 1047.49,1179.71 1044.11,1180.02C961.578,1187.49 880.505,1241.6 823.049,1298.85C747.492,1374.13 672.855,1472.17 628.308,1569.72C614.758,1599.39 601.698,1633.43 597.04,1665.78C596.451,1669.87 594.555,1713.33 592.766,1721.97C592.298,1724.23 591.384,1725.52 590.922,1726.01C589.54,1727.47 587.98,1727.85 586.605,1727.85C583.488,1727.83 580.972,1725.36 580.991,1722.34C580.997,1721.38 581.258,1720.49 581.712,1719.7C583.475,1710.89 585.272,1668.29 585.851,1664.27C590.649,1630.94 604.019,1595.85 617.976,1565.29C663.044,1466.61 738.506,1367.39 814.947,1291.23C874.177,1232.21 957.98,1176.83 1043.06,1169.13C1045.95,1168.87 1120.12,1166.35 1150.79,1164.73ZM585.326,1717.06L585.32,1717.06L585.348,1717.05L585.326,1717.06ZM585.664,1716.99L585.61,1717L585.734,1716.98L585.664,1716.99ZM586.001,1716.94L585.912,1716.95L586.054,1716.94L586.001,1716.94ZM586.338,1716.91L586.238,1716.92L586.363,1716.91L586.338,1716.91Z"/>
    </g>
    <g transform="matrix(1.06224,0,0,1.0971,563.377,-70.8658)">
        <path d="M1120.07,1115.38C1120.95,1114.86 1122,1114.56 1123.11,1114.59C1127.57,1114.67 1128.54,1117.78 1128.7,1118.19C1129.09,1119.2 1129.87,1122.56 1126.81,1124.54C1128.71,1125.32 1130.98,1126.03 1133.35,1126.74C1141.84,1129.28 1151.89,1131.08 1156.8,1131.89C1172.71,1134.54 1184.42,1138.41 1192.58,1143.11C1201.89,1148.47 1206.89,1155.02 1208.68,1162.13C1210.76,1170.45 1208.38,1179.87 1201.95,1189.74C1193.44,1202.79 1177.68,1216.96 1157.82,1230.63C1155.28,1232.38 1151.75,1231.81 1149.94,1229.35C1148.13,1226.89 1148.73,1223.47 1151.27,1221.72C1169.71,1209.03 1184.5,1196.02 1192.39,1183.9C1196.9,1176.99 1199.16,1170.54 1197.7,1164.71C1196.53,1160.04 1192.91,1156.02 1186.8,1152.51C1179.54,1148.33 1169.06,1145.03 1154.89,1142.67C1148.78,1141.66 1135.21,1139.18 1125.53,1135.73C1120.56,1133.96 1116.53,1131.8 1114.35,1129.63C1111.53,1126.84 1111.34,1124.25 1111.75,1122.29C1112.18,1120.26 1113.57,1118.38 1115.79,1117.07C1116.95,1116.38 1118.77,1115.77 1120.07,1115.38ZM1122.25,1125.47L1122.26,1125.48L1122.23,1125.47L1122.25,1125.47Z"/>
    </g>
    <g transform="matrix(1.06224,0,0,1.0971,563.377,-70.8658)">
        <path d="M630.571,1890.81C627.307,1886.72 624.257,1882.73 621.51,1878.89C614.011,1868.42 608.751,1859 607.065,1851.76C605.512,1845.09 606.769,1839.82 610.412,1836.18C613.096,1833.5 616.974,1832.87 621.275,1836.23C627.146,1840.81 636.199,1858.34 637.141,1861.34C639.353,1868.41 640.971,1877.27 641.607,1886.75C660.734,1910.4 686.397,1937.06 701.579,1955.82C707.445,1963.07 711.796,1969.26 713.878,1973.75C715.144,1976.48 715.659,1978.82 715.619,1980.63C715.553,1983.65 712.968,1986.05 709.851,1985.98C706.735,1985.92 704.258,1983.42 704.325,1980.4C704.346,1979.45 703.641,1978.24 702.771,1976.66C700.693,1972.88 697.156,1968.09 692.686,1962.57C679.752,1946.58 659.269,1924.89 641.613,1904.16C641.021,1912.78 639.491,1921.32 636.762,1929.01C631.21,1944.64 620.802,1956.75 604.113,1960.07C591.673,1962.55 580.312,1958.25 570.098,1950.73C556.572,1940.78 545.116,1925 535.577,1915.5C533.98,1913.91 532.313,1911.25 530.714,1908.61L530.573,1908.38C530.305,1909.81 530.138,1911.39 530.039,1913.08C529.855,1916.22 529.911,1919.68 530.116,1923.22C531.991,1936.27 534.611,1949.25 535.874,1962.72C536.32,1965.48 536.615,1968.35 536.615,1971.92L536.615,1977.98L536.608,1978.17C536.463,1984.24 533.715,1985.4 530.967,1984.46C528.218,1985.4 525.47,1984.24 525.326,1978.17L525.319,1977.98L525.319,1977.66C525.319,1973.08 525.089,1968.58 524.705,1964.14C524.138,1960.55 523.266,1957.24 522.511,1952.72C521.577,1947.11 519.475,1934.82 518.831,1923.3C517.642,1915.06 516.75,1906.79 516.685,1898.34C515.649,1897.34 515.011,1895.96 515.022,1894.43C515.044,1891.41 517.593,1888.98 520.71,1889C524.581,1889.03 525.998,1890.41 526.713,1891.24C527.398,1892.03 527.88,1892.96 528.067,1894.15C528.292,1894.1 528.517,1894.07 528.74,1894.04C530.871,1893.77 533.153,1894.36 535.286,1896.18C536.705,1897.39 538.204,1899.42 539.623,1901.7C541.003,1903.93 542.3,1906.51 543.678,1907.88C551.44,1915.61 560.453,1927.64 570.89,1937.06C579.996,1945.27 590.14,1951.69 601.836,1949.36C614.452,1946.84 621.882,1937.27 626.079,1925.45C629.839,1914.86 631.044,1902.46 630.571,1890.81ZM618.137,1849.56C619.346,1854.54 622.628,1860.62 627.176,1867.44C626.906,1866.43 626.624,1865.46 626.33,1864.52C625.79,1862.8 621.986,1855.22 618.137,1849.56Z"/>
    </g>
    <g transform="matrix(1.06224,0,0,1.0971,563.377,-70.8658)">
        <path d="M696.713,1831.92C696.242,1829.3 695.867,1827.19 695.621,1825.76C695.354,1824.21 695.232,1823.28 695.221,1823.09C695.078,1820.45 696.529,1819.25 696.828,1818.95C699.033,1816.77 701.876,1815.81 705.296,1816.14C708.333,1816.44 712.145,1818.03 716.195,1820.7C728.449,1828.8 744.574,1847.45 747.823,1850.22C771.78,1870.67 803.524,1892.09 822.496,1917.29C825.992,1921.93 834.708,1927.34 841.014,1933.03C846.781,1938.24 850.527,1943.9 850.425,1949.07C850.366,1952.09 847.787,1954.49 844.67,1954.43C841.554,1954.38 839.071,1951.88 839.131,1948.86C839.149,1947.91 838.596,1947 837.933,1946.03C836.788,1944.35 835.15,1942.69 833.31,1941.03C826.459,1934.85 817.166,1928.78 813.367,1923.73C794.853,1899.14 763.733,1878.38 740.354,1858.43C737.207,1855.74 721.694,1837.58 709.826,1829.74C709.04,1829.22 708.277,1828.75 707.539,1828.35C710.689,1845.97 719.559,1893.96 720.776,1901.89L720.803,1901.97C721.78,1904.96 726.497,1919.03 726.541,1919.25C726.959,1921.32 727.748,1925.77 727.69,1928.09C727.646,1929.83 727.148,1931.11 726.703,1931.84C725.566,1933.7 723.929,1934.5 722.159,1934.67C720.922,1934.79 718.956,1934.71 716.95,1932.7C712.311,1928.06 708.248,1919.63 705.102,1909.4C698.335,1887.38 695.204,1856.74 695.204,1842.85C695.204,1842.47 695.226,1842.03 695.259,1841.58C693.795,1840.59 692.842,1838.94 692.851,1837.08C692.863,1834.67 694.48,1832.64 696.713,1831.92Z"/>
    </g>
    <g transform="matrix(1.06224,0,0,1.0971,563.377,-70.8658)">
        <path d="M707.803,1914.19C708.763,1915.36 708.914,1916.67 708.885,1917.68C708.867,1918.32 708.47,1922.29 703.85,1923.01C702.249,1923.27 695.191,1923.6 690.086,1923.03C686.888,1922.67 684.307,1921.77 683.011,1920.83C681.011,1919.38 680.232,1917.54 680.233,1915.62C680.233,1914.24 680.649,1912.5 682.424,1910.74C682.955,1910.21 684.564,1909.16 687.089,1908.32C692.29,1906.6 703.676,1903.97 705.064,1903.57C727.462,1897.2 763.941,1883.8 780.545,1867.66C782.745,1865.53 786.325,1865.52 788.533,1867.65C790.741,1869.78 790.747,1873.25 788.547,1875.38C770.84,1892.59 732.135,1907.27 708.248,1914.07L707.803,1914.19Z"/>
    </g>
    <g transform="matrix(1.06224,0,0,1.0971,563.377,-70.8658)">
        <path d="M832.781,1793.83C813.878,1794.09 796.48,1810.98 792.781,1829.55C790.494,1841.03 795.738,1848.38 804.191,1853.53C810.717,1857.51 818.968,1860.28 827.494,1862.56C843.72,1866.91 860.906,1869.56 870.869,1874.02C876.813,1876.67 880.544,1880.19 881.883,1884.21C882.641,1886.48 882.638,1889.64 881.525,1893.29C880.299,1897.32 877.719,1902.2 874.12,1906.99C865.617,1918.31 851.431,1928.69 837.749,1927.53C828.329,1926.74 818.557,1920.88 810.991,1905.41C809.657,1902.69 810.86,1899.42 813.678,1898.13C816.495,1896.84 819.866,1898.01 821.201,1900.73C826.367,1911.29 832.3,1916.09 838.732,1916.64C848.826,1917.49 858.712,1908.9 864.985,1900.56C867.717,1896.92 869.759,1893.25 870.69,1890.2C871.016,1889.13 871.354,1888.23 871.132,1887.57C870.851,1886.72 870.029,1886.14 869.06,1885.5C867.243,1884.31 864.843,1883.32 862.053,1882.38C852.182,1879.06 837.979,1876.72 824.481,1873.1C798.73,1866.2 776.356,1854.24 781.688,1827.48C786.401,1803.82 809.197,1782.84 833.305,1782.89C834.875,1782.89 837.028,1783.5 839.194,1784.71C842.69,1786.68 846.445,1790.21 847.086,1791.1C848.295,1792.79 848.206,1794.25 848.138,1794.91C847.881,1797.4 846.503,1798.97 844.042,1799.65C843.577,1799.78 841.514,1800.46 838.707,1798.59C838.019,1798.13 837.47,1797.55 837.068,1796.9L832.781,1793.83Z"/>
    </g>
    <g transform="matrix(1.06224,0,0,1.0971,563.377,-70.8658)">
        <path d="M858.077,1793.72C867.844,1795.5 876.859,1805.1 885.582,1817.06C900.094,1836.96 912.939,1863.77 923.122,1880.09C924.734,1882.67 928.209,1883.5 930.877,1881.94C933.545,1880.38 934.403,1877.02 932.791,1874.43C922.499,1857.94 909.477,1830.86 894.81,1810.75C884.08,1796.04 872.175,1785.15 860.162,1782.97C857.098,1782.41 854.143,1784.37 853.568,1787.34C852.992,1790.3 855.013,1793.16 858.077,1793.72Z"/>
    </g>
    <g transform="matrix(1.06224,0,0,1.0971,563.377,-70.8658)">
        <path d="M923.744,1764.98C921.141,1764.36 919.282,1762.01 919.45,1759.33C919.639,1756.32 922.319,1754.02 925.43,1754.2C929.214,1754.43 932.053,1756.3 933.848,1759.92C935.989,1764.23 936.11,1772.82 934.515,1783.73C931.306,1805.67 922.245,1838.41 921.195,1860.13C920.991,1864.35 921.091,1868.11 921.674,1871.21C922.084,1873.4 922.62,1875.2 923.756,1876.34C926.953,1879.51 931.743,1879.34 937.242,1878.41C944.597,1877.16 953.031,1874.1 961.66,1871.27C971.066,1868.17 980.689,1865.33 989.516,1864.77C999.599,1864.13 1008.72,1866.35 1015.89,1873.46C1016.55,1874.11 1017.46,1874.54 1018.37,1874.82C1018.86,1874.7 1019.38,1874.65 1019.92,1874.66C1022.61,1874.74 1024.08,1875.12 1024.68,1875.35C1026.2,1875.91 1026.95,1876.76 1027.38,1877.33C1028.54,1878.87 1028.69,1880.44 1028.3,1881.93C1028.04,1882.96 1027.45,1884.15 1026.06,1885.11C1025.55,1885.47 1024.2,1886.2 1022.06,1886.31C1019.04,1886.46 1012.25,1885.51 1007.81,1881.1C1001.99,1875.33 994.11,1874.89 985.675,1876.2C975.599,1877.76 964.758,1881.89 954.697,1885.12C945.684,1888.01 937.211,1890.15 930.232,1889.85C924.434,1889.6 919.505,1887.79 915.663,1883.97C911.328,1879.66 909.364,1870.94 909.911,1859.62C910.974,1837.61 920.078,1804.43 923.33,1782.19C924.234,1776.01 924.7,1770.76 924.237,1767.02C924.152,1766.34 923.905,1765.48 923.744,1764.98Z"/>
    </g>
    <g transform="matrix(1.06224,0,0,1.0971,563.377,-70.8658)">
        <path d="M108.318,1841.62C109.221,1845.12 110.821,1849.16 112.28,1851.1C116.741,1857.03 128.041,1869.24 134.245,1879.85C137.489,1885.39 139.312,1890.66 139.104,1894.74C138.95,1897.75 136.298,1900.08 133.184,1899.93C130.07,1899.78 127.667,1897.21 127.821,1894.2C128.002,1890.65 125.11,1885.98 121.729,1881.02C115.53,1871.92 106.876,1862.49 103.151,1857.55C99.96,1853.31 96.296,1842.18 96.286,1837.13C96.281,1834.52 97.566,1832.62 100.265,1831.67C101.042,1831.4 102.168,1831.21 103.43,1831.32C104.116,1831.37 105.066,1831.57 105.688,1831.71C105.999,1831.76 106.311,1831.83 106.619,1831.93C112.283,1833.82 109.986,1839.57 109.948,1839.64C109.811,1839.9 109.331,1840.86 108.318,1841.62ZM102.592,1842.15L102.596,1842.15L102.592,1842.15Z"/>
    </g>
    <g transform="matrix(1.06224,0,0,1.0971,563.377,-70.8658)">
        <path d="M172.009,1796.49C173.084,1795.13 174.798,1794.29 176.694,1794.35C180.272,1794.48 181.505,1796.61 182.004,1797.69C182.688,1799.16 183.081,1801.28 181.179,1803.55C180.725,1804.09 179.125,1805.34 176.433,1806.55C170.337,1809.29 156.117,1814.39 149.849,1816.48C138.77,1820.15 120.231,1829.82 107.622,1835.28C101.151,1838.08 95.9,1839.71 93.308,1839.71C90.19,1839.71 87.659,1837.26 87.659,1834.24C87.659,1831.22 90.19,1828.77 93.308,1828.77C95.093,1828.77 98.557,1827.22 103.013,1825.29C115.896,1819.72 134.863,1809.89 146.184,1806.13C152.344,1804.08 166.612,1799 172.009,1796.49ZM173.462,1804.44C174.129,1804.9 175.034,1805.24 176.277,1805.28C175.24,1805.25 174.278,1804.94 173.462,1804.44Z"/>
    </g>
    <g transform="matrix(1.06224,0,0,1.0971,563.377,-70.8658)">
        <path d="M170.057,1791.52C170.356,1791.49 170.662,1791.47 170.973,1791.49C177.047,1791.72 176.924,1797.58 176.908,1797.7C176.871,1797.97 176.183,1802.28 171.436,1802.46C170.614,1802.49 164.684,1802.43 162.402,1802.43C154.398,1802.43 151.157,1799.97 144.788,1795.74C133.534,1788.26 122.95,1777.92 112.395,1768C102.489,1758.69 92.638,1749.75 82.095,1744.44C79.33,1743.04 78.253,1739.74 79.692,1737.06C81.132,1734.38 84.545,1733.34 87.311,1734.74C98.74,1740.5 109.524,1750.06 120.262,1760.15C130.351,1769.63 140.42,1779.57 151.178,1786.72C155.304,1789.46 157.216,1791.49 162.402,1791.49C164.059,1791.49 168.192,1791.51 170.057,1791.52Z"/>
    </g>
    <g transform="matrix(1.06224,0,0,1.0971,563.377,-70.8658)">
        <path d="M107.001,1739.89C108.025,1739.24 113.289,1735.83 117.941,1732.08C138.154,1715.8 175.044,1681.03 196.425,1658.44C201.82,1652.74 206.214,1647.83 209.059,1644.22C210.45,1642.46 211.468,1641.2 211.736,1640.4C213.494,1635.12 211.949,1631.77 209.824,1628.57C207.738,1625.42 205.243,1622.36 203.389,1618.65C200.611,1613.09 202.982,1610.18 204.439,1609.01C205.858,1607.87 208.188,1607.11 211.019,1607.84C213.495,1608.48 216.776,1610.58 218.01,1611.89C220.441,1614.47 219.853,1617.15 219.26,1618.41C218.96,1619.05 218.511,1619.8 217.777,1620.43C218.312,1621.17 218.837,1621.91 219.331,1622.66C223.115,1628.37 225.616,1634.37 222.486,1643.76C221.765,1645.92 218.474,1650.63 213.062,1656.78C194.166,1678.21 148.611,1721.61 125.165,1740.49C118.712,1745.69 113.698,1749.09 111.127,1750.12C109.135,1750.91 107.543,1750.89 106.506,1750.68C103.453,1750.07 101.486,1747.17 102.117,1744.22C102.623,1741.85 104.645,1740.15 107.001,1739.89ZM213.012,1610.83L213.004,1610.84L213.012,1610.83ZM213.295,1610.8L213.197,1610.81L213.32,1610.8L213.295,1610.8ZM213.597,1610.79L213.457,1610.79L213.614,1610.79L213.597,1610.79Z"/>
    </g>
    <g transform="matrix(1.06224,0,0,1.0971,563.377,-70.8658)">
        <path d="M308.962,1710.17C304.826,1708.3 298.212,1705.82 295.171,1704.31C289.198,1701.33 284.39,1696.97 279.742,1692.38C275.772,1688.46 271.929,1684.36 267.211,1681.22C262.385,1678.01 257.542,1672.61 252.761,1666.14C246.256,1657.33 239.728,1646.49 232.961,1637.48C229.49,1632.85 225.98,1628.72 222.34,1625.75C219.493,1623.43 216.662,1621.79 213.63,1621.72C210.514,1621.64 208.047,1619.13 208.126,1616.12C208.204,1613.1 210.798,1610.71 213.914,1610.79C218.322,1610.89 222.65,1612.48 226.837,1615.31C232.066,1618.85 237.17,1624.48 242.099,1631.04C248.882,1640.08 255.429,1650.95 261.949,1659.77C265.851,1665.05 269.668,1669.59 273.607,1672.2C278.928,1675.74 283.329,1680.3 287.808,1684.72C291.61,1688.48 295.456,1692.14 300.343,1694.58C303.884,1696.35 312.154,1699.41 316.029,1701.37C317.892,1702.31 319.112,1703.28 319.644,1703.88C320.76,1705.14 321.072,1706.41 321.127,1707.4C321.209,1708.87 320.767,1710.22 319.706,1711.4C319.094,1712.09 317.522,1713.55 314.083,1713.5C311.777,1713.47 309.81,1712.11 308.962,1710.17Z"/>
    </g>
    <g transform="matrix(1.06224,0,0,1.0971,563.377,-70.8658)">
        <path d="M303.703,1699.3C303.486,1697.73 303.178,1695.15 303.301,1694.03C303.503,1692.18 304.279,1690.83 305.213,1689.89C306.277,1688.83 311.435,1680.91 312.517,1677.68C318.075,1661.07 326.764,1644.35 334.08,1627.14C341.058,1610.73 346.795,1593.86 346.795,1576.11L346.795,1553.16C346.795,1551.42 347.651,1549.79 349.101,1548.76C350.55,1547.73 352.42,1547.42 354.135,1547.95C354.135,1547.95 360.762,1549.98 365.725,1553.14C368.528,1554.92 370.784,1557.12 371.917,1559.37C386.223,1587.76 426.853,1617.04 455.84,1631.48C460.564,1633.83 487.571,1637.6 493.525,1639.06C496.213,1639.71 497.473,1641.01 497.78,1641.39C498.671,1642.49 498.958,1643.62 498.991,1644.62C499.035,1645.96 498.648,1647.28 497.526,1648.49C497.199,1648.84 495.644,1650.43 491.946,1650.4C490.596,1650.39 489.36,1649.93 488.395,1649.15C479.19,1647.3 455.231,1643.48 450.673,1641.2C419.849,1625.85 376.977,1594.36 361.764,1564.17C361.192,1563.03 359.601,1562.25 358.092,1561.44L358.092,1576.11C358.092,1595.29 352.068,1613.57 344.527,1631.31C337.324,1648.25 328.736,1664.7 323.264,1681.05C322.077,1684.6 317.213,1692.29 314.652,1695.83C314.796,1696.75 315.032,1698.35 315.12,1699.28C315.266,1700.82 315.131,1702.17 314.818,1703.16C313.869,1706.15 311.816,1707.82 308.344,1707.77C305.227,1707.73 302.732,1705.24 302.775,1702.22C302.791,1701.14 303.13,1700.14 303.703,1699.3Z"/>
    </g>
    <g transform="matrix(1.06224,0,0,1.0971,563.377,-70.8658)">
        <path d="M494.982,1638.57C495.304,1635.83 497.721,1633.71 500.634,1633.73C503.637,1633.75 505.139,1635.25 505.993,1636.74C506.69,1637.97 507.312,1640.15 505.85,1642.82C504.26,1645.72 496.029,1653.22 494.621,1654.57C484.156,1664.61 475.867,1680.2 466.167,1691.47C449.451,1710.9 417.704,1745.83 395.034,1780.62C384.812,1796.31 376.369,1811.91 372.276,1825.95C375.024,1826.3 377.154,1828.57 377.172,1831.33C377.188,1833.73 375.61,1835.77 373.401,1836.53C372.969,1837.3 371.942,1839.16 371.473,1840.36C370.509,1842.83 369.765,1845.1 369.361,1845.88C367.415,1849.62 363.993,1849.27 362.791,1849C362.028,1848.82 358.332,1847.83 358.313,1842.87C358.237,1823.53 369.607,1799.14 385.48,1774.78C408.44,1739.55 440.558,1704.14 457.488,1684.47C467.406,1672.94 475.967,1657.07 486.667,1646.8C487.558,1645.94 492.852,1640.69 494.982,1638.57ZM498.435,1644.25C498.929,1644.47 499.509,1644.62 500.194,1644.65C499.575,1644.61 498.983,1644.47 498.435,1644.25Z"/>
    </g>
    <g transform="matrix(1.06224,0,0,1.0971,563.377,-70.8658)">
        <path d="M352.525,1759.44C353.556,1757.99 355.292,1757.04 357.247,1757.06C360.067,1757.09 361.564,1757.55 362.102,1757.79C364.461,1758.85 365.134,1760.55 365.384,1761.84C365.637,1763.14 365.748,1766.27 361.963,1768.06C360.135,1768.92 351.398,1770.66 346.411,1773.14C320.92,1785.84 295.908,1796.4 272.298,1812.87C231.417,1841.39 206.086,1876.05 172.234,1909.77C171.171,1910.82 170.223,1912.6 169.191,1914.39C167.72,1916.95 166.198,1919.58 164.614,1921.46C162.064,1924.48 159.051,1925.88 156.143,1925.75C153.029,1925.61 150.62,1923.04 150.766,1920.03C150.893,1917.4 152.916,1915.29 155.493,1914.89C155.932,1914.34 157.051,1912.93 157.696,1911.86C159.834,1908.33 161.972,1904.29 164.133,1902.14C198.457,1867.95 224.244,1832.91 265.695,1804C289.774,1787.2 315.246,1776.36 341.244,1763.42C344.17,1761.96 348.984,1760.45 352.525,1759.44Z"/>
    </g>
    <g transform="matrix(1.06224,0,0,1.0971,563.377,-70.8658)">
        <path d="M272.08,1838.61C276.843,1834.27 281.739,1833.24 286.051,1833.98C289.821,1834.62 293.478,1836.76 296.645,1840.13C300.502,1844.25 303.714,1850.3 305.639,1856.84C307.889,1864.47 308.358,1872.72 306.506,1879.11C304.991,1884.34 301.975,1888.45 297.505,1890.78C293.057,1893.1 286.882,1893.78 278.648,1891.05C268.575,1887.7 263.154,1880.76 260.335,1872.33C257.876,1864.98 257.533,1856.41 257.533,1848.59C257.533,1841.04 260.466,1838.33 262.386,1837.26C265.866,1835.34 269.848,1836.78 271.64,1838.22C271.797,1838.35 271.944,1838.48 272.08,1838.61ZM268.883,1853.59C269.018,1858.83 269.489,1864.19 271.083,1868.96C272.832,1874.19 276.06,1878.63 282.313,1880.7C286.611,1882.13 289.826,1882.36 292.148,1881.15C294.618,1879.86 295.63,1877.08 296.108,1873.94C296.766,1869.63 296.173,1864.58 294.776,1859.84C293.578,1855.77 291.781,1851.92 289.539,1848.98C287.906,1846.84 286.162,1845.1 284.082,1844.75C282.871,1844.54 281.663,1845.06 280.375,1846.09C278.893,1847.27 277.445,1849.03 275.979,1851.39C274.501,1853.78 271.443,1854.67 268.883,1853.59ZM262.621,1842.75L262.621,1842.76L262.621,1842.75ZM262.638,1842.36C262.633,1842.43 262.629,1842.49 262.625,1842.56L262.621,1842.74L262.633,1842.47L262.659,1842.2L262.638,1842.36ZM262.686,1841.99L262.663,1842.17L262.699,1841.93L262.686,1841.99ZM268.03,1837.38C266.439,1837.42 265.345,1838 264.565,1838.71C265.502,1837.92 266.71,1837.43 268.03,1837.38Z"/>
    </g>
    <g transform="matrix(1.06224,0,0,1.0971,563.377,-70.8658)">
        <path d="M371.544,1786.85C371.993,1793.89 373.559,1800.41 376.525,1805.88C377.974,1808.55 376.91,1811.86 374.15,1813.27C371.39,1814.67 367.972,1813.64 366.523,1810.97C360.623,1800.09 359.011,1785.76 360.843,1770.86C363.504,1749.19 373.374,1726.34 386.477,1711.78C396.058,1701.13 407.448,1694.9 418.995,1695.45C426.882,1695.83 435.026,1699.28 442.86,1707.11C448.69,1712.93 451.064,1721.07 450.429,1730.25C449.588,1742.41 443.362,1756.57 434.278,1768.48C425.083,1780.53 412.985,1790.18 401.035,1793.56C392.095,1796.09 383.179,1795.3 375.189,1790C373.852,1789.11 372.636,1788.06 371.544,1786.85ZM381.385,1750.6C381.016,1750.34 380.661,1750.2 380.281,1750.22C379.886,1750.24 379.676,1750.64 379.38,1750.98C378.758,1751.7 378.236,1752.63 377.776,1753.67C375.569,1758.68 374.968,1766.12 376.513,1772.41C377.385,1775.96 378.879,1779.19 381.573,1780.98C387.993,1785.24 395.364,1784.59 402.504,1781.34C410.797,1777.57 418.772,1770.39 425.192,1761.98C432.925,1751.84 438.441,1739.87 439.158,1729.52C439.561,1723.69 438.447,1718.42 434.747,1714.72C429.341,1709.32 423.882,1706.64 418.439,1706.38C409.989,1705.97 402.007,1711.17 394.995,1718.96C389.92,1724.61 385.407,1731.64 381.726,1739.37C384.582,1739.72 387.77,1741.15 391.028,1744.38C396.039,1749.36 395.708,1752.95 395.146,1754.59C394.512,1756.44 393.158,1757.86 391.151,1758.67C389.559,1759.32 387.143,1759.41 385.807,1759.4C382.69,1759.37 380.185,1756.89 380.217,1753.87C380.23,1752.64 380.663,1751.51 381.385,1750.6Z"/>
    </g>
    <g transform="matrix(1.06224,0,0,1.0971,563.377,-70.8658)">
        <path d="M384.449,1624.03C383.379,1625.81 383.213,1628.19 383.075,1630.72C382.826,1635.29 383.184,1640.35 382.898,1645.03C382.393,1653.31 379.806,1660.41 372.319,1664.15C366.693,1666.96 359.234,1665.83 351.478,1662.67C346.066,1660.46 340.428,1657.38 335.362,1655.26C332.785,1654.18 330.438,1653.3 328.429,1653.27C325.311,1653.23 322.813,1650.75 322.853,1647.73C322.892,1644.72 325.455,1642.3 328.573,1642.34C334.639,1642.41 343.182,1646.78 351.591,1650.7C354.997,1652.29 358.388,1653.75 361.55,1654.48C363.622,1654.96 365.544,1655.22 367.143,1654.43C369.702,1653.15 370.65,1650.81 371.166,1648.19C371.671,1645.63 371.731,1642.8 371.728,1639.95C371.722,1634.77 371.529,1629.51 372.378,1625.08C373.125,1621.19 374.649,1617.85 377.206,1615.31C379.494,1613.04 382.995,1612.22 387.107,1613.3C391.521,1614.46 398.78,1619.26 399.752,1619.91C401.65,1620.78 402.971,1622.65 402.986,1624.82C403.007,1627.84 400.494,1630.31 397.376,1630.33C396.873,1630.33 395.834,1630.3 394.514,1629.62C393.729,1629.22 390.853,1627.12 387.669,1625.39C386.745,1624.89 385.331,1624.35 384.449,1624.03Z"/>
    </g>
    <g transform="matrix(1.06224,0,0,1.0971,563.377,-70.8658)">
        <path d="M11.207,1874.17C11.392,1871.37 12.564,1863.36 19.637,1853.96C32.343,1837.09 49.452,1818 56.406,1798.07C57.404,1795.21 60.612,1793.67 63.565,1794.64C66.519,1795.6 68.106,1798.71 67.108,1801.57C59.808,1822.49 42.104,1842.69 28.766,1860.4C21.657,1869.85 22.646,1875.7 22.192,1877.64C21.749,1879.55 20.786,1880.7 19.756,1881.47C18.737,1882.23 17.497,1882.73 15.866,1882.73C12.748,1882.73 10.217,1880.28 10.217,1877.26C10.217,1876.11 10.583,1875.05 11.207,1874.17ZM15.41,1871.81L15.399,1871.81L15.443,1871.81L15.41,1871.81ZM15.612,1871.8L15.866,1871.79C15.78,1871.79 15.695,1871.79 15.612,1871.8Z"/>
    </g>
    <g transform="matrix(1.06224,0,0,1.0971,563.377,-70.8658)">
        <path d="M81.681,1857.45C82.74,1857.47 83.923,1857.83 84.207,1857.95C85.756,1858.65 86.424,1859.66 86.751,1860.22C87.806,1862.02 87.708,1863.72 86.929,1865.29C86.76,1865.63 86.294,1866.79 84.99,1867.59C80.424,1872.5 76.389,1879.8 71.993,1887.38C66.837,1896.27 61.269,1905.54 54.383,1912.57C52.239,1914.76 48.661,1914.86 46.398,1912.78C44.136,1910.7 44.04,1907.24 46.185,1905.05C52.461,1898.64 57.443,1890.13 62.142,1882.03C67.231,1873.25 72.042,1864.91 77.383,1859.45C77.988,1858.62 79.105,1857.65 81.163,1857.48L81.225,1857.47C81.369,1857.46 81.519,1857.45 81.671,1857.45L81.484,1857.46L81.163,1857.48C79.605,1857.64 78.433,1858.39 77.717,1859.11L77.383,1859.45C77.073,1859.86 76.896,1860.24 76.794,1860.45C77.703,1858.71 79.545,1857.51 81.681,1857.45L81.671,1857.45L81.835,1857.45L81.681,1857.45ZM77.177,1866.01C77.51,1866.5 78.054,1867.12 78.983,1867.64C78.264,1867.23 77.647,1866.67 77.177,1866.01ZM76.518,1861.07C76.03,1862.32 75.991,1863.65 76.626,1865.04C76.343,1864.38 76.186,1863.67 76.186,1862.92C76.186,1862.27 76.303,1861.65 76.518,1861.07Z"/>
    </g>
    <g transform="matrix(1.06224,0,0,1.0971,563.377,-70.8658)">
        <path d="M83.135,1886.38C82.376,1885.45 81.923,1884.27 81.923,1883C81.923,1879.98 84.454,1877.53 87.571,1877.53C90.258,1877.53 92.103,1878.64 93.372,1880.39C94.335,1881.71 95.061,1883.88 94.651,1886.85C93.507,1895.13 81.166,1916.87 75.132,1926.08C73.463,1928.63 69.97,1929.39 67.337,1927.77C64.704,1926.15 63.922,1922.77 65.592,1920.22C69.754,1913.87 77.308,1901.1 81.263,1891.89C82.061,1890.03 82.746,1887.77 83.135,1886.38Z"/>
    </g>
    <g transform="matrix(1.06224,0,0,1.0971,563.377,-70.8658)">
        <path d="M172.967,1791.52C173.588,1791.16 178.508,1788.32 182.65,1785.29C207.407,1767.17 259.929,1720.28 269.444,1707.68C271.284,1705.24 274.821,1704.71 277.338,1706.49C279.854,1708.27 280.404,1711.69 278.565,1714.13C268.784,1727.09 214.908,1775.39 189.462,1794.02C184.68,1797.51 180.812,1800.01 178.322,1801.18C176.187,1802.19 174.475,1802.45 173.401,1802.41C170.286,1802.3 167.854,1799.76 167.973,1796.74C168.081,1794.01 170.245,1791.82 172.967,1791.52Z"/>
    </g>
    <g transform="matrix(1.06224,0,0,1.0971,563.377,-70.8658)">
        <path d="M182.028,1713.5C185.013,1713.6 188.388,1716.27 191.966,1719.31C198.886,1725.18 205.692,1733.3 209.558,1737.49C211.634,1739.74 215.207,1739.94 217.533,1737.93C219.859,1735.92 220.062,1732.46 217.987,1730.21C213.186,1725 204.054,1714.18 195.522,1708.02C190.905,1704.68 186.295,1702.7 182.416,1702.57C179.301,1702.47 176.684,1704.83 176.577,1707.85C176.47,1710.86 178.912,1713.4 182.028,1713.5Z"/>
    </g>
    <g transform="matrix(1.06224,0,0,1.0971,563.377,-70.8658)">
        <path d="M371.844,1542.54C372.66,1541.18 376.542,1534.75 377.044,1534.05C378.758,1531.64 380.971,1531.61 381.616,1531.59C383.221,1531.54 384.576,1532.07 385.7,1533.11C386.371,1533.73 387.162,1534.7 387.394,1536.32C387.446,1536.69 387.513,1537.31 387.339,1538.19C387.254,1538.61 386.725,1540.23 385.416,1543.6C384.897,1544.94 383.894,1545.97 382.672,1546.56C381.767,1547.98 380.836,1549.31 380.064,1550.13C378.063,1552.27 375.824,1552.9 374.332,1552.88C371.215,1552.85 368.711,1550.38 368.744,1547.36C368.767,1545.25 370.024,1543.43 371.844,1542.54Z"/>
    </g>
    <g transform="matrix(1.06224,0,0,1.0971,563.377,-70.8658)">
        <path d="M390.426,1554.1C389.42,1553.1 388.806,1551.73 388.821,1550.23C388.852,1547.21 391.408,1544.79 394.525,1544.82C396.206,1544.83 399.446,1545.94 400.948,1550.06C402.092,1553.19 403.029,1559.68 403.185,1563.94C403.284,1566.63 402.925,1568.69 402.584,1569.52C401.43,1572.32 398.142,1573.69 395.246,1572.57C392.565,1571.54 391.155,1568.73 391.877,1566.1C391.836,1565.35 391.376,1557.28 390.426,1554.1ZM394.08,1555.74L394.096,1555.74L394.032,1555.74L394.08,1555.74ZM393.746,1555.71L393.753,1555.71L393.738,1555.71L393.746,1555.71Z"/>
    </g>
    <g transform="matrix(1.06224,0,0,1.0971,563.377,-70.8658)">
        <path d="M437.649,1563.78C438.073,1561.14 440.441,1559.13 443.277,1559.16C446.495,1559.18 447.991,1560.84 448.791,1562.42C449.419,1563.66 449.955,1565.95 448.259,1568.63C446.818,1570.91 441.507,1575.7 437.961,1578.47C436.008,1579.99 434.412,1580.95 433.938,1581.14C431.062,1582.31 427.75,1581 426.546,1578.21C425.41,1575.58 426.554,1572.58 429.102,1571.27L429.088,1571.28L437.649,1563.78ZM440.947,1569.63C441.544,1569.91 442.277,1570.09 443.181,1570.09C442.386,1570.09 441.63,1569.92 440.947,1569.63Z"/>
    </g>
</svg>
