<?xml version="1.0" encoding="UTF-8" standalone="no"?>
<!DOCTYPE svg PUBLIC "-//W3C//DTD SVG 1.1//EN" "http://www.w3.org/Graphics/SVG/1.1/DTD/svg11.dtd">
<svg width="100%" height="100%" viewBox="0 0 3508 2481" version="1.1" xmlns="http://www.w3.org/2000/svg" xmlns:xlink="http://www.w3.org/1999/xlink" xml:space="preserve" xmlns:serif="http://www.serif.com/" style="fill-rule:evenodd;clip-rule:evenodd;stroke-linejoin:round;stroke-miterlimit:2;">
    <g transform="matrix(1.53779,0,0,1.69581,-948.909,-274.659)">
        <path d="M1325.92,590.837C1323.63,589.564 1319.28,587.676 1315.15,586.244C1312.23,585.228 1309.44,584.391 1307.7,584.391C1300.81,584.391 1294.59,588.199 1288.87,593.347C1279.27,601.987 1271.23,614.509 1264.83,623.002C1250.42,642.14 1235.65,669.735 1232.6,695.245C1229.68,719.703 1237.83,742.215 1268.8,752.49C1294.09,760.881 1328.02,755.471 1352.44,746.783C1407.76,727.095 1437.38,687.388 1444.01,651.869C1448.31,628.86 1443.01,607.631 1428.4,595.326C1412.73,582.133 1386.68,579.677 1351.31,595.477C1349.38,596.34 1347.03,595.618 1346.08,593.866C1345.13,592.114 1345.93,589.992 1347.86,589.129C1387.26,571.533 1416.26,575.448 1433.71,590.14C1450,603.86 1456.5,627.395 1451.71,653.051C1444.7,690.53 1413.67,732.596 1355.29,753.37C1329.27,762.63 1293.08,768.079 1266.12,759.136C1231.05,747.503 1221.54,722.172 1224.85,694.484C1228.02,667.848 1243.34,638.994 1258.39,619.012C1265.02,610.209 1273.42,597.279 1283.37,588.324C1290.69,581.742 1298.89,577.314 1307.7,577.314C1310.07,577.314 1313.94,578.247 1317.94,579.635C1323.53,581.573 1329.43,584.316 1331.52,585.723C1333.73,587.207 1333.89,589.013 1333.81,589.676C1333.7,590.601 1333.26,591.408 1332.42,592.059C1331.92,592.445 1331.01,593.001 1329.43,592.972C1327.85,592.944 1326.51,592.07 1325.92,590.837Z"/>
    </g>
    <g transform="matrix(1.53779,0,0,1.69581,-948.909,-274.659)">
        <path d="M1336.26,803.905C1336.41,803.784 1336.78,803.471 1336.97,803.234C1337.51,802.583 1337.99,801.778 1338.42,800.921C1340.32,797.148 1341.32,792.43 1341.32,792.43C1341.69,790.639 1343.52,789.404 1345.52,789.578C1347.52,789.751 1349.05,791.276 1349.05,793.1L1349.05,810.309C1349.05,841.532 1346.81,873.623 1349.05,904.73C1354.79,984.476 1384.06,1054.5 1402.16,1130.78C1402.61,1132.69 1401.27,1134.57 1399.16,1134.99C1397.06,1135.4 1394.98,1134.18 1394.53,1132.27C1376.35,1055.64 1347.03,985.294 1341.26,905.19C1339.03,874.154 1341.21,842.142 1341.24,810.973C1339.99,810.984 1337.36,810.986 1336.49,810.982C1336.12,810.98 1335.91,810.967 1335.89,810.966L1335.72,810.947C1329.73,810.482 1328.03,804.841 1335.23,804.011C1335.48,803.956 1335.76,803.918 1336.09,803.906L1336.26,803.905Z"/>
    </g>
    <g transform="matrix(1.53779,0,0,1.69581,-948.909,-274.659)">
        <path d="M1624.63,670.546C1625.35,669.65 1626.51,669.069 1627.82,669.075C1631.51,669.09 1633.7,669.197 1634.67,669.335C1635.42,669.444 1635.92,669.621 1636.22,669.749C1637.62,670.363 1638.1,671.29 1638.33,671.955C1638.63,672.855 1638.98,675.472 1635.57,676.532C1631.22,677.88 1581.76,681.248 1576.02,681.884C1538.79,686.005 1485.96,693.751 1455.65,693.36C1453.5,693.332 1451.77,691.724 1451.81,689.772C1451.84,687.819 1453.61,686.256 1455.76,686.284C1485.81,686.672 1538.17,678.945 1575.07,674.86C1579.25,674.397 1609.59,671.817 1624.63,670.546Z"/>
    </g>
    <g transform="matrix(1.53779,0,0,1.69581,-948.909,-274.659)">
        <path d="M1607,656.882C1605.01,650.069 1603.25,642.576 1603.27,638.204C1603.28,634.744 1606.41,634.344 1606.86,634.306C1607.5,634.252 1609.93,634.215 1610.97,636.721C1611.13,637.115 1611.43,638.232 1611.85,639.429C1611.99,639.84 1612.26,640.441 1612.43,640.813C1613.6,641.382 1614.42,642.477 1614.49,643.765C1614.56,645.159 1613.73,646.404 1612.47,647.033L1612.56,647.447L1612.82,648.493C1613.11,648.454 1613.41,648.446 1613.7,648.463C1614.45,648.507 1615.28,648.727 1616.08,649.34C1616.52,649.679 1617.35,650.591 1617.87,652.271C1618.71,655 1619.71,661.742 1619.71,669.767C1619.71,672.46 1617.65,673.173 1616.88,673.384C1616.06,673.613 1613.84,673.983 1612.27,671.738C1611.66,670.857 1610.01,666.538 1608.3,661.132C1607.31,660.482 1606.67,659.423 1606.69,658.234C1606.69,657.754 1606.81,657.298 1607,656.882Z"/>
    </g>
    <g transform="matrix(1.53779,0,0,1.69581,-948.909,-274.659)">
        <path d="M1652.82,638.79C1651.03,638.454 1649.69,637.009 1649.71,635.291C1649.73,633.339 1651.5,631.769 1653.65,631.788C1658.71,631.833 1660.75,633.525 1661.58,635.023C1662.26,636.24 1662.4,637.81 1661.79,639.687L1661.71,639.922C1663.43,642.011 1665.47,645.351 1666.45,647.973C1667.11,649.728 1667.28,651.283 1667.08,652.311C1666.87,653.448 1666.3,654.301 1665.57,654.918C1664.75,655.606 1663.66,656.086 1662.18,656.073C1661.41,656.066 1660.7,655.858 1660.1,655.504C1659.49,656.294 1658.7,656.689 1657.95,656.89C1657.19,657.093 1656.36,657.113 1655.47,656.823C1654.95,656.657 1653.6,656.082 1652.57,654.019C1650.7,650.287 1650.94,646.788 1651.87,643.711C1651.98,643.334 1652.12,642.934 1652.26,642.526C1652.23,641.97 1652.22,641.475 1652.22,641.072C1652.23,640.084 1652.48,639.345 1652.82,638.79Z"/>
    </g>
    <g transform="matrix(1.53779,0,0,1.69581,-948.909,-274.659)">
        <path d="M1709.81,618.625C1708.21,618.173 1707.06,616.813 1707.08,615.217C1707.1,613.264 1708.86,611.693 1711.01,611.711C1712.56,611.723 1713.47,611.71 1713.99,611.802C1715.28,612.029 1716.07,612.57 1716.67,613.253C1717.13,613.778 1717.52,614.471 1717.63,615.518C1717.68,615.996 1717.61,616.799 1717.61,618.139C1717.61,626.125 1719.4,638.466 1720.97,647.776C1721.84,647.727 1722.76,647.89 1723.71,648.319C1725.22,648.998 1727.23,650.863 1728.78,653.965C1730.02,656.435 1732.46,662.084 1731.93,666.157C1731.67,668.222 1730.76,669.982 1729.17,671.264C1727.7,672.446 1725.57,673.308 1722.41,673.283C1720.26,673.265 1718.53,671.666 1718.55,669.713C1718.57,667.76 1720.33,666.189 1722.48,666.207C1723.15,666.212 1723.66,666.225 1723.98,665.978C1724.11,665.876 1724.12,665.708 1724.15,665.548C1724.23,665.174 1724.23,664.766 1724.2,664.343C1724.12,663.287 1723.83,662.164 1723.47,661.105L1723.37,660.816L1723.37,661.162C1723.37,662.993 1721.83,664.521 1719.82,664.686C1717.81,664.851 1716,663.599 1715.63,661.799C1715.63,661.799 1709.93,633.45 1709.81,618.625Z"/>
    </g>
    <g transform="matrix(1.53779,0,0,1.69581,-948.909,-274.659)">
        <path d="M1739.36,660.481C1739.47,660.473 1739.58,660.469 1739.69,660.47C1739.76,660.471 1739.84,660.486 1739.92,660.514C1742.34,660.757 1742.79,662.254 1742.42,663.805C1742.98,665.507 1742.64,667.276 1739.78,667.526C1739.72,667.54 1739.67,667.546 1739.62,667.546L1739.53,667.543C1739.42,667.55 1739.3,667.554 1739.18,667.556C1735.16,667.613 1710.17,667.991 1688.31,670.411C1654.12,674.197 1619.04,682.23 1584.73,681.887C1582.58,681.866 1580.85,680.263 1580.87,678.31C1580.9,676.358 1582.66,674.79 1584.82,674.811C1618.78,675.151 1653.51,667.135 1687.37,663.387C1709.58,660.927 1734.97,660.539 1739.06,660.48C1739.16,660.479 1739.27,660.479 1739.36,660.481Z"/>
    </g>
    <g transform="matrix(1.53779,0,0,1.69581,-948.909,-274.659)">
        <path d="M1770.28,669.898L1766.3,671.596C1763.9,672.622 1761.53,673.304 1759.69,673.282C1757.53,673.258 1755.81,671.652 1755.84,669.7C1755.86,667.747 1757.63,666.182 1759.79,666.207C1761.03,666.221 1762.61,665.376 1764.23,664.637C1766.81,663.46 1769.38,662.257 1771.17,661.908C1773.1,661.532 1774.66,661.877 1775.77,662.555C1776.98,663.296 1778.08,664.562 1778.09,666.897C1778.21,696.233 1773.98,736.206 1757.31,764.981C1745.78,784.891 1728.37,799.51 1702.72,802.348C1630.06,810.391 1590.79,754.376 1567.1,719.689C1561.3,711.199 1556.49,704.067 1552.3,699.718C1551.13,698.495 1550.03,697.516 1548.97,696.856C1548.42,696.514 1547.94,696.233 1547.44,696.228C1545.29,696.205 1543.56,694.601 1543.59,692.648C1543.61,690.696 1545.38,689.129 1547.54,689.152C1550.07,689.179 1552.9,690.335 1555.83,692.832C1560.73,697.015 1566.58,705.481 1573.74,715.963C1596.22,748.885 1632.81,802.957 1701.78,795.324C1724.71,792.786 1740.09,779.493 1750.4,761.69C1765.94,734.859 1770.11,697.918 1770.28,669.898Z"/>
    </g>
    <g transform="matrix(1.53779,0,0,1.69581,-948.909,-274.659)">
        <path d="M1879.3,646.226C1879.6,646.159 1879.92,646.126 1880.24,646.129C1883.06,646.157 1883.76,648.117 1883.87,648.369C1884.22,649.162 1884.26,649.982 1883.93,650.83C1883.75,651.3 1883.33,652.376 1881.67,652.967C1881.58,652.999 1881.05,653.164 1880.1,653.265C1875.61,653.749 1847.41,656.107 1837.55,656.107C1804.88,656.107 1772.11,667.801 1739.62,667.546C1737.47,667.529 1735.74,665.93 1735.76,663.978C1735.78,662.025 1737.54,660.453 1739.69,660.47C1772.15,660.725 1804.9,649.031 1837.55,649.031C1847.2,649.031 1874.79,646.711 1879.18,646.238L1879.3,646.226ZM1876.92,651.584C1877.34,652.245 1878.25,653.186 1880.16,653.205C1878.8,653.192 1877.61,652.548 1876.92,651.584Z"/>
    </g>
    <g transform="matrix(1.53779,0,0,1.69581,-948.909,-274.659)">
        <path d="M1958.64,694.854C1958.57,694.38 1958.43,693.552 1958.19,692.937C1958.04,692.557 1957.86,692.163 1957.66,691.756C1957.12,690.654 1956.42,689.469 1955.59,688.23C1949.1,678.509 1935.15,665.509 1927.14,662.846C1900.3,653.922 1875.49,658.031 1851.17,656.059C1849.03,655.885 1847.44,654.165 1847.63,652.22C1847.83,650.275 1849.72,648.837 1851.87,649.011C1876.83,651.035 1902.27,647.042 1929.82,656.202C1934.15,657.641 1940.08,661.571 1945.87,666.583C1954.29,673.876 1962.47,683.41 1965.28,689.937C1967.1,694.156 1966.65,697.553 1964.83,699.527C1963.47,701.003 1961.17,702.111 1957.47,701.961C1955.32,701.874 1953.65,700.219 1953.75,698.269C1953.84,696.318 1955.67,694.805 1957.82,694.892C1958.08,694.902 1958.39,694.88 1958.64,694.854Z"/>
    </g>
    <g transform="matrix(1.53779,0,0,1.69581,-948.909,-274.659)">
        <path d="M1984.03,543.057C1982.04,543.84 1979.88,544.296 1977.56,544.21C1975.41,544.131 1973.73,542.482 1973.82,540.531C1973.91,538.58 1975.73,537.06 1977.88,537.14C1980.16,537.224 1982.1,536.168 1983.74,535.004C1985.93,533.442 1987.65,531.573 1988.83,530.509C1990.51,529.004 1992.14,528.566 1993.03,528.566C1995.33,528.566 1996.7,529.374 1997.55,530.273C1998.67,531.469 1999.25,533.444 1998.18,535.989C1996.61,539.772 1989.99,546.708 1987.95,550.777C1982.36,561.926 1977.47,569.365 1970.47,579.831C1958.98,597.001 1927.71,628.351 1899.74,644.878C1887.09,652.354 1875,656.737 1865.55,656.062C1863.41,655.909 1861.8,654.204 1861.97,652.257C1862.14,650.311 1864.02,648.855 1866.17,649.008C1874.31,649.59 1884.57,645.397 1895.48,638.95C1922.49,622.991 1952.7,592.739 1963.8,576.16C1970.62,565.959 1975.4,558.716 1980.85,547.85C1981.53,546.493 1982.7,544.824 1984.03,543.057Z"/>
    </g>
    <g transform="matrix(1.53779,0,0,1.69581,-948.909,-274.659)">
        <path d="M1971.52,545.382C1971.13,544.806 1970.92,544.122 1970.95,543.397C1971.04,541.446 1972.86,539.928 1975.01,540.008C1976.49,540.064 1977.54,540.604 1978.31,541.363C1978.94,541.975 1979.42,542.8 1979.58,543.869C1979.72,544.813 1979.54,546.197 1979.02,547.702C1978.29,549.817 1976.87,552.383 1976.59,553.213C1965.43,586.444 1950.1,620.757 1945.07,655.893C1943.31,668.142 1939.34,683.526 1939.34,695.592C1939.34,698.236 1940.28,702.545 1941,705.344C1941.16,705.614 1941.28,705.909 1941.36,706.223C1941.86,708.137 1941.94,709.048 1941.94,709.179C1941.85,711.372 1940.23,712.056 1939.62,712.299C1938.53,712.742 1937.13,712.911 1935.64,711.861C1935.53,711.784 1934.62,711.18 1934.15,709.677C1933.57,707.839 1931.54,699.848 1931.54,695.592C1931.54,683.251 1935.53,667.508 1937.33,654.981C1942.42,619.458 1957.84,584.748 1969.12,551.151C1969.38,550.399 1970.87,546.898 1971.52,545.382Z"/>
    </g>
    <g transform="matrix(1.53779,0,0,1.69581,-948.909,-274.659)">
        <path d="M2077.79,613.205C2078.52,612.272 2079.73,611.677 2081.09,611.712C2082.38,611.745 2083.2,612.248 2083.75,612.733C2084.59,613.484 2085.15,614.505 2084.87,615.918C2084.79,616.303 2084.61,616.923 2084.01,617.607C2083.97,617.646 2083.93,617.691 2083.88,617.74C2086.71,618.022 2089.7,618.563 2092.13,619.567C2094.97,620.744 2097.12,622.529 2098.17,624.923C2099.16,627.184 2099.26,630.141 2097.36,633.952C2094.44,639.788 2085.99,645.329 2077.83,646.948C2071.69,648.164 2065.84,647.17 2062.14,643.478C2058,639.355 2058.54,633.797 2061.6,628.491C2065.39,621.925 2072.89,615.92 2074.64,615.051C2075.89,614.427 2077.21,613.584 2077.79,613.205ZM2075.43,623.557C2073.2,625.568 2070.34,628.615 2068.51,631.775C2067.09,634.238 2065.99,636.8 2067.91,638.714C2069.83,640.63 2072.98,640.666 2076.16,640.035C2081.97,638.883 2088.18,635.183 2090.25,631.03C2090.98,629.579 2091.29,628.479 2090.95,627.597C2090.44,626.296 2088.76,625.845 2087.06,625.416C2084.04,624.652 2080.53,624.543 2078.07,624.523C2077.05,624.515 2076.12,624.149 2075.43,623.557Z"/>
    </g>
    <g transform="matrix(1.53779,0,0,1.69581,-948.909,-274.659)">
        <path d="M2112.66,538.6C2111.78,523.176 2112.07,505.501 2113.83,491.196C2114.75,483.68 2116.08,477.076 2117.83,472.152C2119.16,468.394 2120.8,465.534 2122.59,463.754C2122.61,463.734 2125.41,461.869 2127.54,460.777C2128.91,460.071 2130.16,459.713 2130.69,459.665C2132.14,459.533 2133.12,460.033 2133.74,460.515C2134.56,461.151 2135.13,462.021 2135.14,463.255C2135.23,485.768 2128.64,512.874 2120.5,539.254C2121.06,548.354 2122.04,556.58 2123.39,562.683C2123.93,565.172 2124.54,567.285 2125.21,568.92C2125.26,569.056 2125.33,569.193 2125.39,569.33C2125.66,568.907 2125.93,568.437 2126.15,567.967C2126.99,566.172 2129.29,565.336 2131.27,566.104C2133.25,566.871 2134.17,568.951 2133.32,570.747C2131.98,573.604 2130.58,575.391 2129.36,576.358C2127.67,577.692 2125.97,578.011 2124.4,577.796C2122.55,577.54 2120.39,576.241 2118.81,573.324C2117.13,570.234 2115.65,564.721 2114.56,557.707C2109.64,572.497 2104.6,586.631 2100.43,599.1L2091.84,624.755C2091.85,625.09 2091.91,627.731 2092.03,629.681C2092.22,632.758 2092.25,636.04 2091.7,637.873C2090.84,640.717 2088.76,641.785 2086.6,641.731C2084.45,641.677 2082.75,640.048 2082.81,638.096C2082.84,637.054 2083.37,636.13 2084.18,635.502C2084.21,634.187 2084.27,630.63 2084.14,628.515C2083.98,625.936 2084.03,623.739 2084.32,622.859C2086.88,615.223 2090.07,605.687 2092.96,597.046C2098.71,579.861 2106.16,559.475 2112.66,538.6ZM2127.17,470.02C2124.88,473.541 2123.36,479.904 2122.18,487.669C2121.05,495.015 2120.38,503.567 2120.11,512.371C2123.82,497.6 2126.49,483.16 2127.17,470.02Z"/>
    </g>
    <g transform="matrix(1.53779,0,0,1.69581,-948.909,-274.659)">
        <path d="M2235.34,519.959C2235.57,519.596 2236.11,518.706 2236.35,518.112C2236.97,516.579 2237.47,514.996 2238.01,513.966C2239.11,511.84 2240.85,511.012 2242.27,510.899C2243.43,510.807 2244.94,511.027 2246.43,512.523C2247.28,513.382 2247.9,514.757 2247.65,516.58C2247.33,518.957 2244.8,523.268 2244.38,524.527C2240.5,536.106 2221.21,604.932 2213.1,642.739C2213.7,644.096 2214.12,645.56 2214.39,647.093C2215.64,654.217 2213.45,662.776 2211.5,666.642C2210.79,668.038 2210.01,668.98 2209.41,669.465C2208.42,670.275 2207.4,670.529 2206.56,670.562C2205.35,670.609 2204.2,670.263 2203.23,669.292C2202.68,668.749 2202.05,667.763 2201.84,666.201C2201.52,663.818 2202.11,658.44 2203.48,651.071C2203.9,648.82 2204.39,646.37 2204.94,643.759C2204.21,642.78 2203.21,642 2201.86,641.55C2198.19,640.334 2193.19,640.49 2188.51,641.44C2183.93,642.37 2179.61,644.047 2177.32,646.341C2176.85,646.812 2176.43,647.401 2176.19,647.784C2176.74,648.016 2177.72,648.398 2178.46,648.549C2179.45,648.751 2180.5,648.884 2181.51,648.972C2183.25,649.123 2185.24,649.111 2186.2,649.093C2186.51,649.025 2186.84,648.991 2187.18,648.998C2190.77,649.068 2191.23,651.876 2191.26,652.091C2191.32,652.469 2191.42,655.644 2187.81,656.093C2186.59,656.244 2177.47,656.391 2172.71,654.193C2170.04,652.962 2168.45,651.085 2168.18,648.796C2167.97,646.971 2168.62,644.503 2171.54,641.588C2174.7,638.425 2180.5,635.817 2186.81,634.535C2193.02,633.272 2199.67,633.288 2204.54,634.905C2205.3,635.157 2206.01,635.454 2206.67,635.795C2214.59,600.592 2229.9,545.393 2235.49,526.987C2233.48,526.817 2231.92,525.261 2231.96,523.398C2232,521.627 2233.46,520.184 2235.34,519.959Z"/>
    </g>
    <g transform="matrix(1.53779,0,0,1.69581,-948.909,-274.659)">
        <path d="M2329.54,488.417C2329.89,488.254 2331.21,487.648 2332.11,487.192C2333.78,486.347 2335.6,485.508 2337.22,485.119C2340.08,484.434 2342.56,484.938 2344.32,486.704C2345.88,488.263 2346.29,490.783 2344.94,493.673C2343.65,496.444 2339.68,501.362 2339.34,501.788C2327.83,536 2312.31,570.672 2304.95,607.311C2301.2,625.997 2299.26,642.161 2299.26,661.174C2299.26,667.062 2301.56,672.141 2302.36,673.734C2303.09,674.745 2303.32,675.362 2303.36,675.511C2303.71,676.676 2303.37,677.459 2303.18,677.855C2302.58,679.133 2301.52,679.778 2300.17,679.96C2299.55,680.044 2298.57,680.083 2297.45,679.416C2297.3,679.33 2296.47,678.769 2295.64,677.434C2294.36,675.354 2291.46,669.544 2291.46,661.174C2291.46,641.714 2293.43,625.169 2297.27,606.044C2304.7,569.059 2320.34,534.053 2331.94,499.523C2332.27,498.561 2334.47,495.879 2336.38,493.175L2336.42,493.115C2335.08,493.772 2333.8,494.464 2332.78,494.867C2331.67,495.307 2330.68,495.487 2329.93,495.487C2324.14,495.487 2317.98,499.304 2311.78,503.34C2304.54,508.053 2297.34,513.229 2290.96,515.349C2265.39,523.839 2247.07,518.445 2244.39,518.399C2242.24,518.362 2240.52,516.746 2240.56,514.794C2240.6,512.842 2242.39,511.287 2244.54,511.324C2247.05,511.367 2264.27,516.675 2288.27,508.704C2295.38,506.345 2303.45,499.742 2311.51,494.897C2317.64,491.219 2323.81,488.533 2329.54,488.417Z"/>
    </g>
    <g transform="matrix(1.53779,0,0,1.69581,-948.909,-274.659)">
        <path d="M2286.68,657.075C2287.23,655.688 2288.71,654.707 2290.42,654.734C2291.72,654.755 2292.49,654.773 2292.82,654.815C2293.73,654.931 2294.29,655.229 2294.6,655.422C2295.98,656.271 2296.36,657.379 2296.33,658.462C2296.31,659.147 2296.12,660.066 2295.14,660.94C2294.94,661.12 2294.43,661.502 2293.5,661.89C2292.12,662.463 2288.19,664.018 2283.61,668.201C2284.31,668.724 2284.78,669.294 2285.08,669.835C2286.16,671.779 2285.78,674.546 2283.47,677.238C2280.76,680.401 2275.36,683.799 2272.48,684.885C2270.01,685.815 2268.11,685.284 2267.33,684.827C2266.59,684.39 2266.06,683.798 2265.73,683.051C2265.42,682.343 2265.17,681.244 2265.89,679.795C2267.87,675.824 2269.98,672.494 2272.11,669.7L2272.11,669.681C2272.14,668.108 2273.3,666.791 2274.88,666.358C2279.36,661.401 2283.67,658.633 2286.68,657.075Z"/>
    </g>
    <g transform="matrix(1.53779,0,0,1.69581,-948.909,-274.659)">
        <path d="M2328.75,520.311C2329.29,520.057 2329.92,519.919 2330.57,519.928C2333.38,519.97 2334.1,521.811 2334.29,522.277C2334.48,522.758 2335.22,525.827 2331.7,526.921C2329.78,527.515 2313.52,530.463 2308.47,532.475C2287.26,540.929 2255.48,553.215 2232.91,552.817C2230.76,552.779 2229.05,551.163 2229.09,549.211C2229.13,547.259 2230.91,545.704 2233.07,545.742C2254.67,546.124 2285.02,534.092 2305.33,525.997C2310.06,524.115 2325.93,520.876 2328.75,520.311ZM2327.58,525.805C2328.08,526.394 2328.94,526.981 2330.45,527.004C2329.3,526.987 2328.28,526.526 2327.58,525.805Z"/>
    </g>
    <g transform="matrix(1.53779,0,0,1.69581,-948.909,-274.659)">
        <path d="M2398.34,646.122C2400.29,645.157 2401.72,644.626 2402.69,644.4C2403.81,644.139 2404.67,644.163 2405.3,644.269C2406.54,644.479 2407.39,645.037 2407.99,645.721C2408.56,646.375 2408.95,647.212 2408.94,648.279C2408.93,648.955 2408.72,649.921 2408.07,651.048C2407.33,652.313 2405.84,654.126 2403.86,656.146C2399.54,660.553 2392.79,666.148 2387.7,669.207C2384.88,670.899 2382.37,671.814 2380.74,671.92C2378.93,672.037 2377.57,671.499 2376.58,670.633C2375.7,669.861 2374.97,668.701 2374.96,666.922C2374.94,660.917 2376.89,656.669 2379.6,653.627C2385.38,647.116 2395.04,646.203 2398.34,646.122ZM2396.01,653.353C2393.01,653.702 2388.59,654.783 2385.67,658.067C2384.53,659.351 2383.66,660.979 2383.18,663.021C2386.23,661.088 2390.96,657.946 2394.03,655.226C2394.68,654.644 2395.35,654.006 2396.01,653.353ZM2395.52,650.363C2395.63,651.004 2395.95,651.815 2396.9,652.445L2396.91,652.431C2396.6,652.203 2396.31,651.926 2396.08,651.605L2396.07,651.589L2396.02,651.517L2395.98,651.457L2395.97,651.446L2395.97,651.434L2395.94,651.385L2395.89,651.308L2395.88,651.287L2395.87,651.274L2395.85,651.231L2395.81,651.154L2395.79,651.128L2395.78,651.112L2395.76,651.069L2395.73,650.996L2395.72,650.967L2395.71,650.947L2395.69,650.901L2395.66,650.835L2395.65,650.804L2395.64,650.781L2395.63,650.73L2395.6,650.67L2395.6,650.64L2395.59,650.613L2395.57,650.557L2395.55,650.501L2395.55,650.473L2395.54,650.443L2395.53,650.381L2395.52,650.363ZM2397.93,646.329C2397.17,646.571 2396.64,647.006 2396.28,647.485C2396.53,647.187 2396.85,646.923 2397.21,646.707L2397.23,646.697L2397.31,646.652L2397.37,646.615L2397.39,646.609L2397.4,646.602L2397.93,646.329Z"/>
    </g>
    <g transform="matrix(1.53779,0,0,1.69581,-948.909,-274.659)">
        <path d="M2445.64,562.845C2446.11,560.888 2446.57,558.978 2447.04,557.13C2447.16,556.632 2448.83,547.022 2449.95,545.099C2451.05,543.223 2452.74,542.907 2453.73,542.907C2458.13,542.907 2460.76,545.921 2460.36,551.043C2459.98,555.823 2456.68,562.814 2452.72,566.61C2445.66,596.223 2437.33,636.186 2416.63,657.728C2415.22,659.2 2412.75,659.354 2411.12,658.071C2409.5,656.789 2409.33,654.552 2410.75,653.079C2429.61,633.443 2437.49,597.872 2444,569.844C2442.43,569.368 2441.31,568.018 2441.34,566.441C2441.37,564.489 2443.14,562.925 2445.29,562.951C2445.41,562.953 2445.53,562.91 2445.64,562.845Z"/>
    </g>
    <g transform="matrix(1.53779,0,0,1.69581,-948.909,-274.659)">
        <path d="M2503.56,534.041C2507.1,529.011 2510.66,524.636 2514.2,521.124C2517.05,518.29 2519.88,520.135 2520.33,520.512C2520.9,521.004 2522,522.148 2521.43,524.124C2521.09,525.327 2516.49,532.238 2514.23,534.497C2513,535.72 2511.34,537.182 2509.47,538.673C2485.69,572.596 2462.65,636.939 2448.69,668.237C2442.82,681.398 2428.01,721.683 2423.76,728.122C2421.13,732.118 2417.45,730.498 2416.41,729.357C2415.04,727.849 2415.28,725.617 2416.95,724.377C2417.05,724.296 2417.16,724.222 2417.28,724.154C2421.71,716.869 2435.78,678.309 2441.45,665.583C2454.03,637.405 2474.04,582.945 2495.29,546.953L2495.11,547C2476.05,551.751 2457.16,558.701 2445.18,558.554C2443.03,558.528 2441.31,556.921 2441.34,554.968C2441.37,553.016 2443.14,551.452 2445.29,551.478C2456.76,551.619 2474.78,544.728 2493.04,540.177C2496.1,539.414 2500.15,536.749 2503.56,534.041ZM2421.28,723.996C2421.66,724.179 2422,724.422 2422.3,724.722C2421.99,724.405 2421.64,724.167 2421.28,723.996Z"/>
    </g>
    <g transform="matrix(1.53779,0,0,1.69581,-948.909,-274.659)">
        <path d="M2400.34,716.99C2400.07,716.897 2399.49,716.704 2399.03,716.627C2397.59,716.386 2395.77,716.319 2393.58,716.306C2391.43,716.292 2389.69,714.696 2389.71,712.743C2389.72,710.791 2391.48,709.216 2393.64,709.23C2397.16,709.252 2399.93,709.461 2401.95,709.986C2404.03,710.53 2405.52,711.428 2406.53,712.579C2407.63,713.819 2408.26,715.408 2408.16,717.525C2408.08,719.49 2407.24,722.168 2405.45,725.74C2404.78,727.077 2402.99,728.906 2400.36,730.683C2395.36,734.053 2387.24,737.675 2381.8,738.516C2377.97,739.109 2375.08,738.227 2373.6,736.702C2372.7,735.767 2372.09,734.535 2372.09,732.891C2372.08,731.869 2372.59,730.433 2373.7,728.949C2374.36,728.082 2375.22,727.12 2376.02,726.195C2375.6,725.62 2375.36,724.929 2375.37,724.188C2375.4,722.235 2377.18,720.674 2379.33,720.703C2381.67,720.734 2382.96,721.513 2383.7,722.22C2384.86,723.34 2385.37,724.858 2384.7,726.754C2384.35,727.754 2383.43,729.082 2382.28,730.422C2382.06,730.674 2381.82,730.971 2381.56,731.278C2382.13,731.178 2382.7,731.053 2383.22,730.899C2387.09,729.75 2391.63,727.603 2394.92,725.513C2396.57,724.467 2397.96,723.589 2398.35,722.808C2399.23,721.055 2399.84,719.607 2400.16,718.405C2400.29,717.913 2400.33,717.27 2400.34,716.99Z"/>
    </g>
    <g transform="matrix(1.53779,0,0,1.69581,-948.909,-274.659)">
        <path d="M1575.73,769.485C1575.89,769.468 1576.05,769.461 1576.21,769.462C1580.52,769.501 1580.16,773.475 1580.14,773.578C1580.08,773.93 1579.7,776.124 1576.86,776.506C1576.78,776.517 1576.35,776.544 1576.02,776.555C1575.83,776.662 1574.95,777.166 1574.37,777.639C1572.98,778.778 1571.45,780.404 1569.85,782.315C1561.76,791.951 1552.19,808.504 1550.55,811.776C1541.83,829.121 1532.21,856.523 1521.55,880.028C1514.23,896.17 1506.35,910.492 1498.04,918.81C1495.6,921.24 1491.34,922.362 1485.46,921.62C1478.83,920.782 1469.65,917.645 1459.13,913.096C1431.65,901.216 1394.46,879.69 1370.13,867.776C1364.06,864.804 1358.81,862.441 1354.76,861.021C1352.54,860.243 1350.78,859.733 1349.52,859.716C1347.37,859.685 1345.65,858.076 1345.68,856.123C1345.71,854.171 1347.49,852.61 1349.64,852.64C1353.87,852.7 1362.64,856.067 1373.84,861.549C1398.08,873.417 1435.11,894.874 1462.49,906.708C1472.12,910.871 1480.47,913.845 1486.54,914.611C1488.17,914.817 1489.59,914.864 1490.77,914.657C1491.38,914.55 1491.91,914.404 1492.25,914.056C1500.11,906.196 1507.41,892.59 1514.33,877.335C1525.03,853.746 1534.7,826.249 1543.45,808.842C1545.17,805.419 1555.18,788.109 1563.64,778.03C1566.47,774.66 1569.2,772.069 1571.42,770.786C1572.99,769.877 1574.47,769.494 1575.73,769.485Z"/>
    </g>
    <g transform="matrix(1.53779,0,0,1.69581,-948.909,-274.659)">
        <path d="M1376.31,1111.64C1375.13,1111.02 1374.34,1109.85 1374.36,1108.53C1374.39,1106.58 1376.17,1105.01 1378.32,1105.04C1380.07,1105.07 1381.26,1105.58 1382.12,1106.22C1383.1,1106.95 1383.75,1107.94 1384.04,1109.19C1384.34,1110.55 1383.87,1112.59 1383.87,1114.34C1383.87,1150.77 1364.87,1188.16 1351.95,1221.63C1340.81,1250.52 1333.45,1282.49 1329.12,1312.7C1328.77,1315.14 1329.26,1318.43 1329.67,1321.69C1330.17,1325.64 1330.57,1329.54 1330.03,1332.29C1329.59,1334.58 1328.52,1336.29 1327,1337.36C1325.81,1338.2 1324.31,1338.73 1322.38,1338.73C1321.43,1338.73 1320.42,1338.47 1319.46,1337.76C1318.8,1337.26 1317.98,1336.31 1317.29,1334.87C1315.26,1330.6 1313.15,1319.62 1311.62,1316.56C1310.72,1314.79 1311.58,1312.68 1313.54,1311.87C1315.5,1311.06 1317.82,1311.85 1318.71,1313.62C1319.7,1315.59 1320.97,1320.68 1322.27,1325.36C1321.79,1320.67 1320.86,1315.41 1321.38,1311.79C1325.78,1281.1 1333.27,1248.64 1344.59,1219.29C1357.23,1186.53 1376.07,1150 1376.07,1114.34C1376.07,1113.47 1376.2,1112.53 1376.31,1111.64Z"/>
    </g>
    <g transform="matrix(1.53779,0,0,1.69581,-948.909,-274.659)">
        <path d="M1380.45,1127.19C1380.68,1125.93 1382.53,1115.97 1384.75,1112.81C1385.92,1111.13 1387.43,1110.28 1388.88,1110.03C1390.48,1109.76 1392.44,1110.03 1394.38,1111.95C1401.6,1119.12 1407.32,1129 1412.82,1139.19C1418.04,1148.88 1423.08,1158.87 1429.27,1166.79C1454.98,1199.71 1485.98,1226.1 1515.34,1255.37C1522.61,1262.61 1551.32,1281.67 1557.69,1286.84C1558.72,1287.67 1559.33,1288.33 1559.58,1288.67C1560.03,1289.31 1560.17,1289.86 1560.23,1290.25C1560.37,1291.2 1560.11,1291.96 1559.7,1292.58C1559.16,1293.4 1558.03,1294.63 1555.6,1294.29C1554.83,1294.18 1551.66,1292.86 1545.46,1289.43C1544,1288.62 1543.33,1287.08 1543.68,1285.64C1532.41,1277.63 1515.03,1265.57 1509.57,1260.13C1479.99,1230.65 1448.8,1204.04 1422.9,1170.88C1416.48,1162.67 1411.22,1152.35 1405.81,1142.3C1401.16,1133.67 1396.41,1125.25 1390.54,1118.75C1390.07,1120.03 1389.54,1121.62 1389.26,1122.85C1388.51,1126.28 1387.94,1129.42 1387.64,1130.02C1386.64,1132.04 1384.83,1132.21 1383.94,1132.2C1381.79,1132.17 1380.07,1130.56 1380.1,1128.61C1380.11,1128.1 1380.23,1127.62 1380.45,1127.19ZM1382.49,1125.4L1382.49,1125.4L1382.49,1125.4ZM1382.75,1125.31L1382.72,1125.31L1382.84,1125.28L1382.75,1125.31ZM1383.43,1125.16C1383.26,1125.18 1383.1,1125.21 1382.93,1125.26L1383.08,1125.22C1383.14,1125.21 1383.21,1125.19 1383.27,1125.18L1383.43,1125.16ZM1383.54,1125.14L1383.48,1125.15L1383.62,1125.14L1383.54,1125.14ZM1383.8,1125.12L1383.73,1125.13L1383.83,1125.12L1383.8,1125.12Z"/>
    </g>
</svg>
