<?xml version="1.0" encoding="UTF-8" standalone="no"?>
<!DOCTYPE svg PUBLIC "-//W3C//DTD SVG 1.1//EN" "http://www.w3.org/Graphics/SVG/1.1/DTD/svg11.dtd">
<svg width="100%" height="100%" viewBox="0 0 3508 2481" version="1.1" xmlns="http://www.w3.org/2000/svg" xmlns:xlink="http://www.w3.org/1999/xlink" xml:space="preserve" xmlns:serif="http://www.serif.com/" style="fill-rule:evenodd;clip-rule:evenodd;stroke-linejoin:round;stroke-miterlimit:2;">
    <g transform="matrix(2.15863,0,0,1.86999,-1522.7,-746.502)">
        <path d="M1426.29,1280.9C1425.06,1280.83 1422.51,1280.71 1421.52,1280.96C1405.45,1284.96 1386.61,1296.24 1373.5,1306.31C1360.03,1316.66 1338.51,1335.24 1326.18,1355.73C1319.18,1367.36 1315.1,1379.56 1317.86,1391.15C1319.69,1398.83 1324.54,1406.13 1333.26,1412.83C1347.14,1423.47 1367.22,1422.03 1382.98,1418.1C1413.97,1410.38 1432.87,1395.6 1442.88,1378.63C1457.54,1353.82 1452.94,1324.54 1440.08,1307.88C1431.2,1296.38 1418.3,1290.97 1405.24,1297.93C1403.85,1298.67 1402.2,1297.97 1401.56,1296.36C1400.91,1294.75 1401.52,1292.84 1402.91,1292.1C1418.38,1283.87 1433.71,1289.99 1444.23,1303.61C1458.53,1322.13 1463.77,1354.66 1447.48,1382.25C1436.86,1400.22 1417,1416.19 1384.15,1424.37C1367.03,1428.64 1345.26,1429.74 1330.18,1418.17C1320.06,1410.4 1314.62,1401.76 1312.5,1392.85C1309.34,1379.55 1313.58,1365.41 1321.62,1352.07C1334.34,1330.91 1356.51,1311.65 1370.42,1300.97C1384.05,1290.5 1403.65,1278.84 1420.34,1274.69C1422.16,1274.24 1427.07,1274.48 1427.76,1274.59C1429.75,1274.92 1430.09,1276.84 1430.14,1277.09C1430.28,1277.77 1430.22,1278.45 1429.96,1279.12C1429.77,1279.59 1429.42,1280.27 1428.57,1280.72C1428.49,1280.76 1428.01,1281.02 1427,1281.01C1426.76,1281.01 1426.52,1280.97 1426.29,1280.9Z"/>
    </g>
    <g transform="matrix(2.15863,0,0,1.86999,-1522.7,-746.502)">
        <path d="M1464.4,876.599L1464.29,876.596C1462.76,876.583 1461.52,875.135 1461.53,873.364C1461.54,871.594 1462.8,870.166 1464.33,870.179C1466.49,870.197 1467.71,870.754 1468.43,871.36C1469.39,872.166 1469.89,873.206 1470.05,874.531C1470.17,875.606 1469.8,877.165 1469.8,879.146L1469.8,985.27C1469.8,1060.81 1472.31,1136.93 1466.91,1212.12C1464.46,1246.26 1463.54,1282.67 1455.43,1315.45C1455.89,1315.73 1456.3,1316.09 1456.66,1316.5C1457.74,1317.74 1458.41,1319.71 1458.52,1322.16C1458.81,1328.57 1455.21,1339.25 1455.21,1339.25C1454.74,1340.6 1453.54,1341.42 1452.29,1341.25C1451.04,1341.07 1450.04,1339.94 1449.87,1338.5C1449.87,1338.5 1447.99,1322.07 1449.95,1314.22C1458.09,1281.7 1458.94,1245.51 1461.37,1211.59C1466.75,1136.57 1464.24,1060.63 1464.24,985.27L1464.24,879.146C1464.24,878.348 1464.32,877.358 1464.4,876.599Z"/>
    </g>
    <g transform="matrix(2.15863,0,0,1.86999,-1522.7,-746.502)">
        <path d="M1461.42,873.728C1462.97,873.74 1464.57,873.233 1466.24,872.308C1468.21,871.212 1470.34,869.487 1472.67,867.668C1477.62,863.811 1483.72,859.342 1492.19,862.153C1499.81,864.678 1505.59,871.571 1510.17,881.057C1515.03,891.124 1518.5,904.072 1521.09,918.242C1529.07,961.843 1528.8,1016.81 1533.46,1037.71C1535.94,1048.83 1544.31,1069.83 1556.01,1083.47C1563.42,1092.11 1572.18,1097.76 1581.53,1096.88C1587.79,1096.29 1594.4,1092.8 1601.09,1085.03C1602.17,1083.77 1602.16,1081.74 1601.08,1080.49C1599.99,1079.24 1598.23,1079.25 1597.14,1080.51C1591.62,1086.92 1586.25,1089.99 1581.08,1090.48C1573.29,1091.22 1566.14,1086.15 1559.96,1078.95C1549.01,1066.18 1541.17,1046.52 1538.84,1036.11C1534.19,1015.26 1534.49,960.415 1526.53,916.916C1523.25,899.014 1518.57,883.003 1511.71,871.821C1506.87,863.924 1500.94,858.376 1493.73,855.985C1483.27,852.519 1475.67,857.592 1469.56,862.348C1467.79,863.727 1466.17,865.062 1464.63,866.043C1463.51,866.763 1462.48,867.319 1461.46,867.311C1459.93,867.298 1458.67,868.725 1458.66,870.496C1458.65,872.267 1459.89,873.715 1461.42,873.728Z"/>
    </g>
</svg>
