<?xml version="1.0" encoding="UTF-8" standalone="no"?>
<!DOCTYPE svg PUBLIC "-//W3C//DTD SVG 1.1//EN" "http://www.w3.org/Graphics/SVG/1.1/DTD/svg11.dtd">
<svg width="100%" height="100%" viewBox="0 0 3508 2481" version="1.1" xmlns="http://www.w3.org/2000/svg" xmlns:xlink="http://www.w3.org/1999/xlink" xml:space="preserve" xmlns:serif="http://www.serif.com/" style="fill-rule:evenodd;clip-rule:evenodd;stroke-linejoin:round;stroke-miterlimit:2;">
    <g transform="matrix(2.15863,0,0,1.86999,-1193.26,-1317.23)">
        <path d="M1426.29,1280.9C1425.06,1280.83 1422.51,1280.71 1421.52,1280.96C1405.45,1284.96 1386.61,1296.24 1373.5,1306.31C1360.03,1316.66 1338.51,1335.24 1326.18,1355.73C1319.18,1367.36 1315.1,1379.56 1317.86,1391.15C1319.69,1398.83 1324.54,1406.13 1333.26,1412.83C1347.14,1423.47 1367.22,1422.03 1382.98,1418.1C1413.97,1410.38 1432.87,1395.6 1442.88,1378.63C1457.54,1353.82 1452.94,1324.54 1440.08,1307.88C1431.2,1296.38 1418.3,1290.97 1405.24,1297.93C1403.85,1298.67 1402.2,1297.97 1401.56,1296.36C1400.91,1294.75 1401.52,1292.84 1402.91,1292.1C1418.38,1283.87 1433.71,1289.99 1444.23,1303.61C1458.53,1322.13 1463.77,1354.66 1447.48,1382.25C1436.86,1400.22 1417,1416.19 1384.15,1424.37C1367.03,1428.64 1345.26,1429.74 1330.18,1418.17C1320.06,1410.4 1314.62,1401.76 1312.5,1392.85C1309.34,1379.55 1313.58,1365.41 1321.62,1352.07C1334.34,1330.91 1356.51,1311.65 1370.42,1300.97C1384.05,1290.5 1403.65,1278.84 1420.34,1274.69C1422.16,1274.24 1427.07,1274.48 1427.76,1274.59C1429.75,1274.92 1430.09,1276.84 1430.14,1277.09C1430.28,1277.77 1430.22,1278.45 1429.96,1279.12C1429.77,1279.59 1429.42,1280.27 1428.57,1280.72C1428.49,1280.76 1428.01,1281.02 1427,1281.01C1426.76,1281.01 1426.52,1280.97 1426.29,1280.9Z"/>
    </g>
    <g transform="matrix(2.15863,0,0,1.86999,-1193.26,-1317.23)">
        <path d="M1464.4,876.599L1464.29,876.596C1462.76,876.583 1461.52,875.135 1461.53,873.364C1461.54,871.594 1462.8,870.166 1464.33,870.179C1466.49,870.197 1467.71,870.754 1468.43,871.36C1469.39,872.166 1469.89,873.206 1470.05,874.531C1470.17,875.606 1469.8,877.165 1469.8,879.146L1469.8,985.27C1469.8,1060.81 1472.31,1136.93 1466.91,1212.12C1464.46,1246.26 1463.54,1282.67 1455.43,1315.45C1455.89,1315.73 1456.3,1316.09 1456.66,1316.5C1457.74,1317.74 1458.41,1319.71 1458.52,1322.16C1458.81,1328.57 1455.21,1339.25 1455.21,1339.25C1454.74,1340.6 1453.54,1341.42 1452.29,1341.25C1451.04,1341.07 1450.04,1339.94 1449.87,1338.5C1449.87,1338.5 1447.99,1322.07 1449.95,1314.22C1458.09,1281.7 1458.94,1245.51 1461.37,1211.59C1466.75,1136.57 1464.24,1060.63 1464.24,985.27L1464.24,879.146C1464.24,878.348 1464.32,877.358 1464.4,876.599Z"/>
    </g>
    <g transform="matrix(2.15863,0,0,1.86999,-1193.26,-1317.23)">
        <path d="M1461.42,873.728C1462.97,873.74 1464.57,873.233 1466.24,872.308C1468.21,871.212 1470.34,869.487 1472.67,867.668C1477.62,863.811 1483.72,859.342 1492.19,862.153C1499.81,864.678 1505.59,871.571 1510.17,881.057C1515.03,891.124 1518.5,904.072 1521.09,918.242C1529.07,961.843 1528.8,1016.81 1533.46,1037.71C1535.94,1048.83 1544.31,1069.83 1556.01,1083.47C1563.42,1092.11 1572.18,1097.76 1581.53,1096.88C1587.79,1096.29 1594.4,1092.8 1601.09,1085.03C1602.17,1083.77 1602.16,1081.74 1601.08,1080.49C1599.99,1079.24 1598.23,1079.25 1597.14,1080.51C1591.62,1086.92 1586.25,1089.99 1581.08,1090.48C1573.29,1091.22 1566.14,1086.15 1559.96,1078.95C1549.01,1066.18 1541.17,1046.52 1538.84,1036.11C1534.19,1015.26 1534.49,960.415 1526.53,916.916C1523.25,899.014 1518.57,883.003 1511.71,871.821C1506.87,863.924 1500.94,858.376 1493.73,855.985C1483.27,852.519 1475.67,857.592 1469.56,862.348C1467.79,863.727 1466.17,865.062 1464.63,866.043C1463.51,866.763 1462.48,867.319 1461.46,867.311C1459.93,867.298 1458.67,868.725 1458.66,870.496C1458.65,872.267 1459.89,873.715 1461.42,873.728Z"/>
    </g>
    <g transform="matrix(1,0,0,1,96.3539,-128.229)">
        <path d="M1245.5,531.061C1244.08,529.948 1243.17,528.207 1243.2,526.263C1243.24,522.951 1245.96,520.295 1249.27,520.335C1252.07,520.368 1253.89,521.374 1255.18,522.602C1256.53,523.887 1257.4,525.607 1257.67,527.733C1257.93,529.812 1257.08,532.832 1257.08,534.961C1257.08,563.674 1260.22,591.912 1262.82,620.462C1263.73,630.35 1271.21,661.712 1274.03,685.243C1275.37,696.352 1275.56,705.877 1274.04,711.275C1272.87,715.438 1270.62,717.942 1268.08,719.112C1265.44,720.336 1261.91,720.521 1257.57,717.906C1254.74,716.197 1253.82,712.506 1255.53,709.67C1257.01,707.211 1259.98,706.196 1262.6,707.086C1262.81,706.007 1263.05,704.59 1263.11,703.302C1263.26,699.957 1263.06,695.916 1262.63,691.447C1260.37,667.526 1251.84,632.178 1250.87,621.553C1248.23,592.639 1245.08,564.04 1245.08,534.961C1245.08,533.904 1245.24,532.669 1245.45,531.406L1245.5,531.061Z"/>
    </g>
    <g transform="matrix(1,0,0,1,96.3539,-128.229)">
        <path d="M1208.78,535.166C1206.94,531.941 1205.01,526.468 1209.44,522.089C1210.37,521.167 1212.87,519.84 1216.67,519.487C1224.39,518.769 1240.92,520.017 1243.46,520.438C1291.37,528.393 1315.37,565.255 1309.23,592.629C1305.03,611.359 1287.18,627.15 1252.04,626.985C1248.72,626.969 1246.05,624.268 1246.06,620.957C1246.08,617.645 1248.78,614.969 1252.09,614.985C1279.4,615.114 1294.26,604.557 1297.52,590.003C1299.45,581.42 1297.31,571.798 1291.83,562.903C1283.02,548.591 1265.67,536.289 1241.49,532.276C1239.73,531.984 1227.62,531.783 1220.86,531.693C1220.99,531.931 1221.09,532.154 1221.16,532.357C1222.22,535.102 1221.48,537.24 1219.89,538.913C1219.18,539.664 1217.75,540.978 1214.7,540.938C1211.49,540.897 1208.9,538.338 1208.78,535.166Z"/>
    </g>
    <g transform="matrix(1,0,0,1,96.3539,-128.229)">
        <path d="M1353.95,596.544C1352.85,595.445 1352.17,593.921 1352.19,592.245C1352.22,588.933 1354.93,586.271 1358.25,586.303C1359.61,586.316 1361.08,586.722 1362.48,587.928C1363.43,588.746 1364.89,590.894 1365.89,594.328C1368.61,603.659 1371.49,627.356 1372.18,631.49C1372.93,635.946 1377.55,652.859 1380.1,664.759C1381.37,670.658 1382.06,675.51 1381.9,677.687C1381.52,683.143 1377.73,684.371 1375.34,684.349C1372.03,684.318 1369.37,681.604 1369.4,678.293C1369.4,677.514 1369.56,676.771 1369.84,676.091C1369.63,674.497 1369.09,670.646 1368.37,667.272C1365.78,655.183 1361.11,637.997 1360.35,633.47C1359.82,630.291 1357.99,615.26 1355.93,604.565C1355.34,601.474 1354.33,597.868 1353.95,596.544ZM1373.53,672.647L1373.52,672.652L1373.58,672.632L1373.53,672.647ZM1373.7,672.594C1374.26,672.429 1374.84,672.344 1375.45,672.349C1374.84,672.344 1374.25,672.423 1373.7,672.594ZM1357.76,598.288L1357.79,598.289L1357.7,598.281L1357.76,598.288ZM1357.4,598.25L1357.43,598.253L1357.37,598.245L1357.4,598.25Z"/>
    </g>
    <g transform="matrix(1,0,0,1,96.3539,-128.229)">
        <path d="M1355.94,535.212C1354.64,533.099 1354.75,530.31 1356.4,528.28C1358.49,525.721 1360.75,525.549 1362.19,525.672C1364.22,525.844 1366.58,526.87 1367.73,530.045C1368.07,530.979 1368.35,532.546 1368.28,534.465C1368.18,537.409 1367.3,541.538 1365.9,544.253C1364,547.923 1360.96,549.571 1358.13,549.543C1354.82,549.511 1352.15,546.796 1352.19,543.485C1352.21,541.241 1353.46,539.294 1355.3,538.285L1355.94,535.212Z"/>
    </g>
    <g transform="matrix(1.34125,0,0,0.627866,-380.83,91.1198)">
        <path d="M1398.32,607.595C1419.24,607.786 1445.43,603.5 1470.43,598.956C1472.89,598.509 1474.71,593.879 1474.51,588.624C1474.3,583.369 1472.13,579.466 1469.67,579.913C1444.95,584.407 1419.04,588.671 1398.36,588.483C1395.89,588.461 1393.88,592.725 1393.87,597.999C1393.86,603.273 1395.85,607.573 1398.32,607.595Z"/>
    </g>
    <g transform="matrix(1,0,0,1,96.3539,-128.229)">
        <path d="M1448.38,590.579C1447.41,589.504 1446.83,588.077 1446.84,586.516C1446.87,583.205 1449.58,580.539 1452.89,580.567C1456.16,580.594 1458.06,581.866 1459.26,583.215C1460.32,584.408 1460.99,585.888 1461.14,587.682C1461.29,589.274 1460.86,591.462 1460.01,593.805C1459.5,595.218 1458.64,596.758 1458.64,598.07C1458.62,613.591 1455.75,630.34 1455.76,646.817C1455.76,653.714 1462.47,685.663 1462.1,691.968C1461.77,697.608 1457.56,698.706 1455.66,698.69C1452.35,698.662 1449.68,695.952 1449.71,692.64C1449.71,691.975 1449.83,691.336 1450.03,690.74C1449.27,686.173 1443.76,653.143 1443.76,646.825C1443.75,630.339 1446.62,613.583 1446.64,598.054C1446.64,596.383 1447.05,594.489 1447.69,592.599L1448.38,590.579ZM1454.1,686.907L1454.05,686.923L1454.23,686.875L1454.1,686.907ZM1455.14,686.717C1454.84,686.744 1454.55,686.793 1454.27,686.865L1454.55,686.802C1454.64,686.786 1454.74,686.769 1454.84,686.752L1455.14,686.717ZM1455.27,686.705L1455.15,686.716L1455.42,686.698L1455.27,686.705ZM1455.46,686.695L1455.76,686.69C1455.66,686.69 1455.56,686.691 1455.46,686.695Z"/>
    </g>
    <g transform="matrix(1,0,0,1,96.3539,-128.229)">
        <path d="M1599.27,658.955C1600.2,656.547 1602.64,654.935 1605.35,655.161C1607.32,655.325 1608.54,656.126 1609.31,656.824C1610.64,658.02 1611.32,659.504 1611.38,661.259C1611.42,662.425 1611.01,664.931 1608.37,667.245C1604.79,670.398 1592.92,677.101 1587.42,679.803C1585.4,680.791 1583.93,681.299 1583.43,681.399C1569.93,684.087 1551.88,683.086 1538.4,676.04C1528.63,670.929 1521.16,662.772 1518.76,650.886C1513.83,626.388 1531.25,600.066 1554.4,592.379C1556.66,591.63 1560.33,591.944 1563.94,593.425C1566.65,594.535 1569.36,596.155 1570.98,597.435C1572.34,598.506 1573.19,599.579 1573.6,600.295C1575.16,603.051 1574.49,605.354 1573.46,606.933C1572.71,608.079 1570.92,610.264 1566.79,609.725C1564.51,609.428 1562.7,607.888 1561.95,605.876C1561.14,605.387 1560.19,604.857 1559.42,604.539C1558.86,604.307 1557.99,604.063 1557.61,603.965C1540.11,610.103 1526.78,629.907 1530.53,648.515C1532.58,658.724 1540.4,664.647 1549.59,667.804C1559.65,671.259 1571.42,671.483 1580.69,669.705L1580.75,669.681C1583.73,668.378 1595.48,661.263 1599.27,658.955ZM1603.91,667.066L1603.98,667.075L1603.81,667.048L1603.91,667.066ZM1603.49,666.987L1603.65,667.017L1603.45,666.974L1603.24,666.917L1603.49,666.987ZM1603.11,666.882L1603.15,666.895L1603.03,666.857L1603.11,666.882Z"/>
    </g>
    <g transform="matrix(1,0,0,1,96.3539,-128.229)">
        <path d="M1619.46,589.103C1617.31,588.068 1615.9,585.795 1616.08,583.271C1616.31,579.968 1619.19,577.478 1622.49,577.714C1624.37,577.848 1626.29,578.635 1628,580.455C1629.57,582.133 1631.23,585.406 1632.54,590.04C1635.86,601.774 1638.42,624.314 1642.59,643.768C1645.11,655.542 1648.05,666.16 1652.54,671.704C1654.62,674.277 1654.23,678.058 1651.65,680.143C1649.08,682.227 1645.3,681.831 1643.22,679.258C1638.5,673.442 1634.79,663.131 1631.95,651.165C1628.06,634.722 1625.57,615.039 1622.86,601.396C1622.01,597.095 1621.15,593.443 1620.19,590.792C1619.98,590.21 1619.67,589.533 1619.46,589.103Z"/>
    </g>
    <g transform="matrix(1,0,0,1,96.3539,-128.229)">
        <path d="M1660.11,580.711C1657.72,579.817 1656.09,577.455 1656.23,574.778C1656.4,571.471 1659.23,568.928 1662.53,569.102C1663.91,569.175 1665.94,569.772 1668.07,571.724C1671.18,574.58 1676.45,582.509 1682.34,592.959C1695.25,615.828 1712.02,651.127 1717.62,666.348C1718.99,670.064 1719.72,672.828 1719.85,674.267C1719.96,675.525 1719.8,676.492 1719.6,677.165C1718.67,680.344 1715.34,682.169 1712.16,681.24C1709.45,680.447 1707.73,677.908 1707.85,675.207C1707.57,674.314 1705.87,669.007 1703.88,664.209C1696.89,647.318 1682.94,618.434 1671.89,598.855C1666.96,590.107 1662.77,583.272 1660.11,580.711Z"/>
    </g>
    <g transform="matrix(1,0,0,1,96.3539,-128.229)">
        <path d="M1641.77,664.26C1645.77,664.505 1652.89,663.333 1661.37,661.22C1679.53,656.689 1704.53,648.076 1715.94,643.816C1719.05,642.658 1720.62,639.199 1719.47,636.096C1718.31,632.994 1714.85,631.415 1711.75,632.573C1700.6,636.733 1676.2,645.153 1658.46,649.576C1651.55,651.301 1645.77,652.483 1642.51,652.283C1639.2,652.081 1636.35,654.6 1636.15,657.905C1635.95,661.21 1638.47,664.058 1641.77,664.26Z"/>
    </g>
    <g transform="matrix(1,0,0,1,228.224,-142.559)">
        <path d="M652.857,594.726C652.523,593.977 652.341,593.148 652.345,592.276C652.359,588.965 655.059,586.288 658.371,586.303C659.552,586.308 660.757,586.624 661.913,587.46C662.48,587.87 664.316,589.619 664.78,593.35C666.068,603.719 666.032,655.909 666.862,663.354C667.651,670.425 674.767,711.202 675.709,719.285C676.027,722.02 675.395,723.635 675.254,723.932C673.905,726.771 671.678,727.38 669.791,727.372C666.48,727.358 663.803,724.658 663.817,721.346L663.826,721.039L663.79,720.674C662.847,712.583 655.726,671.763 654.936,664.684C654.107,657.255 654.157,605.177 652.871,594.829L652.857,594.726ZM664.66,718.308C665.711,716.543 667.642,715.363 669.843,715.372C668.08,715.365 666.014,715.895 664.66,718.308ZM655.536,597.604C656.325,598.039 657.134,598.239 657.927,598.287C657.067,598.228 656.258,597.988 655.536,597.604Z"/>
    </g>
    <g transform="matrix(1,0,0,1,228.224,-142.559)">
        <path d="M680.62,570.25C680.553,569.35 680.658,568.606 680.802,568.045C681.156,566.657 681.868,565.66 682.692,564.927C683.736,563.999 685.054,563.368 686.803,563.368C688.23,563.368 689.734,563.786 691.176,564.904C692.247,565.735 693.541,567.328 694.604,569.702C697.808,576.855 700.843,594.884 701.271,596.59C705.891,614.998 712.006,632.847 715.731,651.363C717.867,661.979 731.888,701.527 737.6,728.038C739.467,736.698 740.431,744.092 740.077,748.963C739.843,752.176 739.003,754.62 737.902,756.263C736.059,759.014 732.328,759.75 729.578,757.907C726.878,756.097 726.118,752.471 727.835,749.737C727.87,749.535 728.163,747.788 728.155,746.509C728.129,742.436 727.236,736.904 725.87,730.565C720.145,704 706.107,664.367 703.967,653.73C700.279,635.399 694.206,617.734 689.632,599.511C689.333,598.316 687.749,588.716 685.715,580.997C685.225,581.064 684.699,581.096 684.133,581.094C680.821,581.08 678.144,578.38 678.158,575.068C678.167,573.089 679.135,571.336 680.62,570.25Z"/>
    </g>
    <g transform="matrix(1,0,0,1,228.224,-142.559)">
        <path d="M658.318,687.217C676.872,687.299 696.777,683.621 716.371,681.444C719.662,681.079 722.038,678.11 721.672,674.818C721.306,671.527 718.337,669.152 715.046,669.518C695.915,671.643 676.486,675.297 658.371,675.217C655.059,675.203 652.359,677.879 652.345,681.191C652.33,684.502 655.007,687.203 658.318,687.217Z"/>
    </g>
    <g transform="matrix(1,0,0,1,228.224,-142.559)">
        <path d="M747.984,663.579C747.31,657.277 747.049,652.884 747.049,652.884C746.881,649.803 749.077,647.097 752.127,646.628C755.176,646.158 758.084,648.077 758.852,651.066C758.852,651.066 760.295,656.722 760.751,661.287C761.012,663.896 760.86,666.252 760.427,667.785C761.585,677.269 763.606,688.859 766.992,695.794C768.445,698.77 767.208,702.365 764.232,703.818C761.257,705.271 757.661,704.035 756.208,701.059C752.6,693.669 750.304,681.521 748.914,671.274C747.009,669.509 746.409,666.632 747.629,664.193C747.736,663.979 747.854,663.773 747.984,663.579Z"/>
    </g>
    <g transform="matrix(1,0,0,1,228.224,-142.559)">
        <path d="M750.356,647.287C749.844,646.01 749.205,644.443 748.65,643.152C747.344,640.116 746.107,636.959 745.597,634.54C745.22,632.75 745.195,631.184 745.408,629.966C745.749,628.021 746.645,626.55 747.856,625.477C749.071,624.402 750.694,623.608 752.948,623.59C756.259,623.564 758.969,626.231 758.995,629.542C759.007,630.983 758.508,632.31 757.668,633.351C758.352,635.603 759.657,638.368 760.713,640.812C761.956,643.688 762.917,646.267 763.162,647.792C763.727,651.303 762.181,653.446 760.798,654.542C759.456,655.607 756.967,656.927 753.18,655.034C750.319,653.603 749.1,650.188 750.356,647.287Z"/>
    </g>
    <g transform="matrix(1,0,0,1,228.224,-142.559)">
        <path d="M850.279,649.097C850.016,648.729 849.75,648.379 849.574,648.204C847.735,646.372 845.961,645.275 844.135,645.065C842.142,644.835 840.256,645.719 838.437,647.104C835.814,649.102 833.429,652.132 831.299,655.76C825.219,666.112 821.408,681.172 822.131,694.356C822.567,702.302 824.573,709.591 829.279,714.272C838.778,723.721 851.87,716.444 858.625,707.413C860.886,704.391 862.496,701.091 862.906,697.917C863.2,695.631 862.816,693.427 861.221,691.72C858.419,688.719 853.085,687.248 844.756,687.217C841.445,687.205 838.766,684.507 838.778,681.195C838.79,677.884 841.488,675.205 844.8,675.217C857.743,675.265 865.635,678.866 869.991,683.529C877.578,691.651 875.979,704.246 868.235,714.601C857.45,729.02 835.984,737.866 820.817,722.781C814.2,716.2 810.762,706.184 810.149,695.013C809.3,679.525 813.81,661.843 820.951,649.683C826.455,640.311 833.721,634.257 841.02,633.209C846.538,632.417 852.396,634.078 858.043,639.702C859.456,641.11 861.762,644.352 862.48,646.426C863.036,648.034 863.021,649.453 862.804,650.487C862.503,651.917 861.811,653.057 860.843,653.945C859.79,654.911 858.273,655.776 855.951,655.66C852.644,655.494 850.093,652.675 850.258,649.367L850.279,649.097ZM856.284,643.668L856.55,643.675C856.46,643.67 856.371,643.668 856.284,643.668Z"/>
    </g>
    <g transform="matrix(1,0,0,1,228.224,-142.559)">
        <path d="M842.213,690.306C842.231,691.298 842.216,692.231 842.161,693.078C841.947,696.382 839.091,698.891 835.786,698.678C832.481,698.464 829.972,695.607 830.186,692.303C830.649,685.147 827.777,670.927 827.777,670.927C827.191,667.956 828.911,665.015 831.787,664.068C834.664,663.121 837.794,664.465 839.088,667.203C839.088,667.203 841.935,673.25 843.334,678.501C844.156,681.587 844.4,684.495 844.022,686.445C843.713,688.036 843.063,689.314 842.213,690.306Z"/>
    </g>
    <g transform="matrix(1,0,0,1,228.224,-142.559)">
        <path d="M896.439,647.806C896.094,643.083 896.839,637.308 896.839,637.308C897.268,634.51 899.594,632.392 902.419,632.227C905.245,632.062 907.802,633.894 908.554,636.623C908.554,636.623 909.721,640.896 909.968,644.627C910.115,646.843 909.888,648.914 909.372,650.413C912.175,658.458 916.906,671.248 918.953,681.812C920.103,687.747 920.363,693.092 919.454,696.938C918.693,700.161 915.458,702.159 912.236,701.398C909.013,700.636 907.014,697.402 907.776,694.179C908.625,690.585 907.568,685.157 906.101,679.332C903.813,670.244 900.145,660.387 897.876,653.882C896.754,652.749 896.085,651.172 896.146,649.453C896.167,648.879 896.267,648.326 896.439,647.806Z"/>
    </g>
    <g transform="matrix(1,0,0,1,228.224,-142.559)">
        <path d="M923.297,624.131C922.933,620.819 922.717,618.765 922.717,618.765C922.378,615.529 924.679,612.613 927.905,612.19C931.13,611.767 934.105,613.992 934.611,617.206C934.611,617.206 934.886,619.068 935.106,621.732C936.073,630.618 938.417,651.399 940.371,663.037C941.549,670.05 944.659,677.536 947.181,685.04C950.117,693.776 952.247,702.544 951.108,710.727C950.651,714.007 947.618,716.299 944.338,715.842C941.058,715.386 938.766,712.352 939.223,709.072C940.121,702.618 938.122,695.753 935.806,688.863C933.077,680.743 929.812,672.613 928.537,665.024C927.594,659.41 926.561,651.702 925.631,644.186C925.392,644.198 925.149,644.199 924.903,644.191C921.593,644.09 918.989,641.32 919.091,638.01C919.167,635.539 920.729,633.462 922.894,632.61C923.096,631.427 923.438,629.182 923.434,627.658C923.43,626.441 923.376,625.236 923.297,624.131Z"/>
    </g>
    <g transform="matrix(1,0,0,1,228.224,-142.559)">
        <path d="M907.908,680.956C908.101,680.899 914.137,679.108 918.886,677.371C928.584,673.822 940.746,669.514 948.006,669.481C951.318,669.466 954.018,672.142 954.033,675.454C954.049,678.765 951.372,681.466 948.061,681.481C941.792,681.509 931.385,685.575 923.009,688.64C915.979,691.213 910.029,693.031 907.672,692.95C904.362,692.836 901.768,690.057 901.882,686.747C901.994,683.497 904.677,680.936 907.908,680.956Z"/>
    </g>
    <g transform="matrix(1,0,0,1,329.441,-611.724)">
        <path d="M586.61,1708.3C761.852,1709.17 944.352,1687.42 1121.98,1682.51C1484.31,1672.48 1847.6,1662.84 2210.05,1662.41C2213.36,1662.4 2216.05,1659.71 2216.05,1656.4C2216.04,1653.09 2213.35,1650.4 2210.04,1650.41C1847.48,1650.84 1484.09,1660.48 1121.65,1670.51C944.15,1675.42 761.783,1697.17 586.669,1696.3C583.358,1696.28 580.656,1698.96 580.639,1702.27C580.623,1705.58 583.298,1708.28 586.61,1708.3Z"/>
    </g>
    <g transform="matrix(1,0,0,1,329.441,-611.724)">
        <path d="M569.4,2029.54C712.091,2030.26 856.603,2016.73 1000.7,2020.95C1382.45,2032.14 1764.93,2029.86 2146.95,2029.54C2150.26,2029.54 2152.95,2026.85 2152.95,2023.53C2152.94,2020.22 2150.25,2017.54 2146.94,2017.54C1765.04,2017.86 1382.68,2020.14 1001.05,2008.96C856.857,2004.74 712.248,2018.26 569.46,2017.54C566.149,2017.52 563.447,2020.2 563.43,2023.51C563.413,2026.82 566.088,2029.52 569.4,2029.54Z"/>
    </g>
    <g transform="matrix(1,0,0,1,329.441,-611.724)">
        <path d="M566.531,2316.36C628.898,2316.68 690.62,2299.14 753.435,2296.3C852.293,2291.82 951.025,2287.49 1049.99,2284.83C1488.86,2273.02 1928.77,2299.85 2367.81,2299.15C2371.12,2299.14 2373.8,2296.45 2373.8,2293.14C2373.79,2289.83 2371.1,2287.14 2367.79,2287.15C1928.65,2287.85 1488.64,2261.02 1049.67,2272.83C950.628,2275.5 851.824,2279.83 752.892,2284.31C690.279,2287.14 628.76,2304.68 566.592,2304.36C563.281,2304.34 560.579,2307.02 560.562,2310.33C560.545,2313.64 563.22,2316.34 566.531,2316.36Z"/>
    </g>
    <g transform="matrix(0.869216,0,0,1,113.11,0)">
        <path d="M864.487,1940.62C1002.33,1947.03 1162.19,1905.17 1306.41,1897.61C1476.17,1888.71 1646.07,1887.19 1816.02,1880.42C2103.01,1868.99 2398.12,1888.08 2684.93,1900.51C2757.8,1903.66 2830.83,1909.66 2903.5,1914.84C2945.87,1917.85 2988.09,1929.59 3030.43,1929.15C3034.24,1929.11 3037.3,1926.39 3037.26,1923.08C3037.21,1919.77 3034.08,1917.11 3030.27,1917.15C2988.35,1917.59 2946.57,1905.86 2904.62,1902.88C2831.81,1897.69 2758.64,1891.68 2685.62,1888.52C2398.37,1876.08 2102.82,1856.98 1815.38,1868.43C1645.37,1875.2 1475.4,1876.73 1305.58,1885.63C1161.86,1893.17 1002.59,1935.02 865.224,1928.63C861.42,1928.46 858.166,1931 857.963,1934.3C857.759,1937.61 860.682,1940.44 864.487,1940.62Z"/>
    </g>
    <path d="M924.909,2170.08C984.515,2171.86 1045.26,2162.32 1104.79,2158.62C1167.92,2154.69 1231.54,2155.75 1294.76,2152.89C1413.53,2147.51 1532.97,2154.12 1651.8,2150.03C1918.48,2140.87 2185.75,2141.03 2452.3,2129.97C2553.44,2125.77 2655.18,2136.9 2755.08,2135.66C2758.39,2135.62 2761.05,2132.9 2761,2129.59C2760.96,2126.28 2758.24,2123.62 2754.93,2123.66C2654.92,2124.91 2553.06,2113.77 2451.8,2117.98C2185.28,2129.04 1918.04,2128.88 1651.39,2138.04C1532.52,2142.12 1413.03,2135.52 1294.22,2140.9C1230.93,2143.77 1167.24,2142.71 1104.05,2146.64C1044.88,2150.33 984.509,2159.85 925.267,2158.08C921.957,2157.99 919.189,2160.59 919.091,2163.9C918.992,2167.21 921.599,2169.98 924.909,2170.08Z"/>
</svg>
