<?xml version="1.0" encoding="UTF-8" standalone="no"?>
<!DOCTYPE svg PUBLIC "-//W3C//DTD SVG 1.1//EN" "http://www.w3.org/Graphics/SVG/1.1/DTD/svg11.dtd">
<svg width="100%" height="100%" viewBox="0 0 3508 2481" version="1.1" xmlns="http://www.w3.org/2000/svg" xmlns:xlink="http://www.w3.org/1999/xlink" xml:space="preserve" xmlns:serif="http://www.serif.com/" style="fill-rule:evenodd;clip-rule:evenodd;stroke-linejoin:round;stroke-miterlimit:2;">
    <g transform="matrix(2.15863,0,0,1.86999,-851.562,-228.865)">
        <path d="M1426.29,1280.9C1425.06,1280.83 1422.51,1280.71 1421.52,1280.96C1405.45,1284.96 1386.61,1296.24 1373.5,1306.31C1360.03,1316.66 1338.51,1335.24 1326.18,1355.73C1319.18,1367.36 1315.1,1379.56 1317.86,1391.15C1319.69,1398.83 1324.54,1406.13 1333.26,1412.83C1347.14,1423.47 1367.22,1422.03 1382.98,1418.1C1413.97,1410.38 1432.87,1395.6 1442.88,1378.63C1457.54,1353.82 1452.94,1324.54 1440.08,1307.88C1431.2,1296.38 1418.3,1290.97 1405.24,1297.93C1403.85,1298.67 1402.2,1297.97 1401.56,1296.36C1400.91,1294.75 1401.52,1292.84 1402.91,1292.1C1418.38,1283.87 1433.71,1289.99 1444.23,1303.61C1458.53,1322.13 1463.77,1354.66 1447.48,1382.25C1436.86,1400.22 1417,1416.19 1384.15,1424.37C1367.03,1428.64 1345.26,1429.74 1330.18,1418.17C1320.06,1410.4 1314.62,1401.76 1312.5,1392.85C1309.34,1379.55 1313.58,1365.41 1321.62,1352.07C1334.34,1330.91 1356.51,1311.65 1370.42,1300.97C1384.05,1290.5 1403.65,1278.84 1420.34,1274.69C1422.16,1274.24 1427.07,1274.48 1427.76,1274.59C1429.75,1274.92 1430.09,1276.84 1430.14,1277.09C1430.28,1277.77 1430.22,1278.45 1429.96,1279.12C1429.77,1279.59 1429.42,1280.27 1428.57,1280.72C1428.49,1280.76 1428.01,1281.02 1427,1281.01C1426.76,1281.01 1426.52,1280.97 1426.29,1280.9Z"/>
    </g>
    <g transform="matrix(2.15863,0,0,1.86999,-851.562,-228.865)">
        <path d="M1464.4,876.599L1464.29,876.596C1462.76,876.583 1461.52,875.135 1461.53,873.364C1461.54,871.594 1462.8,870.166 1464.33,870.179C1466.49,870.197 1467.71,870.754 1468.43,871.36C1469.39,872.166 1469.89,873.206 1470.05,874.531C1470.17,875.606 1469.8,877.165 1469.8,879.146L1469.8,985.27C1469.8,1060.81 1472.31,1136.93 1466.91,1212.12C1464.46,1246.26 1463.54,1282.67 1455.43,1315.45C1455.89,1315.73 1456.3,1316.09 1456.66,1316.5C1457.74,1317.74 1458.41,1319.71 1458.52,1322.16C1458.81,1328.57 1455.21,1339.25 1455.21,1339.25C1454.74,1340.6 1453.54,1341.42 1452.29,1341.25C1451.04,1341.07 1450.04,1339.94 1449.87,1338.5C1449.87,1338.5 1447.99,1322.07 1449.95,1314.22C1458.09,1281.7 1458.94,1245.51 1461.37,1211.59C1466.75,1136.57 1464.24,1060.63 1464.24,985.27L1464.24,879.146C1464.24,878.348 1464.32,877.358 1464.4,876.599Z"/>
    </g>
    <g transform="matrix(2.15863,0,0,1.86999,-851.562,-228.865)">
        <path d="M1461.42,873.728C1462.97,873.74 1464.57,873.233 1466.24,872.308C1468.21,871.212 1470.34,869.487 1472.67,867.668C1477.62,863.811 1483.72,859.342 1492.19,862.153C1499.81,864.678 1505.59,871.571 1510.17,881.057C1515.03,891.124 1518.5,904.072 1521.09,918.242C1529.07,961.843 1528.8,1016.81 1533.46,1037.71C1535.94,1048.83 1544.31,1069.83 1556.01,1083.47C1563.42,1092.11 1572.18,1097.76 1581.53,1096.88C1587.79,1096.29 1594.4,1092.8 1601.09,1085.03C1602.17,1083.77 1602.16,1081.74 1601.08,1080.49C1599.99,1079.24 1598.23,1079.25 1597.14,1080.51C1591.62,1086.92 1586.25,1089.99 1581.08,1090.48C1573.29,1091.22 1566.14,1086.15 1559.96,1078.95C1549.01,1066.18 1541.17,1046.52 1538.84,1036.11C1534.19,1015.26 1534.49,960.415 1526.53,916.916C1523.25,899.014 1518.57,883.003 1511.71,871.821C1506.87,863.924 1500.94,858.376 1493.73,855.985C1483.27,852.519 1475.67,857.592 1469.56,862.348C1467.79,863.727 1466.17,865.062 1464.63,866.043C1463.51,866.763 1462.48,867.319 1461.46,867.311C1459.93,867.298 1458.67,868.725 1458.66,870.496C1458.65,872.267 1459.89,873.715 1461.42,873.728Z"/>
    </g>
    <g transform="matrix(1,0,0,1,120.89,1686.54)">
        <path d="M1245.5,531.061C1244.08,529.948 1243.17,528.207 1243.2,526.263C1243.24,522.951 1245.96,520.295 1249.27,520.335C1252.07,520.368 1253.89,521.374 1255.18,522.602C1256.53,523.887 1257.4,525.607 1257.67,527.733C1257.93,529.812 1257.08,532.832 1257.08,534.961C1257.08,563.674 1260.22,591.912 1262.82,620.462C1263.73,630.35 1271.21,661.712 1274.03,685.243C1275.37,696.352 1275.56,705.877 1274.04,711.275C1272.87,715.438 1270.62,717.942 1268.08,719.112C1265.44,720.336 1261.91,720.521 1257.57,717.906C1254.74,716.197 1253.82,712.506 1255.53,709.67C1257.01,707.211 1259.98,706.196 1262.6,707.086C1262.81,706.007 1263.05,704.59 1263.11,703.302C1263.26,699.957 1263.06,695.916 1262.63,691.447C1260.37,667.526 1251.84,632.178 1250.87,621.553C1248.23,592.639 1245.08,564.04 1245.08,534.961C1245.08,533.904 1245.24,532.669 1245.45,531.406L1245.5,531.061Z"/>
    </g>
    <g transform="matrix(1,0,0,1,120.89,1686.54)">
        <path d="M1208.78,535.166C1206.94,531.941 1205.01,526.468 1209.44,522.089C1210.37,521.167 1212.87,519.84 1216.67,519.487C1224.39,518.769 1240.92,520.017 1243.46,520.438C1291.37,528.393 1315.37,565.255 1309.23,592.629C1305.03,611.359 1287.18,627.15 1252.04,626.985C1248.72,626.969 1246.05,624.268 1246.06,620.957C1246.08,617.645 1248.78,614.969 1252.09,614.985C1279.4,615.114 1294.26,604.557 1297.52,590.003C1299.45,581.42 1297.31,571.798 1291.83,562.903C1283.02,548.591 1265.67,536.289 1241.49,532.276C1239.73,531.984 1227.62,531.783 1220.86,531.693C1220.99,531.931 1221.09,532.154 1221.16,532.357C1222.22,535.102 1221.48,537.24 1219.89,538.913C1219.18,539.664 1217.75,540.978 1214.7,540.938C1211.49,540.897 1208.9,538.338 1208.78,535.166Z"/>
    </g>
    <g transform="matrix(1,0,0,1,120.89,1686.54)">
        <path d="M1353.95,596.544C1352.85,595.445 1352.17,593.921 1352.19,592.245C1352.22,588.933 1354.93,586.271 1358.25,586.303C1359.61,586.316 1361.08,586.722 1362.48,587.928C1363.43,588.746 1364.89,590.894 1365.89,594.328C1368.61,603.659 1371.49,627.356 1372.18,631.49C1372.93,635.946 1377.55,652.859 1380.1,664.759C1381.37,670.658 1382.06,675.51 1381.9,677.687C1381.52,683.143 1377.73,684.371 1375.34,684.349C1372.03,684.318 1369.37,681.604 1369.4,678.293C1369.4,677.514 1369.56,676.771 1369.84,676.091C1369.63,674.497 1369.09,670.646 1368.37,667.272C1365.78,655.183 1361.11,637.997 1360.35,633.47C1359.82,630.291 1357.99,615.26 1355.93,604.565C1355.34,601.474 1354.33,597.868 1353.95,596.544ZM1373.53,672.647L1373.52,672.652L1373.58,672.632L1373.53,672.647ZM1373.7,672.594C1374.26,672.429 1374.84,672.344 1375.45,672.349C1374.84,672.344 1374.25,672.423 1373.7,672.594ZM1357.76,598.288L1357.79,598.289L1357.7,598.281L1357.76,598.288ZM1357.4,598.25L1357.43,598.253L1357.37,598.245L1357.4,598.25Z"/>
    </g>
    <g transform="matrix(1,0,0,1,120.89,1686.54)">
        <path d="M1355.94,535.212C1354.64,533.099 1354.75,530.31 1356.4,528.28C1358.49,525.721 1360.75,525.549 1362.19,525.672C1364.22,525.844 1366.58,526.87 1367.73,530.045C1368.07,530.979 1368.35,532.546 1368.28,534.465C1368.18,537.409 1367.3,541.538 1365.9,544.253C1364,547.923 1360.96,549.571 1358.13,549.543C1354.82,549.511 1352.15,546.796 1352.19,543.485C1352.21,541.241 1353.46,539.294 1355.3,538.285L1355.94,535.212Z"/>
    </g>
    <g transform="matrix(1.34125,0,0,0.627866,-356.294,1905.89)">
        <path d="M1398.32,607.595C1419.24,607.786 1445.43,603.5 1470.43,598.956C1472.89,598.509 1474.71,593.879 1474.51,588.624C1474.3,583.369 1472.13,579.466 1469.67,579.913C1444.95,584.407 1419.04,588.671 1398.36,588.483C1395.89,588.461 1393.88,592.725 1393.87,597.999C1393.86,603.273 1395.85,607.573 1398.32,607.595Z"/>
    </g>
    <g transform="matrix(1,0,0,1,120.89,1686.54)">
        <path d="M1448.38,590.579C1447.41,589.504 1446.83,588.077 1446.84,586.516C1446.87,583.205 1449.58,580.539 1452.89,580.567C1456.16,580.594 1458.06,581.866 1459.26,583.215C1460.32,584.408 1460.99,585.888 1461.14,587.682C1461.29,589.274 1460.86,591.462 1460.01,593.805C1459.5,595.218 1458.64,596.758 1458.64,598.07C1458.62,613.591 1455.75,630.34 1455.76,646.817C1455.76,653.714 1462.47,685.663 1462.1,691.968C1461.77,697.608 1457.56,698.706 1455.66,698.69C1452.35,698.662 1449.68,695.952 1449.71,692.64C1449.71,691.975 1449.83,691.336 1450.03,690.74C1449.27,686.173 1443.76,653.143 1443.76,646.825C1443.75,630.339 1446.62,613.583 1446.64,598.054C1446.64,596.383 1447.05,594.489 1447.69,592.599L1448.38,590.579ZM1454.1,686.907L1454.05,686.923L1454.23,686.875L1454.1,686.907ZM1455.14,686.717C1454.84,686.744 1454.55,686.793 1454.27,686.865L1454.55,686.802C1454.64,686.786 1454.74,686.769 1454.84,686.752L1455.14,686.717ZM1455.27,686.705L1455.15,686.716L1455.42,686.698L1455.27,686.705ZM1455.46,686.695L1455.76,686.69C1455.66,686.69 1455.56,686.691 1455.46,686.695Z"/>
    </g>
    <g transform="matrix(1,0,0,1,120.89,1686.54)">
        <path d="M1599.27,658.955C1600.2,656.547 1602.64,654.935 1605.35,655.161C1607.32,655.325 1608.54,656.126 1609.31,656.824C1610.64,658.02 1611.32,659.504 1611.38,661.259C1611.42,662.425 1611.01,664.931 1608.37,667.245C1604.79,670.398 1592.92,677.101 1587.42,679.803C1585.4,680.791 1583.93,681.299 1583.43,681.399C1569.93,684.087 1551.88,683.086 1538.4,676.04C1528.63,670.929 1521.16,662.772 1518.76,650.886C1513.83,626.388 1531.25,600.066 1554.4,592.379C1556.66,591.63 1560.33,591.944 1563.94,593.425C1566.65,594.535 1569.36,596.155 1570.98,597.435C1572.34,598.506 1573.19,599.579 1573.6,600.295C1575.16,603.051 1574.49,605.354 1573.46,606.933C1572.71,608.079 1570.92,610.264 1566.79,609.725C1564.51,609.428 1562.7,607.888 1561.95,605.876C1561.14,605.387 1560.19,604.857 1559.42,604.539C1558.86,604.307 1557.99,604.063 1557.61,603.965C1540.11,610.103 1526.78,629.907 1530.53,648.515C1532.58,658.724 1540.4,664.647 1549.59,667.804C1559.65,671.259 1571.42,671.483 1580.69,669.705L1580.75,669.681C1583.73,668.378 1595.48,661.263 1599.27,658.955ZM1603.91,667.066L1603.98,667.075L1603.81,667.048L1603.91,667.066ZM1603.49,666.987L1603.65,667.017L1603.45,666.974L1603.24,666.917L1603.49,666.987ZM1603.11,666.882L1603.15,666.895L1603.03,666.857L1603.11,666.882Z"/>
    </g>
    <g transform="matrix(1,0,0,1,120.89,1686.54)">
        <path d="M1619.46,589.103C1617.31,588.068 1615.9,585.795 1616.08,583.271C1616.31,579.968 1619.19,577.478 1622.49,577.714C1624.37,577.848 1626.29,578.635 1628,580.455C1629.57,582.133 1631.23,585.406 1632.54,590.04C1635.86,601.774 1638.42,624.314 1642.59,643.768C1645.11,655.542 1648.05,666.16 1652.54,671.704C1654.62,674.277 1654.23,678.058 1651.65,680.143C1649.08,682.227 1645.3,681.831 1643.22,679.258C1638.5,673.442 1634.79,663.131 1631.95,651.165C1628.06,634.722 1625.57,615.039 1622.86,601.396C1622.01,597.095 1621.15,593.443 1620.19,590.792C1619.98,590.21 1619.67,589.533 1619.46,589.103Z"/>
    </g>
    <g transform="matrix(1,0,0,1,120.89,1686.54)">
        <path d="M1660.11,580.711C1657.72,579.817 1656.09,577.455 1656.23,574.778C1656.4,571.471 1659.23,568.928 1662.53,569.102C1663.91,569.175 1665.94,569.772 1668.07,571.724C1671.18,574.58 1676.45,582.509 1682.34,592.959C1695.25,615.828 1712.02,651.127 1717.62,666.348C1718.99,670.064 1719.72,672.828 1719.85,674.267C1719.96,675.525 1719.8,676.492 1719.6,677.165C1718.67,680.344 1715.34,682.169 1712.16,681.24C1709.45,680.447 1707.73,677.908 1707.85,675.207C1707.57,674.314 1705.87,669.007 1703.88,664.209C1696.89,647.318 1682.94,618.434 1671.89,598.855C1666.96,590.107 1662.77,583.272 1660.11,580.711Z"/>
    </g>
    <g transform="matrix(1,0,0,1,120.89,1686.54)">
        <path d="M1641.77,664.26C1645.77,664.505 1652.89,663.333 1661.37,661.22C1679.53,656.689 1704.53,648.076 1715.94,643.816C1719.05,642.658 1720.62,639.199 1719.47,636.096C1718.31,632.994 1714.85,631.415 1711.75,632.573C1700.6,636.733 1676.2,645.153 1658.46,649.576C1651.55,651.301 1645.77,652.483 1642.51,652.283C1639.2,652.081 1636.35,654.6 1636.15,657.905C1635.95,661.21 1638.47,664.058 1641.77,664.26Z"/>
    </g>
    <g transform="matrix(1,0,0,1,329.441,-611.724)">
        <path d="M586.61,1708.3C761.852,1709.17 944.352,1687.42 1121.98,1682.51C1484.31,1672.48 1847.6,1662.84 2210.05,1662.41C2213.36,1662.4 2216.05,1659.71 2216.05,1656.4C2216.04,1653.09 2213.35,1650.4 2210.04,1650.41C1847.48,1650.84 1484.09,1660.48 1121.65,1670.51C944.15,1675.42 761.783,1697.17 586.669,1696.3C583.358,1696.28 580.656,1698.96 580.639,1702.27C580.623,1705.58 583.298,1708.28 586.61,1708.3Z"/>
    </g>
    <g transform="matrix(1,0,0,1,329.441,-611.724)">
        <path d="M569.4,2029.54C712.091,2030.26 856.603,2016.73 1000.7,2020.95C1382.45,2032.14 1764.93,2029.86 2146.95,2029.54C2150.26,2029.54 2152.95,2026.85 2152.95,2023.53C2152.94,2020.22 2150.25,2017.54 2146.94,2017.54C1765.04,2017.86 1382.68,2020.14 1001.05,2008.96C856.857,2004.74 712.248,2018.26 569.46,2017.54C566.149,2017.52 563.447,2020.2 563.43,2023.51C563.413,2026.82 566.088,2029.52 569.4,2029.54Z"/>
    </g>
    <g transform="matrix(1,0,0,1,329.441,-611.724)">
        <path d="M566.531,2316.36C628.898,2316.68 690.62,2299.14 753.435,2296.3C852.293,2291.82 951.025,2287.49 1049.99,2284.83C1488.86,2273.02 1928.77,2299.85 2367.81,2299.15C2371.12,2299.14 2373.8,2296.45 2373.8,2293.14C2373.79,2289.83 2371.1,2287.14 2367.79,2287.15C1928.65,2287.85 1488.64,2261.02 1049.67,2272.83C950.628,2275.5 851.824,2279.83 752.892,2284.31C690.279,2287.14 628.76,2304.68 566.592,2304.36C563.281,2304.34 560.579,2307.02 560.562,2310.33C560.545,2313.64 563.22,2316.34 566.531,2316.36Z"/>
    </g>
    <g transform="matrix(0.869216,0,0,1,113.11,0)">
        <path d="M864.487,1940.62C1002.33,1947.03 1162.19,1905.17 1306.41,1897.61C1476.17,1888.71 1646.07,1887.19 1816.02,1880.42C2103.01,1868.99 2398.12,1888.08 2684.93,1900.51C2757.8,1903.66 2830.83,1909.66 2903.5,1914.84C2945.87,1917.85 2988.09,1929.59 3030.43,1929.15C3034.24,1929.11 3037.3,1926.39 3037.26,1923.08C3037.21,1919.77 3034.08,1917.11 3030.27,1917.15C2988.35,1917.59 2946.57,1905.86 2904.62,1902.88C2831.81,1897.69 2758.64,1891.68 2685.62,1888.52C2398.37,1876.08 2102.82,1856.98 1815.38,1868.43C1645.37,1875.2 1475.4,1876.73 1305.58,1885.63C1161.86,1893.17 1002.59,1935.02 865.224,1928.63C861.42,1928.46 858.166,1931 857.963,1934.3C857.759,1937.61 860.682,1940.44 864.487,1940.62Z"/>
    </g>
    <path d="M924.909,2170.08C984.515,2171.86 1045.26,2162.32 1104.79,2158.62C1167.92,2154.69 1231.54,2155.75 1294.76,2152.89C1413.53,2147.51 1532.97,2154.12 1651.8,2150.03C1918.48,2140.87 2185.75,2141.03 2452.3,2129.97C2553.44,2125.77 2655.18,2136.9 2755.08,2135.66C2758.39,2135.62 2761.05,2132.9 2761,2129.59C2760.96,2126.28 2758.24,2123.62 2754.93,2123.66C2654.92,2124.91 2553.06,2113.77 2451.8,2117.98C2185.28,2129.04 1918.04,2128.88 1651.39,2138.04C1532.52,2142.12 1413.03,2135.52 1294.22,2140.9C1230.93,2143.77 1167.24,2142.71 1104.05,2146.64C1044.88,2150.33 984.509,2159.85 925.267,2158.08C921.957,2157.99 919.189,2160.59 919.091,2163.9C918.992,2167.21 921.599,2169.98 924.909,2170.08Z"/>
    <g transform="matrix(1,0,0,1,439.699,38.183)">
        <path d="M457.313,2247C457.448,2243.79 460.107,2241.24 463.344,2241.26C464.349,2241.26 468.967,2241.86 469.335,2246.99C469.476,2248.95 468.396,2259.06 457.532,2258.99C454.22,2258.97 451.549,2256.27 451.57,2252.96C451.591,2249.74 454.138,2247.13 457.313,2247ZM457.461,2248.61C457.973,2251.54 460.105,2252.64 461.68,2253.03C459.583,2252.45 457.952,2250.74 457.461,2248.61Z"/>
    </g>
    <g transform="matrix(1,0,0,1,439.699,38.183)">
        <path d="M462.991,2249.47C461.288,2248.41 460.161,2246.51 460.175,2244.35C460.195,2241.04 462.901,2238.37 466.212,2238.39C468.531,2238.41 470.985,2239.39 472.877,2242.31C474.323,2244.54 475.679,2249.14 476.522,2255.54C479.259,2276.31 478.821,2319.59 480.926,2348.9C481.686,2359.47 482.609,2368.09 484.398,2372.61C485.017,2372.69 486.059,2372.81 486.909,2372.79C489.234,2372.75 492.029,2372.38 495.14,2371.81C509.182,2369.23 528.982,2362.62 542.519,2358.9C549.082,2357.1 554.364,2356 557.251,2356C561.93,2356 571.178,2358.92 577.07,2361.63C580.271,2363.1 582.584,2364.68 583.464,2365.64C585.822,2368.19 585.533,2370.74 584.888,2372.42C584.373,2373.75 582.817,2376.62 578.005,2376.59C575.434,2376.58 573.246,2374.95 572.405,2372.67C568.075,2370.57 560.865,2368 557.251,2368C553.604,2368 545.424,2370.48 535.779,2373.34C519.737,2378.08 500.114,2384.07 488.714,2384.73C484.915,2384.95 481.813,2384.58 479.626,2383.76C476.943,2382.75 475.169,2381.09 474.138,2379.04C471.654,2374.11 469.933,2363.34 468.957,2349.76C466.868,2320.67 467.341,2277.72 464.625,2257.11C464.225,2254.07 463.366,2250.82 462.991,2249.47Z"/>
    </g>
    <g transform="matrix(1,0,0,1,439.699,38.183)">
        <path d="M578.27,2261.13C577.945,2260.38 577.767,2259.56 577.771,2258.7C577.788,2255.39 580.489,2252.72 583.801,2252.73C586.315,2252.74 587.952,2253.73 589.088,2254.91C590.497,2256.37 591.471,2258.64 590.921,2261.69C590.368,2264.75 586.907,2270.33 585.618,2272.9C579.391,2285.33 577.887,2316.47 586.229,2337.65C591.085,2349.98 599.539,2358.93 613.68,2356.11C636.947,2351.49 650.806,2341.71 657.569,2329.6C667.53,2311.77 661.919,2289.56 650.425,2274.43C638.479,2258.71 619.523,2250.21 604.757,2265.74C602.486,2268.14 602.063,2271.09 601.252,2273.81C600.32,2276.94 599.164,2279.93 597.061,2282.56C594.992,2285.14 591.213,2285.56 588.628,2283.49C586.042,2281.43 585.622,2277.65 587.691,2275.06C589.196,2273.18 589.607,2270.87 590.27,2268.61C591.409,2264.72 592.845,2260.86 596.06,2257.48C611.737,2240.99 630.877,2242.62 646.609,2253.96C667.101,2268.74 681.163,2300.9 671.551,2327.74C665.189,2345.5 648.622,2361.4 616.021,2367.88C595.322,2372 582.171,2360.09 575.064,2342.05C565.463,2317.67 567.723,2281.83 574.889,2267.53C575.523,2266.26 577.23,2263.06 578.27,2261.13Z"/>
    </g>
    <g transform="matrix(1,0,0,1,439.699,38.183)">
        <path d="M748.035,2277.7C749.118,2286.96 751.994,2299.91 757.251,2309.31C760.764,2315.59 765.188,2320.54 771.769,2318.9C774.656,2318.18 776.88,2316.15 778.707,2313.41C781.064,2309.87 782.716,2305.24 783.87,2300C787.666,2282.78 785.904,2259.42 781.108,2243.34C779.627,2238.37 777.881,2234.12 775.852,2231.11C775.235,2230.2 774.608,2229.42 773.939,2228.82C773.579,2228.5 773.286,2228.16 772.891,2228.14C772.143,2228.1 771.61,2228.87 770.805,2229.75C769.521,2231.15 768.247,2233.12 766.933,2235.67C765.415,2238.61 761.793,2239.77 758.85,2238.25C755.907,2236.73 754.75,2233.11 756.267,2230.17C761.469,2220.08 767.385,2216.46 772.155,2216.16C777.415,2215.83 782.947,2219.24 787.163,2226.6C796.766,2243.35 801.565,2282.88 794.364,2307.37C790.753,2319.65 784.013,2328.22 774.668,2330.55C762.624,2333.54 753.208,2326.66 746.779,2315.17C746.191,2314.12 745.629,2313.03 745.093,2311.91C744.913,2312.67 744.721,2313.4 744.518,2314.11C742.221,2322.13 737.996,2327.13 733.28,2328.36C730.691,2329.03 727.743,2328.85 724.451,2327.21C718.447,2324.22 714.304,2317.84 711.779,2310.07C708.717,2300.66 707.894,2289.22 706.799,2282.68C705.113,2272.6 704.86,2258.06 702.385,2247.46C702.043,2247.5 701.695,2247.52 701.343,2247.52C698.031,2247.51 695.354,2244.81 695.368,2241.5C695.376,2239.56 696.304,2237.84 697.736,2236.75L698.082,2233.13C697.981,2230.16 700.08,2227.55 703.012,2227.03C705.944,2226.49 708.821,2228.2 709.768,2231.02C709.768,2231.02 711.693,2236.76 712.65,2239.64C716.369,2250.79 716.633,2268.74 718.635,2280.7C719.659,2286.82 720.325,2297.55 723.191,2306.36C724.622,2310.76 726.399,2314.78 729.8,2316.47C729.929,2316.54 730.108,2316.6 730.249,2316.65C730.472,2316.4 730.916,2315.87 731.154,2315.46C731.88,2314.19 732.466,2312.61 732.982,2310.8C735.442,2302.22 736.095,2289.52 736.125,2278.86C735.718,2275.46 735.524,2272.49 735.523,2270.23C735.52,2266.41 735.523,2258.75 735.523,2258.75C735.524,2255.52 738.089,2252.87 741.321,2252.76C744.554,2252.65 747.291,2255.12 747.509,2258.35C747.509,2258.35 748.055,2266.82 748.035,2277.7Z"/>
    </g>
</svg>
