<?xml version="1.0" encoding="UTF-8" standalone="no"?>
<!DOCTYPE svg PUBLIC "-//W3C//DTD SVG 1.1//EN" "http://www.w3.org/Graphics/SVG/1.1/DTD/svg11.dtd">
<svg width="100%" height="100%" viewBox="0 0 3508 2481" version="1.1" xmlns="http://www.w3.org/2000/svg" xmlns:xlink="http://www.w3.org/1999/xlink" xml:space="preserve" xmlns:serif="http://www.serif.com/" style="fill-rule:evenodd;clip-rule:evenodd;stroke-linejoin:round;stroke-miterlimit:2;">
    <g transform="matrix(2.28343,0.462091,-0.462091,2.28343,3683.89,1890.02)">
        <g transform="matrix(1,0,0,1,-1754,-1240.5)">
            <path d="M667.522,1221.89C667.229,1222.72 666.892,1223.62 666.645,1224.15C665.824,1225.88 664.744,1227.17 663.662,1228.03C661.645,1229.64 659.341,1230.32 656.692,1229.92C655.119,1229.69 653.039,1229.02 650.826,1226.81C647.26,1223.26 644.496,1216.2 643.728,1206.34C642.343,1188.56 646.297,1159.92 653.827,1131.84C660.277,1107.78 669.339,1084.15 679.609,1068.05C687.575,1055.56 696.667,1047.49 705.524,1045.29C716.071,1042.66 725.744,1046.78 734.461,1056.84C744.468,1068.38 753.555,1088.75 762.802,1112.08C775.83,1144.95 789.447,1183.95 808.454,1209.85C819.693,1225.16 832.677,1235.85 849.263,1235.85C857.309,1235.85 864.962,1231.59 872.371,1224.77C880.926,1216.89 888.967,1205.63 896.433,1192.31C921.854,1146.96 940.193,1078.12 945.127,1030.11C947.124,1010.67 947.085,994.832 943.938,985.91C942.469,981.746 944.657,977.173 948.821,975.705C952.985,974.236 957.558,976.424 959.027,980.588C962.67,990.919 963.356,1009.23 961.043,1031.74C955.92,1081.6 936.785,1153.05 910.39,1200.14C900.238,1218.25 888.93,1232.82 877.058,1241.65C868.122,1248.31 858.773,1251.85 849.263,1251.85C827.74,1251.85 810.139,1239.18 795.555,1219.31C775.831,1192.44 761.447,1152.08 747.928,1117.97C739.477,1096.65 731.515,1077.87 722.369,1067.31C718.308,1062.63 714.301,1059.59 709.386,1060.82C703.553,1062.27 698.346,1068.42 693.099,1076.65C683.556,1091.61 675.275,1113.62 669.281,1135.98C663.255,1158.45 659.555,1181.29 659.448,1197.82C659.433,1200.12 659.487,1202.29 659.623,1204.3C660.61,1203.86 661.703,1203.62 662.852,1203.62C667.267,1203.62 670.852,1207.2 670.852,1211.62C670.852,1210.73 670.315,1209.83 670.315,1209.83C670.315,1209.83 671.652,1216.85 671.1,1218.04C670.781,1218.73 670.033,1220.71 667.522,1221.89Z"/>
            <path d="M874.487,1045.12C871.513,1063.3 873.326,1088.29 874.629,1106.4C879.989,1180.85 894.624,1257.67 911.694,1330.31C912.704,1334.61 910.034,1338.92 905.736,1339.93C901.438,1340.94 897.128,1338.27 896.118,1333.97C878.857,1260.52 864.09,1182.83 858.671,1107.55C857.28,1088.24 855.527,1061.54 858.746,1042.22C859.355,1038.57 861.414,1031.15 863.424,1027.61C864.756,1025.27 866.398,1023.85 867.694,1023.12C869.898,1021.88 872.099,1021.71 874.204,1022.26C876.093,1022.75 878.476,1023.92 880.156,1027.26C881.702,1030.34 883.4,1032.07 883.822,1032.93C885.824,1037.01 884.562,1039.98 882.834,1042.07C881.934,1043.15 879.882,1045.31 875.118,1045.17C874.905,1045.16 874.694,1045.14 874.487,1045.12Z"/>
        </g>
    </g>
</svg>
