<?xml version="1.0" encoding="UTF-8" standalone="no"?>
<!DOCTYPE svg PUBLIC "-//W3C//DTD SVG 1.1//EN" "http://www.w3.org/Graphics/SVG/1.1/DTD/svg11.dtd">
<svg width="100%" height="100%" viewBox="0 0 3508 2481" version="1.1" xmlns="http://www.w3.org/2000/svg" xmlns:xlink="http://www.w3.org/1999/xlink" xml:space="preserve" xmlns:serif="http://www.serif.com/" style="fill-rule:evenodd;clip-rule:evenodd;stroke-linejoin:round;stroke-miterlimit:2;">
    <g transform="matrix(2.36818,0,0,2.98537,-4782.18,-138.97)">
        <path d="M2766.18,158.624C2766.18,158.325 2766.16,157.895 2766.1,157.611C2765.96,156.879 2765.77,156.186 2765.71,155.709C2765.48,153.638 2767.1,152.918 2768.49,152.918C2770.48,152.918 2771.93,153.824 2772.7,155.562C2773.56,157.486 2773.33,161.008 2773.86,163.142C2779.15,184.312 2776.93,210.329 2779.66,232.171C2791.72,328.383 2785.43,428.01 2785.43,524.927C2785.43,570.115 2779.37,620.77 2788.28,665.153C2788.91,668.256 2791.97,673.168 2792.62,674.312C2793.2,675.323 2792.85,676.03 2792.82,676.1C2792.36,677.063 2791.49,677.429 2790.37,677.404C2790.06,677.397 2789.29,677.389 2788.55,676.73C2788.47,676.66 2788.04,676.155 2787.22,675.029C2787,674.711 2786.89,674.365 2786.89,674.023C2785.62,671.766 2783.78,668.253 2783.28,665.785C2774.33,621.202 2780.36,570.319 2780.36,524.927C2780.36,428.142 2786.66,328.65 2774.62,232.568C2771.9,210.849 2774.15,184.975 2768.89,163.924C2768.77,163.447 2768.69,162.901 2768.63,162.32C2768.03,162.527 2767.3,162.649 2766.41,162.629C2765.01,162.598 2763.91,161.672 2763.95,160.563C2763.98,159.553 2764.95,158.736 2766.18,158.624Z"/>
    </g>
    <g transform="matrix(2.36818,0,0,2.98537,-4782.18,-138.97)">
        <path d="M2571.33,423.634C2574.59,423.75 2579.12,422.879 2584.6,421.131C2592.27,418.684 2601.95,414.524 2612.7,409.35C2653.94,389.493 2711.13,354.595 2729.58,345.961C2804.68,310.822 2884.52,274.651 2965.15,254.318C2966.48,253.982 2967.22,252.851 2966.8,251.793C2966.38,250.736 2964.95,250.151 2963.62,250.487C2882.64,270.909 2802.43,307.208 2727.01,342.499C2708.55,351.137 2651.33,386.048 2610.07,405.914C2599.6,410.954 2590.18,415.019 2582.71,417.402C2578.09,418.875 2574.3,419.716 2571.55,419.619C2570.16,419.569 2568.97,420.429 2568.91,421.537C2568.85,422.645 2569.93,423.585 2571.33,423.634Z"/>
    </g>
    <g transform="matrix(2.36818,0,0,2.98537,-4782.18,-138.97)">
        <path d="M2580.6,416.705C2580.44,416.43 2580.36,416.124 2580.38,415.803C2580.44,414.695 2581.62,413.834 2583.02,413.882C2586.17,413.991 2587.18,415.29 2587.42,416.168C2587.62,416.945 2587.37,417.939 2586.3,418.826C2585.12,419.808 2582.6,420.796 2580.01,420.768C2578.61,420.753 2577.49,419.84 2577.51,418.731C2577.53,417.622 2578.68,416.734 2580.08,416.749C2580.24,416.751 2580.42,416.735 2580.6,416.705Z"/>
    </g>
    <g transform="matrix(2.36818,0,0,2.98537,-4782.18,-138.97)">
        <path d="M2639.06,558.077C2639.05,557.742 2639.02,557.332 2638.94,556.967C2638.52,555.139 2637.5,552.694 2636.1,549.847C2628.69,534.842 2610.74,509.337 2607.76,502.652C2602.14,490.055 2593.67,455.898 2585.28,436.404C2583.22,431.605 2581.19,427.724 2579.18,425.371C2578.64,424.741 2578.13,424.236 2577.6,423.895C2577.41,423.769 2577.25,423.641 2577.06,423.634C2575.67,423.585 2574.58,422.646 2574.64,421.538C2574.71,420.43 2575.89,419.57 2577.29,419.619C2578.71,419.669 2580.25,420.234 2581.72,421.462C2583.25,422.729 2584.84,424.823 2586.41,427.578C2595.92,444.256 2606.1,486.887 2612.54,501.311C2616.03,509.128 2639.9,542.632 2643.63,555.135C2644.09,556.676 2644.26,557.955 2644.15,558.904C2644.01,560.122 2643.43,560.976 2642.66,561.52C2641.79,562.14 2640.57,562.493 2638.89,562.245C2637.07,561.977 2634.14,560.71 2630.04,557.969C2628.97,557.255 2628.83,555.986 2629.73,555.137C2630.64,554.289 2632.24,554.181 2633.3,554.895C2635.51,556.368 2637.25,557.362 2638.61,557.917C2638.75,557.974 2638.91,558.028 2639.06,558.077Z"/>
    </g>
    <g transform="matrix(2.36818,0,0,2.98537,-4782.18,-138.97)">
        <path d="M2572.9,417.563C2572.19,417.185 2571.74,416.529 2571.78,415.801C2571.84,414.692 2573.02,413.833 2574.42,413.882C2575.55,413.922 2576.49,414.332 2577.18,415.18C2577.78,415.931 2578.16,417.416 2578.08,419.329C2577.86,423.981 2575.5,431.9 2575.18,433.462C2571.81,450.204 2561.64,467.297 2552.3,484.319C2545.72,496.305 2539.55,508.253 2536.65,520.026C2537.87,519.88 2539.07,520.462 2539.44,521.427C2540.26,523.553 2539.27,527.796 2537.82,531.086C2536.76,533.461 2535.41,535.319 2534.65,535.828C2533.35,536.703 2532.13,536.512 2531.25,536.061C2530.76,535.809 2529.86,535.121 2529.85,533.538C2529.78,516.932 2538.25,499.846 2547.66,482.715C2556.82,466.01 2566.87,449.256 2570.18,432.827C2570.49,431.319 2572.81,423.676 2573.01,419.183C2573.04,418.625 2572.96,417.941 2572.9,417.563Z"/>
    </g>
    <g transform="matrix(2.36818,0,0,2.98537,-4782.18,-138.97)">
        <path d="M2534.93,517.408C2534.63,517.058 2534.46,516.631 2534.49,516.175C2534.56,515.067 2535.75,514.214 2537.15,514.27C2538.98,514.344 2539.88,514.998 2540.33,515.601C2540.75,516.153 2540.93,516.842 2540.65,517.668C2540.37,518.468 2539.3,519.708 2537.66,521.074C2534.9,523.391 2530.38,526.448 2528.85,528.738C2524.49,535.252 2516.37,549.738 2512.52,555.237C2511.53,556.653 2510.67,557.563 2510.2,557.879C2509.44,558.389 2508.71,558.462 2508.2,558.439C2506.8,558.377 2505.73,557.427 2505.81,556.32C2505.86,555.651 2506.31,555.076 2506.97,554.74L2507.01,554.706C2509.97,551.377 2519.52,534.112 2524.38,526.853C2525.9,524.574 2529.97,521.542 2533.03,519.088C2533.68,518.572 2534.39,517.916 2534.93,517.408Z"/>
    </g>
    <g transform="matrix(2.36818,0,0,2.98537,-4782.18,-138.97)">
        <path d="M2499.53,555.566C2498.16,555.478 2497.12,554.539 2497.2,553.448C2497.29,552.34 2498.49,551.494 2499.88,551.558C2500.57,551.589 2501.46,551.786 2502.48,552.212C2504.04,552.864 2506.16,554.145 2508.57,555.797C2515.87,560.825 2526.13,569.482 2530.95,572.01C2545.25,579.515 2569.12,584.346 2591.15,584.43C2605.66,584.486 2619.38,582.501 2628.96,577.722C2633.63,575.387 2637.94,571.345 2635.07,565.802C2634.53,564.777 2635.15,563.601 2636.44,563.179C2637.74,562.756 2639.22,563.246 2639.75,564.272C2643.78,572.04 2638.21,577.852 2631.65,581.124C2621.38,586.252 2606.69,588.509 2591.13,588.45C2568.07,588.361 2543.12,583.217 2528.15,575.363C2523.23,572.78 2512.71,563.97 2505.24,558.833C2503.47,557.614 2501.89,556.613 2500.63,556C2500.21,555.798 2499.58,555.585 2499.53,555.566Z"/>
    </g>
    <g transform="matrix(2.13504,0,0,2.10667,-4112.47,95.4167)">
        <path d="M2966.75,269.545C2965.42,269.3 2964.42,268.11 2964.44,266.698C2964.47,265.127 2965.75,263.871 2967.3,263.896C2969.34,263.928 2970.87,264.945 2971.82,267.014C2972.6,268.724 2972.89,271.583 2972.54,275.309C2970.62,295.967 2950.53,348.249 2946.68,356.876C2930.79,392.475 2908.36,433.865 2900.69,474.452C2900.8,474.61 2900.9,474.782 2900.98,474.967C2904.32,482.581 2903.09,490.697 2901.18,496.351C2899.85,500.28 2898.18,503.033 2897.54,503.765C2896.1,505.418 2894.49,504.848 2894.01,504.618C2893.3,504.278 2892.38,503.593 2892.38,501.993C2892.18,452.272 2921.75,398.921 2941.55,354.529C2945.32,346.09 2965.07,294.981 2966.94,274.775C2967.11,273.012 2967.14,271.519 2966.96,270.36C2966.92,270.091 2966.82,269.759 2966.75,269.545Z"/>
    </g>
    <g transform="matrix(2.13504,0,0,2.10667,-4112.47,95.4167)">
        <path d="M2972.63,278.173C2971.23,277.994 2970.16,276.768 2970.18,275.303C2970.2,273.732 2971.48,272.476 2973.03,272.5C2974.47,272.523 2975.88,273.176 2977.1,274.659C2978.18,275.966 2979.19,278.129 2980.03,280.977C2984.67,296.828 2985.22,336.927 2987.17,343.41C2990.3,353.802 3017.14,412.238 3019.22,446.087C3019.92,457.392 3017.7,466.11 3011.95,470.311C3009.32,472.237 3005.93,473.316 3001.62,473.234C3000.07,473.204 2998.83,471.904 2998.86,470.333C2998.89,468.761 3000.17,467.509 3001.72,467.539C3011.99,467.734 3014.37,458.785 3013.61,446.441C3011.56,413.007 2984.89,355.337 2981.8,345.072C2980.08,339.364 2979.39,307.76 2976.13,289.26C2975.47,285.565 2974.73,282.425 2973.82,280.21C2973.47,279.367 2972.82,278.428 2972.63,278.173Z"/>
    </g>
    <g transform="matrix(2.13504,0,0,2.10667,-4112.47,95.4167)">
        <path d="M2878.29,456.025C2881.9,456.09 2885.23,458.473 2888.74,461.954C2894.85,468.02 2901.16,477.435 2908.79,486.803C2918.75,499.027 2930.89,511.116 2947.29,516.34C2963.71,521.569 2984.5,520.026 3011.79,504.475C3029.74,494.244 3050.3,473.21 3058.73,454.352C3059.37,452.92 3058.74,451.231 3057.33,450.582C3055.91,449.934 3054.25,450.57 3053.61,452.002C3045.61,469.892 3026.07,489.804 3009.03,499.51C2983.6,514.005 2964.28,515.78 2948.98,510.906C2933.65,506.027 2922.43,494.593 2913.13,483.177C2905.35,473.634 2898.89,464.064 2892.67,457.885C2887.95,453.202 2883.25,450.418 2878.39,450.329C2876.84,450.301 2875.56,451.554 2875.53,453.126C2875.5,454.697 2876.74,455.996 2878.29,456.025Z"/>
    </g>
    <g transform="matrix(2.36818,0,0,2.98537,-4782.18,-138.97)">
        <path d="M2473.51,555.548C2472.24,555.385 2471.31,554.476 2471.39,553.435C2471.48,552.328 2472.69,551.487 2474.08,551.559C2476.37,551.676 2477.89,552.852 2478.61,554.929C2479.1,556.326 2479.2,558.257 2479.32,560.186C2479.41,561.715 2479.49,563.247 2480.04,564.34C2487.75,579.738 2491.43,597.103 2498.9,611.25C2506.03,624.754 2516.71,635.249 2538.55,637.665C2593.26,643.718 2635.24,613.53 2647.41,588.256C2652.02,578.673 2652.41,569.834 2646.95,564.251C2643.41,560.631 2637.41,558.531 2628.77,558.442C2627.37,558.428 2626.25,557.515 2626.27,556.406C2626.29,555.297 2627.44,554.408 2628.84,554.423C2639.41,554.532 2646.62,557.357 2650.95,561.787C2657.31,568.279 2657.5,578.545 2652.14,589.69C2639.37,616.235 2595.32,648.004 2537.85,641.646C2513.89,638.996 2502.04,627.614 2494.22,612.803C2486.74,598.635 2483.06,581.246 2475.33,565.824C2474.18,563.534 2474.43,559.696 2473.96,556.938C2473.89,556.54 2473.8,556.173 2473.68,555.853C2473.64,555.76 2473.57,555.633 2473.51,555.548Z"/>
    </g>
    <g transform="matrix(2.13504,0,0,2.10667,-4112.47,95.4167)">
        <path d="M2872.43,476.097C2870.94,476.006 2869.76,474.733 2869.79,473.203C2869.82,471.631 2871.1,470.378 2872.65,470.407C2874.63,470.443 2876.63,471.656 2878.25,474.454C2880.61,478.544 2882.59,486.884 2884.77,497.488C2888.92,517.653 2894.09,546.356 2906.01,568.105C2913.66,582.047 2924.09,593.122 2939.07,596.729C2951.91,599.82 2967.36,598.063 2982.7,593.003C3005.97,585.329 3029.01,570.025 3042.53,551.852C3051.25,540.126 3056,527.217 3053.88,514.435C3052.47,505.956 3048.04,497.577 3039.88,489.651C3038.76,488.563 3038.72,486.759 3039.8,485.624C3040.87,484.49 3042.65,484.452 3043.77,485.54C3052.95,494.46 3057.84,503.949 3059.42,513.491C3061.78,527.741 3056.74,542.209 3047.02,555.28C3032.87,574.302 3008.79,590.387 2984.44,598.42C2968.03,603.831 2951.51,605.576 2937.78,602.271C2921.23,598.288 2909.54,586.266 2901.1,570.872C2888.9,548.619 2883.51,519.282 2879.27,498.651C2877.52,490.148 2875.99,483.179 2874.19,478.954C2873.8,478.029 2873.4,477.257 2872.97,476.671C2872.81,476.45 2872.52,476.176 2872.43,476.097Z"/>
    </g>
    <g transform="matrix(2.36818,0,0,2.98537,-4782.18,-138.97)">
        <path d="M3036.09,504.805Z"/>
    </g>
    <g transform="matrix(2.36818,0,0,2.98537,-4782.18,-138.97)">
        <path d="M3192.38,690.013C3191.48,689.889 3188.06,689.435 3184.13,689.135C3159.5,687.254 3090.74,684.699 3024.89,684.699C2907.99,684.699 2789.77,694.006 2674.04,710.47C2645.1,714.588 2600.07,726.858 2559.21,735.569C2531.6,741.453 2505.87,745.698 2488.11,744.872C2486.72,744.807 2485.65,743.856 2485.73,742.748C2485.81,741.641 2487.01,740.795 2488.41,740.86C2505.77,741.667 2530.91,737.439 2557.89,731.687C2598.9,722.945 2644.11,710.646 2673.15,706.514C2789.17,690.008 2907.7,680.68 3024.89,680.68C3099.26,680.68 3177.35,683.942 3191.86,685.819C3193.8,686.069 3194.93,686.446 3195.29,686.659C3196.44,687.344 3196.5,688.172 3196.31,688.822C3195.99,689.903 3194.63,690.578 3193.27,690.328C3192.94,690.268 3192.64,690.159 3192.38,690.013ZM3191.31,688.36L3191.31,688.381L3191.31,688.342L3191.31,688.36ZM3191.31,688.212L3191.31,688.228L3191.31,688.221L3191.32,688.179L3191.31,688.212ZM3191.34,688.065L3191.33,688.09L3191.34,688.045L3191.34,688.065Z"/>
    </g>
    <g transform="matrix(2.36818,0,0,2.98537,-4782.18,-138.97)">
        <path d="M2246.48,532.768C2245.47,528.931 2244.8,525.284 2244.8,522.062C2244.8,521.374 2245.09,520.837 2245.53,520.416C2246.05,519.911 2246.85,519.545 2247.85,519.453C2249.33,519.317 2251.31,519.938 2252.17,520.798C2252.6,521.223 2252.97,521.827 2253.17,522.622C2253.45,523.756 2253.43,525.465 2253.06,527.558C2252.77,529.146 2252.29,530.983 2251.65,532.963C2254.32,542.739 2259.28,553.696 2261.32,561.821C2262.13,565.034 2265.26,571.082 2267.02,575.138C2267.93,577.233 2268.46,578.904 2268.43,579.656C2268.38,581.13 2267.28,581.719 2266.31,581.915C2265.72,582.034 2264.33,582.067 2262.74,580.793C2261.76,580.005 2261.76,578.732 2262.76,577.951L2262.81,577.911C2262.64,577.449 2262.44,576.939 2262.23,576.45C2260.4,572.237 2257.19,565.943 2256.35,562.606C2254.76,556.253 2251.45,548.194 2248.78,540.283C2247.06,544.065 2244.95,547.91 2242.6,551.262C2239.41,555.821 2235.73,559.459 2232.1,561.06C2229.02,562.418 2225.92,562.522 2222.94,561.036C2222.37,560.755 2221.69,560.254 2220.97,559.523C2219.76,558.293 2218.26,556.271 2216.65,553.839C2212.52,547.607 2207.55,538.507 2204.59,534.242C2203.46,536.701 2202.68,540.284 2201.97,544.2C2201.71,545.645 2201.47,547.133 2201.24,548.634C2201.12,549.968 2200.89,551.449 2200.61,553.025C2199.8,558.894 2199.11,564.459 2198.15,567.766C2198.06,568.805 2198.01,569.822 2198.01,570.807L2198.01,576.543C2198.01,577.606 2196.97,578.486 2195.63,578.55C2194.3,578.614 2193.13,577.84 2192.97,576.785C2192.97,576.785 2192.05,570.383 2193.04,567.423C2193.08,567.32 2193.11,567.214 2193.14,567.105C2193.6,562.417 2194.76,557.366 2195.54,553.025C2195.76,551.435 2195.98,549.815 2196.22,548.207C2196.32,546.989 2196.32,545.923 2196.14,545.062C2196.07,544.76 2195.99,544.492 2195.86,544.268C2195.82,544.185 2195.78,544.102 2195.66,544.101C2194.26,544.083 2193.15,543.168 2193.17,542.059C2193.19,540.95 2194.35,540.064 2195.74,540.082C2196.42,540.09 2197.04,540.178 2197.61,540.345C2197.68,539.988 2197.76,539.636 2197.84,539.291C2198.89,534.829 2200.33,531.206 2202.15,529.4C2202.76,528.792 2203.53,528.55 2204.39,528.571C2204.97,528.586 2205.98,528.799 2206.92,529.702C2209.41,532.078 2215.97,544.171 2221.13,551.969C2222.38,553.849 2223.54,555.464 2224.53,556.584C2224.97,557.081 2225.31,557.47 2225.63,557.632C2227.37,558.5 2229.16,557.964 2230.95,556.841C2233.48,555.247 2235.93,552.519 2238.17,549.311C2241.7,544.268 2244.68,538.042 2246.48,532.768Z"/>
    </g>
    <g transform="matrix(2.36818,0,0,2.98537,-4782.18,-138.97)">
        <path d="M2280.7,535.314C2281.65,535.66 2282,536.464 2282.28,537.401C2282.71,538.888 2282.75,540.713 2282.77,542.61C2282.79,545.195 2282.75,547.898 2283.26,550.205C2283.67,552.035 2284.43,553.637 2285.66,554.864C2287.87,557.054 2290.22,557.836 2292.43,557.795C2295.44,557.739 2298.56,555.939 2301.1,552.905C2304.26,549.135 2306.73,543.477 2307.7,538.563C2308.39,535.041 2308.25,531.881 2307.26,529.917C2304.24,523.924 2295.21,520.049 2287.62,520.049C2285.25,520.049 2281.6,521.646 2278.66,523.843C2277.03,525.063 2275.6,526.43 2274.7,527.66C2273.91,528.731 2273.51,529.747 2273.48,530.562C2273.44,531.67 2274.54,532.596 2275.94,532.627C2277.34,532.659 2278.51,531.784 2278.55,530.675C2278.56,530.389 2278.8,530.061 2279.08,529.684C2279.77,528.741 2280.88,527.705 2282.14,526.77C2283.39,525.832 2284.79,524.994 2286.07,524.48C2286.65,524.25 2287.17,524.068 2287.62,524.068C2293.36,524.068 2300.27,526.88 2302.56,531.409C2303.3,532.893 2303.21,535.285 2302.69,537.946C2301.83,542.306 2299.68,547.337 2296.88,550.681C2296.05,551.67 2295.18,552.504 2294.25,553.085C2293.62,553.481 2292.99,553.764 2292.32,553.776C2291.39,553.793 2290.55,553.273 2289.62,552.354C2288.42,551.158 2288.11,549.359 2287.95,547.413C2287.76,545.023 2287.9,542.418 2287.76,540.091C2287.66,538.314 2287.39,536.681 2286.8,535.354C2286.03,533.636 2284.74,532.364 2282.81,531.66C2281.53,531.197 2280.03,531.641 2279.45,532.649C2278.86,533.658 2279.42,534.851 2280.7,535.314Z"/>
    </g>
    <g transform="matrix(2.36818,0,0,2.98537,-4782.18,-138.97)">
        <path d="M2324.31,503.636C2324.61,496.657 2325.43,489.758 2327.18,484.001C2329.62,475.963 2334.05,470.122 2340.72,468.475C2345.24,467.359 2350.97,468.047 2358.1,471.597C2363.87,474.473 2365.79,478.802 2365.47,483.951C2365.19,488.511 2363.07,493.769 2360.65,499.082C2357.93,505.063 2354.82,511.118 2354.05,516.245C2353.61,519.154 2353.89,521.73 2355.85,523.672C2356.27,524.089 2357,524.072 2357.8,524.062C2359.33,524.044 2361.11,523.728 2362.93,523.396C2365.49,522.928 2368.12,522.421 2370.35,522.349C2372.32,522.286 2374.04,522.559 2375.37,523.225C2378.04,524.555 2380.11,526.857 2382.32,528.851C2383.85,530.237 2385.42,531.524 2387.81,531.477C2389.21,531.451 2390.37,532.329 2390.41,533.438C2390.44,534.547 2389.33,535.469 2387.93,535.496C2383.95,535.573 2381.07,533.813 2378.51,531.504C2376.63,529.803 2374.96,527.764 2372.68,526.629C2371.69,526.138 2370.25,526.326 2368.66,526.532C2366.39,526.826 2363.9,527.384 2361.6,527.733C2359.38,528.071 2357.3,528.202 2355.63,527.928C2354.09,527.675 2352.83,527.109 2351.89,526.182C2349.13,523.444 2348.39,519.866 2349.01,515.765C2349.83,510.379 2353.02,504 2355.88,497.717C2358.12,492.81 2360.15,487.967 2360.41,483.756C2360.63,480.135 2359.46,477.024 2355.4,475.001C2349.96,472.291 2345.67,471.461 2342.22,472.313C2339.78,472.916 2337.86,474.368 2336.28,476.358C2334.47,478.631 2333.12,481.58 2332.1,484.943C2329.13,494.72 2328.93,507.851 2329.35,518.95C2330.77,528.433 2331.66,540.155 2332.55,546.454C2333.17,548.382 2333.83,550.362 2334.36,551.939C2334.87,552.576 2335.43,553.226 2335.83,553.788C2336.48,554.692 2336.81,555.504 2336.82,556.02C2336.85,556.821 2336.47,557.418 2335.87,557.853C2335.41,558.187 2334.74,558.487 2333.7,558.487C2333.14,558.487 2332.45,558.361 2331.8,557.878C2331.4,557.582 2330.75,556.775 2330.18,555.528C2329.82,554.721 2329.41,553.676 2329,552.504C2328.73,552.056 2328.51,551.631 2328.39,551.256C2328.22,550.764 2328.06,550.041 2327.9,549.126C2326.57,544.786 2325.41,540.151 2325.41,539.269C2325.41,535.949 2324.68,528.389 2324.34,519.411C2324.07,517.616 2323.77,515.905 2323.46,514.33C2322.87,511.388 2322.21,508.952 2321.42,507.423C2321.28,507.146 2321.03,506.807 2320.91,506.654C2319.83,506.289 2319.18,505.358 2319.42,504.407C2319.7,503.32 2321.03,502.615 2322.41,502.834C2323.04,502.936 2323.7,503.184 2324.31,503.636Z"/>
    </g>
    <g transform="matrix(2.36818,0,0,2.98537,-4782.18,-138.97)">
        <path d="M2397.37,457.302C2396.97,456.908 2396.76,456.394 2396.83,455.851C2396.96,454.747 2398.2,453.938 2399.59,454.045C2400.45,454.111 2401.94,454.727 2402.35,456.484C2402.83,458.51 2402.46,463.566 2402.46,464.695C2402.46,473.086 2400.05,488.726 2402.04,501.194C2402.67,505.14 2403.74,508.756 2405.54,511.665C2407.16,514.283 2409.35,516.309 2412.45,517.337C2418.45,519.329 2425.43,517.507 2431.45,513.839C2440.94,508.061 2448.16,497.561 2445.63,488.009C2445.34,486.924 2446.22,485.857 2447.58,485.629C2448.95,485.4 2450.3,486.096 2450.59,487.181C2453.51,498.183 2445.46,510.372 2434.54,517.027C2426.96,521.648 2418.05,523.555 2410.49,521.044C2402.47,518.383 2398.49,510.898 2397.01,501.701C2394.99,489.059 2397.4,473.202 2397.4,464.695C2397.4,463.857 2397.64,460.723 2397.52,458.497C2397.49,458.085 2397.42,457.585 2397.37,457.302ZM2397.94,457.714C2398.3,457.941 2398.73,458.017 2399.1,458.046C2398.67,458.012 2398.27,457.894 2397.94,457.714Z"/>
    </g>
    <g transform="matrix(2.36818,0,0,2.98537,-4782.18,-138.97)">
        <path d="M2398.75,451.224C2399.19,450.892 2402.19,448.615 2404.75,446.397C2410.04,441.824 2417.39,435.37 2424.58,430.888C2429.81,427.629 2435.05,425.446 2439.43,425.354C2440.83,425.324 2442,426.201 2442.03,427.31C2442.07,428.419 2440.97,429.343 2439.57,429.372C2436.03,429.447 2431.93,431.419 2427.71,434.049C2420.73,438.399 2413.62,444.676 2408.49,449.114C2405.31,451.863 2402.8,453.935 2401.47,454.629C2400.49,455.137 2399.64,455.219 2399.1,455.177C2397.71,455.07 2396.69,454.087 2396.83,452.983C2396.93,452.11 2397.73,451.421 2398.75,451.224Z"/>
    </g>
    <g transform="matrix(2.36818,0,0,2.98537,-4782.18,-138.97)">
        <path d="M2390.48,480.99C2395.7,481.416 2401.57,479.194 2407.77,476.17C2415.88,472.213 2424.69,466.849 2433.83,466.659C2435.23,466.63 2436.34,465.706 2436.3,464.597C2436.26,463.488 2435.1,462.611 2433.7,462.641C2425.31,462.815 2417.06,466.75 2409.39,470.612C2405.84,472.399 2402.41,474.152 2399.15,475.394C2396.27,476.488 2393.56,477.2 2391,476.992C2389.61,476.878 2388.37,477.682 2388.22,478.785C2388.08,479.888 2389.09,480.876 2390.48,480.99Z"/>
    </g>
    <g transform="matrix(2.36818,0,0,2.98537,-4782.18,-138.97)">
        <path d="M2209.59,669.184C2209.82,668.92 2210.63,667.972 2211.07,667.208C2212.63,664.467 2214.01,660.733 2215.11,659.214C2216.11,657.84 2217.49,657.5 2218.36,657.547C2219.07,657.584 2219.84,657.806 2220.51,658.469C2220.79,658.751 2221.14,659.272 2221.41,660.066C2221.76,661.106 2222.11,662.893 2222.45,665.258C2224.3,677.94 2226.53,708.326 2234.53,726.747C2236.12,730.414 2237.93,733.592 2240.05,736.01C2241.9,738.131 2243.94,739.653 2246.33,740.23C2248.61,740.779 2251.15,740.395 2254.02,739.043C2257.43,737.437 2261.19,734.549 2265.39,730.174C2266.24,729.292 2267.83,729.122 2268.95,729.795C2270.06,730.468 2270.27,731.73 2269.42,732.612C2264.71,737.516 2260.43,740.7 2256.61,742.501C2252.24,744.556 2248.33,744.912 2244.86,744.076C2242.13,743.418 2239.63,741.989 2237.4,739.88C2234.41,737.06 2231.87,732.963 2229.74,728.056C2221.63,709.379 2219.3,678.579 2217.42,665.721L2217.38,665.469C2216.38,667.617 2215.25,669.881 2214.05,671.219C2212.82,672.587 2211.34,673.187 2210.01,673.17C2208.61,673.153 2207.49,672.238 2207.51,671.129C2207.53,670.154 2208.42,669.352 2209.59,669.184Z"/>
    </g>
    <g transform="matrix(2.36818,0,0,2.98537,-4782.18,-138.97)">
        <path d="M2290.17,686.43C2290.28,692.747 2291.53,697.539 2293.63,700.702C2294.84,702.517 2296.29,703.746 2298.01,704.24C2300.1,704.838 2302.44,704.267 2304.92,702.788C2308.01,700.945 2311.16,697.754 2314.2,693.21C2320.06,684.439 2318.08,676.63 2312.55,672.68C2307.3,668.921 2299.01,669.053 2292.28,675.33C2291.38,676.176 2289.78,676.279 2288.71,675.56C2287.65,674.842 2287.52,673.573 2288.42,672.727C2297.52,664.236 2308.84,664.61 2315.95,669.695C2322.79,674.589 2325.94,684.224 2318.68,695.092C2314.47,701.397 2309.9,705.347 2305.69,707.173C2302.36,708.621 2299.15,708.84 2296.29,708.021C2293.56,707.238 2291.07,705.453 2289.15,702.579C2288.7,701.895 2288.27,701.143 2287.88,700.324C2286.72,701.874 2284.96,702.137 2283.64,701.696C2282.35,701.266 2281.74,700.087 2282.28,699.064C2282.55,698.559 2283.05,698.185 2283.64,697.989C2283.8,697.592 2284.03,696.952 2284.16,696.393C2284.78,693.627 2285.01,689.307 2285.1,686.273C2285.1,686.033 2285.1,685.791 2285.1,685.547C2285.1,683.487 2285.13,682.534 2285.16,682.376C2285.38,680.727 2287.19,680.59 2287.41,680.571C2288.06,680.515 2288.75,680.619 2289.4,681.093C2289.49,681.163 2290.12,681.537 2290.21,682.453C2290.24,682.717 2290.25,684.301 2290.17,686.43ZM2285.51,697.962L2285.6,697.99C2285.57,697.98 2285.54,697.97 2285.51,697.962Z"/>
    </g>
    <g transform="matrix(2.36818,0,0,2.98537,-4782.18,-138.97)">
        <path d="M2376.54,651.19C2376.6,646.499 2376.9,642.168 2377.1,641.121C2377.29,640.107 2377.99,639.685 2378.14,639.59C2378.87,639.148 2379.62,639.096 2380.33,639.242C2380.78,639.336 2381.69,639.573 2382.11,640.579C2382.17,640.722 2382.3,641.33 2382.31,642.517C2382.31,644.135 2382.12,646.904 2381.71,650.343C2381.59,654.773 2381.64,659.746 2382.26,662.208C2385.47,675.002 2390.08,694.012 2398.61,704.489C2399.37,705.421 2399.03,706.666 2397.85,707.268C2396.68,707.869 2395.11,707.601 2394.35,706.669C2386.54,697.066 2381.78,680.56 2378.49,667.72C2376.56,675.279 2373.85,682.793 2370.2,687.776C2367.57,691.357 2364.38,693.69 2360.87,694.34C2358.33,694.812 2355.53,694.482 2352.53,692.986C2348.76,691.115 2345.83,687.917 2343.45,684.045C2340.2,678.727 2337.95,672.111 2335.53,666.473C2334.28,663.543 2332.98,660.891 2331.42,658.893C2330.21,657.343 2328.93,656.186 2327.18,655.927C2325.8,655.723 2324.89,654.673 2325.15,653.582C2325.41,652.492 2326.73,651.772 2328.11,651.976C2330.59,652.343 2332.73,653.536 2334.57,655.431C2336.81,657.754 2338.64,661.229 2340.33,665.178C2342.68,670.666 2344.84,677.112 2348.01,682.288C2349.93,685.414 2352.18,688.07 2355.22,689.58C2356.85,690.393 2358.34,690.683 2359.72,690.426C2362.11,689.984 2364.03,688.19 2365.82,685.755C2371.93,677.405 2375.22,661.599 2376.54,651.19Z"/>
    </g>
    <g transform="matrix(2.36818,0,0,2.98537,-4782.18,-138.97)">
        <path d="M2420.29,704.349C2420.36,703.92 2420.49,702.963 2420.53,702.139C2420.67,698.909 2420.43,694.459 2420.43,694.151C2420.43,682.869 2417.65,665.615 2412.88,656.06C2411.94,654.183 2410.94,652.622 2409.85,651.516C2409.15,650.811 2408.51,650.273 2407.72,650.217C2406.33,650.117 2405.3,649.14 2405.43,648.035C2405.55,646.93 2406.79,646.114 2408.18,646.213C2409.82,646.33 2411.43,646.979 2412.92,648.202C2414.6,649.578 2416.19,651.779 2417.59,654.58C2422.55,664.508 2425.5,682.429 2425.5,694.151C2425.5,694.557 2425.87,701.883 2425.36,704.752C2425.14,706.013 2424.49,706.784 2424.09,707.062C2423.47,707.485 2422.78,707.629 2422.08,707.582C2420.69,707.489 2419.65,706.516 2419.77,705.411C2419.81,705.009 2420,704.645 2420.29,704.349ZM2422.3,703.57L2422.34,703.57L2422.32,703.569L2422.3,703.57Z"/>
    </g>
    <g transform="matrix(2.36818,0,0,2.98537,-4782.18,-138.97)">
        <path d="M2407.69,657.688C2407.65,657.377 2407.58,656.97 2407.48,656.643C2407.18,655.709 2406.69,654.617 2406.12,653.413C2404.25,649.483 2401.47,644.465 2400.18,639.788C2399.23,636.301 2399.12,632.984 2400.47,630.305C2402.72,625.833 2407.29,623.673 2412.55,623.012C2419.75,622.107 2428.3,624.174 2432.97,626.476C2442.07,630.972 2450.15,640.149 2456.3,651.578C2465.31,668.334 2470.24,689.926 2468.65,707.981C2466.8,728.943 2455.98,745.03 2433.74,744.876C2432.35,744.866 2431.22,743.958 2431.23,742.848C2431.24,741.739 2432.39,740.846 2433.79,740.856C2453.42,740.993 2461.96,726.205 2463.59,707.7C2465.13,690.239 2460.35,669.36 2451.64,653.154C2445.97,642.609 2438.68,634.037 2430.29,629.888C2427.04,628.286 2421.54,626.818 2416.32,626.809C2411.63,626.8 2407.1,627.977 2405.17,631.797C2403.97,634.184 2404.52,637.234 2405.58,640.379C2407.39,645.777 2410.86,651.412 2412.19,655.08C2412.7,656.489 2412.91,657.677 2412.8,658.555C2412.66,659.625 2412.11,660.408 2411.29,660.944C2410.5,661.461 2409.36,661.811 2407.72,661.689C2406.32,661.586 2405.3,660.605 2405.43,659.501C2405.54,658.529 2406.51,657.783 2407.69,657.688Z"/>
    </g>
    <g transform="matrix(2.36818,0,0,2.98537,-4782.18,-138.97)">
        <path d="M3157.94,403.181C3157.23,402.774 3156.81,402.084 3156.9,401.343C3157.05,400.239 3158.29,399.436 3159.68,399.55C3160.56,399.622 3161.32,399.931 3161.93,400.518C3162.52,401.081 3163.03,402.142 3163.14,403.613C3163.54,408.909 3159.77,421.781 3159.73,421.998C3156.17,439.792 3152.04,470.127 3160.61,487.121C3161.75,489.401 3164.11,491.386 3167.05,493.033C3171.78,495.677 3178.03,497.427 3183.92,497.935C3189.95,498.456 3195.64,497.789 3198.43,495.004C3198.6,494.839 3200.04,493.132 3200.58,491.826C3200.12,491.427 3199.86,490.881 3199.92,490.297C3200.04,489.192 3201.26,488.369 3202.65,488.461C3203.88,488.541 3204.66,488.986 3205.18,489.569C3205.7,490.148 3205.98,491.027 3205.72,492.104C3205.25,494.053 3202.67,497.235 3202.4,497.508C3198.7,501.195 3191.35,502.621 3183.37,501.931C3171.95,500.944 3159.48,495.72 3155.9,488.612C3147.06,471.064 3151.05,439.743 3154.72,421.368C3154.76,421.185 3157.6,411.66 3158.05,405.858C3158.13,404.854 3158.01,403.677 3157.94,403.181Z"/>
    </g>
    <g transform="matrix(2.36818,0,0,2.98537,-4782.18,-138.97)">
        <path d="M3209.83,423.388C3208.98,423.019 3208.44,422.28 3208.52,421.467C3208.64,420.361 3209.86,419.535 3211.25,419.623C3212.38,419.695 3213.6,420.212 3214.39,421.58C3215.12,422.86 3215.61,425.466 3215.76,429.051C3216.24,440.084 3214.26,461.338 3214.08,479.508C3213.96,491.271 3214.52,501.71 3217.18,506.983C3218.08,508.778 3219.3,509.888 3220.86,510.341C3223.43,511.09 3226.54,510.19 3229.7,508.626C3235.23,505.888 3240.72,500.898 3243.78,496.056C3245.63,493.139 3246.66,490.304 3245.9,488.137C3245.52,487.068 3246.31,485.959 3247.65,485.66C3249,485.361 3250.4,485.986 3250.78,487.054C3251.81,489.994 3250.81,493.901 3248.31,497.858C3244.86,503.326 3238.63,508.943 3232.38,512.036C3227.69,514.361 3222.93,515.226 3219.11,514.114C3216.41,513.328 3214.04,511.588 3212.47,508.475C3210.35,504.263 3209.36,496.967 3209.09,488.294C3208.47,468.765 3211.25,442.035 3210.7,429.189C3210.61,427.123 3210.44,425.44 3210.13,424.239C3210.06,423.936 3209.92,423.593 3209.83,423.388Z"/>
    </g>
    <g transform="matrix(2.36818,0,0,2.98537,-4782.18,-138.97)">
        <path d="M3186.45,440.182C3186.16,439.045 3185.89,437.223 3186.46,435.506C3189.76,425.674 3198.81,418.82 3209.29,414.438C3219.54,410.149 3231.12,408.245 3239.69,408.144C3241.09,408.128 3242.24,409.015 3242.26,410.124C3242.29,411.233 3241.17,412.147 3239.77,412.163C3231.84,412.257 3221.13,414.027 3211.65,417.993C3202.39,421.867 3194.28,427.849 3191.36,436.541C3190.88,437.983 3191.3,439.08 3191.56,439.808C3191.8,440.516 3191.91,441.081 3191.87,441.474C3191.78,442.258 3191.35,442.825 3190.62,443.24C3190.13,443.516 3189.31,443.806 3187.88,443.706C3186.49,443.608 3185.46,442.631 3185.58,441.526C3185.64,440.984 3185.97,440.511 3186.45,440.182Z"/>
    </g>
    <g transform="matrix(2.36818,0,0,2.98537,-4782.18,-138.97)">
        <path d="M3187.88,475.256C3188.44,475.296 3198.84,474.871 3209.76,472.837C3217.14,471.462 3224.73,469.342 3229.81,466.242C3230.91,465.565 3231.12,464.302 3230.27,463.423C3229.41,462.544 3227.82,462.381 3226.71,463.058C3222.14,465.852 3215.25,467.685 3208.6,468.924C3198.48,470.809 3188.86,471.29 3188.33,471.253C3186.94,471.153 3185.71,471.969 3185.58,473.074C3185.45,474.179 3186.48,475.157 3187.88,475.256Z"/>
    </g>
    <g transform="matrix(2.36818,0,0,2.98537,-4782.18,-138.97)">
        <path d="M3288.21,419.629C3288.35,419.617 3288.49,419.613 3288.64,419.62C3291.99,419.777 3290.18,423.249 3290.11,423.289C3290.09,423.302 3289.57,423.647 3288.49,423.648C3287.29,423.65 3280,423.658 3272.59,425.445C3268.36,426.464 3264.07,428.052 3260.97,430.642C3261.41,431.185 3262.08,431.971 3262.75,432.685C3270.47,440.867 3291.67,460.354 3294.91,466.833C3299.27,475.548 3296.82,485.201 3291.37,493.3C3285.96,501.327 3277.64,507.775 3270.52,510.288C3266.18,511.818 3262.19,511.915 3259.21,510.556C3257.14,509.611 3255.45,507.952 3254.51,505.362C3254.12,504.296 3254.89,503.181 3256.24,502.874C3257.58,502.566 3258.99,503.181 3259.38,504.247C3259.88,505.62 3260.64,506.571 3261.74,507.072C3263.51,507.883 3265.87,507.528 3268.46,506.615C3274.8,504.378 3282.09,498.55 3286.9,491.407C3291.66,484.335 3294.01,475.925 3290.2,468.315C3288.81,465.531 3283.88,460.266 3278.27,454.576C3269.48,445.673 3258.97,435.826 3256.39,432.473C3255.65,431.515 3255.44,430.772 3255.43,430.41C3255.43,429.81 3255.69,429.368 3256.02,429.038C3259.79,425.273 3265.47,422.962 3271.11,421.599C3278.78,419.752 3286.31,419.638 3288.21,419.629Z"/>
    </g>
    <g transform="matrix(2.36818,0,0,2.98537,-4782.18,-138.97)">
        <path d="M3354.82,412.738C3353.9,412.324 3352.65,411.836 3351.61,411.679C3350.55,411.522 3349.46,411.484 3348.6,411.912C3344.86,413.776 3341.52,414.976 3338.67,416.155C3335.85,417.321 3333.55,418.413 3332.01,420.412C3330.4,422.501 3329.64,425.498 3329.64,430.284C3329.66,436.671 3333.91,440.807 3339.96,443.934C3344.33,446.195 3349.61,447.939 3355.04,449.565C3363.62,452.132 3372.58,454.41 3379.33,457.692C3384.25,460.084 3388.03,463.016 3389.93,466.833C3392.89,472.752 3389.72,479.885 3382.99,486.637C3373.58,496.062 3357.4,504.849 3344.61,508.464C3338.7,510.133 3333.45,510.677 3329.75,509.916C3326.66,509.281 3324.46,507.829 3323.39,505.488C3322.92,504.445 3323.6,503.292 3324.92,502.915C3326.23,502.537 3327.68,503.078 3328.16,504.121C3328.78,505.487 3330.36,506.06 3332.39,506.208C3335.25,506.414 3338.88,505.815 3342.91,504.678C3354.94,501.276 3370.16,493.009 3379.01,484.142C3384.45,478.697 3387.61,473.087 3385.22,468.315C3383.3,464.46 3378.84,461.857 3373.38,459.665C3367.39,457.259 3360.19,455.4 3353.26,453.327C3338.17,448.814 3324.6,443.102 3324.58,430.29C3324.57,425.345 3325.4,422.008 3326.84,419.567C3328.63,416.536 3331.34,414.778 3334.9,413.199C3337.94,411.849 3341.66,410.621 3345.91,408.508C3347.82,407.556 3350.21,407.38 3352.54,407.729C3355.7,408.201 3358.68,409.631 3359.88,410.664C3361.13,411.746 3361.11,412.861 3360.77,413.522C3360.43,414.166 3359.53,415.119 3357.21,415.029C3355.81,414.976 3354.73,414.033 3354.8,412.925C3354.8,412.862 3354.81,412.799 3354.82,412.738Z"/>
    </g>
    <g transform="matrix(2.36818,0,0,2.98537,-4782.18,-138.97)">
        <path d="M3179.94,628.715C3179.85,628.475 3179.81,628.219 3179.85,627.955C3179.97,626.85 3181.21,626.035 3182.6,626.136C3184.5,626.274 3185.34,626.981 3185.7,627.499C3186.16,628.142 3186.29,628.938 3185.68,629.846C3185.24,630.499 3183.86,631.516 3181.86,632.564C3178.39,634.378 3172.85,636.709 3170.39,638.339C3165.63,641.505 3156.73,644.668 3148.85,644.418C3143.13,644.237 3137.93,642.354 3134.84,637.741C3132.81,634.704 3131.64,629.407 3131.05,622.896C3129.75,608.544 3131.02,588.024 3129.53,574.245C3129.02,569.48 3128.21,565.562 3126.75,563.111C3126.17,562.137 3125.63,561.389 3124.69,561.295C3123.3,561.156 3122.32,560.15 3122.49,559.049C3122.66,557.949 3123.93,557.168 3125.32,557.307C3127.74,557.549 3129.83,558.888 3131.33,561.391C3132.97,564.149 3134,568.539 3134.58,573.903C3135.86,585.749 3135.11,602.562 3135.69,616.19C3136.06,624.86 3136.87,632.194 3139.32,635.856C3142.03,639.91 3147.17,640.791 3152.32,640.282C3158,639.719 3163.78,637.486 3167.14,635.257C3169.7,633.557 3175.45,631.099 3179.07,629.208C3179.36,629.056 3179.66,628.884 3179.94,628.715Z"/>
    </g>
    <g transform="matrix(2.36818,0,0,2.98537,-4782.18,-138.97)">
        <path d="M3191.63,587.001C3192.1,586.333 3193.04,585.91 3194.06,585.98C3195.55,586.082 3196.1,586.798 3196.33,587.482C3196.44,587.814 3196.6,588.493 3195.86,589.278C3195.39,589.783 3190.97,592.534 3188.47,600.025C3186.2,606.838 3186.61,618.185 3190.88,624.996C3192.32,627.311 3194.18,629.095 3196.72,629.685C3198.34,630.062 3200.2,629.914 3202.33,629.208C3207.97,627.336 3212.39,623.626 3215.54,619.11C3220.41,612.117 3222.24,603.18 3220.52,595.674C3218.74,587.842 3213,581.547 3202.4,581.387C3201,581.366 3199.89,580.449 3199.91,579.34C3199.94,578.231 3201.1,577.348 3202.49,577.369C3215.76,577.568 3223.27,585.162 3225.51,594.957C3227.42,603.315 3225.4,613.268 3219.97,621.054C3216.25,626.39 3210.95,630.705 3204.29,632.916C3200.88,634.046 3197.89,634.145 3195.3,633.543C3191.52,632.666 3188.49,630.226 3186.34,626.783C3181.59,619.202 3181.04,606.58 3183.57,598.998C3186.08,591.468 3190.68,587.714 3191.63,587.001ZM3191.65,588.995C3191.96,589.486 3192.53,589.91 3193.62,589.985C3192.77,589.927 3192.05,589.54 3191.65,588.995Z"/>
    </g>
    <g transform="matrix(2.36818,0,0,2.98537,-4782.18,-138.97)">
        <path d="M3288.36,599.759C3286.96,594.625 3285.83,589.209 3285.32,584.042C3284.38,574.542 3285.65,565.878 3290.58,560.973C3291.65,559.904 3292.83,559.65 3293.85,559.709C3295,559.775 3296.39,560.421 3297.41,561.88C3299.42,564.767 3300.85,571.808 3300.85,573.698C3300.85,582.516 3298.42,592.133 3293.68,600.248C3295.84,607.821 3298.57,614.644 3300.68,618.845C3302.77,622.997 3310.19,629.852 3312.18,633.493C3313.18,635.331 3312.92,636.774 3312.15,637.579C3311.51,638.253 3310.39,638.836 3308.43,638.749C3307.03,638.687 3305.96,637.738 3306.04,636.63C3306.09,635.898 3306.63,635.279 3307.39,634.962C3307.16,634.535 3306.85,634.011 3306.52,633.571C3303.61,629.674 3297.8,623.976 3295.97,620.332C3294.22,616.827 3292.04,611.555 3290.09,605.533L3289.99,605.66C3285.03,611.876 3278.42,616.616 3270.3,618.638C3264.5,620.084 3259.95,619.767 3256.38,618.335C3252.81,616.9 3250.15,614.296 3248.28,610.887C3243.33,601.863 3243.95,586.815 3243.95,576.566C3243.95,575.702 3244.1,573.276 3244.15,572.487C3243.37,572.108 3242.87,571.407 3242.94,570.635C3243.04,569.528 3244.25,568.692 3245.64,568.768C3247.4,568.865 3248.61,569.726 3249.09,571.295C3249.53,572.754 3249.02,575.303 3249.02,576.566C3249.02,586.331 3248.21,600.684 3252.93,609.283C3254.28,611.748 3256.09,613.71 3258.67,614.748C3261.26,615.789 3264.57,615.853 3268.79,614.803C3275.8,613.057 3281.43,608.881 3285.7,603.512C3286.66,602.317 3287.54,601.062 3288.36,599.759ZM3293.47,564.704C3290.12,569.139 3289.62,576.155 3290.37,583.727C3290.67,586.766 3291.19,589.893 3291.86,592.995C3294.47,586.769 3295.78,580.012 3295.78,573.698C3295.78,572.321 3294.9,567.727 3293.57,564.897C3293.54,564.834 3293.51,564.769 3293.47,564.704Z"/>
    </g>
    <g transform="matrix(2.36818,0,0,2.98537,-4782.18,-138.97)">
        <path d="M3314.02,568.776C3314.19,568.577 3314.62,568.054 3314.84,567.681C3315.64,566.304 3316.34,564.713 3317.11,563.859C3317.96,562.909 3319.02,562.498 3320.04,562.464C3320.97,562.432 3322.16,562.674 3323.33,563.841C3325.05,565.552 3327.5,570.401 3329.97,577.04C3335.45,591.841 3341.49,615.798 3341.68,631.809C3341.76,638.036 3340.9,643.117 3338.96,646.177C3337.24,648.89 3334.71,650.268 3331.47,650.225C3330.07,650.206 3328.96,649.291 3328.98,648.181C3329.01,647.072 3330.16,646.187 3331.56,646.206C3333.39,646.23 3334.33,644.917 3335.11,643.056C3336.25,640.323 3336.67,636.432 3336.62,631.847C3336.43,616.156 3330.49,592.681 3325.1,578.175C3323.37,573.491 3321.75,569.771 3320.39,567.665C3320.17,568.047 3319.95,568.442 3319.78,568.765C3319.16,569.906 3318.44,570.975 3317.6,571.65C3316.62,572.448 3315.46,572.836 3314.17,572.78C3312.77,572.72 3311.7,571.772 3311.78,570.664C3311.84,569.67 3312.82,568.882 3314.02,568.776Z"/>
    </g>
    <g transform="matrix(2.36818,0,0,2.98537,-4782.18,-138.97)">
        <path d="M3322.72,560.165C3322.88,559.996 3323.27,559.55 3323.48,559.19C3324.62,557.222 3325.51,554.15 3326.77,551.276C3327.78,548.974 3329.03,546.797 3330.67,545.221C3332,543.953 3333.58,543.045 3335.46,542.621C3337.42,542.179 3339.74,542.244 3342.51,543.161C3368.24,551.683 3383.97,563.412 3392.66,576.146C3413.02,606.012 3394.55,641.632 3373.62,656.045C3365.34,661.74 3356.61,664.108 3349.57,662.211C3344.75,660.913 3340.53,657.646 3337.75,651.792C3337.26,650.754 3337.92,649.594 3339.23,649.203C3340.53,648.811 3342,649.336 3342.49,650.374C3344.59,654.798 3347.56,657.424 3351.2,658.405C3356.85,659.926 3363.66,657.578 3370.3,653.009C3389.94,639.487 3407.31,606.077 3388.2,578.058C3379.97,565.984 3364.95,554.951 3340.56,546.87C3339.14,546.403 3337.97,546.263 3336.95,546.464C3335.41,546.772 3334.37,547.817 3333.47,549.073C3332.15,550.927 3331.24,553.277 3330.4,555.475C3329.24,558.511 3328.14,561.279 3326.74,562.648C3325.61,563.749 3324.26,564.239 3322.78,564.176C3321.38,564.117 3320.31,563.169 3320.38,562.062C3320.45,561.04 3321.47,560.236 3322.72,560.165Z"/>
    </g>
</svg>
