<?xml version="1.0" encoding="UTF-8" standalone="no"?>
<!DOCTYPE svg PUBLIC "-//W3C//DTD SVG 1.1//EN" "http://www.w3.org/Graphics/SVG/1.1/DTD/svg11.dtd">
<svg width="100%" height="100%" viewBox="0 0 3508 2481" version="1.1" xmlns="http://www.w3.org/2000/svg" xmlns:xlink="http://www.w3.org/1999/xlink" xml:space="preserve" xmlns:serif="http://www.serif.com/" style="fill-rule:evenodd;clip-rule:evenodd;stroke-linejoin:round;stroke-miterlimit:2;">
    <g transform="matrix(1.24588,0,0,1.13801,-492.17,-235.929)">
        <path d="M1214.29,786.804C1211.82,785.271 1191.78,772.853 1188,770.342C1166.21,755.871 1145.15,740.929 1118.13,758.869C1092.3,776.023 1066.78,806.236 1054.56,838.968C1042.72,870.676 1043.53,904.849 1069.97,931.157C1098.16,959.211 1131.54,964.204 1170.4,964.204C1218.6,964.204 1254.21,949.916 1275.91,929.604C1289.77,916.629 1297.84,901.255 1299.53,885.799C1301.63,866.762 1293.9,847.816 1276.07,833.506C1257.21,818.376 1227.42,808.462 1186.09,808.371C1183.43,808.365 1181.27,805.998 1181.28,803.088C1181.28,800.178 1183.45,797.82 1186.11,797.826C1239.1,797.943 1274.14,813.886 1292.76,835.593C1305.83,850.821 1311.09,868.958 1309.1,887.059C1307.14,904.841 1298.11,922.69 1282.17,937.617C1259.16,959.158 1221.51,974.749 1170.4,974.749C1128.97,974.749 1093.54,968.867 1063.49,938.96C1033.64,909.26 1032.27,870.773 1045.64,834.978C1058.62,800.208 1085.69,768.076 1113.14,749.853C1143.93,729.401 1168.15,744.829 1193,761.326C1197.1,764.054 1216.94,775.952 1220.03,778.289C1223.47,780.901 1222.28,784.678 1222.06,785.201C1221.59,786.332 1220.79,787.373 1219.35,787.957C1218.92,788.133 1218.34,788.303 1217.59,788.293C1216.31,788.275 1215.15,787.711 1214.29,786.804ZM1213.48,780.381C1214.32,778.788 1215.9,777.725 1217.7,777.749C1215.24,777.716 1214.08,779.085 1213.48,780.381Z"/>
    </g>
    <g transform="matrix(1.24588,0,0,0.900858,-492.17,-0.574918)">
        <path d="M1176.3,988.813C1177.17,986.944 1178.69,985.715 1180.41,985.74C1182.93,985.777 1184.17,987.685 1184.82,989.818C1185.13,990.82 1185.82,993.461 1184.24,996.524C1183.68,997.6 1180.79,1001.4 1177.59,1004.14C1175.25,1006.15 1172.73,1007.48 1170.8,1007.66C1170.64,1007.95 1170.32,1008.51 1170.15,1008.94C1169.55,1010.45 1169.08,1012.35 1168.67,1014.44C1166.85,1023.76 1166.53,1036.38 1166.53,1041.18C1166.53,1092.42 1172.29,1137.5 1172.29,1184.59C1172.29,1289.95 1177.8,1398.72 1160.65,1501.59C1158.06,1517.11 1159.73,1533.43 1160.98,1549.71C1162.37,1567.71 1163.29,1585.65 1159.1,1602.61C1158.24,1606.09 1155.5,1607.95 1152.99,1606.76C1150.47,1605.57 1149.13,1601.79 1149.99,1598.31C1153.72,1583.19 1152.64,1567.17 1151.41,1551.12C1150.03,1533.35 1148.44,1515.53 1151.26,1498.6C1168.25,1396.7 1162.66,1288.95 1162.66,1184.59C1162.66,1137.5 1156.9,1092.42 1156.9,1041.18C1156.9,1034.75 1157.54,1016.16 1160.67,1005.57C1162.8,998.365 1166.32,994.457 1170.21,994.371C1170.34,994.3 1171.45,993.691 1172.07,993.188C1173.6,991.955 1175.67,989.556 1176.3,988.813ZM1178.03,998.23C1178.62,998.7 1179.37,999.046 1180.31,999.06C1179.48,999.048 1178.7,998.748 1178.03,998.23Z"/>
    </g>
    <g transform="matrix(1.24588,0,0,1.13801,-492.17,-235.929)">
        <path d="M1144.41,1140.82C1144.13,1140.14 1143.98,1139.39 1143.99,1138.6C1144.03,1135.69 1146.22,1133.36 1148.88,1133.41C1152.17,1133.46 1153.71,1135.2 1154.51,1136.81C1155.24,1138.31 1155.56,1140.46 1154.56,1143.02C1153.25,1146.38 1147.61,1152.53 1145.56,1155.94C1130.26,1181.34 1120.88,1212.89 1111.51,1240.9C1094.94,1290.39 1079.13,1340.47 1062.56,1390.05C1054.77,1413.35 1050.14,1440.74 1039.23,1462.48C1037.54,1465.85 1032.96,1471.92 1032.96,1471.92C1031.4,1473.97 1028.69,1474.42 1026.65,1472.97C1024.6,1471.52 1023.87,1468.63 1024.93,1466.23C1024.93,1466.23 1026.9,1461.82 1028.26,1456.93C1029,1454.25 1029.68,1451.43 1029.34,1449.37C1028.87,1446.51 1030.62,1443.77 1033.23,1443.26C1034.43,1443.02 1035.6,1443.29 1036.56,1443.93C1043.38,1425.45 1047.42,1404.64 1053.51,1386.42C1070.09,1336.85 1085.9,1286.77 1102.46,1237.28C1112.08,1208.52 1121.82,1176.2 1137.52,1150.14C1138.57,1148.39 1140.55,1145.95 1142.45,1143.54C1143.07,1142.74 1143.8,1141.71 1144.41,1140.82Z"/>
    </g>
    <g transform="matrix(1.24588,0,0,1.13801,-492.17,-235.929)">
        <path d="M1257.77,959.321C1256.59,958.346 1255.84,956.793 1255.85,955.054C1255.88,952.145 1258.06,949.809 1260.72,949.841C1263.18,949.871 1264.65,950.807 1265.63,951.808C1266.85,953.054 1267.54,954.706 1267.62,956.764C1267.67,957.934 1267.31,959.455 1267.31,960.872C1267.31,980.435 1266.94,1001.77 1272.78,1019.3C1276.62,1030.82 1284.25,1042.05 1289.74,1052.98C1296.14,1065.74 1300.67,1083.91 1304.53,1103.59C1310.11,1132 1314.35,1163.64 1321.71,1185.65C1324.91,1195.2 1330.44,1214.57 1330.44,1214.57C1331.06,1216.74 1330.34,1219.09 1328.66,1220.42C1326.97,1221.75 1324.71,1221.75 1323.02,1220.42C1323.02,1220.42 1308.84,1209.2 1302.44,1202.83C1294.73,1195.15 1225.85,1160.1 1196.95,1146.29C1191.11,1143.5 1185.87,1141.27 1185.25,1141C1182.97,1140.56 1181.25,1138.36 1181.28,1135.74C1181.32,1132.83 1183.5,1130.5 1186.16,1130.54C1186.51,1130.54 1187.33,1130.63 1188.52,1131.07C1190.38,1131.76 1194.76,1133.74 1200.8,1136.63C1230.46,1150.8 1301.01,1187.15 1308.93,1195.03C1310.94,1197.04 1313.76,1199.55 1316.65,1202.01C1315.27,1197.4 1313.82,1192.7 1312.67,1189.27C1306.41,1170.56 1302.3,1145.04 1297.82,1120.26C1293.5,1096.36 1288.88,1073.17 1281.3,1058.06C1275.58,1046.67 1267.73,1034.91 1263.73,1022.91C1257.52,1004.29 1257.68,981.655 1257.68,960.872C1257.68,960.441 1257.72,959.876 1257.77,959.321Z"/>
    </g>
    <g transform="matrix(0.640906,0,0,0.556868,715.459,491.92)">
        <path d="M1991.55,968.863C1989.6,966.854 1988.39,963.921 1988.44,960.678C1988.52,954.733 1992.78,949.982 1997.95,950.077C2002.73,950.164 2005.61,952.098 2007.49,954.162C2009.93,956.832 2011.29,960.401 2011.23,964.933C2011.21,967.093 2010.76,969.709 2010.1,972.496C2009.67,974.3 2009,976.258 2009,978.093C2009,1028.23 1999.22,1076.68 1991.57,1126.26C1989.67,1138.52 1984.11,1194.35 1981.73,1205.37C1979.76,1214.48 1973.15,1215.45 1971.83,1215.42C1966.66,1215.32 1962.54,1210.41 1962.62,1204.47C1962.65,1202.77 1963.01,1201.17 1963.64,1199.75C1966.03,1188.01 1971.29,1134.37 1973.13,1122.49C1980.59,1074.16 1990.27,1026.96 1990.27,978.093C1990.27,975.391 1990.72,972.522 1991.35,969.737L1991.55,968.863ZM1969.08,1194.4L1969.01,1194.43L1969.22,1194.35L1969.08,1194.4ZM1970.62,1193.99C1970.24,1194.05 1969.87,1194.14 1969.49,1194.26L1969.8,1194.17C1969.95,1194.13 1970.1,1194.09 1970.25,1194.06L1970.62,1193.99ZM1970.93,1193.94L1970.77,1193.96L1971.1,1193.92L1970.93,1193.94ZM1971.54,1193.88L1971.36,1193.9L1971.61,1193.88L1971.54,1193.88Z"/>
    </g>
    <g transform="matrix(0.640906,0,0,0.556868,715.459,491.92)">
        <path d="M1865.2,987.91C1861.16,985.821 1858.11,983.395 1856.14,980.947C1853.29,977.398 1852.05,973.472 1852.06,969.44C1852.08,964.993 1853.89,962.351 1855.88,960.625C1857.62,959.125 1860.04,957.939 1863.31,958.582C1864.56,958.827 1867.76,960.351 1871.01,963.559C1872.78,965.306 1874.83,967.569 1876.56,969.578C1878.6,970.47 1880.87,971.348 1882.99,971.934C1908.71,979.03 1953.19,980.648 1963.71,978.901C1968.35,978.131 1972.4,976.165 1976.42,974.478C1982.06,972.117 1987.65,970.186 1993.87,970.186L2005.82,970.177C2006.06,970.156 2006.3,970.149 2006.55,970.154C2012.58,970.263 2014.42,974.647 2014.47,974.729C2015.86,977.006 2016.29,979.353 2016.16,981.622C2016.05,983.665 2015.48,985.814 2014,987.85C2013.54,988.491 2011.99,990.987 2008.11,991.612C2008.02,991.627 2007.48,991.713 2006.56,991.724C2004.72,991.746 1996.22,991.735 1993.87,991.735C1989.91,991.735 1986.41,993.225 1982.83,994.726C1977.64,996.901 1972.37,999.237 1966.38,1000.23C1955.94,1001.96 1915,1000.71 1886.42,994.675C1889.97,1011.64 1890.94,1029.14 1890.94,1046.93C1890.94,1087.26 1889.54,1126.17 1885.09,1165.9C1884.26,1173.39 1878.73,1197.76 1876.6,1214.74C1876.22,1217.73 1876.05,1221.48 1875.98,1223.66C1877.26,1225.46 1878.05,1227.75 1878.09,1230.26C1878.19,1236.2 1874.07,1241.12 1868.91,1241.23C1863.92,1241.34 1857.47,1237.14 1857.15,1225.12C1856.77,1210.55 1865.43,1172.88 1866.52,1163.15C1870.87,1124.34 1872.22,1086.33 1872.22,1046.93C1872.22,1026.69 1871,1006.85 1865.2,987.91ZM1872.49,1220.59C1871.3,1219.91 1869.95,1219.66 1868.55,1219.69C1869.95,1219.66 1871.28,1219.98 1872.49,1220.59ZM2000.82,989.575C2001.91,990.638 2003.63,991.653 2006.26,991.7C2004.22,991.664 2002.34,990.879 2000.82,989.575Z"/>
    </g>
    <g transform="matrix(0.640906,0,0,0.556868,715.459,491.92)">
        <path d="M1848.44,1212.55C1883.62,1213.48 1923.12,1196.46 1957.11,1186.4C1962.11,1184.92 1965.13,1179.04 1963.84,1173.28C1962.55,1167.52 1957.45,1164.05 1952.44,1165.53C1920.01,1175.13 1882.43,1191.89 1848.87,1191.01C1843.7,1190.87 1839.41,1195.59 1839.29,1201.53C1839.17,1207.48 1843.27,1212.41 1848.44,1212.55Z"/>
    </g>
    <g transform="matrix(1.24588,0,0,1.13801,-492.17,-235.929)">
        <path d="M1149.86,1487.36C1150.38,1485.02 1152.32,1483.29 1154.61,1483.33C1156.45,1483.36 1157.63,1484.26 1158.44,1485.4C1159.12,1486.35 1159.82,1487.88 1159.33,1490.1C1159.19,1490.71 1158.75,1491.9 1157.87,1493.32C1156.25,1495.92 1152.49,1500.8 1151.56,1502.64C1137.19,1531.22 1117.03,1557.05 1102.6,1585.81C1086.92,1617.07 1054.29,1694.5 1045.8,1709.63C1044.56,1711.83 1043.49,1713.1 1042.93,1713.56C1041.7,1714.57 1040.55,1714.74 1039.72,1714.72C1037.06,1714.66 1034.95,1712.25 1035,1709.34C1035.03,1707.69 1035.75,1706.24 1036.86,1705.29C1037.39,1704.35 1039.31,1700.92 1041.1,1697.22C1052.94,1672.68 1080.24,1608.49 1094.16,1580.74C1108.58,1551.97 1128.75,1526.13 1143.12,1497.55C1144.05,1495.7 1148.59,1489.19 1149.86,1487.36ZM1154.24,1493.86C1154.31,1493.87 1154.39,1493.87 1154.48,1493.87L1154.24,1493.86ZM1154.05,1493.85L1154.21,1493.86L1153.99,1493.84L1154.05,1493.85ZM1153.12,1493.64C1153.39,1493.73 1153.67,1493.8 1153.98,1493.84C1153.68,1493.8 1153.4,1493.73 1153.12,1493.64Z"/>
    </g>
    <g transform="matrix(1.24588,0,0,1.13801,-492.17,-235.929)">
        <path d="M1170.63,1476.52C1168.49,1475.96 1166.91,1473.83 1166.94,1471.32C1166.97,1468.41 1169.16,1466.08 1171.82,1466.12C1173.02,1466.14 1174.82,1466.67 1176.86,1468.41C1179.13,1470.35 1182.47,1474.35 1186.5,1479.88C1207.6,1508.89 1250.4,1582.68 1263.13,1596.78C1295.4,1632.5 1330.46,1662.91 1373.96,1684.6C1376.53,1685.88 1377.92,1686.12 1378.81,1686.63C1379.96,1687.29 1380.82,1688.12 1381.54,1689.43C1382.05,1690.34 1382.53,1691.69 1382.98,1694.02C1383.53,1696.87 1381.86,1699.67 1379.26,1700.27C1376.66,1700.87 1374.1,1699.05 1373.55,1696.2C1373.52,1696.03 1373.48,1695.84 1373.44,1695.67C1372.58,1695.36 1371.26,1694.84 1369.97,1694.19C1325.36,1671.96 1289.38,1640.82 1256.28,1604.19C1243.45,1589.99 1200.23,1515.69 1178.97,1486.45C1175.53,1481.73 1171.3,1477.22 1170.63,1476.52Z"/>
    </g>
    <g transform="matrix(1.06959,0,0,0.892412,-144.821,79.0459)">
        <path d="M1856.24,967.461C1853.58,966.876 1851.59,964.049 1851.65,960.707C1851.71,956.997 1854.28,954.049 1857.37,954.128C1858.51,954.157 1860.14,954.6 1862.06,955.929C1864.23,957.436 1867.4,960.506 1871.18,964.774C1890.72,986.849 1929.29,1042.75 1933.82,1052.14C1935.37,1055.35 1934.45,1059.46 1931.77,1061.32C1929.09,1063.18 1925.65,1062.08 1924.1,1058.87C1919.73,1049.8 1882.36,995.888 1863.48,974.559C1860.55,971.244 1856.87,968.011 1856.24,967.461Z"/>
    </g>
    <g transform="matrix(1.09695,0,0,0.847007,-195.643,122.674)">
        <path d="M1844.69,974.34C1843.73,973.034 1843.15,971.256 1843.18,969.312C1843.24,965.403 1845.74,962.293 1848.76,962.372C1852.21,962.462 1854.37,964.901 1855.32,969.029C1855.92,971.617 1855.47,977.501 1855.41,978.269C1855.41,1005.59 1856.31,1032.6 1852.43,1059.69C1841.99,1132.62 1831.88,1209.05 1826.59,1282.78C1825.71,1295.04 1826.66,1314.41 1825.86,1332.12C1825.27,1345.11 1823.68,1357.24 1820.23,1365.74C1819.58,1367.33 1818.62,1368.43 1817.37,1369.1C1816.49,1369.57 1813.44,1369.39 1813.44,1369.39C1813.44,1369.39 1813.91,1369.48 1814.11,1369.48C1811.09,1369.39 1808.7,1366.15 1808.76,1362.24C1808.81,1359.63 1809.94,1357.38 1811.58,1356.2C1813.67,1349.44 1814.52,1340.61 1814.94,1331.29C1815.75,1313.41 1814.81,1293.85 1815.7,1281.47C1821.02,1207.32 1831.17,1130.46 1841.67,1057.11C1845.43,1030.82 1844.47,1004.61 1844.47,978.093C1844.47,977.599 1844.6,975.71 1844.69,974.34ZM1848.31,976.523C1848.39,976.53 1848.46,976.535 1848.54,976.537L1848.31,976.523Z"/>
    </g>
    <g transform="matrix(1.09695,0,0,0.847007,-195.643,122.674)">
        <path d="M1910.73,1206.76C1909.73,1205.45 1909.12,1203.64 1909.15,1201.66C1909.2,1197.75 1911.69,1194.63 1914.71,1194.7C1917.37,1194.75 1918.92,1196.03 1919.94,1197.36C1921.2,1198.97 1921.9,1201.08 1921.95,1203.63C1921.98,1204.84 1921.64,1206.34 1921.63,1207.57C1921.62,1217.81 1916.75,1230.21 1909.67,1242.51C1900.23,1258.89 1887.06,1275.47 1880.08,1286.59C1862.65,1314.36 1843.33,1342.68 1828.6,1372.03C1827.74,1373.74 1827.51,1376.1 1827.23,1378.49C1826.78,1382.27 1826.44,1386.18 1825.69,1389.4C1824.74,1393.49 1823.12,1396.7 1820.76,1398.71C1819.05,1400.18 1816.9,1401.11 1814.11,1401.03C1811.09,1400.94 1808.7,1397.7 1808.76,1393.79C1808.83,1389.88 1811.34,1386.78 1814.36,1386.87C1814.74,1386.88 1814.88,1386.52 1815,1386.14C1815.29,1385.19 1815.48,1384.1 1815.64,1382.95C1816.56,1376.59 1817.02,1369.1 1819.43,1364.31C1834.36,1334.56 1853.92,1305.81 1871.59,1277.65C1878.5,1266.64 1891.56,1250.26 1900.9,1234.04C1906.34,1224.59 1910.68,1215.41 1910.7,1207.53C1910.7,1207.32 1910.71,1207.05 1910.73,1206.76Z"/>
    </g>
    <g transform="matrix(1.24588,0,0,1.13801,-492.17,-235.929)">
        <path d="M1793.13,1073.3C1793.5,1073.2 1793.89,1073.16 1794.29,1073.18C1798.61,1073.31 1798.96,1077.71 1798.98,1078.1C1799.06,1079.41 1798.82,1081.02 1797.32,1082.44C1797.22,1082.54 1796.45,1083.45 1794.71,1083.69C1794.33,1083.75 1791.31,1083.77 1789.82,1085.25C1777.49,1097.51 1769.08,1105.36 1762.24,1123.51C1749.68,1156.86 1745.5,1207.76 1766.48,1238.8C1768.06,1241.14 1767.61,1244.44 1765.47,1246.17C1763.33,1247.9 1760.31,1247.41 1758.73,1245.07C1735.88,1211.25 1739.65,1155.83 1753.33,1119.49C1760.82,1099.62 1769.85,1090.86 1783.34,1077.44C1786.08,1074.72 1791.62,1073.57 1793.13,1073.3ZM1789.76,1080.6C1790.24,1081.93 1791.33,1083.52 1793.75,1083.7C1791.96,1083.54 1790.46,1082.31 1789.76,1080.6ZM1790.19,1075.46C1789.77,1076.1 1789.54,1076.75 1789.44,1077.38C1789.57,1076.68 1789.83,1076.03 1790.19,1075.46Z"/>
    </g>
    <g transform="matrix(1.24588,0,0,1.13801,-492.17,-235.929)">
        <path d="M1738.98,1000.31C1739.9,999.214 1741.23,998.547 1742.7,998.604C1747.62,998.793 1748.28,1002.88 1748.33,1003.72C1748.41,1004.93 1748.27,1007.21 1745.84,1008.79C1745.17,1009.23 1742.81,1010.07 1739.92,1010.94C1737,1011.82 1733.29,1012.81 1731.69,1014C1725.09,1018.93 1718.63,1026.2 1713.69,1032.78C1698.31,1053.22 1689.14,1083.48 1684.77,1108.16C1669.99,1191.72 1690.2,1274.47 1729.48,1348.27C1730.82,1350.79 1730.04,1354.02 1727.74,1355.48C1725.45,1356.95 1722.5,1356.09 1721.16,1353.58C1680.69,1277.54 1660.08,1192.25 1675.32,1106.16C1679.96,1079.91 1689.9,1047.82 1706.25,1026.08C1711.74,1018.77 1718.94,1010.75 1726.27,1005.29C1728.76,1003.42 1735.12,1001.54 1738.98,1000.31Z"/>
    </g>
    <g transform="matrix(1.24588,0,0,1.13801,-492.17,-235.929)">
        <path d="M1694.69,906.471C1694.69,906.355 1694.69,906.238 1694.69,906.121C1694.81,903.214 1697.06,900.958 1699.72,901.087C1702.81,901.236 1704.31,902.643 1704.99,903.567C1706.29,905.332 1706.74,907.519 1705.46,910.098C1704.84,911.362 1702.72,913.519 1699.49,915.575C1694.44,918.785 1686.25,922.887 1682.42,925.299C1671.41,932.236 1667.43,943.471 1661.12,954.991C1642.32,989.298 1627.43,1026.03 1620.95,1064.8C1599.88,1190.97 1617.28,1329.25 1683.45,1439.82C1684.91,1442.25 1684.29,1445.52 1682.07,1447.12C1679.84,1448.71 1676.86,1448.03 1675.4,1445.6C1607.86,1332.76 1589.98,1191.66 1611.48,1062.9C1618.16,1022.89 1633.46,984.967 1652.86,949.567C1660.05,936.441 1665.07,924.063 1677.62,916.158C1681.46,913.739 1689.86,909.609 1694.69,906.471Z"/>
    </g>
    <path d="M665.352,1972.53C665.932,1971.44 666.514,1970.38 667.084,1969.34C669.631,1964.69 671.935,1960.4 671.963,1953.24C671.963,1953.22 672.675,1947.27 678.261,1947.26C680.066,1947.26 689.108,1947.26 689.491,1947.26C702.076,1947.26 713.786,1946.89 725.763,1944.51C732.555,1943.15 774.578,1932.68 792.77,1930.21C797.402,1929.58 800.829,1929.55 802.433,1929.91C804.186,1930.3 805.32,1931.11 806.039,1931.83C807.4,1933.19 808.051,1934.66 808.307,1936.11C808.644,1938.03 808.274,1940.07 807.032,1942.06C805.936,1943.81 802.535,1946.69 801.326,1947.69C797.262,1959.6 793.38,1968.27 793.38,1981.94C793.38,1995.11 802.662,2033.4 804.797,2048.96C805.401,2053.37 805.294,2056.49 804.914,2057.78C804.223,2060.12 802.782,2061.28 801.538,2061.89C789.109,2068.05 679.292,2096.93 663.543,2096.93C657.645,2096.93 654.897,2096.37 654.25,2096.09C652.671,2095.4 651.891,2094.39 651.435,2093.65C650.316,2091.82 650.214,2089.94 651.068,2088.02C651.437,2087.19 652.27,2085.68 654.491,2084.77C656.759,2083.84 673.936,2082.07 678.402,2082.06C679.053,2082.05 679.681,2082.16 680.268,2082.35C712.322,2075.81 776.295,2058.69 793.158,2052.4C791.832,2038.79 781.38,1996.07 781.38,1981.94C781.38,1966.34 785.685,1956.57 790.332,1942.76L790.364,1942.66C771.181,1945.79 734.371,1955.03 728.107,1956.28C715.355,1958.82 702.891,1959.26 689.491,1959.26L683.533,1959.26C682.789,1964.36 681.138,1968.36 679.136,1972.25C676.927,1976.54 674.178,1980.67 672.144,1986.72C670.954,1990.26 669.664,1993.74 668.343,1997.19C665.697,2019.79 655.537,2052.87 655.179,2069.78L655.18,2072.16C655.17,2074.91 653.854,2076.16 653.839,2076.18C652.135,2078.28 650.12,2078.57 648.411,2078.35C647.319,2078.21 644.537,2077.75 643.438,2074.14C643.415,2074.07 643.204,2073.55 643.179,2072.53C643.177,2072.44 643.173,2071.92 643.169,2070.88C643.167,2070.53 643.17,2070.18 643.179,2069.82C643.181,2064.64 643.168,2052.95 643.168,2047.91C643.168,2028.29 650.114,2011.66 656.603,1994.45C656.78,1992.62 656.897,1990.87 656.948,1989.21C657.019,1986.88 656.962,1984.79 656.681,1982.99C656.385,1982.65 656.126,1982.28 655.913,1981.88C654.427,1981.16 652.682,1980.29 651.794,1979.78C649.167,1978.27 648.17,1976.19 647.921,1975.24C647.419,1973.33 647.77,1971.62 648.86,1970.09C649.432,1969.29 650.989,1967.34 654.939,1967.34C659.581,1967.34 662.999,1969.15 665.352,1972.53Z"/>
    <path d="M1032.84,1992.8C1029.5,1983.1 1026.42,1972.92 1024.93,1962.84C1022.99,1949.59 1023.77,1936.52 1029.67,1924.77C1032.41,1919.3 1035.77,1916.35 1039.28,1914.87C1042.93,1913.32 1046.95,1913.29 1051.31,1914.48C1056.04,1915.77 1061.33,1918.66 1067.01,1921.55C1071.74,1923.96 1076.79,1926.39 1082.11,1927.28C1104.18,1930.94 1133.62,1921.11 1154.53,1915.9C1156.35,1915.44 1165.85,1912.38 1170.73,1912.3C1173.98,1912.24 1176.27,1913.4 1177.48,1914.62C1179.36,1916.51 1179.8,1918.4 1179.78,1920.01C1179.75,1921.77 1179.11,1923.53 1177.58,1925.07C1176.79,1925.88 1175.58,1926.69 1174.18,1927.41L1172.28,1928.37C1167.55,1937.49 1161.14,1946.43 1158.96,1957.32C1158.09,1961.69 1158.76,1967.96 1159.73,1974.98C1161.4,1986.94 1164.15,2000.8 1164.33,2012.07C1164.58,2028.39 1159.22,2039.58 1144.4,2039.58C1103.17,2039.58 1055.99,2049.17 1016.72,2048.16C1013.41,2048.08 1010.79,2045.32 1010.87,2042.01C1010.96,2038.7 1013.71,2036.08 1017.02,2036.17C1056.2,2037.17 1103.27,2027.58 1144.4,2027.58C1146.14,2027.58 1147.54,2027.3 1148.62,2026.57C1150.34,2025.42 1151.12,2023.36 1151.65,2020.92C1152.21,2018.37 1152.38,2015.43 1152.33,2012.25C1152.16,2001.43 1149.45,1988.12 1147.85,1976.64C1146.65,1968.03 1146.12,1960.32 1147.19,1954.96C1149.27,1944.57 1154.67,1935.69 1159.44,1926.96C1158.51,1927.24 1157.8,1927.45 1157.43,1927.54C1135.14,1933.09 1103.67,1943.02 1080.14,1939.11C1069.78,1937.39 1060.14,1931.01 1051.89,1927.42C1048.9,1926.13 1046.29,1924.93 1043.96,1925.92C1042.55,1926.51 1041.5,1927.96 1040.39,1930.15C1038.1,1934.73 1036.8,1939.56 1036.26,1944.53C1037.91,1944.88 1039.38,1945.92 1040.25,1947.47C1040.25,1947.47 1042.06,1950.7 1043.04,1953.52C1043.75,1955.56 1043.99,1957.51 1043.83,1958.82C1043.62,1960.63 1042.85,1962.01 1041.85,1963C1041.62,1963.23 1041.38,1963.45 1041.12,1963.64C1041.49,1972.59 1042.86,1981.29 1044.49,1989.88C1047.15,1997.55 1049.97,2004.89 1052.22,2011.6C1052.86,2013.54 1055.62,2019.68 1055.81,2023.02C1055.97,2025.84 1054.96,2027.92 1053.67,2029.21C1050.7,2032.19 1047.81,2032.36 1045.48,2031.7C1043.56,2031.15 1041.5,2029.7 1040.01,2026.9C1037.38,2021.94 1036.11,2009.25 1034.9,2003.21C1034.2,1999.75 1033.5,1996.29 1032.84,1992.8Z"/>
    <path d="M1370.94,1925.72C1370.97,1927.84 1371.08,1930.63 1371.44,1933.08C1373.97,1950.05 1381.87,1975.56 1383.36,1980.06C1384.04,1982.09 1386.05,1985.31 1387,1987.77C1388,1990.34 1388.08,1992.63 1387.69,1994.12C1387.32,1995.52 1386.61,1996.65 1385.62,1997.56C1384.5,1998.57 1382.92,1999.43 1380.55,1999.43C1379.37,1999.43 1377.99,1999.13 1376.59,1998.07C1375.73,1997.41 1374.24,1995.67 1372.86,1992.45C1369.03,1983.53 1361.67,1957.24 1351.68,1917.45C1349.9,1910.35 1348.6,1904.5 1348.64,1895.88C1348.65,1892.88 1350.06,1891.43 1351,1890.66C1352.56,1889.39 1354.51,1888.78 1356.93,1889.58C1357.74,1889.85 1358.99,1890.49 1360.24,1891.82C1361.5,1893.15 1363.44,1896.2 1364.64,1897.39C1366.08,1898.83 1367.16,1898.89 1368.42,1899.25C1370.32,1899.8 1372.45,1900.53 1375.24,1902.38C1379.54,1905.24 1384.83,1906.32 1390.32,1906.82C1396.66,1907.39 1403.29,1907.12 1409.38,1907.12C1430.99,1907.12 1451.45,1899.8 1470.01,1890.54C1471.89,1889.6 1474.41,1888.96 1476.66,1889.08C1479.02,1889.21 1481.13,1890.1 1482.69,1891.66C1484.79,1893.77 1485.72,1896.97 1484.97,1900.83C1484.38,1903.92 1481.88,1909.89 1481.57,1910.62C1481.51,1926.94 1478.69,1944.63 1478.69,1961.88C1478.69,1968.56 1483.24,1999.81 1483.68,2023.65C1483.89,2034.89 1483.07,2044.61 1480.87,2050.1C1479.28,2054.06 1476.85,2056.43 1474.22,2057.47C1471.37,2058.61 1467.78,2058.57 1463.59,2055.79C1435.61,2037.23 1393.75,2036.78 1361.04,2036.69C1357.73,2036.68 1355.05,2033.99 1355.06,2030.67C1355.07,2027.36 1357.76,2024.68 1361.07,2024.69C1395.7,2024.79 1439.81,2025.99 1469.63,2045.4C1470.12,2043.9 1470.88,2041.33 1471.15,2039.08C1473.82,2016.56 1466.69,1970.17 1466.69,1961.88C1466.69,1944.5 1469.55,1926.66 1469.57,1910.24C1469.57,1908.68 1470.43,1906 1471.58,1903.13C1452.4,1912.29 1431.42,1919.12 1409.38,1919.12C1400.9,1919.12 1391.53,1919.37 1382.99,1917.79C1383.4,1918.47 1383.63,1919.13 1383.76,1919.69C1384.18,1921.56 1383.84,1923.29 1382.66,1924.87C1382.02,1925.73 1380.07,1927.75 1375.34,1927.7C1373.59,1927.68 1372.03,1926.92 1370.94,1925.72ZM1362.21,1909.89C1362.49,1911.13 1362.79,1912.38 1363.11,1913.66C1364.4,1912.85 1366.16,1912.25 1368.25,1912.15C1365.9,1910.68 1364.31,1910.62 1362.77,1910.1L1362.21,1909.89Z"/>
    <path d="M1652.57,1898.58L1652.56,1897.83C1652.42,1884.97 1653.64,1874.76 1655.79,1870.85C1657.37,1867.97 1659.56,1866.7 1661.66,1866.33C1663.34,1866.03 1665.22,1866.23 1667.19,1867.43C1668.97,1868.51 1671.39,1871.09 1673.87,1876.01C1680.43,1889.03 1693.79,1893.25 1709.14,1893.67C1726.35,1894.14 1746.07,1889.75 1763.49,1885.15C1780.57,1880.65 1795.56,1875.94 1804.33,1874.8C1810.61,1873.99 1814.8,1875.42 1816.72,1877.34C1818.28,1878.9 1819.37,1881.09 1819.73,1883.89C1820.06,1886.42 1819.75,1889.68 1818.89,1893.31C1816.22,1904.48 1808.05,1920.15 1806.51,1923.97C1782.16,1984.5 1782.66,2017.3 1716.43,2039.29C1700.53,2044.57 1677.71,2054.05 1662.16,2053.9C1658.85,2053.87 1656.18,2051.15 1656.22,2047.84C1656.25,2044.53 1658.97,2041.87 1662.28,2041.9C1676.74,2042.04 1697.86,2032.81 1712.65,2027.9C1755.03,2013.83 1767.25,1994.71 1778.39,1965.52C1783.45,1952.28 1788.31,1937.07 1795.38,1919.49C1796.64,1916.35 1802.65,1904.88 1805.94,1894.91C1806.89,1892.03 1807.62,1889.31 1807.82,1887.04C1807.83,1886.92 1807.84,1886.78 1807.84,1886.64C1806.39,1886.74 1804.14,1886.94 1802.22,1887.32C1793.51,1889.06 1780.79,1893 1766.55,1896.76C1744.19,1902.66 1718.27,1907.97 1697.74,1904.67C1683.86,1902.44 1672.3,1896.43 1665.08,1884.84C1664.82,1887.2 1664.6,1889.82 1664.57,1892.35C1664.33,1907.38 1665.87,1928.43 1668.2,1945.24C1671.63,1955.65 1677.37,1973.17 1677.65,1977.67C1678.04,1983.71 1673.55,1985.1 1671.38,1985.1C1668.41,1985.1 1666.27,1983.73 1664.82,1981.26C1664.27,1980.31 1663.83,1979.08 1663.51,1977.74L1663.08,1975.92C1661,1971.66 1658.88,1962.14 1657.09,1950.5C1655.49,1945.26 1654.25,1941.17 1654.06,1940.41C1651.91,1931.88 1652.06,1920.92 1651.31,1913.42C1651.18,1912.16 1650.86,1910.6 1650.65,1909.71C1648.71,1908.61 1647.47,1906.46 1647.63,1904.08C1647.82,1901.28 1649.91,1899.05 1652.57,1898.58Z"/>
    <path d="M1977.17,1972.95C1972.41,1959.74 1962.95,1927.22 1959.19,1908.58C1958.06,1902.98 1955.28,1897.06 1952.85,1891.1C1949.95,1884.01 1947.54,1876.86 1947.57,1870.08C1947.57,1869.13 1948.59,1863.62 1954.43,1864.1C1957,1864.31 1969.86,1867.21 1970.65,1867.6C1984.29,1874.4 1994.62,1881.32 2011.19,1881.32C2034,1881.32 2054.4,1879.32 2076.43,1875.66C2083.58,1874.47 2091.9,1869.72 2099.77,1866.2C2106.2,1863.33 2112.41,1861.24 2117.69,1861.24C2119.77,1861.24 2121.16,1862.07 2122.13,1863.03C2123.24,1864.11 2124.05,1865.59 2124.01,1867.64C2124,1868.6 2123.56,1870.55 2122.07,1872.72C2119.7,1876.19 2113.76,1882.48 2113.28,1882.96C2108.51,1887.71 2100.84,1901.39 2098.68,1907.86C2092.44,1926.52 2083.44,1941.67 2075.95,1957.12C2068.94,1971.58 2063.3,1986.3 2063.22,2004.93C2063.21,2007.52 2062.03,2009.26 2060.19,2010.41C2059.19,2011.03 2057.78,2011.51 2056.09,2011.44C2054.64,2011.39 2052.74,2010.82 2051.66,2010.28C2039.46,2004.22 2028.93,1997.37 2015.22,1993.47C1990.4,1986.41 1953.5,1977.72 1928.27,1987.52C1925.18,1988.72 1921.7,1987.19 1920.5,1984.11C1919.3,1981.02 1920.83,1977.54 1923.92,1976.34C1939.21,1970.4 1958.45,1970.43 1977.17,1972.95ZM1960.7,1877.54C1961.53,1880.52 1962.72,1883.54 1963.96,1886.56C1966.69,1893.25 1969.69,1899.93 1970.95,1906.21C1971.91,1910.94 1973.24,1916.61 1974.77,1922.62C1975.53,1916.51 1976.36,1910.53 1976.36,1904.52C1976.36,1899.73 1978.28,1897.45 1979.88,1896.23C1981.6,1894.92 1983.58,1894.48 1985.44,1894.64C1987.88,1894.85 1989.99,1896.22 1990.87,1897.16C1991.87,1898.23 1992.3,1899.35 1992.48,1900.21C1992.8,1901.73 1992.55,1903.08 1991.95,1904.26C1991.42,1905.29 1990.44,1906.8 1988.3,1907.38C1987.89,1917.65 1985.48,1927.91 1985.48,1938.94C1985.48,1949.04 1988.25,1957 1988.35,1967.02L1990.48,1970.64C1991.59,1972.53 1992.05,1974.29 1992.1,1975.47C2001.59,1977.36 2010.62,1979.68 2018.51,1981.93C2030.9,1985.46 2040.88,1991.17 2051.58,1996.76C2052.98,1979.85 2058.43,1965.74 2065.15,1951.88C2072.43,1936.87 2081.23,1922.18 2087.3,1904.05C2089.38,1897.83 2095.83,1886.02 2101.23,1878.74L2100.56,1879.05C2092.97,1882.62 2085.19,1886.37 2078.4,1887.5C2055.7,1891.27 2034.68,1893.32 2011.19,1893.32C1992.68,1893.32 1980.92,1886.15 1965.76,1878.57L1960.7,1877.54ZM1982.77,1896.79C1983.8,1896.03 1985.07,1895.6 1986.44,1895.62C1984.73,1895.59 1983.57,1896.11 1982.77,1896.79Z"/>
    <path d="M2210.59,2010.6C2219.67,2009.71 2239.59,2007.76 2240.56,2007.6C2273.06,2002.2 2306.51,2013.74 2336.14,2013.22C2339.45,2013.16 2342.19,2015.8 2342.24,2019.11C2342.3,2022.42 2339.66,2025.16 2336.35,2025.22C2321.38,2025.48 2305.45,2022.7 2289.16,2020.5C2273.76,2018.42 2258.03,2016.86 2242.52,2019.43C2241.12,2019.67 2210.21,2023.94 2204.04,2022.85C2199.09,2021.97 2198.08,2018.37 2198.07,2016.41C2198.02,2003.62 2209.7,1962.87 2221.78,1937.12C2225,1930.27 2228.26,1924.47 2231.3,1920.42C2233.9,1916.96 2236.51,1914.64 2238.82,1913.5C2248.39,1908.72 2251.17,1915.6 2251.3,1918.07C2251.38,1919.54 2250.78,1921.9 2249.05,1923.93C2247.15,1926.14 2243.99,1927.73 2241.52,1927.7C2241.3,1927.7 2241.08,1927.68 2240.87,1927.65C2238.22,1931.18 2235.44,1936.27 2232.65,1942.22C2222.77,1963.26 2212.91,1994.91 2210.59,2010.6ZM2241.24,1915.71C2241.17,1915.71 2241.1,1915.72 2241.02,1915.72L2240.87,1915.74L2241.05,1915.72L2241.36,1915.7L2241.24,1915.71Z"/>
    <path d="M2330.99,2014.07C2333.98,2015.38 2337.99,2015.14 2342.45,2014.2C2351.11,2012.38 2361.18,2007.56 2370.25,2001.38C2379.25,1995.26 2387.29,1987.8 2391.79,1980.42C2394.17,1976.52 2395.61,1972.76 2394.97,1969.32C2394.32,1965.88 2391.39,1963.25 2386.24,1961.1C2379.16,1958.13 2368.51,1956.46 2353.43,1956.38C2350.11,1956.37 2347.44,1953.66 2347.46,1950.35C2347.47,1947.04 2350.17,1944.37 2353.49,1944.38C2374.39,1944.49 2387.84,1947.74 2395.73,1952.46C2402.4,1956.45 2405.72,1961.57 2406.76,1967.1C2407.89,1973.1 2406.18,1979.88 2402.04,1986.66C2396.78,1995.29 2387.52,2004.15 2377,2011.31C2366.55,2018.42 2354.89,2023.85 2344.92,2025.94C2337.17,2027.57 2330.29,2027.14 2325.25,2024.64C2320.46,2022.26 2317.88,2016.14 2318.99,2007.9C2320.21,1998.78 2325.51,1986.63 2331.09,1978.94C2333.96,1974.99 2337.01,1972.16 2339.61,1970.87C2342.46,1969.45 2349.26,1968.61 2353.35,1968.12C2354.43,1967.5 2355.72,1967.21 2357.05,1967.37C2363.43,1968.14 2363.31,1973.64 2363.22,1974.33C2363.07,1975.41 2362.5,1978.32 2358.78,1979.4C2357.97,1979.64 2354.72,1979.98 2351.18,1980.41C2348.83,1980.71 2346.26,1980.96 2344.96,1981.61C2343.37,1982.4 2341.74,1984.55 2340,1987.14C2336.64,1992.11 2333.5,1998.86 2331.84,2004.94C2331.17,2007.38 2330.74,2009.7 2330.7,2011.71C2330.69,2012.51 2330.9,2013.64 2330.99,2014.07Z"/>
    <path d="M2508.55,1964.55C2508.49,1962.8 2508.47,1961.09 2508.49,1959.43C2508.61,1949.54 2510.1,1941.18 2512.57,1936.26C2514.94,1931.54 2518.72,1932.19 2519.9,1932.49C2521.39,1932.85 2523.26,1933.79 2524.22,1936.4C2524.45,1937.02 2524.72,1938.28 2524.69,1940C2524.64,1942.65 2523.94,1948.01 2523.94,1950.43C2523.94,1954.85 2522.75,1960.27 2520.62,1966.16C2521.13,1977.22 2523.2,1989.6 2526.86,2000.1C2529.15,2006.68 2532.03,2012.51 2535.66,2016.63C2538.45,2019.81 2541.64,2021.92 2545.47,2021.83C2548.78,2021.74 2551.54,2024.36 2551.62,2027.67C2551.71,2030.98 2549.09,2033.74 2545.78,2033.82C2539.79,2033.97 2534.41,2031.76 2529.73,2027.65C2523.83,2022.48 2519,2014.02 2515.53,2004.05C2513.55,1998.39 2512,1992.23 2510.86,1985.99C2504.72,1995.97 2496.86,2005.74 2488.22,2013.23C2473.79,2025.74 2457.32,2031.61 2443.3,2024.64C2431.93,2018.99 2428.07,2006.77 2428.65,1993.02C2429.4,1975.56 2437.14,1955.78 2439.15,1950L2439.3,1949.57C2439.71,1946.48 2442.45,1944.2 2445.61,1944.39C2447.83,1944.53 2449.72,1945.54 2450.78,1948.06C2450.95,1948.44 2451.64,1950.63 2450.48,1953.96C2448.62,1959.28 2441.33,1977.45 2440.64,1993.53C2440.28,2002.16 2441.5,2010.35 2448.64,2013.89C2458.68,2018.88 2470.03,2013.12 2480.36,2004.16C2490.9,1995.02 2500.25,1982.1 2506.05,1970.17C2506.97,1968.26 2507.81,1966.38 2508.55,1964.55ZM2440.09,1953.46C2441.13,1955.33 2442.72,1956.16 2444.56,1956.34C2442.64,1956.12 2441.02,1955.02 2440.09,1953.46Z"/>
    <path d="M2577.98,1933.72C2577.27,1932.69 2576.87,1931.43 2576.92,1930.09C2577.03,1926.78 2579.82,1924.19 2583.13,1924.31C2586.3,1924.42 2589.32,1926.29 2589.97,1931.1C2590.55,1935.43 2587.63,1946.39 2587.16,1948.74C2585.82,1955.39 2577.6,1986.73 2577.91,2010.56C2578,2017.63 2578.78,2023.97 2581.04,2028.49C2582.54,2031.49 2584.87,2033.4 2588.48,2033.3C2591.79,2033.21 2594.55,2035.82 2594.65,2039.13C2594.74,2042.44 2592.13,2045.2 2588.82,2045.29C2576.34,2045.64 2569.36,2036.92 2566.95,2023.03C2562.6,1998 2573.75,1954.52 2575.39,1946.37C2575.65,1945.12 2576.77,1941.14 2577.51,1937.32C2577.72,1936.21 2577.89,1934.71 2577.98,1933.72ZM2582.41,1936.28C2582.51,1936.29 2582.6,1936.3 2582.7,1936.3L2582.41,1936.28ZM2582.16,1936.26L2582.22,1936.26L2582.16,1936.26L2582.16,1936.26Z"/>
    <path d="M2527.11,1931.73C2527.43,1930.7 2527.99,1929.03 2528.51,1927.93C2529.41,1926.02 2530.69,1924.28 2532.45,1922.97C2535.15,1920.98 2539.2,1919.61 2545.76,1921.79C2573.01,1930.84 2599.4,1953.81 2624.61,1968.16C2629.2,1970.77 2652.92,1982.03 2664.98,1992.02C2668.87,1995.23 2671.64,1998.46 2672.93,2001.27C2674.48,2004.62 2674.41,2007.74 2673.01,2010.5C2671.19,2014.1 2667.18,2017.43 2660.98,2019.86C2653.9,2022.64 2643.55,2024.58 2631.35,2025.79C2586.26,2030.27 2514.71,2025.34 2496.83,2025.22C2493.51,2025.2 2490.84,2022.49 2490.87,2019.18C2490.89,2015.87 2493.6,2013.2 2496.91,2013.22C2514.62,2013.34 2585.5,2018.29 2630.16,2013.85C2641.03,2012.77 2650.28,2011.17 2656.6,2008.69C2658.82,2007.82 2660.66,2007.04 2661.7,2005.93C2660.93,2004.94 2659.11,2002.73 2657.33,2001.26C2645.8,1991.72 2623.06,1981.08 2618.68,1978.59C2594.11,1964.6 2568.53,1941.99 2541.98,1933.17C2541.37,1932.97 2540.83,1932.83 2540.33,1932.76C2540.09,1932.72 2539.78,1932.72 2539.58,1932.72C2539.36,1933.34 2538.39,1936.01 2538.02,1936.97C2536.5,1940.9 2533.68,1942.15 2531.03,1942.04C2527.72,1941.89 2525.15,1939.09 2525.29,1935.79C2525.36,1934.19 2526.05,1932.76 2527.11,1931.73ZM2531.1,1930.05L2531.15,1930.04L2531.12,1930.04L2531.1,1930.05Z"/>
    <path d="M117.384,2046.01C116.456,2044.9 115.925,2043.45 115.996,2041.89C116.146,2038.58 118.954,2036.02 122.262,2036.17C123.841,2036.24 126.842,2037.23 128.393,2041.01C129.633,2044.03 130.818,2051.57 130.998,2052.47C137.006,2082.39 146.561,2111.74 153.958,2141.1C154.444,2143.03 155.11,2149.98 154.596,2153.45C154.24,2155.84 153.218,2157.45 152.393,2158.28C147.967,2162.7 142.062,2163.53 135.17,2160.93C124.469,2156.91 110.304,2142.98 98.629,2130.71C95.146,2127.05 91.274,2123.22 88.069,2120.11C88.455,2123.41 88.997,2127.23 89.646,2131.29C94.752,2146.69 99.049,2167.5 99.414,2175.92L102.01,2183.68C103.007,2186.65 101.545,2189.89 98.656,2191.11C95.767,2192.33 92.425,2191.12 90.988,2188.33C90.988,2188.33 88.092,2182.3 87.535,2178.21C85.434,2171.67 82.818,2160.2 80.557,2148.41C78.543,2147.98 76.952,2146.55 76.241,2144.72C74.733,2143.6 72.673,2142.03 71.382,2140.88C69.775,2139.43 68.562,2137.93 67.92,2136.64C66.703,2134.21 65.948,2130.02 65.962,2125.8C65.976,2121.68 66.698,2117.59 67.776,2115.2C69.352,2111.71 71.996,2110.31 74.295,2110.11C74.678,2110.08 75.078,2110.07 75.491,2110.1C75.555,2108.76 75.7,2107.72 75.893,2107.05C76.326,2105.53 77.053,2104.54 77.701,2103.89C79.397,2102.2 81.788,2101.24 85.039,2102.24C86.217,2102.61 87.775,2103.41 89.547,2104.77C92.158,2106.77 95.733,2110.29 99.873,2114.6C109.307,2124.43 122.024,2138.67 133.001,2146.18C135.478,2147.87 137.825,2149.2 140.004,2149.92C140.985,2150.24 141.903,2150.51 142.698,2150.39C142.651,2148.44 142.537,2144.89 142.321,2144.03C134.877,2114.48 125.279,2084.94 119.233,2054.83C119.108,2054.2 117.755,2047.77 117.384,2046.01ZM121.388,2048.13L121.396,2048.14L121.336,2048.13L121.388,2048.13ZM121.056,2048.09L121.063,2048.09L121.04,2048.09L121.056,2048.09Z"/>
    <path d="M196.92,2090.52C196.013,2089.22 195.009,2087.96 193.905,2086.77C186.768,2079.05 175.499,2074.03 159.256,2073.98C155.944,2073.97 153.265,2071.27 153.276,2067.96C153.288,2064.65 155.985,2061.97 159.297,2061.98C177.127,2062.04 190.036,2067.27 198.996,2075.02C203.337,2078.78 206.757,2083.16 209.349,2087.9C212.631,2088.46 213.574,2090.94 213.857,2091.67C214.201,2092.56 214.875,2095.14 213.303,2097.31C218.438,2113.92 215.445,2132.72 207.471,2145.02C199.213,2157.75 186.153,2163.87 171.406,2156.54C162.245,2151.99 157.999,2146.14 156.552,2140.13C155.12,2134.19 156.5,2127.76 159.718,2121.49C165.027,2111.15 175.457,2101.14 181.342,2095.28C181.577,2095.05 182.58,2094.11 184.618,2093.53C186.414,2093.01 191.972,2091.68 196.92,2090.52ZM202.181,2101.62C197.229,2102.81 191.456,2104.13 188.743,2104.84C183.372,2110.13 174.813,2118.36 170.393,2126.97C168.593,2130.48 167.418,2134 168.219,2137.32C169.004,2140.59 171.772,2143.32 176.747,2145.79C188.717,2151.74 197.979,2141.57 201.898,2128.56C204.396,2120.27 204.796,2110.55 202.181,2101.62Z"/>
    <path d="M270.835,2064.06C271.799,2065.25 272.064,2066.51 272.081,2066.58C272.462,2068.15 272.285,2069.76 271.235,2071.32C271.005,2071.67 269.987,2073.62 266.888,2073.95C266.852,2073.96 266.646,2073.99 266.228,2073.99C264.595,2074 263.609,2074.1 263.019,2074.01C261.94,2073.84 261.067,2073.46 260.318,2072.96C259.27,2072.25 257.306,2070.64 257.327,2065.1C257.337,2062.69 258.231,2060.14 260.283,2057.66C263.046,2054.32 268.601,2050.72 275.806,2047.37C296.197,2037.89 331.053,2029.17 336.809,2025.59C339.622,2023.85 343.325,2024.71 345.071,2027.53C346.818,2030.34 345.951,2034.04 343.138,2035.79C337.254,2039.44 301.704,2048.57 280.863,2058.25C276.929,2060.08 273.573,2061.9 271.218,2063.74C271.092,2063.84 270.963,2063.95 270.835,2064.06Z"/>
    <path d="M322.815,2044.08C322.604,2043.46 322.493,2042.79 322.501,2042.1C322.537,2038.79 325.254,2036.13 328.565,2036.16C332.129,2036.2 333.904,2037.94 334.907,2039.74C335.707,2041.18 336.147,2043.2 335.407,2045.68C334.586,2048.43 330.574,2053.51 329.161,2056.33C328.567,2057.52 328.773,2058.97 329.119,2060.57C329.693,2063.21 330.927,2066.09 332.435,2069.05C337.889,2079.76 346.592,2091.3 348.577,2097.77C349.55,2100.93 347.769,2104.29 344.604,2105.26C341.438,2106.24 338.079,2104.46 337.106,2101.29C335.245,2095.23 326.855,2084.54 321.741,2074.49C319.274,2069.65 317.5,2064.91 316.989,2060.76C316.54,2057.11 317.01,2053.8 318.428,2050.97C319.165,2049.49 320.59,2047.44 321.966,2045.41C322.232,2045.02 322.533,2044.54 322.815,2044.08ZM328.014,2048.14L328.036,2048.14L327.991,2048.14L328.014,2048.14Z"/>
    <path d="M186.314,2193.1C187.443,2191.81 189.112,2191.01 190.957,2191.05C196.648,2191.17 197.632,2195.28 197.798,2196.36C198.03,2197.85 197.959,2200.21 195.45,2202.19C194.835,2202.67 193.047,2203.58 190.565,2204.41C187.218,2205.54 181.95,2207 179.604,2208.17C166.965,2214.45 150.177,2222.21 136.348,2232.33C128.531,2238.05 121.649,2244.5 117.307,2251.97C118.595,2252.5 120.426,2253.19 122.003,2253.56C132.351,2255.99 147.078,2256.57 149.622,2257.2C154.908,2258.52 169.262,2258.41 178.736,2260.9C184.834,2262.5 189.195,2265.44 190.95,2268.95C194.756,2276.56 192.278,2283.07 185.814,2288.25C175.451,2296.55 152.163,2300.59 144.914,2300.57C141.603,2300.55 138.924,2297.86 138.935,2294.55C138.947,2291.23 141.645,2288.55 144.956,2288.57C150.103,2288.59 165.044,2286.23 174.615,2281.23C176.677,2280.15 178.473,2278.98 179.686,2277.59C180.476,2276.69 180.823,2275.64 180.272,2274.44C180.098,2274.32 179.22,2273.73 178.58,2273.46C176.729,2272.67 174.402,2272.13 171.888,2271.7C162.68,2270.11 151.323,2269.99 146.725,2268.85C143.707,2268.1 123.845,2267.34 113.85,2263.67C105.225,2260.5 102.425,2254.75 105.348,2248.88C110.349,2238.84 119.036,2230.13 129.262,2222.65C143.66,2212.11 161.103,2203.96 174.263,2197.42C176.57,2196.28 182.905,2194.19 186.314,2193.1Z"/>
    <path d="M210.471,2267.12C210.844,2267.13 211.267,2267.13 211.617,2267.09C213.196,2266.91 215.004,2266.43 216.988,2265.75C225.679,2262.76 237.131,2255.9 247.42,2247.71C256.553,2240.44 264.801,2232.12 269.155,2224.38C271.298,2220.56 272.64,2217.06 271.646,2214.04C270.907,2211.79 268.741,2210.22 265.345,2208.9C260.315,2206.95 253.063,2205.93 243.138,2205.93C231.502,2205.93 220.99,2205.04 209.818,2208.51C206.655,2209.5 203.29,2207.73 202.306,2204.57C201.323,2201.4 203.092,2198.04 206.254,2197.05C218.629,2193.21 230.25,2193.93 243.138,2193.93C257.613,2193.93 267.345,2196.12 273.42,2199.43C278.681,2202.3 281.662,2206.09 283.044,2210.28C284.937,2216.04 283.7,2222.99 279.616,2230.26C274.633,2239.12 265.345,2248.78 254.894,2257.1C241.374,2267.86 225.937,2276.34 215.885,2278.52C209.272,2279.96 204.294,2278.63 201.532,2275.9C197.552,2271.97 197.033,2266.45 200.512,2260.01C205.234,2251.26 218.983,2239.49 229.853,2230.22C233.336,2227.26 237.199,2223.58 239.482,2221.37C239.371,2220.9 239.316,2220.41 239.323,2219.9C239.373,2216.59 242.102,2213.94 245.413,2213.99C250.315,2214.07 252.153,2216.74 252.856,2218.92C253.251,2220.15 253.363,2221.63 252.83,2223.34C252.441,2224.58 251.468,2226.32 249.735,2228.27C243.227,2235.6 221.888,2250.92 213.008,2262.76C212.107,2263.96 211.354,2265.1 210.823,2266.19C210.692,2266.46 210.569,2266.8 210.471,2267.12Z"/>
    <path d="M210.298,2345.35C207.796,2350.03 207.105,2356.49 207.104,2363.33C207.103,2378.46 211.313,2395.58 214.317,2404.53C214.411,2404.81 214.758,2404.83 215.063,2404.96C215.589,2405.18 216.186,2405.34 216.838,2405.46C218.846,2405.86 221.261,2405.91 223.945,2405.77C242.893,2404.82 273.043,2394.71 282.595,2394.69C285.907,2394.68 288.602,2397.37 288.609,2400.68C288.617,2403.99 285.935,2406.68 282.623,2406.69C273.162,2406.71 243.318,2416.81 224.551,2417.76C218.546,2418.06 213.477,2417.42 209.962,2415.82C206.418,2414.21 204.066,2411.69 202.942,2408.35C199.659,2398.58 195.103,2379.86 195.104,2363.33C195.105,2350.97 197.87,2339.84 204.384,2333.35C206.308,2331.43 208.927,2330.67 211.772,2331.13C214.222,2331.53 216.861,2333.04 218.381,2334.54C221.445,2337.58 221.047,2341.19 220.008,2343.05C219.206,2344.49 217.554,2346.53 213.661,2346.46C212.406,2346.43 211.248,2346.03 210.298,2345.35Z"/>
    <path d="M350.003,2326.03C348.787,2325.59 347.478,2325.2 346.093,2324.86C333.108,2321.61 314.028,2322.46 299.314,2328.76C296.27,2330.07 292.74,2328.66 291.435,2325.61C290.131,2322.57 291.543,2319.04 294.587,2317.73C314.69,2309.12 341.761,2309.4 356.329,2315.64C364.734,2319.23 369.327,2324.98 369.489,2331.33C369.583,2334.99 368.251,2339.17 364.565,2343.59C360.48,2348.49 353.043,2354.11 341.126,2360.06C340.497,2360.53 336.317,2363.62 333.723,2364.22C330.691,2364.93 327.794,2364.37 325.339,2361.94C320.878,2357.51 321.261,2351.23 326.325,2344.87C331.781,2338.01 344.848,2329.21 347.109,2327.71C347.882,2326.9 348.881,2326.31 350.003,2326.03ZM353.345,2338.01C351.129,2339.53 347.059,2342.23 343.127,2345.35C347.51,2342.78 350.881,2340.34 353.345,2338.01ZM348.311,2336.97C348.984,2337.4 349.878,2337.78 351.078,2337.84C350.067,2337.78 349.125,2337.47 348.311,2336.97ZM357.464,2331.34L357.466,2331.36C357.476,2331.48 357.494,2331.73 357.473,2332.08C357.491,2331.93 357.497,2331.78 357.493,2331.64C357.491,2331.54 357.481,2331.44 357.464,2331.34Z"/>
    <path d="M432.992,2293.11C430.838,2289.95 428.868,2286.72 427.286,2283.52C421.65,2272.12 420.928,2261.05 428.967,2253.04C431.599,2250.42 434.472,2249.61 437.179,2249.86C439.643,2250.1 442.183,2251.3 444.367,2253.75C446.844,2256.52 449.059,2261.33 449.886,2267.57C450.778,2274.29 450.144,2282.83 446.739,2291.81C452.707,2299.73 459.263,2306.79 462.416,2311.11C464.369,2313.78 463.782,2317.54 461.107,2319.49C458.433,2321.44 454.676,2320.86 452.724,2318.18C450.172,2314.68 445.536,2309.45 440.695,2303.41C439.394,2305.03 438.014,2306.16 435.002,2309.85C431.666,2313.93 424.93,2321.77 417.75,2326.26C411.412,2330.22 404.687,2331.53 398.875,2328.63C394.343,2326.37 392.27,2322.09 392.332,2316.64C392.385,2311.94 394.264,2306.13 395.902,2301.65C396.337,2300.46 396.821,2299.06 397.122,2298.18C397.088,2297.92 397.072,2297.65 397.074,2297.39C397.102,2294.07 399.813,2291.41 403.124,2291.43C405.37,2291.45 406.972,2292.42 408.124,2293.98C408.795,2294.9 409.514,2296.36 409.351,2298.5C409.207,2300.4 406.679,2306.19 405.128,2312.01C404.691,2313.64 404.348,2315.29 404.331,2316.77C404.327,2317.15 404.416,2317.72 404.465,2318C406.655,2318.91 409.016,2317.57 411.391,2316.08C417.393,2312.33 422.92,2305.67 425.709,2302.26C429.862,2297.17 430.402,2298.03 432.992,2293.11ZM400.237,2302.72C400.94,2303.13 401.756,2303.37 402.705,2303.42C401.816,2303.37 400.979,2303.12 400.237,2302.72ZM436.154,2263.14C433.539,2267.28 435.282,2272.57 437.95,2278C438.546,2273.44 438.258,2269.34 437.392,2266.08C437.126,2265.08 436.614,2263.99 436.154,2263.14Z"/>
    <path d="M508.004,2253.09C506.803,2251.98 506.055,2250.4 506.066,2248.64C506.087,2245.33 508.792,2242.65 512.104,2242.68C515.428,2242.7 518.085,2244.41 519.382,2248.27C520.185,2250.66 520.201,2254.89 519.918,2258.94C519.781,2260.88 519.676,2263.78 519.657,2264.33C524.313,2277.93 533.054,2287.92 539.366,2300.49C540.043,2301.84 543.509,2306.15 545.953,2309.12C547.011,2309.56 547.952,2310.32 548.629,2311.35C550.537,2314.25 550.807,2316.01 550.831,2316.43C550.945,2318.38 550.234,2319.67 549.546,2320.54C548.319,2322.1 546.512,2323.23 543.766,2322.75C543.234,2322.66 541.777,2322.34 540.206,2320.84C538.015,2318.75 530.031,2308.64 528.641,2305.87C522.017,2292.68 512.975,2282.14 508.16,2267.81C507.69,2266.41 507.571,2263.41 507.814,2259.96C507.957,2257.93 507.994,2254.71 508.004,2253.09Z"/>
    <path d="M592.445,2081.42C592.225,2080.79 592.108,2080.12 592.112,2079.42C592.13,2076.11 594.833,2073.43 598.144,2073.45C600.786,2073.47 602.456,2074.56 603.584,2075.86C604.666,2077.11 605.409,2078.82 605.284,2081.05C605.198,2082.61 604.436,2084.97 603.035,2087.48C600.968,2091.19 597.503,2095.72 596.555,2097.14C590.725,2105.85 587.558,2114.9 584.434,2123.71C580.972,2133.48 577.548,2142.98 571.491,2151.71C569.603,2154.43 565.861,2155.11 563.141,2153.22C560.42,2151.33 559.745,2147.59 561.633,2144.87C567.066,2137.04 570.018,2128.46 573.124,2119.7C576.567,2109.99 580.158,2100.07 586.583,2090.47C587.351,2089.32 590.799,2083.97 592.445,2081.42ZM597.667,2085.43L597.702,2085.44L597.62,2085.43L597.667,2085.43Z"/>
    <path d="M477.606,2248.94C493.76,2249.05 529.334,2262.79 551.478,2282.11C564.786,2293.72 573.609,2307.28 567.251,2321.49C563.01,2330.96 552.58,2340.26 534.161,2349.44C521.543,2355.73 512.202,2363.23 497.764,2363.14C494.453,2363.12 491.747,2365.79 491.725,2369.1C491.703,2372.41 494.374,2375.12 497.686,2375.14C514.178,2375.25 525.101,2367.36 539.514,2360.18C561.356,2349.29 573.175,2337.63 578.204,2326.39C586.681,2307.45 577.107,2288.54 559.365,2273.06C534.943,2251.76 495.505,2237.06 477.688,2236.94C474.377,2236.92 471.67,2239.59 471.648,2242.9C471.625,2246.21 474.295,2248.92 477.606,2248.94Z"/>
    <path d="M948.526,2059.6C949.761,2058.44 959.336,2049.58 966.625,2046.4C973.799,2043.27 981.214,2043.22 987.426,2049.41C995.651,2057.6 995.473,2066.18 991.152,2074.45C987.728,2081 981.163,2087.39 974.707,2092.88C971.926,2095.24 969.173,2097.41 966.852,2099.34C988.829,2099.92 1011.69,2105.23 1031.14,2105C1034.45,2104.96 1037.17,2107.62 1037.21,2110.93C1037.25,2114.24 1034.59,2116.96 1031.28,2117C1010.67,2117.24 986.223,2111.29 963.058,2111.29C958.471,2111.29 955.604,2110.53 954.019,2109.68C952.116,2108.66 951.045,2107.29 950.436,2105.87C949.772,2104.32 949.599,2102.57 950.182,2100.61C950.68,2098.94 952.093,2096.7 954.534,2094.31C959.419,2089.51 969.539,2082.54 976.374,2074.71C981.076,2069.33 984.563,2063.49 978.957,2057.91C977.229,2056.19 975.177,2056.16 973.167,2056.76C969.784,2057.75 966.469,2060.13 963.623,2062.43C959.812,2065.49 956.73,2068.54 955.18,2069.62C953.268,2070.97 951.601,2071.14 950.684,2071.11C947.374,2070.99 944.785,2068.2 944.906,2064.89C944.993,2062.5 946.467,2060.49 948.526,2059.6Z"/>
    <path d="M1257.08,2060.31C1258.06,2058.38 1260.92,2053.48 1265.59,2051.16C1271.88,2048.03 1283.64,2046.22 1295.48,2046.19C1307.31,2046.16 1319.16,2047.93 1325.65,2051.16C1332.14,2054.39 1334.62,2058.4 1335.24,2062.05C1335.88,2065.86 1334.51,2069.97 1331.3,2073.87C1327.55,2078.44 1321.01,2083.02 1315.85,2086.84C1313.79,2088.36 1311.25,2090.66 1310.98,2090.91C1308.65,2095.66 1309.05,2099.5 1310.02,2102.93C1310.92,2106.08 1312.19,2108.99 1312.96,2111.85C1314.72,2118.43 1314.69,2124.88 1307.02,2132.49C1302.48,2137 1293.3,2139.97 1286.46,2139.95C1283.15,2139.94 1280.47,2137.24 1280.48,2133.93C1280.49,2130.62 1283.19,2127.94 1286.5,2127.95C1290.47,2127.96 1295.93,2126.6 1298.57,2123.97C1302.15,2120.42 1302.11,2117.47 1301.21,2114.4C1300.59,2112.31 1299.74,2110.2 1299.02,2107.96C1296.95,2101.6 1295.77,2094.48 1300.32,2085.39C1301.09,2083.86 1302.76,2081.92 1305.19,2079.91C1308.89,2076.86 1314.78,2073.08 1319.23,2069.1C1320.63,2067.84 1321.88,2066.59 1322.73,2065.31C1322.9,2065.05 1323.06,2064.8 1323.18,2064.54C1323.25,2064.41 1323.32,2064.21 1323.36,2064.08C1323.04,2063.79 1321.67,2062.58 1320.3,2061.9C1314.98,2059.25 1305.21,2058.17 1295.5,2058.19C1285.79,2058.21 1276.09,2059.34 1270.93,2061.9C1269.16,2062.78 1268.52,2064.16 1268.06,2065.15C1267.49,2066.35 1266.99,2067.34 1266.5,2068.03C1264.89,2070.25 1262.91,2071.14 1260.59,2071.11C1257.28,2071.07 1254.63,2068.35 1254.67,2065.04C1254.69,2063.1 1255.63,2061.38 1257.08,2060.31Z"/>
    <path d="M1593.86,2053.61C1595.01,2051.53 1597.33,2050.25 1599.83,2050.55C1599.62,2050.52 1598.97,2050.51 1598.97,2050.51C1598.97,2050.51 1606.73,2057.71 1603.61,2060.8C1599.27,2065.11 1579.48,2086.97 1570.6,2102.29C1568.95,2105.15 1567.59,2109.03 1567.12,2110.44C1569.75,2112.38 1573.23,2112.47 1577.04,2112.07C1582.94,2111.45 1589.56,2109.36 1596.18,2107.37C1605.28,2104.63 1614.4,2102.14 1622.02,2102.55C1628.39,2102.9 1633.87,2105.09 1638.07,2109.94C1640.24,2112.45 1639.97,2116.24 1637.46,2118.41C1634.96,2120.57 1631.17,2120.3 1629,2117.8C1626.4,2114.79 1622.64,2114.29 1618.46,2114.56C1612.67,2114.93 1606.16,2116.9 1599.63,2118.86C1590.64,2121.57 1581.6,2124.26 1574,2124.24C1567.59,2124.23 1562.04,2122.43 1557.74,2118.15C1554.96,2115.39 1553.95,2110.12 1556.69,2103.32C1562.67,2088.5 1586.45,2061.38 1593.86,2053.61Z"/>
    <path d="M1630.4,2096.76C1630.4,2096.57 1630.41,2096.38 1630.42,2096.19C1630.68,2092.89 1633.57,2090.42 1636.88,2090.68C1638.41,2090.8 1639.64,2091.41 1640.64,2092.36C1641.58,2093.25 1642.7,2094.8 1642.57,2097.34C1642.52,2098.26 1642.04,2100.19 1641.09,2102.49C1639.93,2105.29 1637.59,2110.62 1637.07,2111.82C1636.96,2124.49 1634.75,2140.41 1633.79,2154.44C1633.56,2157.74 1630.69,2160.24 1627.39,2160.01C1624.08,2159.78 1621.59,2156.92 1621.81,2153.61C1622.78,2139.56 1625.05,2123.58 1625.07,2111.03C1625.07,2110.36 1625.27,2109.02 1625.91,2107.31C1626.84,2104.88 1629.6,2098.6 1630.4,2096.76ZM1632.82,2101.47C1633.67,2102.15 1634.7,2102.55 1635.93,2102.64C1634.76,2102.55 1633.7,2102.13 1632.82,2101.47Z"/>
    <path d="M1920.03,2030.24C1921.44,2029.59 1922.87,2028.91 1924.31,2028.24C1931.33,2024.95 1938.46,2021.86 1944.93,2021.86C1948.02,2021.86 1950.31,2023.5 1951.24,2026.67C1951.58,2027.84 1951.65,2029.46 1951.29,2030.99C1950.9,2032.64 1950.02,2034.11 1949.15,2034.98C1946.36,2037.76 1942.64,2039.53 1938.28,2040.55C1933.59,2041.65 1928.06,2041.85 1922.57,2042.12C1917.79,2044.03 1913.11,2045.39 1908.75,2045.29C1908.09,2045.28 1907.45,2045.16 1906.86,2044.94C1905.87,2045.55 1905.02,2046.33 1904.41,2047.4C1904.48,2047.7 1904.64,2048.35 1904.82,2048.78C1905.65,2050.8 1907.15,2053.08 1909.01,2055.62C1915.65,2064.66 1926.53,2076.11 1934.11,2087.56C1941.54,2098.77 1945.57,2110.18 1942.44,2119.79C1939.38,2129.21 1929.25,2138.05 1905.76,2142.73C1895.37,2144.8 1882.16,2142.85 1871.58,2142.82C1868.27,2142.8 1865.59,2140.11 1865.6,2136.8C1865.61,2133.48 1868.31,2130.8 1871.62,2130.82C1881.46,2130.85 1893.75,2132.89 1903.42,2130.96C1912.3,2129.2 1918.88,2126.92 1923.58,2124.14C1927.32,2121.93 1929.7,2119.49 1930.81,2116.7C1932.53,2112.36 1931.22,2107.52 1928.85,2102.46C1925.89,2096.13 1921.1,2089.62 1916.08,2083.35C1907.48,2072.61 1898.26,2062.53 1894.59,2055.23C1891.99,2050.07 1891.86,2045.64 1893.49,2042.38C1897.34,2034.68 1905.28,2031.6 1914.69,2030.62C1916.43,2030.44 1918.22,2030.33 1920.03,2030.24Z"/>
    <path d="M1697.76,2016.73C1699.31,2014.81 1700.76,2013.1 1701.74,2012.13C1714.2,1999.74 1724.6,1985.73 1735.98,1972.34C1760.75,1943.21 1786.56,1912.74 1813.69,1885.72C1899.47,1800.31 1991.84,1728.7 2085.82,1653.15C2088.4,1651.07 2092.18,1651.48 2094.26,1654.07C2096.33,1656.65 2095.92,1660.43 2093.34,1662.5C1999.69,1737.78 1907.63,1809.11 1822.16,1894.23C1795.26,1921.01 1769.68,1951.24 1745.13,1980.12C1733.53,1993.76 1722.9,2008.01 1710.2,2020.64C1707.6,2023.22 1703.59,2029.33 1700.53,2033.03C1698.18,2035.87 1695.82,2037.55 1694.46,2038C1691.89,2038.84 1689.8,2038.23 1688.14,2036.87C1687.05,2035.98 1685.55,2034.23 1685.54,2030.75C1685.47,2012.74 1688.36,1957.26 1685.92,1925.37C1685.45,1919.2 1684.79,1913.96 1683.83,1910.17C1683.55,1909.07 1683.04,1907.8 1682.75,1907.12C1680.53,1906.14 1679.03,1903.87 1679.17,1901.3C1679.35,1897.99 1682.18,1895.45 1685.48,1895.63C1687.73,1895.75 1689.93,1896.73 1691.8,1898.98C1693.62,1901.19 1695.35,1905.6 1696.41,1911.8C1700.4,1934.89 1698.46,1987.76 1697.76,2016.73Z" style="fill:rgb(101,101,101);"/>
    <path d="M2252.35,1847.55L2253.12,1845.26C2255.64,1837.77 2297.84,1757.03 2303.16,1751.27C2305.4,1748.84 2309.2,1748.69 2311.63,1750.93C2314.07,1753.18 2314.22,1756.98 2311.97,1759.41C2306.91,1764.9 2266.89,1841.95 2264.49,1849.08C2262.56,1854.82 2258.71,1866.28 2258.71,1866.28C2257.92,1868.63 2255.76,1870.26 2253.28,1870.36C2250.8,1870.47 2248.51,1869.04 2247.52,1866.76C2247.52,1866.76 2237.55,1843.79 2233.04,1832.11C2230.29,1825 2230.42,1817.19 2231.41,1810.37C2232.02,1806.11 2233.07,1800.84 2233.55,1798.53C2233.01,1797.62 2232.71,1796.56 2232.73,1795.42C2232.77,1792.11 2235.49,1789.46 2238.8,1789.5C2240.66,1789.52 2242.1,1790.17 2243.24,1791.15C2244.6,1792.3 2245.95,1794.45 2245.78,1797.91C2245.67,1800.25 2244.69,1804.19 2243.81,1808.91C2242.77,1814.51 2241.82,1821.52 2244.24,1827.79C2246.29,1833.11 2249.49,1840.81 2252.35,1847.55ZM2238.39,1801.49C2238.48,1801.49 2238.57,1801.5 2238.65,1801.5L2238.39,1801.49Z"/>
    <path d="M2405.34,1843.84C2404.66,1843.59 2403.77,1843.29 2403.11,1843.1C2400.95,1842.49 2398.78,1841.84 2397.22,1841.07C2384.12,1834.55 2362.65,1838 2350.74,1843.94C2349.99,1844.31 2344.56,1847.38 2341.49,1847.71C2338.7,1848.02 2336.58,1847.06 2335.19,1845.68C2331.41,1841.92 2329.8,1836.46 2329.99,1829.91C2330.21,1822.53 2332.73,1813.48 2334.79,1804.9C2335.99,1799.94 2337.02,1795.16 2337.05,1791.09C2337.07,1788.85 2336.97,1786.87 2335.71,1785.58C2334.98,1784.82 2333.87,1784.44 2332.43,1784.21C2329.16,1783.69 2326.93,1780.61 2327.45,1777.34C2327.98,1774.07 2331.06,1771.84 2334.33,1772.36C2338.83,1773.09 2342.02,1774.86 2344.31,1777.21C2348.94,1781.97 2349.85,1789.97 2348.23,1799.37C2346.67,1808.43 2343.05,1819.05 2342.16,1827.81C2341.89,1830.41 2341.71,1832.81 2342.27,1834.75L2345.39,1833.19C2360.04,1825.9 2386.47,1822.31 2402.57,1830.33C2405.25,1831.66 2410.11,1832.45 2412.55,1833.93C2416.12,1836.09 2417.41,1839.12 2416.7,1842.6C2416.03,1845.85 2412.85,1847.93 2409.61,1847.27C2407.64,1846.86 2406.11,1845.54 2405.34,1843.84Z"/>
    <path d="M2349.82,1769.9C2358.03,1770.96 2366.25,1769.57 2374.55,1767.79C2381.79,1766.23 2389.11,1764.35 2396.59,1764.21C2399.9,1764.15 2402.54,1761.41 2402.48,1758.1C2402.41,1754.79 2399.68,1752.15 2396.36,1752.21C2388.11,1752.37 2380.02,1754.34 2372.02,1756.06C2365.08,1757.55 2358.23,1758.88 2351.36,1758C2348.07,1757.57 2345.06,1759.9 2344.64,1763.18C2344.21,1766.46 2346.53,1769.48 2349.82,1769.9Z"/>
    <path d="M2333.14,1794.95C2333.15,1794.84 2333.16,1794.73 2333.18,1794.62C2333.66,1791.34 2336.72,1789.08 2339.99,1789.56C2343.42,1790.07 2344.7,1792.1 2345.26,1794.2C2345.54,1795.28 2345.63,1796.74 2344.94,1798.44C2344.84,1798.68 2344.6,1799.13 2344.32,1799.62C2349.62,1801.07 2356.53,1799.54 2363.49,1797.89C2373.47,1795.52 2383.54,1792.41 2390.71,1792.37C2394.02,1792.35 2396.72,1795.02 2396.74,1798.33C2396.76,1801.64 2394.09,1804.35 2390.78,1804.37C2382.87,1804.41 2371.17,1808.8 2360.33,1810.84C2351.41,1812.53 2342.99,1812.62 2336.75,1809.52C2333.64,1807.97 2332.26,1805.9 2331.6,1803.98C2330.92,1802 2331.01,1799.92 2331.69,1797.91C2332.04,1796.87 2332.6,1795.85 2333.14,1794.95ZM2335.53,1800.31C2336.12,1800.79 2336.88,1801.17 2337.88,1801.37C2337,1801.18 2336.21,1800.82 2335.53,1800.31Z"/>
    <path d="M2456.16,1791.82C2454.5,1790.67 2453.47,1788.71 2453.59,1786.55C2453.78,1783.25 2456.62,1780.71 2459.92,1780.9C2461.88,1781.02 2463.65,1781.79 2465.15,1783.38C2466.53,1784.84 2467.86,1787.65 2468.38,1791.68C2470.21,1805.77 2464.53,1841.16 2462.5,1848.69C2461.64,1851.89 2458.35,1853.78 2455.15,1852.92C2451.95,1852.06 2450.05,1848.76 2450.92,1845.56C2452.57,1839.46 2456.86,1813.56 2456.77,1798.42C2456.76,1795.94 2456.36,1793.11 2456.16,1791.82Z"/>
    <path d="M2457.08,1780.96C2453.88,1779.29 2448.54,1776.34 2445.44,1773.75C2441.83,1770.73 2439.94,1767.16 2439.95,1763.97C2439.95,1763.96 2440.64,1758 2446.19,1757.99C2447.59,1757.99 2454.6,1757.99 2454.61,1757.99C2461.62,1757.99 2491.64,1760.94 2506.91,1768.97C2516.27,1773.9 2520.52,1780.93 2517.86,1788.85C2515.22,1796.69 2508.53,1802.61 2499.88,1806.83C2490.59,1811.36 2479.02,1814.02 2469.63,1816.01C2472.12,1816.47 2474.84,1816.95 2477.71,1817.48C2494.07,1820.5 2514.51,1824.57 2524.73,1830.23C2530.3,1833.33 2533.29,1837.28 2533.85,1841.11C2534.43,1845.07 2532.87,1850.01 2526.2,1854.85C2523.53,1856.8 2519.77,1856.2 2517.83,1853.52C2515.88,1850.84 2516.47,1847.09 2519.15,1845.14C2520.18,1844.39 2521.2,1843.29 2521.69,1842.73C2521.49,1842.52 2521.24,1842.26 2521.02,1842.1C2520.12,1841.39 2519,1840.74 2517.7,1840.1C2515.87,1839.19 2513.73,1838.35 2511.38,1837.55C2497.89,1832.94 2477.93,1829.83 2465.12,1827.34C2458.79,1826.1 2454.01,1824.89 2451.94,1823.86C2450.3,1823.05 2448.38,1821.77 2447.28,1820.29C2446.26,1818.91 2445.72,1817.35 2445.71,1815.64C2445.71,1813.76 2446.38,1811.8 2448.33,1810.11C2449.58,1809.02 2452.1,1807.8 2455.7,1806.83C2463.77,1804.67 2479.35,1802.57 2491.8,1797.32C2498.56,1794.47 2504.52,1790.87 2506.48,1785.03C2507.09,1783.23 2505.42,1782.18 2503.62,1780.96C2499.71,1778.31 2493.88,1776.32 2487.66,1774.73C2479.09,1772.55 2469.76,1771.22 2462.99,1770.54C2465.01,1771.61 2466.64,1772.46 2467.3,1773C2470.72,1775.78 2469.99,1778.99 2469.3,1780.55C2468.87,1781.51 2467.22,1784.57 2462.11,1784.28C2459.88,1784.15 2458.01,1782.83 2457.08,1780.96Z"/>
    <path d="M2606.24,1798.35C2605.81,1802.18 2605.24,1805.9 2604.45,1809.16C2602.65,1816.65 2599.28,1821.97 2595.48,1823.86C2585.03,1829.07 2573.24,1824.55 2561.9,1815.95C2553.52,1809.59 2545.27,1801.21 2537.92,1795.43C2534.24,1792.54 2531.06,1790.14 2528.16,1790.02C2524.85,1789.88 2522.28,1787.08 2522.42,1783.77C2522.56,1780.46 2525.37,1777.89 2528.67,1778.03C2532.81,1778.21 2537.64,1780.36 2542.73,1784.03C2548.78,1788.39 2555.54,1794.94 2562.53,1800.98C2567.79,1805.52 2573.17,1809.79 2578.5,1812.26C2582.5,1814.11 2586.43,1814.97 2590.13,1813.12C2590.51,1812.93 2590.64,1812.39 2590.91,1811.86C2591.68,1810.37 2592.27,1808.49 2592.78,1806.36C2595.65,1794.43 2595.43,1776.05 2595.44,1769.72C2595.45,1766.44 2597.15,1764.95 2598.32,1764.19C2599.85,1763.19 2603.05,1762.09 2606.36,1765.08C2608.63,1767.13 2614.08,1776.08 2615.14,1777.95C2615.74,1779 2615.89,1779.69 2615.9,1779.75C2622.49,1806.12 2613.72,1848.86 2602.7,1872.6C2601.3,1875.6 2597.73,1876.91 2594.73,1875.51C2591.72,1874.12 2590.42,1870.55 2591.81,1867.55C2599.91,1850.09 2606.93,1821.45 2606.24,1798.35Z"/>
    <path d="M2703.76,1916.24C2703.95,1915.71 2704.22,1914.93 2704.39,1914.3C2705.18,1911.23 2705.74,1907.37 2706.4,1903.91C2707.29,1899.33 2708.57,1895.36 2710.1,1893.34C2711.91,1890.94 2714.18,1889.93 2716.62,1889.93C2718.68,1889.93 2720.26,1890.56 2721.52,1891.47C2723.22,1892.7 2724.46,1894.6 2724.87,1897.21C2725.47,1900.96 2723.4,1907.86 2722.43,1911.73C2720.04,1921.26 2720.49,1931.5 2720.72,1941.71C2720.97,1953.13 2720.98,1964.52 2717.71,1975.1C2716.74,1978.26 2713.37,1980.04 2710.21,1979.06C2707.05,1978.08 2705.27,1974.72 2706.25,1971.56C2709.14,1962.19 2708.95,1952.09 2708.72,1941.98C2708.61,1937.1 2708.49,1932.21 2708.6,1927.38C2707.79,1927.62 2706.96,1927.72 2706.09,1927.7C2702.78,1927.61 2700.16,1924.86 2700.25,1921.55C2700.31,1919.18 2701.74,1917.16 2703.76,1916.24Z"/>
    <path d="M2705.5,1990.32C2705.8,1990.28 2706.1,1990.27 2706.4,1990.28C2707.81,1990.31 2708.45,1990.41 2708.54,1990.43C2712.86,1991.28 2713.24,1994.79 2713.34,1995.57C2713.55,1997.26 2713.45,2000.15 2709.87,2001.78C2709.75,2001.83 2708.89,2002.3 2707.31,2002.33C2706.29,2002.34 2701.44,2002.3 2700.35,2002.27C2697.04,2002.18 2694.42,1999.43 2694.51,1996.12C2694.6,1992.81 2697.36,1990.19 2700.66,1990.28C2701.31,1990.29 2703.83,1990.31 2705.5,1990.32Z"/>
    <path d="M2763.79,1880.93C2763.49,1880.2 2763.33,1879.39 2763.35,1878.54C2763.42,1875.23 2766.17,1872.6 2769.48,1872.68C2777.54,1872.86 2778.44,1877.74 2778.35,1879.8C2778.3,1880.9 2777.92,1882.49 2776.57,1884.23C2775.51,1885.6 2772.64,1887.94 2771.25,1892.1C2760.18,1925.17 2759.72,1960.95 2752.26,1994.7C2751.54,1997.93 2748.34,1999.98 2745.1,1999.26C2741.87,1998.55 2739.83,1995.34 2740.54,1992.11C2748.1,1957.95 2748.67,1921.76 2759.87,1888.29C2760.79,1885.54 2762.35,1882.94 2763.79,1880.93Z"/>
    <path d="M2731.8,2021.83C2731.94,2018.57 2734.67,2016.01 2737.94,2016.09C2741.49,2016.17 2743.31,2017.6 2744.26,2018.67C2745.82,2020.44 2746.37,2022.59 2745.67,2025.05C2745.29,2026.39 2744.23,2028.19 2742.34,2029.75C2739.63,2031.99 2735.01,2033.9 2731.91,2033.82C2728.6,2033.74 2725.98,2030.99 2726.06,2027.68C2726.14,2024.5 2728.68,2021.96 2731.8,2021.83Z"/>
    <path d="M612.932,2314.39L613.399,2314.39C613.399,2314.39 613.22,2314.4 613.22,2314.4L613.227,2314.41C618.876,2314.79 618.272,2319.24 616.625,2322.6C616.729,2324.35 616.094,2325.8 613.961,2326.24C613.819,2326.34 613.695,2326.39 613.597,2326.39C613.059,2326.4 605.739,2326.39 603.817,2326.38C600.506,2326.36 597.831,2323.66 597.849,2320.35C597.866,2317.04 600.569,2314.36 603.88,2314.38C605.271,2314.39 609.858,2314.39 612.119,2314.39C612.239,2314.38 612.361,2314.38 612.484,2314.38L612.932,2314.39Z"/>
    <path d="M661.867,2305.72C662.933,2304.02 664.827,2302.9 666.977,2302.91C671.184,2302.93 673.056,2304.3 673.659,2304.86C675.461,2306.53 675.885,2308.44 675.583,2310.37C675.458,2311.17 675.169,2312.03 674.6,2312.88C674.122,2313.59 673.054,2314.75 671.172,2315.59C668.808,2316.64 663.612,2317.79 661.184,2317.78C657.873,2317.76 655.197,2315.06 655.213,2311.75C655.228,2308.44 657.93,2305.76 661.241,2305.78C661.409,2305.78 661.623,2305.76 661.867,2305.72Z"/>
    <path d="M684.086,2300.04L684.186,2300.04C697.163,2300.1 690.959,2309.92 685.857,2311.75C685.582,2311.89 685.214,2311.98 684.738,2312.02C684.612,2312.03 684.487,2312.04 684.365,2312.04C684.083,2312.04 682.046,2312.04 681.263,2312.04C677.951,2312.02 675.275,2309.32 675.29,2306.01C675.305,2302.7 678.006,2300.02 681.318,2300.04L684.086,2300.04Z"/>
    <path d="M693.072,2300.05L693.412,2300.05C693.496,2300.05 693.583,2300.05 693.672,2300.06C699.697,2300.35 700.639,2303.25 699.596,2306.14C700.54,2308.96 699.551,2311.75 693.773,2312.02C693.662,2312.04 693.554,2312.05 693.45,2312.05C692.947,2312.05 690.557,2312.04 689.868,2312.04C686.556,2312.02 683.88,2309.32 683.895,2306.01C683.91,2302.7 686.611,2300.02 689.922,2300.04L692.578,2300.04L692.79,2300.04L693.072,2300.05Z"/>
    <path d="M537.844,2174.37C546.89,2174.42 555.575,2171.49 564.244,2168.41C571.624,2165.78 578.986,2163 586.723,2162.89C590.034,2162.85 592.685,2160.12 592.639,2156.81C592.593,2153.5 589.867,2150.85 586.556,2150.89C577.51,2151.02 568.845,2154.03 560.217,2157.1C552.877,2159.72 545.575,2162.41 537.916,2162.37C534.604,2162.35 531.9,2165.02 531.88,2168.33C531.86,2171.64 534.532,2174.35 537.844,2174.37Z"/>
    <path d="M537.431,2127.97C538.111,2127.58 548.354,2121.7 556.12,2115.17C564.662,2108 573.824,2098.91 579.775,2090.19C583.136,2085.27 585.565,2080.61 585.58,2076.57C585.594,2073.13 587.623,2071.78 588.806,2071.14C590.283,2070.36 592.868,2069.55 595.654,2071.93C596.068,2072.28 596.936,2073.24 597.827,2074.77C599.275,2077.24 602.492,2083.58 602.998,2084.57C603.683,2085.53 604.093,2086.7 604.111,2087.97C604.16,2091.28 601.511,2094.01 598.2,2094.05C597.729,2094.06 595.044,2094.15 593.1,2091.38C592.108,2093.22 590.964,2095.09 589.686,2096.96C583.169,2106.5 573.191,2116.51 563.838,2124.36C556.455,2130.56 549.447,2135.43 544.836,2137.8C541.782,2139.38 539.31,2139.95 537.844,2139.95C534.532,2139.93 531.86,2137.22 531.88,2133.91C531.899,2130.76 534.344,2128.19 537.431,2127.97Z"/>
</svg>
