<?xml version="1.0" encoding="UTF-8" standalone="no"?>
<!DOCTYPE svg PUBLIC "-//W3C//DTD SVG 1.1//EN" "http://www.w3.org/Graphics/SVG/1.1/DTD/svg11.dtd">
<svg width="100%" height="100%" viewBox="0 0 3508 2481" version="1.1" xmlns="http://www.w3.org/2000/svg" xmlns:xlink="http://www.w3.org/1999/xlink" xml:space="preserve" xmlns:serif="http://www.serif.com/" style="fill-rule:evenodd;clip-rule:evenodd;stroke-linejoin:round;stroke-miterlimit:2;">
    <g transform="matrix(1.71831,0,0,1.7133,-783.997,-214.604)">
        <path d="M1091.76,769.157L1091.76,768.704C1091.76,760.098 1091.76,742.887 1091.76,742.887C1091.76,741.149 1093.03,739.675 1094.75,739.423C1096.46,739.172 1098.1,740.22 1098.6,741.885C1098.6,741.885 1103,756.867 1102.21,765.768C1101.89,769.369 1100.71,772.087 1098.77,773.624C1099.21,813.916 1104.5,854.448 1104.5,894.903C1104.52,988.386 1115.9,1110.71 1100.62,1202.36C1100.31,1204.26 1098.51,1205.55 1096.61,1205.23C1094.7,1204.91 1093.42,1203.11 1093.74,1201.2C1108.95,1109.9 1097.54,988.036 1097.52,894.904C1097.51,854.564 1092.25,814.147 1091.79,773.973C1091.17,773.323 1090.8,772.435 1090.82,771.465C1090.84,770.571 1091.2,769.763 1091.76,769.157Z"/>
    </g>
    <g transform="matrix(1.71831,0,0,1.7133,-783.997,-214.604)">
        <path d="M1091.03,690.629C1091.44,690.38 1094.58,688.455 1097.31,686.363C1106.53,679.311 1120.52,667.263 1125.61,665.092C1158.3,651.141 1204.2,632.242 1248.64,623.642C1278.72,617.819 1308.15,616.744 1332.51,624.836C1354.76,632.227 1377.01,649.294 1389.1,669.373C1414.01,710.766 1449.65,855.219 1469.13,983.888C1482.15,1069.89 1487.89,1148.86 1478.71,1185.45C1475.94,1196.49 1465.04,1202.38 1449.83,1204.51C1418.24,1208.94 1367.5,1197.87 1348.89,1199.55C1317.08,1202.43 1282.62,1207.61 1251.34,1213.84C1242.01,1215.7 1160.03,1239.9 1134.75,1238.07C1131.93,1237.87 1129.7,1237.34 1128.14,1236.56C1126.51,1235.76 1125.44,1234.66 1124.81,1233.41C1123.86,1231.5 1123.79,1228.93 1125.77,1225.74C1126.78,1224.1 1128.94,1223.6 1130.58,1224.62C1132.21,1225.64 1132.71,1227.8 1131.7,1229.44C1131.55,1229.68 1131.4,1230 1131.3,1230.25C1131.82,1230.45 1132.85,1230.8 1133.71,1230.92C1136.83,1231.37 1141.2,1231.2 1146.42,1230.65C1178.83,1227.24 1241.9,1208.58 1249.98,1206.97C1281.5,1200.69 1316.21,1195.48 1348.26,1192.58C1364.23,1191.13 1403.84,1199.06 1434.75,1198.57C1444.57,1198.41 1453.47,1197.41 1460.31,1194.84C1466.26,1192.6 1470.57,1189.18 1471.94,1183.74C1481,1147.65 1475.07,1069.77 1462.23,984.939C1442.91,857.347 1407.83,714.04 1383.12,672.993C1371.85,654.265 1351.07,638.378 1330.31,631.484C1306.98,623.732 1278.78,624.94 1249.96,630.519C1206.03,639.022 1160.66,657.745 1128.34,671.537C1122.77,673.913 1106.2,688.83 1097.89,694.624C1096.13,695.847 1094.67,696.709 1093.66,697.125C1092.72,697.51 1091.93,697.621 1091.36,697.607C1089.43,697.561 1087.91,695.955 1087.95,694.022C1088,692.259 1089.33,690.829 1091.03,690.629Z"/>
    </g>
    <g transform="matrix(1.71831,0,0,1.7133,-783.997,-214.604)">
        <path d="M1158.28,797.363C1157.36,796.717 1156.77,795.639 1156.79,794.429C1156.83,792.497 1158.42,790.957 1160.35,790.992C1161.31,791.01 1162.4,791.345 1163.39,792.407C1164.05,793.11 1164.87,794.552 1165.54,796.887C1168.13,805.944 1170.73,833.24 1170.73,880.562C1170.73,905.656 1177.52,968.937 1177.4,1014.32C1177.36,1034.38 1175.87,1051.04 1172.09,1059.76C1171.32,1061.54 1169.26,1062.35 1167.49,1061.58C1165.73,1060.81 1164.91,1058.75 1165.68,1056.97C1169.23,1048.79 1170.37,1033.13 1170.42,1014.3C1170.54,968.925 1163.75,905.653 1163.75,880.562C1163.75,839.972 1161.88,814.407 1159.7,802.702C1159.27,800.39 1158.55,798.163 1158.28,797.363Z"/>
    </g>
    <g transform="matrix(1.71831,0,0,1.7133,-783.997,-214.604)">
        <path d="M1144.92,802.619C1145.53,802.129 1149,799.363 1151.42,797.546C1153.73,795.808 1156.08,794.41 1157.79,793.985C1180.68,788.296 1282.64,757.252 1330.29,747.644C1338.87,745.912 1345.75,744.876 1350.17,744.755C1352.54,744.691 1354.35,744.91 1355.52,745.3C1356.9,745.758 1358.4,746.96 1359.61,749.232C1361.25,752.322 1362.71,758.103 1363.89,765.831C1370.17,806.922 1370.36,906.557 1375.11,928.581C1383.95,969.568 1406.18,1003.91 1426.56,1039.44C1429.05,1043.79 1435.68,1050.19 1440.55,1056.31C1444.47,1061.24 1447.17,1066.14 1447.15,1069.88C1447.15,1071.88 1446.08,1072.69 1445.55,1073.05C1444.54,1073.73 1443.19,1074.09 1441.61,1073.08C1441.32,1072.9 1440.88,1072.54 1440.44,1071.97C1440.16,1071.61 1439.42,1070.57 1439.11,1070.14C1419.66,1063.73 1398.37,1059.03 1377.38,1059.03C1331.74,1059.03 1288.68,1066.39 1244.2,1076.13C1242.32,1076.54 1240.46,1075.35 1240.05,1073.46C1239.64,1071.57 1240.83,1069.7 1242.71,1069.29C1287.69,1059.44 1331.23,1052.02 1377.38,1052.02C1397.2,1052.02 1417.29,1056.04 1435.95,1061.78C1435.67,1061.41 1435.38,1061.05 1435.09,1060.67C1429.99,1054.26 1423.12,1047.49 1420.5,1042.93C1399.77,1006.78 1377.28,971.77 1368.29,930.062C1363.52,907.98 1363.28,808.09 1356.99,766.892C1356.1,761.071 1355.11,756.487 1353.93,753.588C1353.66,752.928 1353.19,752.155 1353.01,751.864C1352.03,751.648 1350.52,751.705 1348.54,751.853C1344.4,752.164 1338.63,753.106 1331.66,754.51C1284.1,764.102 1182.33,795.104 1159.47,800.783C1158.56,801.011 1157.41,801.83 1156.18,802.725C1153.69,804.535 1151.08,806.828 1149.44,808.014C1147.86,809.163 1146.49,809.48 1145.87,809.468C1143.94,809.43 1142.41,807.83 1142.45,805.898C1142.48,804.347 1143.51,803.05 1144.92,802.619Z"/>
    </g>
    <g transform="matrix(1.71831,0,0,1.7133,-783.997,-214.604)">
        <path d="M1358.15,571.407C1383.2,571.687 1411.29,583.162 1434.09,601.008C1456.78,618.772 1474.29,642.878 1478.07,668.799C1478.34,670.711 1480.12,672.037 1482.03,671.758C1483.93,671.478 1485.25,669.699 1484.98,667.786C1480.96,640.195 1462.54,614.395 1438.38,595.487C1414.34,576.662 1384.65,564.699 1358.23,564.403C1356.3,564.382 1354.72,565.933 1354.7,567.866C1354.67,569.799 1356.22,571.385 1358.15,571.407Z"/>
    </g>
    <g transform="matrix(1.71831,0,0,1.7133,-783.997,-214.604)">
        <path d="M1352.41,482.493C1365.18,482.639 1383.18,479.503 1396.28,485.103C1417.7,494.263 1502.92,536.726 1537.36,580.691C1551.13,598.273 1556.74,616.023 1544.72,631.742C1543.55,633.276 1543.84,635.476 1545.36,636.652C1546.89,637.829 1549.09,637.539 1550.26,636.006C1564.27,617.69 1558.89,596.851 1542.85,576.364C1507.71,531.505 1420.87,488.006 1399.02,478.66C1385.12,472.717 1366.04,475.645 1352.49,475.489C1350.56,475.467 1348.98,477.018 1348.96,478.951C1348.94,480.883 1350.48,482.47 1352.41,482.493Z"/>
    </g>
    <g transform="matrix(1.71831,0,0,1.7133,-783.997,-214.604)">
        <path d="M1324.28,338.734L1324.83,338.158C1329.03,333.719 1349.68,311.501 1352.6,309.682C1367.74,300.256 1389,296.102 1406.61,297.696C1475,303.887 1558.78,363.726 1624.51,438.924C1690.25,514.136 1737.81,604.606 1734.54,671.332C1734.45,673.263 1732.81,674.753 1730.88,674.658C1728.96,674.564 1727.47,672.919 1727.57,670.989C1730.77,605.616 1683.66,517.227 1619.26,443.541C1554.84,369.839 1473.01,310.74 1405.98,304.672C1389.78,303.206 1370.21,306.961 1356.29,315.632C1353.5,317.371 1333.91,338.738 1329.9,342.978C1329.32,343.587 1328.96,343.937 1328.88,344.004C1327.8,344.905 1326.85,344.822 1326.6,344.819C1324.67,344.795 1323.12,343.208 1323.14,341.275C1323.16,340.268 1323.59,339.364 1324.28,338.734Z"/>
    </g>
    <g transform="matrix(1.71831,0,0,1.7133,-783.997,-214.604)">
        <path d="M1297.81,1122.57C1298.42,1121.52 1299.57,1120.82 1300.87,1120.84C1301.91,1120.85 1302.63,1121.26 1303.16,1121.73C1303.67,1122.18 1304.05,1122.77 1304.23,1123.52C1304.35,1124.01 1304.45,1124.74 1304.09,1125.65C1304,1125.89 1303.52,1126.73 1302.46,1127.86C1301.98,1128.36 1301.34,1129.03 1300.56,1129.84C1301.62,1129.56 1302.68,1129.31 1303.73,1129.1C1308.17,1128.23 1312.42,1128.2 1315.69,1129.83C1321.63,1132.78 1322.61,1139.71 1318.94,1147.9C1314.9,1156.93 1305.36,1167.66 1295.6,1173.41C1288.32,1177.69 1280.89,1179.1 1275.19,1176.26C1269.99,1173.66 1268.23,1169.38 1268.83,1164.13C1269.3,1159.99 1271.5,1155.09 1274.65,1150.12C1277.66,1145.35 1281.87,1140.09 1285.88,1135.45C1286.03,1133.95 1287.13,1132.73 1288.56,1132.4C1293.22,1127.19 1297.12,1123.26 1297.81,1122.57ZM1291.95,1139.09C1287.34,1144.31 1282.34,1150.53 1279.04,1156.38C1277.47,1159.16 1276.3,1161.83 1275.87,1164.24C1275.43,1166.7 1275.93,1168.8 1278.3,1169.98C1281.54,1171.6 1285.56,1170.65 1289.69,1168.64C1297.03,1165.08 1304.54,1157.86 1309.34,1150.74C1311.85,1147.02 1313.63,1143.36 1314.07,1140.26C1314.32,1138.44 1314.12,1136.86 1312.59,1136.1C1309.9,1134.76 1306.2,1135.64 1302.51,1136.55C1298.78,1137.48 1295.05,1138.62 1291.95,1139.09ZM1298.91,1127.27C1299.38,1127.59 1299.99,1127.83 1300.78,1127.84C1300.09,1127.83 1299.45,1127.62 1298.91,1127.27ZM1297.96,1126.35L1297.98,1126.36L1297.92,1126.28L1297.96,1126.35ZM1297.66,1125.82C1297.73,1125.97 1297.81,1126.12 1297.9,1126.25L1297.82,1126.12C1297.79,1126.07 1297.76,1126.02 1297.73,1125.97L1297.66,1125.82ZM1297.63,1125.75L1297.66,1125.82L1297.61,1125.7L1297.63,1125.75Z"/>
    </g>
    <g transform="matrix(1.71831,0,0,1.7133,-783.997,-214.604)">
        <path d="M1202.55,1080.29C1215.36,1076.04 1227.43,1072.1 1242.18,1072.1C1245.75,1072.1 1246.24,1074.92 1246.28,1075.38C1246.35,1076.14 1246.32,1077.84 1244.32,1078.88C1243.97,1079.06 1242.97,1079.39 1241.63,1079.73C1239.61,1080.24 1236.46,1080.92 1235.08,1081.61C1228.77,1084.75 1213.36,1088.71 1203.75,1091.67C1203.86,1092 1203.92,1092.36 1203.93,1092.73C1203.96,1094.66 1202.42,1096.26 1200.49,1096.29C1197.46,1096.34 1195.48,1096.21 1194.36,1095.99C1193.2,1095.77 1192.47,1095.36 1192.04,1095.04C1190.46,1093.83 1190.22,1092.37 1190.7,1090.86C1190.76,1090.67 1190.87,1090.42 1191.03,1090.15C1188.83,1090.42 1186.65,1090.58 1184.61,1090.58L1172.43,1090.58C1172.29,1090.58 1172.15,1090.56 1172.01,1090.53C1168.75,1090.25 1168.04,1088.66 1168.5,1087.07C1168.04,1085.48 1168.75,1083.89 1172.01,1083.62C1172.15,1083.59 1172.29,1083.57 1172.43,1083.57L1173.08,1083.57C1175.96,1083.57 1185.17,1081.52 1191.37,1079.49C1191.26,1079.14 1191.2,1078.77 1191.21,1078.39C1191.24,1076.46 1192.83,1074.91 1194.76,1074.94C1197.41,1074.99 1199.05,1075.3 1199.91,1075.64C1201.31,1076.19 1201.97,1077.06 1202.31,1077.78C1202.6,1078.41 1202.78,1079.32 1202.55,1080.29Z"/>
    </g>
    <g transform="matrix(1.71831,0,0,1.7133,-783.997,-214.604)">
        <path d="M1252.02,1061.87C1269.62,1062.11 1303.25,1051.34 1319.41,1044.38C1321.18,1043.62 1322,1041.55 1321.24,1039.78C1320.48,1038 1318.42,1037.18 1316.65,1037.94C1301.16,1044.61 1268.98,1055.09 1252.11,1054.87C1250.18,1054.84 1248.6,1056.39 1248.57,1058.32C1248.55,1060.26 1250.09,1061.85 1252.02,1061.87Z"/>
    </g>
</svg>
