<?xml version="1.0" encoding="UTF-8" standalone="no"?>
<!DOCTYPE svg PUBLIC "-//W3C//DTD SVG 1.1//EN" "http://www.w3.org/Graphics/SVG/1.1/DTD/svg11.dtd">
<svg width="100%" height="100%" viewBox="0 0 3508 2481" version="1.1" xmlns="http://www.w3.org/2000/svg" xmlns:xlink="http://www.w3.org/1999/xlink" xml:space="preserve" xmlns:serif="http://www.serif.com/" style="fill-rule:evenodd;clip-rule:evenodd;stroke-linejoin:round;stroke-miterlimit:2;">
    <g transform="matrix(1.71831,0,0,1.7133,-783.997,-214.604)">
        <path d="M1091.76,769.157L1091.76,768.704C1091.76,760.098 1091.76,742.887 1091.76,742.887C1091.76,741.149 1093.03,739.675 1094.75,739.423C1096.46,739.172 1098.1,740.22 1098.6,741.885C1098.6,741.885 1103,756.867 1102.21,765.768C1101.89,769.369 1100.71,772.087 1098.77,773.624C1099.21,813.916 1104.5,854.448 1104.5,894.903C1104.52,988.386 1115.9,1110.71 1100.62,1202.36C1100.31,1204.26 1098.51,1205.55 1096.61,1205.23C1094.7,1204.91 1093.42,1203.11 1093.74,1201.2C1108.95,1109.9 1097.54,988.036 1097.52,894.904C1097.51,854.564 1092.25,814.147 1091.79,773.973C1091.17,773.323 1090.8,772.435 1090.82,771.465C1090.84,770.571 1091.2,769.763 1091.76,769.157Z"/>
    </g>
    <g transform="matrix(1.71831,0,0,1.7133,-783.997,-214.604)">
        <path d="M1091.03,690.629C1091.44,690.38 1094.58,688.455 1097.31,686.363C1106.53,679.311 1120.52,667.263 1125.61,665.092C1158.3,651.141 1204.2,632.242 1248.64,623.642C1278.72,617.819 1308.15,616.744 1332.51,624.836C1354.76,632.227 1377.01,649.294 1389.1,669.373C1414.01,710.766 1449.65,855.219 1469.13,983.888C1482.15,1069.89 1487.89,1148.86 1478.71,1185.45C1475.94,1196.49 1465.04,1202.38 1449.83,1204.51C1418.24,1208.94 1367.5,1197.87 1348.89,1199.55C1317.08,1202.43 1282.62,1207.61 1251.34,1213.84C1242.01,1215.7 1160.03,1239.9 1134.75,1238.07C1131.93,1237.87 1129.7,1237.34 1128.14,1236.56C1126.51,1235.76 1125.44,1234.66 1124.81,1233.41C1123.86,1231.5 1123.79,1228.93 1125.77,1225.74C1126.78,1224.1 1128.94,1223.6 1130.58,1224.62C1132.21,1225.64 1132.71,1227.8 1131.7,1229.44C1131.55,1229.68 1131.4,1230 1131.3,1230.25C1131.82,1230.45 1132.85,1230.8 1133.71,1230.92C1136.83,1231.37 1141.2,1231.2 1146.42,1230.65C1178.83,1227.24 1241.9,1208.58 1249.98,1206.97C1281.5,1200.69 1316.21,1195.48 1348.26,1192.58C1364.23,1191.13 1403.84,1199.06 1434.75,1198.57C1444.57,1198.41 1453.47,1197.41 1460.31,1194.84C1466.26,1192.6 1470.57,1189.18 1471.94,1183.74C1481,1147.65 1475.07,1069.77 1462.23,984.939C1442.91,857.347 1407.83,714.04 1383.12,672.993C1371.85,654.265 1351.07,638.378 1330.31,631.484C1306.98,623.732 1278.78,624.94 1249.96,630.519C1206.03,639.022 1160.66,657.745 1128.34,671.537C1122.77,673.913 1106.2,688.83 1097.89,694.624C1096.13,695.847 1094.67,696.709 1093.66,697.125C1092.72,697.51 1091.93,697.621 1091.36,697.607C1089.43,697.561 1087.91,695.955 1087.95,694.022C1088,692.259 1089.33,690.829 1091.03,690.629Z"/>
    </g>
    <g transform="matrix(1.71831,0,0,1.7133,-783.997,-214.604)">
        <path d="M1158.28,797.363C1157.36,796.717 1156.77,795.639 1156.79,794.429C1156.83,792.497 1158.42,790.957 1160.35,790.992C1161.31,791.01 1162.4,791.345 1163.39,792.407C1164.05,793.11 1164.87,794.552 1165.54,796.887C1168.13,805.944 1170.73,833.24 1170.73,880.562C1170.73,905.656 1177.52,968.937 1177.4,1014.32C1177.36,1034.38 1175.87,1051.04 1172.09,1059.76C1171.32,1061.54 1169.26,1062.35 1167.49,1061.58C1165.73,1060.81 1164.91,1058.75 1165.68,1056.97C1169.23,1048.79 1170.37,1033.13 1170.42,1014.3C1170.54,968.925 1163.75,905.653 1163.75,880.562C1163.75,839.972 1161.88,814.407 1159.7,802.702C1159.27,800.39 1158.55,798.163 1158.28,797.363Z"/>
    </g>
    <g transform="matrix(1.71831,0,0,1.7133,-783.997,-214.604)">
        <path d="M1144.92,802.619C1145.53,802.129 1149,799.363 1151.42,797.546C1153.73,795.808 1156.08,794.41 1157.79,793.985C1180.68,788.296 1282.64,757.252 1330.29,747.644C1338.87,745.912 1345.75,744.876 1350.17,744.755C1352.54,744.691 1354.35,744.91 1355.52,745.3C1356.9,745.758 1358.4,746.96 1359.61,749.232C1361.25,752.322 1362.71,758.103 1363.89,765.831C1370.17,806.922 1370.36,906.557 1375.11,928.581C1383.95,969.568 1406.18,1003.91 1426.56,1039.44C1429.05,1043.79 1435.68,1050.19 1440.55,1056.31C1444.47,1061.24 1447.17,1066.14 1447.15,1069.88C1447.15,1071.88 1446.08,1072.69 1445.55,1073.05C1444.54,1073.73 1443.19,1074.09 1441.61,1073.08C1441.32,1072.9 1440.88,1072.54 1440.44,1071.97C1440.16,1071.61 1439.42,1070.57 1439.11,1070.14C1419.66,1063.73 1398.37,1059.03 1377.38,1059.03C1331.74,1059.03 1288.68,1066.39 1244.2,1076.13C1242.32,1076.54 1240.46,1075.35 1240.05,1073.46C1239.64,1071.57 1240.83,1069.7 1242.71,1069.29C1287.69,1059.44 1331.23,1052.02 1377.38,1052.02C1397.2,1052.02 1417.29,1056.04 1435.95,1061.78C1435.67,1061.41 1435.38,1061.05 1435.09,1060.67C1429.99,1054.26 1423.12,1047.49 1420.5,1042.93C1399.77,1006.78 1377.28,971.77 1368.29,930.062C1363.52,907.98 1363.28,808.09 1356.99,766.892C1356.1,761.071 1355.11,756.487 1353.93,753.588C1353.66,752.928 1353.19,752.155 1353.01,751.864C1352.03,751.648 1350.52,751.705 1348.54,751.853C1344.4,752.164 1338.63,753.106 1331.66,754.51C1284.1,764.102 1182.33,795.104 1159.47,800.783C1158.56,801.011 1157.41,801.83 1156.18,802.725C1153.69,804.535 1151.08,806.828 1149.44,808.014C1147.86,809.163 1146.49,809.48 1145.87,809.468C1143.94,809.43 1142.41,807.83 1142.45,805.898C1142.48,804.347 1143.51,803.05 1144.92,802.619Z"/>
    </g>
    <g transform="matrix(1.71831,0,0,1.7133,-783.997,-214.604)">
        <path d="M1358.15,571.407C1383.2,571.687 1411.29,583.162 1434.09,601.008C1456.78,618.772 1474.29,642.878 1478.07,668.799C1478.34,670.711 1480.12,672.037 1482.03,671.758C1483.93,671.478 1485.25,669.699 1484.98,667.786C1480.96,640.195 1462.54,614.395 1438.38,595.487C1414.34,576.662 1384.65,564.699 1358.23,564.403C1356.3,564.382 1354.72,565.933 1354.7,567.866C1354.67,569.799 1356.22,571.385 1358.15,571.407Z"/>
    </g>
    <g transform="matrix(1.71831,0,0,1.7133,-783.997,-214.604)">
        <path d="M1352.41,482.493C1365.18,482.639 1383.18,479.503 1396.28,485.103C1417.7,494.263 1502.92,536.726 1537.36,580.691C1551.13,598.273 1556.74,616.023 1544.72,631.742C1543.55,633.276 1543.84,635.476 1545.36,636.652C1546.89,637.829 1549.09,637.539 1550.26,636.006C1564.27,617.69 1558.89,596.851 1542.85,576.364C1507.71,531.505 1420.87,488.006 1399.02,478.66C1385.12,472.717 1366.04,475.645 1352.49,475.489C1350.56,475.467 1348.98,477.018 1348.96,478.951C1348.94,480.883 1350.48,482.47 1352.41,482.493Z"/>
    </g>
    <g transform="matrix(1.71831,0,0,1.7133,-783.997,-214.604)">
        <path d="M1324.28,338.734L1324.83,338.158C1329.03,333.719 1349.68,311.501 1352.6,309.682C1367.74,300.256 1389,296.102 1406.61,297.696C1475,303.887 1558.78,363.726 1624.51,438.924C1690.25,514.136 1737.81,604.606 1734.54,671.332C1734.45,673.263 1732.81,674.753 1730.88,674.658C1728.96,674.564 1727.47,672.919 1727.57,670.989C1730.77,605.616 1683.66,517.227 1619.26,443.541C1554.84,369.839 1473.01,310.74 1405.98,304.672C1389.78,303.206 1370.21,306.961 1356.29,315.632C1353.5,317.371 1333.91,338.738 1329.9,342.978C1329.32,343.587 1328.96,343.937 1328.88,344.004C1327.8,344.905 1326.85,344.822 1326.6,344.819C1324.67,344.795 1323.12,343.208 1323.14,341.275C1323.16,340.268 1323.59,339.364 1324.28,338.734Z"/>
    </g>
    <path d="M1798.25,1170.36C1801.57,1172.88 1805.97,1174.49 1810.82,1175.85C1817.53,1177.73 1825.08,1179.01 1832.38,1180.62C1849.44,1184.37 1864.88,1190.42 1869.96,1205.65C1873.88,1217.41 1870.77,1228.63 1864.38,1239.1C1858.76,1248.31 1850.55,1256.94 1843.52,1264.87C1839.34,1269.58 1835.59,1273.99 1833.38,1278.14C1832.03,1280.68 1831.11,1282.98 1832.21,1285.16C1834.14,1289 1838.33,1291.83 1843.18,1294.56C1852.28,1299.67 1863.77,1303.92 1872.55,1309.33C1884.83,1316.89 1892.19,1326.62 1887.22,1341.4C1885.2,1347.42 1880.51,1353.84 1874.45,1360.36C1866.38,1369.05 1855.84,1378.14 1847.49,1387.34C1843.26,1392 1839.61,1396.66 1837.35,1401.34C1835.52,1405.13 1834.61,1408.87 1835.55,1412.59C1837.5,1420.36 1842.28,1426.1 1848.31,1430.86C1855.08,1436.21 1863.37,1440.36 1871.62,1444.45C1880.58,1448.88 1889.49,1453.24 1896.71,1458.58C1904.83,1464.59 1910.88,1471.85 1913.28,1481.44C1916.97,1496.18 1910.8,1507.83 1902.42,1518.99C1895.62,1528.04 1887.17,1536.66 1884.49,1547.45C1883.51,1551.39 1884.57,1555.22 1886.72,1558.95C1889.38,1563.56 1893.65,1567.96 1898.66,1572.15C1915.31,1586.08 1939.89,1597.49 1949.56,1604.12C1952.29,1605.99 1952.99,1609.73 1951.12,1612.46C1949.25,1615.19 1945.51,1615.89 1942.78,1614.01C1932.93,1607.26 1907.93,1595.55 1890.96,1581.36C1877.73,1570.28 1869.64,1557.42 1872.84,1544.55C1875.91,1532.24 1885.06,1522.11 1892.82,1511.78C1899,1503.56 1904.36,1495.21 1901.64,1484.35C1899.93,1477.51 1895.36,1472.51 1889.57,1468.23C1882.88,1463.28 1874.59,1459.31 1866.29,1455.2C1847.42,1445.85 1828.93,1435.46 1823.91,1415.53C1820.93,1403.71 1827.76,1391.24 1838.6,1379.28C1846.98,1370.04 1857.56,1360.91 1865.66,1352.19C1870.38,1347.11 1874.27,1342.27 1875.85,1337.58C1877.87,1331.56 1875.82,1327.22 1871.91,1323.68C1868.48,1320.58 1863.88,1318.01 1858.95,1315.56C1850.59,1311.41 1841.32,1307.65 1834.13,1303.14C1828.41,1299.55 1823.93,1295.41 1821.49,1290.56C1819.17,1285.96 1819.22,1281.03 1821.26,1275.8C1823.51,1270.02 1828.55,1263.65 1834.55,1256.9C1841.13,1249.49 1848.88,1241.47 1854.14,1232.85C1858.63,1225.49 1861.33,1217.71 1858.58,1209.45C1856.88,1204.34 1853.26,1201 1848.73,1198.54C1843.3,1195.58 1836.65,1193.84 1829.81,1192.34C1820.68,1190.33 1811.2,1188.77 1803.27,1186.07C1797.18,1184 1791.93,1181.22 1788.07,1177.39C1785.86,1175.19 1785.14,1172.4 1785.69,1169.35C1786.35,1165.77 1789.59,1161.6 1790.91,1160.28C1794.93,1156.27 1801.79,1152.28 1810.11,1148.47C1821.48,1143.26 1835.71,1138.19 1848.15,1133.11C1855.99,1129.9 1863.09,1126.72 1868.11,1123.44C1870.55,1121.86 1872.48,1120.43 1873.3,1118.8C1875.06,1115.31 1874.48,1111.62 1872.7,1107.93C1870.37,1103.08 1866.08,1098.31 1860.86,1093.77C1844.31,1079.37 1818.44,1067.55 1808.31,1067.23C1805,1067.13 1802.39,1064.36 1802.5,1061.05C1802.6,1057.74 1805.38,1055.13 1808.68,1055.24C1814.22,1055.41 1823.87,1058.28 1834.49,1063.17C1849.8,1070.22 1867.28,1081.38 1877.27,1093.3C1885.83,1103.49 1888.96,1114.38 1884.01,1124.2C1882.46,1127.29 1879.27,1130.5 1874.66,1133.5C1869.12,1137.11 1861.33,1140.68 1852.69,1144.21C1840.41,1149.23 1826.34,1154.23 1815.11,1159.38C1808.35,1162.47 1802.65,1165.52 1799.39,1168.77C1799.17,1168.99 1798.68,1169.71 1798.25,1170.36Z"/>
    <path d="M1928.83,1038.55C1950.75,1039.03 1982.35,1032.26 2007.23,1031.39C2014.86,1031.12 2021.82,1031.42 2027.52,1032.82C2032.04,1033.93 2035.71,1035.64 2037.82,1038.79C2040.58,1042.92 2040.87,1047.33 2039.69,1051.85C2038.24,1057.41 2034.77,1063.09 2030.46,1068.85C2021.84,1080.39 2009.85,1092.04 2000.97,1102.91C1994.29,1111.08 1989.37,1118.98 1987.96,1126.07C1985.48,1138.52 1992.02,1151.26 2001.81,1163.85C2008.25,1172.11 2015.98,1180.42 2022.4,1188.78C2028.14,1196.25 2032.89,1203.68 2033.97,1211.26C2036.64,1229.99 2023.89,1245.08 2011.87,1260.29C1997.71,1278.21 1984.36,1296.23 1987.94,1317.54C1990.9,1335.17 1998.43,1351.24 2005.95,1367.42C2012.99,1382.59 2020.02,1397.86 2022.46,1414.91C2025.53,1436.39 2017.28,1458.38 2013.84,1479.04C2010.57,1498.68 2012.19,1518.67 2013.86,1538.83C2015.44,1558 2017.06,1577.33 2013.84,1596.64C2012.63,1603.91 2013.74,1611.79 2016.14,1619.77C2019.39,1630.55 2024.99,1641.59 2029.17,1651.44C2031.24,1656.32 2032.96,1660.87 2033.65,1664.88C2034.11,1667.52 2034.25,1669.84 2033.02,1671.62C2031.13,1674.34 2031.82,1678.08 2034.54,1679.97C2037.26,1681.85 2041,1681.17 2042.89,1678.45C2045.27,1675.01 2046.22,1670.82 2045.87,1666C2045.47,1660.47 2043.24,1653.88 2040.21,1646.75C2036.84,1638.79 2032.48,1630.04 2029.3,1621.3C2026.46,1613.48 2024.49,1605.7 2025.68,1598.61C2029.06,1578.32 2027.48,1558 2025.82,1537.84C2024.24,1518.68 2022.57,1499.68 2025.68,1481.02C2029.31,1459.19 2037.58,1435.91 2034.34,1413.21C2031.73,1394.98 2024.36,1378.59 2016.83,1362.37C2009.77,1347.16 2002.55,1332.11 1999.77,1315.55C1998.35,1307.06 2000.55,1299.31 2004.41,1291.87C2008.7,1283.58 2015,1275.68 2021.29,1267.73C2035.4,1249.88 2048.98,1231.56 2045.85,1209.57C2043.71,1194.48 2030.38,1179.34 2017.91,1164.58C2012.34,1157.99 2007.02,1151.44 2003.44,1144.9C2000.43,1139.37 1998.63,1133.91 1999.73,1128.41C2000.83,1122.87 2005.04,1116.89 2010.27,1110.5C2019.24,1099.5 2031.35,1087.71 2040.07,1076.04C2051.46,1060.81 2056.75,1045.53 2047.79,1032.12C2042.62,1024.38 2032.45,1020.42 2019.17,1019.53C1993.32,1017.8 1954.63,1027.12 1929.09,1026.56C1925.78,1026.48 1923.04,1029.11 1922.96,1032.42C1922.89,1035.73 1925.52,1038.48 1928.83,1038.55Z"/>
    <path d="M2077.65,962.013C2073.95,960.914 2070.09,959.628 2067.92,958.767C2065.77,957.913 2064.52,956.914 2064.17,956.545C2061.44,953.678 2062.28,950.94 2063.39,949.154C2063.91,948.315 2065.25,946.279 2068.71,946.279C2071.09,946.279 2075.14,947.508 2079.17,949.371C2080.05,949.778 2080.93,950.211 2081.78,950.658C2083.92,951.314 2085.91,951.877 2087.19,952.13C2099.45,954.57 2107.75,956.499 2119.8,960.999C2137.05,967.441 2167.18,971.144 2191.97,979.983C2210.13,986.457 2225.42,995.788 2232.44,1009.83C2236.86,1018.65 2234.98,1027.07 2228.59,1035C2221.04,1044.37 2206.3,1053.17 2190.9,1061.21C2176.61,1068.67 2161.8,1075.55 2152.8,1082.05C2150.78,1083.52 2149.08,1084.93 2147.86,1086.35C2147.46,1086.81 2147.12,1087.26 2146.86,1087.71C2146.69,1087.99 2146.45,1088.21 2146.52,1088.49C2147.78,1093.49 2150.9,1097.41 2154.81,1100.84C2159.37,1104.86 2165,1108.22 2170.64,1111.53C2176.87,1115.18 2183.13,1118.78 2188.32,1122.89C2194.28,1127.6 2198.87,1133.03 2201.09,1139.68C2204,1148.41 2200.94,1154.85 2194.6,1160.03C2189.91,1163.86 2183.03,1166.91 2176.24,1169.88C2171.61,1171.9 2167.04,1173.88 2163.58,1176.31C2161.65,1177.66 2160,1178.99 2159.64,1180.91C2159.43,1182.07 2159.78,1183.35 2160.51,1184.85C2164.25,1192.55 2171.3,1198.51 2179.57,1203.99C2188.71,1210.04 2199.34,1215.42 2209.41,1221.27C2231.74,1234.21 2250.95,1249.66 2250.34,1276.52C2250.13,1285.64 2246.3,1293.54 2240.18,1300.61C2232.08,1309.94 2219.77,1317.8 2207.86,1325.45C2198.81,1331.27 2190.01,1336.95 2184.06,1343.36C2179.28,1348.51 2176.45,1354.11 2178.19,1360.96C2179.79,1367.23 2184.27,1372.12 2189.97,1376.55C2196.57,1381.68 2204.8,1386.09 2213.09,1390.61C2231.7,1400.74 2250.22,1411.75 2255.83,1429.46C2261.22,1446.47 2253.4,1459.39 2243.64,1471.21C2239.52,1476.2 2235.1,1480.99 2231.73,1485.93C2228.97,1489.98 2226.89,1494.09 2226.89,1498.67C2226.89,1511.28 2233.41,1518.31 2239.15,1525.82C2244,1532.17 2248.45,1538.78 2250.24,1547.69C2254.16,1567.31 2244.57,1580.5 2238.18,1590.49C2236.97,1592.39 2235.91,1594.12 2235.25,1595.77C2234.95,1596.51 2234.67,1597.17 2234.81,1597.84C2234.94,1598.46 2235.48,1598.94 2236.2,1599.53C2237.85,1600.89 2240.31,1602.17 2243.72,1603.52C2247.36,1604.97 2250.74,1605.33 2254.05,1605.8C2258.4,1606.43 2262.67,1607.19 2267.19,1609.42C2270.16,1610.88 2271.39,1614.48 2269.92,1617.45C2268.46,1620.42 2264.86,1621.65 2261.89,1620.18C2258.62,1618.58 2255.5,1618.13 2252.35,1617.68C2248.15,1617.08 2243.9,1616.51 2239.29,1614.67C2228.65,1610.44 2224.49,1605.56 2223.26,1601.09C2222.28,1597.57 2222.86,1593.83 2224.78,1589.78C2226.66,1585.8 2230.06,1581.3 2233.2,1575.95C2237.12,1569.27 2240.66,1560.98 2238.47,1550.04C2236.68,1541.11 2231.19,1535.25 2226.35,1528.85C2220.26,1520.79 2214.89,1512.12 2214.89,1498.67C2214.89,1491.71 2217.63,1485.32 2221.81,1479.18C2225.38,1473.94 2230.03,1468.86 2234.38,1463.58C2241.58,1454.85 2248.37,1445.63 2244.39,1433.08C2242.16,1426.04 2237.14,1420.52 2230.96,1415.67C2224.03,1410.23 2215.64,1405.66 2207.35,1401.15C2196.59,1395.28 2185.99,1389.48 2178.34,1382.42C2172.55,1377.09 2168.37,1371.04 2166.56,1363.91C2162.32,1347.2 2173.61,1334.34 2190.09,1322.83C2200.58,1315.5 2213.03,1308.53 2222.91,1300.51C2231.41,1293.61 2238.12,1286.08 2238.34,1276.25C2238.85,1254.11 2221.79,1242.31 2203.4,1231.65C2190.97,1224.44 2177.74,1217.88 2167.3,1210.02C2159.65,1204.26 2153.45,1197.79 2149.71,1190.09C2147.53,1185.6 2147.19,1181.68 2147.94,1178.26C2148.69,1174.8 2150.6,1171.74 2153.49,1169.05C2157.75,1165.09 2164.49,1161.91 2171.43,1158.88C2177.16,1156.38 2183.05,1153.97 2187.01,1150.74C2189.31,1148.86 2190.76,1146.64 2189.71,1143.48C2188.21,1138.98 2184.89,1135.48 2180.87,1132.3C2176.09,1128.51 2170.31,1125.24 2164.57,1121.88C2151.16,1114.01 2138.39,1105.32 2134.89,1091.42C2133.66,1086.57 2135.59,1081.2 2141.14,1076.07C2149.61,1068.24 2167.8,1059.74 2185.35,1050.57C2196.98,1044.5 2208.31,1038.12 2215.71,1031.23C2221.17,1026.14 2224.62,1021.01 2221.71,1015.19C2215.93,1003.64 2202.88,996.612 2187.94,991.286C2163.09,982.426 2132.9,978.698 2115.6,972.241C2106.38,968.798 2099.49,966.965 2091.04,965.168C2090.15,966.099 2088.78,966.883 2086.62,966.849C2084.73,966.819 2083.06,965.919 2081.98,964.537C2080.96,963.856 2079.4,962.941 2077.65,962.013Z"/>
    <path d="M996.425,1258.89C997.685,1258.17 999.063,1257.44 1000.63,1256.66C1003.05,1255.46 1008.51,1251.04 1009.38,1250.56C1013.32,1248.37 1016.04,1250.91 1016.68,1251.55C1017,1251.88 1020.59,1256.12 1016.2,1260.53C1013.16,1263.58 1007.94,1267.34 1003.5,1269.28C1002.56,1269.69 1001.63,1270.03 1000.75,1270.28C997.053,1272.54 994.301,1274.81 989.606,1278.31C984.854,1281.86 978.775,1284.26 973.112,1287.19C968.877,1289.38 964.823,1291.84 962.61,1296.27C961.963,1297.56 961.54,1298.52 961.851,1299.36C962.198,1300.31 963.15,1300.87 964.154,1301.51C966.877,1303.22 970.434,1304.51 973.793,1305.93C978.263,1307.81 982.411,1309.94 985.082,1312.65C987.671,1315.29 989.158,1318.43 989.158,1322.27C989.158,1335.19 981.977,1345.1 973.71,1354.47C967.071,1361.99 959.602,1369.03 957.305,1378.22C956.294,1382.26 956.446,1385.33 957.677,1387.75C958.966,1390.29 961.267,1392.07 963.835,1393.69C966.71,1395.5 969.948,1397.04 973.095,1398.64C982.204,1403.29 990.214,1408.84 991.947,1418.75C994.275,1432.05 988.634,1441.55 981.228,1450.12C975.602,1456.63 968.702,1462.39 965.978,1469.98L965.983,1481.38C966.473,1482.45 967.434,1483.39 968.554,1484.36C970.455,1486.01 972.866,1487.54 975.482,1489.03C984.928,1494.41 996.642,1499.3 1001.8,1504.45C1007.82,1510.45 1011.04,1517.9 1014.62,1525.23C1017.45,1531.05 1020.53,1536.83 1026.81,1540.99C1030.27,1543.28 1034.31,1543.85 1038.31,1544.52C1043.89,1545.46 1049.45,1546.48 1054.37,1549.42C1057.21,1551.12 1058.14,1554.8 1056.44,1557.65C1054.74,1560.49 1051.05,1561.42 1048.21,1559.72C1044.59,1557.55 1040.42,1557.05 1036.32,1556.36C1030.65,1555.4 1025.07,1554.23 1020.18,1550.99C1011.92,1545.51 1007.56,1538.15 1003.83,1530.49C1000.83,1524.35 998.362,1517.97 993.328,1512.95C988.701,1508.33 978.009,1504.28 969.542,1499.46C962.064,1495.2 956.246,1490.15 954.446,1484.8C954.175,1483.99 953.811,1479.86 953.808,1475.72C953.805,1471.58 954.161,1467.46 954.43,1466.65C957.509,1457.41 965.366,1450.13 972.146,1442.28C977.261,1436.36 981.734,1430 980.127,1420.82C979.542,1417.48 977.347,1415.29 974.711,1413.41C970.971,1410.76 966.345,1408.75 962.047,1406.47C955.38,1402.95 949.523,1398.74 946.633,1392.47C944.587,1388.04 943.86,1382.52 945.663,1375.31C948.41,1364.32 956.776,1355.51 964.715,1346.52C971.025,1339.38 977.158,1332.13 977.158,1322.27C977.158,1321.63 976.712,1321.22 976.243,1320.8C975.391,1320.04 974.31,1319.41 973.132,1318.81C968.949,1316.66 963.748,1314.97 959.661,1312.77C954.755,1310.12 951.295,1306.62 950.18,1302.18C949.407,1299.11 949.628,1295.4 951.877,1290.9C955.272,1284.11 961.1,1279.89 967.598,1276.53C972.667,1273.91 978.17,1271.88 982.424,1268.7C986.185,1265.89 988.834,1263.81 991.564,1261.94C992.539,1260.21 994.346,1259.02 996.425,1258.89Z"/>
    <path d="M909.531,1214.6C910.674,1213.53 912.231,1212.91 913.915,1213C915.589,1213.08 916.458,1213.13 916.661,1213.16C918.184,1213.43 919.015,1214.07 919.433,1214.41C921.893,1216.39 922.111,1218.72 921.372,1220.96C921.186,1221.53 920.521,1223.99 917.195,1224.9C916.579,1225.08 911.81,1225.78 905.831,1229.75C882.134,1245.48 862.698,1270.81 853.518,1298.35C853.325,1298.93 853.888,1299.18 854.354,1299.53C855.212,1300.17 856.265,1300.72 857.426,1301.25C862.619,1303.63 869.59,1305.37 875.099,1307.65C881.579,1310.33 886.138,1314.15 887.439,1318.69C888.428,1322.13 888.029,1326.4 884.342,1331.51C877.998,1340.31 869.002,1348.08 860.015,1355.91C851.797,1363.07 843.575,1370.27 837.971,1378.66C832.524,1386.82 830.372,1392.94 830.553,1398.11C830.826,1405.89 836.216,1411.07 840.876,1417.05C847.887,1426.04 854.145,1436.07 850.816,1452.53C847.25,1470.15 835.039,1482.24 823.522,1494.53C813.811,1504.88 804.567,1515.38 804.886,1531.53C805.102,1542.48 813.272,1551.94 822.182,1561.05C832.603,1571.71 844.316,1581.75 850.139,1591.72C856.36,1602.38 855.766,1616.06 855.294,1629.3C854.924,1639.67 854.322,1649.78 860.82,1656.57C877.679,1674.17 896.224,1676.15 909.351,1680.35C917.845,1683.06 924.418,1686.72 928.38,1693.51C932.089,1699.86 933.612,1709.39 931.004,1724.8C930.451,1728.06 927.351,1730.26 924.086,1729.71C920.821,1729.16 918.619,1726.06 919.172,1722.79C921.038,1711.77 920.772,1704.74 918.271,1700.01C916.713,1697.07 914.209,1695.28 911.169,1693.86C907.169,1691.99 902.34,1690.76 897.021,1689.3C883.551,1685.6 867.322,1680.71 852.152,1664.86C843.495,1655.82 842.809,1642.68 843.301,1628.88C843.691,1617.95 844.909,1606.57 839.776,1597.77C833.191,1586.49 818.378,1575.34 807.557,1562.94C799.179,1553.33 793.109,1542.98 792.888,1531.76C792.5,1512.11 802.945,1498.93 814.768,1486.32C824.786,1475.63 835.952,1465.47 839.054,1450.15C842.196,1434.62 833.168,1426.96 826.855,1418.61C822.534,1412.89 819.126,1406.93 818.61,1399.48C818.113,1392.31 820.292,1383.52 827.993,1371.99C834.157,1362.77 843.091,1354.74 852.132,1346.87C860.405,1339.66 868.771,1332.59 874.611,1324.49C875.071,1323.85 875.43,1323.27 875.67,1322.71C875.791,1322.42 876.005,1322.23 875.913,1322.02C875.671,1321.48 875.08,1321.14 874.459,1320.73C872.009,1319.11 868.54,1317.92 864.95,1316.71C858.036,1314.39 850.773,1312.04 846.65,1308.74C842.082,1305.09 840.146,1300.52 842.133,1294.56C852.144,1264.52 873.35,1236.91 899.193,1219.75C903.101,1217.15 906.805,1215.55 909.531,1214.6Z"/>
    <path d="M804.842,1168.86C803.591,1169.27 802.221,1169.76 800.918,1170.29C777.149,1179.98 725.296,1208.7 719.661,1214.56C718.681,1215.58 718.017,1216.86 717.231,1218.03C714.05,1222.79 712.628,1226.42 712.508,1229.62C712.319,1234.65 715.1,1238.38 717.354,1242.98C720.83,1250.07 723.924,1258.45 721.232,1271.81C717.048,1292.57 703.5,1308.48 689.705,1324.38C677.275,1338.71 664.61,1353.03 660.777,1372.19C658.074,1385.71 663.574,1396.67 667.82,1408.02C672.948,1421.73 676.717,1435.83 669.02,1453.7C661.718,1470.65 639.914,1489.04 624.171,1507.63C615.127,1518.32 607.948,1528.9 609.044,1539.63C609.735,1546.39 613.342,1551.6 618.218,1556.2C623.911,1561.58 631.279,1566.13 638.679,1570.84C655.638,1581.64 672.319,1593.5 675.231,1613.97C678.311,1635.61 667.997,1656.49 658.077,1677.35C649.315,1695.78 640.78,1714.19 646.292,1733.64C655.188,1765.04 684.37,1782.98 707.711,1802.37C722.488,1814.64 731.883,1834.24 743.21,1849.26C753.608,1863.05 769.49,1870.3 786.499,1875.58C804.787,1881.26 824.414,1884.63 840.955,1890.2C844.093,1891.26 845.784,1894.66 844.728,1897.8C843.673,1900.94 840.267,1902.63 837.128,1901.57C820.67,1896.04 801.137,1892.69 782.939,1887.04C763.463,1880.99 745.534,1872.28 733.628,1856.49C722.832,1842.16 714.129,1823.3 700.044,1811.6C674.921,1790.73 644.321,1770.7 634.746,1736.91C628.43,1714.62 637.199,1693.32 647.24,1672.2C656.122,1653.52 666.108,1635.03 663.351,1615.66C660.95,1598.79 646.213,1589.87 632.232,1580.97C624.164,1575.83 616.185,1570.79 609.977,1564.93C602.95,1558.29 598.102,1550.59 597.107,1540.85C595.721,1527.29 603.586,1513.38 615.012,1499.88C629.969,1482.21 651.062,1465.05 657.999,1448.95C664.19,1434.58 660.705,1423.25 656.581,1412.23C651.574,1398.84 645.823,1385.77 649.01,1369.84C653.263,1348.58 666.85,1332.42 680.64,1316.52C693.064,1302.2 705.701,1288.13 709.468,1269.44C712.01,1256.83 707.476,1250.14 704.346,1243.83C702.12,1239.35 700.456,1234.98 700.501,1229.85C700.544,1224.82 702.197,1218.92 707.258,1211.36C708.436,1209.6 709.547,1207.76 711.016,1206.23C716.952,1200.07 771.346,1169.39 796.386,1159.17C801.268,1157.18 805.167,1155.95 807.572,1155.61C810.106,1155.25 811.942,1155.72 813.057,1156.28C815.235,1157.36 816.8,1159.25 817.524,1161.88C818.332,1164.82 817.781,1169.38 816.132,1173.34C814.249,1177.86 810.881,1181.25 808.322,1182.1C805.517,1183.04 802.787,1182.62 800.38,1180.21C798.039,1177.87 798.039,1174.06 800.38,1171.72C801.492,1170.61 802.932,1170.03 804.389,1169.97C804.549,1169.63 804.701,1169.25 804.842,1168.86Z"/>
    <path d="M981.748,941.691C982.796,940.911 984.105,940.467 985.511,940.512C989.077,940.625 990.374,942.733 990.874,943.6C991.943,945.45 992.277,947.682 990.594,950.105C990.213,950.655 988.988,952.057 986.548,952.871C984.24,953.64 979.505,954.474 975.305,953.67C971.523,952.946 968.206,951.004 966.251,947.592C964.536,944.601 963.655,940.02 965.964,933.148C974.117,908.877 992.826,885.82 1010.6,867.75C1011.96,866.365 1058.05,830.578 1073.34,824.377C1076.08,823.266 1078.3,822.961 1079.73,823.091C1081.65,823.266 1083.08,824.031 1084.12,825.023C1085.71,826.524 1087.33,829.334 1085.58,833.921C1084.39,837.014 1080.92,838.567 1077.83,837.386C1077.2,837.143 1076.63,836.805 1076.13,836.392C1074.79,837.014 1073.2,837.797 1071.8,838.606C1053.77,849.024 1020.28,875.02 1019.15,876.165C1002.59,893.006 984.938,914.349 977.339,936.969C976.587,939.207 976.104,940.651 976.662,941.626C976.768,941.81 977.025,941.754 977.224,941.807C977.606,941.909 978.007,941.962 978.409,941.99C979.445,942.063 980.824,941.861 981.748,941.691ZM982.367,951.73C983.039,952.151 983.933,952.468 985.13,952.506C984.125,952.474 983.185,952.196 982.367,951.73Z"/>
    <path d="M859.397,941.15C858.402,939.412 857.039,937.005 856.118,935.281C854.415,932.095 853.341,928.906 853.343,926.448C853.355,913.933 860.039,897.86 865.49,886.56C884.199,847.781 930.971,822.158 965.704,800.873C980.264,791.951 1064.85,749.133 1093.23,744.073C1098.17,743.191 1101.91,743.496 1104.13,744.419C1106.35,745.341 1107.79,746.821 1108.63,748.632C1109.53,750.561 1109.87,753.222 1108.46,756.631C1107.2,759.691 1103.68,761.149 1100.62,759.884C1098.85,759.148 1097.61,757.655 1097.13,755.931C1093.98,756.435 1088.4,757.477 1083.35,759.151C1048.91,770.566 984.373,803.507 971.974,811.105C939.007,831.307 894.056,854.967 876.298,891.774C871.543,901.632 865.354,915.542 865.343,926.459C865.342,927.158 865.85,927.948 866.297,928.843C867.157,930.568 868.269,932.364 869.244,934.007C871.415,937.662 872.653,941.079 872.577,942.89C872.493,944.907 871.705,946.463 870.48,947.648C869.322,948.77 867.453,949.901 864.312,949.616C861.014,949.316 858.58,946.395 858.88,943.097C858.943,942.404 859.122,941.748 859.397,941.15Z"/>
    <path d="M703.157,977.894C703.516,977.827 703.886,977.794 704.263,977.795C705.772,977.802 706.515,977.923 706.646,977.95C708.876,978.419 709.793,979.669 710.173,980.16C711.333,981.665 711.589,983.235 711.35,984.756C711.309,985.02 710.546,989.522 705.608,989.837C703.829,989.951 691.001,990.159 686.085,989.79C674.528,988.923 669.185,981.899 667.46,972.562C665.431,961.582 669.396,946.691 672.332,938.712C692.914,882.762 735.361,838.009 774.324,794.407C801.492,764.005 982.453,626.67 1111.89,579.927C1146.03,567.597 1176.71,561.601 1200.27,564.994C1217.24,567.438 1230.73,574.635 1239.75,587.384C1241.66,590.087 1241.02,593.835 1238.32,595.748C1235.62,597.661 1231.87,597.02 1229.96,594.317C1220.91,581.544 1206.03,576.261 1187.39,576.048C1167.16,575.817 1142.71,581.553 1115.96,591.214C988.431,637.269 810.041,772.448 783.272,802.403C745.297,844.899 703.654,888.324 683.594,942.855C681.561,948.38 678.758,957.865 678.876,966.157C678.958,971.938 680.421,977.331 686.983,977.823C690.496,978.087 699.42,977.962 703.157,977.894Z"/>
    <g transform="matrix(1.71831,0,0,1.7133,-783.997,-214.604)">
        <path d="M1297.81,1122.57C1298.42,1121.52 1299.57,1120.82 1300.87,1120.84C1301.91,1120.85 1302.63,1121.26 1303.16,1121.73C1303.67,1122.18 1304.05,1122.77 1304.23,1123.52C1304.35,1124.01 1304.45,1124.74 1304.09,1125.65C1304,1125.89 1303.52,1126.73 1302.46,1127.86C1301.98,1128.36 1301.34,1129.03 1300.56,1129.84C1301.62,1129.56 1302.68,1129.31 1303.73,1129.1C1308.17,1128.23 1312.42,1128.2 1315.69,1129.83C1321.63,1132.78 1322.61,1139.71 1318.94,1147.9C1314.9,1156.93 1305.36,1167.66 1295.6,1173.41C1288.32,1177.69 1280.89,1179.1 1275.19,1176.26C1269.99,1173.66 1268.23,1169.38 1268.83,1164.13C1269.3,1159.99 1271.5,1155.09 1274.65,1150.12C1277.66,1145.35 1281.87,1140.09 1285.88,1135.45C1286.03,1133.95 1287.13,1132.73 1288.56,1132.4C1293.22,1127.19 1297.12,1123.26 1297.81,1122.57ZM1291.95,1139.09C1287.34,1144.31 1282.34,1150.53 1279.04,1156.38C1277.47,1159.16 1276.3,1161.83 1275.87,1164.24C1275.43,1166.7 1275.93,1168.8 1278.3,1169.98C1281.54,1171.6 1285.56,1170.65 1289.69,1168.64C1297.03,1165.08 1304.54,1157.86 1309.34,1150.74C1311.85,1147.02 1313.63,1143.36 1314.07,1140.26C1314.32,1138.44 1314.12,1136.86 1312.59,1136.1C1309.9,1134.76 1306.2,1135.64 1302.51,1136.55C1298.78,1137.48 1295.05,1138.62 1291.95,1139.09ZM1298.91,1127.27C1299.38,1127.59 1299.99,1127.83 1300.78,1127.84C1300.09,1127.83 1299.45,1127.62 1298.91,1127.27ZM1297.96,1126.35L1297.98,1126.36L1297.92,1126.28L1297.96,1126.35ZM1297.66,1125.82C1297.73,1125.97 1297.81,1126.12 1297.9,1126.25L1297.82,1126.12C1297.79,1126.07 1297.76,1126.02 1297.73,1125.97L1297.66,1125.82ZM1297.63,1125.75L1297.66,1125.82L1297.61,1125.7L1297.63,1125.75Z"/>
    </g>
    <g transform="matrix(1.71831,0,0,1.7133,-783.997,-214.604)">
        <path d="M1202.55,1080.29C1215.36,1076.04 1227.43,1072.1 1242.18,1072.1C1245.75,1072.1 1246.24,1074.92 1246.28,1075.38C1246.35,1076.14 1246.32,1077.84 1244.32,1078.88C1243.97,1079.06 1242.97,1079.39 1241.63,1079.73C1239.61,1080.24 1236.46,1080.92 1235.08,1081.61C1228.77,1084.75 1213.36,1088.71 1203.75,1091.67C1203.86,1092 1203.92,1092.36 1203.93,1092.73C1203.96,1094.66 1202.42,1096.26 1200.49,1096.29C1197.46,1096.34 1195.48,1096.21 1194.36,1095.99C1193.2,1095.77 1192.47,1095.36 1192.04,1095.04C1190.46,1093.83 1190.22,1092.37 1190.7,1090.86C1190.76,1090.67 1190.87,1090.42 1191.03,1090.15C1188.83,1090.42 1186.65,1090.58 1184.61,1090.58L1172.43,1090.58C1172.29,1090.58 1172.15,1090.56 1172.01,1090.53C1168.75,1090.25 1168.04,1088.66 1168.5,1087.07C1168.04,1085.48 1168.75,1083.89 1172.01,1083.62C1172.15,1083.59 1172.29,1083.57 1172.43,1083.57L1173.08,1083.57C1175.96,1083.57 1185.17,1081.52 1191.37,1079.49C1191.26,1079.14 1191.2,1078.77 1191.21,1078.39C1191.24,1076.46 1192.83,1074.91 1194.76,1074.94C1197.41,1074.99 1199.05,1075.3 1199.91,1075.64C1201.31,1076.19 1201.97,1077.06 1202.31,1077.78C1202.6,1078.41 1202.78,1079.32 1202.55,1080.29Z"/>
    </g>
    <g transform="matrix(1.71831,0,0,1.7133,-783.997,-214.604)">
        <path d="M1252.02,1061.87C1269.62,1062.11 1303.25,1051.34 1319.41,1044.38C1321.18,1043.62 1322,1041.55 1321.24,1039.78C1320.48,1038 1318.42,1037.18 1316.65,1037.94C1301.16,1044.61 1268.98,1055.09 1252.11,1054.87C1250.18,1054.84 1248.6,1056.39 1248.57,1058.32C1248.55,1060.26 1250.09,1061.85 1252.02,1061.87Z"/>
    </g>
</svg>
