<?xml version="1.0" encoding="UTF-8" standalone="no"?>
<!DOCTYPE svg PUBLIC "-//W3C//DTD SVG 1.1//EN" "http://www.w3.org/Graphics/SVG/1.1/DTD/svg11.dtd">
<svg width="100%" height="100%" viewBox="0 0 3508 2481" version="1.1" xmlns="http://www.w3.org/2000/svg" xmlns:xlink="http://www.w3.org/1999/xlink" xml:space="preserve" xmlns:serif="http://www.serif.com/" style="fill-rule:evenodd;clip-rule:evenodd;stroke-linejoin:round;stroke-miterlimit:2;">
    <g transform="matrix(2.30555,0,0,2.0433,-366.705,-956.296)">
        <path d="M738.002,648.287C716.786,658.942 696.933,676.292 693.956,703.087C688.734,750.084 706.905,821.942 768.773,811.677C820.117,803.159 844.246,750.111 841.897,704.5C840.734,681.913 833.086,661.104 818.848,648.585C804.612,636.069 783.86,632.007 756.699,642.392C755.338,642.912 753.86,642.088 753.399,640.553C752.938,639.018 753.668,637.349 755.028,636.829C784.334,625.626 806.688,630.449 822.047,643.953C837.403,657.454 845.838,679.798 847.093,704.159C849.579,752.444 823.885,808.469 769.53,817.487C703.492,828.444 683.218,752.521 688.792,702.357C692.023,673.27 713.333,654.129 736.384,642.671C736.46,642.633 736.788,642.449 737.36,642.42C737.537,642.411 738.18,642.41 738.611,642.412L738.67,642.41L738.73,642.412L738.945,642.412C739.022,642.413 739.102,642.42 739.184,642.433C740.724,642.562 741.375,643.229 741.507,644.07C742.806,645.763 743.058,648.161 739.034,648.278C739.005,648.283 738.977,648.285 738.95,648.285L738.002,648.287Z"/>
    </g>
    <g transform="matrix(2.30555,0,0,2.0433,-366.705,-956.296)">
        <path d="M778.71,863.396C777.313,863.337 776.199,862.035 776.207,860.446C776.215,858.826 777.387,857.517 778.823,857.526C781.484,857.542 782.719,858.486 783.34,859.401C783.916,860.249 784.208,861.349 784.071,862.809C783.947,864.135 783.238,866.179 783.238,869.078C783.238,926.726 774.6,983.397 774.6,1041.17C774.6,1075.79 771.136,1112.51 774.594,1146.96C775.202,1153.02 778.017,1199.41 778.479,1208.63C778.535,1209.75 778.548,1210.42 778.542,1210.54C778.4,1213.19 776.234,1213.32 775.927,1213.32C774.491,1213.31 773.331,1211.99 773.339,1210.37L773.341,1210.29C773.335,1210.14 773.314,1209.59 773.282,1208.96C772.823,1199.8 770.027,1153.65 769.423,1147.62C765.942,1112.96 769.395,1076.01 769.395,1041.17C769.395,983.397 778.033,926.726 778.033,869.078C778.033,866.67 778.449,864.796 778.71,863.396Z"/>
    </g>
    <g transform="matrix(2.30555,0,0,2.0433,-366.705,-956.296)">
        <path d="M787.334,966.52C787.474,966.491 788.539,966.273 788.993,966.303C790.005,966.37 790.803,966.853 791.372,967.729C804.024,987.199 847.124,1087.71 869.399,1127.05C872.623,1132.74 875.382,1137.11 877.535,1139.69C878.241,1140.53 879.213,1141.33 879.407,1141.49C880.728,1141.61 881.778,1142.85 881.799,1144.37C881.821,1145.99 880.672,1147.33 879.236,1147.35C878.156,1147.37 876.64,1146.76 874.967,1145.07C872.517,1142.59 869.08,1137.39 865.013,1130.21C843.189,1091.67 801.358,994.263 787.895,972.344C787.706,972.372 787.528,972.391 787.4,972.391C785.964,972.382 784.804,971.059 784.811,969.439C784.819,967.853 785.941,966.567 787.334,966.52Z"/>
    </g>
    <g transform="matrix(2.30555,0,0,2.0433,-366.705,-956.296)">
        <path d="M764.756,974.818C764.918,973.366 766.021,972.246 767.351,972.254C768.41,972.261 769.377,972.746 769.823,974.295C769.893,974.539 769.967,974.887 769.951,975.348C769.943,975.564 769.841,976.263 769.482,977.35C767.266,984.075 753.403,1019.42 736.821,1054.04C719.653,1089.88 701.194,1124.54 679.02,1157.67C672.187,1167.88 663.494,1177.02 655.848,1186.55C655.074,1187.52 653.787,1188.75 652.402,1190.05C651.804,1191.16 651.164,1192.27 650.542,1193.29C648.96,1195.89 647.439,1197.93 646.982,1198.33C646.279,1198.94 645.648,1198.99 645.303,1198.99C642.965,1198.99 642.045,1197.67 641.686,1196.67C641.348,1195.72 641.323,1194.21 642.38,1192.56C643.382,1191 645.942,1188.63 648.271,1186.42C648.528,1185.93 648.772,1185.45 648.996,1184.98C649.458,1184.02 649.914,1182.69 650.054,1182.26C649.838,1181.02 650.358,1179.71 651.403,1179.1C652.431,1178.49 653.654,1178.74 654.437,1179.61C661.346,1171.27 668.844,1163.13 674.866,1154.13C696.879,1121.24 715.199,1086.83 732.242,1051.25C748.665,1016.96 762.409,981.963 764.604,975.303C764.661,975.13 764.717,974.946 764.756,974.818ZM765.203,976.871C765.691,977.714 766.381,978.082 767.186,978.122C766.365,978.069 765.646,977.587 765.203,976.871Z"/>
    </g>
    <g transform="matrix(2.30555,0,0,2.0433,-366.705,-956.296)">
        <path d="M774.927,1224.56C773.989,1224.11 773.333,1223.06 773.339,1221.84C773.347,1220.22 774.519,1218.91 775.955,1218.92C777.285,1218.93 778.393,1219.59 779.206,1220.98C779.797,1222 780.24,1223.67 780.363,1225.89C780.956,1236.51 775.029,1263.28 774.51,1265.61C771.06,1281.07 766.532,1296.2 762.986,1311.52C759.328,1327.34 746.822,1431.46 741.119,1473.93C739.962,1482.54 739.078,1488.65 738.602,1491.05C738.373,1492.19 738.091,1492.86 737.963,1493.08C737.176,1494.43 735.562,1494.81 734.36,1493.92C733.277,1493.12 732.897,1491.56 733.41,1490.27C733.485,1489.82 734.753,1482.13 735.973,1473.05C741.697,1430.42 754.279,1325.91 757.95,1310.04C761.492,1294.73 766.016,1279.62 769.462,1264.17C769.9,1262.21 774.381,1242.24 775.109,1230.43C775.21,1228.79 775.238,1227.31 775.159,1226.09C775.125,1225.58 775.009,1224.95 774.927,1224.56Z"/>
    </g>
    <g transform="matrix(2.30555,0,0,2.0433,-366.705,-956.296)">
        <path d="M774.916,1241.77C773.984,1241.31 773.333,1240.27 773.339,1239.05C773.347,1237.43 774.519,1236.12 775.955,1236.13C776.299,1236.13 777.364,1236.4 778.552,1237.51C780.631,1239.44 784.913,1244.49 785.791,1246.24C814.394,1303.22 841.481,1360.49 874.974,1415.24C898.347,1453.44 915.191,1492.38 932.718,1533.22C933.624,1535.33 935.212,1546.07 937.129,1554.55C938.332,1554.73 939.522,1555.49 940.506,1556.76C941.688,1558.28 942.585,1560.57 942.864,1562.57C943.395,1566.38 941.76,1568.99 939.003,1568.99C938.257,1568.99 937.493,1568.73 936.758,1568.1C935.996,1567.45 935.148,1566.16 934.42,1564.29C932.667,1559.79 931.053,1551.13 929.797,1544.29C929.045,1540.2 928.481,1536.83 928.034,1535.78C910.624,1495.21 893.907,1456.53 870.691,1418.57C837.109,1363.68 809.941,1306.26 781.262,1249.13C780.516,1247.64 775.52,1242.4 774.916,1241.77Z"/>
    </g>
    <g transform="matrix(2.30555,0,0,2.0433,-366.705,-956.296)">
        <path d="M873.312,763.007C871.939,762.92 870.851,761.631 870.858,760.062C870.864,758.441 872.036,757.131 873.472,757.139C874.567,757.144 875.764,757.62 876.945,758.711C878.628,760.268 880.486,763.412 882.166,767.502C885.735,776.192 888.774,789.292 888.976,798.038C889.081,802.605 888.279,806.131 886.882,807.913C885.93,809.126 884.284,809.24 883.208,808.165C882.133,807.091 882.032,805.234 882.984,804.02C883.351,803.553 883.49,802.773 883.617,801.834C883.811,800.397 883.825,798.655 883.712,796.718C883.342,790.418 881.603,782.214 879.381,775.317C877.948,770.872 876.331,766.974 874.719,764.577C874.243,763.869 873.445,763.128 873.312,763.007Z"/>
    </g>
    <g transform="matrix(2.30555,0,0,2.0433,-366.705,-956.296)">
        <path d="M887.79,734.329C891.484,734.348 895.047,736.472 898.493,739.948C902.302,743.791 905.913,749.268 909.277,755.762C920.606,777.626 929.008,810.851 931.47,834.368C932.484,844.056 932.532,852.033 931.213,856.702C930.777,858.246 931.533,859.9 932.902,860.392C934.27,860.884 935.736,860.03 936.172,858.486C937.638,853.299 937.765,844.442 936.639,833.679C934.106,809.478 925.429,775.298 913.771,752.798C909.339,744.244 904.451,737.357 899.343,733.179C895.614,730.128 891.74,728.476 887.813,728.457C886.376,728.45 885.205,729.76 885.199,731.38C885.192,733.001 886.353,734.322 887.79,734.329Z"/>
    </g>
    <g transform="matrix(2.30555,0,0,2.0433,-366.705,-956.296)">
        <path d="M915.853,905.854C916.04,904.132 916.316,902.816 916.316,902.816C916.628,901.335 917.892,900.37 919.227,900.592C920.561,900.814 921.525,902.15 921.445,903.669C921.445,903.669 921.344,905.228 920.98,906.903C920.943,907.286 920.914,907.688 920.899,908.094C920.862,909.034 920.806,910.024 921.123,910.654C924.234,916.852 929.146,937 929.718,950.997C929.874,954.799 929.706,958.17 929.154,960.749C928.692,962.912 927.936,964.595 926.978,965.737C925.99,966.914 924.341,966.964 923.299,965.85C922.256,964.736 922.211,962.876 923.198,961.699C923.636,961.178 923.884,960.359 924.095,959.372C924.553,957.229 924.648,954.426 924.519,951.267C923.984,938.191 919.5,919.339 916.594,913.549C916.383,913.128 916.209,912.647 916.072,912.122C914.826,911.898 913.875,910.676 913.881,909.21C913.886,907.919 914.629,906.825 915.657,906.438C915.715,906.277 915.79,906.061 915.853,905.854Z"/>
    </g>
    <g transform="matrix(2.30555,0,0,2.0433,-366.705,-956.296)">
        <path d="M927.486,900.56C929.655,900.56 932.358,899.429 935.069,897.742C939.392,895.052 943.71,890.88 945.923,886.643C946.896,884.782 947.488,882.95 947.17,881.278C946.875,879.724 945.718,878.503 943.709,877.5C931.757,871.536 922.98,875.791 914.841,880.009C908.656,883.215 902.771,886.376 896.394,886.344C894.958,886.337 893.797,885.016 893.803,883.395C893.81,881.775 894.981,880.465 896.417,880.472C903.596,880.507 909.999,875.758 917.206,872.42C925.324,868.66 934.299,866.383 945.815,872.129C949.789,874.112 951.675,876.973 952.26,880.047C952.821,883.002 952.126,886.336 950.407,889.625C948.332,893.597 944.74,897.57 940.794,900.639C946.514,901.094 955.889,903.559 963.47,907.523C969.563,910.709 974.43,914.986 975.992,919.672C976.968,922.6 976.772,926.803 975.428,931.59C972.678,941.395 965.238,954.061 956.955,962.106C948.193,970.616 938.499,973.667 931.808,965.743C930.818,964.57 930.857,962.71 931.897,961.592C932.937,960.474 934.586,960.519 935.577,961.692C937.764,964.283 940.433,964.915 943.264,964.234C946.626,963.426 950.158,960.959 953.56,957.655C960.063,951.338 966.012,941.921 969.167,933.703C971.029,928.85 972.047,924.52 971.12,921.74C969.928,918.163 965.932,915.283 961.282,912.852C953.599,908.835 943.912,906.433 939.014,906.433L926.84,906.433C926.695,906.433 926.545,906.409 926.393,906.362C924.195,906.054 923.684,904.775 923.978,903.497C923.684,902.218 924.195,900.939 926.393,900.631C926.545,900.585 926.695,900.56 926.84,900.56L927.486,900.56Z"/>
    </g>
    <g transform="matrix(2.30555,0,0,2.0433,-366.705,-956.296)">
        <path d="M979.574,886.344C985.03,886.368 988.023,889.998 989.815,895.473C993.041,905.332 992.712,920.521 993.392,934.894C993.822,943.999 994.636,952.792 996.781,959.887C998.33,965.011 1000.58,969.283 1003.76,972.318C1009.01,977.322 1016.91,979.173 1029.01,975.15C1031.3,974.391 1032.4,973.238 1033.04,972.066C1033.84,970.574 1033.77,968.759 1033.81,966.651C1033.85,965.03 1032.7,963.686 1031.27,963.65C1029.83,963.615 1028.64,964.901 1028.61,966.522C1028.59,967.469 1028.79,968.323 1028.58,969.046C1028.55,969.115 1028.46,969.104 1028.38,969.155C1028.15,969.29 1027.87,969.406 1027.54,969.517C1017.78,972.763 1011.35,971.871 1007.12,967.833C1003.95,964.805 1002.07,960.143 1000.83,954.649C999.484,948.668 998.927,941.724 998.589,934.581C997.879,919.573 998.066,903.733 994.697,893.438C992.092,885.477 987.528,880.506 979.594,880.472C978.157,880.466 976.987,881.776 976.981,883.397C976.976,885.018 978.138,886.338 979.574,886.344Z"/>
    </g>
    <g transform="matrix(2.30555,0,0,2.0433,-366.705,-956.296)">
        <path d="M1042.95,905.407C1041.94,906.069 1040.86,906.426 1039.81,906.422C1038.37,906.416 1037.21,905.096 1037.21,903.475C1037.22,901.855 1038.39,900.543 1039.83,900.549C1040.33,900.551 1040.75,900.064 1041.17,899.554C1042.18,898.321 1042.94,896.476 1042.94,894.886C1042.96,885.785 1044.27,882.65 1045.58,883.37C1046.83,882.798 1048.08,885.762 1048.14,894.09C1048.14,894.286 1048.15,894.484 1048.15,894.684C1048.15,895.649 1048.15,898.867 1048.15,902.253C1050.27,897.358 1052.95,893.752 1056.03,892.217C1057.6,891.437 1059.48,891.503 1061.58,892.659C1064.79,894.428 1068.92,899.247 1073.24,905.872C1082.66,920.341 1093.46,943.515 1098.93,958.302C1101.48,965.207 1102.8,970.49 1102.64,972.57C1102.52,974.184 1101.26,975.385 1099.83,975.249C1098.4,975.112 1097.34,973.69 1097.45,972.076C1097.5,971.537 1097.3,970.684 1097.03,969.554C1096.47,967.269 1095.46,964.181 1094.12,960.563C1088.79,946.121 1078.25,923.481 1069.05,909.35C1065.84,904.431 1062.85,900.561 1060.29,898.602C1059.77,898.204 1059.29,897.896 1058.83,897.712C1058.56,897.608 1058.34,897.488 1058.13,897.59C1056.68,898.314 1055.45,899.81 1054.33,901.741C1052.32,905.214 1050.79,910.038 1049.64,915.33C1047.95,923.084 1047.08,931.843 1046.98,939.018C1047.09,942.398 1047.41,945.66 1048.08,948.693C1048.48,950.523 1048.43,953.496 1048.32,955.66C1048.27,956.844 1048.17,957.863 1048.13,958.266L1048.12,958.348L1048.12,958.348L1048.11,958.45C1047.89,960.032 1046.59,961.123 1045.18,960.901C1043.78,960.679 1042.79,959.227 1042.96,957.637C1042.96,957.637 1043.15,956.035 1043.22,954.196C1043.2,953.822 1043.16,953.474 1043.08,953.192C1042.26,950.472 1041.84,945.679 1041.86,939.941C1041.51,929.785 1042.95,918.615 1042.95,909.244L1042.95,905.407Z"/>
    </g>
    <g transform="matrix(2.30555,0,0,2.0433,-366.705,-956.296)">
        <path d="M1048.4,946.441C1048.79,945.078 1049.16,943.297 1049.57,941.505C1050.26,938.456 1051.03,935.382 1051.93,933.607C1053.14,931.201 1055.71,928.89 1059.11,926.993C1066.06,923.105 1076.57,920.652 1082.83,920.627C1084.27,920.621 1085.44,921.932 1085.44,923.553C1085.45,925.173 1084.29,926.494 1082.85,926.499C1077.98,926.519 1070.3,928.173 1064.23,930.858C1060.65,932.444 1057.59,934.248 1056.45,936.51C1055.22,938.947 1054.4,944.296 1053.48,947.747C1052.87,950.051 1052.04,951.705 1051.35,952.35C1050.5,953.151 1049.59,953.351 1048.68,953.143C1047.96,952.977 1046.97,952.442 1046.15,950.82C1045.45,949.408 1045.89,947.616 1047.14,946.819C1047.54,946.565 1047.97,946.443 1048.4,946.441Z"/>
    </g>
    <g transform="matrix(2.30555,0,0,2.0433,-366.705,-956.296)">
        <path d="M1116.51,874.749C1115.37,874.366 1114.58,873.131 1114.66,871.736C1114.76,870.119 1116,868.895 1117.43,869.006C1118.39,869.079 1119.45,869.59 1120.42,870.835C1121.51,872.232 1122.7,875.03 1123.82,878.903C1129.33,898.002 1135.05,946.166 1139.67,956.678C1140.31,958.13 1139.78,959.893 1138.49,960.613C1137.2,961.332 1135.64,960.738 1135,959.285C1130.34,948.663 1124.44,900.022 1118.87,880.722C1118.36,878.952 1117.85,877.45 1117.35,876.28C1117.09,875.686 1116.68,875.016 1116.51,874.749Z"/>
    </g>
    <g transform="matrix(2.30555,0,0,2.0433,-366.705,-956.296)">
        <path d="M1152.25,883.307C1152.27,883.255 1152.31,883.166 1152.33,883.104C1152.37,882.985 1152.39,882.858 1152.42,882.724C1152.61,881.696 1152.56,880.413 1152.46,879.019C1152.15,874.336 1151.36,868.719 1152.55,865.184C1153.45,862.47 1154.8,861.51 1155.76,861.259C1156.84,860.971 1158.02,861.231 1159.12,862.456C1160.23,863.701 1161.5,866.952 1162.51,871.036C1164.52,879.181 1166.08,890.837 1166.19,891.566C1169.46,914.41 1168.24,941.36 1176.98,962.476C1177.59,963.944 1177.02,965.693 1175.72,966.379C1174.42,967.064 1172.87,966.429 1172.26,964.96C1163.33,943.373 1164.4,915.858 1161.05,892.504C1160.94,891.749 1159.23,878.869 1157.08,871.031L1157.05,870.936C1157.08,871.669 1157.13,872.431 1157.19,873.201C1157.41,876 1157.77,878.893 1157.75,881.263C1157.71,884.019 1157.08,886.209 1155.88,887.537C1154.9,888.613 1153.54,889.317 1151.55,889.209C1150.12,889.132 1149.01,887.755 1149.08,886.136C1149.15,884.517 1150.37,883.266 1151.8,883.343C1151.95,883.351 1152.16,883.321 1152.25,883.307Z"/>
    </g>
    <g transform="matrix(2.30555,0,0,2.0433,-366.705,-956.296)">
        <path d="M1145.8,917.891C1147.8,918.008 1149.11,917.512 1150.76,916.807C1152.55,916.045 1154.89,915.049 1160.29,915.027C1161.73,915.02 1162.89,913.7 1162.88,912.079C1162.88,910.459 1161.71,909.148 1160.27,909.154C1153.83,909.181 1151.04,910.407 1148.92,911.315C1147.97,911.722 1147.22,912.094 1146.08,912.026C1144.64,911.942 1143.42,913.187 1143.34,914.806C1143.27,916.424 1144.37,917.806 1145.8,917.891Z"/>
    </g>
    <g transform="matrix(2.30555,0,0,2.0433,-366.705,-956.296)">
        <path d="M958.202,1050.09C958.302,1049.44 958.493,1048.19 958.585,1047.55C958.715,1046.64 958.937,1045.91 959.168,1045.46C959.751,1044.33 960.586,1043.87 961.445,1043.79C962.063,1043.72 962.889,1043.83 963.772,1044.71C972.493,1053.39 980.553,1076.86 983.607,1098.37C985.678,1112.96 985.39,1126.63 981.898,1134.29C981.241,1135.73 979.67,1136.3 978.393,1135.55C977.116,1134.81 976.613,1133.04 977.27,1131.6C980.409,1124.71 980.329,1112.42 978.467,1099.3C975.943,1081.52 970.025,1062.17 963.048,1052.38C962.968,1052.67 962.881,1052.94 962.79,1053.14C962.077,1054.75 960.944,1055.58 959.496,1055.57C958.06,1055.56 956.898,1054.24 956.904,1052.62C956.908,1051.54 957.429,1050.6 958.202,1050.09Z"/>
    </g>
    <g transform="matrix(2.30555,0,0,2.0433,-366.705,-956.296)">
        <path d="M926.714,1052.92C926.637,1052.25 926.519,1051.29 926.404,1050.57C925.776,1046.6 925.633,1041.97 928.658,1038.97C931.912,1035.74 941.184,1030.4 949.984,1027.65C956.242,1025.69 962.271,1025.16 965.982,1027.01C974.051,1031.04 976.554,1038.98 974.992,1045.82C974.691,1047.14 974.235,1048.42 973.63,1049.64C983.902,1048.87 1000.95,1050.6 1015.29,1057.58C1026.08,1062.83 1035.31,1071.06 1039.34,1083.16C1040.95,1087.99 1040.19,1092.77 1037.58,1097.33C1034.2,1103.25 1027.47,1108.87 1019.35,1113.6C1005.64,1121.58 988.006,1127.19 977.173,1128.36C974.172,1128.68 971.655,1128.67 969.82,1128.32C968.105,1127.99 966.856,1127.33 966.071,1126.55C964.797,1125.27 964.282,1123 964.872,1120.15C965.353,1117.84 966.524,1114.97 967.453,1112.55C967.906,1111.37 968.324,1110.35 968.394,1109.66C968.556,1108.05 969.847,1106.89 971.274,1107.08C972.701,1107.26 973.728,1108.72 973.565,1110.33C973.362,1112.33 971.377,1116.58 970.29,1120.15C970.073,1120.87 969.919,1121.88 969.852,1122.36C970.227,1122.52 970.76,1122.56 971.393,1122.63C972.813,1122.79 974.605,1122.74 976.676,1122.52C987.026,1121.4 1003.87,1116.01 1016.96,1108.38C1023.01,1104.86 1028.26,1100.87 1031.58,1096.57C1034.37,1092.95 1035.78,1089.15 1034.47,1085.23C1030.93,1074.61 1022.69,1067.58 1013.23,1062.97C998.513,1055.81 980.76,1054.51 971.585,1055.74C970.003,1055.95 968.322,1056.49 967.504,1056.77C967.35,1064.01 966.105,1066.33 964.873,1065.61C963.727,1066.18 962.591,1064.18 962.359,1058.17C961.346,1058.35 960.278,1058.45 959.159,1058.45C957.659,1058.45 956.934,1057.66 956.563,1057.09C956.002,1056.22 955.67,1054.94 956.486,1053.4C956.821,1052.77 957.692,1051.78 958.835,1050.81C960.79,1049.15 963.578,1047.26 963.578,1047.26C964.383,1046.71 965.385,1046.7 966.201,1047.22C966.847,1047.63 967.297,1048.33 967.455,1049.13C968.694,1047.78 969.546,1046.13 969.952,1044.36C970.96,1039.94 969.083,1034.98 963.876,1032.38C960.972,1030.93 956.273,1031.78 951.375,1033.31C943.443,1035.79 935.028,1040.46 932.095,1043.38C931.141,1044.32 931.139,1045.7 931.222,1047.03C931.363,1049.28 931.924,1051.53 932,1053.12C932.088,1054.96 931.616,1056.33 930.842,1057.19C930.207,1057.9 929.307,1058.44 927.945,1058.44C926.509,1058.43 925.348,1057.11 925.354,1055.49C925.358,1054.38 925.907,1053.42 926.714,1052.92Z"/>
    </g>
    <g transform="matrix(2.30555,0,0,2.0433,-366.705,-956.296)">
        <path d="M1047.65,1018.57C1047.17,1019.14 1046.53,1019.92 1046.03,1020.5C1044.38,1022.44 1042.32,1024.03 1039.81,1024.02C1038.37,1024.01 1037.21,1022.69 1037.21,1021.07C1037.22,1019.45 1038.39,1018.14 1039.83,1018.15C1040.68,1018.15 1041.32,1017.49 1041.91,1016.85C1043.02,1015.65 1043.94,1014.26 1044.77,1013.45C1045.75,1012.49 1046.75,1012.07 1047.66,1012.07C1048.49,1012.06 1049.34,1012.35 1050.17,1013.17C1054.19,1017.18 1056.64,1022.76 1058.11,1029.3C1060.15,1038.36 1060.33,1049.33 1060.86,1060.07C1061.28,1068.57 1061.92,1076.93 1064.1,1083.96C1066.11,1090.45 1069.46,1095.77 1075.41,1098.73C1080.48,1101.25 1086.05,1098.4 1091.36,1095.25C1095.04,1093.07 1098.59,1090.63 1101.8,1089.01C1104.27,1087.76 1106.59,1087 1108.63,1086.98C1110.07,1086.97 1111.25,1088.28 1111.26,1089.9C1111.27,1091.52 1110.11,1092.84 1108.67,1092.86C1107.24,1092.87 1105.65,1093.5 1103.92,1094.38C1100.81,1095.95 1097.36,1098.33 1093.78,1100.45C1087,1104.46 1079.77,1107.32 1073.31,1104.1C1065.94,1100.43 1061.67,1093.94 1059.18,1085.9C1056.86,1078.39 1056.11,1069.48 1055.66,1060.4C1055.23,1051.72 1055.07,1042.9 1053.88,1035.12C1052.88,1028.51 1051.16,1022.68 1047.65,1018.57Z"/>
    </g>
    <g transform="matrix(2.30555,0,0,2.0433,-366.705,-956.296)">
        <path d="M1114.99,1031.83C1116.77,1025.97 1118.6,1021.73 1120.42,1018.84C1123.75,1013.55 1127.31,1012.2 1130.62,1013.08C1133.41,1013.82 1136.29,1016.46 1138.92,1020.69C1142.3,1026.12 1145.48,1034.26 1148.2,1043.25C1153.56,1060.92 1157.19,1081.86 1157.53,1091.1C1157.65,1094.28 1157.21,1096.41 1156.73,1097.26C1155.94,1098.62 1154.33,1099 1153.13,1098.12C1151.99,1097.29 1151.62,1095.62 1152.24,1094.3C1152.25,1093.94 1152.37,1090.75 1152.07,1087.62C1151.1,1077.51 1147.81,1060.12 1143.27,1045.15C1140.73,1036.76 1137.81,1029.13 1134.66,1024.06C1132.93,1021.29 1131.26,1019.28 1129.43,1018.79C1127.78,1018.36 1126.31,1019.62 1124.66,1022.24C1121.37,1027.47 1118.21,1037.49 1115.21,1053.91C1114.93,1063.61 1114.38,1072.44 1114.38,1075.6C1114.38,1076.78 1114.64,1084.23 1114.21,1089.89C1113.99,1092.75 1113.55,1095.21 1112.94,1096.55C1112.32,1097.92 1111.44,1098.62 1110.6,1098.89C1109.63,1099.21 1108.43,1099.14 1107.17,1097.88C1106.23,1096.93 1105.49,1095.56 1105.03,1093.79C1104.52,1091.79 1104.35,1089.2 1104.46,1086.28C1104.84,1076.23 1108.55,1061.87 1109.22,1057.85C1109.5,1056.17 1109.79,1054.54 1110.08,1052.97C1110.28,1045.6 1110.31,1037.86 1109.78,1031.9C1109.54,1029.15 1109.19,1026.82 1108.64,1025.15C1108.5,1024.71 1108.22,1024.17 1108.1,1023.95C1106.85,1023.64 1105.95,1022.33 1106.06,1020.85C1106.17,1019.23 1107.43,1018.02 1108.86,1018.15C1110.08,1018.27 1111.2,1018.91 1112.13,1020.2C1112.95,1021.34 1113.66,1023.16 1114.16,1025.54C1114.53,1027.31 1114.8,1029.45 1114.99,1031.83Z"/>
    </g>
    <g transform="matrix(2.30555,0,0,2.0433,-366.705,-956.296)">
        <path d="M1112.25,1096.85C1112,1096.32 1111.7,1095.71 1111.44,1095.23C1110.58,1093.68 1109.72,1092.1 1109.34,1090.97C1106.31,1081.88 1108.78,1073.42 1113.78,1065.73C1120.53,1055.33 1132.05,1046.38 1138.34,1039.11C1139.34,1037.95 1140.99,1037.93 1142.02,1039.06C1143.05,1040.19 1143.07,1042.05 1142.07,1043.21C1135.91,1050.33 1124.59,1059.03 1117.98,1069.2C1114.06,1075.22 1111.84,1081.78 1114.21,1088.91C1114.57,1089.98 1115.54,1091.53 1116.32,1092.97C1117.05,1094.35 1117.64,1095.66 1117.85,1096.62C1118.17,1098.09 1117.86,1099.23 1117.33,1100.02C1116.8,1100.81 1115.88,1101.59 1114.2,1101.45C1112.77,1101.33 1111.69,1099.92 1111.79,1098.31C1111.83,1097.76 1111.99,1097.27 1112.25,1096.85Z"/>
    </g>
    <g transform="matrix(2.30555,0,0,2.0433,-366.705,-956.296)">
        <path d="M1171.02,1009.56C1169.9,1009.19 1169.1,1008 1169.15,1006.62C1169.21,1005 1170.42,1003.74 1171.86,1003.81C1172.77,1003.85 1173.7,1004.25 1174.55,1005.18C1175.5,1006.21 1176.48,1008.25 1177.28,1011.12C1180.9,1024.05 1182.74,1056.46 1183.45,1060.71C1184.08,1064.47 1190.32,1091.59 1191.36,1096.97C1191.6,1098.2 1191.54,1098.96 1191.52,1099.09C1191.34,1100.09 1190.86,1100.59 1190.51,1100.88C1190.02,1101.3 1189.47,1101.48 1188.87,1101.46C1187.52,1101.4 1186.44,1100.19 1186.37,1098.69C1186.35,1098.58 1186.31,1098.39 1186.28,1098.22C1185.23,1092.82 1178.97,1065.57 1178.34,1061.8C1177.72,1058.11 1176.28,1033.04 1173.52,1018.24C1172.97,1015.28 1172.37,1012.76 1171.71,1010.97C1171.51,1010.46 1171.18,1009.84 1171.02,1009.56ZM1187.33,1096.24C1187.05,1096.49 1186.72,1096.87 1186.52,1097.51C1186.69,1097.01 1186.97,1096.57 1187.33,1096.24ZM1187.42,1096.16L1187.41,1096.17L1187.44,1096.15L1187.42,1096.16ZM1187.51,1096.09L1187.5,1096.1L1187.58,1096.04L1187.51,1096.09ZM1188.92,1095.59C1188.44,1095.6 1188,1095.74 1187.59,1096.03C1187.98,1095.76 1188.43,1095.6 1188.92,1095.59ZM1188.92,1095.59L1189.06,1095.59C1189.01,1095.59 1188.97,1095.59 1188.92,1095.59Z"/>
    </g>
    <g transform="matrix(2.30555,0,0,2.0433,-366.705,-956.296)">
        <path d="M1205.3,1018.32C1205.55,1017.94 1206.17,1016.99 1206.59,1016.22C1207.84,1013.85 1209.26,1010.87 1210.59,1009.02C1212.82,1005.95 1215.29,1005.57 1217.16,1007.43C1222.84,1013.09 1227.56,1023.82 1231.54,1036.05C1237.23,1053.55 1241.54,1074.14 1245.86,1085.93C1246.41,1087.43 1245.78,1089.14 1244.45,1089.76C1243.13,1090.38 1241.6,1089.67 1241.05,1088.17C1236.71,1076.33 1232.37,1055.65 1226.65,1038.07C1223.24,1027.59 1219.4,1018.21 1214.65,1012.83C1214.23,1013.4 1213.67,1014.22 1213.3,1014.92C1211.61,1018.01 1209.86,1021.7 1208.58,1022.93C1207.72,1023.77 1206.83,1024.04 1206.09,1024.02C1204.66,1023.97 1203.53,1022.61 1203.57,1020.99C1203.61,1019.75 1204.32,1018.71 1205.3,1018.32ZM1206.02,1018.15L1206.01,1018.15L1206.05,1018.15L1206.02,1018.15ZM1206.13,1018.15L1206.25,1018.15C1206.21,1018.15 1206.17,1018.14 1206.13,1018.15Z"/>
    </g>
    <g transform="matrix(2.30555,0,0,2.0433,-366.705,-956.296)">
        <path d="M1194.12,1066.98C1194.33,1066.92 1194.56,1066.9 1194.79,1066.91C1195.96,1066.95 1196.45,1067.56 1196.54,1067.65C1197.14,1068.25 1197.35,1068.93 1197.4,1069.55C1197.46,1070.1 1197.38,1070.67 1197.11,1071.24C1197,1071.47 1196.59,1072.49 1195.25,1072.76C1194.79,1072.85 1189.72,1073.13 1187.46,1072.98C1186.05,1072.88 1185.17,1072.31 1184.92,1072.07C1184.3,1071.45 1183.32,1071.01 1182.26,1070.59C1180.15,1069.75 1177.75,1069.14 1176.16,1068.5C1174.92,1068 1174.03,1067.38 1173.56,1066.82C1172.94,1066.08 1172.68,1065.27 1172.66,1064.46C1172.63,1063.55 1172.88,1062.39 1174.06,1061.32C1174.88,1060.58 1176.74,1059.58 1180.16,1058.44C1192.1,1054.48 1205.47,1050.55 1216.47,1044.28C1217.75,1043.54 1219.32,1044.12 1219.97,1045.57C1220.62,1047.02 1220.1,1048.79 1218.82,1049.52C1207.55,1055.95 1193.86,1060.02 1181.63,1064.08L1181.43,1064.14L1181.69,1064.23C1183.91,1064.96 1186.17,1065.89 1187.69,1067.07L1194.12,1066.98ZM1194.42,1072.76L1194.46,1072.77L1194.35,1072.75L1194.42,1072.76ZM1193.75,1072.57C1193.91,1072.65 1194.11,1072.72 1194.34,1072.75C1194.14,1072.72 1193.94,1072.66 1193.75,1072.57Z"/>
    </g>
    <g transform="matrix(2.30555,0,0,2.0433,-366.705,-956.296)">
        <path d="M1055.7,1169.89C1056.76,1170.6 1056.84,1171.7 1056.64,1172.94C1056.39,1174.42 1055.8,1176.05 1055.14,1177.75C1053.97,1180.77 1052.57,1183.97 1051.86,1187C1051.29,1189.46 1051.16,1191.84 1051.7,1194C1053.49,1201.13 1057.22,1209.33 1060.46,1217.47C1063.47,1225.03 1066.1,1232.51 1065.9,1238.96C1065.85,1240.58 1066.97,1241.94 1068.41,1242C1069.84,1242.06 1071.05,1240.79 1071.1,1239.17C1071.28,1233.34 1069.54,1226.72 1067.07,1219.94C1063.64,1210.51 1058.8,1200.73 1056.71,1192.4C1056.21,1190.43 1056.87,1188.19 1057.67,1185.89C1058.7,1182.91 1060.11,1179.87 1060.99,1177.1C1062.63,1171.92 1062.43,1167.55 1058.35,1164.83C1057.11,1164.01 1055.52,1164.47 1054.79,1165.87C1054.05,1167.26 1054.46,1169.06 1055.7,1169.89Z"/>
    </g>
    <g transform="matrix(2.30555,0,0,2.0433,-366.705,-956.296)">
        <path d="M1031.68,1183.44L1031.96,1182.31C1033.27,1177.02 1037.88,1159.24 1047.37,1147.86C1054.1,1139.78 1063.17,1134.79 1075.09,1138.75C1080.61,1140.59 1083.93,1143.86 1085.75,1147.66C1088.47,1153.34 1087.74,1160.49 1085.48,1166.55C1095.71,1168.52 1108.38,1172.8 1117.22,1177.97C1123.14,1181.43 1127.34,1185.47 1128.61,1189.3C1131.08,1196.68 1129.78,1204.62 1126.2,1211.81C1121.1,1222.06 1111.32,1230.75 1102.3,1233.85C1096.82,1235.73 1091.59,1235.55 1087.62,1232.91C1083.62,1230.24 1080.68,1225.04 1080.24,1216.29C1080.16,1214.67 1081.26,1213.28 1082.69,1213.19C1084.13,1213.1 1085.36,1214.34 1085.44,1215.95C1085.75,1222.11 1087.45,1225.97 1090.27,1227.85C1093.11,1229.74 1096.86,1229.58 1100.78,1228.23C1108.67,1225.52 1117.2,1217.9 1121.67,1208.93C1124.46,1203.31 1125.67,1197.14 1123.74,1191.36C1122.93,1188.94 1120.31,1186.69 1116.86,1184.44C1107.99,1178.65 1093.63,1173.82 1082.86,1172.01C1082.29,1172.97 1081.67,1173.87 1081.04,1174.68C1078.99,1177.31 1076.73,1179.01 1074.78,1179.52C1072.87,1180.02 1071.15,1179.59 1069.74,1178.18C1067.69,1176.13 1066.62,1174.35 1066.21,1172.97C1065.7,1171.29 1065.91,1169.88 1066.56,1168.69C1067.08,1167.74 1067.96,1166.88 1069.3,1166.3C1070.54,1165.76 1072.31,1165.43 1074.47,1165.38C1076.12,1165.34 1078.04,1165.46 1080.14,1165.71C1081.12,1163.5 1081.86,1161.06 1082.18,1158.6C1082.55,1155.78 1082.35,1152.92 1081.17,1150.46C1079.9,1147.8 1077.48,1145.67 1073.62,1144.39C1061.42,1140.33 1052.96,1148 1047.23,1157.44C1041.1,1167.55 1037.99,1179.78 1036.97,1183.89C1036.68,1185.08 1036.46,1185.78 1036.4,1185.91C1035.67,1187.48 1034.5,1187.51 1034.07,1187.51C1032.63,1187.5 1031.47,1186.18 1031.48,1184.56C1031.48,1184.16 1031.55,1183.78 1031.68,1183.44ZM1032.45,1182.28L1032.45,1182.28L1032.45,1182.28L1032.45,1182.28ZM1032.56,1182.19L1032.55,1182.2L1032.63,1182.13L1032.56,1182.19ZM1033.81,1181.65C1033.45,1181.69 1033.04,1181.81 1032.63,1182.13C1032.98,1181.87 1033.38,1181.7 1033.81,1181.65ZM1033.9,1181.64L1033.84,1181.65L1033.94,1181.64L1033.9,1181.64ZM1076.74,1171.29C1075.57,1171.23 1074.5,1171.23 1073.56,1171.3C1072.76,1171.37 1072.07,1171.48 1071.5,1171.66C1071.86,1172.22 1072.48,1173.07 1073.19,1173.79C1073.41,1174.01 1073.68,1173.8 1073.99,1173.66C1074.89,1173.24 1075.82,1172.39 1076.74,1171.29Z"/>
    </g>
    <g transform="matrix(2.30555,0,0,2.0433,-366.705,-956.296)">
        <path d="M1130.34,1161.1C1130.08,1161.32 1129.57,1161.77 1129.25,1162.16C1128.63,1162.93 1128,1163.86 1127.34,1164.82C1125.79,1167.11 1124.13,1169.56 1122.33,1171.13C1120.7,1172.55 1118.93,1173.3 1117.08,1173.16C1115.65,1173.05 1114.56,1171.65 1114.66,1170.03C1114.76,1168.41 1116,1167.19 1117.43,1167.3C1118.58,1167.39 1119.47,1166.28 1120.43,1165.13C1121.94,1163.31 1123.32,1160.99 1124.66,1159.18C1127.64,1155.12 1130.78,1153.7 1133.67,1156.58C1139.82,1162.7 1142.19,1171.19 1142.82,1180.56C1143.4,1189.26 1142.49,1198.72 1142.13,1207.48C1141.75,1216.95 1141.84,1225.57 1146.2,1230.89C1149.01,1234.31 1153.59,1236.15 1160.75,1236.15C1164.1,1236.15 1169.72,1234.81 1174.46,1232.8C1177.38,1231.56 1179.98,1230.13 1181.3,1228.49C1182.27,1227.29 1183.91,1227.2 1184.98,1228.29C1186.04,1229.38 1186.12,1231.24 1185.15,1232.44C1183.42,1234.59 1180.11,1236.68 1176.29,1238.3C1170.92,1240.57 1164.54,1242.03 1160.75,1242.03C1151.64,1242.03 1145.95,1239.23 1142.39,1234.88C1137.19,1228.56 1136.48,1218.46 1136.93,1207.21C1137.28,1198.69 1138.2,1189.47 1137.63,1181.01C1137.11,1173.28 1135.36,1166.18 1130.34,1161.1Z"/>
    </g>
    <g transform="matrix(2.30555,0,0,2.0433,-366.705,-956.296)">
        <path d="M1196.53,1176.76C1200.19,1172.36 1204.09,1169.76 1208.03,1168.54C1213.2,1166.94 1218.56,1167.61 1223.8,1169.88C1231.2,1173.08 1238.39,1179.52 1244.4,1186.79C1251.34,1195.2 1256.69,1204.71 1259.03,1211.4C1260.23,1214.81 1260.63,1217.64 1260.37,1219.46C1260.14,1221.06 1258.8,1222.15 1257.38,1221.89C1255.96,1221.62 1255,1220.11 1255.23,1218.51C1255.47,1216.89 1254.57,1214.19 1253.13,1210.84C1250.59,1204.93 1246.12,1197.5 1240.59,1190.8C1236.02,1185.26 1230.73,1180.22 1225.19,1177.01C1220,1174.01 1214.6,1172.6 1209.41,1174.2C1205.32,1175.46 1201.43,1178.59 1197.86,1184.05C1198.51,1200 1191.34,1233.15 1189.14,1239.94C1189.16,1240.25 1189.28,1241.98 1189.2,1242.89C1189.08,1244.28 1188.61,1245.5 1187.63,1246.42C1186.87,1247.14 1185.69,1247.76 1183.76,1247.76C1181.78,1247.76 1180.3,1246.66 1179.33,1244.58C1178.73,1243.27 1178.35,1241.43 1178.23,1239.26C1177.79,1231.09 1180.88,1217.22 1181.23,1215.49C1184.2,1200.67 1188.11,1189.96 1192.54,1182.49C1192.45,1181.66 1192.33,1180.91 1192.16,1180.25C1192.06,1179.84 1191.94,1179.47 1191.79,1179.16C1191.75,1179.08 1191.67,1178.96 1191.63,1178.89C1190.25,1178.77 1189.18,1177.44 1189.23,1175.86C1189.28,1174.24 1190.49,1172.97 1191.92,1173.03C1193.43,1173.09 1194.68,1173.81 1195.67,1175.19C1195.99,1175.62 1196.28,1176.15 1196.53,1176.76ZM1192.21,1195.48C1189.99,1201.26 1188.01,1208.31 1186.3,1216.79C1185.98,1218.4 1183.02,1231.3 1183.43,1238.9C1183.47,1239.71 1183.56,1240.44 1183.7,1241.08C1183.76,1241.34 1183.9,1241.68 1183.98,1241.88L1183.99,1241.88L1184,1241.88L1183.94,1240.49C1183.9,1239.56 1183.99,1238.72 1184.21,1238.05C1185.83,1233.21 1190.63,1211.79 1192.21,1195.48Z"/>
    </g>
    <g transform="matrix(2.30555,0,0,2.0433,-366.705,-956.296)">
        <path d="M1188.32,1233.35L1188.95,1231.41C1189.36,1230.17 1189.92,1229.05 1190.69,1228.28C1206.64,1212.39 1228.85,1201.77 1248,1190.57C1249.27,1189.82 1250.85,1190.38 1251.51,1191.82C1252.17,1193.26 1251.67,1195.04 1250.39,1195.78C1231.61,1206.77 1209.79,1217.1 1194.14,1232.68C1193.79,1233.03 1193.75,1233.7 1193.59,1234.27C1193.3,1235.25 1192.98,1236.19 1192.57,1236.9C1191.74,1238.35 1190.58,1239.2 1188.87,1239.13C1187.43,1239.08 1186.31,1237.71 1186.36,1236.09C1186.4,1234.76 1187.23,1233.66 1188.32,1233.35Z"/>
    </g>
    <g transform="matrix(2.30555,0,0,2.0433,-366.705,-956.296)">
        <path d="M1272.08,1164.68C1271.72,1165.19 1271.26,1165.88 1270.93,1166.45C1269.92,1168.2 1268.82,1170.07 1267.6,1171.29C1266.35,1172.53 1264.97,1173.2 1263.48,1173.16C1262.04,1173.13 1260.9,1171.78 1260.93,1170.16C1260.97,1168.54 1262.16,1167.26 1263.6,1167.29C1263.85,1167.3 1264.01,1167.04 1264.21,1166.83C1264.59,1166.43 1264.94,1165.94 1265.28,1165.41C1266.45,1163.6 1267.51,1161.48 1268.54,1160.21C1269.6,1158.9 1270.77,1158.27 1271.86,1158.22C1272.79,1158.17 1273.78,1158.47 1274.76,1159.44C1280.77,1165.41 1287.5,1183.99 1290.8,1200.9C1293.04,1212.4 1293.63,1223.11 1291.79,1228.63C1291.28,1230.15 1289.78,1230.91 1288.43,1230.34C1287.09,1229.77 1286.41,1228.07 1286.92,1226.56C1288.54,1221.7 1287.69,1212.29 1285.71,1202.16C1283.86,1192.64 1280.91,1182.53 1277.63,1174.75C1275.82,1170.46 1273.94,1166.9 1272.08,1164.68Z"/>
    </g>
    <g transform="matrix(2.30555,0,0,2.0433,-366.705,-956.296)">
        <path d="M1303.64,1153.09C1306.46,1153.15 1309.03,1154.77 1311.46,1157.31C1314.23,1160.21 1316.76,1164.28 1319.11,1168.98C1326.51,1183.8 1331.91,1204.7 1335.65,1217.07C1336.11,1218.6 1337.59,1219.42 1338.95,1218.9C1340.31,1218.38 1341.04,1216.71 1340.57,1215.17C1336.11,1200.38 1329.21,1173.71 1319.57,1158.89C1314.93,1151.77 1309.57,1147.34 1303.74,1147.22C1302.31,1147.18 1301.12,1148.47 1301.09,1150.09C1301.06,1151.71 1302.2,1153.06 1303.64,1153.09Z"/>
    </g>
    <g transform="matrix(2.30555,0,0,2.0433,-366.705,-956.296)">
        <path d="M1286.77,1206.54C1295.57,1202.9 1305.41,1199.54 1314.33,1196.13C1315.69,1195.61 1317.17,1196.43 1317.63,1197.97C1318.09,1199.5 1317.36,1201.17 1316,1201.69C1304.02,1206.28 1290.34,1210.75 1279.85,1215.96C1279.6,1216.08 1278.91,1216.3 1277.95,1216.39C1276.42,1216.54 1273.98,1216.49 1272.45,1215.95C1270.75,1215.35 1269.83,1214.09 1269.58,1212.82C1269.36,1211.74 1269.47,1210.04 1271.3,1208.21C1272.14,1207.36 1273.66,1206.59 1275.48,1206.07C1277.71,1205.44 1280.85,1205.02 1282.58,1204.82C1282.91,1204.66 1283.28,1204.57 1283.67,1204.58C1285.16,1204.62 1285.8,1205.15 1285.88,1205.21C1286.36,1205.62 1286.62,1206.08 1286.77,1206.54Z"/>
    </g>
</svg>
