<?xml version="1.0" encoding="UTF-8" standalone="no"?>
<!DOCTYPE svg PUBLIC "-//W3C//DTD SVG 1.1//EN" "http://www.w3.org/Graphics/SVG/1.1/DTD/svg11.dtd">
<svg width="100%" height="100%" viewBox="0 0 3508 2481" version="1.1" xmlns="http://www.w3.org/2000/svg" xmlns:xlink="http://www.w3.org/1999/xlink" xml:space="preserve" xmlns:serif="http://www.serif.com/" style="fill-rule:evenodd;clip-rule:evenodd;stroke-linejoin:round;stroke-miterlimit:2;">
    <g transform="matrix(1.74351,0,0,1.68067,-2533.24,-803.585)">
        <path d="M2031.77,750.498C2032.19,748.956 2033.58,747.847 2035.2,747.902C2036.75,747.955 2037.59,748.756 2038.1,749.516C2038.64,750.334 2039.2,751.764 2038.22,753.606C2037.88,754.231 2036.89,755.417 2035.4,756.801C2031,760.875 2021.51,768.172 2020.88,768.675C2011.14,776.44 2003.83,790.646 1998.87,801.762C1981.6,840.514 1982.26,885.069 1993.34,925.488C2005.28,969.013 2038.63,997.004 2078.21,1009.57C2118.08,1022.24 2164.29,1019.3 2201.65,1000.69C2334.03,934.731 2243.39,730.614 2067.14,757.87C2065.26,758.16 2063.51,756.814 2063.23,754.865C2062.95,752.916 2064.25,751.098 2066.13,750.808C2251.05,722.211 2343.53,937.921 2204.63,1007.12C2126.63,1045.99 2011.83,1019.01 1986.72,927.441C1975.2,885.403 1974.66,839.07 1992.62,798.765C1998,786.708 2006.12,771.436 2016.68,763.015C2017.23,762.584 2024.4,757.073 2029.07,753.033C2030.07,752.161 2031.15,751.114 2031.77,750.498ZM2034.72,755.022L2034.77,755.025L2034.63,755.009L2034.72,755.022ZM2033.74,754.756C2033.99,754.875 2034.28,754.964 2034.61,755.007C2034.31,754.963 2034.01,754.878 2033.74,754.756Z"/>
    </g>
    <g transform="matrix(1.74351,0,0,1.68067,-2533.24,-803.585)">
        <path d="M2667.93,727.932C2668.04,727.456 2668.16,726.916 2668.26,726.535C2668.61,725.158 2669.21,723.962 2670.05,723.126C2671.49,721.687 2672.87,721.501 2673.86,721.623C2674.93,721.755 2675.91,722.274 2676.68,723.33C2677.36,724.254 2677.96,726.222 2677.98,728.775C2677.99,730.233 2677.86,731.932 2677.62,733.642C2678.78,735.264 2679.78,737.844 2680.48,741.213C2684.5,760.543 2680.28,809.959 2678.72,820.878C2671.54,870.898 2663.99,920.358 2655.67,970.11C2647,1021.93 2638.42,1071.71 2638.45,1124.38C2638.45,1127.21 2638.11,1129.18 2637.58,1130.49C2636.94,1132.09 2635.99,1133.06 2634.89,1133.66C2633.77,1134.26 2632.39,1134.5 2630.72,1134.18C2628.67,1133.8 2625.77,1132.36 2621.97,1130.47C2578.87,1109.04 2537.04,1085.12 2495.07,1061.54C2474.6,1050.04 2453.12,1040.16 2431.92,1030.1C2383.19,1006.96 2330.24,1003.01 2280.58,984.282C2278.79,983.609 2277.87,981.56 2278.52,979.708C2279.16,977.856 2281.14,976.899 2282.93,977.572C2332.76,996.361 2385.88,1000.39 2434.78,1023.61C2456.12,1033.74 2477.74,1043.69 2498.35,1055.26C2540.22,1078.78 2581.94,1102.65 2624.95,1124.03C2626.92,1125.01 2628.61,1125.88 2630.03,1126.5C2630.45,1126.68 2630.95,1126.84 2631.35,1126.96C2631.45,1126.29 2631.57,1125.3 2631.57,1124.38C2631.53,1071.3 2640.15,1021.12 2648.89,968.889C2657.2,919.194 2664.74,869.79 2671.91,819.827C2673.24,810.537 2676.61,772.589 2674.81,750.656C2674.62,748.371 2674.38,746.271 2674.08,744.414C2667.52,756.336 2658.03,766.7 2649.11,776.865C2626.27,802.878 2594.17,817.906 2564.78,834.942C2535.95,851.657 2424.15,904.451 2346.33,934.384C2312.48,947.4 2284.93,956.021 2273.09,955.815C2271.19,955.781 2269.67,954.155 2269.7,952.185C2269.74,950.215 2271.3,948.642 2273.2,948.676C2284.65,948.875 2311.21,940.272 2343.93,927.689C2421.41,897.889 2532.72,845.35 2561.43,828.709C2590.17,812.043 2621.68,797.505 2644.02,772.057C2653.22,761.578 2663.12,750.938 2669.4,738.396C2669.52,738.162 2669.63,737.873 2669.73,737.539C2667.51,737.054 2665.29,736.124 2664.41,735.355C2662.64,733.822 2662.64,732.019 2663.16,730.712C2663.45,729.971 2664.02,729.063 2665.35,728.477C2665.84,728.263 2666.67,728.038 2667.93,727.932Z"/>
    </g>
    <g transform="matrix(1.74351,0,0,1.68067,-2533.24,-803.585)">
        <path d="M2759.72,771.008C2760.38,770.589 2765.44,767.401 2771.26,763.399C2800.22,743.487 2870.16,693.098 2876.28,688.373C2877.81,687.198 2879.97,687.527 2881.1,689.108C2882.23,690.69 2881.91,692.928 2880.39,694.103C2873.47,699.437 2785.52,762.765 2766.24,775.298C2764.3,776.557 2762.97,777.342 2762.38,777.607C2761.53,777.987 2760.9,777.997 2760.59,777.983C2758.7,777.898 2757.22,776.23 2757.3,774.262C2757.37,772.717 2758.37,771.443 2759.72,771.008Z"/>
    </g>
    <g transform="matrix(1.74351,0,0,1.68067,-2533.24,-803.585)">
        <path d="M2803.65,899.918L2803.7,899.91C2806.03,899.421 2813.28,896.525 2823.67,892.106C2871.08,871.957 2982.18,820.176 2996.74,808.847C2998.26,807.665 3000.42,807.985 3001.55,809.561C3002.7,811.137 3002.39,813.377 3000.87,814.559C2986.17,825.991 2874.12,878.38 2826.28,898.713C2817.84,902.301 2811.38,904.897 2807.78,906.115C2805.65,906.835 2804.22,907.076 2803.64,907.053C2801.74,906.98 2800.26,905.322 2800.33,903.353C2800.39,901.469 2801.86,899.978 2803.65,899.918Z"/>
    </g>
    <g transform="matrix(1.74351,0,0,1.68067,-2533.24,-803.585)">
        <path d="M2743.37,1102.09C2766.02,1103.19 2883.38,1148.12 2914.77,1156.48C2916.61,1156.97 2918.49,1155.82 2918.96,1153.91C2919.43,1152 2918.32,1150.05 2916.48,1149.56C2884.84,1141.14 2766.51,1096.07 2743.69,1094.96C2741.8,1094.87 2740.18,1096.39 2740.09,1098.36C2740.01,1100.32 2741.47,1102 2743.37,1102.09Z"/>
    </g>
    <g transform="matrix(1.74351,0,0,1.68067,-2533.24,-803.585)">
        <path d="M2817.98,1024.65C2857.06,1026.11 2897.87,1008.85 2936.31,1001.65C2938.18,1001.3 2939.43,999.442 2939.09,997.502C2938.75,995.563 2936.96,994.273 2935.09,994.623C2897.12,1001.73 2856.83,1018.96 2818.23,1017.51C2816.33,1017.44 2814.73,1018.98 2814.67,1020.95C2814.6,1022.92 2816.08,1024.58 2817.98,1024.65Z"/>
    </g>
    <g transform="matrix(1.74351,0,0,1.68067,-2533.24,-803.585)">
        <path d="M2118.08,1054.28C2117.82,1053.76 2117.68,1053.17 2117.69,1052.55C2117.74,1050.58 2119.32,1049.02 2121.21,1049.06C2122.02,1049.08 2122.99,1049.34 2123.83,1050.38C2124.05,1050.64 2124.36,1051.1 2124.59,1051.83C2124.79,1052.47 2125.05,1053.9 2125.29,1056.05C2127.82,1078.52 2132.6,1194.5 2128.78,1270.84C2125.98,1326.87 2128.78,1383.73 2128.78,1439.87C2128.78,1441.15 2129.42,1445.4 2128.83,1447.82C2128.14,1450.61 2126.41,1452.08 2123.92,1452.01C2122.02,1451.97 2120.51,1450.33 2120.56,1448.36C2120.59,1447.13 2121.21,1446.07 2122.13,1445.45C2122.06,1444.06 2121.9,1440.66 2121.9,1439.87C2121.9,1383.6 2119.1,1326.62 2121.91,1270.46C2125.28,1202.95 2121.91,1104.26 2119.35,1067.46C2118.91,1061.09 2118.21,1055.35 2118.08,1054.28ZM2119.44,1055.74C2119.91,1056.03 2120.38,1056.15 2120.83,1056.19C2120.33,1056.14 2119.85,1055.99 2119.44,1055.74Z"/>
    </g>
    <g transform="matrix(1.74351,0,0,1.68067,-2533.24,-803.585)">
        <path d="M2347.85,1014.65L2347.93,1014.65C2348.03,1014.65 2348.13,1014.65 2348.23,1014.66C2351.08,1014.84 2351.29,1016.21 2350.63,1017.71C2350.7,1019.28 2350.22,1020.86 2350.2,1020.88C2350.2,1020.88 2349.64,1021.71 2347.97,1021.78C2343.02,1024.54 2338.76,1030.55 2335.03,1037.42C2328.74,1049.02 2324.16,1063.19 2321.54,1071.05C2302.09,1129.17 2277.99,1187.1 2261.11,1245.86C2257.74,1257.56 2249.5,1280.5 2249.5,1280.5C2249.14,1281.51 2248.36,1282.29 2247.38,1282.64C2246.4,1282.98 2245.32,1282.85 2244.45,1282.28C2244.45,1282.28 2235.29,1276.3 2230.41,1273.87C2211.79,1264.58 2175.86,1228.87 2151.02,1208.11C2144.86,1202.95 2139.4,1198.75 2135.11,1196.19C2132.82,1194.84 2131,1193.91 2129.65,1193.88C2127.76,1193.83 2126.25,1192.19 2126.3,1190.22C2126.34,1188.25 2127.92,1186.69 2129.82,1186.74C2131.93,1186.79 2134.93,1187.86 2138.53,1190C2143.06,1192.69 2148.83,1197.11 2155.34,1202.55C2179.79,1222.99 2215.05,1258.29 2233.39,1267.43C2236.49,1268.98 2241.24,1271.88 2244.5,1273.93C2247,1266.88 2252.06,1252.33 2254.51,1243.82C2271.43,1184.96 2295.55,1126.93 2315.03,1068.7C2317.76,1060.58 2322.52,1045.92 2329.03,1033.92C2333.69,1025.34 2339.33,1018.15 2345.58,1015.03C2345.77,1014.93 2346.09,1014.79 2346.54,1014.72C2346.71,1014.69 2347.11,1014.67 2347.44,1014.66C2347.55,1014.65 2347.66,1014.64 2347.77,1014.64L2347.85,1014.65ZM2347.44,1021.79L2347.49,1021.78L2347.45,1021.77L2347.44,1021.79Z"/>
    </g>
    <g transform="matrix(3.05592,0,0,2.66016,-5311.35,-1972.3)">
        <path d="M2114.8,1195.32C2113.99,1195.03 2113.41,1194.15 2113.43,1193.12C2113.45,1191.88 2114.36,1190.89 2115.44,1190.92C2118.14,1190.99 2119.55,1193.52 2118.24,1198.35C2115.19,1209.57 2097.14,1238.17 2092.39,1246.11C2080.57,1265.86 2061.39,1310.24 2045.62,1334.91C2041.43,1341.46 2037.45,1346.65 2033.91,1349.73C2031.19,1352.1 2028.64,1353.26 2026.42,1353.18C2025.34,1353.14 2024.48,1352.1 2024.52,1350.86C2024.55,1349.61 2025.46,1348.63 2026.54,1348.67C2028.05,1348.72 2029.7,1347.74 2031.54,1346.13C2034.85,1343.26 2038.53,1338.37 2042.45,1332.24C2058.21,1307.61 2077.35,1263.27 2089.15,1243.56C2093.23,1236.74 2107.36,1214.42 2112.83,1201.58C2113.7,1199.53 2114.35,1197.74 2114.66,1196.33C2114.73,1196 2114.77,1195.61 2114.8,1195.32Z"/>
    </g>
    <g transform="matrix(1.74351,0,0,1.68067,-2551.24,-803.585)">
        <path d="M2135.09,1451.99C2133.34,1451.79 2131.99,1450.23 2132.03,1448.36C2132.08,1446.39 2133.65,1444.83 2135.55,1444.88C2136.77,1444.9 2138.77,1445.66 2141.2,1447.62C2145.03,1450.72 2150.97,1457.13 2158.3,1465.96C2199.25,1515.28 2285.24,1640.97 2293.63,1668.21C2294.21,1670.09 2293.21,1672.1 2291.4,1672.7C2289.59,1673.3 2287.66,1672.26 2287.08,1670.38C2278.78,1643.46 2193.57,1519.37 2153.08,1470.62C2147.11,1463.42 2142.13,1457.89 2138.53,1454.61C2137.14,1453.34 2135.36,1452.16 2135.09,1451.99Z"/>
    </g>
    <g transform="matrix(1.74351,0,0,1.68067,-2551.24,-803.585)">
        <path d="M2130.41,1460.04C2130.57,1459.52 2130.75,1459.02 2130.94,1458.57C2132.35,1455.17 2134.63,1453.51 2136.86,1453.51C2138.29,1453.51 2139.25,1454.2 2139.87,1455.32C2140.14,1455.81 2140.62,1456.86 2140.14,1458.37C2139.88,1459.19 2137.95,1462.34 2136.39,1464.18C2135.43,1468.03 2134.92,1472.73 2134.46,1475.02C2121.51,1539.24 2107.19,1603.65 2091.22,1667.36C2078.55,1717.91 2065.84,1772.78 2063,1783.25C2062.52,1785 2062.05,1785.95 2061.92,1786.14C2060.96,1787.52 2059.78,1787.63 2059.12,1787.63C2057.46,1787.63 2056.27,1787.1 2055.38,1786.36C2054.14,1785.32 2053.36,1783.69 2053.28,1781.49C2053.21,1779.36 2053.9,1776.35 2054.48,1773.36C2054.86,1771.41 2055.34,1769.48 2054.82,1768.11C2054.13,1766.27 2055.01,1764.2 2056.78,1763.49C2058.14,1762.94 2059.63,1763.35 2060.56,1764.4C2065.98,1741.92 2075.28,1702.58 2084.56,1665.56C2100.5,1601.97 2114.8,1537.67 2127.72,1473.56C2128.14,1471.51 2128.62,1467.66 2129.38,1464.04C2129.23,1463.62 2129.15,1463.17 2129.16,1462.7C2129.19,1461.63 2129.67,1460.68 2130.41,1460.04Z"/>
    </g>
</svg>
