<?xml version="1.0" encoding="UTF-8" standalone="no"?>
<!DOCTYPE svg PUBLIC "-//W3C//DTD SVG 1.1//EN" "http://www.w3.org/Graphics/SVG/1.1/DTD/svg11.dtd">
<svg width="100%" height="100%" viewBox="0 0 3508 2481" version="1.1" xmlns="http://www.w3.org/2000/svg" xmlns:xlink="http://www.w3.org/1999/xlink" xml:space="preserve" xmlns:serif="http://www.serif.com/" style="fill-rule:evenodd;clip-rule:evenodd;stroke-linejoin:round;stroke-miterlimit:2;">
    <g transform="matrix(1.24588,0,0,1.13801,-492.17,-235.929)">
        <path d="M1214.29,786.804C1211.82,785.271 1191.78,772.853 1188,770.342C1166.21,755.871 1145.15,740.929 1118.13,758.869C1092.3,776.023 1066.78,806.236 1054.56,838.968C1042.72,870.676 1043.53,904.849 1069.97,931.157C1098.16,959.211 1131.54,964.204 1170.4,964.204C1218.6,964.204 1254.21,949.916 1275.91,929.604C1289.77,916.629 1297.84,901.255 1299.53,885.799C1301.63,866.762 1293.9,847.816 1276.07,833.506C1257.21,818.376 1227.42,808.462 1186.09,808.371C1183.43,808.365 1181.27,805.998 1181.28,803.088C1181.28,800.178 1183.45,797.82 1186.11,797.826C1239.1,797.943 1274.14,813.886 1292.76,835.593C1305.83,850.821 1311.09,868.958 1309.1,887.059C1307.14,904.841 1298.11,922.69 1282.17,937.617C1259.16,959.158 1221.51,974.749 1170.4,974.749C1128.97,974.749 1093.54,968.867 1063.49,938.96C1033.64,909.26 1032.27,870.773 1045.64,834.978C1058.62,800.208 1085.69,768.076 1113.14,749.853C1143.93,729.401 1168.15,744.829 1193,761.326C1197.1,764.054 1216.94,775.952 1220.03,778.289C1223.47,780.901 1222.28,784.678 1222.06,785.201C1221.59,786.332 1220.79,787.373 1219.35,787.957C1218.92,788.133 1218.34,788.303 1217.59,788.293C1216.31,788.275 1215.15,787.711 1214.29,786.804ZM1213.48,780.381C1214.32,778.788 1215.9,777.725 1217.7,777.749C1215.24,777.716 1214.08,779.085 1213.48,780.381Z"/>
    </g>
    <g transform="matrix(1.24588,0,0,0.900858,-492.17,-0.574918)">
        <path d="M1176.3,988.813C1177.17,986.944 1178.69,985.715 1180.41,985.74C1182.93,985.777 1184.17,987.685 1184.82,989.818C1185.13,990.82 1185.82,993.461 1184.24,996.524C1183.68,997.6 1180.79,1001.4 1177.59,1004.14C1175.25,1006.15 1172.73,1007.48 1170.8,1007.66C1170.64,1007.95 1170.32,1008.51 1170.15,1008.94C1169.55,1010.45 1169.08,1012.35 1168.67,1014.44C1166.85,1023.76 1166.53,1036.38 1166.53,1041.18C1166.53,1092.42 1172.29,1137.5 1172.29,1184.59C1172.29,1289.95 1177.8,1398.72 1160.65,1501.59C1158.06,1517.11 1159.73,1533.43 1160.98,1549.71C1162.37,1567.71 1163.29,1585.65 1159.1,1602.61C1158.24,1606.09 1155.5,1607.95 1152.99,1606.76C1150.47,1605.57 1149.13,1601.79 1149.99,1598.31C1153.72,1583.19 1152.64,1567.17 1151.41,1551.12C1150.03,1533.35 1148.44,1515.53 1151.26,1498.6C1168.25,1396.7 1162.66,1288.95 1162.66,1184.59C1162.66,1137.5 1156.9,1092.42 1156.9,1041.18C1156.9,1034.75 1157.54,1016.16 1160.67,1005.57C1162.8,998.365 1166.32,994.457 1170.21,994.371C1170.34,994.3 1171.45,993.691 1172.07,993.188C1173.6,991.955 1175.67,989.556 1176.3,988.813ZM1178.03,998.23C1178.62,998.7 1179.37,999.046 1180.31,999.06C1179.48,999.048 1178.7,998.748 1178.03,998.23Z"/>
    </g>
    <g transform="matrix(1.24588,0,0,1.13801,-492.17,-235.929)">
        <path d="M1144.41,1140.82C1144.13,1140.14 1143.98,1139.39 1143.99,1138.6C1144.03,1135.69 1146.22,1133.36 1148.88,1133.41C1152.17,1133.46 1153.71,1135.2 1154.51,1136.81C1155.24,1138.31 1155.56,1140.46 1154.56,1143.02C1153.25,1146.38 1147.61,1152.53 1145.56,1155.94C1130.26,1181.34 1120.88,1212.89 1111.51,1240.9C1094.94,1290.39 1079.13,1340.47 1062.56,1390.05C1054.77,1413.35 1050.14,1440.74 1039.23,1462.48C1037.54,1465.85 1032.96,1471.92 1032.96,1471.92C1031.4,1473.97 1028.69,1474.42 1026.65,1472.97C1024.6,1471.52 1023.87,1468.63 1024.93,1466.23C1024.93,1466.23 1026.9,1461.82 1028.26,1456.93C1029,1454.25 1029.68,1451.43 1029.34,1449.37C1028.87,1446.51 1030.62,1443.77 1033.23,1443.26C1034.43,1443.02 1035.6,1443.29 1036.56,1443.93C1043.38,1425.45 1047.42,1404.64 1053.51,1386.42C1070.09,1336.85 1085.9,1286.77 1102.46,1237.28C1112.08,1208.52 1121.82,1176.2 1137.52,1150.14C1138.57,1148.39 1140.55,1145.95 1142.45,1143.54C1143.07,1142.74 1143.8,1141.71 1144.41,1140.82Z"/>
    </g>
    <g transform="matrix(1.24588,0,0,1.13801,-492.17,-235.929)">
        <path d="M1257.77,959.321C1256.59,958.346 1255.84,956.793 1255.85,955.054C1255.88,952.145 1258.06,949.809 1260.72,949.841C1263.18,949.871 1264.65,950.807 1265.63,951.808C1266.85,953.054 1267.54,954.706 1267.62,956.764C1267.67,957.934 1267.31,959.455 1267.31,960.872C1267.31,980.435 1266.94,1001.77 1272.78,1019.3C1276.62,1030.82 1284.25,1042.05 1289.74,1052.98C1296.14,1065.74 1300.67,1083.91 1304.53,1103.59C1310.11,1132 1314.35,1163.64 1321.71,1185.65C1324.91,1195.2 1330.44,1214.57 1330.44,1214.57C1331.06,1216.74 1330.34,1219.09 1328.66,1220.42C1326.97,1221.75 1324.71,1221.75 1323.02,1220.42C1323.02,1220.42 1308.84,1209.2 1302.44,1202.83C1294.73,1195.15 1225.85,1160.1 1196.95,1146.29C1191.11,1143.5 1185.87,1141.27 1185.25,1141C1182.97,1140.56 1181.25,1138.36 1181.28,1135.74C1181.32,1132.83 1183.5,1130.5 1186.16,1130.54C1186.51,1130.54 1187.33,1130.63 1188.52,1131.07C1190.38,1131.76 1194.76,1133.74 1200.8,1136.63C1230.46,1150.8 1301.01,1187.15 1308.93,1195.03C1310.94,1197.04 1313.76,1199.55 1316.65,1202.01C1315.27,1197.4 1313.82,1192.7 1312.67,1189.27C1306.41,1170.56 1302.3,1145.04 1297.82,1120.26C1293.5,1096.36 1288.88,1073.17 1281.3,1058.06C1275.58,1046.67 1267.73,1034.91 1263.73,1022.91C1257.52,1004.29 1257.68,981.655 1257.68,960.872C1257.68,960.441 1257.72,959.876 1257.77,959.321Z"/>
    </g>
    <g transform="matrix(0.640906,0,0,0.556868,715.459,491.92)">
        <path d="M1991.55,968.863C1989.6,966.854 1988.39,963.921 1988.44,960.678C1988.52,954.733 1992.78,949.982 1997.95,950.077C2002.73,950.164 2005.61,952.098 2007.49,954.162C2009.93,956.832 2011.29,960.401 2011.23,964.933C2011.21,967.093 2010.76,969.709 2010.1,972.496C2009.67,974.3 2009,976.258 2009,978.093C2009,1028.23 1999.22,1076.68 1991.57,1126.26C1989.67,1138.52 1984.11,1194.35 1981.73,1205.37C1979.76,1214.48 1973.15,1215.45 1971.83,1215.42C1966.66,1215.32 1962.54,1210.41 1962.62,1204.47C1962.65,1202.77 1963.01,1201.17 1963.64,1199.75C1966.03,1188.01 1971.29,1134.37 1973.13,1122.49C1980.59,1074.16 1990.27,1026.96 1990.27,978.093C1990.27,975.391 1990.72,972.522 1991.35,969.737L1991.55,968.863ZM1969.08,1194.4L1969.01,1194.43L1969.22,1194.35L1969.08,1194.4ZM1970.62,1193.99C1970.24,1194.05 1969.87,1194.14 1969.49,1194.26L1969.8,1194.17C1969.95,1194.13 1970.1,1194.09 1970.25,1194.06L1970.62,1193.99ZM1970.93,1193.94L1970.77,1193.96L1971.1,1193.92L1970.93,1193.94ZM1971.54,1193.88L1971.36,1193.9L1971.61,1193.88L1971.54,1193.88Z"/>
    </g>
    <g transform="matrix(0.640906,0,0,0.556868,715.459,491.92)">
        <path d="M1865.2,987.91C1861.16,985.821 1858.11,983.395 1856.14,980.947C1853.29,977.398 1852.05,973.472 1852.06,969.44C1852.08,964.993 1853.89,962.351 1855.88,960.625C1857.62,959.125 1860.04,957.939 1863.31,958.582C1864.56,958.827 1867.76,960.351 1871.01,963.559C1872.78,965.306 1874.83,967.569 1876.56,969.578C1878.6,970.47 1880.87,971.348 1882.99,971.934C1908.71,979.03 1953.19,980.648 1963.71,978.901C1968.35,978.131 1972.4,976.165 1976.42,974.478C1982.06,972.117 1987.65,970.186 1993.87,970.186L2005.82,970.177C2006.06,970.156 2006.3,970.149 2006.55,970.154C2012.58,970.263 2014.42,974.647 2014.47,974.729C2015.86,977.006 2016.29,979.353 2016.16,981.622C2016.05,983.665 2015.48,985.814 2014,987.85C2013.54,988.491 2011.99,990.987 2008.11,991.612C2008.02,991.627 2007.48,991.713 2006.56,991.724C2004.72,991.746 1996.22,991.735 1993.87,991.735C1989.91,991.735 1986.41,993.225 1982.83,994.726C1977.64,996.901 1972.37,999.237 1966.38,1000.23C1955.94,1001.96 1915,1000.71 1886.42,994.675C1889.97,1011.64 1890.94,1029.14 1890.94,1046.93C1890.94,1087.26 1889.54,1126.17 1885.09,1165.9C1884.26,1173.39 1878.73,1197.76 1876.6,1214.74C1876.22,1217.73 1876.05,1221.48 1875.98,1223.66C1877.26,1225.46 1878.05,1227.75 1878.09,1230.26C1878.19,1236.2 1874.07,1241.12 1868.91,1241.23C1863.92,1241.34 1857.47,1237.14 1857.15,1225.12C1856.77,1210.55 1865.43,1172.88 1866.52,1163.15C1870.87,1124.34 1872.22,1086.33 1872.22,1046.93C1872.22,1026.69 1871,1006.85 1865.2,987.91ZM1872.49,1220.59C1871.3,1219.91 1869.95,1219.66 1868.55,1219.69C1869.95,1219.66 1871.28,1219.98 1872.49,1220.59ZM2000.82,989.575C2001.91,990.638 2003.63,991.653 2006.26,991.7C2004.22,991.664 2002.34,990.879 2000.82,989.575Z"/>
    </g>
    <g transform="matrix(0.640906,0,0,0.556868,715.459,491.92)">
        <path d="M1848.44,1212.55C1883.62,1213.48 1923.12,1196.46 1957.11,1186.4C1962.11,1184.92 1965.13,1179.04 1963.84,1173.28C1962.55,1167.52 1957.45,1164.05 1952.44,1165.53C1920.01,1175.13 1882.43,1191.89 1848.87,1191.01C1843.7,1190.87 1839.41,1195.59 1839.29,1201.53C1839.17,1207.48 1843.27,1212.41 1848.44,1212.55Z"/>
    </g>
    <g transform="matrix(1.24588,0,0,1.13801,-492.17,-235.929)">
        <path d="M1149.86,1487.36C1150.38,1485.02 1152.32,1483.29 1154.61,1483.33C1156.45,1483.36 1157.63,1484.26 1158.44,1485.4C1159.12,1486.35 1159.82,1487.88 1159.33,1490.1C1159.19,1490.71 1158.75,1491.9 1157.87,1493.32C1156.25,1495.92 1152.49,1500.8 1151.56,1502.64C1137.19,1531.22 1117.03,1557.05 1102.6,1585.81C1086.92,1617.07 1054.29,1694.5 1045.8,1709.63C1044.56,1711.83 1043.49,1713.1 1042.93,1713.56C1041.7,1714.57 1040.55,1714.74 1039.72,1714.72C1037.06,1714.66 1034.95,1712.25 1035,1709.34C1035.03,1707.69 1035.75,1706.24 1036.86,1705.29C1037.39,1704.35 1039.31,1700.92 1041.1,1697.22C1052.94,1672.68 1080.24,1608.49 1094.16,1580.74C1108.58,1551.97 1128.75,1526.13 1143.12,1497.55C1144.05,1495.7 1148.59,1489.19 1149.86,1487.36ZM1154.24,1493.86C1154.31,1493.87 1154.39,1493.87 1154.48,1493.87L1154.24,1493.86ZM1154.05,1493.85L1154.21,1493.86L1153.99,1493.84L1154.05,1493.85ZM1153.12,1493.64C1153.39,1493.73 1153.67,1493.8 1153.98,1493.84C1153.68,1493.8 1153.4,1493.73 1153.12,1493.64Z"/>
    </g>
    <g transform="matrix(1.24588,0,0,1.13801,-492.17,-235.929)">
        <path d="M1170.63,1476.52C1168.49,1475.96 1166.91,1473.83 1166.94,1471.32C1166.97,1468.41 1169.16,1466.08 1171.82,1466.12C1173.02,1466.14 1174.82,1466.67 1176.86,1468.41C1179.13,1470.35 1182.47,1474.35 1186.5,1479.88C1207.6,1508.89 1250.4,1582.68 1263.13,1596.78C1295.4,1632.5 1330.46,1662.91 1373.96,1684.6C1376.53,1685.88 1377.92,1686.12 1378.81,1686.63C1379.96,1687.29 1380.82,1688.12 1381.54,1689.43C1382.05,1690.34 1382.53,1691.69 1382.98,1694.02C1383.53,1696.87 1381.86,1699.67 1379.26,1700.27C1376.66,1700.87 1374.1,1699.05 1373.55,1696.2C1373.52,1696.03 1373.48,1695.84 1373.44,1695.67C1372.58,1695.36 1371.26,1694.84 1369.97,1694.19C1325.36,1671.96 1289.38,1640.82 1256.28,1604.19C1243.45,1589.99 1200.23,1515.69 1178.97,1486.45C1175.53,1481.73 1171.3,1477.22 1170.63,1476.52Z"/>
    </g>
    <g transform="matrix(1.06959,0,0,0.892412,-144.821,79.0459)">
        <path d="M1856.24,967.461C1853.58,966.876 1851.59,964.049 1851.65,960.707C1851.71,956.997 1854.28,954.049 1857.37,954.128C1858.51,954.157 1860.14,954.6 1862.06,955.929C1864.23,957.436 1867.4,960.506 1871.18,964.774C1890.72,986.849 1929.29,1042.75 1933.82,1052.14C1935.37,1055.35 1934.45,1059.46 1931.77,1061.32C1929.09,1063.18 1925.65,1062.08 1924.1,1058.87C1919.73,1049.8 1882.36,995.888 1863.48,974.559C1860.55,971.244 1856.87,968.011 1856.24,967.461Z"/>
    </g>
    <g transform="matrix(1.09695,0,0,0.847007,-195.643,122.674)">
        <path d="M1844.69,974.34C1843.73,973.034 1843.15,971.256 1843.18,969.312C1843.24,965.403 1845.74,962.293 1848.76,962.372C1852.21,962.462 1854.37,964.901 1855.32,969.029C1855.92,971.617 1855.47,977.501 1855.41,978.269C1855.41,1005.59 1856.31,1032.6 1852.43,1059.69C1841.99,1132.62 1831.88,1209.05 1826.59,1282.78C1825.71,1295.04 1826.66,1314.41 1825.86,1332.12C1825.27,1345.11 1823.68,1357.24 1820.23,1365.74C1819.58,1367.33 1818.62,1368.43 1817.37,1369.1C1816.49,1369.57 1813.44,1369.39 1813.44,1369.39C1813.44,1369.39 1813.91,1369.48 1814.11,1369.48C1811.09,1369.39 1808.7,1366.15 1808.76,1362.24C1808.81,1359.63 1809.94,1357.38 1811.58,1356.2C1813.67,1349.44 1814.52,1340.61 1814.94,1331.29C1815.75,1313.41 1814.81,1293.85 1815.7,1281.47C1821.02,1207.32 1831.17,1130.46 1841.67,1057.11C1845.43,1030.82 1844.47,1004.61 1844.47,978.093C1844.47,977.599 1844.6,975.71 1844.69,974.34ZM1848.31,976.523C1848.39,976.53 1848.46,976.535 1848.54,976.537L1848.31,976.523Z"/>
    </g>
    <g transform="matrix(1.09695,0,0,0.847007,-195.643,122.674)">
        <path d="M1910.73,1206.76C1909.73,1205.45 1909.12,1203.64 1909.15,1201.66C1909.2,1197.75 1911.69,1194.63 1914.71,1194.7C1917.37,1194.75 1918.92,1196.03 1919.94,1197.36C1921.2,1198.97 1921.9,1201.08 1921.95,1203.63C1921.98,1204.84 1921.64,1206.34 1921.63,1207.57C1921.62,1217.81 1916.75,1230.21 1909.67,1242.51C1900.23,1258.89 1887.06,1275.47 1880.08,1286.59C1862.65,1314.36 1843.33,1342.68 1828.6,1372.03C1827.74,1373.74 1827.51,1376.1 1827.23,1378.49C1826.78,1382.27 1826.44,1386.18 1825.69,1389.4C1824.74,1393.49 1823.12,1396.7 1820.76,1398.71C1819.05,1400.18 1816.9,1401.11 1814.11,1401.03C1811.09,1400.94 1808.7,1397.7 1808.76,1393.79C1808.83,1389.88 1811.34,1386.78 1814.36,1386.87C1814.74,1386.88 1814.88,1386.52 1815,1386.14C1815.29,1385.19 1815.48,1384.1 1815.64,1382.95C1816.56,1376.59 1817.02,1369.1 1819.43,1364.31C1834.36,1334.56 1853.92,1305.81 1871.59,1277.65C1878.5,1266.64 1891.56,1250.26 1900.9,1234.04C1906.34,1224.59 1910.68,1215.41 1910.7,1207.53C1910.7,1207.32 1910.71,1207.05 1910.73,1206.76Z"/>
    </g>
    <g transform="matrix(1.24588,0,0,1.13801,-492.17,-235.929)">
        <path d="M1793.13,1073.3C1793.5,1073.2 1793.89,1073.16 1794.29,1073.18C1798.61,1073.31 1798.96,1077.71 1798.98,1078.1C1799.06,1079.41 1798.82,1081.02 1797.32,1082.44C1797.22,1082.54 1796.45,1083.45 1794.71,1083.69C1794.33,1083.75 1791.31,1083.77 1789.82,1085.25C1777.49,1097.51 1769.08,1105.36 1762.24,1123.51C1749.68,1156.86 1745.5,1207.76 1766.48,1238.8C1768.06,1241.14 1767.61,1244.44 1765.47,1246.17C1763.33,1247.9 1760.31,1247.41 1758.73,1245.07C1735.88,1211.25 1739.65,1155.83 1753.33,1119.49C1760.82,1099.62 1769.85,1090.86 1783.34,1077.44C1786.08,1074.72 1791.62,1073.57 1793.13,1073.3ZM1789.76,1080.6C1790.24,1081.93 1791.33,1083.52 1793.75,1083.7C1791.96,1083.54 1790.46,1082.31 1789.76,1080.6ZM1790.19,1075.46C1789.77,1076.1 1789.54,1076.75 1789.44,1077.38C1789.57,1076.68 1789.83,1076.03 1790.19,1075.46Z"/>
    </g>
    <g transform="matrix(1.24588,0,0,1.13801,-492.17,-235.929)">
        <path d="M1738.98,1000.31C1739.9,999.214 1741.23,998.547 1742.7,998.604C1747.62,998.793 1748.28,1002.88 1748.33,1003.72C1748.41,1004.93 1748.27,1007.21 1745.84,1008.79C1745.17,1009.23 1742.81,1010.07 1739.92,1010.94C1737,1011.82 1733.29,1012.81 1731.69,1014C1725.09,1018.93 1718.63,1026.2 1713.69,1032.78C1698.31,1053.22 1689.14,1083.48 1684.77,1108.16C1669.99,1191.72 1690.2,1274.47 1729.48,1348.27C1730.82,1350.79 1730.04,1354.02 1727.74,1355.48C1725.45,1356.95 1722.5,1356.09 1721.16,1353.58C1680.69,1277.54 1660.08,1192.25 1675.32,1106.16C1679.96,1079.91 1689.9,1047.82 1706.25,1026.08C1711.74,1018.77 1718.94,1010.75 1726.27,1005.29C1728.76,1003.42 1735.12,1001.54 1738.98,1000.31Z"/>
    </g>
    <g transform="matrix(1.24588,0,0,1.13801,-492.17,-235.929)">
        <path d="M1694.69,906.471L1694.69,906.121C1694.81,903.214 1697.06,900.958 1699.72,901.087C1702.81,901.236 1704.31,902.643 1704.99,903.567C1706.29,905.332 1706.74,907.519 1705.46,910.098C1704.84,911.362 1702.72,913.519 1699.49,915.575C1694.44,918.785 1686.25,922.887 1682.42,925.299C1671.41,932.236 1667.43,943.471 1661.12,954.991C1642.32,989.298 1627.43,1026.03 1620.95,1064.8C1599.88,1190.97 1617.28,1329.25 1683.45,1439.82C1684.91,1442.25 1684.29,1445.52 1682.07,1447.12C1679.84,1448.71 1676.86,1448.03 1675.4,1445.6C1607.86,1332.76 1589.98,1191.66 1611.48,1062.9C1618.16,1022.89 1633.46,984.967 1652.86,949.567C1660.05,936.441 1665.07,924.063 1677.62,916.158C1681.46,913.739 1689.86,909.609 1694.69,906.471Z"/>
    </g>
</svg>
