<?xml version="1.0" encoding="UTF-8" standalone="no"?>
<!DOCTYPE svg PUBLIC "-//W3C//DTD SVG 1.1//EN" "http://www.w3.org/Graphics/SVG/1.1/DTD/svg11.dtd">
<svg width="100%" height="100%" viewBox="0 0 3508 2481" version="1.1" xmlns="http://www.w3.org/2000/svg" xmlns:xlink="http://www.w3.org/1999/xlink" xml:space="preserve" xmlns:serif="http://www.serif.com/" style="fill-rule:evenodd;clip-rule:evenodd;stroke-linejoin:round;stroke-miterlimit:2;">
    <g transform="matrix(1.17267,0.424945,-0.387039,1.08971,402.463,-532.606)">
        <path d="M1209.97,847.777C1209.27,845.564 1205.73,834.07 1205.98,828.545C1206.12,825.48 1207.12,823.125 1208.6,821.627C1209.88,820.328 1211.57,819.462 1213.87,819.462C1216.03,819.462 1218.45,820.763 1219.73,824.348C1220.42,826.278 1220.86,829.382 1221.08,832.56C1221.3,835.889 1221.44,840.592 1221.45,840.857C1225.04,858.731 1227.28,877.901 1227.29,896.32C1227.29,903.503 1233.49,950.106 1234.22,971.862C1234.36,976.092 1234.29,979.476 1233.99,981.632C1233.76,983.264 1233.36,984.468 1232.96,985.25C1232.12,986.889 1230.97,987.717 1229.88,988.129C1228.5,988.65 1226.92,988.685 1225.21,987.547C1224.52,987.089 1223.62,986.255 1222.73,984.786C1221.75,983.162 1220.44,980.202 1218.87,975.599C1217.95,972.919 1219.23,969.925 1221.72,968.917C1222.6,968.561 1223.52,968.501 1224.37,968.692C1224.32,966.922 1224.23,965.088 1224.11,963.291C1222.42,939.502 1217.67,902.728 1217.66,896.391C1217.66,881.937 1216.21,867.002 1213.81,852.661C1211.66,852.202 1210.04,850.197 1209.97,847.777ZM1212.08,843.261C1211.82,843.457 1211.58,843.686 1211.36,843.951C1211.58,843.707 1211.82,843.487 1212.09,843.294L1212.08,843.261Z"/>
    </g>
    <g transform="matrix(1.17267,0.424945,-0.387039,1.08971,402.463,-532.606)">
        <path d="M1208.96,775.32C1241.39,775.699 1273.07,760.021 1304.22,752.264C1338.17,743.809 1440.92,721.107 1514.51,715.725C1545.12,713.487 1570.54,714.039 1583.26,720.382C1585.07,721.284 1586.43,723.994 1588,727.643C1591.17,735.013 1593.95,746.03 1596.46,759.092C1606.57,811.654 1611.88,896.409 1615.11,917.328C1615.12,917.413 1621.09,952.611 1621.11,952.692C1625.01,964.051 1634.56,979.549 1643.93,994.789C1652.77,1009.18 1661.48,1023.3 1664.27,1033.18C1664.73,1034.82 1665.02,1036.31 1665.03,1037.61C1665.03,1038.24 1665.01,1038.79 1664.76,1039.22C1664.49,1039.67 1663.96,1039.83 1663.31,1040C1662.29,1040.28 1661.04,1040.36 1659.57,1040.3C1656.91,1040.18 1654.66,1042.42 1654.54,1045.28C1654.42,1048.14 1656.48,1050.55 1659.13,1050.66C1666.55,1050.97 1670.73,1048.35 1672.85,1044.78C1674.88,1041.35 1675.23,1036.31 1673.48,1030.1C1670.5,1019.55 1661.39,1004.37 1651.96,989.016C1643.04,974.516 1633.85,959.842 1630.14,949.033C1630.11,948.957 1624.61,915.64 1624.6,915.56C1621.36,894.587 1616.02,809.619 1605.88,756.922C1602.71,740.446 1599.01,727.028 1594.86,719.316C1592.54,715.002 1589.92,712.243 1587.34,710.957C1573.75,704.18 1546.62,702.98 1513.92,705.372C1439.8,710.792 1336.31,733.638 1302.11,742.153C1271.69,749.73 1240.8,765.314 1209.12,764.944C1206.47,764.912 1204.28,767.212 1204.23,770.076C1204.18,772.939 1206.3,775.289 1208.96,775.32Z"/>
    </g>
    <g transform="matrix(1.17267,0.424945,-0.387039,1.08971,402.463,-532.606)">
        <path d="M1243.38,1024.85C1274.96,1025.2 1315.73,1008.56 1347.27,1001.83C1439.5,982.153 1550.74,968.009 1644.07,987.474C1646.67,988.017 1649.2,986.175 1649.73,983.363C1650.25,980.551 1648.55,977.828 1645.95,977.285C1551.47,957.578 1438.83,971.729 1345.46,991.653C1314.51,998.259 1274.53,1014.81 1243.54,1014.48C1240.88,1014.45 1238.69,1016.75 1238.65,1019.61C1238.61,1022.48 1240.73,1024.83 1243.38,1024.85Z"/>
    </g>
    <g transform="matrix(1.17267,0.424945,-0.387039,1.08971,402.463,-532.606)">
        <path d="M1244.04,1041.46C1242.51,1040.58 1241.49,1038.83 1241.52,1036.82C1241.56,1033.96 1243.75,1031.66 1246.41,1031.69C1250.26,1031.73 1252.46,1034.08 1253.38,1037.68C1254.07,1040.41 1253.65,1044.32 1253.02,1046.83C1244.13,1082.11 1233.64,1117.75 1224.19,1153.04C1212.55,1196.54 1200.1,1239.97 1192.65,1284.45C1192.2,1287.16 1191.85,1293.84 1190.26,1297.6C1188.7,1301.27 1186.14,1303.11 1183.14,1303.07C1180.49,1303.04 1178.37,1300.69 1178.42,1297.82C1178.45,1295.62 1179.76,1293.76 1181.56,1293.03C1181.8,1292.19 1182.24,1290.53 1182.4,1289.38C1182.78,1286.73 1182.95,1284.1 1183.19,1282.67C1190.69,1237.84 1203.21,1194.06 1214.95,1150.22C1224.38,1114.99 1234.86,1079.4 1243.74,1044.17C1243.89,1043.55 1243.99,1042.33 1244.04,1041.46Z"/>
    </g>
    <g transform="matrix(1.17267,0.424945,-0.387039,1.08971,402.463,-532.606)">
        <path d="M1792.77,1248.7C1790.8,1247.5 1787.57,1245.46 1786.47,1244.37C1780.72,1238.63 1774.09,1233.03 1768.91,1226.83C1752.83,1207.62 1736.08,1187.2 1722.47,1166.09C1706.32,1141.03 1683.76,1088.02 1658.75,1049.12C1649.09,1034.08 1639.09,1021.18 1628.91,1013.1C1622.73,1008.2 1616.54,1005.1 1610.32,1004.77C1607.67,1004.63 1605.64,1002.19 1605.79,999.331C1605.93,996.471 1608.21,994.264 1610.86,994.406C1625.18,995.174 1639.83,1006.87 1653.71,1024.71C1683.81,1063.36 1711.48,1130.8 1730.38,1160.13C1743.77,1180.89 1760.26,1200.95 1776.07,1219.85C1781.07,1225.83 1787.48,1231.19 1793.03,1236.73C1794.28,1237.98 1797.78,1239.66 1799.38,1240.76C1800.61,1241.61 1801.35,1242.49 1801.68,1243.02C1802.43,1244.24 1802.57,1245.42 1802.51,1246.37C1802.43,1247.58 1802.02,1248.68 1801.2,1249.64C1800.67,1250.25 1799.46,1251.51 1796.88,1251.44C1795.09,1251.4 1793.55,1250.3 1792.77,1248.7ZM1796.81,1241.07L1796.85,1241.07L1796.83,1241.07L1796.81,1241.07Z"/>
    </g>
    <g transform="matrix(1.17267,0.424945,-0.387039,1.08971,402.463,-532.606)">
        <path d="M1218.72,1273.4C1218.62,1272.96 1218.56,1272.49 1218.57,1272.01C1218.62,1269.15 1220.81,1266.85 1223.46,1266.88C1228.04,1266.93 1229.28,1269.71 1229.67,1271.56C1229.75,1271.92 1229.79,1272.34 1229.77,1272.81C1238.91,1268.48 1252.42,1266.9 1262.86,1266.9C1293.76,1266.9 1326.53,1256.69 1357.34,1252.6C1459.38,1239.05 1559.12,1224.3 1662.23,1223.86C1664.88,1223.85 1667.03,1226.16 1667.03,1229.02C1667.02,1231.89 1664.86,1234.22 1662.21,1234.23C1559.48,1234.68 1460.11,1249.4 1358.45,1262.9C1327.27,1267.04 1294.08,1277.28 1262.8,1277.28C1253.4,1277.28 1241.16,1278.52 1233.12,1282.53C1230.25,1283.97 1224.79,1287.05 1221.81,1287.33C1219.38,1287.55 1217.59,1286.65 1216.43,1285.35C1215.51,1284.3 1214.79,1282.85 1214.78,1280.75C1214.78,1279.69 1215.06,1278.36 1215.85,1276.97C1216.44,1275.94 1217.62,1274.65 1218.72,1273.4Z"/>
    </g>
    <g transform="matrix(1.17267,0.424945,-0.387039,1.08971,402.463,-532.606)">
        <path d="M1307.29,1066.14C1307.54,1065.9 1307.79,1065.66 1308.05,1065.43C1315.75,1058.49 1326.79,1054.68 1340.41,1054.66C1340.6,1054.57 1342.37,1053.72 1343.36,1053.08C1345.44,1051.73 1347.48,1050.25 1348.8,1049.59C1351.94,1048.04 1354.26,1049.22 1355.33,1050.29C1356.11,1051.08 1356.82,1052.19 1357.24,1053.73C1357.67,1055.32 1357.82,1057.77 1357.54,1060.82C1356.42,1073.26 1348.24,1099.66 1348.22,1105.72C1348.21,1107.02 1347.75,1109.72 1344.58,1110.95C1342.19,1111.88 1331.17,1112.74 1327.82,1113.46C1322.01,1116.36 1315.83,1119.57 1309.35,1119.51C1306.7,1119.48 1304.58,1117.13 1304.62,1114.27C1304.66,1111.41 1306.85,1109.1 1309.5,1109.13C1314.68,1109.18 1319.5,1106.2 1324.13,1103.89C1324.77,1103.58 1326.78,1103.08 1329.43,1102.75C1332.13,1102.42 1336.5,1101.84 1339.14,1101.49C1340.71,1092.9 1345.34,1076.21 1347.3,1064.74C1347.43,1063.98 1347.54,1063.17 1347.62,1062.38C1346.9,1062.83 1346.2,1063.24 1345.61,1063.54C1343.73,1064.52 1341.93,1065.03 1340.51,1065.03C1329.11,1065.03 1319.84,1067.92 1313.62,1073.9C1313.65,1074.83 1313.58,1075.85 1313.39,1076.93C1312.35,1082.72 1307.67,1091.59 1305.05,1095.79C1305.04,1096.23 1305.03,1096.66 1305.03,1097.11C1305.02,1099.66 1304.16,1103.36 1302.54,1105.4C1301.19,1107.09 1299.43,1108.06 1297.31,1108.06C1295.81,1108.06 1294.61,1107.44 1293.67,1106.29C1293.13,1105.62 1292.33,1104.36 1292.46,1102.29C1292.55,1100.9 1294.76,1094.82 1295.58,1092.77C1296.18,1084.88 1298.37,1078.17 1301.91,1072.66C1301.8,1072.21 1301.74,1071.74 1301.75,1071.25C1301.79,1068.38 1303.98,1066.08 1306.63,1066.11C1306.86,1066.11 1307.07,1066.12 1307.29,1066.14Z"/>
    </g>
    <g transform="matrix(1.17267,0.424945,-0.387039,1.08971,402.463,-532.606)">
        <path d="M1409.11,1055.01C1409.58,1054.28 1410.08,1053.59 1410.62,1052.94C1415.74,1046.66 1423.82,1043.84 1432.61,1043.7C1446.15,1043.48 1461.23,1049.63 1467.64,1056.04C1468.39,1056.79 1469.33,1058.34 1469.57,1060.71C1469.87,1063.7 1469.17,1069.82 1469.17,1071.29C1469.17,1086.26 1461.67,1094.23 1450.89,1098.37C1441.56,1101.95 1429.47,1102.39 1418.35,1102.3C1415.7,1102.27 1413.57,1099.93 1413.61,1097.07C1413.65,1094.2 1415.83,1091.9 1418.49,1091.92C1428.46,1092 1439.34,1091.82 1447.71,1088.6C1454.62,1085.95 1459.55,1080.94 1459.55,1071.36C1459.55,1070.29 1459.85,1064.71 1459.96,1062.66C1454.29,1057.91 1442.9,1053.91 1432.69,1054.07C1426.81,1054.17 1421.25,1055.58 1417.81,1059.78C1416.28,1061.65 1415.24,1064.08 1414.76,1067.11C1414.9,1068.96 1414.96,1070.97 1414.9,1073.08C1414.67,1082.76 1412.42,1094.29 1409.74,1098.55C1408,1101.32 1405.79,1102.32 1403.85,1102.32C1402.56,1102.32 1401.45,1101.84 1400.53,1100.88C1399.98,1100.31 1399.35,1099.44 1399.13,1098.03C1399.1,1097.84 1398.9,1096.75 1399.44,1095.04C1400.22,1092.55 1404.83,1079.72 1404.83,1071.35C1404.83,1070.03 1404.88,1068.77 1405,1067.56C1404.85,1066.18 1404.68,1065.02 1404.58,1064.35C1403.1,1063.46 1402.11,1061.74 1402.14,1059.78C1402.17,1056.92 1404.36,1054.61 1407.02,1054.63C1407.73,1054.64 1408.43,1054.76 1409.11,1055.01Z"/>
    </g>
    <g transform="matrix(1.17267,0.424945,-0.387039,1.08971,402.463,-532.606)">
        <path d="M1541.09,1054.04C1541.13,1056.48 1541.15,1059.43 1541.15,1062.69C1541.15,1066.7 1540.56,1069.06 1540.03,1070.16C1538.85,1072.62 1537.11,1073.33 1535.6,1073.46C1534.18,1073.59 1532.06,1073.13 1530.38,1070.58C1528.44,1067.64 1525.74,1057.83 1525.77,1048.39C1525.78,1046.12 1526.52,1044.5 1527.52,1043.32C1528.79,1041.81 1530.78,1040.8 1533.47,1040.89C1537.58,1041.03 1545.12,1044.89 1549.32,1046.29C1562.75,1050.75 1575.67,1054.13 1590.39,1054.61C1590.73,1054.51 1591.09,1054.44 1591.48,1054.4C1593.18,1054.24 1595.45,1054.78 1595.93,1055C1597.29,1055.6 1597.89,1056.54 1598.18,1057.03C1599.27,1058.88 1599.15,1060.64 1598.35,1062.26C1598.12,1062.71 1597.17,1065.04 1593.9,1065.04L1593.23,1065.04C1592.25,1066.55 1591.24,1068.73 1590.2,1071.09C1587.64,1076.88 1585.26,1083.8 1584.06,1087.4C1582.61,1091.73 1580.41,1096.16 1578.56,1100.61C1577.04,1104.24 1575.72,1107.86 1575.7,1111.47C1575.69,1115.29 1573.69,1117.75 1570,1118.58C1566.61,1119.34 1560.46,1117.76 1557.32,1116.19C1550.87,1112.97 1544.98,1115.24 1539.26,1117.04C1534.12,1118.66 1529.06,1120.08 1523.98,1119.47C1521.35,1119.16 1519.46,1116.59 1519.77,1113.74C1520.08,1110.9 1522.47,1108.84 1525.11,1109.16C1530.1,1109.76 1535,1107.5 1540.12,1106.01C1546.88,1104.03 1553.87,1103.01 1561.41,1106.77C1562.43,1107.28 1564.71,1107.79 1566.33,1108.1C1566.85,1104.21 1568.16,1100.3 1569.78,1096.41C1571.54,1092.2 1573.64,1088.03 1575.01,1083.93C1576.44,1079.65 1579.45,1070.99 1582.52,1064.5C1569.92,1063.29 1558.36,1060.17 1546.44,1056.21C1544.98,1055.72 1543.09,1054.9 1541.09,1054.04Z"/>
    </g>
    <g transform="matrix(1.17267,0.424945,-0.387039,1.08971,402.463,-532.606)">
        <path d="M1548.52,1139.4L1548.68,1139.54C1549.81,1140.54 1551.28,1142.45 1552.77,1144.91C1556.04,1150.3 1559.83,1158.58 1561.21,1162.33C1561.89,1164.18 1562.06,1165.55 1562.06,1166.05C1562.03,1168.21 1561.05,1169.41 1560.29,1170.09C1559.45,1170.85 1558.44,1171.3 1557.24,1171.32C1556.51,1171.33 1555.18,1171.26 1553.78,1169.87C1553.12,1169.22 1550.83,1165.63 1546.49,1157C1545.26,1154.55 1540.24,1147.31 1539.07,1141.42C1538.21,1137.13 1539.02,1133.33 1541.74,1130.63C1546.38,1126.01 1553.73,1123.07 1561.92,1121.14C1572.66,1118.6 1584.88,1117.68 1592.55,1115.13C1593.65,1114.76 1595.09,1113.28 1596.73,1111.71C1600.28,1108.32 1604.13,1104.09 1606.47,1102.28C1610.13,1099.43 1613.25,1100.7 1614.48,1101.92C1617.13,1104.56 1619.34,1109.57 1621.1,1115.36C1623.19,1122.26 1624.75,1130.39 1626.97,1134.8C1631.68,1144.19 1634.17,1151.61 1634.93,1157.41C1635.88,1164.66 1634.31,1169.87 1631.19,1173.69C1627.8,1177.85 1622.15,1180.44 1614.68,1181.66C1605.33,1183.18 1592.79,1182.74 1578.96,1182.61C1576.31,1182.58 1574.19,1180.23 1574.23,1177.37C1574.27,1174.51 1576.46,1172.2 1579.12,1172.23C1592.35,1172.36 1604.36,1172.85 1613.31,1171.4C1618.05,1170.63 1621.83,1169.51 1623.99,1166.86C1625.49,1165.02 1625.86,1162.42 1625.4,1158.93C1624.76,1154 1622.5,1147.76 1618.5,1139.79C1616.09,1134.98 1614.23,1126.17 1611.95,1118.64C1611.3,1116.49 1610.66,1114.45 1609.92,1112.76C1608.69,1113.93 1607.2,1115.36 1605.99,1116.59C1602.14,1120.49 1597.91,1124.19 1595.33,1125.04C1587.46,1127.66 1574.94,1128.67 1563.92,1131.27C1557.7,1132.74 1551.97,1134.62 1548.38,1138.09C1548.38,1138.28 1548.39,1138.67 1548.43,1138.92C1548.45,1139.08 1548.49,1139.24 1548.52,1139.4Z"/>
    </g>
    <g transform="matrix(1.17267,0.424945,-0.387039,1.08971,402.463,-532.606)">
        <path d="M1466.67,1122.21C1466.78,1121.93 1467.16,1120.89 1467.36,1120.34C1467.71,1119.38 1468.1,1118.51 1468.55,1117.81C1469.91,1115.68 1471.73,1114.51 1474.28,1114.62C1475.87,1114.69 1478.45,1115.57 1482.03,1119.13C1493.2,1130.26 1499.75,1139.85 1502.7,1147.85C1505.01,1154.12 1505.25,1159.63 1503.97,1164.39C1502.09,1171.4 1496.8,1177.06 1488.57,1181.01C1478.05,1186.04 1462.37,1188.41 1444.18,1188.34C1442.28,1188.34 1440.65,1187.13 1439.88,1185.4C1439.34,1186.61 1438.38,1187.59 1437.13,1188.07C1434.9,1188.92 1432.44,1187.9 1431.32,1185.67C1431.32,1185.67 1427.48,1178.02 1425.56,1174.2C1422.06,1167.23 1420.6,1161.89 1420.46,1157.7C1419.82,1157.16 1419.14,1156.8 1418.35,1156.79C1415.7,1156.77 1413.57,1154.43 1413.61,1151.56C1413.65,1148.7 1415.83,1146.39 1418.49,1146.41C1420.27,1146.43 1421.98,1146.88 1423.6,1147.7C1425.61,1145.16 1428.56,1143.12 1432.32,1141.35C1440.85,1137.35 1454.44,1134.34 1466.67,1122.21ZM1475.25,1126.56C1474.69,1127.74 1474.01,1128.98 1473.37,1129.62C1460.07,1142.92 1445.4,1146.51 1436.11,1150.86C1433.76,1151.97 1431.75,1152.87 1430.74,1154.51C1430.97,1154.87 1431.2,1155.23 1431.43,1155.61C1436.39,1163.79 1439.16,1176.38 1440,1180.71C1440.83,1179.07 1442.44,1177.96 1444.28,1177.96C1460.84,1178.03 1475.14,1176.11 1484.71,1171.53C1489.86,1169.06 1493.56,1165.95 1494.73,1161.57C1495.72,1157.88 1494.86,1153.55 1492.31,1148.39C1489.21,1142.13 1483.71,1134.97 1475.48,1126.78L1475.25,1126.56Z"/>
    </g>
    <g transform="matrix(1.17267,0.424945,-0.387039,1.08971,402.463,-532.606)">
        <path d="M1311.95,1167.82C1312.16,1172.71 1311.52,1177.99 1310.61,1181.63C1309.24,1187.08 1307.42,1191.26 1305.47,1193.79C1303.31,1196.59 1300.82,1197.83 1298.34,1197.89C1295.15,1197.97 1290.96,1195.73 1287.35,1188.54C1282.9,1179.69 1280.97,1168.1 1281.01,1157.37C1281.01,1157.36 1281.6,1152.18 1286.09,1152.17C1287.35,1152.17 1293.16,1152.17 1294.31,1152.17C1295.76,1152.17 1296.51,1152.65 1296.51,1152.65C1296.95,1152.87 1297.4,1153.08 1297.84,1153.29C1298.68,1152.57 1299.75,1152.14 1300.9,1152.15C1304.53,1152.19 1307.28,1153.93 1309.13,1156.9C1312.71,1157.59 1316.45,1157.91 1320.43,1157.91C1323.02,1157.91 1335.71,1156.33 1347.9,1153.22C1349.04,1146.4 1351.46,1140.72 1355.56,1137C1358.84,1134.01 1363.24,1132.13 1369.18,1132.1C1369.5,1132.04 1371,1131.77 1371.71,1131.8C1373.15,1131.88 1374.41,1132.42 1375.46,1133.46C1378.8,1136.77 1379.94,1140.09 1379.91,1143.03C1379.87,1147.17 1377.26,1151.39 1372.13,1154.72C1368.25,1157.25 1362.74,1159.44 1356.74,1161.28C1356.3,1170.18 1357.37,1180.32 1357.81,1189.03C1358.2,1196.73 1358.04,1203.46 1356.56,1207.86C1354.51,1213.95 1348.14,1218.63 1339.23,1221.34C1322.26,1226.51 1295.76,1225.72 1286.41,1225.63C1283.75,1225.6 1281.63,1223.26 1281.67,1220.39C1281.71,1217.53 1283.9,1215.23 1286.56,1215.25C1295.43,1215.34 1320.58,1216.26 1336.67,1211.36C1339.7,1210.44 1342.38,1209.32 1344.46,1207.88C1345.89,1206.89 1347.04,1205.81 1347.52,1204.38C1348.67,1200.95 1348.51,1195.68 1348.2,1189.66C1347.8,1181.6 1346.93,1172.37 1347.05,1163.88C1334.8,1166.78 1322.97,1168.29 1320.37,1168.29C1317.46,1168.29 1314.66,1168.13 1311.95,1167.82ZM1290.78,1162.55C1291.24,1169.99 1292.79,1177.53 1295.81,1183.55C1296.51,1184.93 1297.5,1186.23 1298.1,1186.97C1298.64,1186.12 1299.53,1184.64 1300.04,1183.25C1300.5,1181.97 1300.93,1180.55 1301.32,1178.98C1302.13,1175.76 1302.71,1170.84 1302.24,1166.71C1302.2,1166.43 1302.16,1166.14 1302.12,1165.86C1299.14,1165 1296.25,1163.9 1293.41,1162.55L1290.78,1162.55ZM1370.01,1142.41C1369.74,1142.45 1369.48,1142.47 1369.28,1142.47C1366.01,1142.47 1363.53,1143.28 1361.73,1144.91C1360.29,1146.22 1359.29,1147.95 1358.57,1149.97C1361.89,1148.73 1364.88,1147.36 1367.21,1145.84C1368.7,1144.87 1369.99,1144.1 1370.3,1142.93C1370.34,1142.75 1370.14,1142.63 1370.02,1142.43L1370.01,1142.41Z"/>
    </g>
    <g transform="matrix(1.17267,0.424945,-0.387039,1.08971,402.463,-532.606)">
        <path d="M1293.36,932.13C1293.13,931.085 1292.91,930.112 1292.71,929.291C1288.93,914.241 1287.32,889.66 1281.42,872.357C1278.24,863.037 1274.1,855.711 1266.33,855.63C1263.67,855.602 1261.55,853.255 1261.6,850.392C1261.64,847.528 1263.83,845.226 1266.48,845.253C1278.1,845.374 1285.69,854.777 1290.45,868.718C1296.45,886.291 1298.16,911.236 1301.99,926.52C1302.52,928.599 1303.13,931.596 1303.66,934.345L1303.85,934.963C1304.76,938.141 1305.02,941.832 1305.02,941.832C1305.2,944.575 1303.37,947.013 1300.84,947.387C1298.31,947.761 1295.96,945.941 1295.49,943.24C1295.49,943.24 1295,940.422 1294.36,937.119C1294.34,937.07 1294.3,937.024 1294.27,936.982C1293.18,935.593 1292.9,933.758 1293.36,932.13Z"/>
    </g>
    <g transform="matrix(1.17267,0.424945,-0.387039,1.08971,402.463,-532.606)">
        <path d="M1511.45,747.87C1511.33,748.013 1511.22,748.13 1511.13,748.218C1504.33,755.011 1494.69,760.262 1484.15,764.825C1469.4,771.208 1452.83,776.285 1440.75,783.321C1410.24,801.093 1291.04,832.821 1277.8,832.684C1275.15,832.657 1273.03,830.31 1273.07,827.446C1273.11,824.583 1275.3,822.28 1277.95,822.308C1290.82,822.44 1406.58,791.463 1436.22,774.197C1446.58,768.161 1460.14,763.471 1473.16,758.283C1485.31,753.441 1497,748.228 1504.62,740.623C1505.59,739.655 1508.55,735.376 1511.22,733.867C1514.18,732.191 1517.04,732.373 1519.47,734.8C1521.2,736.528 1520.97,741.856 1520.97,741.856C1520.97,741.856 1521,741.579 1521,741.45C1521,764.402 1523.86,783.662 1529.48,806.067C1530.59,810.49 1534.32,817.514 1539.05,825.495C1550.8,845.312 1568.85,870.38 1573.57,877.136C1574.51,878.474 1575.03,879.322 1575.13,879.528C1575.72,880.715 1575.71,881.618 1575.7,882.014C1575.7,882.027 1575.13,887.207 1570.64,887.215C1569.33,887.217 1562.72,887.214 1562.2,887.214C1533.45,887.214 1504.73,886.53 1476.34,890.048C1457.92,892.33 1429.62,905.239 1405.31,915.085C1388.15,922.036 1372.84,927.415 1363.85,927.335C1361.2,927.312 1359.08,924.968 1359.11,922.104C1359.15,919.241 1361.34,916.935 1363.99,916.958C1372.25,917.032 1386.22,911.757 1401.98,905.373C1427.05,895.217 1456.3,882.093 1475.3,879.739C1503.72,876.217 1532.47,876.822 1561.24,876.836C1553.68,866.104 1540.33,846.957 1530.94,831.125C1525.54,822.014 1521.46,813.888 1520.19,808.838C1514.86,787.592 1511.93,769.058 1511.45,747.87Z"/>
    </g>
    <g transform="matrix(1.44083,0,0,1.45536,-266.232,-508.288)">
        <path d="M876.836,933.61C914.411,900.92 946.248,894.392 970.317,901.798C1000.3,911.024 1018.94,942.168 1022.53,974.31C1026.14,1006.66 1014.48,1039.63 985.166,1052.16C957.301,1064.06 930.863,1063.12 909.87,1052.23C888.877,1041.33 873.217,1020.4 867.134,991.858C860.512,960.792 868.75,915.258 884.863,888.507C887.108,884.781 891.883,878.079 896.048,874.853C899.75,871.987 903.413,871.72 905.946,873.433C907.84,874.715 909.889,877.998 909.903,884.875C909.906,886.404 910.261,893.442 909.683,896.173C908.95,899.636 906.369,900.499 904.881,900.454C902.584,900.383 900.777,898.479 900.848,896.205C900.873,895.413 901.122,894.68 901.534,894.065C901.543,892.366 901.577,886.013 901.574,884.891C901.572,883.643 901.4,882.367 901.233,881.426C900.599,881.897 899.846,882.498 899.285,883.072C896.393,886.035 893.538,890.205 892.016,892.731C885.336,903.821 880.088,918.336 876.836,933.61ZM874.637,946.178C872.505,961.695 872.532,977.249 875.283,990.155C880.787,1015.98 894.743,1035.06 913.738,1044.92C932.733,1054.79 956.654,1055.35 981.867,1044.59C1007.86,1033.48 1017.45,1003.9 1014.25,975.215C1011.03,946.325 994.795,917.964 967.845,909.672C944.435,902.469 913.463,910.608 876.314,945.226C875.822,945.685 875.245,946.003 874.637,946.178ZM904.04,892.323L903.981,892.339L904.091,892.311L904.04,892.323ZM904.914,892.212C904.639,892.217 904.367,892.248 904.102,892.309C904.364,892.251 904.636,892.217 904.914,892.212ZM904.93,892.211L905.14,892.212C905.07,892.21 905,892.21 904.93,892.211Z"/>
    </g>
    <g transform="matrix(1.44083,0,0,1.45536,-266.232,-508.288)">
        <path d="M962.994,1109.18C961.814,1108.43 961.044,1107.11 961.08,1105.62C961.134,1103.34 963.043,1101.54 965.341,1101.59C966.907,1101.63 968.935,1102.53 970.257,1105.1C972.069,1108.63 973.25,1117.61 973.25,1120.08C973.25,1162.96 971.389,1206.25 976.104,1248.69C978.002,1265.77 979.009,1286.81 979.009,1303.64C979.009,1305.78 979.601,1313.32 979.149,1315.02C978.399,1317.83 976.282,1318.38 974.963,1318.4C974.089,1318.41 972.997,1318.21 971.922,1317.22C971.513,1316.84 970.68,1315.8 969.907,1313.56C969.364,1311.98 969.839,1310.31 970.983,1309.23C970.86,1306.99 970.68,1304.66 970.68,1303.64C970.68,1287.08 969.692,1266.39 967.826,1249.6C963.077,1206.86 964.921,1163.26 964.921,1120.08C964.921,1118.31 964.248,1112.03 962.994,1109.18Z"/>
    </g>
    <path d="M1568.17,1294.78C1567.75,1294.61 1567.32,1294.45 1566.92,1294.32C1563.2,1293.17 1558.07,1292.29 1551.95,1291.57C1509.52,1286.6 1422.14,1290.38 1406.55,1289.56C1339.86,1286.05 1276.87,1274.8 1216.68,1244.85C1200.23,1236.66 1184.18,1219.87 1169.36,1207.6C1160.96,1200.64 1153.22,1194.99 1145.86,1194.89C1142.55,1194.85 1139.9,1192.12 1139.94,1188.81C1139.99,1185.5 1142.71,1182.85 1146.02,1182.89C1155.56,1183.02 1166.12,1189.33 1177.02,1198.36C1191.16,1210.06 1206.32,1226.29 1222.03,1234.1C1280.71,1263.31 1342.16,1274.15 1407.18,1277.57C1425.2,1278.52 1537.98,1273.62 1569.42,1282.55C1573.12,1283.6 1575.92,1284.91 1577.73,1286.28C1579.99,1287.99 1581.17,1289.99 1581.62,1291.99C1582.29,1294.94 1581.58,1298.72 1577.19,1302.46C1574.66,1304.6 1570.87,1304.29 1568.73,1301.77C1567.02,1299.75 1566.87,1296.93 1568.17,1294.78Z"/>
    <path d="M1150.36,1226.29C1147.65,1225.69 1145.64,1223.25 1145.68,1220.36C1145.72,1217.05 1148.44,1214.4 1151.76,1214.44C1151.51,1214.44 1150.96,1214.5 1150.96,1214.5C1150.96,1214.5 1156.5,1214.75 1158.07,1216.72C1200.98,1270.51 1236.07,1314.95 1302.53,1341.08C1392.52,1376.46 1517.38,1385.95 1613.27,1372.29C1613.71,1372.22 1614.17,1372.12 1614.61,1372.01L1614.47,1371.94C1612.04,1370.69 1608.68,1369.89 1604.8,1369.85C1601.48,1369.82 1598.82,1367.1 1598.85,1363.79C1598.89,1360.48 1601.6,1357.82 1604.91,1357.85C1613.67,1357.94 1620.62,1360.9 1624.34,1364.22C1626.81,1366.42 1628.12,1368.94 1628.5,1371.25C1629.27,1375.99 1626.57,1382.51 1614.97,1384.17C1517.2,1398.09 1389.89,1388.32 1298.13,1352.25C1230.38,1325.61 1193.91,1280.89 1150.36,1226.29Z"/>
    <g transform="matrix(1.44083,0,0,1.45536,-266.232,-508.288)">
        <path d="M981.253,1299.87C981.67,1297.98 983.388,1296.59 985.411,1296.63C991.449,1296.76 990.644,1301.55 990.179,1302.62C989.991,1303.05 989.666,1303.61 989.061,1304.15C988.83,1304.36 988.421,1304.65 987.904,1304.99C987.711,1305.12 987.27,1305.47 987.178,1305.55C985.372,1309.24 985.2,1315.38 985.419,1322.02C985.792,1333.31 987.647,1345.92 987.647,1352.4C987.647,1373.8 984.986,1428.31 991.149,1466.79C993.635,1482.32 997.359,1495.17 1003.73,1501.51C1005.48,1503.24 1011.78,1505.63 1013.61,1506.24C1021.76,1508.94 1033.12,1506.21 1045.24,1502.16C1065.2,1495.49 1086.96,1484.87 1101.06,1483.12C1125.48,1480.08 1158.34,1472.51 1183.01,1477.43C1189.11,1478.64 1198.8,1482.66 1207.48,1485.66C1212.58,1487.42 1217.27,1488.88 1220.41,1488.8C1222.71,1488.74 1224.62,1490.54 1224.68,1492.82C1224.73,1495.09 1222.91,1496.99 1220.62,1497.04C1216.77,1497.14 1210.98,1495.6 1204.74,1493.45C1196.44,1490.58 1187.2,1486.67 1181.36,1485.51C1157.5,1480.76 1125.72,1488.35 1102.1,1491.3C1088.4,1493 1067.31,1503.48 1047.9,1509.97C1033.78,1514.69 1020.46,1517.21 1010.97,1514.06C1008.5,1513.24 1000.18,1509.66 997.831,1507.32C990.586,1500.12 985.75,1485.73 982.923,1468.08C976.691,1429.17 979.319,1374.04 979.319,1352.4C979.319,1345.97 977.464,1333.48 977.095,1322.29C976.821,1314 977.469,1306.38 979.751,1301.81C980.092,1301.13 980.657,1300.45 981.253,1299.87Z"/>
    </g>
    <g transform="matrix(1.44083,0,0,1.45536,-266.232,-508.288)">
        <path d="M1201.67,1453.69C1200.17,1453.06 1199.12,1451.57 1199.14,1449.85C1199.17,1447.57 1201.06,1445.75 1203.35,1445.78C1205.04,1445.8 1207.07,1446.77 1208.62,1449.02C1210.25,1451.4 1211.64,1455.62 1212.12,1457.53C1221.98,1496.82 1230.65,1535.75 1243.73,1574.82C1249.09,1590.86 1256,1607.82 1263.65,1623.05C1264.59,1624.93 1269.33,1634.69 1271.15,1639.51C1271.88,1641.42 1272.14,1642.89 1272.12,1643.51C1272.08,1645 1271.41,1645.92 1270.84,1646.48C1269.95,1647.36 1268.82,1647.85 1267.35,1647.68C1266.82,1647.62 1265.01,1647.15 1263.05,1644.5C1262.14,1643.29 1262.02,1641.74 1262.58,1640.45C1260.55,1635.61 1256.97,1628.28 1256.19,1626.72C1248.38,1611.15 1241.31,1593.81 1235.82,1577.42C1222.68,1538.14 1213.95,1499.01 1204.04,1459.52C1203.74,1458.32 1202.12,1454.69 1201.67,1453.69Z"/>
    </g>
    <g transform="matrix(1.44083,0,0,1.45536,-266.232,-508.288)">
        <path d="M1213.65,1660.99C1210.57,1651.75 1199.1,1624.3 1195.55,1614.85C1188.53,1596.19 1178.21,1557.06 1161.71,1528.63C1151.46,1510.97 1139.04,1497.27 1122.93,1497.04C1120.64,1497.01 1118.8,1495.14 1118.83,1492.86C1118.86,1490.59 1120.76,1488.77 1123.05,1488.8C1141.77,1489.06 1157.02,1503.99 1168.93,1524.52C1185.68,1553.37 1196.24,1593.04 1203.35,1611.97C1206.72,1620.92 1217.11,1645.89 1220.92,1656.58C1221.8,1659.04 1222.34,1660.86 1222.49,1661.72C1222.63,1662.6 1222.56,1663.24 1222.48,1663.62C1222.18,1665.09 1221.35,1665.88 1220.6,1666.36C1219.74,1666.9 1218.73,1667.17 1217.52,1666.94C1217.04,1666.85 1215.55,1666.47 1214.18,1664.43C1213.47,1663.38 1213.32,1662.12 1213.65,1660.99Z"/>
    </g>
    <g transform="matrix(1.44083,0,0,1.45536,-266.232,-508.288)">
        <path d="M865.972,1272.94C864.494,1272.26 863.495,1270.75 863.563,1269.04C863.652,1266.77 865.589,1264.99 867.885,1265.08C869.943,1265.16 872.504,1266.73 874.019,1270.47C876.893,1277.57 877.962,1295.28 878.204,1297.45C879.884,1312.51 883.166,1345.01 887.329,1380.32C887.335,1374.06 887.248,1368.04 886.915,1365.63C886.632,1365.05 886.484,1364.4 886.507,1363.71C886.575,1361.73 888.05,1360.12 889.95,1359.79C889.748,1354.25 889.667,1348.83 889.745,1343.66C889.992,1327.35 891.894,1313.33 896.239,1304.67C898.118,1300.93 900.972,1301.15 901.911,1301.38C902.993,1301.65 904.342,1302.35 905.038,1304.25C905.356,1305.12 905.549,1307.39 905.373,1310.34C905.079,1315.29 904.144,1322.89 904.144,1326.59C904.144,1346.98 907.015,1366.93 907.024,1386.82C907.031,1405.04 924.089,1463.35 929.272,1501.7C930.666,1512.01 931.205,1520.95 930.454,1527.43C929.838,1532.74 928.236,1536.62 925.98,1538.87C924.406,1540.44 922.731,1541 921.12,1541C919.173,1541 916.997,1540.05 915.047,1537.77C912.893,1535.25 910.689,1530.64 908.783,1525.34C907.57,1521.97 906.449,1518.32 905.474,1514.85C905.366,1514.83 905.258,1514.81 905.148,1514.78C904.538,1514.62 903.083,1514.14 902.001,1511.99C897.995,1504.04 893.764,1484.82 889.827,1460.73C880.846,1405.75 872.892,1324.95 869.926,1298.36C869.728,1296.58 869.045,1283.66 867.069,1276.01C866.788,1274.92 866.23,1273.55 865.972,1272.94ZM902.908,1414.48C904.54,1428.62 906.163,1441.03 907.014,1449.51C908.668,1465.98 909.879,1481.51 909.902,1498.19C910.446,1500.73 913.537,1514.76 917.456,1524.78C918.418,1527.24 920.055,1530.04 921.034,1531.62C921.628,1530.32 921.939,1528.56 922.18,1526.49C922.871,1520.52 922.301,1512.29 921.017,1502.79C917.439,1476.33 908.318,1440.42 902.908,1414.48ZM888.516,1367.38C889.109,1367.75 889.729,1367.91 890.328,1367.96L890.328,1367.96C889.667,1367.91 889.051,1367.7 888.516,1367.38Z"/>
    </g>
    <g transform="matrix(1.44083,0,0,1.45536,-266.232,-508.288)">
        <path d="M1124.75,1543.35C1111.67,1545.98 1098.35,1548.19 1085.32,1551.44C1063.82,1556.79 1016.71,1573.22 981.674,1582.37C966.163,1586.42 952.929,1589.02 945.06,1588.82C942.763,1588.77 940.944,1586.87 941.002,1584.6C941.06,1582.32 942.973,1580.52 945.27,1580.58C952.642,1580.77 965.017,1578.19 979.55,1574.39C1014.62,1565.23 1061.76,1548.8 1083.29,1543.44C1101.43,1538.92 1120.14,1536.41 1137.98,1531.97C1138.07,1531.94 1145.13,1530.03 1148.93,1529.88C1150.94,1529.8 1152.47,1530.29 1153.28,1530.81C1154.42,1531.54 1155.05,1532.53 1155.32,1533.67C1155.57,1534.76 1155.61,1536.71 1153.42,1538.88C1151.03,1541.25 1147.55,1542.77 1143.67,1543.89C1139.33,1545.15 1134.39,1545.85 1130.98,1548.02C1129.05,1549.25 1126.47,1548.69 1125.23,1546.78C1124.54,1545.72 1124.4,1544.47 1124.75,1543.35Z"/>
    </g>
    <g transform="matrix(1.44083,0,0,1.45536,-266.232,-508.288)">
        <path d="M941.974,1742.68C942.204,1741.38 942.592,1739.05 942.843,1736.81C944.731,1719.94 946.486,1681.11 941.142,1659.17C940.11,1654.94 938.842,1651.38 937.167,1648.88C936.142,1647.36 935.074,1646.23 933.58,1646.19C931.283,1646.13 929.468,1644.23 929.53,1641.96C929.592,1639.68 931.507,1637.88 933.805,1637.95C937.496,1638.04 940.733,1639.85 943.375,1643.3C946.328,1647.16 948.588,1653.44 950.093,1661.16C955.481,1688.79 952.071,1735.88 950.039,1745C949.625,1746.86 948.944,1747.92 948.595,1748.31C947.513,1749.51 946.291,1749.77 945.277,1749.75C944.225,1749.73 942.062,1749.4 941.18,1746.52C940.757,1745.14 941.103,1743.71 941.974,1742.68Z"/>
    </g>
    <g transform="matrix(1.44083,0,0,1.45536,-266.232,-508.288)">
        <path d="M1122.41,1558.32C1121.95,1557.65 1121.69,1556.84 1121.7,1555.96C1121.73,1553.69 1123.62,1551.87 1125.92,1551.9C1126.68,1551.91 1127.66,1552.09 1128.64,1552.93C1128.91,1553.16 1129.8,1554.24 1130.57,1556.38C1134.22,1566.51 1149.08,1618.49 1162.88,1645.99C1174.78,1669.71 1188.93,1692.18 1200.3,1714.83C1200.58,1715.39 1201.09,1715.68 1201.32,1715.89C1201.72,1716.26 1202,1716.59 1202.18,1716.84C1203.64,1718.92 1203.08,1720.64 1202.07,1721.92C1201.73,1722.34 1200.61,1723.67 1197.52,1723.63C1195.22,1723.6 1193.38,1721.73 1193.4,1719.46L1193.4,1719.43C1193.19,1719.12 1193,1718.81 1192.84,1718.5C1181.48,1695.85 1167.33,1673.38 1155.42,1649.66C1141.48,1621.88 1126.41,1569.38 1122.73,1559.15C1122.62,1558.85 1122.49,1558.53 1122.41,1558.32Z"/>
    </g>
    <g transform="matrix(1.44083,0,0,1.45536,-266.232,-508.288)">
        <path d="M1020.66,1599.82C1019.32,1599.12 1018.41,1597.7 1018.44,1596.1C1018.49,1593.82 1020.39,1592.01 1022.69,1592.05C1023.72,1592.07 1025.03,1592.42 1026.3,1593.64C1027.7,1594.97 1029.79,1598.72 1032.01,1604.28C1041.57,1628.3 1057.83,1689.44 1059.59,1701.74C1060.84,1710.44 1063.81,1739.39 1064.07,1744.39C1064.18,1746.57 1063.33,1747.71 1063.21,1747.86C1062.46,1748.82 1061.56,1749.22 1060.72,1749.39C1059.72,1749.58 1058.63,1749.48 1057.53,1748.72C1057.16,1748.47 1056.55,1748.01 1056.11,1747.04C1055.78,1746.33 1055.67,1745.58 1055.76,1744.86L1055.75,1744.82C1055.5,1739.9 1052.57,1711.45 1051.35,1702.9C1049.61,1690.83 1033.64,1630.87 1024.26,1607.31C1022.92,1603.94 1021.15,1600.7 1020.66,1599.82ZM1062.73,1742.31C1063.12,1742.66 1063.45,1743.1 1063.68,1743.61C1063.4,1742.99 1063.04,1742.58 1062.73,1742.31ZM1061.22,1741.42L1061.29,1741.44L1061.26,1741.43L1061.22,1741.42ZM1061,1741.35L1061.12,1741.38L1061.06,1741.36L1061,1741.35ZM1060.81,1741.3L1060.93,1741.33L1060.86,1741.31L1060.81,1741.3ZM1060.64,1741.27L1060.69,1741.28L1060.65,1741.27L1060.64,1741.27Z"/>
    </g>
    <g transform="matrix(1.44083,0,0,1.45536,-266.232,-508.288)">
        <path d="M1093.42,1560.05C1091.53,1559.64 1090.12,1557.95 1090.15,1555.96C1090.18,1553.68 1092.08,1551.86 1094.38,1551.9C1095.21,1551.91 1096.5,1552.2 1098.02,1553.15C1099.65,1554.16 1102.11,1556.26 1105.1,1559.16C1120.56,1574.2 1152.42,1612.34 1159.21,1619.11C1161.24,1621.13 1162.37,1622.83 1162.81,1624.06C1163.29,1625.38 1163.26,1626.54 1162.98,1627.53C1162.57,1628.95 1161.63,1630.25 1159.74,1631.06C1158.65,1631.52 1156.93,1631.86 1154.52,1631.85C1152.23,1631.84 1150.37,1629.98 1150.38,1627.71C1150.39,1626.16 1151.25,1624.82 1152.53,1624.12C1144.37,1615.59 1114.18,1579.55 1099.26,1565.05C1096.86,1562.71 1093.95,1560.45 1093.42,1560.05Z"/>
    </g>
</svg>
