<?xml version="1.0" encoding="UTF-8" standalone="no"?>
<!DOCTYPE svg PUBLIC "-//W3C//DTD SVG 1.1//EN" "http://www.w3.org/Graphics/SVG/1.1/DTD/svg11.dtd">
<svg width="100%" height="100%" viewBox="0 0 3508 2481" version="1.1" xmlns="http://www.w3.org/2000/svg" xmlns:xlink="http://www.w3.org/1999/xlink" xml:space="preserve" xmlns:serif="http://www.serif.com/" style="fill-rule:evenodd;clip-rule:evenodd;stroke-linejoin:round;stroke-miterlimit:2;">
    <path d="M1285.2,2210.57L1285.2,2210.85C1285.2,2214.16 1287.89,2216.85 1291.2,2216.85C1294.51,2216.85 1297.2,2214.16 1297.2,2210.85L1297.2,2210.57C1297.2,2207.26 1294.51,2204.57 1291.2,2204.57C1287.89,2204.57 1285.2,2207.26 1285.2,2210.57Z" style="fill:rgb(140,140,140);"/>
    <g transform="matrix(1.60707,0,0,1.30951,188.304,-266.889)">
        <path d="M764.575,635.113C765.261,634.187 766.251,633.608 767.35,633.612C771.592,633.631 771.676,637.897 771.504,639.127C771.475,639.33 771.414,639.655 771.281,640.042C806.822,635.734 832.557,647.495 849.347,666.921C900.579,726.196 869.352,858.663 778.085,843.521C746.122,838.218 730.482,812.71 724.185,782.619C718.078,753.439 720.945,719.881 725.989,697.23C728.011,688.147 729.894,674.437 734.14,662.858C734.946,660.66 735.837,658.538 736.825,656.528C735.995,655.956 735.343,654.997 735.063,653.786C734.5,651.354 735.653,648.818 737.635,648.128C739.798,647.374 741.933,646.671 744.048,646.017C745.264,644.797 746.569,643.712 747.968,642.782C751.198,640.634 761.204,636.485 764.575,635.113ZM747.584,654.381C744.77,657.657 742.657,661.96 740.949,666.618C736.873,677.736 735.134,690.924 733.192,699.646C728.426,721.052 725.646,752.763 731.417,780.34C736.998,807.005 750.76,829.74 779.085,834.439C862.272,848.241 890.921,727.616 844.225,673.589C825.034,651.386 793.256,640.721 747.584,654.381Z"/>
    </g>
    <g transform="matrix(0.929292,0,0,1.34666,724.284,-298.382)">
        <path d="M795.553,848.811C795.383,848.41 795.295,847.985 795.299,847.547C795.32,845.088 798.23,843.103 801.794,843.118C802.538,843.121 807.754,843.58 808.392,847.77C808.998,851.74 809.182,873.047 808.808,902.385C808.191,950.887 806.124,1021.52 802.275,1071.54C799.497,1107.66 791.027,1158.8 804.941,1193.45C806.223,1196.64 807.797,1201.23 809.666,1205.01C809.842,1205.37 810.055,1205.75 810.285,1206.13C810.598,1205.6 810.881,1205.04 811.107,1204.46C811.68,1203 812.044,1201.34 810.715,1199.96C808.746,1197.91 809.558,1195.14 812.527,1193.78C815.497,1192.42 819.507,1192.98 821.477,1195.03C824.336,1198.01 824.945,1201.4 824.223,1204.67C823.323,1208.75 820.263,1212.55 818.423,1214.38C815.979,1216.82 813.235,1217.61 810.971,1217.76C808.274,1217.95 805.431,1217.3 802.952,1215.39C801.418,1214.21 799.867,1212.29 798.525,1209.93C796.107,1205.68 794.075,1199.76 792.497,1195.83C778.257,1160.37 786.537,1108.04 789.381,1071.07C795.136,996.249 796.899,875.204 795.781,851.738C795.722,850.515 795.605,849.298 795.553,848.811ZM797.231,850.75C798.668,851.772 800.307,852.023 801.716,852.029C799.969,852.022 798.387,851.535 797.231,850.75Z"/>
    </g>
    <g transform="matrix(1.60707,0,0,1.30951,188.304,-266.889)">
        <path d="M805.947,926.318C804.652,925.595 803.753,923.99 803.758,922.132C803.765,919.603 805.443,917.557 807.504,917.565C808.206,917.568 809.179,917.795 810.236,918.744C811.269,919.671 813.063,922.281 815.213,926.19C824.137,942.415 842.367,983.707 847.593,990.802C854.867,1000.68 900.981,1045.08 918.393,1069.18C921.788,1073.88 924.144,1077.94 925.177,1080.93C925.897,1083.01 926.077,1084.82 925.919,1086.25C925.643,1088.76 923.761,1090.51 921.719,1090.17C919.738,1089.85 918.329,1087.66 918.5,1085.24C918.408,1084.98 917.663,1082.88 916.824,1081.4C914.447,1077.18 910.331,1071.74 905.245,1065.62C884.607,1040.78 848.433,1005.61 842.053,996.947C836.739,989.732 818.099,947.817 809.024,931.317C807.8,929.092 806.366,926.936 805.947,926.318Z"/>
    </g>
    <g transform="matrix(1.60707,0,0,1.30951,188.304,-266.889)">
        <path d="M787.225,1153.31C785.246,1153.19 783.674,1151.18 783.68,1148.72C783.687,1146.19 785.366,1144.14 787.427,1144.15C790.768,1144.17 793.058,1146.48 794.402,1150.42C795.356,1153.21 795.762,1157.07 795.984,1160.72C796.15,1163.45 796.165,1166.03 796.528,1167.48C811.994,1229.1 833.722,1298.57 862.388,1355.74C872.228,1375.36 880.196,1399.24 880.196,1421.24C880.196,1424.37 878.589,1430.13 876.52,1434.77C875.024,1438.12 873.263,1440.85 871.93,1442.01C870.165,1443.54 868.481,1443.53 867.183,1442.87C865.965,1442.26 864.157,1440.45 863.994,1435.75C863.905,1433.23 865.505,1431.09 867.564,1430.98C868.233,1430.94 868.868,1431.13 869.424,1431.48C869.622,1431.1 869.81,1430.73 869.971,1430.37C871.383,1427.2 872.729,1423.38 872.729,1421.24C872.729,1400.83 865.159,1378.74 856.029,1360.54C827.039,1302.73 805.032,1232.49 789.392,1170.17C788.76,1167.65 788.769,1162.34 788.23,1157.65C788.074,1156.3 787.872,1155.01 787.514,1153.96C787.444,1153.75 787.308,1153.47 787.225,1153.31Z"/>
    </g>
    <g transform="matrix(1.60707,0,0,1.30951,194.947,-253.889)">
        <path d="M855.903,1423.54C855.41,1422.51 855.242,1421.25 855.516,1420.01C856.056,1417.57 858.109,1416.13 860.098,1416.79C861.997,1417.43 862.987,1418.73 863.539,1420.07C864.097,1421.43 864.247,1423.07 863.82,1424.86C863.217,1427.4 860.1,1431.58 859.286,1432.64C849.12,1452.7 832.691,1470.76 815.813,1493.17C805.948,1506.28 789.583,1519.91 776.178,1534.3C767.794,1543.31 760.563,1552.55 757.304,1562.29C756.305,1565.28 756.045,1567.03 755.696,1568.04C755.238,1569.36 754.646,1570.21 753.919,1570.85C753.132,1571.54 752.046,1572.08 750.114,1572.08C748.053,1572.07 746.386,1570.01 746.394,1567.48C746.4,1565.37 747.571,1563.59 749.156,1563.07C749.425,1562 749.851,1560.44 750.397,1558.81C754.032,1547.94 761.91,1537.45 771.261,1527.4C784.462,1513.23 800.614,1499.86 810.329,1486.95C826.947,1464.88 843.198,1447.22 853.128,1427.44C853.197,1427.3 853.903,1426.34 854.861,1425.11C855.151,1424.73 855.554,1424.11 855.903,1423.54Z"/>
    </g>
    <g transform="matrix(1.60707,0,0,1.30951,204.375,-266.889)">
        <path d="M773.272,1194.96C772.611,1194.13 772.204,1192.99 772.208,1191.74C772.215,1189.21 773.894,1187.17 775.954,1187.18C776.673,1187.18 777.512,1187.4 778.353,1188.2C778.782,1188.61 779.553,1189.64 780.204,1191.54C783.385,1200.79 792.144,1247.91 793.78,1265.83C797.532,1306.95 802.549,1348.07 805.319,1389.3C807.548,1422.48 814.957,1456.52 819.672,1489.27C819.943,1491.15 821.475,1494.94 823.228,1499.27C826.261,1506.77 830.05,1515.59 831.242,1520.12C832.012,1523.05 831.72,1525.21 831.314,1526.22C830.588,1528.02 829.388,1529.06 827.557,1529.05C825.496,1529.04 823.829,1526.98 823.835,1524.46C823.837,1523.92 823.913,1523.41 824.052,1522.93C823.484,1521.17 822.105,1516.99 820.747,1513.62C817.251,1504.96 812.859,1494.62 812.319,1490.86C807.565,1457.84 800.125,1423.51 797.877,1390.05C795.113,1348.91 790.104,1307.88 786.359,1266.85C784.78,1249.55 776.395,1204.04 773.324,1195.1L773.272,1194.96ZM827.4,1519.89L827.581,1519.89C827.52,1519.89 827.46,1519.89 827.4,1519.89ZM775.738,1196.33C775.802,1196.34 775.865,1196.34 775.928,1196.34L775.738,1196.33Z"/>
    </g>
    <g transform="matrix(1.60707,0,0,1.30951,188.304,-266.889)">
        <path d="M781.644,1028.28C781.121,1027.49 780.809,1026.48 780.812,1025.39C780.819,1022.86 782.498,1020.81 784.559,1020.82C786.485,1020.83 787.887,1021.91 788.718,1024.14C789.273,1025.62 789.438,1028.75 788.582,1033.03C785.289,1049.47 768.781,1091.6 764.602,1102.01C749.42,1139.82 730.855,1176.04 715.663,1213.87C714.478,1216.82 711.126,1226.61 708.705,1230.42C707.157,1232.85 705.372,1233.63 704.221,1233.63C702.161,1233.62 700.494,1231.56 700.502,1229.03C700.508,1227.15 701.432,1225.55 702.748,1224.84C703.108,1224.18 704.165,1222.21 704.851,1220.58C706.553,1216.53 708.211,1211.7 708.965,1209.82C724.158,1171.99 742.722,1135.77 757.904,1097.96C761.482,1089.05 774.333,1056.4 779.646,1037.6C780.661,1034.01 781.362,1030.02 781.644,1028.28ZM784.38,1029.98C784.43,1029.98 784.481,1029.98 784.533,1029.98L784.38,1029.98Z"/>
    </g>
    <g transform="matrix(1.60707,0,0,1.30951,204.375,-266.889)">
        <path d="M830.425,1540.53C855.499,1540.62 884.775,1526.43 913.641,1526.18C915.702,1526.17 917.363,1524.1 917.348,1521.57C917.334,1519.04 915.649,1517 913.589,1517.02C884.749,1517.27 855.5,1531.46 830.449,1531.36C828.389,1531.35 826.71,1533.4 826.704,1535.93C826.697,1538.46 828.364,1540.52 830.425,1540.53Z"/>
    </g>
    <g transform="matrix(1.60707,0,0,1.30951,188.304,-266.889)">
        <path d="M833.293,1534.79C833.676,1534.79 833.951,1535.12 834.133,1535.49C834.519,1536.28 834.525,1537.41 833.809,1538.13C832.215,1539.74 831.979,1542.62 833.284,1544.58C834.588,1546.54 836.942,1546.83 838.537,1545.23C842.468,1541.28 842.651,1535.1 840.533,1530.77C839.044,1527.73 836.459,1525.64 833.317,1525.62C831.257,1525.62 829.578,1527.66 829.572,1530.19C829.565,1532.72 831.233,1534.78 833.293,1534.79Z"/>
    </g>
    <g transform="matrix(1.60707,0,0,1.30951,218.839,-266.889)">
        <path d="M724.299,1589.29C732.431,1589.32 760.695,1586.78 777.251,1589.93C780.406,1590.53 783.093,1591.32 785.013,1592.45C785.432,1592.7 785.805,1592.96 786.119,1593.25C786.303,1593.42 786.546,1593.47 786.563,1593.7C786.74,1596.22 788.551,1598.09 790.604,1597.87C792.657,1597.65 794.179,1595.43 794.002,1592.91C793.794,1589.97 792.456,1587.33 789.846,1585.28C787.335,1583.31 783.33,1581.82 778.397,1580.88C761.492,1577.65 732.631,1580.16 724.327,1580.12C722.267,1580.11 720.588,1582.16 720.58,1584.69C720.572,1587.21 722.239,1589.28 724.299,1589.29Z"/>
    </g>
    <g transform="matrix(1.60707,0,0,1.30951,188.304,-266.889)">
        <path d="M691.915,1552.72C692.092,1550.39 693.699,1548.56 695.646,1548.57C695.939,1548.57 699.587,1549.02 699.357,1553.45C699.353,1553.53 699.318,1553.94 699.243,1554.62C698.716,1559.49 695.881,1584.1 696.468,1589.87C696.723,1592.38 695.27,1594.67 693.226,1594.99C691.181,1595.3 689.314,1593.52 689.058,1591.01C688.433,1584.86 691.279,1558.6 691.842,1553.41L691.915,1552.72Z"/>
    </g>
    <g transform="matrix(1.60707,0,0,1.30951,188.304,-266.889)">
        <path d="M677.576,1490.52C677.563,1490.36 677.556,1490.2 677.557,1490.03C677.565,1487.5 679.245,1485.46 681.306,1485.47C684.861,1485.49 686.195,1487.56 686.605,1488.58C687.152,1489.94 687.3,1491.6 686.414,1493.46C686.102,1494.11 685.512,1494.97 684.588,1495.85C683.494,1496.89 681.681,1498.23 679.691,1499.71C667.245,1509.01 659.24,1524.19 652.135,1538.36C633.938,1574.64 642.259,1606.61 644.856,1644.55C645.028,1647.07 643.501,1649.29 641.448,1649.5C639.394,1649.71 637.587,1647.84 637.415,1645.32C634.681,1605.36 626.611,1571.77 645.776,1533.55C653.473,1518.2 662.325,1501.96 675.808,1491.89C676.372,1491.46 676.988,1490.99 677.576,1490.52Z"/>
    </g>
    <g transform="matrix(1.60707,0,0,1.30951,188.304,-266.889)">
        <path d="M653.848,1442.91C654.345,1442.61 654.903,1442.44 655.492,1442.45C657.454,1442.46 658.248,1443.87 658.543,1444.37C659.179,1445.46 659.396,1446.68 659.15,1448.04C659.112,1448.25 658.633,1450.7 656.08,1451.65C652.727,1452.91 634.136,1458.68 630.389,1459.87L630.349,1459.88C612.621,1474.29 606.167,1495.43 600.706,1517.22C584.973,1579.99 595.945,1641.89 598.971,1704.9C599.092,1707.42 597.521,1709.59 595.464,1709.74C593.407,1709.89 591.638,1707.96 591.517,1705.44C588.439,1641.34 577.564,1578.38 593.569,1514.53C599.581,1490.54 607.025,1467.53 626.766,1451.8C626.79,1451.78 627.374,1451.36 628.518,1451C632.201,1449.83 650.4,1444.19 653.848,1442.91ZM652.767,1450.18C653.192,1450.79 653.991,1451.6 655.46,1451.61C654.4,1451.61 653.444,1451.06 652.767,1450.18Z"/>
    </g>
</svg>
