<?xml version="1.0" encoding="UTF-8" standalone="no"?>
<!DOCTYPE svg PUBLIC "-//W3C//DTD SVG 1.1//EN" "http://www.w3.org/Graphics/SVG/1.1/DTD/svg11.dtd">
<svg width="100%" height="100%" viewBox="0 0 3508 2481" version="1.1" xmlns="http://www.w3.org/2000/svg" xmlns:xlink="http://www.w3.org/1999/xlink" xml:space="preserve" xmlns:serif="http://www.serif.com/" style="fill-rule:evenodd;clip-rule:evenodd;stroke-linejoin:round;stroke-miterlimit:2;">
    <g transform="matrix(1.17382,0,0,1.09813,-236.702,-66.564)">
        <path d="M1453.58,677.188C1454.08,674.694 1456.18,672.842 1458.66,672.886C1461.7,672.94 1463.12,674.363 1463.77,675.199C1465.11,676.948 1465.67,679.181 1464.24,681.861C1463.72,682.832 1462.05,684.572 1459.51,686.274C1456.3,688.422 1451.13,691.192 1449.29,693.441C1441.6,702.844 1431.13,709.976 1423.34,719.299C1405.51,740.627 1393.15,771.78 1390.07,799.481C1384.71,847.72 1394.15,891.397 1422.1,916.924C1440.65,933.864 1467.27,942.611 1502.73,939.667C1548.32,935.883 1579.41,915.356 1598.1,887.315C1626.17,845.193 1626.39,786.491 1606.55,743.478C1595.7,719.952 1578.81,701.098 1557,692.549C1535.14,683.979 1508.46,685.88 1478.2,703.241C1475.71,704.667 1472.61,703.667 1471.28,701.01C1469.95,698.353 1470.88,695.038 1473.37,693.612C1506.82,674.423 1536.36,672.817 1560.52,682.29C1584.74,691.783 1603.67,712.522 1615.72,738.646C1637.1,785.004 1636.68,848.258 1606.43,893.655C1586.23,923.959 1552.79,946.472 1503.52,950.562C1464.74,953.781 1435.74,943.758 1415.46,925.233C1385.16,897.563 1374.11,850.48 1379.92,798.192C1383.23,768.415 1396.55,734.945 1415.72,712.018C1423.49,702.723 1433.93,695.622 1441.6,686.247C1443.56,683.847 1450.1,679.443 1453.58,677.188Z"/>
    </g>
    <g transform="matrix(1.07561,0,0,0.800805,-102.963,319.166)">
        <path d="M1484.66,949.323C1485.18,945.874 1487.47,943.294 1490.19,943.337C1494.41,943.404 1495.98,946.375 1496.57,947.9C1497.35,949.897 1497.59,952.264 1496.68,954.951C1496.22,956.338 1494.49,958.964 1491.63,961.38C1488.39,964.13 1483.05,967.643 1481.19,970.307C1470.14,986.196 1460.91,1007.75 1453.19,1026.23C1428.85,1084.41 1403.97,1142.19 1387.33,1202.97C1381.21,1225.33 1373.32,1248.66 1373.3,1272.1C1373.3,1275.51 1372.4,1280.23 1371.13,1284.93C1370.53,1287.17 1369.76,1289.81 1369.07,1292.13C1369.88,1294.72 1369.56,1297.82 1368.06,1300.04C1366.22,1302.77 1364.86,1303.86 1364.23,1304.21C1362.58,1305.14 1361.24,1304.91 1360.25,1304.5C1358.68,1303.86 1355.14,1300.96 1356.48,1294.24C1356.91,1292.09 1358.44,1287.46 1359.9,1282.46C1360.99,1278.75 1362.14,1274.81 1362.14,1272.08C1362.16,1246.94 1370.29,1221.79 1376.86,1197.8C1393.7,1136.29 1418.83,1077.77 1443.46,1018.89C1451.6,999.428 1461.4,976.81 1473.04,960.077C1474.91,957.386 1481.09,952.209 1484.66,949.323Z"/>
    </g>
    <g transform="matrix(1.4764,0,0,0.77241,-725.305,338.04)">
        <path d="M1611.97,1233.29C1612.43,1232.94 1612.94,1232.75 1613.47,1232.75C1615.43,1232.76 1616.38,1233.48 1616.53,1233.61C1617.76,1234.74 1618.26,1236.42 1618.52,1237.61C1619.03,1239.89 1619,1242.23 1618.27,1244.59C1618.01,1245.44 1617.46,1247.07 1616.1,1247.98C1615.92,1248.1 1615.12,1248.46 1613.78,1248.64C1607.22,1249.51 1577.77,1251.23 1568.61,1248.19C1541.75,1239.29 1534.04,1195.49 1528.19,1172.19C1513.68,1114.36 1510.54,1050.27 1510.51,991.013C1510.51,989.282 1510.97,985.159 1511.06,980.83C1511.08,979.564 1511.08,978.268 1510.95,977.077C1510.9,976.636 1510.87,976.196 1510.74,975.868C1510.63,975.61 1510.42,975.81 1510.17,975.806C1507.93,975.772 1506.12,972.265 1506.14,967.978C1506.16,963.69 1507.99,960.237 1510.23,960.271C1512.88,960.31 1514.75,961.945 1516.11,964.219C1517.48,966.5 1518.37,969.577 1518.82,973.129C1519.64,979.588 1518.63,988.198 1518.64,990.999C1518.66,1048.05 1521.55,1109.8 1535.52,1165.48C1540.61,1185.74 1546.64,1225.14 1570,1232.89C1578.27,1235.63 1603.86,1234.16 1611.97,1233.29Z"/>
    </g>
    <g transform="matrix(1.17382,0,0,1.64262,-236.702,-595.217)">
        <path d="M1491.74,973.06C1491.09,972.435 1490.73,971.66 1490.75,970.827C1490.81,968.811 1493.15,967.21 1495.97,967.255C1498.64,967.296 1500.25,968.034 1501.27,968.832C1502.51,969.807 1503.23,971.145 1502.82,972.909C1502.42,974.596 1500.03,977.493 1496.85,980.714C1493.36,984.247 1488.81,988.407 1487.92,991.704C1484.13,1005.59 1480.42,1019.94 1476.38,1034.73C1462.4,1085.77 1453.52,1136.66 1447.68,1189.2C1443.99,1222.41 1451.88,1255.09 1460.65,1287.63C1469.56,1320.72 1479.37,1353.65 1479.37,1386.82C1479.37,1389.72 1481,1401.64 1479.34,1408.48C1478.75,1410.94 1477.65,1412.88 1476.31,1414.07C1474.6,1415.58 1472.44,1416.3 1469.93,1416.26C1467.11,1416.21 1464.87,1414.54 1464.94,1412.53C1464.99,1410.93 1466.46,1409.6 1468.47,1409.14C1468.79,1408.01 1469.84,1404.11 1469.89,1401.23C1470,1395.29 1469.15,1388.83 1469.15,1386.82C1469.15,1354.11 1459.4,1321.64 1450.61,1289.01C1441.67,1255.83 1433.73,1222.49 1437.49,1188.62C1443.36,1135.8 1452.29,1084.64 1466.34,1033.33C1470.39,1018.54 1474.1,1004.19 1477.88,990.308C1478.83,986.835 1482.63,982.469 1486.48,978.547C1488.45,976.537 1490.39,974.647 1491.71,973.094L1491.74,973.06Z"/>
    </g>
    <g transform="matrix(1.17382,0,0,1.09813,-236.702,-66.564)">
        <path d="M1442.12,1331.06C1441.85,1330.36 1441.53,1329.51 1441.31,1328.84C1440.73,1327.12 1440.35,1325.33 1440.35,1323.7C1440.37,1320.78 1441.74,1319.55 1442.32,1319.04C1443.41,1318.09 1444.63,1317.7 1445.97,1317.81C1446.84,1317.88 1447.95,1318.17 1449.04,1319.19C1449.41,1319.54 1450.06,1320.3 1450.64,1321.5C1451.27,1322.84 1452.26,1325.67 1452.86,1326.87C1455.6,1332.32 1460.27,1338.69 1461.92,1345.25C1466.14,1362.08 1473.62,1379.71 1481.66,1395.71C1489.68,1411.66 1502.43,1424.22 1515.4,1435.14C1529.04,1446.63 1542.97,1456.36 1552.62,1466.01C1554.61,1468 1555.55,1471.41 1553.27,1475.58C1550.36,1480.88 1539.08,1490.31 1538.19,1491.2C1493.03,1536.14 1440.34,1569.64 1393.01,1611.84C1390.85,1613.78 1387.62,1613.46 1385.81,1611.15C1384.01,1608.83 1384.3,1605.38 1386.46,1603.45C1433.65,1561.38 1486.2,1528.01 1531.22,1483.21C1531.9,1482.53 1539.78,1476.32 1543.31,1471.74C1534,1463 1521.4,1454.11 1509.07,1443.73C1495.02,1431.89 1481.35,1418.16 1472.66,1400.88C1464.25,1384.14 1456.47,1365.69 1452.05,1348.08C1451.15,1344.5 1449.13,1341.03 1447.16,1337.76L1447.02,1337.76C1444.19,1337.71 1441.94,1335.22 1441.99,1332.21C1442,1331.82 1442.04,1331.43 1442.12,1331.06ZM1446.24,1326.91L1446.23,1326.92L1446.26,1326.91L1446.24,1326.91ZM1446.54,1326.87L1446.48,1326.88L1446.61,1326.86L1446.54,1326.87ZM1446.85,1326.84L1446.76,1326.85L1446.89,1326.84L1446.85,1326.84Z"/>
    </g>
</svg>
